<svg width="194" height="193" viewBox="0 0 194 193" fill="none" xmlns="http://www.w3.org/2000/svg">
<path d="M93.7076 5.70242C95.1709 3.16801 98.829 3.16802 100.292 5.70243L189.836 160.798C191.3 163.332 189.471 166.5 186.544 166.5H7.45568C4.52919 166.5 2.70015 163.332 4.16339 160.798L93.7076 5.70242Z" class="p1"/>
<path d="M94.9908 3.01355H99.0089L121.108 41.1855H73.3936L94.9908 3.01355Z" class="p2" />
<path d="M73.3931 41.1855H121.108L144.714 83.3756H48.7822L73.3931 41.1855Z" class="p3" />
<path d="M49.285 83.3757H144.715L169.326 125.566H24.1719L49.285 83.3757Z" class="p4" />
<path d="M97.7071 28.2929C97.3166 27.9024 96.6834 27.9024 96.2929 28.2929L89.9289 34.6569C89.5384 35.0474 89.5384 35.6805 89.9289 36.0711C90.3195 36.4616 90.9526 36.4616 91.3431 36.0711L97 30.4142L102.657 36.0711C103.047 36.4616 103.681 36.4616 104.071 36.0711C104.462 35.6805 104.462 35.0474 104.071 34.6569L97.7071 28.2929ZM97 29L96 29L96 193L97 193L98 193L98 29L97 29Z" class="p5" />
</svg>
