<svg xmlns="http://www.w3.org/2000/svg" version="1.1" viewBox="0 0 176 19" width="176" height="19"><path fill="currentColor" d="M55.133 6.74h-4.97V.01h4.91v.81h-4v2.06h3.69v.81h-3.69v2.25h4.06v.81z"/><path fill="currentColor" d="M56.223 1.84h.78v.69h.02c.18-.26.6-.84 1.48-.84s1.16.53 1.3.8c.41-.46.74-.8 1.5-.8.53 0 1.52.27 1.52 1.65v3.4h-.83V3.57c0-.68-.21-1.14-.91-1.14-.7 0-1.15.66-1.15 1.31v2.99h-.83v-3.4c0-.41-.16-.91-.77-.91-.47 0-1.29.3-1.29 1.63v2.67h-.83V1.84Z"/><path fill="currentColor" d="M66.103 6.17c.9 0 1.32-.82 1.32-1.89 0-.63-.07-1.84-1.34-1.84-1.19 0-1.32 1.29-1.32 2.08 0 1.3.82 1.65 1.34 1.65m-2.13-4.33h.78v.69h.02c.2-.28.57-.83 1.46-.83 1.3 0 2.05 1.07 2.05 2.45 0 1.17-.49 2.74-2.16 2.74-.66 0-1.09-.31-1.3-.66h-.02v2.46h-.83z"/><path fill="currentColor" d="M70.103 6.74h-.83V.01h.83v6.74z"/><path fill="currentColor" d="M73.343 6.16c1.18 0 1.43-1.22 1.43-1.88 0-.66-.24-1.88-1.43-1.88s-1.43 1.22-1.43 1.88c0 .66.24 1.88 1.43 1.88m0-4.46c1.57 0 2.28 1.32 2.28 2.59 0 1.27-.71 2.59-2.28 2.59-1.57 0-2.28-1.32-2.28-2.59 0-1.27.71-2.59 2.28-2.59"/><path fill="currentColor" d="M77.403 6.74h-.83v-4.9h.83v4.91zm-.83-6.73h.83v.94h-.83z"/><path fill="currentColor" d="M84.623 3.9c-.05-.76-.37-1.46-1.37-1.46-.76 0-1.36.7-1.36 1.46zm.79 1.3c-.03.23-.25.93-.87 1.34-.23.15-.55.34-1.33.34-1.38 0-2.19-1.04-2.19-2.46 0-1.52.73-2.73 2.35-2.73 1.42 0 2.11 1.13 2.11 2.86h-3.58c0 1.02.48 1.61 1.43 1.61.78 0 1.24-.6 1.27-.97h.83z"/><path fill="currentColor" d="M87.483 2.52v3.19c0 .39.33.39.5.39h.29v.65c-.3.03-.53.07-.62.07-.82 0-.99-.46-.99-1.05V2.53h-.67v-.69h.67V.47h.83v1.37h.79v.69h-.79z"/><path fill="currentColor" d="M50.963 16.75h1.76c1.18 0 1.95-.93 1.95-2.63 0-1.7-.78-2.55-2.02-2.55h-1.7v5.18zm-.91-5.96h2.73c1.75 0 2.83 1.33 2.83 3.27 0 1.51-.66 3.46-2.87 3.46h-2.69v-6.74z"/><path fill="currentColor" d="M58.893 11.96h-.63l.83-1.32h1.01l-1.22 1.32zm1.16 2.72c-.05-.76-.37-1.46-1.37-1.46-.76 0-1.36.7-1.36 1.46zm.79 1.31c-.03.23-.25.93-.87 1.34-.22.15-.54.34-1.33.34-1.38 0-2.19-1.04-2.19-2.46 0-1.52.73-2.73 2.35-2.73 1.42 0 2.11 1.13 2.11 2.86h-3.58c0 1.02.48 1.61 1.43 1.61.78 0 1.24-.6 1.27-.97h.83z"/><path fill="currentColor" d="M64.723 12.62h.9l-1.87 4.91h-.88l-1.79-4.91h.96l1.28 4h.02l1.39-4z"/><path fill="currentColor" d="M69.443 14.68c-.05-.76-.37-1.46-1.37-1.46-.76 0-1.36.7-1.36 1.46zm.79 1.31c-.03.23-.25.93-.87 1.34-.23.15-.55.34-1.33.34-1.38 0-2.19-1.04-2.19-2.46 0-1.52.73-2.73 2.35-2.73 1.42 0 2.11 1.13 2.11 2.86h-3.58c0 1.02.48 1.61 1.43 1.61.78 0 1.24-.6 1.27-.97h.83z"/><path fill="currentColor" d="M72.133 17.52h-.83v-6.74h.83z"/><path fill="currentColor" d="M75.373 16.94c1.18 0 1.43-1.22 1.43-1.88 0-.66-.24-1.88-1.43-1.88s-1.43 1.22-1.43 1.88c0 .66.24 1.88 1.43 1.88m0-4.46c1.57 0 2.28 1.32 2.28 2.59 0 1.27-.71 2.59-2.28 2.59-1.57 0-2.28-1.32-2.28-2.59 0-1.27.71-2.59 2.28-2.59"/><path fill="currentColor" d="M80.653 16.95c.9 0 1.32-.82 1.32-1.9 0-.63-.07-1.84-1.34-1.84-1.19 0-1.32 1.29-1.32 2.08 0 1.3.82 1.65 1.34 1.65m-2.13-4.32h.78v.69h.02c.2-.28.57-.83 1.46-.83 1.3 0 2.05 1.07 2.05 2.45 0 1.17-.49 2.74-2.16 2.74-.66 0-1.09-.31-1.3-.66h-.02v2.46h-.83z"/><path fill="currentColor" d="M85.863 16.95c.9 0 1.32-.82 1.32-1.9 0-.63-.07-1.84-1.34-1.84-1.19 0-1.32 1.29-1.32 2.08 0 1.3.82 1.65 1.34 1.65m-2.13-4.32h.78v.69h.02c.2-.28.57-.83 1.46-.83 1.3 0 2.05 1.07 2.05 2.45 0 1.17-.49 2.74-2.16 2.74-.66 0-1.09-.31-1.3-.66h-.02v2.46h-.83z"/><path fill="currentColor" d="M92.393 14.68c-.05-.76-.37-1.46-1.37-1.46-.76 0-1.36.7-1.36 1.46zm.79 1.31c-.03.23-.25.93-.87 1.34-.23.15-.55.34-1.33.34-1.38 0-2.19-1.04-2.19-2.46 0-1.52.73-2.73 2.35-2.73 1.42 0 2.11 1.13 2.11 2.86h-3.58c0 1.02.48 1.61 1.43 1.61.78 0 1.24-.6 1.27-.97h.83z"/><path fill="currentColor" d="M94.233 12.62h.78v.69h.02c.18-.26.6-.84 1.48-.84s1.16.53 1.3.8c.41-.46.74-.8 1.5-.8.53 0 1.52.27 1.52 1.65v3.4h-.83v-3.17c0-.68-.21-1.14-.91-1.14-.7 0-1.15.66-1.15 1.31v2.99h-.83v-3.4c0-.41-.16-.91-.77-.91-.47 0-1.29.3-1.29 1.63v2.67h-.83v-4.91z"/><path fill="currentColor" d="M105.433 14.68c-.05-.76-.37-1.46-1.37-1.46-.76 0-1.36.7-1.36 1.46zm.79 1.31c-.03.23-.25.93-.87 1.34-.23.15-.54.34-1.33.34-1.38 0-2.2-1.04-2.2-2.46 0-1.52.73-2.73 2.36-2.73 1.42 0 2.11 1.13 2.11 2.86h-3.59c0 1.02.48 1.61 1.43 1.61.78 0 1.24-.6 1.27-.97h.83z"/><path fill="currentColor" d="M111.263 17.52h-.83V14.5c0-.85-.24-1.29-1.05-1.29-.47 0-1.29.3-1.29 1.63v2.67h-.83V12.6h.78v.69h.02c.18-.26.64-.83 1.48-.83.76 0 1.72.31 1.72 1.71v3.34z"/><path fill="currentColor" d="M113.503 13.3v3.19c0 .39.33.39.5.39h.29v.65c-.3.03-.53.07-.62.07-.82 0-.99-.46-.99-1.05v-3.24h-.67v-.69h.67v-1.37h.83v1.37h.79v.69h-.79z"/><path fill="currentColor" d="M120.493 14.02c0-.31-.12-.83-1.16-.83-.25 0-.97.08-.97.69 0 .4.25.5.89.66l.83.21c1.02.25 1.38.63 1.38 1.3 0 1.01-.83 1.62-1.94 1.62-1.94 0-2.08-1.13-2.11-1.72h.8c.03.39.14 1 1.3 1 .59 0 1.13-.23 1.13-.78 0-.39-.27-.53-.98-.7l-.96-.23c-.68-.17-1.13-.52-1.13-1.19 0-1.08.89-1.57 1.86-1.57 1.75 0 1.88 1.29 1.88 1.54h-.8z"/><path fill="currentColor" d="M124.393 16.94c1.18 0 1.43-1.22 1.43-1.88 0-.66-.24-1.88-1.43-1.88s-1.43 1.22-1.43 1.88c0 .66.24 1.88 1.43 1.88m0-4.46c1.57 0 2.28 1.32 2.28 2.59 0 1.27-.71 2.59-2.28 2.59-1.57 0-2.28-1.32-2.28-2.59 0-1.27.71-2.59 2.28-2.59"/><path fill="currentColor" d="M130.683 14.27c-.1-.66-.47-1.05-1.16-1.05-1.02 0-1.35.97-1.35 1.85 0 .88.21 1.89 1.34 1.89.55 0 1.03-.41 1.17-1.16h.8c-.08.78-.56 1.88-2 1.88s-2.2-1.04-2.2-2.46c0-1.52.73-2.73 2.35-2.73 1.29 0 1.77.94 1.84 1.79h-.8z"/><path fill="currentColor" d="M133.153 17.52h-.83v-4.91h.83zm-.83-6.73h.83v.94h-.83z"/><path fill="currentColor" d="M137.383 15.02c-.13.1-.34.18-1.36.31-.4.06-1.05.18-1.05.8 0 .53.27.85.89.85.77 0 1.52-.5 1.52-1.15zm-3.02-.91c.04-1.17.82-1.63 2.03-1.63.39 0 1.82.11 1.82 1.37v2.82c0 .21.1.29.27.29.08 0 .18-.02.27-.04v.6c-.14.04-.26.09-.45.09-.73 0-.84-.38-.87-.75-.32.35-.82.8-1.77.8-.9 0-1.54-.57-1.54-1.42 0-.41.12-1.37 1.49-1.54l1.36-.17c.2-.02.43-.09.43-.58 0-.52-.37-.8-1.15-.8-.94 0-1.07.57-1.13.95h-.76z"/><path fill="currentColor" d="M140.443 17.52h-.83v-6.74h.83z"/><path fill="currentColor" d="M149.123 12.82c-.25-1.18-1.24-1.4-1.89-1.4-1.22 0-2.21.9-2.21 2.67 0 1.59.56 2.81 2.23 2.81.59 0 1.61-.28 1.92-1.85h.88c-.37 2.54-2.44 2.65-2.95 2.65-1.53 0-3.03-.99-3.03-3.58 0-2.07 1.18-3.51 3.14-3.51 1.74 0 2.64 1.08 2.77 2.2h-.88z"/><path fill="currentColor" d="M153.823 15.02c-.13.1-.34.18-1.36.31-.4.06-1.05.18-1.05.8 0 .53.27.85.89.85.77 0 1.52-.5 1.52-1.15zm-3.02-.91c.04-1.17.82-1.63 2.03-1.63.39 0 1.82.11 1.82 1.37v2.82c0 .21.1.29.27.29.07 0 .18-.02.27-.04v.6c-.14.04-.26.09-.45.09-.73 0-.85-.38-.87-.75-.32.35-.82.8-1.77.8-.9 0-1.54-.57-1.54-1.42 0-.41.12-1.37 1.49-1.54l1.36-.17c.2-.02.43-.09.43-.58 0-.52-.37-.8-1.15-.8-.94 0-1.07.57-1.13.95h-.76z"/><path fill="currentColor" d="M160.043 17.52h-.83V14.5c0-.85-.24-1.29-1.05-1.29-.47 0-1.29.3-1.29 1.63v2.67h-.83V12.6h.78v.69h.02c.18-.26.64-.83 1.48-.83.76 0 1.72.31 1.72 1.71v3.34z"/><path fill="currentColor" d="M164.263 15.02c-.13.1-.34.18-1.36.31-.4.06-1.05.18-1.05.8 0 .53.27.85.89.85.77 0 1.52-.5 1.52-1.15zm-3.02-.91c.04-1.17.82-1.63 2.03-1.63.39 0 1.82.11 1.82 1.37v2.82c0 .21.1.29.27.29.08 0 .18-.02.27-.04v.6c-.14.04-.26.09-.45.09-.73 0-.85-.38-.87-.75-.32.35-.82.8-1.77.8-.9 0-1.54-.57-1.54-1.42 0-.41.12-1.37 1.49-1.54l1.36-.17c.2-.02.43-.09.43-.58 0-.52-.37-.8-1.15-.8-.94 0-1.07.57-1.13.95h-.76z"/><path fill="currentColor" d="M168.383 16.95c.53 0 1.34-.35 1.34-1.65 0-.8-.13-2.08-1.32-2.08-1.28 0-1.34 1.21-1.34 1.84 0 1.08.42 1.9 1.32 1.9m2.17.56h-.78v-.67h-.02c-.36.67-.92.82-1.4.82-1.67 0-2.16-1.57-2.16-2.74 0-1.38.74-2.45 2.05-2.45.89 0 1.27.55 1.46.83l.02-.07v-2.46h.83z"/><path fill="currentColor" d="M174.693 15.02c-.13.1-.34.18-1.36.31-.4.06-1.05.18-1.05.8 0 .53.27.85.89.85.77 0 1.52-.5 1.52-1.15zm-3.02-.91c.04-1.17.82-1.63 2.03-1.63.39 0 1.82.11 1.82 1.37v2.82c0 .21.1.29.27.29.08 0 .18-.02.27-.04v.6c-.14.04-.26.09-.45.09-.73 0-.85-.38-.87-.75-.32.35-.82.8-1.77.8-.9 0-1.54-.57-1.54-1.42 0-.41.12-1.37 1.49-1.54l1.36-.17c.2-.02.43-.09.43-.58 0-.52-.37-.8-1.15-.8-.94 0-1.07.57-1.13.95h-.76z"/><path fill="currentColor" d="m17.06 3.68 1.24-2.53 1.23 2.43c.15.26.28.24.52.11l1.05-.52-.69 3.4c-.14.67.24.86.65.41l1.5-1.61.4.91c.13.28.34.24.6.18l1.55-.33-.52 1.97v.04c-.07.26-.19.47.09.59l.55.28-3.2 2.72c-.33.34-.21.44-.09.82l.3.92-2.99-.55c-.37-.09-.63-.09-.63.21l.12 3.44h-.9l.12-3.43c0-.34-.25-.33-.86-.21l-2.76.53.36-.92c.12-.35.15-.58-.12-.82l-3.27-2.68.6-.37c.17-.13.18-.28.09-.57l-.61-2 1.57.34c.44.1.56 0 .67-.25l.44-.9 1.56 1.77c.27.33.66.11.54-.36l-.75-3.69 1.15.67c.19.11.38.14.49-.07"/><path fill="currentColor" d="M0 17.69h8.66V0H0Z" style="display:inline"/><path fill="currentColor" d="M27.87 17.69h8.66V0h-8.66z"/></svg>
