<?xml version="1.0" encoding="UTF-8" standalone="no"?>
<svg
   id="svg10"
   version="1.1"
   viewBox="0 0 168 19"
   width="168"
   height="19"
   xmlns="http://www.w3.org/2000/svg"
   xmlns:svg="http://www.w3.org/2000/svg">
  <!-- Generator: Adobe Illustrator 29.8.0, SVG Export Plug-In . SVG Version: 2.1.1 Build 160)  -->
  <defs
     id="defs1">
    <style
       id="style1">
      .st0 {
        fill: none;
      }

      .st1 {
        fill: #fff;
      }

      .st2 {
        clip-path: url(#clippath);
      }
    </style>
  </defs>
  <g
     id="g18">
    <g
       id="g3"
       style="display:inline">
      <g
         id="g296">
        <path
           id="path298"
           class="st1"
           d="M 55.13,6.75 H 50.16 V 0.01 h 4.91 v 0.81 h -4 v 2.06 h 3.69 v 0.81 h -3.69 v 2.25 h 4.06 z" />
      </g>
      <g
         id="g300">
        <path
           id="path302"
           class="st1"
           d="M 56.22,1.84 H 57 v 0.69 h 0.02 c 0.18,-0.26 0.6,-0.84 1.48,-0.84 0.88,0 1.16,0.53 1.3,0.8 0.41,-0.46 0.74,-0.8 1.5,-0.8 0.53,0 1.52,0.27 1.52,1.65 v 3.4 H 61.99 V 3.57 c 0,-0.68 -0.21,-1.14 -0.91,-1.14 -0.7,0 -1.15,0.66 -1.15,1.31 V 6.73 H 59.1 v -3.4 c 0,-0.41 -0.16,-0.91 -0.77,-0.91 -0.47,0 -1.29,0.3 -1.29,1.63 V 6.72 H 56.21 V 1.84 Z" />
      </g>
      <g
         id="g304">
        <path
           id="path306"
           class="st1"
           d="m 66.1,6.18 c 0.9,0 1.32,-0.82 1.32,-1.89 0,-0.63 -0.07,-1.84 -1.34,-1.84 -1.19,0 -1.32,1.29 -1.32,2.08 0,1.3 0.82,1.65 1.34,1.65 M 63.97,1.84 h 0.78 v 0.69 h 0.02 c 0.2,-0.28 0.57,-0.83 1.46,-0.83 1.3,0 2.04,1.07 2.04,2.45 0,1.17 -0.49,2.74 -2.16,2.74 -0.66,0 -1.09,-0.31 -1.3,-0.66 H 64.79 V 8.69 H 63.96 V 1.84 Z" />
      </g>
      <path
         id="path308"
         class="st1"
         d="M 70.1,6.75 H 69.27 V 0.01 h 0.83 z" />
      <g
         id="g310">
        <path
           id="path312"
           class="st1"
           d="m 73.34,6.17 c 1.18,0 1.43,-1.22 1.43,-1.88 0,-0.66 -0.24,-1.88 -1.43,-1.88 -1.19,0 -1.43,1.22 -1.43,1.88 0,0.66 0.24,1.88 1.43,1.88 m 0,-4.47 c 1.57,0 2.28,1.32 2.28,2.59 0,1.27 -0.71,2.59 -2.28,2.59 -1.57,0 -2.28,-1.32 -2.28,-2.59 0,-1.27 0.71,-2.59 2.28,-2.59" />
      </g>
      <g
         id="g314">
        <path
           id="path316"
           class="st1"
           d="m 79.34,1.84 h 0.91 c -0.57,1.6 -1.13,3.21 -1.76,4.81 -0.78,1.99 -0.86,2.1 -1.92,2.1 -0.12,0 -0.22,-0.04 -0.35,-0.07 V 7.93 c 0.1,0.04 0.27,0.09 0.5,0.09 0.43,0 0.48,-0.12 0.87,-1.14 L 75.77,1.84 h 0.94 l 1.3,4 h 0.02 z" />
      </g>
      <g
         id="g318">
        <path
           id="path320"
           class="st1"
           d="m 80.97,1.84 h 0.78 v 0.69 h 0.02 c 0.18,-0.26 0.6,-0.84 1.48,-0.84 0.88,0 1.16,0.53 1.3,0.8 0.41,-0.46 0.74,-0.8 1.5,-0.8 0.53,0 1.52,0.27 1.52,1.65 v 3.4 H 86.74 V 3.57 c 0,-0.68 -0.21,-1.14 -0.91,-1.14 -0.7,0 -1.15,0.66 -1.15,1.31 v 2.99 h -0.83 v -3.4 c 0,-0.41 -0.16,-0.91 -0.77,-0.91 -0.47,0 -1.29,0.3 -1.29,1.63 V 6.72 H 80.96 V 1.84 Z" />
      </g>
      <g
         id="g322">
        <path
           id="path324"
           class="st1"
           d="M 92.16,3.91 C 92.11,3.15 91.79,2.45 90.79,2.45 c -0.76,0 -1.36,0.7 -1.36,1.46 z m 0.79,1.3 c -0.03,0.23 -0.25,0.93 -0.87,1.34 -0.23,0.15 -0.55,0.34 -1.33,0.34 -1.38,0 -2.2,-1.04 -2.2,-2.46 0,-1.52 0.73,-2.73 2.35,-2.73 1.42,0 2.11,1.13 2.11,2.86 h -3.58 c 0,1.02 0.48,1.61 1.43,1.61 0.78,0 1.24,-0.6 1.27,-0.97 h 0.83 z" />
      </g>
      <g
         id="g326">
        <path
           id="path328"
           class="st1"
           d="M 98,6.75 H 97.17 V 3.73 c 0,-0.85 -0.24,-1.29 -1.05,-1.29 -0.47,0 -1.29,0.3 -1.29,1.63 V 6.74 H 94 v -4.9 h 0.78 V 2.53 H 94.8 C 94.98,2.27 95.44,1.7 96.28,1.7 97.04,1.7 98,2.01 98,3.41 Z" />
      </g>
      <g
         id="g330">
        <path
           id="path332"
           class="st1"
           d="m 100.23,2.53 v 3.19 c 0,0.39 0.33,0.39 0.5,0.39 h 0.29 v 0.65 c -0.3,0.03 -0.53,0.07 -0.62,0.07 -0.82,0 -0.99,-0.46 -0.99,-1.05 V 2.54 H 98.74 V 1.85 h 0.67 V 0.47 h 0.83 v 1.37 h 0.79 v 0.69 h -0.79 z" />
      </g>
      <g
         id="g334">
        <path
           id="path336"
           class="st1"
           d="m 107.43,4.25 c -0.13,0.1 -0.34,0.18 -1.36,0.31 -0.4,0.06 -1.05,0.18 -1.05,0.8 0,0.53 0.27,0.85 0.89,0.85 0.77,0 1.52,-0.5 1.52,-1.15 z m -3.02,-0.91 c 0.04,-1.17 0.82,-1.63 2.03,-1.63 0.39,0 1.82,0.11 1.82,1.37 V 5.9 c 0,0.21 0.1,0.29 0.27,0.29 0.08,0 0.18,-0.02 0.27,-0.04 v 0.6 c -0.14,0.04 -0.26,0.09 -0.45,0.09 -0.73,0 -0.84,-0.38 -0.87,-0.75 -0.32,0.35 -0.82,0.8 -1.77,0.8 -0.9,0 -1.54,-0.57 -1.54,-1.42 0,-0.41 0.12,-1.37 1.49,-1.54 l 1.36,-0.17 c 0.2,-0.02 0.43,-0.09 0.43,-0.58 0,-0.52 -0.37,-0.8 -1.15,-0.8 -0.94,0 -1.07,0.57 -1.13,0.95 h -0.76 z" />
      </g>
      <g
         id="g338">
        <path
           id="path340"
           class="st1"
           d="m 113.65,6.75 h -0.83 V 3.73 c 0,-0.85 -0.24,-1.29 -1.05,-1.29 -0.47,0 -1.29,0.3 -1.29,1.63 v 2.67 h -0.83 v -4.9 h 0.78 v 0.69 h 0.02 c 0.18,-0.26 0.64,-0.83 1.48,-0.83 0.76,0 1.72,0.31 1.72,1.71 z" />
      </g>
      <g
         id="g342">
        <path
           id="path344"
           class="st1"
           d="m 116.76,6.18 c 0.53,0 1.34,-0.35 1.34,-1.65 0,-0.8 -0.13,-2.08 -1.32,-2.08 -1.28,0 -1.34,1.21 -1.34,1.84 0,1.08 0.42,1.89 1.32,1.89 m 2.18,0.57 h -0.78 V 6.08 h -0.02 c -0.36,0.67 -0.92,0.82 -1.4,0.82 -1.67,0 -2.16,-1.57 -2.16,-2.74 0,-1.38 0.74,-2.45 2.05,-2.45 0.89,0 1.27,0.55 1.46,0.83 l 0.02,-0.07 V 0.01 h 0.83 z" />
      </g>
      <g
         id="g346">
        <path
           id="path348"
           class="st1"
           d="m 54.13,12.77 c -0.05,-1.04 -0.91,-1.37 -1.67,-1.37 -0.57,0 -1.54,0.16 -1.54,1.18 0,0.57 0.4,0.76 0.8,0.85 l 1.92,0.44 c 0.87,0.21 1.53,0.73 1.53,1.8 0,1.59 -1.48,2.04 -2.64,2.04 -1.25,0 -1.74,-0.38 -2.04,-0.65 -0.57,-0.51 -0.69,-1.08 -0.69,-1.71 h 0.85 c 0,1.22 0.99,1.58 1.86,1.58 0.66,0 1.76,-0.17 1.76,-1.13 0,-0.7 -0.33,-0.93 -1.44,-1.19 l -1.38,-0.32 c -0.44,-0.1 -1.44,-0.41 -1.44,-1.59 0,-1.05 0.69,-2.08 2.32,-2.08 2.35,0 2.59,1.41 2.63,2.15 h -0.85 z" />
      </g>
      <g
         id="g350">
        <path
           id="path352"
           class="st1"
           d="m 58.22,16.95 c 1.18,0 1.43,-1.22 1.43,-1.88 0,-0.66 -0.24,-1.88 -1.43,-1.88 -1.19,0 -1.43,1.22 -1.43,1.88 0,0.66 0.24,1.88 1.43,1.88 m 0,-4.46 c 1.57,0 2.28,1.32 2.28,2.59 0,1.27 -0.71,2.59 -2.28,2.59 -1.57,0 -2.28,-1.32 -2.28,-2.59 0,-1.27 0.71,-2.59 2.28,-2.59" />
      </g>
      <g
         id="g354">
        <path
           id="path356"
           class="st1"
           d="m 64.51,14.28 c -0.1,-0.66 -0.47,-1.05 -1.16,-1.05 -1.02,0 -1.35,0.97 -1.35,1.85 0,0.88 0.21,1.89 1.34,1.89 0.55,0 1.03,-0.41 1.17,-1.16 h 0.8 c -0.08,0.78 -0.56,1.88 -2,1.88 -1.44,0 -2.2,-1.04 -2.2,-2.46 0,-1.52 0.73,-2.73 2.35,-2.73 1.29,0 1.77,0.94 1.84,1.79 h -0.8 z" />
      </g>
      <path
         id="path358"
         class="st1"
         d="m 66.97,17.53 h -0.83 v -4.91 h 0.83 z M 66.15,10.8 h 0.83 v 0.94 h -0.83 z" />
      <g
         id="g360">
        <path
           id="path362"
           class="st1"
           d="m 71.21,15.03 c -0.13,0.1 -0.34,0.18 -1.36,0.31 -0.4,0.06 -1.05,0.18 -1.05,0.8 0,0.53 0.27,0.85 0.89,0.85 0.77,0 1.52,-0.5 1.52,-1.15 z m -3.02,-0.91 c 0.04,-1.17 0.82,-1.63 2.03,-1.63 0.39,0 1.82,0.11 1.82,1.37 v 2.82 c 0,0.21 0.1,0.29 0.27,0.29 0.08,0 0.18,-0.02 0.27,-0.04 v 0.6 c -0.14,0.04 -0.26,0.09 -0.45,0.09 -0.73,0 -0.85,-0.38 -0.87,-0.75 -0.32,0.35 -0.82,0.8 -1.77,0.8 -0.9,0 -1.54,-0.57 -1.54,-1.42 0,-0.41 0.12,-1.37 1.49,-1.54 l 1.36,-0.17 c 0.2,-0.02 0.43,-0.09 0.43,-0.58 0,-0.52 -0.37,-0.8 -1.15,-0.8 -0.94,0 -1.07,0.57 -1.13,0.95 h -0.76 z" />
      </g>
      <path
         id="path364"
         class="st1"
         d="m 74.28,17.53 h -0.83 v -6.74 h 0.83 z" />
      <g
         id="g366">
        <path
           id="path368"
           class="st1"
           d="m 79.18,16.75 h 1.76 c 1.18,0 1.95,-0.93 1.95,-2.63 0,-1.7 -0.78,-2.55 -2.02,-2.55 h -1.7 v 5.18 z M 78.27,10.8 H 81 c 1.75,0 2.83,1.33 2.83,3.27 0,1.51 -0.66,3.46 -2.87,3.46 h -2.69 v -6.74 z" />
      </g>
      <g
         id="g370">
        <path
           id="path372"
           class="st1"
           d="m 88.27,14.69 c -0.05,-0.76 -0.37,-1.46 -1.37,-1.46 -0.76,0 -1.36,0.7 -1.36,1.46 z m 0.79,1.3 c -0.03,0.23 -0.25,0.93 -0.87,1.34 -0.23,0.15 -0.55,0.34 -1.33,0.34 -1.38,0 -2.2,-1.04 -2.2,-2.46 0,-1.52 0.73,-2.73 2.35,-2.73 1.42,0 2.11,1.13 2.11,2.86 h -3.58 c 0,1.02 0.48,1.61 1.43,1.61 0.78,0 1.24,-0.6 1.27,-0.97 h 0.83 z" />
      </g>
      <g
         id="g374">
        <path
           id="path376"
           class="st1"
           d="m 92.94,12.63 h 0.9 l -1.87,4.91 H 91.09 L 89.3,12.63 h 0.96 l 1.28,4 h 0.02 l 1.39,-4 z" />
      </g>
      <g
         id="g378">
        <path
           id="path380"
           class="st1"
           d="m 97.67,14.69 c -0.05,-0.76 -0.37,-1.46 -1.37,-1.46 -0.76,0 -1.36,0.7 -1.36,1.46 z m 0.78,1.3 c -0.03,0.23 -0.25,0.93 -0.87,1.34 -0.23,0.15 -0.55,0.34 -1.33,0.34 -1.38,0 -2.2,-1.04 -2.2,-2.46 0,-1.52 0.73,-2.73 2.35,-2.73 1.42,0 2.11,1.13 2.11,2.86 h -3.58 c 0,1.02 0.48,1.61 1.43,1.61 0.78,0 1.24,-0.6 1.27,-0.97 h 0.83 z" />
      </g>
      <path
         id="path382"
         class="st1"
         d="m 100.35,17.53 h -0.83 v -6.74 h 0.83 z" />
      <g
         id="g384">
        <path
           id="path386"
           class="st1"
           d="m 103.59,16.95 c 1.18,0 1.43,-1.22 1.43,-1.88 0,-0.66 -0.24,-1.88 -1.43,-1.88 -1.19,0 -1.43,1.22 -1.43,1.88 0,0.66 0.24,1.88 1.43,1.88 m 0,-4.46 c 1.57,0 2.28,1.32 2.28,2.59 0,1.27 -0.71,2.59 -2.28,2.59 -1.57,0 -2.28,-1.32 -2.28,-2.59 0,-1.27 0.71,-2.59 2.28,-2.59" />
      </g>
      <g
         id="g388">
        <path
           id="path390"
           class="st1"
           d="m 108.87,16.96 c 0.9,0 1.32,-0.82 1.32,-1.9 0,-0.63 -0.07,-1.84 -1.34,-1.84 -1.19,0 -1.32,1.29 -1.32,2.08 0,1.3 0.82,1.65 1.34,1.65 m -2.13,-4.32 h 0.78 v 0.69 h 0.02 c 0.2,-0.28 0.57,-0.83 1.46,-0.83 1.3,0 2.04,1.07 2.04,2.45 0,1.17 -0.49,2.74 -2.16,2.74 -0.66,0 -1.09,-0.31 -1.3,-0.66 h -0.02 v 2.46 h -0.83 v -6.85 z" />
      </g>
      <g
         id="g392">
        <path
           id="path394"
           class="st1"
           d="m 112.02,12.63 h 0.78 v 0.69 h 0.02 c 0.18,-0.26 0.6,-0.83 1.48,-0.83 0.88,0 1.16,0.53 1.3,0.8 0.41,-0.46 0.74,-0.8 1.5,-0.8 0.53,0 1.52,0.27 1.52,1.65 v 3.4 h -0.83 v -3.17 c 0,-0.68 -0.21,-1.14 -0.91,-1.14 -0.7,0 -1.15,0.66 -1.15,1.31 v 2.99 h -0.83 v -3.4 c 0,-0.41 -0.16,-0.91 -0.77,-0.91 -0.47,0 -1.29,0.3 -1.29,1.63 v 2.67 h -0.83 v -4.91 z" />
      </g>
      <g
         id="g396">
        <path
           id="path398"
           class="st1"
           d="m 123.22,14.69 c -0.05,-0.76 -0.37,-1.46 -1.37,-1.46 -0.76,0 -1.36,0.7 -1.36,1.46 z m 0.78,1.3 c -0.03,0.23 -0.25,0.93 -0.87,1.34 -0.23,0.15 -0.55,0.34 -1.33,0.34 -1.38,0 -2.2,-1.04 -2.2,-2.46 0,-1.52 0.73,-2.73 2.35,-2.73 1.42,0 2.11,1.13 2.11,2.86 h -3.58 c 0,1.02 0.48,1.61 1.43,1.61 0.78,0 1.24,-0.6 1.27,-0.97 h 0.83 z" />
      </g>
      <g
         id="g400">
        <path
           id="path402"
           class="st1"
           d="m 129.05,17.53 h -0.83 v -3.02 c 0,-0.85 -0.24,-1.29 -1.05,-1.29 -0.47,0 -1.29,0.3 -1.29,1.63 v 2.67 h -0.83 v -4.91 h 0.78 v 0.69 h 0.02 c 0.18,-0.26 0.64,-0.83 1.48,-0.83 0.76,0 1.72,0.31 1.72,1.71 v 3.34 z" />
      </g>
      <g
         id="g404">
        <path
           id="path406"
           class="st1"
           d="m 131.29,13.31 v 3.19 c 0,0.39 0.33,0.39 0.5,0.39 h 0.29 v 0.65 c -0.3,0.03 -0.53,0.07 -0.62,0.07 -0.82,0 -0.99,-0.46 -0.99,-1.05 v -3.24 h -0.67 v -0.69 h 0.67 v -1.37 h 0.83 v 1.37 h 0.79 v 0.69 h -0.79 z" />
      </g>
      <g
         id="g408">
        <path
           id="path410"
           class="st1"
           d="m 140.32,12.82 c -0.25,-1.18 -1.24,-1.4 -1.89,-1.4 -1.22,0 -2.21,0.9 -2.21,2.67 0,1.59 0.56,2.81 2.23,2.81 0.59,0 1.61,-0.28 1.92,-1.85 h 0.88 c -0.38,2.54 -2.44,2.65 -2.95,2.65 -1.53,0 -3.03,-0.99 -3.03,-3.58 0,-2.07 1.18,-3.51 3.14,-3.51 1.73,0 2.64,1.08 2.77,2.2 h -0.88 z" />
      </g>
      <g
         id="g412">
        <path
           id="path414"
           class="st1"
           d="m 145.02,15.03 c -0.13,0.1 -0.34,0.18 -1.36,0.31 -0.4,0.06 -1.05,0.18 -1.05,0.8 0,0.53 0.27,0.85 0.89,0.85 0.77,0 1.52,-0.5 1.52,-1.15 z M 142,14.12 c 0.04,-1.17 0.82,-1.63 2.03,-1.63 0.39,0 1.82,0.11 1.82,1.37 v 2.82 c 0,0.21 0.1,0.29 0.27,0.29 0.08,0 0.18,-0.02 0.27,-0.04 v 0.6 c -0.14,0.04 -0.26,0.09 -0.45,0.09 -0.73,0 -0.85,-0.38 -0.87,-0.75 -0.32,0.35 -0.82,0.8 -1.77,0.8 -0.9,0 -1.54,-0.57 -1.54,-1.42 0,-0.41 0.12,-1.37 1.49,-1.54 l 1.36,-0.17 c 0.2,-0.02 0.43,-0.09 0.43,-0.58 0,-0.52 -0.37,-0.8 -1.15,-0.8 -0.94,0 -1.07,0.57 -1.13,0.95 H 142 Z" />
      </g>
      <g
         id="g416">
        <path
           id="path418"
           class="st1"
           d="m 151.24,17.53 h -0.83 v -3.02 c 0,-0.85 -0.24,-1.29 -1.05,-1.29 -0.47,0 -1.29,0.3 -1.29,1.63 v 2.67 h -0.83 v -4.91 h 0.78 v 0.69 h 0.02 c 0.18,-0.26 0.64,-0.83 1.48,-0.83 0.76,0 1.72,0.31 1.72,1.71 v 3.34 z" />
      </g>
      <g
         id="g420">
        <path
           id="path422"
           class="st1"
           d="m 155.46,15.03 c -0.13,0.1 -0.34,0.18 -1.36,0.31 -0.4,0.06 -1.05,0.18 -1.05,0.8 0,0.53 0.27,0.85 0.89,0.85 0.77,0 1.52,-0.5 1.52,-1.15 z m -3.02,-0.91 c 0.04,-1.17 0.82,-1.63 2.03,-1.63 0.39,0 1.82,0.11 1.82,1.37 v 2.82 c 0,0.21 0.1,0.29 0.27,0.29 0.08,0 0.18,-0.02 0.27,-0.04 v 0.6 c -0.14,0.04 -0.26,0.09 -0.45,0.09 -0.73,0 -0.85,-0.38 -0.87,-0.75 -0.32,0.35 -0.82,0.8 -1.77,0.8 -0.9,0 -1.54,-0.57 -1.54,-1.42 0,-0.41 0.12,-1.37 1.49,-1.54 l 1.36,-0.17 c 0.2,-0.02 0.43,-0.09 0.43,-0.58 0,-0.52 -0.37,-0.8 -1.15,-0.8 -0.94,0 -1.07,0.57 -1.13,0.95 h -0.76 z" />
      </g>
      <g
         id="g424">
        <path
           id="path426"
           class="st1"
           d="m 159.58,16.96 c 0.53,0 1.34,-0.35 1.34,-1.65 0,-0.8 -0.13,-2.08 -1.32,-2.08 -1.28,0 -1.34,1.21 -1.34,1.84 0,1.08 0.42,1.9 1.32,1.9 m 2.17,0.56 h -0.78 v -0.67 h -0.02 c -0.36,0.67 -0.92,0.82 -1.4,0.82 -1.67,0 -2.16,-1.57 -2.16,-2.74 0,-1.38 0.74,-2.45 2.05,-2.45 0.89,0 1.27,0.55 1.46,0.83 l 0.02,-0.07 v -2.46 h 0.83 z" />
      </g>
      <g
         id="g428">
        <path
           id="path430"
           class="st1"
           d="m 165.89,15.03 c -0.13,0.1 -0.34,0.18 -1.36,0.31 -0.4,0.06 -1.05,0.18 -1.05,0.8 0,0.53 0.27,0.85 0.89,0.85 0.77,0 1.52,-0.5 1.52,-1.15 z m -3.02,-0.91 c 0.04,-1.17 0.82,-1.63 2.03,-1.63 0.39,0 1.82,0.11 1.82,1.37 v 2.82 c 0,0.21 0.1,0.29 0.27,0.29 0.08,0 0.18,-0.02 0.27,-0.04 v 0.6 c -0.14,0.04 -0.26,0.09 -0.45,0.09 -0.73,0 -0.85,-0.38 -0.87,-0.75 -0.32,0.35 -0.82,0.8 -1.77,0.8 -0.9,0 -1.54,-0.57 -1.54,-1.42 0,-0.41 0.12,-1.37 1.49,-1.54 l 1.36,-0.17 c 0.2,-0.02 0.43,-0.09 0.43,-0.58 0,-0.52 -0.37,-0.8 -1.15,-0.8 -0.94,0 -1.07,0.57 -1.13,0.95 h -0.76 z" />
      </g>
    </g>
    <g
       id="g4"
       style="display:inline">
      <g
         id="g170"
         style="display:inline">
        <path
           id="path172"
           class="st1"
           d="m 17.06,3.68 1.24,-2.53 1.23,2.43 c 0.15,0.26 0.28,0.24 0.52,0.11 l 1.05,-0.52 -0.69,3.4 c -0.14,0.67 0.24,0.86 0.65,0.41 l 1.5,-1.61 0.4,0.91 c 0.13,0.28 0.34,0.24 0.6,0.18 L 25.11,6.13 24.59,8.1 V 8.14 C 24.52,8.4 24.4,8.61 24.68,8.73 l 0.55,0.28 -3.2,2.72 c -0.33,0.34 -0.21,0.44 -0.09,0.82 l 0.3,0.92 -2.99,-0.55 c -0.37,-0.09 -0.63,-0.09 -0.63,0.21 l 0.12,3.44 h -0.9 l 0.12,-3.43 c 0,-0.34 -0.25,-0.33 -0.86,-0.21 l -2.76,0.53 0.36,-0.92 c 0.12,-0.35 0.15,-0.58 -0.12,-0.82 L 11.31,9.04 11.91,8.67 C 12.08,8.54 12.09,8.39 12,8.1 l -0.61,-2 1.57,0.34 c 0.44,0.1 0.56,0 0.67,-0.25 l 0.44,-0.9 1.56,1.77 c 0.27,0.33 0.66,0.11 0.54,-0.36 l -0.75,-3.69 1.15,0.67 c 0.19,0.11 0.38,0.14 0.49,-0.07" />
      </g>
      <path
         id="path158"
         class="st1"
         d="M 0,17.69 H 8.66 V 0 H 0 Z"
         style="display:inline" />
      <path
         id="path160"
         class="st1"
         d="m 27.87,17.69 h 8.66 V 0 h -8.66 z"
         style="display:inline" />
    </g>
  </g>
</svg>
