<?xml version="1.0" encoding="UTF-8" standalone="no"?>
<svg
   fill="none"
   viewBox="0 0 121 31"
   width="121"
   height="31"
   version="1.1"
   id="svg4"
   sodipodi:docname="idrc.svg"
   inkscape:version="1.4.2 (ebf0e940, 2025-05-08)"
   xmlns:inkscape="http://www.inkscape.org/namespaces/inkscape"
   xmlns:sodipodi="http://sodipodi.sourceforge.net/DTD/sodipodi-0.dtd"
   xmlns="http://www.w3.org/2000/svg"
   xmlns:svg="http://www.w3.org/2000/svg">
  <sodipodi:namedview
     id="namedview4"
     pagecolor="#ffffff"
     bordercolor="#000000"
     borderopacity="0.25"
     inkscape:showpageshadow="2"
     inkscape:pageopacity="0.0"
     inkscape:pagecheckerboard="0"
     inkscape:deskcolor="#d1d1d1"
     inkscape:zoom="8.0176574"
     inkscape:cx="39.600096"
     inkscape:cy="42.406402"
     inkscape:window-width="1720"
     inkscape:window-height="1041"
     inkscape:window-x="5"
     inkscape:window-y="42"
     inkscape:window-maximized="0"
     inkscape:current-layer="svg4" />
  <path
     d="m 30.564,5.94 a 1.048,1.048 0 0 1 0.08,-0.419 0.767,0.767 0 0 1 0.217,-0.28 0.837,0.837 0 0 1 0.327,-0.151 1.87,1.87 0 0 1 0.787,0 0.759,0.759 0 0 1 0.544,0.436 c 0.056,0.132 0.083,0.275 0.08,0.418 a 1.04,1.04 0 0 1 -0.08,0.42 0.774,0.774 0 0 1 -0.222,0.288 0.837,0.837 0 0 1 -0.322,0.151 1.703,1.703 0 0 1 -0.787,0 0.837,0.837 0 0 1 -0.327,-0.15 0.767,0.767 0 0 1 -0.218,-0.29 1.039,1.039 0 0 1 -0.08,-0.423 z m 1.95,8.634 h -1.87 V 7.716 h 1.87 z m 7.68,0 H 38.31 V 10.57 A 2.183,2.183 0 0 0 38.1,9.456 0.775,0.775 0 0 0 37.384,9.083 1.189,1.189 0 0 0 36.774,9.23 c -0.167,0.1 -0.301,0.246 -0.39,0.419 a 2.325,2.325 0 0 0 -0.205,0.708 6.721,6.721 0 0 0 -0.063,0.972 v 3.225 H 34.227 V 7.716 h 1.432 l 0.252,0.876 h 0.096 C 36.1,8.422 36.22,8.27 36.363,8.14 36.508,8.012 36.67,7.907 36.844,7.825 c 0.169,-0.083 0.348,-0.143 0.532,-0.18 0.19,-0.04 0.384,-0.06 0.578,-0.058 0.31,-0.005 0.619,0.043 0.913,0.142 0.268,0.092 0.51,0.247 0.707,0.452 0.208,0.224 0.363,0.492 0.452,0.784 0.118,0.367 0.175,0.75 0.168,1.135 z m 4.543,0.126 c -0.45,0.005 -0.9,-0.064 -1.327,-0.205 a 2.559,2.559 0 0 1 -1.014,-0.629 2.762,2.762 0 0 1 -0.64,-1.093 4.964,4.964 0 0 1 -0.226,-1.592 5.562,5.562 0 0 1 0.23,-1.713 c 0.13,-0.408 0.352,-0.781 0.649,-1.09 a 2.445,2.445 0 0 1 1.013,-0.594 c 0.428,-0.122 0.87,-0.182 1.315,-0.176 0.354,0 0.707,0.043 1.05,0.13 0.34,0.081 0.669,0.202 0.98,0.36 l -0.54,1.424 A 6.204,6.204 0 0 0 45.449,9.229 C 45.219,9.156 44.979,9.118 44.737,9.116 a 1.05,1.05 0 0 0 -0.984,0.52 3.101,3.101 0 0 0 -0.31,1.553 c -0.035,0.526 0.072,1.051 0.31,1.521 a 1.042,1.042 0 0 0 0.963,0.494 c 0.328,0.005 0.654,-0.042 0.967,-0.138 0.304,-0.097 0.6,-0.216 0.888,-0.356 v 1.533 c -0.151,0.072 -0.298,0.139 -0.419,0.197 -0.137,0.053 -0.277,0.1 -0.419,0.138 -0.15,0.04 -0.302,0.068 -0.456,0.084 -0.18,0.023 -0.36,0.035 -0.54,0.038 z m 5.087,-0.126 H 47.952 V 5.027 h 1.872 z m 6.2,0 -0.251,-0.875 h -0.088 a 1.85,1.85 0 0 1 -0.364,0.448 2,2 0 0 1 -0.465,0.31 c -0.17,0.082 -0.348,0.144 -0.532,0.184 -0.19,0.039 -0.383,0.058 -0.578,0.059 a 2.73,2.73 0 0 1 -0.912,-0.147 1.772,1.772 0 0 1 -0.708,-0.452 1.974,1.974 0 0 1 -0.452,-0.78 3.489,3.489 0 0 1 -0.16,-1.135 v -4.47 h 1.868 v 4.014 c -0.024,0.385 0.054,0.77 0.226,1.114 a 0.766,0.766 0 0 0 0.712,0.373 c 0.215,0.008 0.428,-0.044 0.615,-0.151 0.168,-0.1 0.303,-0.245 0.39,-0.419 0.105,-0.225 0.175,-0.465 0.205,-0.712 0.045,-0.32 0.066,-0.644 0.063,-0.968 V 7.742 h 1.867 v 6.832 z m 7.826,-2.036 c 0.006,0.327 -0.061,0.65 -0.197,0.947 -0.129,0.266 -0.32,0.498 -0.557,0.675 a 2.51,2.51 0 0 1 -0.88,0.418 4.447,4.447 0 0 1 -1.15,0.139 7.257,7.257 0 0 1 -1.173,-0.093 4.57,4.57 0 0 1 -0.984,-0.31 v -1.562 a 5.933,5.933 0 0 0 1.114,0.415 c 0.18,0.05 0.364,0.09 0.548,0.121 0.164,0.028 0.329,0.042 0.495,0.042 0.14,10e-4 0.281,-0.014 0.418,-0.046 a 0.862,0.862 0 0 0 0.293,-0.13 0.487,0.487 0 0 0 0.164,-0.197 0.589,0.589 0 0 0 0.012,-0.469 0.573,0.573 0 0 0 -0.18,-0.218 2.984,2.984 0 0 0 -0.419,-0.255 11.828,11.828 0 0 0 -0.732,-0.352 8.668,8.668 0 0 1 -0.775,-0.42 2.171,2.171 0 0 1 -0.54,-0.447 1.618,1.618 0 0 1 -0.318,-0.562 2.472,2.472 0 0 1 -0.105,-0.75 1.83,1.83 0 0 1 0.184,-0.837 c 0.124,-0.24 0.304,-0.445 0.524,-0.6 0.245,-0.17 0.52,-0.291 0.812,-0.356 0.345,-0.085 0.7,-0.126 1.055,-0.121 0.394,-0.003 0.786,0.045 1.168,0.142 0.392,0.1 0.772,0.241 1.135,0.42 l -0.54,1.344 a 7.746,7.746 0 0 0 -0.888,-0.36 2.623,2.623 0 0 0 -0.837,-0.143 0.9,0.9 0 0 0 -0.549,0.134 0.448,0.448 0 0 0 -0.167,0.369 0.506,0.506 0 0 0 0.042,0.218 c 0.042,0.077 0.1,0.145 0.171,0.197 0.115,0.084 0.237,0.158 0.365,0.222 0.154,0.08 0.355,0.176 0.607,0.289 0.25,0.113 0.552,0.255 0.783,0.377 0.218,0.112 0.421,0.253 0.602,0.419 0.167,0.157 0.299,0.349 0.386,0.561 0.09,0.25 0.13,0.514 0.113,0.78 z M 65.043,5.94 c 0,-0.143 0.026,-0.285 0.08,-0.419 A 0.84,0.84 0 0 1 65.34,5.241 0.867,0.867 0 0 1 65.667,5.09 c 0.13,-0.03 0.264,-0.044 0.397,-0.042 0.131,-0.001 0.262,0.013 0.39,0.042 a 0.778,0.778 0 0 1 0.544,0.431 c 0.112,0.281 0.112,0.595 0,0.876 a 0.729,0.729 0 0 1 -0.222,0.285 0.837,0.837 0 0 1 -0.322,0.155 1.673,1.673 0 0 1 -0.787,0 0.76,0.76 0 0 1 -0.544,-0.44 1.111,1.111 0 0 1 -0.08,-0.457 z m 1.947,8.634 H 65.118 V 7.716 h 1.872 z m 3.349,0 -2.42,-6.858 h 1.955 l 1.135,3.909 c 0.072,0.238 0.132,0.48 0.18,0.725 0.047,0.223 0.08,0.45 0.096,0.678 h 0.038 c 0.013,-0.232 0.046,-0.463 0.096,-0.69 0.05,-0.244 0.109,-0.483 0.18,-0.713 l 1.126,-3.909 h 1.964 l -2.424,6.858 z m 8.043,0.126 a 4.15,4.15 0 0 1 -1.357,-0.218 2.78,2.78 0 0 1 -1.763,-1.739 4.442,4.442 0 0 1 -0.246,-1.55 4.961,4.961 0 0 1 0.226,-1.575 c 0.131,-0.416 0.348,-0.8 0.636,-1.127 0.268,-0.3 0.604,-0.533 0.98,-0.678 0.4,-0.153 0.827,-0.23 1.256,-0.226 0.42,-0.007 0.836,0.063 1.23,0.205 0.356,0.122 0.68,0.322 0.947,0.586 0.264,0.281 0.466,0.615 0.59,0.98 0.144,0.428 0.214,0.877 0.205,1.329 v 0.909 H 76.9 c 0.004,0.24 0.047,0.48 0.125,0.708 0.069,0.197 0.177,0.378 0.318,0.532 0.14,0.147 0.31,0.262 0.499,0.335 0.212,0.082 0.438,0.122 0.665,0.117 a 4.47,4.47 0 0 0 1.135,-0.134 3.95,3.95 0 0 0 0.52,-0.172 c 0.179,-0.069 0.355,-0.147 0.527,-0.234 v 1.45 a 3.937,3.937 0 0 1 -1.018,0.368 4.826,4.826 0 0 1 -0.594,0.088 C 78.867,14.687 78.633,14.7 78.382,14.7 Z M 78.143,8.919 a 1.075,1.075 0 0 0 -0.837,0.347 c -0.249,0.312 -0.382,0.7 -0.377,1.098 h 2.386 A 2.466,2.466 0 0 0 79.235,9.79 1.363,1.363 0 0 0 79.014,9.333 1.085,1.085 0 0 0 78.646,9.028 1.109,1.109 0 0 0 78.143,8.918 Z m 8.132,5.781 a 2.02,2.02 0 0 1 -1.7,-0.9 3.45,3.45 0 0 1 -0.49,-1.107 6.042,6.042 0 0 1 -0.176,-1.537 c -0.008,-0.52 0.051,-1.04 0.176,-1.546 0.094,-0.4 0.26,-0.778 0.49,-1.119 0.196,-0.286 0.46,-0.52 0.77,-0.678 0.307,-0.153 0.645,-0.23 0.988,-0.226 0.205,-0.002 0.409,0.023 0.607,0.075 0.175,0.047 0.342,0.12 0.494,0.218 0.146,0.088 0.28,0.195 0.398,0.318 0.116,0.121 0.22,0.253 0.31,0.394 H 88.2 C 88.175,8.432 88.154,8.269 88.133,8.106 88.113,7.943 88.096,7.821 88.083,7.662 a 4.01,4.01 0 0 1 0,-0.419 V 5.027 h 1.868 v 9.547 h -1.428 l -0.36,-0.888 h -0.08 c -0.087,0.14 -0.186,0.272 -0.297,0.394 -0.11,0.126 -0.239,0.235 -0.381,0.322 a 2.003,2.003 0 0 1 -0.49,0.218 2.34,2.34 0 0 1 -0.64,0.08 z m 0.682,-1.491 c 0.195,0.005 0.388,-0.034 0.565,-0.114 a 0.96,0.96 0 0 0 0.377,-0.343 c 0.105,-0.177 0.177,-0.372 0.213,-0.574 0.05,-0.265 0.075,-0.535 0.076,-0.804 V 11.168 A 5.633,5.633 0 0 0 88.129,10.284 2.098,2.098 0 0 0 87.924,9.635 0.996,0.996 0 0 0 87.544,9.216 1.255,1.255 0 0 0 86.94,9.082 a 0.908,0.908 0 0 0 -0.858,0.553 3.414,3.414 0 0 0 -0.276,1.542 3.27,3.27 0 0 0 0.276,1.52 0.938,0.938 0 0 0 0.875,0.512 z m 7.729,1.491 c -0.46,0.003 -0.917,-0.07 -1.353,-0.218 a 2.822,2.822 0 0 1 -1.067,-0.658 2.933,2.933 0 0 1 -0.696,-1.093 4.344,4.344 0 0 1 -0.25,-1.55 4.842,4.842 0 0 1 0.23,-1.575 c 0.13,-0.416 0.345,-0.8 0.632,-1.127 0.27,-0.3 0.607,-0.533 0.984,-0.679 0.812,-0.29 1.7,-0.29 2.512,0 0.345,0.123 0.66,0.32 0.92,0.578 0.265,0.281 0.467,0.615 0.591,0.98 0.142,0.429 0.212,0.877 0.205,1.329 v 0.909 h -4.186 c 0.002,0.24 0.045,0.48 0.125,0.708 0.067,0.198 0.176,0.379 0.318,0.532 0.137,0.148 0.306,0.263 0.495,0.335 0.212,0.082 0.438,0.121 0.665,0.117 a 4.54,4.54 0 0 0 1.135,-0.134 5.682,5.682 0 0 0 1.05,-0.406 v 1.45 c -0.159,0.083 -0.324,0.156 -0.493,0.217 -0.36,0.13 -0.737,0.21 -1.118,0.239 -0.21,0.033 -0.444,0.046 -0.7,0.046 z m -0.24,-5.781 a 1.08,1.08 0 0 0 -0.837,0.347 c -0.246,0.313 -0.379,0.7 -0.376,1.098 h 2.386 A 2.262,2.262 0 0 0 95.539,9.79 1.291,1.291 0 0 0 95.318,9.333 1.035,1.035 0 0 0 94.954,9.028 1.138,1.138 0 0 0 94.447,8.918 Z m 8.969,3.619 c 0.008,0.326 -0.058,0.65 -0.192,0.947 a 1.865,1.865 0 0 1 -0.561,0.675 c -0.261,0.196 -0.559,0.339 -0.875,0.418 a 4.466,4.466 0 0 1 -1.156,0.139 c -0.222,0 -0.418,0 -0.624,-0.026 a 5.244,5.244 0 0 1 -0.544,-0.067 4.57,4.57 0 0 1 -0.984,-0.31 v -1.562 a 5.882,5.882 0 0 0 1.11,0.415 c 0.188,0.05 0.372,0.092 0.552,0.121 0.162,0.028 0.326,0.042 0.49,0.042 a 1.81,1.81 0 0 0 0.419,-0.046 0.895,0.895 0 0 0 0.293,-0.13 0.519,0.519 0 0 0 0.213,-0.436 0.645,0.645 0 0 0 -0.037,-0.23 0.576,0.576 0 0 0 -0.18,-0.218 3.046,3.046 0 0 0 -0.419,-0.255 11.794,11.794 0 0 0 -0.733,-0.352 5.11,5.11 0 0 1 -0.778,-0.42 2.224,2.224 0 0 1 -0.536,-0.447 1.618,1.618 0 0 1 -0.319,-0.562 2.346,2.346 0 0 1 -0.104,-0.75 1.83,1.83 0 0 1 0.184,-0.837 c 0.123,-0.24 0.302,-0.446 0.523,-0.6 0.245,-0.17 0.521,-0.291 0.813,-0.356 0.345,-0.085 0.699,-0.126 1.055,-0.121 0.394,-0.003 0.786,0.045 1.168,0.142 a 6.04,6.04 0 0 1 1.135,0.42 l -0.566,1.323 a 7.52,7.52 0 0 0 -0.891,-0.36 2.585,2.585 0 0 0 -0.838,-0.143 0.898,0.898 0 0 0 -0.548,0.134 0.447,0.447 0 0 0 -0.168,0.369 0.51,0.51 0 0 0 0.042,0.218 0.598,0.598 0 0 0 0.172,0.197 c 0.114,0.085 0.236,0.16 0.364,0.222 0.155,0.08 0.356,0.176 0.607,0.289 0.251,0.113 0.549,0.255 0.783,0.377 0.219,0.112 0.421,0.253 0.603,0.419 0.165,0.159 0.296,0.35 0.385,0.561 0.102,0.254 0.15,0.527 0.142,0.8 z m 1.206,-6.598 a 1.112,1.112 0 0 1 0.079,-0.419 0.777,0.777 0 0 1 0.218,-0.28 0.838,0.838 0 0 1 0.327,-0.151 c 0.129,-0.03 0.261,-0.043 0.393,-0.042 0.133,-0.002 0.265,0.012 0.394,0.042 a 0.774,0.774 0 0 1 0.544,0.431 c 0.112,0.282 0.112,0.595 0,0.876 a 0.727,0.727 0 0 1 -0.222,0.285 0.838,0.838 0 0 1 -0.322,0.155 1.676,1.676 0 0 1 -0.787,0 A 0.789,0.789 0 0 1 104.918,6.682 0.73,0.73 0 0 1 104.7,6.397 1.114,1.114 0 0 1 104.621,5.94 Z m 1.951,8.634 H 104.7 V 7.717 h 1.872 z m 7.432,-6.849 v 1.022 l -1.001,0.31 c 0.077,0.13 0.135,0.272 0.172,0.419 a 2.66,2.66 0 0 1 -0.117,1.433 1.95,1.95 0 0 1 -0.49,0.741 2.177,2.177 0 0 1 -0.817,0.499 3.49,3.49 0 0 1 -1.143,0.171 h -0.305 a 1.612,1.612 0 0 1 -0.243,-0.033 0.899,0.899 0 0 0 -0.193,0.218 0.483,0.483 0 0 0 -0.071,0.272 0.26,0.26 0 0 0 0.08,0.205 0.607,0.607 0 0 0 0.205,0.126 c 0.097,0.032 0.199,0.051 0.301,0.059 0.119,0.006 0.238,0.006 0.356,0 h 1.051 c 0.301,-0.004 0.601,0.034 0.892,0.113 0.244,0.068 0.47,0.186 0.665,0.347 0.184,0.162 0.328,0.364 0.419,0.591 0.101,0.268 0.151,0.552 0.147,0.838 0.004,0.365 -0.076,0.727 -0.235,1.056 -0.161,0.32 -0.4,0.593 -0.695,0.796 -0.35,0.236 -0.74,0.406 -1.151,0.502 a 6.404,6.404 0 0 1 -1.587,0.176 5.03,5.03 0 0 1 -1.223,-0.134 2.64,2.64 0 0 1 -0.87,-0.377 c -0.22,-0.155 -0.4,-0.36 -0.524,-0.599 a 1.75,1.75 0 0 1 -0.176,-0.792 1.566,1.566 0 0 1 0.494,-1.114 c 0.146,-0.136 0.313,-0.246 0.494,-0.327 0.181,-0.08 0.369,-0.143 0.562,-0.188 a 1.103,1.103 0 0 1 -0.256,-0.155 1.259,1.259 0 0 1 -0.393,-0.511 0.871,0.871 0 0 1 -0.063,-0.327 1.077,1.077 0 0 1 0.058,-0.356 c 0.039,-0.108 0.096,-0.208 0.168,-0.298 0.082,-0.098 0.174,-0.186 0.276,-0.264 0.109,-0.08 0.235,-0.163 0.373,-0.25 a 1.843,1.843 0 0 1 -0.838,-0.747 2.301,2.301 0 0 1 -0.314,-1.214 2.628,2.628 0 0 1 0.172,-0.99 c 0.109,-0.281 0.281,-0.535 0.502,-0.74 0.242,-0.214 0.528,-0.372 0.838,-0.461 a 3.575,3.575 0 0 1 1.13,-0.16 h 0.272 l 0.306,0.038 0.281,0.046 0.201,0.042 z m -4.907,7.821 c 0,0.103 0.021,0.204 0.063,0.298 a 0.6,0.6 0 0 0 0.213,0.25 c 0.115,0.085 0.246,0.145 0.385,0.177 0.193,0.047 0.392,0.07 0.591,0.067 a 3.03,3.03 0 0 0 1.44,-0.273 0.81,0.81 0 0 0 0.481,-0.724 0.497,0.497 0 0 0 -0.297,-0.515 c -0.3,-0.101 -0.617,-0.145 -0.933,-0.13 h -0.867 c -0.12,0 -0.239,0.014 -0.356,0.042 -0.123,0.024 -0.241,0.07 -0.348,0.138 a 0.849,0.849 0 0 0 -0.268,0.26 0.74,0.74 0 0 0 -0.104,0.41 z m 0.674,-5.584 a 1.5,1.5 0 0 0 0.209,0.863 0.71,0.71 0 0 0 0.632,0.306 0.694,0.694 0 0 0 0.637,-0.306 c 0.145,-0.264 0.213,-0.563 0.197,-0.863 a 1.756,1.756 0 0 0 -0.193,-0.88 0.68,0.68 0 0 0 -0.641,-0.322 c -0.561,0 -0.841,0.398 -0.841,1.202 z M 121,14.574 h -1.871 V 10.57 a 2.235,2.235 0 0 0 -0.222,-1.114 0.781,0.781 0 0 0 -0.716,-0.373 1.188,1.188 0 0 0 -0.611,0.147 1.058,1.058 0 0 0 -0.39,0.419 2.217,2.217 0 0 0 -0.205,0.708 6.867,6.867 0 0 0 -0.063,0.972 v 3.225 h -1.871 V 7.716 h 1.427 l 0.256,0.876 h 0.1 a 1.857,1.857 0 0 1 0.825,-0.767 c 0.169,-0.083 0.347,-0.144 0.532,-0.18 0.19,-0.04 0.384,-0.06 0.578,-0.058 0.31,-0.005 0.618,0.043 0.912,0.142 0.269,0.093 0.511,0.248 0.708,0.452 0.206,0.226 0.36,0.493 0.452,0.784 0.113,0.367 0.167,0.75 0.159,1.135 z m -87.459,7.348 h 0.419 c 0.128,0.007 0.255,0.022 0.38,0.046 l -0.146,1.03 -0.356,-0.054 a 3.315,3.315 0 0 0 -0.339,-0.02 1.554,1.554 0 0 0 -1.256,0.602 c -0.16,0.21 -0.28,0.447 -0.356,0.7 -0.087,0.294 -0.129,0.599 -0.125,0.905 v 3.636 h -1.135 v -6.723 h 0.909 l 0.133,1.256 h 0.046 c 0.105,-0.176 0.214,-0.348 0.331,-0.51 0.114,-0.154 0.245,-0.295 0.39,-0.42 0.146,-0.125 0.311,-0.227 0.49,-0.301 0.193,-0.09 0.402,-0.14 0.615,-0.147 z m 4.446,6.983 a 3.236,3.236 0 0 1 -1.23,-0.226 2.66,2.66 0 0 1 -0.963,-0.662 3.037,3.037 0 0 1 -0.624,-1.08 4.567,4.567 0 0 1 -0.222,-1.475 c 0,-0.506 0.074,-1.008 0.222,-1.491 0.12,-0.404 0.314,-0.782 0.573,-1.115 a 2.44,2.44 0 0 1 0.88,-0.695 2.821,2.821 0 0 1 2.223,0 c 0.32,0.14 0.606,0.348 0.837,0.611 0.234,0.282 0.41,0.606 0.52,0.956 0.124,0.396 0.185,0.81 0.18,1.227 v 0.695 h -4.28 c -0.03,0.621 0.146,1.234 0.503,1.743 A 1.708,1.708 0 0 0 38,27.95 a 4.698,4.698 0 0 0 1.093,-0.117 3.57,3.57 0 0 0 0.481,-0.184 c 0.155,-0.059 0.314,-0.126 0.473,-0.197 v 0.993 a 4.206,4.206 0 0 1 -0.481,0.2 3.77,3.77 0 0 1 -0.997,0.223 c -0.18,0.037 -0.372,0.037 -0.582,0.037 z m -0.276,-6.057 a 1.376,1.376 0 0 0 -1.105,0.477 c -0.3,0.403 -0.468,0.889 -0.478,1.391 h 3.02 a 3.32,3.32 0 0 0 -0.085,-0.762 1.712,1.712 0 0 0 -0.255,-0.595 1.23,1.23 0 0 0 -0.448,-0.381 1.456,1.456 0 0 0 -0.649,-0.13 z m 8.177,4.088 a 1.98,1.98 0 0 1 -0.176,0.838 1.63,1.63 0 0 1 -0.494,0.637 2.298,2.298 0 0 1 -0.804,0.373 4.372,4.372 0 0 1 -1.063,0.122 5.331,5.331 0 0 1 -1.147,-0.11 2.948,2.948 0 0 1 -0.838,-0.314 v -1.018 a 6.8,6.8 0 0 0 0.419,0.193 c 0.33,0.132 0.672,0.229 1.022,0.29 a 3.336,3.336 0 0 0 1.218,-0.022 c 0.163,-0.036 0.318,-0.103 0.456,-0.197 a 0.733,0.733 0 0 0 0.251,-0.306 0.972,0.972 0 0 0 0.08,-0.418 c 0,-0.117 -0.02,-0.234 -0.059,-0.344 a 0.888,0.888 0 0 0 -0.226,-0.302 2.313,2.313 0 0 0 -0.444,-0.305 7.706,7.706 0 0 0 -0.724,-0.344 9.597,9.597 0 0 1 -0.791,-0.373 2.781,2.781 0 0 1 -0.599,-0.419 1.567,1.567 0 0 1 -0.377,-0.527 1.874,1.874 0 0 1 0.034,-1.47 c 0.112,-0.223 0.276,-0.415 0.477,-0.562 a 2.14,2.14 0 0 1 0.737,-0.344 3.55,3.55 0 0 1 0.955,-0.117 c 0.367,-0.005 0.733,0.039 1.088,0.13 0.323,0.082 0.637,0.194 0.938,0.335 l -0.39,0.905 a 6.83,6.83 0 0 0 -0.837,-0.31 2.84,2.84 0 0 0 -0.837,-0.134 1.699,1.699 0 0 0 -0.93,0.205 0.67,0.67 0 0 0 -0.297,0.587 0.959,0.959 0 0 0 0.067,0.377 c 0.058,0.115 0.141,0.217 0.243,0.297 0.142,0.113 0.297,0.21 0.46,0.289 0.193,0.096 0.42,0.201 0.72,0.323 a 8.4,8.4 0 0 1 0.788,0.364 c 0.213,0.115 0.411,0.255 0.59,0.419 0.158,0.148 0.286,0.326 0.377,0.524 a 1.8,1.8 0 0 1 0.113,0.729 z M 50,28.905 a 3.25,3.25 0 0 1 -1.231,-0.226 2.657,2.657 0 0 1 -0.963,-0.662 3.037,3.037 0 0 1 -0.62,-1.08 4.569,4.569 0 0 1 -0.222,-1.475 5.102,5.102 0 0 1 0.201,-1.491 c 0.118,-0.404 0.31,-0.782 0.566,-1.115 0.235,-0.297 0.536,-0.535 0.879,-0.695 a 2.64,2.64 0 0 1 1.13,-0.239 2.61,2.61 0 0 1 1.093,0.218 c 0.32,0.14 0.607,0.349 0.837,0.611 a 2.8,2.8 0 0 1 0.52,0.956 c 0.124,0.397 0.185,0.811 0.18,1.227 v 0.695 h -4.254 c -0.031,0.621 0.146,1.234 0.502,1.743 a 1.707,1.707 0 0 0 1.394,0.557 4.702,4.702 0 0 0 1.093,-0.117 c 0.164,-0.039 0.325,-0.09 0.482,-0.15 0.155,-0.06 0.314,-0.126 0.473,-0.198 v 0.993 a 4.213,4.213 0 0 1 -0.482,0.201 3.771,3.771 0 0 1 -0.996,0.222 c -0.18,0.025 -0.373,0.025 -0.582,0.025 z m -0.276,-6.057 a 1.378,1.378 0 0 0 -1.106,0.477 c -0.297,0.404 -0.461,0.89 -0.469,1.391 h 3.019 a 3.321,3.321 0 0 0 -0.084,-0.762 1.71,1.71 0 0 0 -0.255,-0.595 1.23,1.23 0 0 0 -0.448,-0.381 1.456,1.456 0 0 0 -0.657,-0.13 z m 7.857,5.936 -0.222,-0.934 h -0.05 c -0.125,0.17 -0.265,0.33 -0.418,0.477 a 2.07,2.07 0 0 1 -0.44,0.327 1.948,1.948 0 0 1 -0.532,0.189 3.292,3.292 0 0 1 -0.653,0.063 2.449,2.449 0 0 1 -0.779,-0.122 1.626,1.626 0 0 1 -0.615,-0.364 1.743,1.743 0 0 1 -0.419,-0.629 2.49,2.49 0 0 1 -0.146,-0.892 1.828,1.828 0 0 1 0.703,-1.546 3.766,3.766 0 0 1 2.156,-0.59 l 1.13,-0.043 V 24.297 A 2.275,2.275 0 0 0 57.205,23.61 c -0.05,-0.168 -0.14,-0.32 -0.264,-0.444 a 0.93,0.93 0 0 0 -0.419,-0.243 1.943,1.943 0 0 0 -0.565,-0.075 3.032,3.032 0 0 0 -0.95,0.146 6.281,6.281 0 0 0 -0.838,0.357 l -0.393,-0.838 a 5.175,5.175 0 0 1 1.013,-0.42 4.01,4.01 0 0 1 1.172,-0.17 4.11,4.11 0 0 1 1.08,0.125 c 0.28,0.07 0.538,0.207 0.754,0.398 0.205,0.19 0.359,0.43 0.448,0.695 0.104,0.332 0.154,0.679 0.146,1.027 v 4.608 z m -2.047,-0.78 c 0.235,0.002 0.47,-0.038 0.69,-0.117 0.208,-0.075 0.397,-0.195 0.554,-0.351 0.161,-0.17 0.285,-0.374 0.364,-0.595 0.093,-0.27 0.138,-0.553 0.134,-0.838 v -0.616 l -0.88,0.042 a 4.403,4.403 0 0 0 -0.925,0.126 c -0.216,0.048 -0.42,0.14 -0.598,0.272 a 1.023,1.023 0 0 0 -0.323,0.419 c -0.066,0.18 -0.098,0.37 -0.096,0.561 a 1.043,1.043 0 0 0 0.297,0.838 c 0.22,0.182 0.499,0.275 0.783,0.26 z m 7.562,-6.082 h 0.418 c 0.128,0.007 0.256,0.022 0.381,0.046 l -0.146,1.03 -0.352,-0.054 a 3.338,3.338 0 0 0 -0.343,-0.02 1.633,1.633 0 0 0 -0.704,0.154 1.572,1.572 0 0 0 -0.548,0.448 2.119,2.119 0 0 0 -0.356,0.7 c -0.098,0.293 -0.149,0.6 -0.15,0.91 v 3.635 h -1.114 v -6.727 h 0.908 l 0.134,1.256 h 0.05 c 0.1,-0.176 0.21,-0.346 0.327,-0.51 0.114,-0.156 0.246,-0.296 0.394,-0.42 0.144,-0.126 0.308,-0.228 0.485,-0.301 0.193,-0.09 0.403,-0.14 0.616,-0.147 z m 4.376,6.983 a 3.385,3.385 0 0 1 -1.16,-0.192 2.378,2.378 0 0 1 -0.938,-0.616 2.933,2.933 0 0 1 -0.624,-1.073 4.829,4.829 0 0 1 -0.23,-1.575 5.03,5.03 0 0 1 0.234,-1.634 c 0.13,-0.407 0.35,-0.78 0.64,-1.093 0.266,-0.275 0.593,-0.484 0.956,-0.607 a 3.462,3.462 0 0 1 1.172,-0.193 c 0.314,-0.001 0.627,0.034 0.933,0.105 0.263,0.055 0.52,0.141 0.763,0.255 l -0.331,0.947 c -0.092,-0.042 -0.197,-0.08 -0.31,-0.121 -0.113,-0.042 -0.235,-0.072 -0.356,-0.101 a 3.14,3.14 0 0 0 -0.7,-0.105 1.603,1.603 0 0 0 -1.406,0.62 3.324,3.324 0 0 0 -0.419,1.915 3.185,3.185 0 0 0 0.444,1.893 1.566,1.566 0 0 0 1.353,0.6 c 0.302,0.003 0.603,-0.035 0.895,-0.114 0.252,-0.068 0.497,-0.158 0.733,-0.268 v 0.997 a 3.048,3.048 0 0 1 -0.707,0.268 c -0.31,0.07 -0.626,0.1 -0.942,0.092 z m 7.192,-0.121 v -4.34 a 1.869,1.869 0 0 0 -0.322,-1.198 1.223,1.223 0 0 0 -1.01,-0.42 1.97,1.97 0 0 0 -0.837,0.16 c -0.22,0.104 -0.407,0.268 -0.54,0.473 -0.148,0.234 -0.25,0.494 -0.297,0.767 a 5.577,5.577 0 0 0 -0.088,1.043 v 3.494 h -1.118 v -9.53 h 1.143 v 2.836 l -0.05,0.884 h 0.05 c 0.097,-0.17 0.22,-0.325 0.364,-0.457 0.14,-0.127 0.297,-0.236 0.465,-0.323 a 1.96,1.96 0 0 1 0.532,-0.188 c 0.19,-0.042 0.383,-0.063 0.578,-0.063 a 2.251,2.251 0 0 1 1.674,0.587 c 0.428,0.525 0.634,1.197 0.574,1.872 v 4.403 z m 7.984,0.151 a 3.492,3.492 0 0 1 -1.16,-0.193 2.377,2.377 0 0 1 -0.937,-0.616 2.954,2.954 0 0 1 -0.628,-1.072 4.834,4.834 0 0 1 -0.226,-1.575 5.028,5.028 0 0 1 0.234,-1.634 c 0.13,-0.407 0.35,-0.78 0.64,-1.093 0.267,-0.276 0.594,-0.485 0.955,-0.612 a 3.558,3.558 0 0 1 1.168,-0.189 4.1,4.1 0 0 1 0.938,0.105 c 0.263,0.055 0.52,0.14 0.762,0.256 l -0.33,0.946 a 4.145,4.145 0 0 0 -0.315,-0.121 c -0.117,-0.042 -0.23,-0.071 -0.355,-0.105 a 3.024,3.024 0 0 0 -0.36,-0.071 1.92,1.92 0 0 0 -0.34,-0.03 1.599,1.599 0 0 0 -1.402,0.62 3.32,3.32 0 0 0 -0.444,1.915 3.194,3.194 0 0 0 0.448,1.894 1.57,1.57 0 0 0 1.352,0.599 c 0.303,0.003 0.604,-0.035 0.896,-0.113 0.252,-0.069 0.497,-0.158 0.733,-0.268 v 0.992 c -0.223,0.122 -0.46,0.213 -0.708,0.273 a 3.86,3.86 0 0 1 -0.92,0.092 z m 5.561,0 A 3.259,3.259 0 0 1 86.952,28.709 2.604,2.604 0 0 1 85.994,28.042 2.988,2.988 0 0 1 85.412,26.966 4.575,4.575 0 0 1 85.194,25.491 5.079,5.079 0 0 1 85.395,24 c 0.117,-0.405 0.31,-0.783 0.57,-1.114 0.235,-0.297 0.536,-0.535 0.879,-0.696 0.354,-0.162 0.74,-0.243 1.13,-0.239 a 2.61,2.61 0 0 1 1.093,0.218 c 0.322,0.137 0.608,0.347 0.837,0.612 0.234,0.28 0.41,0.603 0.52,0.95 0.124,0.4 0.185,0.815 0.18,1.232 v 0.696 h -4.28 c -0.032,0.62 0.144,1.233 0.499,1.742 a 1.733,1.733 0 0 0 1.394,0.558 c 0.21,0 0.419,0 0.582,-0.03 0.173,-0.02 0.345,-0.05 0.515,-0.092 a 3.78,3.78 0 0 0 0.481,-0.146 7.29,7.29 0 0 0 0.474,-0.201 v 0.997 a 6.288,6.288 0 0 1 -0.482,0.2 4.015,4.015 0 0 1 -1,0.223 6.19,6.19 0 0 1 -0.578,0.025 z m -0.285,-6.058 a 1.38,1.38 0 0 0 -1.11,0.478 2.351,2.351 0 0 0 -0.473,1.395 h 3.015 a 3.355,3.355 0 0 0 -0.08,-0.767 1.735,1.735 0 0 0 -0.26,-0.59 1.22,1.22 0 0 0 -0.443,-0.382 1.468,1.468 0 0 0 -0.65,-0.134 z m 8.327,5.936 v -4.34 a 1.894,1.894 0 0 0 -0.322,-1.198 1.23,1.23 0 0 0 -1.01,-0.419 1.96,1.96 0 0 0 -0.837,0.16 c -0.221,0.104 -0.41,0.268 -0.544,0.473 a 2.095,2.095 0 0 0 -0.293,0.766 5.163,5.163 0 0 0 -0.092,1.044 v 3.493 h -1.114 v -6.72 h 0.909 l 0.159,0.91 h 0.058 c 0.1,-0.169 0.222,-0.322 0.365,-0.457 0.139,-0.128 0.295,-0.237 0.464,-0.322 0.168,-0.088 0.347,-0.153 0.532,-0.193 0.19,-0.039 0.384,-0.058 0.578,-0.059 a 2.242,2.242 0 0 1 1.675,0.587 c 0.422,0.528 0.625,1.199 0.565,1.872 v 4.4 z m 5.012,-0.792 h 0.247 l 0.268,-0.033 c 0.079,-0.008 0.157,-0.023 0.234,-0.042 l 0.164,-0.042 v 0.838 c -0.066,0.03 -0.133,0.055 -0.201,0.075 -0.09,0.027 -0.181,0.048 -0.273,0.063 -0.096,0 -0.196,0.034 -0.305,0.042 a 2.586,2.586 0 0 1 -0.31,0 2.39,2.39 0 0 1 -0.708,-0.1 1.288,1.288 0 0 1 -0.56,-0.336 1.646,1.646 0 0 1 -0.373,-0.649 3.354,3.354 0 0 1 -0.134,-1.026 v -3.896 h -0.95 v -0.499 l 0.95,-0.477 0.481,-1.412 h 0.641 v 1.546 h 1.695 v 0.838 h -1.695 v 3.9 c -0.019,0.311 0.049,0.622 0.197,0.896 a 0.683,0.683 0 0 0 0.632,0.314 z m 4.974,-6.07 h 0.398 c 0.147,0 0.272,0.025 0.381,0.042 l -0.151,1.048 -0.351,-0.055 a 3.354,3.354 0 0 0 -0.34,-0.02 1.578,1.578 0 0 0 -0.707,0.154 c -0.213,0.108 -0.4,0.26 -0.549,0.448 -0.159,0.21 -0.28,0.447 -0.355,0.7 -0.087,0.294 -0.13,0.599 -0.126,0.905 v 3.632 h -1.114 v -6.732 h 0.905 l 0.138,1.256 h 0.046 c 0.104,-0.175 0.213,-0.347 0.331,-0.51 0.111,-0.156 0.242,-0.297 0.389,-0.42 0.146,-0.125 0.312,-0.227 0.49,-0.301 0.193,-0.09 0.402,-0.14 0.615,-0.147 z m 4.446,6.984 a 3.23,3.23 0 0 1 -1.23,-0.226 2.609,2.609 0 0 1 -0.963,-0.667 2.985,2.985 0 0 1 -0.62,-1.076 4.583,4.583 0 0 1 -0.222,-1.475 5.083,5.083 0 0 1 0.201,-1.491 c 0.125,-0.406 0.325,-0.784 0.59,-1.114 0.232,-0.29 0.527,-0.524 0.863,-0.683 a 2.816,2.816 0 0 1 2.223,0 c 0.321,0.138 0.608,0.347 0.837,0.611 0.234,0.28 0.411,0.603 0.52,0.951 0.122,0.4 0.183,0.814 0.18,1.232 v 0.695 h -4.263 c -0.03,0.62 0.146,1.234 0.503,1.743 a 1.723,1.723 0 0 0 1.394,0.557 c 0.209,0 0.419,0 0.578,-0.03 0.173,-0.018 0.345,-0.05 0.515,-0.091 0.164,-0.038 0.324,-0.087 0.481,-0.147 0.155,-0.059 0.314,-0.126 0.473,-0.201 v 0.963 a 5.084,5.084 0 0 1 -0.481,0.201 3.746,3.746 0 0 1 -1.001,0.223 6.136,6.136 0 0 1 -0.578,0.025 z m -0.276,-6.058 a 1.373,1.373 0 0 0 -1.105,0.478 c -0.303,0.402 -0.47,0.89 -0.477,1.395 h 3.018 a 3.35,3.35 0 0 0 -0.083,-0.767 1.748,1.748 0 0 0 -0.256,-0.59 1.228,1.228 0 0 0 -0.448,-0.382 1.455,1.455 0 0 0 -0.649,-0.134 z M 8.503,4.88 c 2.667,4.37 6.008,9.845 8.056,14.503 a 97.975,97.975 0 0 1 4.375,-4.75 V 3.77 H 7.829 Z"
     id="path1"
     fill="currentColor" />
  <path
     d="m 17.108,20.682 a 18.889,18.889 0 0 1 1.255,4.378 c 0.193,1.445 -0.079,2.71 -0.745,3.468 a 1.967,1.967 0 0 1 -1.507,0.704 2.093,2.093 0 0 1 -1.49,-0.745 4.044,4.044 0 0 1 -0.963,-3.071 9.6,9.6 0 0 1 2.01,-4.943 C 13.699,15.81 10.199,10.054 7.432,5.533 L 6.36,3.77 H 0 V 31 H 20.934 V 16.434 a 98.535,98.535 0 0 0 -3.826,4.248 z"
     id="path2"
     fill="currentColor" />
  <path
     d="m 15.537,27.649 a 0.938,0.938 0 0 0 0.578,0.347 0.736,0.736 0 0 0 0.565,-0.28 c 0.419,-0.47 0.582,-1.42 0.444,-2.476 a 16.116,16.116 0 0 0 -0.904,-3.351 7.926,7.926 0 0 0 -1.31,3.636 2.85,2.85 0 0 0 0.627,2.124 z m 7.7,-12.149 a 1.047,1.047 0 1 0 0,-2.094 1.047,1.047 0 0 0 0,2.094 z M 7.537,1.257 a 1.2575,1.2575 0 1 1 -2.515,0 1.2575,1.2575 0 0 1 2.515,0 z"
     id="path3"
     fill="currentColor" />
  <defs
     id="defs4" />
</svg>
