<svg width="169" height="483" viewBox="0 0 169 483" fill="none" xmlns="http://www.w3.org/2000/svg">
<path class="p4" fill-rule="evenodd" clip-rule="evenodd" d="M168.37 482.104V482.551C168.102 482.489 167.841 482.34 167.601 482.104C167.408 481.914 167.23 481.668 167.074 481.365C166.986 481.195 166.905 481.007 166.833 480.801L164.259 473.457L126.52 365.775L107.578 311.729L84.1079 242.628L40.2007 119.481L0.31813 5.6849C-0.553642 3.19748 0.469161 0 2.13658 0L168.37 1.33514e-05L168.37 119.481L168.37 242.628L168.37 365.775V482.104Z" />
<path class="p3" fill-rule="evenodd" clip-rule="evenodd" d="M168.37 242.628L84.1079 242.628L40.2007 119.481H168.37L168.37 242.628Z" />
<path class="p2" fill-rule="evenodd" clip-rule="evenodd" d="M126.52 365.775H168.37L168.37 242.628L84.1079 242.628L107.578 311.729L126.52 365.775Z" />
<path class="p1" fill-rule="evenodd" clip-rule="evenodd" d="M168.37 482.104H167.601H167.337L167.074 481.365L164.259 473.457L126.52 365.775H168.37V482.104Z" />
</svg>
