<svg xmlns="http://www.w3.org/2000/svg" width="319" height="524" viewbox="0 0 319 524" fill="none"><mask id="a" width="319" height="555" x="0" y="0" maskUnits="userSpaceOnUse" style="mask-type:alpha"><path fill="#D9D9D9" d="M0 0h319v555H0z"/></mask><g mask="url(#a)"><path fill="#7BD383" d="M-3.74 32.838c1.483-2.45 4.997-2.45 6.48 0l296.693 490.295c1.553 2.567-.269 5.867-3.24 5.867h-593.386c-2.971 0-4.793-3.3-3.24-5.867L-3.74 32.838Z"/><path fill="#F4F0E5" fill-opacity=".75" d="M-1.844 31.494h3.687L75.612 151.54H-75.027L-1.844 31.494Z"/><path fill="#F4F0E5" fill-opacity=".5" d="M-75.027 151.539H75.612l74.526 127.081h-302.862l77.697-127.081Z"/><path fill="#F4F0E5" fill-opacity=".25" d="M-151.138 278.62h301.276l77.698 127.081h-458.257l79.283-127.081Z"/></g><path stroke="#000" stroke-dasharray="7.6 7.6" stroke-linecap="round" stroke-width="2.534" d="M159 291h95M236 412h18" opacity=".9"/><path stroke="#000" stroke-dasharray="7.6 7.6" stroke-linecap="round" stroke-width="2.534" d="M11 68h243" opacity=".7"/><path stroke="#000" stroke-dasharray="7.6 7.6" stroke-linecap="round" stroke-width="2.534" d="M92 176h162" opacity=".8"/><circle cx="219" cy="413" r="17" fill="#E8A41C"/><path fill="#000" d="M215.979 419v-1.712h2.592v-7.84h.992l-3.328 1.984v-1.952l2.928-1.76h1.472v9.568h2.432V419h-7.088Z"/><circle cx="142" cy="291" r="17" fill="#E8A41C"/><path fill="#000" d="M138.451 296v-1.52l3.744-3.904c.469-.491.816-.944 1.04-1.36a2.67 2.67 0 0 0 .336-1.28c0-.544-.171-.955-.512-1.232-.341-.277-.837-.416-1.488-.416-.523 0-1.024.096-1.504.288-.48.181-.949.469-1.408.864l-.672-1.536c.459-.405 1.024-.731 1.696-.976a6.3 6.3 0 0 1 2.144-.368c1.216 0 2.149.272 2.8.816.651.544.976 1.323.976 2.336a4.33 4.33 0 0 1-.496 2.016c-.331.629-.843 1.291-1.536 1.984l-3.12 3.12v-.544h5.6V296h-7.6Z"/><circle cx="75" cy="175" r="17" fill="#E8A41C"/><path fill="#000" d="M74.827 181.16a7.446 7.446 0 0 1-2.24-.336c-.715-.235-1.301-.555-1.76-.96l.672-1.552a5.422 5.422 0 0 0 1.552.848 5.387 5.387 0 0 0 1.712.272c.725 0 1.275-.144 1.648-.432.373-.288.56-.709.56-1.264 0-.533-.187-.933-.56-1.2-.362-.277-.896-.416-1.6-.416h-1.824v-1.648h1.648c.608 0 1.093-.149 1.456-.448.363-.299.544-.709.544-1.232 0-.491-.17-.864-.512-1.12-.33-.256-.81-.384-1.44-.384-1.13 0-2.128.384-2.992 1.152l-.672-1.536c.459-.427 1.024-.757 1.696-.992a6.54 6.54 0 0 1 2.144-.352c1.174 0 2.09.267 2.752.8.672.523 1.008 1.253 1.008 2.192 0 .672-.192 1.253-.576 1.744-.373.48-.89.8-1.552.96v-.192c.779.128 1.382.448 1.808.96.438.501.656 1.131.656 1.888 0 1.003-.368 1.797-1.104 2.384-.736.576-1.744.864-3.024.864Z"/><circle cx="24" cy="68" r="17" fill="#E8A41C"/><path fill="#000" d="M24.9 74v-2.208h-5.04v-1.44l5.36-7.632h1.663v7.504H28.5v1.568h-1.616V74H24.9Zm0-3.776v-5.072h.383l-3.888 5.552v-.48H24.9Z"/></svg>
