<svg xmlns="http://www.w3.org/2000/svg" fill="none" viewBox="0 0 301 492" width="301" height="492">
<path class="p4" fill-rule="evenodd" d="M88.014 369h213.042v123H23.928c-3.079 0-5.004-3.333-3.464-6l67.55-117Z" clip-rule="evenodd"/>
<path class="p3" fill-rule="evenodd" d="M159.028 246h142.028v123H88.014l71.014-123Z" clip-rule="evenodd"/>
<path class="p2" fill-rule="evenodd" d="M230.042 123h71.014v123H159.028l71.014-123Z" clip-rule="evenodd"/>
<path class="p1" fill-rule="evenodd" d="M230.042 123 301.056 0v123h-71.014Z" clip-rule="evenodd"/>
<path class="p8" stroke-dasharray="7.6 7.6" stroke-linecap="round" stroke-width="2.534" d="M94 301h57M5 424.001 82 424" opacity=".9"/>
<path class="p8" stroke-dasharray="7.6 7.6" stroke-linecap="round" stroke-width="2.534" d="M234 67h45" opacity=".7"/>
<path class="p8" stroke-dasharray="7.6 7.6" stroke-linecap="round" stroke-width="2.534" d="M169 180h56" opacity=".8"/>
<circle class="p7" cx="17" cy="422" r="17" />
<path class="p9" d="M13.98 428v-1.712h2.591v-7.84h.992l-3.328 1.984v-1.952l2.928-1.76h1.472v9.568h2.432V428H13.98Z"/>
<circle class="p7" cx="92" cy="299" r="17" />
<path class="p9" d="M88.451 304v-1.52l3.744-3.904c.47-.491.816-.944 1.04-1.36a2.67 2.67 0 0 0 .336-1.28c0-.544-.17-.955-.512-1.232-.341-.277-.837-.416-1.488-.416-.522 0-1.024.096-1.504.288-.48.181-.95.469-1.408.864l-.672-1.536c.459-.405 1.024-.731 1.696-.976a6.3 6.3 0 0 1 2.144-.368c1.216 0 2.15.272 2.8.816.65.544.976 1.323.976 2.336 0 .704-.165 1.376-.496 2.016-.33.629-.843 1.291-1.536 1.984l-3.12 3.12v-.544h5.6V304h-7.6Z"/>
<circle class="p7" cx="167" cy="175" r="17" />
<path class="p9" d="M166.827 181.16a7.445 7.445 0 0 1-2.24-.336c-.715-.235-1.301-.555-1.76-.96l.672-1.552a5.42 5.42 0 0 0 1.552.848 5.389 5.389 0 0 0 1.712.272c.725 0 1.275-.144 1.648-.432.373-.288.56-.709.56-1.264 0-.533-.187-.933-.56-1.2-.363-.277-.896-.416-1.6-.416h-1.824v-1.648h1.648c.608 0 1.093-.149 1.456-.448.363-.299.544-.709.544-1.232 0-.491-.171-.864-.512-1.12-.331-.256-.811-.384-1.44-.384-1.131 0-2.128.384-2.992 1.152l-.672-1.536c.459-.427 1.024-.757 1.696-.992a6.54 6.54 0 0 1 2.144-.352c1.173 0 2.091.267 2.752.8.672.523 1.008 1.253 1.008 2.192 0 .672-.192 1.253-.576 1.744-.373.48-.891.8-1.552.96v-.192c.779.128 1.381.448 1.808.96.437.501.656 1.131.656 1.888 0 1.003-.368 1.797-1.104 2.384-.736.576-1.744.864-3.024.864Z"/>
<circle class="p7" cx="236" cy="61" r="17" />
<path class="p9" d="M236.899 67v-2.208h-5.04v-1.44l5.36-7.632h1.664v7.504h1.616v1.568h-1.616V67h-1.984Zm0-3.776v-5.072h.384l-3.888 5.552v-.48h3.504Z"/></svg>
