<svg xmlns="http://www.w3.org/2000/svg" fill="none" viewBox="0 0 318 522" width="318" height="522"><mask id="a" width="319" height="555" x="0" y="0" maskUnits="userSpaceOnUse" style="mask-type:alpha"><rect width="319" height="555" class="p8" transform="matrix(-1 0 0 1 319 0)"/></mask><g mask="url(#a)"><path d="M322.74 32.838c-1.483-2.45-4.997-2.45-6.48 0L19.567 523.133c-1.553 2.567.269 5.867 3.24 5.867h593.386c2.971 0 4.793-3.3 3.24-5.867L322.74 32.838Z" class="p1"/><path d="M320.844 31.494h-3.687L243.388 151.54h150.639L320.844 31.494Z" class="p2"/><path d="M394.027 151.539H243.388L168.862 278.62h302.862l-77.697-127.081Z" class="p3"/><path d="M470.138 278.62H168.862L91.164 405.701H549.42L470.138 278.62Z" class="p4"/></g><path class="p7" stroke-dasharray="7.6 7.6" stroke-linecap="round" stroke-width="2.534" d="M94 340h57M5 463.001 82 463" opacity=".9"/><path class="p7" stroke-dasharray="7.6 7.6" stroke-linecap="round" stroke-width="2.534" d="M234 106h45" opacity=".7"/><path class="p7" stroke-dasharray="7.6 7.6" stroke-linecap="round" stroke-width="2.534" d="M169 219h56" opacity=".8"/><circle cx="17" cy="461" r="17" class="p6"/><path class="p8" d="M13.98 467v-1.712h2.591v-7.84h.992l-3.328 1.984v-1.952l2.928-1.76h1.472v9.568h2.432V467H13.98Z"/><circle cx="92" cy="338" r="17" class="p6"/><path class="p8" d="M88.451 343v-1.52l3.744-3.904c.47-.491.816-.944 1.04-1.36a2.67 2.67 0 0 0 .336-1.28c0-.544-.17-.955-.512-1.232-.341-.277-.837-.416-1.488-.416-.522 0-1.024.096-1.504.288-.48.181-.95.469-1.408.864l-.672-1.536c.459-.405 1.024-.731 1.696-.976a6.3 6.3 0 0 1 2.144-.368c1.216 0 2.15.272 2.8.816.65.544.976 1.323.976 2.336 0 .704-.165 1.376-.496 2.016-.33.629-.843 1.291-1.536 1.984l-3.12 3.12v-.544h5.6V343h-7.6Z"/><circle cx="167" cy="214" r="17" class="p6"/><path class="p8" d="M166.827 220.16a7.445 7.445 0 0 1-2.24-.336c-.715-.235-1.301-.555-1.76-.96l.672-1.552a5.42 5.42 0 0 0 1.552.848 5.389 5.389 0 0 0 1.712.272c.725 0 1.275-.144 1.648-.432.373-.288.56-.709.56-1.264 0-.533-.187-.933-.56-1.2-.363-.277-.896-.416-1.6-.416h-1.824v-1.648h1.648c.608 0 1.093-.149 1.456-.448.363-.299.544-.709.544-1.232 0-.491-.171-.864-.512-1.12-.331-.256-.811-.384-1.44-.384-1.131 0-2.128.384-2.992 1.152l-.672-1.536c.459-.427 1.024-.757 1.696-.992a6.54 6.54 0 0 1 2.144-.352c1.173 0 2.091.267 2.752.8.672.523 1.008 1.253 1.008 2.192 0 .672-.192 1.253-.576 1.744-.373.48-.891.8-1.552.96v-.192c.779.128 1.381.448 1.808.96.437.501.656 1.131.656 1.888 0 1.003-.368 1.797-1.104 2.384-.736.576-1.744.864-3.024.864Z"/><circle cx="236" cy="100" r="17" class="p6"/><path class="p8" d="M236.899 106v-2.208h-5.04v-1.44l5.36-7.632h1.664v7.504h1.616v1.568h-1.616V106h-1.984Zm0-3.776v-5.072h.384l-3.888 5.552v-.48h3.504Z"/></svg>
