<svg width="407" height="308" viewBox="0 0 407 308" fill="none" xmlns="http://www.w3.org/2000/svg">
<circle cx="204.685" cy="145.16" r="130.097" class="w1"/>
<circle cx="204.853" cy="145.328" r="99.0018" class="w2"/>
<circle cx="204.853" cy="145.328" r="61.5232" class="w3 w9" stroke-dasharray="2 2"/>
<path d="M205.707 0.292893C205.317 -0.097631 204.683 -0.097631 204.293 0.292893L197.929 6.65685C197.538 7.04738 197.538 7.68054 197.929 8.07107C198.319 8.46159 198.953 8.46159 199.343 8.07107L205 2.41421L210.657 8.07107C211.047 8.46159 211.681 8.46159 212.071 8.07107C212.462 7.68054 212.462 7.04738 212.071 6.65685L205.707 0.292893ZM204.293 130.707C204.683 131.098 205.317 131.098 205.707 130.707L212.071 124.343C212.462 123.953 212.462 123.319 212.071 122.929C211.681 122.538 211.047 122.538 210.657 122.929L205 128.586L199.343 122.929C198.953 122.538 198.319 122.538 197.929 122.929C197.538 123.319 197.538 123.953 197.929 124.343L204.293 130.707ZM205 1L204 1L204 130L205 130L206 130L206 1L205 1Z" class="w8"/>
<line x1="335" y1="145.5" x2="75" y2="145.5" class="w5" stroke-dasharray="2 2"/>
<line x1="204.5" y1="275" x2="204.5" y2="15" class="w5" stroke-dasharray="2 2"/>
<line x1="112.553" y1="236.621" x2="296.101" y2="53.0727" class="w5" stroke-dasharray="2 2"/>
<line x1="113.596" y1="53.4089" x2="296.472" y2="236.285" class="w5" stroke-dasharray="2 2"/>
<path d="M346.445 190.12C345.765 190.12 345.137 190.036 344.561 189.868C343.993 189.692 343.505 189.452 343.097 189.148L343.577 187.936C343.849 188.128 344.133 188.292 344.429 188.428C344.725 188.556 345.041 188.656 345.377 188.728C345.713 188.792 346.069 188.824 346.445 188.824C347.077 188.824 347.533 188.72 347.813 188.512C348.093 188.304 348.233 188.032 348.233 187.696C348.233 187.4 348.137 187.176 347.945 187.024C347.753 186.864 347.409 186.732 346.913 186.628L345.557 186.352C344.781 186.192 344.201 185.924 343.817 185.548C343.433 185.172 343.241 184.668 343.241 184.036C343.241 183.508 343.381 183.048 343.661 182.656C343.941 182.264 344.333 181.96 344.837 181.744C345.341 181.528 345.929 181.42 346.601 181.42C347.201 181.42 347.757 181.508 348.269 181.684C348.781 181.852 349.209 182.096 349.553 182.416L349.073 183.568C348.729 183.28 348.353 183.068 347.945 182.932C347.537 182.788 347.081 182.716 346.577 182.716C346.009 182.716 345.565 182.828 345.245 183.052C344.933 183.268 344.777 183.568 344.777 183.952C344.777 184.248 344.873 184.484 345.065 184.66C345.265 184.836 345.601 184.972 346.073 185.068L347.417 185.332C348.217 185.492 348.809 185.756 349.193 186.124C349.577 186.484 349.769 186.972 349.769 187.588C349.769 188.092 349.633 188.536 349.361 188.92C349.089 189.296 348.705 189.592 348.209 189.808C347.713 190.016 347.125 190.12 346.445 190.12ZM353.843 190.12C353.219 190.12 352.679 189.992 352.223 189.736C351.767 189.48 351.411 189.116 351.155 188.644C350.907 188.172 350.783 187.612 350.783 186.964C350.783 186.316 350.907 185.76 351.155 185.296C351.411 184.824 351.767 184.46 352.223 184.204C352.679 183.948 353.219 183.82 353.843 183.82C354.467 183.82 355.007 183.948 355.463 184.204C355.927 184.46 356.283 184.824 356.531 185.296C356.787 185.76 356.915 186.316 356.915 186.964C356.915 187.612 356.787 188.172 356.531 188.644C356.283 189.116 355.927 189.48 355.463 189.736C355.007 189.992 354.467 190.12 353.843 190.12ZM353.843 188.968C354.315 188.968 354.691 188.804 354.971 188.476C355.251 188.14 355.391 187.636 355.391 186.964C355.391 186.292 355.251 185.792 354.971 185.464C354.691 185.136 354.315 184.972 353.843 184.972C353.371 184.972 352.995 185.136 352.715 185.464C352.435 185.792 352.295 186.292 352.295 186.964C352.295 187.636 352.435 188.14 352.715 188.476C352.995 188.804 353.371 188.968 353.843 188.968ZM360.993 190.12C360.369 190.12 359.821 189.992 359.349 189.736C358.885 189.48 358.525 189.116 358.269 188.644C358.013 188.164 357.885 187.596 357.885 186.94C357.885 186.284 358.013 185.724 358.269 185.26C358.533 184.796 358.897 184.44 359.361 184.192C359.825 183.944 360.369 183.82 360.993 183.82C361.393 183.82 361.781 183.884 362.157 184.012C362.541 184.132 362.853 184.308 363.093 184.54L362.637 185.584C362.421 185.384 362.177 185.236 361.905 185.14C361.641 185.036 361.381 184.984 361.125 184.984C360.589 184.984 360.169 185.152 359.865 185.488C359.569 185.824 359.421 186.312 359.421 186.952C359.421 187.592 359.569 188.084 359.865 188.428C360.169 188.772 360.589 188.944 361.125 188.944C361.373 188.944 361.629 188.896 361.893 188.8C362.165 188.704 362.413 188.556 362.637 188.356L363.093 189.388C362.845 189.62 362.529 189.8 362.145 189.928C361.769 190.056 361.385 190.12 360.993 190.12ZM364.255 190V183.94H365.755V190H364.255ZM364.171 182.8V181.336H365.839V182.8H364.171ZM369.724 190.12C369.196 190.12 368.732 189.996 368.332 189.748C367.932 189.492 367.62 189.128 367.396 188.656C367.172 188.184 367.06 187.62 367.06 186.964C367.06 186.308 367.172 185.748 367.396 185.284C367.62 184.812 367.932 184.452 368.332 184.204C368.732 183.948 369.196 183.82 369.724 183.82C370.236 183.82 370.684 183.948 371.068 184.204C371.46 184.452 371.72 184.788 371.848 185.212H371.716L371.848 183.94H373.288C373.264 184.188 373.24 184.44 373.216 184.696C373.2 184.952 373.192 185.204 373.192 185.452V190H371.704L371.692 188.752H371.836C371.708 189.168 371.448 189.5 371.056 189.748C370.664 189.996 370.22 190.12 369.724 190.12ZM370.144 188.968C370.616 188.968 370.996 188.804 371.284 188.476C371.572 188.14 371.716 187.636 371.716 186.964C371.716 186.292 371.572 185.792 371.284 185.464C370.996 185.136 370.616 184.972 370.144 184.972C369.672 184.972 369.292 185.136 369.004 185.464C368.716 185.792 368.572 186.292 368.572 186.964C368.572 187.636 368.712 188.14 368.992 188.476C369.28 188.804 369.664 188.968 370.144 188.968ZM374.826 190V181.168H376.326V190H374.826ZM383.588 190.12C383.06 190.12 382.596 189.996 382.196 189.748C381.796 189.492 381.484 189.128 381.26 188.656C381.036 188.184 380.924 187.62 380.924 186.964C380.924 186.308 381.036 185.748 381.26 185.284C381.484 184.812 381.796 184.452 382.196 184.204C382.596 183.948 383.06 183.82 383.588 183.82C384.1 183.82 384.548 183.948 384.932 184.204C385.324 184.452 385.584 184.788 385.712 185.212H385.58L385.712 183.94H387.152C387.128 184.188 387.104 184.44 387.08 184.696C387.064 184.952 387.056 185.204 387.056 185.452V190H385.568L385.556 188.752H385.7C385.572 189.168 385.312 189.5 384.92 189.748C384.528 189.996 384.084 190.12 383.588 190.12ZM384.008 188.968C384.48 188.968 384.86 188.804 385.148 188.476C385.436 188.14 385.58 187.636 385.58 186.964C385.58 186.292 385.436 185.792 385.148 185.464C384.86 185.136 384.48 184.972 384.008 184.972C383.536 184.972 383.156 185.136 382.868 185.464C382.58 185.792 382.436 186.292 382.436 186.964C382.436 187.636 382.576 188.14 382.856 188.476C383.144 188.804 383.528 188.968 384.008 188.968ZM388.689 190V183.94H390.189V190H388.689ZM388.605 182.8V181.336H390.273V182.8H388.605ZM394.17 190.12C393.642 190.12 393.174 189.996 392.766 189.748C392.366 189.492 392.054 189.128 391.83 188.656C391.606 188.184 391.494 187.62 391.494 186.964C391.494 186.308 391.606 185.748 391.83 185.284C392.054 184.812 392.366 184.452 392.766 184.204C393.174 183.948 393.642 183.82 394.17 183.82C394.674 183.82 395.118 183.944 395.502 184.192C395.894 184.432 396.154 184.76 396.282 185.176H396.126V181.168H397.626V190H396.15V188.716H396.294C396.166 189.148 395.906 189.492 395.514 189.748C395.13 189.996 394.682 190.12 394.17 190.12ZM394.59 188.968C395.062 188.968 395.442 188.804 395.73 188.476C396.018 188.14 396.162 187.636 396.162 186.964C396.162 186.292 396.018 185.792 395.73 185.464C395.442 185.136 395.062 184.972 394.59 184.972C394.118 184.972 393.734 185.136 393.438 185.464C393.15 185.792 393.006 186.292 393.006 186.964C393.006 187.636 393.15 188.14 393.438 188.476C393.734 188.804 394.118 188.968 394.59 188.968ZM350.035 207.592V200.452C350.035 200.204 350.027 199.952 350.011 199.696C349.995 199.44 349.971 199.188 349.939 198.94H351.391L351.523 200.212H351.391C351.511 199.788 351.763 199.452 352.147 199.204C352.539 198.948 352.991 198.82 353.503 198.82C354.039 198.82 354.507 198.948 354.907 199.204C355.307 199.452 355.619 199.812 355.843 200.284C356.067 200.748 356.179 201.308 356.179 201.964C356.179 202.62 356.067 203.184 355.843 203.656C355.619 204.128 355.307 204.492 354.907 204.748C354.507 204.996 354.039 205.12 353.503 205.12C352.999 205.12 352.555 204.996 352.171 204.748C351.787 204.5 351.531 204.168 351.403 203.752H351.535V207.592H350.035ZM353.083 203.968C353.563 203.968 353.947 203.804 354.235 203.476C354.523 203.14 354.667 202.636 354.667 201.964C354.667 201.292 354.523 200.792 354.235 200.464C353.947 200.136 353.563 199.972 353.083 199.972C352.611 199.972 352.231 200.136 351.943 200.464C351.655 200.792 351.511 201.292 351.511 201.964C351.511 202.636 351.655 203.14 351.943 203.476C352.231 203.804 352.611 203.968 353.083 203.968ZM360.212 205.12C359.588 205.12 359.048 204.992 358.592 204.736C358.136 204.48 357.78 204.116 357.524 203.644C357.276 203.172 357.152 202.612 357.152 201.964C357.152 201.316 357.276 200.76 357.524 200.296C357.78 199.824 358.136 199.46 358.592 199.204C359.048 198.948 359.588 198.82 360.212 198.82C360.836 198.82 361.376 198.948 361.832 199.204C362.296 199.46 362.652 199.824 362.9 200.296C363.156 200.76 363.284 201.316 363.284 201.964C363.284 202.612 363.156 203.172 362.9 203.644C362.652 204.116 362.296 204.48 361.832 204.736C361.376 204.992 360.836 205.12 360.212 205.12ZM360.212 203.968C360.684 203.968 361.06 203.804 361.34 203.476C361.62 203.14 361.76 202.636 361.76 201.964C361.76 201.292 361.62 200.792 361.34 200.464C361.06 200.136 360.684 199.972 360.212 199.972C359.74 199.972 359.364 200.136 359.084 200.464C358.804 200.792 358.664 201.292 358.664 201.964C358.664 202.636 358.804 203.14 359.084 203.476C359.364 203.804 359.74 203.968 360.212 203.968ZM364.578 205V196.168H366.078V205H364.578ZM367.707 205V198.94H369.207V205H367.707ZM367.623 197.8V196.336H369.291V197.8H367.623ZM373.62 205.12C372.996 205.12 372.448 204.992 371.976 204.736C371.512 204.48 371.152 204.116 370.896 203.644C370.64 203.164 370.512 202.596 370.512 201.94C370.512 201.284 370.64 200.724 370.896 200.26C371.16 199.796 371.524 199.44 371.988 199.192C372.452 198.944 372.996 198.82 373.62 198.82C374.02 198.82 374.408 198.884 374.784 199.012C375.168 199.132 375.48 199.308 375.72 199.54L375.264 200.584C375.048 200.384 374.804 200.236 374.532 200.14C374.268 200.036 374.008 199.984 373.752 199.984C373.216 199.984 372.796 200.152 372.492 200.488C372.196 200.824 372.048 201.312 372.048 201.952C372.048 202.592 372.196 203.084 372.492 203.428C372.796 203.772 373.216 203.944 373.752 203.944C374 203.944 374.256 203.896 374.52 203.8C374.792 203.704 375.04 203.556 375.264 203.356L375.72 204.388C375.472 204.62 375.156 204.8 374.772 204.928C374.396 205.056 374.012 205.12 373.62 205.12ZM376.882 205V198.94H378.382V205H376.882ZM376.798 197.8V196.336H378.466V197.8H376.798ZM382.939 205.12C381.923 205.12 381.127 204.84 380.551 204.28C379.975 203.72 379.687 202.952 379.687 201.976C379.687 201.344 379.811 200.792 380.059 200.32C380.307 199.848 380.651 199.48 381.091 199.216C381.539 198.952 382.059 198.82 382.651 198.82C383.235 198.82 383.723 198.944 384.115 199.192C384.507 199.44 384.803 199.788 385.003 200.236C385.211 200.684 385.315 201.208 385.315 201.808V202.204H380.899V201.412H384.247L384.043 201.58C384.043 201.02 383.923 200.592 383.683 200.296C383.451 200 383.111 199.852 382.663 199.852C382.167 199.852 381.783 200.028 381.511 200.38C381.247 200.732 381.115 201.224 381.115 201.856V202.012C381.115 202.668 381.275 203.16 381.595 203.488C381.923 203.808 382.383 203.968 382.975 203.968C383.319 203.968 383.639 203.924 383.935 203.836C384.239 203.74 384.527 203.588 384.799 203.38L385.243 204.388C384.955 204.62 384.611 204.8 384.211 204.928C383.811 205.056 383.387 205.12 382.939 205.12ZM388.746 205.12C388.226 205.12 387.746 205.06 387.306 204.94C386.874 204.812 386.51 204.636 386.214 204.412L386.634 203.404C386.938 203.612 387.274 203.772 387.642 203.884C388.01 203.996 388.382 204.052 388.758 204.052C389.158 204.052 389.454 203.984 389.646 203.848C389.846 203.712 389.946 203.528 389.946 203.296C389.946 203.112 389.882 202.968 389.754 202.864C389.634 202.752 389.438 202.668 389.166 202.612L387.966 202.384C387.454 202.272 387.062 202.08 386.79 201.808C386.526 201.536 386.394 201.18 386.394 200.74C386.394 200.364 386.494 200.032 386.694 199.744C386.902 199.456 387.194 199.232 387.57 199.072C387.954 198.904 388.402 198.82 388.914 198.82C389.362 198.82 389.782 198.88 390.174 199C390.574 199.12 390.91 199.3 391.182 199.54L390.75 200.512C390.502 200.312 390.218 200.156 389.898 200.044C389.578 199.932 389.266 199.876 388.962 199.876C388.546 199.876 388.242 199.952 388.05 200.104C387.858 200.248 387.762 200.436 387.762 200.668C387.762 200.844 387.818 200.992 387.93 201.112C388.05 201.224 388.234 201.308 388.482 201.364L389.682 201.592C390.218 201.696 390.622 201.88 390.894 202.144C391.174 202.4 391.314 202.752 391.314 203.2C391.314 203.6 391.206 203.944 390.99 204.232C390.774 204.52 390.474 204.74 390.09 204.892C389.706 205.044 389.258 205.12 388.746 205.12Z" class="w8"/>
<path d="M267.847 299.12C266.967 299.12 266.211 298.944 265.579 298.592C264.955 298.232 264.475 297.728 264.139 297.08C263.803 296.424 263.635 295.652 263.635 294.764C263.635 293.876 263.803 293.108 264.139 292.46C264.475 291.812 264.955 291.312 265.579 290.96C266.211 290.6 266.967 290.42 267.847 290.42C268.439 290.42 268.971 290.504 269.443 290.672C269.923 290.84 270.335 291.088 270.679 291.416L270.175 292.64C269.799 292.336 269.435 292.12 269.083 291.992C268.739 291.856 268.343 291.788 267.895 291.788C267.039 291.788 266.383 292.048 265.927 292.568C265.479 293.08 265.255 293.812 265.255 294.764C265.255 295.716 265.479 296.452 265.927 296.972C266.383 297.492 267.039 297.752 267.895 297.752C268.343 297.752 268.739 297.688 269.083 297.56C269.435 297.424 269.799 297.2 270.175 296.888L270.679 298.112C270.335 298.432 269.923 298.68 269.443 298.856C268.971 299.032 268.439 299.12 267.847 299.12ZM274.32 299.12C273.696 299.12 273.156 298.992 272.7 298.736C272.244 298.48 271.888 298.116 271.632 297.644C271.384 297.172 271.26 296.612 271.26 295.964C271.26 295.316 271.384 294.76 271.632 294.296C271.888 293.824 272.244 293.46 272.7 293.204C273.156 292.948 273.696 292.82 274.32 292.82C274.944 292.82 275.484 292.948 275.94 293.204C276.404 293.46 276.76 293.824 277.008 294.296C277.264 294.76 277.392 295.316 277.392 295.964C277.392 296.612 277.264 297.172 277.008 297.644C276.76 298.116 276.404 298.48 275.94 298.736C275.484 298.992 274.944 299.12 274.32 299.12ZM274.32 297.968C274.792 297.968 275.168 297.804 275.448 297.476C275.728 297.14 275.868 296.636 275.868 295.964C275.868 295.292 275.728 294.792 275.448 294.464C275.168 294.136 274.792 293.972 274.32 293.972C273.848 293.972 273.472 294.136 273.192 294.464C272.912 294.792 272.772 295.292 272.772 295.964C272.772 296.636 272.912 297.14 273.192 297.476C273.472 297.804 273.848 297.968 274.32 297.968ZM280.845 299.12C280.325 299.12 279.845 299.06 279.405 298.94C278.973 298.812 278.609 298.636 278.313 298.412L278.733 297.404C279.037 297.612 279.373 297.772 279.741 297.884C280.109 297.996 280.481 298.052 280.857 298.052C281.257 298.052 281.553 297.984 281.745 297.848C281.945 297.712 282.045 297.528 282.045 297.296C282.045 297.112 281.981 296.968 281.853 296.864C281.733 296.752 281.537 296.668 281.265 296.612L280.065 296.384C279.553 296.272 279.161 296.08 278.889 295.808C278.625 295.536 278.493 295.18 278.493 294.74C278.493 294.364 278.593 294.032 278.793 293.744C279.001 293.456 279.293 293.232 279.669 293.072C280.053 292.904 280.501 292.82 281.013 292.82C281.461 292.82 281.881 292.88 282.273 293C282.673 293.12 283.009 293.3 283.281 293.54L282.849 294.512C282.601 294.312 282.317 294.156 281.997 294.044C281.677 293.932 281.365 293.876 281.061 293.876C280.645 293.876 280.341 293.952 280.149 294.104C279.957 294.248 279.861 294.436 279.861 294.668C279.861 294.844 279.917 294.992 280.029 295.112C280.149 295.224 280.333 295.308 280.581 295.364L281.781 295.592C282.317 295.696 282.721 295.88 282.993 296.144C283.273 296.4 283.413 296.752 283.413 297.2C283.413 297.6 283.305 297.944 283.089 298.232C282.873 298.52 282.573 298.74 282.189 298.892C281.805 299.044 281.357 299.12 280.845 299.12ZM287.23 299.12C286.51 299.12 285.966 298.932 285.598 298.556C285.23 298.18 285.046 297.616 285.046 296.864V294.068H283.882V292.94H285.046V291.392L286.546 291.008V292.94H288.166V294.068H286.546V296.768C286.546 297.184 286.626 297.476 286.786 297.644C286.946 297.812 287.166 297.896 287.446 297.896C287.598 297.896 287.726 297.884 287.83 297.86C287.942 297.836 288.05 297.804 288.154 297.764V298.952C288.018 299.008 287.866 299.048 287.698 299.072C287.538 299.104 287.382 299.12 287.23 299.12ZM295.214 299.12C294.59 299.12 294.05 298.992 293.594 298.736C293.138 298.48 292.782 298.116 292.526 297.644C292.278 297.172 292.154 296.612 292.154 295.964C292.154 295.316 292.278 294.76 292.526 294.296C292.782 293.824 293.138 293.46 293.594 293.204C294.05 292.948 294.59 292.82 295.214 292.82C295.838 292.82 296.378 292.948 296.834 293.204C297.298 293.46 297.654 293.824 297.902 294.296C298.158 294.76 298.286 295.316 298.286 295.964C298.286 296.612 298.158 297.172 297.902 297.644C297.654 298.116 297.298 298.48 296.834 298.736C296.378 298.992 295.838 299.12 295.214 299.12ZM295.214 297.968C295.686 297.968 296.062 297.804 296.342 297.476C296.622 297.14 296.762 296.636 296.762 295.964C296.762 295.292 296.622 294.792 296.342 294.464C296.062 294.136 295.686 293.972 295.214 293.972C294.742 293.972 294.366 294.136 294.086 294.464C293.806 294.792 293.666 295.292 293.666 295.964C293.666 296.636 293.806 297.14 294.086 297.476C294.366 297.804 294.742 297.968 295.214 297.968ZM299.929 299V294.068H298.765V292.94H300.349L299.929 293.324V292.4C299.929 291.648 300.121 291.08 300.505 290.696C300.897 290.312 301.469 290.12 302.221 290.12C302.397 290.12 302.581 290.132 302.773 290.156C302.973 290.18 303.145 290.224 303.289 290.288V291.464C303.185 291.424 303.061 291.392 302.917 291.368C302.773 291.344 302.633 291.332 302.497 291.332C302.289 291.332 302.101 291.372 301.933 291.452C301.773 291.532 301.645 291.656 301.549 291.824C301.461 291.984 301.417 292.2 301.417 292.472V293.204L301.201 292.94H303.013V294.068H301.429V299H299.929ZM307.232 299V290.168H308.732V299H307.232ZM310.361 299V292.94H311.861V299H310.361ZM310.277 291.8V290.336H311.945V291.8H310.277ZM315.266 299L312.65 292.94H314.246L316.142 297.68H315.77L317.714 292.94H319.214L316.586 299H315.266ZM320.017 299V292.94H321.517V299H320.017ZM319.933 291.8V290.336H321.601V291.8H319.933ZM323.146 299V294.452C323.146 294.204 323.138 293.952 323.122 293.696C323.106 293.44 323.082 293.188 323.05 292.94H324.502L324.622 294.14H324.478C324.67 293.716 324.954 293.392 325.33 293.168C325.706 292.936 326.142 292.82 326.638 292.82C327.35 292.82 327.886 293.02 328.246 293.42C328.606 293.82 328.786 294.444 328.786 295.292V299H327.286V295.364C327.286 294.876 327.19 294.528 326.998 294.32C326.814 294.104 326.534 293.996 326.158 293.996C325.694 293.996 325.326 294.14 325.054 294.428C324.782 294.716 324.646 295.1 324.646 295.58V299H323.146ZM333.185 301.688C332.625 301.688 332.117 301.628 331.661 301.508C331.213 301.388 330.813 301.204 330.461 300.956L330.785 299.876C331.017 300.028 331.257 300.152 331.505 300.248C331.753 300.344 332.009 300.416 332.273 300.464C332.537 300.512 332.805 300.536 333.077 300.536C333.637 300.536 334.053 300.396 334.325 300.116C334.605 299.844 334.745 299.452 334.745 298.94V297.488H334.865C334.737 297.904 334.477 298.236 334.085 298.484C333.701 298.732 333.257 298.856 332.753 298.856C332.209 298.856 331.733 298.736 331.325 298.496C330.925 298.248 330.613 297.896 330.389 297.44C330.165 296.984 330.053 296.448 330.053 295.832C330.053 295.216 330.165 294.684 330.389 294.236C330.613 293.78 330.925 293.432 331.325 293.192C331.733 292.944 332.209 292.82 332.753 292.82C333.265 292.82 333.709 292.944 334.085 293.192C334.469 293.432 334.725 293.76 334.853 294.176L334.745 294.104L334.865 292.94H336.317C336.285 293.188 336.261 293.44 336.245 293.696C336.229 293.952 336.221 294.204 336.221 294.452V298.76C336.221 299.712 335.961 300.436 335.441 300.932C334.929 301.436 334.177 301.688 333.185 301.688ZM333.161 297.704C333.641 297.704 334.021 297.544 334.301 297.224C334.589 296.896 334.733 296.432 334.733 295.832C334.733 295.232 334.589 294.772 334.301 294.452C334.021 294.132 333.641 293.972 333.161 293.972C332.673 293.972 332.285 294.132 331.997 294.452C331.709 294.772 331.565 295.232 331.565 295.832C331.565 296.432 331.709 296.896 331.997 297.224C332.285 297.544 332.673 297.704 333.161 297.704Z" class="w8"/>
<path d="M346.806 89.108C346.126 89.108 345.518 89.02 344.982 88.844C344.446 88.668 343.978 88.416 343.578 88.088L343.938 87.296C344.218 87.504 344.498 87.68 344.778 87.824C345.066 87.96 345.374 88.064 345.702 88.136C346.03 88.2 346.398 88.232 346.806 88.232C347.518 88.232 348.046 88.1 348.39 87.836C348.734 87.572 348.906 87.22 348.906 86.78C348.906 86.404 348.786 86.116 348.546 85.916C348.306 85.716 347.886 85.556 347.286 85.436L346.026 85.184C345.25 85.024 344.67 84.764 344.286 84.404C343.91 84.044 343.722 83.556 343.722 82.94C343.722 82.436 343.85 81.996 344.106 81.62C344.37 81.244 344.738 80.952 345.21 80.744C345.682 80.536 346.23 80.432 346.854 80.432C347.454 80.432 348.002 80.524 348.498 80.708C348.994 80.884 349.418 81.144 349.77 81.488L349.422 82.256C349.046 81.92 348.65 81.68 348.234 81.536C347.826 81.384 347.362 81.308 346.842 81.308C346.186 81.308 345.666 81.452 345.282 81.74C344.906 82.02 344.718 82.404 344.718 82.892C344.718 83.284 344.838 83.592 345.078 83.816C345.318 84.032 345.714 84.196 346.266 84.308L347.538 84.56C348.354 84.728 348.954 84.98 349.338 85.316C349.722 85.652 349.914 86.124 349.914 86.732C349.914 87.196 349.786 87.608 349.53 87.968C349.282 88.328 348.926 88.608 348.462 88.808C347.998 89.008 347.446 89.108 346.806 89.108ZM353.527 89.108C352.935 89.108 352.483 88.94 352.171 88.604C351.859 88.26 351.703 87.744 351.703 87.056V83.732H350.527V82.976H351.703V81.332L352.675 81.056V82.976H354.403V83.732H352.675V86.948C352.675 87.428 352.755 87.772 352.915 87.98C353.083 88.18 353.331 88.28 353.659 88.28C353.811 88.28 353.947 88.268 354.067 88.244C354.187 88.212 354.295 88.176 354.391 88.136V88.952C354.279 89 354.143 89.036 353.983 89.06C353.831 89.092 353.679 89.108 353.527 89.108ZM355.587 89V82.976H356.559V89H355.587ZM355.467 81.608V80.516H356.667V81.608H355.467ZM361.098 91.676C360.578 91.676 360.098 91.612 359.658 91.484C359.218 91.356 358.822 91.16 358.47 90.896L358.758 90.164C359.006 90.34 359.25 90.48 359.49 90.584C359.73 90.688 359.978 90.764 360.234 90.812C360.49 90.868 360.762 90.896 361.05 90.896C361.642 90.896 362.09 90.74 362.394 90.428C362.698 90.116 362.85 89.672 362.85 89.096V87.332H362.97C362.842 87.804 362.578 88.18 362.178 88.46C361.778 88.732 361.31 88.868 360.774 88.868C360.222 88.868 359.742 88.748 359.334 88.508C358.934 88.26 358.622 87.912 358.398 87.464C358.182 87.008 358.074 86.472 358.074 85.856C358.074 85.248 358.182 84.72 358.398 84.272C358.622 83.824 358.934 83.48 359.334 83.24C359.742 82.992 360.222 82.868 360.774 82.868C361.318 82.868 361.786 83.004 362.178 83.276C362.578 83.548 362.842 83.924 362.97 84.404L362.85 84.284L362.958 82.976H363.906C363.874 83.208 363.85 83.444 363.834 83.684C363.818 83.916 363.81 84.144 363.81 84.368V88.964C363.81 89.86 363.578 90.536 363.114 90.992C362.658 91.448 361.986 91.676 361.098 91.676ZM360.954 88.076C361.538 88.076 361.998 87.884 362.334 87.5C362.67 87.108 362.838 86.56 362.838 85.856C362.838 85.152 362.67 84.608 362.334 84.224C361.998 83.84 361.538 83.648 360.954 83.648C360.378 83.648 359.918 83.84 359.574 84.224C359.23 84.608 359.058 85.152 359.058 85.856C359.058 86.56 359.23 87.108 359.574 87.5C359.918 87.884 360.378 88.076 360.954 88.076ZM365.677 89V84.368C365.677 84.144 365.665 83.916 365.641 83.684C365.625 83.444 365.605 83.208 365.581 82.976H366.517L366.637 84.296H366.493C366.653 83.84 366.905 83.488 367.249 83.24C367.601 82.992 368.025 82.868 368.521 82.868C369.025 82.868 369.433 82.988 369.745 83.228C370.065 83.468 370.281 83.84 370.393 84.344H370.213C370.365 83.888 370.633 83.528 371.017 83.264C371.401 83 371.849 82.868 372.361 82.868C373.025 82.868 373.525 83.06 373.861 83.444C374.197 83.82 374.365 84.416 374.365 85.232V89H373.393V85.292C373.393 84.724 373.293 84.312 373.093 84.056C372.893 83.792 372.573 83.66 372.133 83.66C371.629 83.66 371.229 83.836 370.933 84.188C370.645 84.532 370.501 84.996 370.501 85.58V89H369.529V85.292C369.529 84.724 369.429 84.312 369.229 84.056C369.029 83.792 368.709 83.66 368.269 83.66C367.765 83.66 367.369 83.836 367.081 84.188C366.793 84.532 366.649 84.996 366.649 85.58V89H365.677ZM378.504 89.108C377.968 89.108 377.5 88.984 377.1 88.736C376.7 88.48 376.388 88.12 376.164 87.656C375.948 87.192 375.84 86.636 375.84 85.988C375.84 85.332 375.948 84.772 376.164 84.308C376.388 83.844 376.7 83.488 377.1 83.24C377.5 82.992 377.968 82.868 378.504 82.868C379.048 82.868 379.516 83.008 379.908 83.288C380.308 83.56 380.572 83.932 380.7 84.404H380.556L380.688 82.976H381.624C381.6 83.208 381.576 83.444 381.552 83.684C381.536 83.916 381.528 84.144 381.528 84.368V89H380.556V87.584H380.688C380.56 88.056 380.296 88.428 379.896 88.7C379.496 88.972 379.032 89.108 378.504 89.108ZM378.696 88.316C379.272 88.316 379.728 88.12 380.064 87.728C380.4 87.328 380.568 86.748 380.568 85.988C380.568 85.22 380.4 84.64 380.064 84.248C379.728 83.848 379.272 83.648 378.696 83.648C378.128 83.648 377.672 83.848 377.328 84.248C376.992 84.64 376.824 85.22 376.824 85.988C376.824 86.748 376.992 87.328 377.328 87.728C377.672 88.12 378.128 88.316 378.696 88.316ZM388.828 89.108C388.292 89.108 387.824 88.984 387.424 88.736C387.024 88.48 386.712 88.12 386.488 87.656C386.272 87.192 386.164 86.636 386.164 85.988C386.164 85.332 386.272 84.772 386.488 84.308C386.712 83.844 387.024 83.488 387.424 83.24C387.824 82.992 388.292 82.868 388.828 82.868C389.372 82.868 389.84 83.008 390.232 83.288C390.632 83.56 390.896 83.932 391.024 84.404H390.88L391.012 82.976H391.948C391.924 83.208 391.9 83.444 391.876 83.684C391.86 83.916 391.852 84.144 391.852 84.368V89H390.88V87.584H391.012C390.884 88.056 390.62 88.428 390.22 88.7C389.82 88.972 389.356 89.108 388.828 89.108ZM389.02 88.316C389.596 88.316 390.052 88.12 390.388 87.728C390.724 87.328 390.892 86.748 390.892 85.988C390.892 85.22 390.724 84.64 390.388 84.248C390.052 83.848 389.596 83.648 389.02 83.648C388.452 83.648 387.996 83.848 387.652 84.248C387.316 84.64 387.148 85.22 387.148 85.988C387.148 86.748 387.316 87.328 387.652 87.728C387.996 88.12 388.452 88.316 389.02 88.316ZM393.731 89V84.368C393.731 84.144 393.719 83.916 393.695 83.684C393.679 83.444 393.659 83.208 393.635 82.976H394.571L394.691 84.296H394.547C394.723 83.832 395.003 83.48 395.387 83.24C395.779 82.992 396.231 82.868 396.743 82.868C397.455 82.868 397.991 83.06 398.351 83.444C398.719 83.82 398.903 84.416 398.903 85.232V89H397.931V85.292C397.931 84.724 397.815 84.312 397.583 84.056C397.359 83.792 397.007 83.66 396.527 83.66C395.967 83.66 395.523 83.832 395.195 84.176C394.867 84.52 394.703 84.98 394.703 85.556V89H393.731ZM403.042 89.108C402.514 89.108 402.05 88.984 401.65 88.736C401.25 88.48 400.938 88.12 400.714 87.656C400.498 87.192 400.39 86.636 400.39 85.988C400.39 85.332 400.498 84.772 400.714 84.308C400.938 83.844 401.25 83.488 401.65 83.24C402.05 82.992 402.514 82.868 403.042 82.868C403.586 82.868 404.054 83.004 404.446 83.276C404.846 83.548 405.114 83.916 405.25 84.38H405.106V80.168H406.078V89H405.118V87.56H405.25C405.122 88.04 404.858 88.42 404.458 88.7C404.058 88.972 403.586 89.108 403.042 89.108ZM403.246 88.316C403.814 88.316 404.27 88.12 404.614 87.728C404.958 87.328 405.13 86.748 405.13 85.988C405.13 85.22 404.958 84.64 404.614 84.248C404.27 83.848 403.814 83.648 403.246 83.648C402.678 83.648 402.222 83.848 401.878 84.248C401.542 84.64 401.374 85.22 401.374 85.988C401.374 86.748 401.542 87.328 401.878 87.728C402.222 88.12 402.678 88.316 403.246 88.316ZM348.906 106.64C348.794 106.64 348.654 106.624 348.486 106.592C348.318 106.568 348.178 106.536 348.066 106.496V105.68C348.162 105.712 348.274 105.74 348.402 105.764C348.53 105.796 348.65 105.812 348.762 105.812C349.098 105.812 349.346 105.704 349.506 105.488C349.674 105.28 349.758 104.936 349.758 104.456V97.976H350.73V104.552C350.73 105.24 350.578 105.76 350.274 106.112C349.978 106.464 349.522 106.64 348.906 106.64ZM349.65 96.608V95.516H350.838V96.608H349.65ZM354.681 104.108C353.969 104.108 353.429 103.912 353.061 103.52C352.701 103.128 352.521 102.528 352.521 101.72V97.976H353.493V101.696C353.493 102.248 353.605 102.656 353.829 102.92C354.053 103.176 354.401 103.304 354.873 103.304C355.401 103.304 355.825 103.132 356.145 102.788C356.465 102.444 356.625 101.984 356.625 101.408V97.976H357.597V104H356.649V102.644H356.805C356.637 103.108 356.365 103.468 355.989 103.724C355.621 103.98 355.185 104.108 354.681 104.108ZM361.763 104.108C361.235 104.108 360.771 103.984 360.371 103.736C359.971 103.48 359.659 103.12 359.435 102.656C359.219 102.192 359.111 101.636 359.111 100.988C359.111 100.332 359.219 99.772 359.435 99.308C359.659 98.844 359.971 98.488 360.371 98.24C360.771 97.992 361.235 97.868 361.763 97.868C362.307 97.868 362.775 98.004 363.167 98.276C363.567 98.548 363.835 98.916 363.971 99.38H363.827V95.168H364.799V104H363.839V102.56H363.971C363.843 103.04 363.579 103.42 363.179 103.7C362.779 103.972 362.307 104.108 361.763 104.108ZM361.967 103.316C362.535 103.316 362.991 103.12 363.335 102.728C363.679 102.328 363.851 101.748 363.851 100.988C363.851 100.22 363.679 99.64 363.335 99.248C362.991 98.848 362.535 98.648 361.967 98.648C361.399 98.648 360.943 98.848 360.599 99.248C360.263 99.64 360.095 100.22 360.095 100.988C360.095 101.748 360.263 102.328 360.599 102.728C360.943 103.12 361.399 103.316 361.967 103.316ZM369.33 106.676C368.81 106.676 368.33 106.612 367.89 106.484C367.45 106.356 367.054 106.16 366.702 105.896L366.99 105.164C367.238 105.34 367.482 105.48 367.722 105.584C367.962 105.688 368.21 105.764 368.466 105.812C368.722 105.868 368.994 105.896 369.282 105.896C369.874 105.896 370.322 105.74 370.626 105.428C370.93 105.116 371.082 104.672 371.082 104.096V102.332H371.202C371.074 102.804 370.81 103.18 370.41 103.46C370.01 103.732 369.542 103.868 369.006 103.868C368.454 103.868 367.974 103.748 367.566 103.508C367.166 103.26 366.854 102.912 366.63 102.464C366.414 102.008 366.306 101.472 366.306 100.856C366.306 100.248 366.414 99.72 366.63 99.272C366.854 98.824 367.166 98.48 367.566 98.24C367.974 97.992 368.454 97.868 369.006 97.868C369.55 97.868 370.018 98.004 370.41 98.276C370.81 98.548 371.074 98.924 371.202 99.404L371.082 99.284L371.19 97.976H372.138C372.106 98.208 372.082 98.444 372.066 98.684C372.05 98.916 372.042 99.144 372.042 99.368V103.964C372.042 104.86 371.81 105.536 371.346 105.992C370.89 106.448 370.218 106.676 369.33 106.676ZM369.186 103.076C369.77 103.076 370.23 102.884 370.566 102.5C370.902 102.108 371.07 101.56 371.07 100.856C371.07 100.152 370.902 99.608 370.566 99.224C370.23 98.84 369.77 98.648 369.186 98.648C368.61 98.648 368.15 98.84 367.806 99.224C367.462 99.608 367.29 100.152 367.29 100.856C367.29 101.56 367.462 102.108 367.806 102.5C368.15 102.884 368.61 103.076 369.186 103.076ZM373.909 104V99.368C373.909 99.144 373.897 98.916 373.873 98.684C373.857 98.444 373.837 98.208 373.813 97.976H374.749L374.869 99.296H374.725C374.885 98.84 375.137 98.488 375.481 98.24C375.833 97.992 376.257 97.868 376.753 97.868C377.257 97.868 377.665 97.988 377.977 98.228C378.297 98.468 378.513 98.84 378.625 99.344H378.445C378.597 98.888 378.865 98.528 379.249 98.264C379.633 98 380.081 97.868 380.593 97.868C381.257 97.868 381.757 98.06 382.093 98.444C382.429 98.82 382.597 99.416 382.597 100.232V104H381.625V100.292C381.625 99.724 381.525 99.312 381.325 99.056C381.125 98.792 380.805 98.66 380.365 98.66C379.861 98.66 379.461 98.836 379.165 99.188C378.877 99.532 378.733 99.996 378.733 100.58V104H377.761V100.292C377.761 99.724 377.661 99.312 377.461 99.056C377.261 98.792 376.941 98.66 376.501 98.66C375.997 98.66 375.601 98.836 375.313 99.188C375.025 99.532 374.881 99.996 374.881 100.58V104H373.909ZM387.12 104.108C386.176 104.108 385.432 103.836 384.888 103.292C384.344 102.74 384.072 101.976 384.072 101C384.072 100.368 384.192 99.82 384.432 99.356C384.672 98.884 385.008 98.52 385.44 98.264C385.872 98 386.368 97.868 386.928 97.868C387.48 97.868 387.944 97.984 388.32 98.216C388.696 98.448 388.984 98.78 389.184 99.212C389.384 99.636 389.484 100.14 389.484 100.724V101.084H384.816V100.472H388.848L388.644 100.628C388.644 99.988 388.5 99.488 388.212 99.128C387.924 98.768 387.496 98.588 386.928 98.588C386.328 98.588 385.86 98.8 385.524 99.224C385.188 99.64 385.02 100.204 385.02 100.916V101.024C385.02 101.776 385.204 102.348 385.572 102.74C385.948 103.124 386.472 103.316 387.144 103.316C387.504 103.316 387.84 103.264 388.152 103.16C388.472 103.048 388.776 102.868 389.064 102.62L389.4 103.304C389.136 103.56 388.8 103.76 388.392 103.904C387.992 104.04 387.568 104.108 387.12 104.108ZM390.971 104V99.368C390.971 99.144 390.959 98.916 390.935 98.684C390.919 98.444 390.899 98.208 390.875 97.976H391.811L391.931 99.296H391.787C391.963 98.832 392.243 98.48 392.627 98.24C393.019 97.992 393.471 97.868 393.983 97.868C394.695 97.868 395.231 98.06 395.591 98.444C395.959 98.82 396.143 99.416 396.143 100.232V104H395.171V100.292C395.171 99.724 395.055 99.312 394.823 99.056C394.599 98.792 394.247 98.66 393.767 98.66C393.207 98.66 392.763 98.832 392.435 99.176C392.107 99.52 391.943 99.98 391.943 100.556V104H390.971ZM400.139 104.108C399.547 104.108 399.095 103.94 398.783 103.604C398.471 103.26 398.315 102.744 398.315 102.056V98.732H397.139V97.976H398.315V96.332L399.287 96.056V97.976H401.015V98.732H399.287V101.948C399.287 102.428 399.367 102.772 399.527 102.98C399.695 103.18 399.943 103.28 400.271 103.28C400.423 103.28 400.559 103.268 400.679 103.244C400.799 103.212 400.907 103.176 401.003 103.136V103.952C400.891 104 400.755 104.036 400.595 104.06C400.443 104.092 400.291 104.108 400.139 104.108Z" class="w7"/>
<path d="M75.9758 292L79.7078 283.54H80.5718L84.3638 292H83.3318L82.2758 289.588L82.7198 289.84H77.5478L78.0278 289.588L76.9958 292H75.9758ZM80.1278 284.68L78.1838 289.24L77.8958 289.024H82.3598L82.1438 289.24L80.1518 284.68H80.1278ZM88.0054 292.108C87.4134 292.108 86.8974 291.98 86.4574 291.724C86.0254 291.468 85.6894 291.104 85.4494 290.632C85.2174 290.16 85.1014 289.6 85.1014 288.952C85.1014 288.296 85.2214 287.74 85.4614 287.284C85.7014 286.82 86.0374 286.468 86.4694 286.228C86.9094 285.988 87.4214 285.868 88.0054 285.868C88.3894 285.868 88.7614 285.936 89.1214 286.072C89.4894 286.208 89.7934 286.4 90.0334 286.648L89.6854 287.344C89.4454 287.112 89.1814 286.94 88.8934 286.828C88.6134 286.716 88.3374 286.66 88.0654 286.66C87.4414 286.66 86.9574 286.856 86.6134 287.248C86.2694 287.64 86.0974 288.212 86.0974 288.964C86.0974 289.708 86.2694 290.284 86.6134 290.692C86.9574 291.1 87.4414 291.304 88.0654 291.304C88.3294 291.304 88.6014 291.252 88.8814 291.148C89.1694 291.044 89.4374 290.872 89.6854 290.632L90.0334 291.316C89.7854 291.572 89.4774 291.768 89.1094 291.904C88.7414 292.04 88.3734 292.108 88.0054 292.108ZM93.8296 292.108C93.2376 292.108 92.7216 291.98 92.2816 291.724C91.8496 291.468 91.5136 291.104 91.2736 290.632C91.0416 290.16 90.9256 289.6 90.9256 288.952C90.9256 288.296 91.0456 287.74 91.2856 287.284C91.5256 286.82 91.8616 286.468 92.2936 286.228C92.7336 285.988 93.2456 285.868 93.8296 285.868C94.2136 285.868 94.5856 285.936 94.9456 286.072C95.3136 286.208 95.6176 286.4 95.8576 286.648L95.5096 287.344C95.2696 287.112 95.0056 286.94 94.7176 286.828C94.4376 286.716 94.1616 286.66 93.8896 286.66C93.2656 286.66 92.7816 286.856 92.4376 287.248C92.0936 287.64 91.9216 288.212 91.9216 288.964C91.9216 289.708 92.0936 290.284 92.4376 290.692C92.7816 291.1 93.2656 291.304 93.8896 291.304C94.1536 291.304 94.4256 291.252 94.7056 291.148C94.9936 291.044 95.2616 290.872 95.5096 290.632L95.8576 291.316C95.6096 291.572 95.3016 291.768 94.9336 291.904C94.5656 292.04 94.1976 292.108 93.8296 292.108ZM99.5938 292.108C99.0178 292.108 98.5138 291.984 98.0818 291.736C97.6578 291.48 97.3298 291.12 97.0978 290.656C96.8658 290.184 96.7498 289.628 96.7498 288.988C96.7498 288.34 96.8658 287.784 97.0978 287.32C97.3298 286.856 97.6578 286.5 98.0818 286.252C98.5138 285.996 99.0178 285.868 99.5938 285.868C100.178 285.868 100.682 285.996 101.106 286.252C101.538 286.5 101.87 286.856 102.102 287.32C102.342 287.784 102.462 288.34 102.462 288.988C102.462 289.628 102.342 290.184 102.102 290.656C101.87 291.12 101.538 291.48 101.106 291.736C100.682 291.984 100.178 292.108 99.5938 292.108ZM99.5938 291.316C100.17 291.316 100.626 291.12 100.962 290.728C101.298 290.328 101.466 289.748 101.466 288.988C101.466 288.22 101.294 287.64 100.95 287.248C100.614 286.848 100.162 286.648 99.5938 286.648C99.0258 286.648 98.5738 286.848 98.2378 287.248C97.9018 287.64 97.7338 288.22 97.7338 288.988C97.7338 289.748 97.9018 290.328 98.2378 290.728C98.5738 291.12 99.0258 291.316 99.5938 291.316ZM103.977 292V287.368C103.977 287.144 103.965 286.916 103.941 286.684C103.925 286.444 103.905 286.208 103.881 285.976H104.817L104.937 287.296H104.793C104.953 286.84 105.205 286.488 105.549 286.24C105.901 285.992 106.325 285.868 106.821 285.868C107.325 285.868 107.733 285.988 108.045 286.228C108.365 286.468 108.581 286.84 108.693 287.344H108.513C108.665 286.888 108.933 286.528 109.317 286.264C109.701 286 110.149 285.868 110.661 285.868C111.325 285.868 111.825 286.06 112.161 286.444C112.497 286.82 112.665 287.416 112.665 288.232V292H111.693V288.292C111.693 287.724 111.593 287.312 111.393 287.056C111.193 286.792 110.873 286.66 110.433 286.66C109.929 286.66 109.529 286.836 109.233 287.188C108.945 287.532 108.801 287.996 108.801 288.58V292H107.829V288.292C107.829 287.724 107.729 287.312 107.529 287.056C107.329 286.792 107.009 286.66 106.569 286.66C106.065 286.66 105.669 286.836 105.381 287.188C105.093 287.532 104.949 287.996 104.949 288.58V292H103.977ZM114.512 292V287.368C114.512 287.144 114.5 286.916 114.476 286.684C114.46 286.444 114.44 286.208 114.416 285.976H115.352L115.472 287.296H115.328C115.488 286.84 115.74 286.488 116.084 286.24C116.436 285.992 116.86 285.868 117.356 285.868C117.86 285.868 118.268 285.988 118.58 286.228C118.9 286.468 119.116 286.84 119.228 287.344H119.048C119.2 286.888 119.468 286.528 119.852 286.264C120.236 286 120.684 285.868 121.196 285.868C121.86 285.868 122.36 286.06 122.696 286.444C123.032 286.82 123.2 287.416 123.2 288.232V292H122.228V288.292C122.228 287.724 122.128 287.312 121.928 287.056C121.728 286.792 121.408 286.66 120.968 286.66C120.464 286.66 120.064 286.836 119.768 287.188C119.48 287.532 119.336 287.996 119.336 288.58V292H118.364V288.292C118.364 287.724 118.264 287.312 118.064 287.056C117.864 286.792 117.544 286.66 117.104 286.66C116.6 286.66 116.204 286.836 115.916 287.188C115.628 287.532 115.484 287.996 115.484 288.58V292H114.512ZM127.52 292.108C126.944 292.108 126.44 291.984 126.008 291.736C125.584 291.48 125.256 291.12 125.024 290.656C124.792 290.184 124.676 289.628 124.676 288.988C124.676 288.34 124.792 287.784 125.024 287.32C125.256 286.856 125.584 286.5 126.008 286.252C126.44 285.996 126.944 285.868 127.52 285.868C128.104 285.868 128.608 285.996 129.032 286.252C129.464 286.5 129.796 286.856 130.028 287.32C130.268 287.784 130.388 288.34 130.388 288.988C130.388 289.628 130.268 290.184 130.028 290.656C129.796 291.12 129.464 291.48 129.032 291.736C128.608 291.984 128.104 292.108 127.52 292.108ZM127.52 291.316C128.096 291.316 128.552 291.12 128.888 290.728C129.224 290.328 129.392 289.748 129.392 288.988C129.392 288.22 129.22 287.64 128.876 287.248C128.54 286.848 128.088 286.648 127.52 286.648C126.952 286.648 126.5 286.848 126.164 287.248C125.828 287.64 125.66 288.22 125.66 288.988C125.66 289.748 125.828 290.328 126.164 290.728C126.5 291.12 126.952 291.316 127.52 291.316ZM134.183 292.108C133.655 292.108 133.191 291.984 132.791 291.736C132.391 291.48 132.079 291.12 131.855 290.656C131.639 290.192 131.531 289.636 131.531 288.988C131.531 288.332 131.639 287.772 131.855 287.308C132.079 286.844 132.391 286.488 132.791 286.24C133.191 285.992 133.655 285.868 134.183 285.868C134.727 285.868 135.195 286.004 135.587 286.276C135.987 286.548 136.255 286.916 136.391 287.38H136.247V283.168H137.219V292H136.259V290.56H136.391C136.263 291.04 135.999 291.42 135.599 291.7C135.199 291.972 134.727 292.108 134.183 292.108ZM134.387 291.316C134.955 291.316 135.411 291.12 135.755 290.728C136.099 290.328 136.271 289.748 136.271 288.988C136.271 288.22 136.099 287.64 135.755 287.248C135.411 286.848 134.955 286.648 134.387 286.648C133.819 286.648 133.363 286.848 133.019 287.248C132.683 287.64 132.515 288.22 132.515 288.988C132.515 289.748 132.683 290.328 133.019 290.728C133.363 291.12 133.819 291.316 134.387 291.316ZM141.39 292.108C140.854 292.108 140.386 291.984 139.986 291.736C139.586 291.48 139.274 291.12 139.05 290.656C138.834 290.192 138.726 289.636 138.726 288.988C138.726 288.332 138.834 287.772 139.05 287.308C139.274 286.844 139.586 286.488 139.986 286.24C140.386 285.992 140.854 285.868 141.39 285.868C141.934 285.868 142.402 286.008 142.794 286.288C143.194 286.56 143.458 286.932 143.586 287.404H143.442L143.574 285.976H144.51C144.486 286.208 144.462 286.444 144.438 286.684C144.422 286.916 144.414 287.144 144.414 287.368V292H143.442V290.584H143.574C143.446 291.056 143.182 291.428 142.782 291.7C142.382 291.972 141.918 292.108 141.39 292.108ZM141.582 291.316C142.158 291.316 142.614 291.12 142.95 290.728C143.286 290.328 143.454 289.748 143.454 288.988C143.454 288.22 143.286 287.64 142.95 287.248C142.614 286.848 142.158 286.648 141.582 286.648C141.014 286.648 140.558 286.848 140.214 287.248C139.878 287.64 139.71 288.22 139.71 288.988C139.71 289.748 139.878 290.328 140.214 290.728C140.558 291.12 141.014 291.316 141.582 291.316ZM148.43 292.108C147.838 292.108 147.386 291.94 147.074 291.604C146.762 291.26 146.606 290.744 146.606 290.056V286.732H145.43V285.976H146.606V284.332L147.578 284.056V285.976H149.306V286.732H147.578V289.948C147.578 290.428 147.658 290.772 147.818 290.98C147.986 291.18 148.234 291.28 148.562 291.28C148.714 291.28 148.85 291.268 148.97 291.244C149.09 291.212 149.198 291.176 149.294 291.136V291.952C149.182 292 149.046 292.036 148.886 292.06C148.734 292.092 148.582 292.108 148.43 292.108ZM150.489 292V285.976H151.461V292H150.489ZM150.369 284.608V283.516H151.569V284.608H150.369ZM155.82 292.108C155.244 292.108 154.74 291.984 154.308 291.736C153.884 291.48 153.556 291.12 153.324 290.656C153.092 290.184 152.976 289.628 152.976 288.988C152.976 288.34 153.092 287.784 153.324 287.32C153.556 286.856 153.884 286.5 154.308 286.252C154.74 285.996 155.244 285.868 155.82 285.868C156.404 285.868 156.908 285.996 157.332 286.252C157.764 286.5 158.096 286.856 158.328 287.32C158.568 287.784 158.688 288.34 158.688 288.988C158.688 289.628 158.568 290.184 158.328 290.656C158.096 291.12 157.764 291.48 157.332 291.736C156.908 291.984 156.404 292.108 155.82 292.108ZM155.82 291.316C156.396 291.316 156.852 291.12 157.188 290.728C157.524 290.328 157.692 289.748 157.692 288.988C157.692 288.22 157.52 287.64 157.176 287.248C156.84 286.848 156.388 286.648 155.82 286.648C155.252 286.648 154.8 286.848 154.464 287.248C154.128 287.64 153.96 288.22 153.96 288.988C153.96 289.748 154.128 290.328 154.464 290.728C154.8 291.12 155.252 291.316 155.82 291.316ZM160.204 292V287.368C160.204 287.144 160.192 286.916 160.168 286.684C160.152 286.444 160.132 286.208 160.108 285.976H161.044L161.164 287.296H161.02C161.196 286.832 161.476 286.48 161.86 286.24C162.252 285.992 162.704 285.868 163.216 285.868C163.928 285.868 164.464 286.06 164.824 286.444C165.192 286.82 165.376 287.416 165.376 288.232V292H164.404V288.292C164.404 287.724 164.288 287.312 164.056 287.056C163.832 286.792 163.48 286.66 163 286.66C162.44 286.66 161.996 286.832 161.668 287.176C161.34 287.52 161.176 287.98 161.176 288.556V292H160.204ZM169.239 292.108C168.759 292.108 168.311 292.044 167.895 291.916C167.479 291.78 167.135 291.592 166.863 291.352L167.199 290.668C167.495 290.9 167.815 291.072 168.159 291.184C168.511 291.296 168.875 291.352 169.251 291.352C169.731 291.352 170.091 291.268 170.331 291.1C170.579 290.924 170.703 290.684 170.703 290.38C170.703 290.148 170.623 289.964 170.463 289.828C170.311 289.684 170.059 289.572 169.707 289.492L168.591 289.264C168.079 289.152 167.695 288.964 167.439 288.7C167.183 288.428 167.055 288.084 167.055 287.668C167.055 287.316 167.147 287.008 167.331 286.744C167.515 286.472 167.783 286.26 168.135 286.108C168.487 285.948 168.899 285.868 169.371 285.868C169.811 285.868 170.215 285.936 170.583 286.072C170.959 286.2 171.271 286.388 171.519 286.636L171.171 287.308C170.931 287.076 170.655 286.904 170.343 286.792C170.039 286.672 169.723 286.612 169.395 286.612C168.923 286.612 168.567 286.708 168.327 286.9C168.095 287.084 167.979 287.328 167.979 287.632C167.979 287.864 168.051 288.056 168.195 288.208C168.347 288.352 168.579 288.46 168.891 288.532L170.007 288.76C170.551 288.88 170.955 289.068 171.219 289.324C171.491 289.572 171.627 289.908 171.627 290.332C171.627 290.692 171.527 291.008 171.327 291.28C171.127 291.544 170.847 291.748 170.487 291.892C170.135 292.036 169.719 292.108 169.239 292.108ZM106.111 307.108C105.575 307.108 105.107 306.984 104.707 306.736C104.307 306.48 103.995 306.12 103.771 305.656C103.555 305.192 103.447 304.636 103.447 303.988C103.447 303.332 103.555 302.772 103.771 302.308C103.995 301.844 104.307 301.488 104.707 301.24C105.107 300.992 105.575 300.868 106.111 300.868C106.655 300.868 107.123 301.008 107.515 301.288C107.915 301.56 108.179 301.932 108.307 302.404H108.163L108.295 300.976H109.231C109.207 301.208 109.183 301.444 109.159 301.684C109.143 301.916 109.135 302.144 109.135 302.368V307H108.163V305.584H108.295C108.167 306.056 107.903 306.428 107.503 306.7C107.103 306.972 106.639 307.108 106.111 307.108ZM106.303 306.316C106.879 306.316 107.335 306.12 107.671 305.728C108.007 305.328 108.175 304.748 108.175 303.988C108.175 303.22 108.007 302.64 107.671 302.248C107.335 301.848 106.879 301.648 106.303 301.648C105.735 301.648 105.279 301.848 104.935 302.248C104.599 302.64 104.431 303.22 104.431 303.988C104.431 304.748 104.599 305.328 104.935 305.728C105.279 306.12 105.735 306.316 106.303 306.316ZM113.15 307.108C112.558 307.108 112.106 306.94 111.794 306.604C111.482 306.26 111.326 305.744 111.326 305.056V301.732H110.15V300.976H111.326V299.332L112.298 299.056V300.976H114.026V301.732H112.298V304.948C112.298 305.428 112.378 305.772 112.538 305.98C112.706 306.18 112.954 306.28 113.282 306.28C113.434 306.28 113.57 306.268 113.69 306.244C113.81 306.212 113.918 306.176 114.014 306.136V306.952C113.902 307 113.766 307.036 113.606 307.06C113.454 307.092 113.302 307.108 113.15 307.108ZM119.947 307L117.715 300.976H118.747L120.607 306.28H120.295L122.215 300.976H123.055L124.939 306.28H124.639L126.511 300.976H127.495L125.251 307H124.315L122.371 301.612H122.851L120.895 307H119.947ZM131.158 307.108C130.582 307.108 130.078 306.984 129.646 306.736C129.222 306.48 128.894 306.12 128.662 305.656C128.43 305.184 128.314 304.628 128.314 303.988C128.314 303.34 128.43 302.784 128.662 302.32C128.894 301.856 129.222 301.5 129.646 301.252C130.078 300.996 130.582 300.868 131.158 300.868C131.742 300.868 132.246 300.996 132.67 301.252C133.102 301.5 133.434 301.856 133.666 302.32C133.906 302.784 134.026 303.34 134.026 303.988C134.026 304.628 133.906 305.184 133.666 305.656C133.434 306.12 133.102 306.48 132.67 306.736C132.246 306.984 131.742 307.108 131.158 307.108ZM131.158 306.316C131.734 306.316 132.19 306.12 132.526 305.728C132.862 305.328 133.03 304.748 133.03 303.988C133.03 303.22 132.858 302.64 132.514 302.248C132.178 301.848 131.726 301.648 131.158 301.648C130.59 301.648 130.138 301.848 129.802 302.248C129.466 302.64 129.298 303.22 129.298 303.988C129.298 304.748 129.466 305.328 129.802 305.728C130.138 306.12 130.59 306.316 131.158 306.316ZM135.518 307V302.428C135.518 302.188 135.51 301.944 135.494 301.696C135.486 301.448 135.47 301.208 135.446 300.976H136.382L136.502 302.44L136.334 302.452C136.414 302.092 136.554 301.796 136.754 301.564C136.954 301.332 137.19 301.16 137.462 301.048C137.734 300.928 138.018 300.868 138.314 300.868C138.434 300.868 138.538 300.872 138.626 300.88C138.722 300.888 138.81 300.908 138.89 300.94L138.878 301.804C138.758 301.764 138.646 301.74 138.542 301.732C138.446 301.716 138.334 301.708 138.206 301.708C137.854 301.708 137.546 301.792 137.282 301.96C137.026 302.128 136.83 302.344 136.694 302.608C136.566 302.872 136.502 303.152 136.502 303.448V307H135.518ZM139.901 307V298.168H140.873V303.652H140.897L143.693 300.976H144.917L141.617 304.12L141.641 303.628L145.229 307H143.969L140.897 304.168H140.873V307H139.901Z" class="w7"/>
<path d="M3.78067 190.108C2.63667 190.108 1.78467 189.816 1.22467 189.232C0.672672 188.648 0.396672 187.788 0.396672 186.652L0.396672 181.54H1.38067V186.604C1.38067 187.476 1.57267 188.132 1.95667 188.572C2.34067 189.012 2.94867 189.232 3.78067 189.232C4.56467 189.232 5.16067 189.012 5.56867 188.572C5.97667 188.132 6.18067 187.476 6.18067 186.604V181.54H7.16467V186.652C7.16467 187.788 6.87667 188.648 6.30067 189.232C5.73267 189.816 4.89267 190.108 3.78067 190.108ZM9.1023 190V185.368C9.1023 185.144 9.0903 184.916 9.0663 184.684C9.0503 184.444 9.0303 184.208 9.0063 183.976H9.9423L10.0623 185.296H9.9183C10.0943 184.832 10.3743 184.48 10.7583 184.24C11.1503 183.992 11.6023 183.868 12.1143 183.868C12.8263 183.868 13.3623 184.06 13.7223 184.444C14.0903 184.82 14.2743 185.416 14.2743 186.232V190H13.3023V186.292C13.3023 185.724 13.1863 185.312 12.9543 185.056C12.7303 184.792 12.3783 184.66 11.8983 184.66C11.3383 184.66 10.8943 184.832 10.5663 185.176C10.2383 185.52 10.0743 185.98 10.0743 186.556V190H9.1023ZM18.8095 190.108C17.8655 190.108 17.1215 189.836 16.5775 189.292C16.0335 188.74 15.7615 187.976 15.7615 187C15.7615 186.368 15.8815 185.82 16.1215 185.356C16.3615 184.884 16.6975 184.52 17.1295 184.264C17.5615 184 18.0575 183.868 18.6175 183.868C19.1695 183.868 19.6335 183.984 20.0095 184.216C20.3855 184.448 20.6735 184.78 20.8735 185.212C21.0735 185.636 21.1735 186.14 21.1735 186.724V187.084H16.5055V186.472H20.5375L20.3335 186.628C20.3335 185.988 20.1895 185.488 19.9015 185.128C19.6135 184.768 19.1855 184.588 18.6175 184.588C18.0175 184.588 17.5495 184.8 17.2135 185.224C16.8775 185.64 16.7095 186.204 16.7095 186.916V187.024C16.7095 187.776 16.8935 188.348 17.2615 188.74C17.6375 189.124 18.1615 189.316 18.8335 189.316C19.1935 189.316 19.5295 189.264 19.8415 189.16C20.1615 189.048 20.4655 188.868 20.7535 188.62L21.0895 189.304C20.8255 189.56 20.4895 189.76 20.0815 189.904C19.6815 190.04 19.2575 190.108 18.8095 190.108ZM21.798 190L24.498 186.652V187.132L21.942 183.976H23.118L25.05 186.436H24.702L26.622 183.976H27.786L25.266 187.12V186.676L27.942 190H26.754L24.69 187.372H25.05L22.962 190H21.798ZM29.0359 192.592V185.368C29.0359 185.144 29.0239 184.916 28.9999 184.684C28.9839 184.444 28.9639 184.208 28.9399 183.976H29.8759L30.0079 185.404H29.8639C29.9919 184.932 30.2519 184.56 30.6439 184.288C31.0359 184.008 31.5039 183.868 32.0479 183.868C32.5919 183.868 33.0599 183.992 33.4519 184.24C33.8519 184.488 34.1639 184.844 34.3879 185.308C34.6119 185.772 34.7239 186.332 34.7239 186.988C34.7239 187.636 34.6119 188.192 34.3879 188.656C34.1719 189.12 33.8639 189.48 33.4639 189.736C33.0639 189.984 32.5919 190.108 32.0479 190.108C31.5119 190.108 31.0479 189.972 30.6559 189.7C30.2639 189.428 30.0039 189.056 29.8759 188.584H30.0079V192.592H29.0359ZM31.8559 189.316C32.4319 189.316 32.8879 189.12 33.2239 188.728C33.5679 188.328 33.7399 187.748 33.7399 186.988C33.7399 186.22 33.5679 185.64 33.2239 185.248C32.8879 184.848 32.4319 184.648 31.8559 184.648C31.2879 184.648 30.8319 184.848 30.4879 185.248C30.1519 185.64 29.9839 186.22 29.9839 186.988C29.9839 187.748 30.1519 188.328 30.4879 188.728C30.8319 189.12 31.2879 189.316 31.8559 189.316ZM38.9072 190.108C37.9632 190.108 37.2192 189.836 36.6752 189.292C36.1312 188.74 35.8592 187.976 35.8592 187C35.8592 186.368 35.9792 185.82 36.2192 185.356C36.4592 184.884 36.7952 184.52 37.2272 184.264C37.6592 184 38.1552 183.868 38.7152 183.868C39.2672 183.868 39.7312 183.984 40.1072 184.216C40.4832 184.448 40.7712 184.78 40.9712 185.212C41.1712 185.636 41.2712 186.14 41.2712 186.724V187.084H36.6032V186.472H40.6352L40.4312 186.628C40.4312 185.988 40.2872 185.488 39.9992 185.128C39.7112 184.768 39.2832 184.588 38.7152 184.588C38.1152 184.588 37.6472 184.8 37.3112 185.224C36.9752 185.64 36.8072 186.204 36.8072 186.916V187.024C36.8072 187.776 36.9912 188.348 37.3592 188.74C37.7352 189.124 38.2592 189.316 38.9312 189.316C39.2912 189.316 39.6272 189.264 39.9392 189.16C40.2592 189.048 40.5632 188.868 40.8512 188.62L41.1872 189.304C40.9232 189.56 40.5872 189.76 40.1792 189.904C39.7792 190.04 39.3552 190.108 38.9072 190.108ZM45.2905 190.108C44.6985 190.108 44.1825 189.98 43.7425 189.724C43.3105 189.468 42.9745 189.104 42.7345 188.632C42.5025 188.16 42.3865 187.6 42.3865 186.952C42.3865 186.296 42.5065 185.74 42.7465 185.284C42.9865 184.82 43.3225 184.468 43.7545 184.228C44.1945 183.988 44.7065 183.868 45.2905 183.868C45.6745 183.868 46.0465 183.936 46.4065 184.072C46.7745 184.208 47.0785 184.4 47.3185 184.648L46.9705 185.344C46.7305 185.112 46.4665 184.94 46.1785 184.828C45.8985 184.716 45.6225 184.66 45.3505 184.66C44.7265 184.66 44.2425 184.856 43.8985 185.248C43.5545 185.64 43.3825 186.212 43.3825 186.964C43.3825 187.708 43.5545 188.284 43.8985 188.692C44.2425 189.1 44.7265 189.304 45.3505 189.304C45.6145 189.304 45.8865 189.252 46.1665 189.148C46.4545 189.044 46.7225 188.872 46.9705 188.632L47.3185 189.316C47.0705 189.572 46.7625 189.768 46.3945 189.904C46.0265 190.04 45.6585 190.108 45.2905 190.108ZM50.836 190.108C50.244 190.108 49.792 189.94 49.48 189.604C49.168 189.26 49.012 188.744 49.012 188.056V184.732H47.836V183.976H49.012V182.332L49.984 182.056V183.976H51.712V184.732H49.984V187.948C49.984 188.428 50.064 188.772 50.224 188.98C50.392 189.18 50.64 189.28 50.968 189.28C51.12 189.28 51.256 189.268 51.376 189.244C51.496 189.212 51.604 189.176 51.7 189.136V189.952C51.588 190 51.452 190.036 51.292 190.06C51.14 190.092 50.988 190.108 50.836 190.108ZM55.5127 190.108C54.5687 190.108 53.8247 189.836 53.2807 189.292C52.7367 188.74 52.4647 187.976 52.4647 187C52.4647 186.368 52.5847 185.82 52.8247 185.356C53.0647 184.884 53.4007 184.52 53.8327 184.264C54.2647 184 54.7607 183.868 55.3207 183.868C55.8727 183.868 56.3367 183.984 56.7127 184.216C57.0887 184.448 57.3767 184.78 57.5767 185.212C57.7767 185.636 57.8767 186.14 57.8767 186.724V187.084H53.2087V186.472H57.2407L57.0367 186.628C57.0367 185.988 56.8927 185.488 56.6047 185.128C56.3167 184.768 55.8887 184.588 55.3207 184.588C54.7207 184.588 54.2527 184.8 53.9167 185.224C53.5807 185.64 53.4127 186.204 53.4127 186.916V187.024C53.4127 187.776 53.5967 188.348 53.9647 188.74C54.3407 189.124 54.8647 189.316 55.5367 189.316C55.8967 189.316 56.2327 189.264 56.5447 189.16C56.8647 189.048 57.1687 188.868 57.4567 188.62L57.7927 189.304C57.5287 189.56 57.1927 189.76 56.7847 189.904C56.3847 190.04 55.9607 190.108 55.5127 190.108ZM61.644 190.108C61.116 190.108 60.652 189.984 60.252 189.736C59.852 189.48 59.54 189.12 59.316 188.656C59.1 188.192 58.992 187.636 58.992 186.988C58.992 186.332 59.1 185.772 59.316 185.308C59.54 184.844 59.852 184.488 60.252 184.24C60.652 183.992 61.116 183.868 61.644 183.868C62.188 183.868 62.656 184.004 63.048 184.276C63.448 184.548 63.716 184.916 63.852 185.38H63.708V181.168H64.68V190H63.72V188.56H63.852C63.724 189.04 63.46 189.42 63.06 189.7C62.66 189.972 62.188 190.108 61.644 190.108ZM61.848 189.316C62.416 189.316 62.872 189.12 63.216 188.728C63.56 188.328 63.732 187.748 63.732 186.988C63.732 186.22 63.56 185.64 63.216 185.248C62.872 184.848 62.416 184.648 61.848 184.648C61.28 184.648 60.824 184.848 60.48 185.248C60.144 185.64 59.976 186.22 59.976 186.988C59.976 187.748 60.144 188.328 60.48 188.728C60.824 189.12 61.28 189.316 61.848 189.316ZM17.8955 205.108C16.9515 205.108 16.2075 204.836 15.6635 204.292C15.1195 203.74 14.8475 202.976 14.8475 202C14.8475 201.368 14.9675 200.82 15.2075 200.356C15.4475 199.884 15.7835 199.52 16.2155 199.264C16.6475 199 17.1435 198.868 17.7035 198.868C18.2555 198.868 18.7195 198.984 19.0955 199.216C19.4715 199.448 19.7595 199.78 19.9595 200.212C20.1595 200.636 20.2595 201.14 20.2595 201.724V202.084H15.5915V201.472H19.6235L19.4195 201.628C19.4195 200.988 19.2755 200.488 18.9875 200.128C18.6995 199.768 18.2715 199.588 17.7035 199.588C17.1035 199.588 16.6355 199.8 16.2995 200.224C15.9635 200.64 15.7955 201.204 15.7955 201.916V202.024C15.7955 202.776 15.9795 203.348 16.3475 203.74C16.7235 204.124 17.2475 204.316 17.9195 204.316C18.2795 204.316 18.6155 204.264 18.9275 204.16C19.2475 204.048 19.5515 203.868 19.8395 203.62L20.1755 204.304C19.9115 204.56 19.5755 204.76 19.1675 204.904C18.7675 205.04 18.3435 205.108 17.8955 205.108ZM23.4525 205L20.8725 198.976H21.9285L24.0885 204.28H23.7645L25.9485 198.976H26.9565L24.3765 205H23.4525ZM30.6455 205.108C29.7015 205.108 28.9575 204.836 28.4135 204.292C27.8695 203.74 27.5975 202.976 27.5975 202C27.5975 201.368 27.7175 200.82 27.9575 200.356C28.1975 199.884 28.5335 199.52 28.9655 199.264C29.3975 199 29.8935 198.868 30.4535 198.868C31.0055 198.868 31.4695 198.984 31.8455 199.216C32.2215 199.448 32.5095 199.78 32.7095 200.212C32.9095 200.636 33.0095 201.14 33.0095 201.724V202.084H28.3415V201.472H32.3735L32.1695 201.628C32.1695 200.988 32.0255 200.488 31.7375 200.128C31.4495 199.768 31.0215 199.588 30.4535 199.588C29.8535 199.588 29.3855 199.8 29.0495 200.224C28.7135 200.64 28.5455 201.204 28.5455 201.916V202.024C28.5455 202.776 28.7295 203.348 29.0975 203.74C29.4735 204.124 29.9975 204.316 30.6695 204.316C31.0295 204.316 31.3655 204.264 31.6775 204.16C31.9975 204.048 32.3015 203.868 32.5895 203.62L32.9255 204.304C32.6615 204.56 32.3255 204.76 31.9175 204.904C31.5175 205.04 31.0935 205.108 30.6455 205.108ZM34.4968 205V200.368C34.4968 200.144 34.4848 199.916 34.4608 199.684C34.4448 199.444 34.4248 199.208 34.4008 198.976H35.3368L35.4568 200.296H35.3128C35.4888 199.832 35.7688 199.48 36.1528 199.24C36.5448 198.992 36.9968 198.868 37.5088 198.868C38.2208 198.868 38.7568 199.06 39.1168 199.444C39.4848 199.82 39.6688 200.416 39.6688 201.232V205H38.6968V201.292C38.6968 200.724 38.5808 200.312 38.3488 200.056C38.1248 199.792 37.7728 199.66 37.2928 199.66C36.7328 199.66 36.2888 199.832 35.9608 200.176C35.6328 200.52 35.4688 200.98 35.4688 201.556V205H34.4968ZM43.6641 205.108C43.0721 205.108 42.6201 204.94 42.3081 204.604C41.9961 204.26 41.8401 203.744 41.8401 203.056V199.732H40.6641V198.976H41.8401V197.332L42.8121 197.056V198.976H44.5401V199.732H42.8121V202.948C42.8121 203.428 42.8921 203.772 43.0521 203.98C43.2201 204.18 43.4681 204.28 43.7961 204.28C43.9481 204.28 44.0841 204.268 44.2041 204.244C44.3241 204.212 44.4321 204.176 44.5281 204.136V204.952C44.4161 205 44.2801 205.036 44.1201 205.06C43.9681 205.092 43.8161 205.108 43.6641 205.108ZM47.7274 205.108C47.2474 205.108 46.7994 205.044 46.3834 204.916C45.9674 204.78 45.6234 204.592 45.3514 204.352L45.6874 203.668C45.9834 203.9 46.3034 204.072 46.6474 204.184C46.9994 204.296 47.3634 204.352 47.7394 204.352C48.2194 204.352 48.5794 204.268 48.8194 204.1C49.0674 203.924 49.1914 203.684 49.1914 203.38C49.1914 203.148 49.1114 202.964 48.9514 202.828C48.7994 202.684 48.5474 202.572 48.1954 202.492L47.0794 202.264C46.5674 202.152 46.1834 201.964 45.9274 201.7C45.6714 201.428 45.5434 201.084 45.5434 200.668C45.5434 200.316 45.6354 200.008 45.8194 199.744C46.0034 199.472 46.2714 199.26 46.6234 199.108C46.9754 198.948 47.3874 198.868 47.8594 198.868C48.2994 198.868 48.7034 198.936 49.0714 199.072C49.4474 199.2 49.7594 199.388 50.0074 199.636L49.6594 200.308C49.4194 200.076 49.1434 199.904 48.8314 199.792C48.5274 199.672 48.2114 199.612 47.8834 199.612C47.4114 199.612 47.0554 199.708 46.8154 199.9C46.5834 200.084 46.4674 200.328 46.4674 200.632C46.4674 200.864 46.5394 201.056 46.6834 201.208C46.8354 201.352 47.0674 201.46 47.3794 201.532L48.4954 201.76C49.0394 201.88 49.4434 202.068 49.7074 202.324C49.9794 202.572 50.1154 202.908 50.1154 203.332C50.1154 203.692 50.0154 204.008 49.8154 204.28C49.6154 204.544 49.3354 204.748 48.9754 204.892C48.6234 205.036 48.2074 205.108 47.7274 205.108Z" class="w7"/>
<path d="M263.825 15L260.837 6.54H262.445L264.749 13.476H264.269L266.753 6.54H267.905L270.209 13.476H269.765L272.177 6.54H273.689L270.677 15H269.393L267.161 8.496H267.425L265.109 15H263.825ZM274.806 15V6.168H276.306V10.152H276.138C276.322 9.72 276.606 9.392 276.99 9.168C277.374 8.936 277.814 8.82 278.31 8.82C279.03 8.82 279.566 9.024 279.918 9.432C280.27 9.832 280.446 10.444 280.446 11.268V15H278.946V11.34C278.946 10.868 278.854 10.528 278.67 10.32C278.494 10.104 278.21 9.996 277.818 9.996C277.362 9.996 276.994 10.14 276.714 10.428C276.442 10.708 276.306 11.084 276.306 11.556V15H274.806ZM284.965 15.12C283.949 15.12 283.153 14.84 282.577 14.28C282.001 13.72 281.713 12.952 281.713 11.976C281.713 11.344 281.837 10.792 282.085 10.32C282.333 9.848 282.677 9.48 283.117 9.216C283.565 8.952 284.085 8.82 284.677 8.82C285.261 8.82 285.749 8.944 286.141 9.192C286.533 9.44 286.829 9.788 287.029 10.236C287.237 10.684 287.341 11.208 287.341 11.808V12.204H282.925V11.412H286.273L286.069 11.58C286.069 11.02 285.949 10.592 285.709 10.296C285.477 10 285.137 9.852 284.689 9.852C284.193 9.852 283.809 10.028 283.537 10.38C283.273 10.732 283.141 11.224 283.141 11.856V12.012C283.141 12.668 283.301 13.16 283.621 13.488C283.949 13.808 284.409 13.968 285.001 13.968C285.345 13.968 285.665 13.924 285.961 13.836C286.265 13.74 286.553 13.588 286.825 13.38L287.269 14.388C286.981 14.62 286.637 14.8 286.237 14.928C285.837 15.056 285.413 15.12 284.965 15.12ZM288.599 15V10.488C288.599 10.232 288.591 9.972 288.575 9.708C288.567 9.444 288.547 9.188 288.515 8.94H289.967L290.135 10.596H289.895C289.975 10.196 290.107 9.864 290.291 9.6C290.483 9.336 290.715 9.14 290.987 9.012C291.259 8.884 291.555 8.82 291.875 8.82C292.019 8.82 292.135 8.828 292.223 8.844C292.311 8.852 292.399 8.872 292.487 8.904L292.475 10.224C292.323 10.16 292.191 10.12 292.079 10.104C291.975 10.088 291.843 10.08 291.683 10.08C291.339 10.08 291.047 10.152 290.807 10.296C290.575 10.44 290.399 10.64 290.279 10.896C290.167 11.152 290.111 11.444 290.111 11.772V15H288.599ZM296.156 15.12C295.14 15.12 294.344 14.84 293.768 14.28C293.192 13.72 292.904 12.952 292.904 11.976C292.904 11.344 293.028 10.792 293.276 10.32C293.524 9.848 293.868 9.48 294.308 9.216C294.756 8.952 295.276 8.82 295.868 8.82C296.452 8.82 296.94 8.944 297.332 9.192C297.724 9.44 298.02 9.788 298.22 10.236C298.428 10.684 298.532 11.208 298.532 11.808V12.204H294.116V11.412H297.464L297.26 11.58C297.26 11.02 297.14 10.592 296.9 10.296C296.668 10 296.328 9.852 295.88 9.852C295.384 9.852 295 10.028 294.728 10.38C294.464 10.732 294.332 11.224 294.332 11.856V12.012C294.332 12.668 294.492 13.16 294.812 13.488C295.14 13.808 295.6 13.968 296.192 13.968C296.536 13.968 296.856 13.924 297.152 13.836C297.456 13.74 297.744 13.588 298.016 13.38L298.46 14.388C298.172 14.62 297.828 14.8 297.428 14.928C297.028 15.056 296.604 15.12 296.156 15.12ZM302.975 17.724L302.627 16.536C303.003 16.456 303.319 16.364 303.575 16.26C303.831 16.156 304.043 16.02 304.211 15.852C304.379 15.684 304.519 15.468 304.631 15.204L304.931 14.496L304.895 15.084L302.255 8.94H303.851L305.747 13.668H305.399L307.307 8.94H308.819L306.059 15.336C305.875 15.768 305.675 16.124 305.459 16.404C305.243 16.692 305.011 16.92 304.763 17.088C304.515 17.264 304.243 17.4 303.947 17.496C303.651 17.592 303.327 17.668 302.975 17.724ZM312.23 15.12C311.606 15.12 311.066 14.992 310.61 14.736C310.154 14.48 309.798 14.116 309.542 13.644C309.294 13.172 309.17 12.612 309.17 11.964C309.17 11.316 309.294 10.76 309.542 10.296C309.798 9.824 310.154 9.46 310.61 9.204C311.066 8.948 311.606 8.82 312.23 8.82C312.854 8.82 313.394 8.948 313.85 9.204C314.314 9.46 314.67 9.824 314.918 10.296C315.174 10.76 315.302 11.316 315.302 11.964C315.302 12.612 315.174 13.172 314.918 13.644C314.67 14.116 314.314 14.48 313.85 14.736C313.394 14.992 312.854 15.12 312.23 15.12ZM312.23 13.968C312.702 13.968 313.078 13.804 313.358 13.476C313.638 13.14 313.778 12.636 313.778 11.964C313.778 11.292 313.638 10.792 313.358 10.464C313.078 10.136 312.702 9.972 312.23 9.972C311.758 9.972 311.382 10.136 311.102 10.464C310.822 10.792 310.682 11.292 310.682 11.964C310.682 12.636 310.822 13.14 311.102 13.476C311.382 13.804 311.758 13.968 312.23 13.968ZM318.779 15.12C318.035 15.12 317.479 14.916 317.111 14.508C316.743 14.1 316.559 13.476 316.559 12.636V8.94H318.059V12.624C318.059 13.072 318.151 13.404 318.335 13.62C318.519 13.828 318.799 13.932 319.175 13.932C319.599 13.932 319.943 13.788 320.207 13.5C320.479 13.212 320.615 12.832 320.615 12.36V8.94H322.115V15H320.651V13.764H320.819C320.643 14.196 320.375 14.532 320.015 14.772C319.663 15.004 319.251 15.12 318.779 15.12ZM327.037 15V6.168H328.537V15H327.037ZM330.166 15V8.94H331.666V15H330.166ZM330.082 7.8V6.336H331.75V7.8H330.082ZM335.071 15L332.455 8.94H334.051L335.947 13.68H335.575L337.519 8.94H339.019L336.391 15H335.071ZM342.633 15.12C341.617 15.12 340.821 14.84 340.245 14.28C339.669 13.72 339.381 12.952 339.381 11.976C339.381 11.344 339.505 10.792 339.753 10.32C340.001 9.848 340.345 9.48 340.785 9.216C341.233 8.952 341.753 8.82 342.345 8.82C342.929 8.82 343.417 8.944 343.809 9.192C344.201 9.44 344.497 9.788 344.697 10.236C344.905 10.684 345.009 11.208 345.009 11.808V12.204H340.593V11.412H343.941L343.737 11.58C343.737 11.02 343.617 10.592 343.377 10.296C343.145 10 342.805 9.852 342.357 9.852C341.861 9.852 341.477 10.028 341.205 10.38C340.941 10.732 340.809 11.224 340.809 11.856V12.012C340.809 12.668 340.969 13.16 341.289 13.488C341.617 13.808 342.077 13.968 342.669 13.968C343.013 13.968 343.333 13.924 343.629 13.836C343.933 13.74 344.221 13.588 344.493 13.38L344.937 14.388C344.649 14.62 344.305 14.8 343.905 14.928C343.505 15.056 343.081 15.12 342.633 15.12Z" class="w8"/>
<path d="M45.4603 15V6.54H46.4563V15H45.4603ZM48.4578 15V10.368C48.4578 10.144 48.4458 9.916 48.4218 9.684C48.4058 9.444 48.3858 9.208 48.3618 8.976H49.2978L49.4178 10.296H49.2738C49.4338 9.84 49.6858 9.488 50.0298 9.24C50.3818 8.992 50.8058 8.868 51.3018 8.868C51.8058 8.868 52.2138 8.988 52.5258 9.228C52.8458 9.468 53.0618 9.84 53.1738 10.344H52.9938C53.1458 9.888 53.4138 9.528 53.7978 9.264C54.1818 9 54.6298 8.868 55.1418 8.868C55.8058 8.868 56.3058 9.06 56.6418 9.444C56.9778 9.82 57.1458 10.416 57.1458 11.232V15H56.1738V11.292C56.1738 10.724 56.0738 10.312 55.8738 10.056C55.6738 9.792 55.3538 9.66 54.9138 9.66C54.4098 9.66 54.0098 9.836 53.7138 10.188C53.4258 10.532 53.2818 10.996 53.2818 11.58V15H52.3098V11.292C52.3098 10.724 52.2098 10.312 52.0098 10.056C51.8098 9.792 51.4898 9.66 51.0498 9.66C50.5458 9.66 50.1498 9.836 49.8618 10.188C49.5738 10.532 49.4298 10.996 49.4298 11.58V15H48.4578ZM58.9929 15V10.368C58.9929 10.144 58.9809 9.916 58.9569 9.684C58.9409 9.444 58.9209 9.208 58.8969 8.976H59.8329L59.9529 10.296H59.8089C59.9689 9.84 60.2209 9.488 60.5649 9.24C60.9169 8.992 61.3409 8.868 61.8369 8.868C62.3409 8.868 62.7489 8.988 63.0609 9.228C63.3809 9.468 63.5969 9.84 63.7089 10.344H63.5289C63.6809 9.888 63.9489 9.528 64.3329 9.264C64.7169 9 65.1649 8.868 65.6769 8.868C66.3409 8.868 66.8409 9.06 67.1769 9.444C67.5129 9.82 67.6809 10.416 67.6809 11.232V15H66.7089V11.292C66.7089 10.724 66.6089 10.312 66.4089 10.056C66.2089 9.792 65.8889 9.66 65.4489 9.66C64.9449 9.66 64.5449 9.836 64.2489 10.188C63.9609 10.532 63.8169 10.996 63.8169 11.58V15H62.8449V11.292C62.8449 10.724 62.7449 10.312 62.5449 10.056C62.3449 9.792 62.0249 9.66 61.5849 9.66C61.0809 9.66 60.6849 9.836 60.3969 10.188C60.1089 10.532 59.9649 10.996 59.9649 11.58V15H58.9929ZM69.5281 15V8.976H70.5001V15H69.5281ZM69.4081 7.608V6.516H70.6081V7.608H69.4081ZM75.0395 17.676C74.5195 17.676 74.0395 17.612 73.5995 17.484C73.1595 17.356 72.7635 17.16 72.4115 16.896L72.6995 16.164C72.9475 16.34 73.1915 16.48 73.4315 16.584C73.6715 16.688 73.9195 16.764 74.1755 16.812C74.4315 16.868 74.7035 16.896 74.9915 16.896C75.5835 16.896 76.0315 16.74 76.3355 16.428C76.6395 16.116 76.7915 15.672 76.7915 15.096V13.332H76.9115C76.7835 13.804 76.5195 14.18 76.1195 14.46C75.7195 14.732 75.2515 14.868 74.7155 14.868C74.1635 14.868 73.6835 14.748 73.2755 14.508C72.8755 14.26 72.5635 13.912 72.3395 13.464C72.1235 13.008 72.0155 12.472 72.0155 11.856C72.0155 11.248 72.1235 10.72 72.3395 10.272C72.5635 9.824 72.8755 9.48 73.2755 9.24C73.6835 8.992 74.1635 8.868 74.7155 8.868C75.2595 8.868 75.7275 9.004 76.1195 9.276C76.5195 9.548 76.7835 9.924 76.9115 10.404L76.7915 10.284L76.8995 8.976H77.8475C77.8155 9.208 77.7915 9.444 77.7755 9.684C77.7595 9.916 77.7515 10.144 77.7515 10.368V14.964C77.7515 15.86 77.5195 16.536 77.0555 16.992C76.5995 17.448 75.9275 17.676 75.0395 17.676ZM74.8955 14.076C75.4795 14.076 75.9395 13.884 76.2755 13.5C76.6115 13.108 76.7795 12.56 76.7795 11.856C76.7795 11.152 76.6115 10.608 76.2755 10.224C75.9395 9.84 75.4795 9.648 74.8955 9.648C74.3195 9.648 73.8595 9.84 73.5155 10.224C73.1715 10.608 72.9995 11.152 72.9995 11.856C72.9995 12.56 73.1715 13.108 73.5155 13.5C73.8595 13.884 74.3195 14.076 74.8955 14.076ZM79.5939 15V10.428C79.5939 10.188 79.5859 9.944 79.5699 9.696C79.5619 9.448 79.5459 9.208 79.5219 8.976H80.4579L80.5779 10.44L80.4099 10.452C80.4899 10.092 80.6299 9.796 80.8299 9.564C81.0299 9.332 81.2659 9.16 81.5379 9.048C81.8099 8.928 82.0939 8.868 82.3899 8.868C82.5099 8.868 82.6139 8.872 82.7019 8.88C82.7979 8.888 82.8859 8.908 82.9659 8.94L82.9539 9.804C82.8339 9.764 82.7219 9.74 82.6179 9.732C82.5219 9.716 82.4099 9.708 82.2819 9.708C81.9299 9.708 81.6219 9.792 81.3579 9.96C81.1019 10.128 80.9059 10.344 80.7699 10.608C80.6419 10.872 80.5779 11.152 80.5779 11.448V15H79.5939ZM86.2107 15.108C85.6747 15.108 85.2067 14.984 84.8067 14.736C84.4067 14.48 84.0947 14.12 83.8707 13.656C83.6547 13.192 83.5467 12.636 83.5467 11.988C83.5467 11.332 83.6547 10.772 83.8707 10.308C84.0947 9.844 84.4067 9.488 84.8067 9.24C85.2067 8.992 85.6747 8.868 86.2107 8.868C86.7547 8.868 87.2227 9.008 87.6147 9.288C88.0147 9.56 88.2787 9.932 88.4067 10.404H88.2627L88.3947 8.976H89.3307C89.3067 9.208 89.2827 9.444 89.2587 9.684C89.2427 9.916 89.2347 10.144 89.2347 10.368V15H88.2627V13.584H88.3947C88.2667 14.056 88.0027 14.428 87.6027 14.7C87.2027 14.972 86.7387 15.108 86.2107 15.108ZM86.4027 14.316C86.9787 14.316 87.4347 14.12 87.7707 13.728C88.1067 13.328 88.2747 12.748 88.2747 11.988C88.2747 11.22 88.1067 10.64 87.7707 10.248C87.4347 9.848 86.9787 9.648 86.4027 9.648C85.8347 9.648 85.3787 9.848 85.0347 10.248C84.6987 10.64 84.5307 11.22 84.5307 11.988C84.5307 12.748 84.6987 13.328 85.0347 13.728C85.3787 14.12 85.8347 14.316 86.4027 14.316ZM93.25 15.108C92.658 15.108 92.206 14.94 91.894 14.604C91.582 14.26 91.426 13.744 91.426 13.056V9.732H90.25V8.976H91.426V7.332L92.398 7.056V8.976H94.126V9.732H92.398V12.948C92.398 13.428 92.478 13.772 92.638 13.98C92.806 14.18 93.054 14.28 93.382 14.28C93.534 14.28 93.67 14.268 93.79 14.244C93.91 14.212 94.018 14.176 94.114 14.136V14.952C94.002 15 93.866 15.036 93.706 15.06C93.554 15.092 93.402 15.108 93.25 15.108ZM95.3093 15V8.976H96.2813V15H95.3093ZM95.1893 7.608V6.516H96.3893V7.608H95.1893ZM100.641 15.108C100.065 15.108 99.5607 14.984 99.1287 14.736C98.7047 14.48 98.3767 14.12 98.1447 13.656C97.9127 13.184 97.7967 12.628 97.7967 11.988C97.7967 11.34 97.9127 10.784 98.1447 10.32C98.3767 9.856 98.7047 9.5 99.1287 9.252C99.5607 8.996 100.065 8.868 100.641 8.868C101.225 8.868 101.729 8.996 102.153 9.252C102.585 9.5 102.917 9.856 103.149 10.32C103.389 10.784 103.509 11.34 103.509 11.988C103.509 12.628 103.389 13.184 103.149 13.656C102.917 14.12 102.585 14.48 102.153 14.736C101.729 14.984 101.225 15.108 100.641 15.108ZM100.641 14.316C101.217 14.316 101.673 14.12 102.009 13.728C102.345 13.328 102.513 12.748 102.513 11.988C102.513 11.22 102.341 10.64 101.997 10.248C101.661 9.848 101.209 9.648 100.641 9.648C100.073 9.648 99.6207 9.848 99.2847 10.248C98.9487 10.64 98.7807 11.22 98.7807 11.988C98.7807 12.748 98.9487 13.328 99.2847 13.728C99.6207 14.12 100.073 14.316 100.641 14.316ZM105.024 15V10.368C105.024 10.144 105.012 9.916 104.988 9.684C104.972 9.444 104.952 9.208 104.928 8.976H105.864L105.984 10.296H105.84C106.016 9.832 106.296 9.48 106.68 9.24C107.072 8.992 107.524 8.868 108.036 8.868C108.748 8.868 109.284 9.06 109.644 9.444C110.012 9.82 110.196 10.416 110.196 11.232V15H109.224V11.292C109.224 10.724 109.108 10.312 108.876 10.056C108.652 9.792 108.3 9.66 107.82 9.66C107.26 9.66 106.816 9.832 106.488 10.176C106.16 10.52 105.996 10.98 105.996 11.556V15H105.024ZM117.188 15.108C116.708 15.108 116.26 15.044 115.844 14.916C115.428 14.78 115.084 14.592 114.812 14.352L115.148 13.668C115.444 13.9 115.764 14.072 116.108 14.184C116.46 14.296 116.824 14.352 117.2 14.352C117.68 14.352 118.04 14.268 118.28 14.1C118.528 13.924 118.652 13.684 118.652 13.38C118.652 13.148 118.572 12.964 118.412 12.828C118.26 12.684 118.008 12.572 117.656 12.492L116.54 12.264C116.028 12.152 115.644 11.964 115.388 11.7C115.132 11.428 115.004 11.084 115.004 10.668C115.004 10.316 115.096 10.008 115.28 9.744C115.464 9.472 115.732 9.26 116.084 9.108C116.436 8.948 116.848 8.868 117.32 8.868C117.76 8.868 118.164 8.936 118.532 9.072C118.908 9.2 119.22 9.388 119.468 9.636L119.12 10.308C118.88 10.076 118.604 9.904 118.292 9.792C117.988 9.672 117.672 9.612 117.344 9.612C116.872 9.612 116.516 9.708 116.276 9.9C116.044 10.084 115.928 10.328 115.928 10.632C115.928 10.864 116 11.056 116.144 11.208C116.296 11.352 116.528 11.46 116.84 11.532L117.956 11.76C118.5 11.88 118.904 12.068 119.168 12.324C119.44 12.572 119.576 12.908 119.576 13.332C119.576 13.692 119.476 14.008 119.276 14.28C119.076 14.544 118.796 14.748 118.436 14.892C118.084 15.036 117.668 15.108 117.188 15.108ZM123.215 15.108C122.623 15.108 122.171 14.94 121.859 14.604C121.547 14.26 121.391 13.744 121.391 13.056V9.732H120.215V8.976H121.391V7.332L122.363 7.056V8.976H124.091V9.732H122.363V12.948C122.363 13.428 122.443 13.772 122.603 13.98C122.771 14.18 123.019 14.28 123.347 14.28C123.499 14.28 123.635 14.268 123.755 14.244C123.875 14.212 123.983 14.176 124.079 14.136V14.952C123.967 15 123.831 15.036 123.671 15.06C123.519 15.092 123.367 15.108 123.215 15.108ZM127.566 15.108C127.03 15.108 126.562 14.984 126.162 14.736C125.762 14.48 125.45 14.12 125.226 13.656C125.01 13.192 124.902 12.636 124.902 11.988C124.902 11.332 125.01 10.772 125.226 10.308C125.45 9.844 125.762 9.488 126.162 9.24C126.562 8.992 127.03 8.868 127.566 8.868C128.11 8.868 128.578 9.008 128.97 9.288C129.37 9.56 129.634 9.932 129.762 10.404H129.618L129.75 8.976H130.686C130.662 9.208 130.638 9.444 130.614 9.684C130.598 9.916 130.59 10.144 130.59 10.368V15H129.618V13.584H129.75C129.622 14.056 129.358 14.428 128.958 14.7C128.558 14.972 128.094 15.108 127.566 15.108ZM127.758 14.316C128.334 14.316 128.79 14.12 129.126 13.728C129.462 13.328 129.63 12.748 129.63 11.988C129.63 11.22 129.462 10.64 129.126 10.248C128.79 9.848 128.334 9.648 127.758 9.648C127.19 9.648 126.734 9.848 126.39 10.248C126.054 10.64 125.886 11.22 125.886 11.988C125.886 12.748 126.054 13.328 126.39 13.728C126.734 14.12 127.19 14.316 127.758 14.316ZM134.605 15.108C134.013 15.108 133.561 14.94 133.249 14.604C132.937 14.26 132.781 13.744 132.781 13.056V9.732H131.605V8.976H132.781V7.332L133.753 7.056V8.976H135.481V9.732H133.753V12.948C133.753 13.428 133.833 13.772 133.993 13.98C134.161 14.18 134.409 14.28 134.737 14.28C134.889 14.28 135.025 14.268 135.145 14.244C135.265 14.212 135.373 14.176 135.469 14.136V14.952C135.357 15 135.221 15.036 135.061 15.06C134.909 15.092 134.757 15.108 134.605 15.108ZM138.789 15.108C138.077 15.108 137.537 14.912 137.169 14.52C136.809 14.128 136.629 13.528 136.629 12.72V8.976H137.601V12.696C137.601 13.248 137.713 13.656 137.937 13.92C138.161 14.176 138.509 14.304 138.981 14.304C139.509 14.304 139.933 14.132 140.253 13.788C140.573 13.444 140.733 12.984 140.733 12.408V8.976H141.705V15H140.757V13.644H140.913C140.745 14.108 140.473 14.468 140.097 14.724C139.729 14.98 139.293 15.108 138.789 15.108ZM145.595 15.108C145.115 15.108 144.667 15.044 144.251 14.916C143.835 14.78 143.491 14.592 143.219 14.352L143.555 13.668C143.851 13.9 144.171 14.072 144.515 14.184C144.867 14.296 145.231 14.352 145.607 14.352C146.087 14.352 146.447 14.268 146.687 14.1C146.935 13.924 147.059 13.684 147.059 13.38C147.059 13.148 146.979 12.964 146.819 12.828C146.667 12.684 146.415 12.572 146.063 12.492L144.947 12.264C144.435 12.152 144.051 11.964 143.795 11.7C143.539 11.428 143.411 11.084 143.411 10.668C143.411 10.316 143.503 10.008 143.687 9.744C143.871 9.472 144.139 9.26 144.491 9.108C144.843 8.948 145.255 8.868 145.727 8.868C146.167 8.868 146.571 8.936 146.939 9.072C147.315 9.2 147.627 9.388 147.875 9.636L147.527 10.308C147.287 10.076 147.011 9.904 146.699 9.792C146.395 9.672 146.079 9.612 145.751 9.612C145.279 9.612 144.923 9.708 144.683 9.9C144.451 10.084 144.335 10.328 144.335 10.632C144.335 10.864 144.407 11.056 144.551 11.208C144.703 11.352 144.935 11.46 145.247 11.532L146.363 11.76C146.907 11.88 147.311 12.068 147.575 12.324C147.847 12.572 147.983 12.908 147.983 13.332C147.983 13.692 147.883 14.008 147.683 14.28C147.483 14.544 147.203 14.748 146.843 14.892C146.491 15.036 146.075 15.108 145.595 15.108Z" class="w7"/>
<path d="M12.6958 96V87.54H14.2438V94.692H18.2278V96H12.6958ZM21.6306 96.12C21.1026 96.12 20.6386 95.996 20.2386 95.748C19.8386 95.492 19.5266 95.128 19.3026 94.656C19.0786 94.184 18.9666 93.62 18.9666 92.964C18.9666 92.308 19.0786 91.748 19.3026 91.284C19.5266 90.812 19.8386 90.452 20.2386 90.204C20.6386 89.948 21.1026 89.82 21.6306 89.82C22.1426 89.82 22.5906 89.948 22.9746 90.204C23.3666 90.452 23.6266 90.788 23.7546 91.212H23.6226L23.7546 89.94H25.1946C25.1706 90.188 25.1466 90.44 25.1226 90.696C25.1066 90.952 25.0986 91.204 25.0986 91.452V96H23.6106L23.5986 94.752H23.7426C23.6146 95.168 23.3546 95.5 22.9626 95.748C22.5706 95.996 22.1266 96.12 21.6306 96.12ZM22.0506 94.968C22.5226 94.968 22.9026 94.804 23.1906 94.476C23.4786 94.14 23.6226 93.636 23.6226 92.964C23.6226 92.292 23.4786 91.792 23.1906 91.464C22.9026 91.136 22.5226 90.972 22.0506 90.972C21.5786 90.972 21.1986 91.136 20.9106 91.464C20.6226 91.792 20.4786 92.292 20.4786 92.964C20.4786 93.636 20.6186 94.14 20.8986 94.476C21.1866 94.804 21.5706 94.968 22.0506 94.968ZM26.732 96V91.452C26.732 91.204 26.724 90.952 26.708 90.696C26.692 90.44 26.668 90.188 26.636 89.94H28.088L28.208 91.14H28.064C28.256 90.716 28.54 90.392 28.916 90.168C29.292 89.936 29.728 89.82 30.224 89.82C30.936 89.82 31.472 90.02 31.832 90.42C32.192 90.82 32.372 91.444 32.372 92.292V96H30.872V92.364C30.872 91.876 30.776 91.528 30.584 91.32C30.4 91.104 30.12 90.996 29.744 90.996C29.28 90.996 28.912 91.14 28.64 91.428C28.368 91.716 28.232 92.1 28.232 92.58V96H26.732ZM36.7705 98.688C36.2105 98.688 35.7025 98.628 35.2465 98.508C34.7985 98.388 34.3985 98.204 34.0465 97.956L34.3705 96.876C34.6025 97.028 34.8425 97.152 35.0905 97.248C35.3385 97.344 35.5945 97.416 35.8585 97.464C36.1225 97.512 36.3905 97.536 36.6625 97.536C37.2225 97.536 37.6385 97.396 37.9105 97.116C38.1905 96.844 38.3305 96.452 38.3305 95.94V94.488H38.4505C38.3225 94.904 38.0625 95.236 37.6705 95.484C37.2865 95.732 36.8425 95.856 36.3385 95.856C35.7945 95.856 35.3185 95.736 34.9105 95.496C34.5105 95.248 34.1985 94.896 33.9745 94.44C33.7505 93.984 33.6385 93.448 33.6385 92.832C33.6385 92.216 33.7505 91.684 33.9745 91.236C34.1985 90.78 34.5105 90.432 34.9105 90.192C35.3185 89.944 35.7945 89.82 36.3385 89.82C36.8505 89.82 37.2945 89.944 37.6705 90.192C38.0545 90.432 38.3105 90.76 38.4385 91.176L38.3305 91.104L38.4505 89.94H39.9025C39.8705 90.188 39.8465 90.44 39.8305 90.696C39.8145 90.952 39.8065 91.204 39.8065 91.452V95.76C39.8065 96.712 39.5465 97.436 39.0265 97.932C38.5145 98.436 37.7625 98.688 36.7705 98.688ZM36.7465 94.704C37.2265 94.704 37.6065 94.544 37.8865 94.224C38.1745 93.896 38.3185 93.432 38.3185 92.832C38.3185 92.232 38.1745 91.772 37.8865 91.452C37.6065 91.132 37.2265 90.972 36.7465 90.972C36.2585 90.972 35.8705 91.132 35.5825 91.452C35.2945 91.772 35.1505 92.232 35.1505 92.832C35.1505 93.432 35.2945 93.896 35.5825 94.224C35.8705 94.544 36.2585 94.704 36.7465 94.704ZM43.6113 96.12C42.8673 96.12 42.3113 95.916 41.9433 95.508C41.5753 95.1 41.3913 94.476 41.3913 93.636V89.94H42.8913V93.624C42.8913 94.072 42.9833 94.404 43.1673 94.62C43.3513 94.828 43.6313 94.932 44.0073 94.932C44.4313 94.932 44.7753 94.788 45.0393 94.5C45.3113 94.212 45.4473 93.832 45.4473 93.36V89.94H46.9473V96H45.4833V94.764H45.6513C45.4753 95.196 45.2073 95.532 44.8473 95.772C44.4953 96.004 44.0833 96.12 43.6113 96.12ZM50.9158 96.12C50.3878 96.12 49.9238 95.996 49.5238 95.748C49.1238 95.492 48.8118 95.128 48.5878 94.656C48.3638 94.184 48.2518 93.62 48.2518 92.964C48.2518 92.308 48.3638 91.748 48.5878 91.284C48.8118 90.812 49.1238 90.452 49.5238 90.204C49.9238 89.948 50.3878 89.82 50.9158 89.82C51.4278 89.82 51.8758 89.948 52.2598 90.204C52.6518 90.452 52.9118 90.788 53.0398 91.212H52.9078L53.0398 89.94H54.4798C54.4558 90.188 54.4318 90.44 54.4078 90.696C54.3918 90.952 54.3838 91.204 54.3838 91.452V96H52.8958L52.8838 94.752H53.0278C52.8998 95.168 52.6398 95.5 52.2478 95.748C51.8558 95.996 51.4118 96.12 50.9158 96.12ZM51.3358 94.968C51.8078 94.968 52.1878 94.804 52.4758 94.476C52.7638 94.14 52.9078 93.636 52.9078 92.964C52.9078 92.292 52.7638 91.792 52.4758 91.464C52.1878 91.136 51.8078 90.972 51.3358 90.972C50.8638 90.972 50.4838 91.136 50.1958 91.464C49.9078 91.792 49.7638 92.292 49.7638 92.964C49.7638 93.636 49.9038 94.14 50.1838 94.476C50.4718 94.804 50.8558 94.968 51.3358 94.968ZM58.8252 98.688C58.2652 98.688 57.7572 98.628 57.3012 98.508C56.8532 98.388 56.4532 98.204 56.1012 97.956L56.4252 96.876C56.6572 97.028 56.8972 97.152 57.1452 97.248C57.3932 97.344 57.6492 97.416 57.9132 97.464C58.1772 97.512 58.4452 97.536 58.7172 97.536C59.2772 97.536 59.6932 97.396 59.9652 97.116C60.2452 96.844 60.3852 96.452 60.3852 95.94V94.488H60.5052C60.3772 94.904 60.1172 95.236 59.7252 95.484C59.3412 95.732 58.8972 95.856 58.3932 95.856C57.8492 95.856 57.3732 95.736 56.9652 95.496C56.5652 95.248 56.2532 94.896 56.0292 94.44C55.8052 93.984 55.6932 93.448 55.6932 92.832C55.6932 92.216 55.8052 91.684 56.0292 91.236C56.2532 90.78 56.5652 90.432 56.9652 90.192C57.3732 89.944 57.8492 89.82 58.3932 89.82C58.9052 89.82 59.3492 89.944 59.7252 90.192C60.1092 90.432 60.3652 90.76 60.4932 91.176L60.3852 91.104L60.5052 89.94H61.9572C61.9252 90.188 61.9012 90.44 61.8852 90.696C61.8692 90.952 61.8612 91.204 61.8612 91.452V95.76C61.8612 96.712 61.6012 97.436 61.0812 97.932C60.5692 98.436 59.8172 98.688 58.8252 98.688ZM58.8012 94.704C59.2812 94.704 59.6612 94.544 59.9412 94.224C60.2292 93.896 60.3732 93.432 60.3732 92.832C60.3732 92.232 60.2292 91.772 59.9412 91.452C59.6612 91.132 59.2812 90.972 58.8012 90.972C58.3132 90.972 57.9252 91.132 57.6372 91.452C57.3492 91.772 57.2052 92.232 57.2052 92.832C57.2052 93.432 57.3492 93.896 57.6372 94.224C57.9252 94.544 58.3132 94.704 58.8012 94.704ZM66.41 96.12C65.394 96.12 64.598 95.84 64.022 95.28C63.446 94.72 63.158 93.952 63.158 92.976C63.158 92.344 63.282 91.792 63.53 91.32C63.778 90.848 64.122 90.48 64.562 90.216C65.01 89.952 65.53 89.82 66.122 89.82C66.706 89.82 67.194 89.944 67.586 90.192C67.978 90.44 68.274 90.788 68.474 91.236C68.682 91.684 68.786 92.208 68.786 92.808V93.204H64.37V92.412H67.718L67.514 92.58C67.514 92.02 67.394 91.592 67.154 91.296C66.922 91 66.582 90.852 66.134 90.852C65.638 90.852 65.254 91.028 64.982 91.38C64.718 91.732 64.586 92.224 64.586 92.856V93.012C64.586 93.668 64.746 94.16 65.066 94.488C65.394 94.808 65.854 94.968 66.446 94.968C66.79 94.968 67.11 94.924 67.406 94.836C67.71 94.74 67.998 94.588 68.27 94.38L68.714 95.388C68.426 95.62 68.082 95.8 67.682 95.928C67.282 96.056 66.858 96.12 66.41 96.12Z" class="w8"/>
<rect width="36" height="17" transform="translate(187 25)" class="w4"/>
<path d="M191.927 38V29.54H193.283L196.391 36.536H196.019L199.127 29.54H200.471V38H199.067V31.724H199.499L196.655 38H195.731L192.887 31.724H193.331V38H191.927ZM204.972 38.12C204.348 38.12 203.808 37.992 203.352 37.736C202.896 37.48 202.54 37.116 202.284 36.644C202.036 36.172 201.912 35.612 201.912 34.964C201.912 34.316 202.036 33.76 202.284 33.296C202.54 32.824 202.896 32.46 203.352 32.204C203.808 31.948 204.348 31.82 204.972 31.82C205.596 31.82 206.136 31.948 206.592 32.204C207.056 32.46 207.412 32.824 207.66 33.296C207.916 33.76 208.044 34.316 208.044 34.964C208.044 35.612 207.916 36.172 207.66 36.644C207.412 37.116 207.056 37.48 206.592 37.736C206.136 37.992 205.596 38.12 204.972 38.12ZM204.972 36.968C205.444 36.968 205.82 36.804 206.1 36.476C206.38 36.14 206.52 35.636 206.52 34.964C206.52 34.292 206.38 33.792 206.1 33.464C205.82 33.136 205.444 32.972 204.972 32.972C204.5 32.972 204.124 33.136 203.844 33.464C203.564 33.792 203.424 34.292 203.424 34.964C203.424 35.636 203.564 36.14 203.844 36.476C204.124 36.804 204.5 36.968 204.972 36.968ZM211.497 38.12C210.977 38.12 210.497 38.06 210.057 37.94C209.625 37.812 209.261 37.636 208.965 37.412L209.385 36.404C209.689 36.612 210.025 36.772 210.393 36.884C210.761 36.996 211.133 37.052 211.509 37.052C211.909 37.052 212.205 36.984 212.397 36.848C212.597 36.712 212.697 36.528 212.697 36.296C212.697 36.112 212.633 35.968 212.505 35.864C212.385 35.752 212.189 35.668 211.917 35.612L210.717 35.384C210.205 35.272 209.813 35.08 209.541 34.808C209.277 34.536 209.145 34.18 209.145 33.74C209.145 33.364 209.245 33.032 209.445 32.744C209.653 32.456 209.945 32.232 210.321 32.072C210.705 31.904 211.153 31.82 211.665 31.82C212.113 31.82 212.533 31.88 212.925 32C213.325 32.12 213.661 32.3 213.933 32.54L213.501 33.512C213.253 33.312 212.969 33.156 212.649 33.044C212.329 32.932 212.017 32.876 211.713 32.876C211.297 32.876 210.993 32.952 210.801 33.104C210.609 33.248 210.513 33.436 210.513 33.668C210.513 33.844 210.569 33.992 210.681 34.112C210.801 34.224 210.985 34.308 211.233 34.364L212.433 34.592C212.969 34.696 213.373 34.88 213.645 35.144C213.925 35.4 214.065 35.752 214.065 36.2C214.065 36.6 213.957 36.944 213.741 37.232C213.525 37.52 213.225 37.74 212.841 37.892C212.457 38.044 212.009 38.12 211.497 38.12ZM217.883 38.12C217.163 38.12 216.619 37.932 216.251 37.556C215.883 37.18 215.699 36.616 215.699 35.864V33.068H214.535V31.94H215.699V30.392L217.199 30.008V31.94H218.819V33.068H217.199V35.768C217.199 36.184 217.279 36.476 217.439 36.644C217.599 36.812 217.819 36.896 218.099 36.896C218.251 36.896 218.379 36.884 218.483 36.86C218.595 36.836 218.703 36.804 218.807 36.764V37.952C218.671 38.008 218.519 38.048 218.351 38.072C218.191 38.104 218.035 38.12 217.883 38.12Z" class="w8"/>
<rect width="36" height="17" transform="translate(187 135)" class="w4" fill-opacity="0.7"/>
<path d="M190.35 148V139.54H191.898V146.692H195.882V148H190.35ZM199.814 148.12C198.798 148.12 198.002 147.84 197.426 147.28C196.85 146.72 196.562 145.952 196.562 144.976C196.562 144.344 196.686 143.792 196.934 143.32C197.182 142.848 197.526 142.48 197.966 142.216C198.414 141.952 198.934 141.82 199.526 141.82C200.11 141.82 200.598 141.944 200.99 142.192C201.382 142.44 201.678 142.788 201.878 143.236C202.086 143.684 202.19 144.208 202.19 144.808V145.204H197.774V144.412H201.122L200.918 144.58C200.918 144.02 200.798 143.592 200.558 143.296C200.326 143 199.986 142.852 199.538 142.852C199.042 142.852 198.658 143.028 198.386 143.38C198.122 143.732 197.99 144.224 197.99 144.856V145.012C197.99 145.668 198.15 146.16 198.47 146.488C198.798 146.808 199.258 146.968 199.85 146.968C200.194 146.968 200.514 146.924 200.81 146.836C201.114 146.74 201.402 146.588 201.674 146.38L202.118 147.388C201.83 147.62 201.486 147.8 201.086 147.928C200.686 148.056 200.262 148.12 199.814 148.12ZM205.801 148.12C205.273 148.12 204.809 147.996 204.409 147.748C204.009 147.492 203.697 147.128 203.473 146.656C203.249 146.184 203.137 145.62 203.137 144.964C203.137 144.308 203.249 143.748 203.473 143.284C203.697 142.812 204.009 142.452 204.409 142.204C204.809 141.948 205.273 141.82 205.801 141.82C206.313 141.82 206.761 141.948 207.145 142.204C207.537 142.452 207.797 142.788 207.925 143.212H207.793L207.925 141.94H209.365C209.341 142.188 209.317 142.44 209.293 142.696C209.277 142.952 209.269 143.204 209.269 143.452V148H207.781L207.769 146.752H207.913C207.785 147.168 207.525 147.5 207.133 147.748C206.741 147.996 206.297 148.12 205.801 148.12ZM206.221 146.968C206.693 146.968 207.073 146.804 207.361 146.476C207.649 146.14 207.793 145.636 207.793 144.964C207.793 144.292 207.649 143.792 207.361 143.464C207.073 143.136 206.693 142.972 206.221 142.972C205.749 142.972 205.369 143.136 205.081 143.464C204.793 143.792 204.649 144.292 204.649 144.964C204.649 145.636 204.789 146.14 205.069 146.476C205.357 146.804 205.741 146.968 206.221 146.968ZM213.062 148.12C212.542 148.12 212.062 148.06 211.622 147.94C211.19 147.812 210.826 147.636 210.53 147.412L210.95 146.404C211.254 146.612 211.59 146.772 211.958 146.884C212.326 146.996 212.698 147.052 213.074 147.052C213.474 147.052 213.77 146.984 213.962 146.848C214.162 146.712 214.262 146.528 214.262 146.296C214.262 146.112 214.198 145.968 214.07 145.864C213.95 145.752 213.754 145.668 213.482 145.612L212.282 145.384C211.77 145.272 211.378 145.08 211.106 144.808C210.842 144.536 210.71 144.18 210.71 143.74C210.71 143.364 210.81 143.032 211.01 142.744C211.218 142.456 211.51 142.232 211.886 142.072C212.27 141.904 212.718 141.82 213.23 141.82C213.678 141.82 214.098 141.88 214.49 142C214.89 142.12 215.226 142.3 215.498 142.54L215.066 143.512C214.818 143.312 214.534 143.156 214.214 143.044C213.894 142.932 213.582 142.876 213.278 142.876C212.862 142.876 212.558 142.952 212.366 143.104C212.174 143.248 212.078 143.436 212.078 143.668C212.078 143.844 212.134 143.992 212.246 144.112C212.366 144.224 212.55 144.308 212.798 144.364L213.998 144.592C214.534 144.696 214.938 144.88 215.21 145.144C215.49 145.4 215.63 145.752 215.63 146.2C215.63 146.6 215.522 146.944 215.306 147.232C215.09 147.52 214.79 147.74 214.406 147.892C214.022 148.044 213.574 148.12 213.062 148.12ZM219.447 148.12C218.727 148.12 218.183 147.932 217.815 147.556C217.447 147.18 217.263 146.616 217.263 145.864V143.068H216.099V141.94H217.263V140.392L218.763 140.008V141.94H220.383V143.068H218.763V145.768C218.763 146.184 218.843 146.476 219.003 146.644C219.163 146.812 219.383 146.896 219.663 146.896C219.815 146.896 219.943 146.884 220.047 146.86C220.159 146.836 220.267 146.804 220.371 146.764V147.952C220.235 148.008 220.083 148.048 219.915 148.072C219.755 148.104 219.599 148.12 219.447 148.12Z" class="w8"/>
<path d="M252 44L196 115.5H135L170 161L190.5 182L252 250.5L280.5 182L244.5 136L252 44Z" class="w9" stroke-width="2" stroke-dasharray="10 10"/>
</svg>
