<svg width="409" height="308" viewBox="0 0 409 308" fill="none" xmlns="http://www.w3.org/2000/svg">
<circle cx="205.685" cy="145.16" r="130.097" class="w1"/>
<circle cx="205.853" cy="145.328" r="99.0018" class="w2"/>
<circle cx="205.853" cy="145.328" r="61.5232" class="w3 w9" stroke-dasharray="2 2"/>
<path d="M206.707 0.292893C206.317 -0.097631 205.683 -0.097631 205.293 0.292893L198.929 6.65685C198.538 7.04738 198.538 7.68054 198.929 8.07107C199.319 8.46159 199.953 8.46159 200.343 8.07107L206 2.41421L211.657 8.07107C212.047 8.46159 212.681 8.46159 213.071 8.07107C213.462 7.68054 213.462 7.04738 213.071 6.65685L206.707 0.292893ZM205.293 130.707C205.683 131.098 206.317 131.098 206.707 130.707L213.071 124.343C213.462 123.953 213.462 123.319 213.071 122.929C212.681 122.538 212.047 122.538 211.657 122.929L206 128.586L200.343 122.929C199.953 122.538 199.319 122.538 198.929 122.929C198.538 123.319 198.538 123.953 198.929 124.343L205.293 130.707ZM206 1L205 1L205 130L206 130L207 130L207 1L206 1Z" class="w8"/>
<line x1="336" y1="145.5" x2="76" y2="145.5" class="w5" stroke-dasharray="2 2"/>
<line x1="205.5" y1="275" x2="205.5" y2="15" class="w5" stroke-dasharray="2 2"/>
<line x1="113.553" y1="236.621" x2="297.101" y2="53.0727" class="w5" stroke-dasharray="2 2"/>
<line x1="114.596" y1="53.4089" x2="297.472" y2="236.285" class="w5" stroke-dasharray="2 2"/>
<path d="M348.533 190.108C347.853 190.108 347.245 190.02 346.709 189.844C346.173 189.668 345.705 189.416 345.305 189.088L345.665 188.296C345.945 188.504 346.225 188.68 346.505 188.824C346.793 188.96 347.101 189.064 347.429 189.136C347.757 189.2 348.125 189.232 348.533 189.232C349.245 189.232 349.773 189.1 350.117 188.836C350.461 188.572 350.633 188.22 350.633 187.78C350.633 187.404 350.513 187.116 350.273 186.916C350.033 186.716 349.613 186.556 349.013 186.436L347.753 186.184C346.977 186.024 346.397 185.764 346.013 185.404C345.637 185.044 345.449 184.556 345.449 183.94C345.449 183.436 345.577 182.996 345.833 182.62C346.097 182.244 346.465 181.952 346.937 181.744C347.409 181.536 347.957 181.432 348.581 181.432C349.181 181.432 349.729 181.524 350.225 181.708C350.721 181.884 351.145 182.144 351.497 182.488L351.149 183.256C350.773 182.92 350.377 182.68 349.961 182.536C349.553 182.384 349.089 182.308 348.569 182.308C347.913 182.308 347.393 182.452 347.009 182.74C346.633 183.02 346.445 183.404 346.445 183.892C346.445 184.284 346.565 184.592 346.805 184.816C347.045 185.032 347.441 185.196 347.993 185.308L349.265 185.56C350.081 185.728 350.681 185.98 351.065 186.316C351.449 186.652 351.641 187.124 351.641 187.732C351.641 188.196 351.513 188.608 351.257 188.968C351.009 189.328 350.653 189.608 350.189 189.808C349.725 190.008 349.173 190.108 348.533 190.108ZM355.613 190.108C355.037 190.108 354.533 189.984 354.101 189.736C353.677 189.48 353.349 189.12 353.117 188.656C352.885 188.184 352.769 187.628 352.769 186.988C352.769 186.34 352.885 185.784 353.117 185.32C353.349 184.856 353.677 184.5 354.101 184.252C354.533 183.996 355.037 183.868 355.613 183.868C356.197 183.868 356.701 183.996 357.125 184.252C357.557 184.5 357.889 184.856 358.121 185.32C358.361 185.784 358.481 186.34 358.481 186.988C358.481 187.628 358.361 188.184 358.121 188.656C357.889 189.12 357.557 189.48 357.125 189.736C356.701 189.984 356.197 190.108 355.613 190.108ZM355.613 189.316C356.189 189.316 356.645 189.12 356.981 188.728C357.317 188.328 357.485 187.748 357.485 186.988C357.485 186.22 357.313 185.64 356.969 185.248C356.633 184.848 356.181 184.648 355.613 184.648C355.045 184.648 354.593 184.848 354.257 185.248C353.921 185.64 353.753 186.22 353.753 186.988C353.753 187.748 353.921 188.328 354.257 188.728C354.593 189.12 355.045 189.316 355.613 189.316ZM362.529 190.108C361.937 190.108 361.421 189.98 360.981 189.724C360.549 189.468 360.213 189.104 359.973 188.632C359.741 188.16 359.625 187.6 359.625 186.952C359.625 186.296 359.745 185.74 359.985 185.284C360.225 184.82 360.561 184.468 360.993 184.228C361.433 183.988 361.945 183.868 362.529 183.868C362.913 183.868 363.285 183.936 363.645 184.072C364.013 184.208 364.317 184.4 364.557 184.648L364.209 185.344C363.969 185.112 363.705 184.94 363.417 184.828C363.137 184.716 362.861 184.66 362.589 184.66C361.965 184.66 361.481 184.856 361.137 185.248C360.793 185.64 360.621 186.212 360.621 186.964C360.621 187.708 360.793 188.284 361.137 188.692C361.481 189.1 361.965 189.304 362.589 189.304C362.853 189.304 363.125 189.252 363.405 189.148C363.693 189.044 363.961 188.872 364.209 188.632L364.557 189.316C364.309 189.572 364.001 189.768 363.633 189.904C363.265 190.04 362.897 190.108 362.529 190.108ZM365.938 190V183.976H366.91V190H365.938ZM365.818 182.608V181.516H367.018V182.608H365.818ZM371.09 190.108C370.554 190.108 370.086 189.984 369.686 189.736C369.286 189.48 368.974 189.12 368.75 188.656C368.534 188.192 368.426 187.636 368.426 186.988C368.426 186.332 368.534 185.772 368.75 185.308C368.974 184.844 369.286 184.488 369.686 184.24C370.086 183.992 370.554 183.868 371.09 183.868C371.634 183.868 372.102 184.008 372.494 184.288C372.894 184.56 373.158 184.932 373.286 185.404H373.142L373.274 183.976H374.21C374.186 184.208 374.162 184.444 374.138 184.684C374.122 184.916 374.114 185.144 374.114 185.368V190H373.142V188.584H373.274C373.146 189.056 372.882 189.428 372.482 189.7C372.082 189.972 371.618 190.108 371.09 190.108ZM371.282 189.316C371.858 189.316 372.314 189.12 372.65 188.728C372.986 188.328 373.154 187.748 373.154 186.988C373.154 186.22 372.986 185.64 372.65 185.248C372.314 184.848 371.858 184.648 371.282 184.648C370.714 184.648 370.258 184.848 369.914 185.248C369.578 185.64 369.41 186.22 369.41 186.988C369.41 187.748 369.578 188.328 369.914 188.728C370.258 189.12 370.714 189.316 371.282 189.316ZM375.993 190V181.168H376.965V190H375.993ZM384.273 190.108C383.737 190.108 383.269 189.984 382.869 189.736C382.469 189.48 382.157 189.12 381.933 188.656C381.717 188.192 381.609 187.636 381.609 186.988C381.609 186.332 381.717 185.772 381.933 185.308C382.157 184.844 382.469 184.488 382.869 184.24C383.269 183.992 383.737 183.868 384.273 183.868C384.817 183.868 385.285 184.008 385.677 184.288C386.077 184.56 386.341 184.932 386.469 185.404H386.325L386.457 183.976H387.393C387.369 184.208 387.345 184.444 387.321 184.684C387.305 184.916 387.297 185.144 387.297 185.368V190H386.325V188.584H386.457C386.329 189.056 386.065 189.428 385.665 189.7C385.265 189.972 384.801 190.108 384.273 190.108ZM384.465 189.316C385.041 189.316 385.497 189.12 385.833 188.728C386.169 188.328 386.337 187.748 386.337 186.988C386.337 186.22 386.169 185.64 385.833 185.248C385.497 184.848 385.041 184.648 384.465 184.648C383.897 184.648 383.441 184.848 383.097 185.248C382.761 185.64 382.593 186.22 382.593 186.988C382.593 187.748 382.761 188.328 383.097 188.728C383.441 189.12 383.897 189.316 384.465 189.316ZM389.177 190V183.976H390.149V190H389.177ZM389.057 182.608V181.516H390.257V182.608H389.057ZM394.316 190.108C393.788 190.108 393.324 189.984 392.924 189.736C392.524 189.48 392.212 189.12 391.988 188.656C391.772 188.192 391.664 187.636 391.664 186.988C391.664 186.332 391.772 185.772 391.988 185.308C392.212 184.844 392.524 184.488 392.924 184.24C393.324 183.992 393.788 183.868 394.316 183.868C394.86 183.868 395.328 184.004 395.72 184.276C396.12 184.548 396.388 184.916 396.524 185.38H396.38V181.168H397.352V190H396.392V188.56H396.524C396.396 189.04 396.132 189.42 395.732 189.7C395.332 189.972 394.86 190.108 394.316 190.108ZM394.52 189.316C395.088 189.316 395.544 189.12 395.888 188.728C396.232 188.328 396.404 187.748 396.404 186.988C396.404 186.22 396.232 185.64 395.888 185.248C395.544 184.848 395.088 184.648 394.52 184.648C393.952 184.648 393.496 184.848 393.152 185.248C392.816 185.64 392.648 186.22 392.648 186.988C392.648 187.748 392.816 188.328 393.152 188.728C393.496 189.12 393.952 189.316 394.52 189.316ZM351.923 207.592V200.368C351.923 200.144 351.911 199.916 351.887 199.684C351.871 199.444 351.851 199.208 351.827 198.976H352.763L352.895 200.404H352.751C352.879 199.932 353.139 199.56 353.531 199.288C353.923 199.008 354.391 198.868 354.935 198.868C355.479 198.868 355.947 198.992 356.339 199.24C356.739 199.488 357.051 199.844 357.275 200.308C357.499 200.772 357.611 201.332 357.611 201.988C357.611 202.636 357.499 203.192 357.275 203.656C357.059 204.12 356.751 204.48 356.351 204.736C355.951 204.984 355.479 205.108 354.935 205.108C354.399 205.108 353.935 204.972 353.543 204.7C353.151 204.428 352.891 204.056 352.763 203.584H352.895V207.592H351.923ZM354.743 204.316C355.319 204.316 355.775 204.12 356.111 203.728C356.455 203.328 356.627 202.748 356.627 201.988C356.627 201.22 356.455 200.64 356.111 200.248C355.775 199.848 355.319 199.648 354.743 199.648C354.175 199.648 353.719 199.848 353.375 200.248C353.039 200.64 352.871 201.22 352.871 201.988C352.871 202.748 353.039 203.328 353.375 203.728C353.719 204.12 354.175 204.316 354.743 204.316ZM361.59 205.108C361.014 205.108 360.51 204.984 360.078 204.736C359.654 204.48 359.326 204.12 359.094 203.656C358.862 203.184 358.746 202.628 358.746 201.988C358.746 201.34 358.862 200.784 359.094 200.32C359.326 199.856 359.654 199.5 360.078 199.252C360.51 198.996 361.014 198.868 361.59 198.868C362.174 198.868 362.678 198.996 363.102 199.252C363.534 199.5 363.866 199.856 364.098 200.32C364.338 200.784 364.458 201.34 364.458 201.988C364.458 202.628 364.338 203.184 364.098 203.656C363.866 204.12 363.534 204.48 363.102 204.736C362.678 204.984 362.174 205.108 361.59 205.108ZM361.59 204.316C362.166 204.316 362.622 204.12 362.958 203.728C363.294 203.328 363.462 202.748 363.462 201.988C363.462 201.22 363.29 200.64 362.946 200.248C362.61 199.848 362.158 199.648 361.59 199.648C361.022 199.648 360.57 199.848 360.234 200.248C359.898 200.64 359.73 201.22 359.73 201.988C359.73 202.748 359.898 203.328 360.234 203.728C360.57 204.12 361.022 204.316 361.59 204.316ZM365.973 205V196.168H366.945V205H365.973ZM368.833 205V198.976H369.805V205H368.833ZM368.713 197.608V196.516H369.913V197.608H368.713ZM374.224 205.108C373.632 205.108 373.116 204.98 372.676 204.724C372.244 204.468 371.908 204.104 371.668 203.632C371.436 203.16 371.32 202.6 371.32 201.952C371.32 201.296 371.44 200.74 371.68 200.284C371.92 199.82 372.256 199.468 372.688 199.228C373.128 198.988 373.64 198.868 374.224 198.868C374.608 198.868 374.98 198.936 375.34 199.072C375.708 199.208 376.012 199.4 376.252 199.648L375.904 200.344C375.664 200.112 375.4 199.94 375.112 199.828C374.832 199.716 374.556 199.66 374.284 199.66C373.66 199.66 373.176 199.856 372.832 200.248C372.488 200.64 372.316 201.212 372.316 201.964C372.316 202.708 372.488 203.284 372.832 203.692C373.176 204.1 373.66 204.304 374.284 204.304C374.548 204.304 374.82 204.252 375.1 204.148C375.388 204.044 375.656 203.872 375.904 203.632L376.252 204.316C376.004 204.572 375.696 204.768 375.328 204.904C374.96 205.04 374.592 205.108 374.224 205.108ZM377.634 205V198.976H378.606V205H377.634ZM377.514 197.608V196.516H378.714V197.608H377.514ZM383.169 205.108C382.225 205.108 381.481 204.836 380.937 204.292C380.393 203.74 380.121 202.976 380.121 202C380.121 201.368 380.241 200.82 380.481 200.356C380.721 199.884 381.057 199.52 381.489 199.264C381.921 199 382.417 198.868 382.977 198.868C383.529 198.868 383.993 198.984 384.369 199.216C384.745 199.448 385.033 199.78 385.233 200.212C385.433 200.636 385.533 201.14 385.533 201.724V202.084H380.865V201.472H384.897L384.693 201.628C384.693 200.988 384.549 200.488 384.261 200.128C383.973 199.768 383.545 199.588 382.977 199.588C382.377 199.588 381.909 199.8 381.573 200.224C381.237 200.64 381.069 201.204 381.069 201.916V202.024C381.069 202.776 381.253 203.348 381.621 203.74C381.997 204.124 382.521 204.316 383.193 204.316C383.553 204.316 383.889 204.264 384.201 204.16C384.521 204.048 384.825 203.868 385.113 203.62L385.449 204.304C385.185 204.56 384.849 204.76 384.441 204.904C384.041 205.04 383.617 205.108 383.169 205.108ZM389.024 205.108C388.544 205.108 388.096 205.044 387.68 204.916C387.264 204.78 386.92 204.592 386.648 204.352L386.984 203.668C387.28 203.9 387.6 204.072 387.944 204.184C388.296 204.296 388.66 204.352 389.036 204.352C389.516 204.352 389.876 204.268 390.116 204.1C390.364 203.924 390.488 203.684 390.488 203.38C390.488 203.148 390.408 202.964 390.248 202.828C390.096 202.684 389.844 202.572 389.492 202.492L388.376 202.264C387.864 202.152 387.48 201.964 387.224 201.7C386.968 201.428 386.84 201.084 386.84 200.668C386.84 200.316 386.932 200.008 387.116 199.744C387.3 199.472 387.568 199.26 387.92 199.108C388.272 198.948 388.684 198.868 389.156 198.868C389.596 198.868 390 198.936 390.368 199.072C390.744 199.2 391.056 199.388 391.304 199.636L390.956 200.308C390.716 200.076 390.44 199.904 390.128 199.792C389.824 199.672 389.508 199.612 389.18 199.612C388.708 199.612 388.352 199.708 388.112 199.9C387.88 200.084 387.764 200.328 387.764 200.632C387.764 200.864 387.836 201.056 387.98 201.208C388.132 201.352 388.364 201.46 388.676 201.532L389.792 201.76C390.336 201.88 390.74 202.068 391.004 202.324C391.276 202.572 391.412 202.908 391.412 203.332C391.412 203.692 391.312 204.008 391.112 204.28C390.912 204.544 390.632 204.748 390.272 204.892C389.92 205.036 389.504 205.108 389.024 205.108Z" class="w7"/>
<path d="M268.847 299.12C267.967 299.12 267.211 298.944 266.579 298.592C265.955 298.232 265.475 297.728 265.139 297.08C264.803 296.424 264.635 295.652 264.635 294.764C264.635 293.876 264.803 293.108 265.139 292.46C265.475 291.812 265.955 291.312 266.579 290.96C267.211 290.6 267.967 290.42 268.847 290.42C269.439 290.42 269.971 290.504 270.443 290.672C270.923 290.84 271.335 291.088 271.679 291.416L271.175 292.64C270.799 292.336 270.435 292.12 270.083 291.992C269.739 291.856 269.343 291.788 268.895 291.788C268.039 291.788 267.383 292.048 266.927 292.568C266.479 293.08 266.255 293.812 266.255 294.764C266.255 295.716 266.479 296.452 266.927 296.972C267.383 297.492 268.039 297.752 268.895 297.752C269.343 297.752 269.739 297.688 270.083 297.56C270.435 297.424 270.799 297.2 271.175 296.888L271.679 298.112C271.335 298.432 270.923 298.68 270.443 298.856C269.971 299.032 269.439 299.12 268.847 299.12ZM275.32 299.12C274.696 299.12 274.156 298.992 273.7 298.736C273.244 298.48 272.888 298.116 272.632 297.644C272.384 297.172 272.26 296.612 272.26 295.964C272.26 295.316 272.384 294.76 272.632 294.296C272.888 293.824 273.244 293.46 273.7 293.204C274.156 292.948 274.696 292.82 275.32 292.82C275.944 292.82 276.484 292.948 276.94 293.204C277.404 293.46 277.76 293.824 278.008 294.296C278.264 294.76 278.392 295.316 278.392 295.964C278.392 296.612 278.264 297.172 278.008 297.644C277.76 298.116 277.404 298.48 276.94 298.736C276.484 298.992 275.944 299.12 275.32 299.12ZM275.32 297.968C275.792 297.968 276.168 297.804 276.448 297.476C276.728 297.14 276.868 296.636 276.868 295.964C276.868 295.292 276.728 294.792 276.448 294.464C276.168 294.136 275.792 293.972 275.32 293.972C274.848 293.972 274.472 294.136 274.192 294.464C273.912 294.792 273.772 295.292 273.772 295.964C273.772 296.636 273.912 297.14 274.192 297.476C274.472 297.804 274.848 297.968 275.32 297.968ZM281.845 299.12C281.325 299.12 280.845 299.06 280.405 298.94C279.973 298.812 279.609 298.636 279.313 298.412L279.733 297.404C280.037 297.612 280.373 297.772 280.741 297.884C281.109 297.996 281.481 298.052 281.857 298.052C282.257 298.052 282.553 297.984 282.745 297.848C282.945 297.712 283.045 297.528 283.045 297.296C283.045 297.112 282.981 296.968 282.853 296.864C282.733 296.752 282.537 296.668 282.265 296.612L281.065 296.384C280.553 296.272 280.161 296.08 279.889 295.808C279.625 295.536 279.493 295.18 279.493 294.74C279.493 294.364 279.593 294.032 279.793 293.744C280.001 293.456 280.293 293.232 280.669 293.072C281.053 292.904 281.501 292.82 282.013 292.82C282.461 292.82 282.881 292.88 283.273 293C283.673 293.12 284.009 293.3 284.281 293.54L283.849 294.512C283.601 294.312 283.317 294.156 282.997 294.044C282.677 293.932 282.365 293.876 282.061 293.876C281.645 293.876 281.341 293.952 281.149 294.104C280.957 294.248 280.861 294.436 280.861 294.668C280.861 294.844 280.917 294.992 281.029 295.112C281.149 295.224 281.333 295.308 281.581 295.364L282.781 295.592C283.317 295.696 283.721 295.88 283.993 296.144C284.273 296.4 284.413 296.752 284.413 297.2C284.413 297.6 284.305 297.944 284.089 298.232C283.873 298.52 283.573 298.74 283.189 298.892C282.805 299.044 282.357 299.12 281.845 299.12ZM288.23 299.12C287.51 299.12 286.966 298.932 286.598 298.556C286.23 298.18 286.046 297.616 286.046 296.864V294.068H284.882V292.94H286.046V291.392L287.546 291.008V292.94H289.166V294.068H287.546V296.768C287.546 297.184 287.626 297.476 287.786 297.644C287.946 297.812 288.166 297.896 288.446 297.896C288.598 297.896 288.726 297.884 288.83 297.86C288.942 297.836 289.05 297.804 289.154 297.764V298.952C289.018 299.008 288.866 299.048 288.698 299.072C288.538 299.104 288.382 299.12 288.23 299.12ZM296.214 299.12C295.59 299.12 295.05 298.992 294.594 298.736C294.138 298.48 293.782 298.116 293.526 297.644C293.278 297.172 293.154 296.612 293.154 295.964C293.154 295.316 293.278 294.76 293.526 294.296C293.782 293.824 294.138 293.46 294.594 293.204C295.05 292.948 295.59 292.82 296.214 292.82C296.838 292.82 297.378 292.948 297.834 293.204C298.298 293.46 298.654 293.824 298.902 294.296C299.158 294.76 299.286 295.316 299.286 295.964C299.286 296.612 299.158 297.172 298.902 297.644C298.654 298.116 298.298 298.48 297.834 298.736C297.378 298.992 296.838 299.12 296.214 299.12ZM296.214 297.968C296.686 297.968 297.062 297.804 297.342 297.476C297.622 297.14 297.762 296.636 297.762 295.964C297.762 295.292 297.622 294.792 297.342 294.464C297.062 294.136 296.686 293.972 296.214 293.972C295.742 293.972 295.366 294.136 295.086 294.464C294.806 294.792 294.666 295.292 294.666 295.964C294.666 296.636 294.806 297.14 295.086 297.476C295.366 297.804 295.742 297.968 296.214 297.968ZM300.929 299V294.068H299.765V292.94H301.349L300.929 293.324V292.4C300.929 291.648 301.121 291.08 301.505 290.696C301.897 290.312 302.469 290.12 303.221 290.12C303.397 290.12 303.581 290.132 303.773 290.156C303.973 290.18 304.145 290.224 304.289 290.288V291.464C304.185 291.424 304.061 291.392 303.917 291.368C303.773 291.344 303.633 291.332 303.497 291.332C303.289 291.332 303.101 291.372 302.933 291.452C302.773 291.532 302.645 291.656 302.549 291.824C302.461 291.984 302.417 292.2 302.417 292.472V293.204L302.201 292.94H304.013V294.068H302.429V299H300.929ZM308.232 299V290.168H309.732V299H308.232ZM311.361 299V292.94H312.861V299H311.361ZM311.277 291.8V290.336H312.945V291.8H311.277ZM316.266 299L313.65 292.94H315.246L317.142 297.68H316.77L318.714 292.94H320.214L317.586 299H316.266ZM321.017 299V292.94H322.517V299H321.017ZM320.933 291.8V290.336H322.601V291.8H320.933ZM324.146 299V294.452C324.146 294.204 324.138 293.952 324.122 293.696C324.106 293.44 324.082 293.188 324.05 292.94H325.502L325.622 294.14H325.478C325.67 293.716 325.954 293.392 326.33 293.168C326.706 292.936 327.142 292.82 327.638 292.82C328.35 292.82 328.886 293.02 329.246 293.42C329.606 293.82 329.786 294.444 329.786 295.292V299H328.286V295.364C328.286 294.876 328.19 294.528 327.998 294.32C327.814 294.104 327.534 293.996 327.158 293.996C326.694 293.996 326.326 294.14 326.054 294.428C325.782 294.716 325.646 295.1 325.646 295.58V299H324.146ZM334.185 301.688C333.625 301.688 333.117 301.628 332.661 301.508C332.213 301.388 331.813 301.204 331.461 300.956L331.785 299.876C332.017 300.028 332.257 300.152 332.505 300.248C332.753 300.344 333.009 300.416 333.273 300.464C333.537 300.512 333.805 300.536 334.077 300.536C334.637 300.536 335.053 300.396 335.325 300.116C335.605 299.844 335.745 299.452 335.745 298.94V297.488H335.865C335.737 297.904 335.477 298.236 335.085 298.484C334.701 298.732 334.257 298.856 333.753 298.856C333.209 298.856 332.733 298.736 332.325 298.496C331.925 298.248 331.613 297.896 331.389 297.44C331.165 296.984 331.053 296.448 331.053 295.832C331.053 295.216 331.165 294.684 331.389 294.236C331.613 293.78 331.925 293.432 332.325 293.192C332.733 292.944 333.209 292.82 333.753 292.82C334.265 292.82 334.709 292.944 335.085 293.192C335.469 293.432 335.725 293.76 335.853 294.176L335.745 294.104L335.865 292.94H337.317C337.285 293.188 337.261 293.44 337.245 293.696C337.229 293.952 337.221 294.204 337.221 294.452V298.76C337.221 299.712 336.961 300.436 336.441 300.932C335.929 301.436 335.177 301.688 334.185 301.688ZM334.161 297.704C334.641 297.704 335.021 297.544 335.301 297.224C335.589 296.896 335.733 296.432 335.733 295.832C335.733 295.232 335.589 294.772 335.301 294.452C335.021 294.132 334.641 293.972 334.161 293.972C333.673 293.972 333.285 294.132 332.997 294.452C332.709 294.772 332.565 295.232 332.565 295.832C332.565 296.432 332.709 296.896 332.997 297.224C333.285 297.544 333.673 297.704 334.161 297.704Z" class="w8"/>
<path d="M346.659 89.12C345.979 89.12 345.351 89.036 344.775 88.868C344.207 88.692 343.719 88.452 343.311 88.148L343.791 86.936C344.063 87.128 344.347 87.292 344.643 87.428C344.939 87.556 345.255 87.656 345.591 87.728C345.927 87.792 346.283 87.824 346.659 87.824C347.291 87.824 347.747 87.72 348.027 87.512C348.307 87.304 348.447 87.032 348.447 86.696C348.447 86.4 348.351 86.176 348.159 86.024C347.967 85.864 347.623 85.732 347.127 85.628L345.771 85.352C344.995 85.192 344.415 84.924 344.031 84.548C343.647 84.172 343.455 83.668 343.455 83.036C343.455 82.508 343.595 82.048 343.875 81.656C344.155 81.264 344.547 80.96 345.051 80.744C345.555 80.528 346.143 80.42 346.815 80.42C347.415 80.42 347.971 80.508 348.483 80.684C348.995 80.852 349.423 81.096 349.767 81.416L349.287 82.568C348.943 82.28 348.567 82.068 348.159 81.932C347.751 81.788 347.295 81.716 346.791 81.716C346.223 81.716 345.779 81.828 345.459 82.052C345.147 82.268 344.991 82.568 344.991 82.952C344.991 83.248 345.087 83.484 345.279 83.66C345.479 83.836 345.815 83.972 346.287 84.068L347.631 84.332C348.431 84.492 349.023 84.756 349.407 85.124C349.791 85.484 349.983 85.972 349.983 86.588C349.983 87.092 349.847 87.536 349.575 87.92C349.303 88.296 348.919 88.592 348.423 88.808C347.927 89.016 347.339 89.12 346.659 89.12ZM353.855 89.12C353.135 89.12 352.591 88.932 352.223 88.556C351.855 88.18 351.671 87.616 351.671 86.864V84.068H350.507V82.94H351.671V81.392L353.171 81.008V82.94H354.791V84.068H353.171V86.768C353.171 87.184 353.251 87.476 353.411 87.644C353.571 87.812 353.791 87.896 354.071 87.896C354.223 87.896 354.351 87.884 354.455 87.86C354.567 87.836 354.675 87.804 354.779 87.764V88.952C354.643 89.008 354.491 89.048 354.323 89.072C354.163 89.104 354.007 89.12 353.855 89.12ZM355.81 89V82.94H357.31V89H355.81ZM355.726 81.8V80.336H357.394V81.8H355.726ZM361.747 91.688C361.187 91.688 360.679 91.628 360.223 91.508C359.775 91.388 359.375 91.204 359.023 90.956L359.347 89.876C359.579 90.028 359.819 90.152 360.067 90.248C360.315 90.344 360.571 90.416 360.835 90.464C361.099 90.512 361.367 90.536 361.639 90.536C362.199 90.536 362.615 90.396 362.887 90.116C363.167 89.844 363.307 89.452 363.307 88.94V87.488H363.427C363.299 87.904 363.039 88.236 362.647 88.484C362.263 88.732 361.819 88.856 361.315 88.856C360.771 88.856 360.295 88.736 359.887 88.496C359.487 88.248 359.175 87.896 358.951 87.44C358.727 86.984 358.615 86.448 358.615 85.832C358.615 85.216 358.727 84.684 358.951 84.236C359.175 83.78 359.487 83.432 359.887 83.192C360.295 82.944 360.771 82.82 361.315 82.82C361.827 82.82 362.271 82.944 362.647 83.192C363.031 83.432 363.287 83.76 363.415 84.176L363.307 84.104L363.427 82.94H364.879C364.847 83.188 364.823 83.44 364.807 83.696C364.791 83.952 364.783 84.204 364.783 84.452V88.76C364.783 89.712 364.523 90.436 364.003 90.932C363.491 91.436 362.739 91.688 361.747 91.688ZM361.723 87.704C362.203 87.704 362.583 87.544 362.863 87.224C363.151 86.896 363.295 86.432 363.295 85.832C363.295 85.232 363.151 84.772 362.863 84.452C362.583 84.132 362.203 83.972 361.723 83.972C361.235 83.972 360.847 84.132 360.559 84.452C360.271 84.772 360.127 85.232 360.127 85.832C360.127 86.432 360.271 86.896 360.559 87.224C360.847 87.544 361.235 87.704 361.723 87.704ZM366.404 89V84.452C366.404 84.204 366.396 83.952 366.38 83.696C366.364 83.44 366.34 83.188 366.308 82.94H367.76L367.88 84.14H367.736C367.904 83.724 368.16 83.4 368.504 83.168C368.856 82.936 369.272 82.82 369.752 82.82C370.232 82.82 370.628 82.936 370.94 83.168C371.26 83.392 371.484 83.744 371.612 84.224H371.42C371.588 83.792 371.864 83.452 372.248 83.204C372.632 82.948 373.072 82.82 373.568 82.82C374.248 82.82 374.756 83.02 375.092 83.42C375.428 83.82 375.596 84.444 375.596 85.292V89H374.096V85.352C374.096 84.872 374.016 84.528 373.856 84.32C373.696 84.104 373.44 83.996 373.088 83.996C372.672 83.996 372.344 84.144 372.104 84.44C371.864 84.728 371.744 85.12 371.744 85.616V89H370.244V85.352C370.244 84.872 370.164 84.528 370.004 84.32C369.844 84.104 369.588 83.996 369.236 83.996C368.82 83.996 368.492 84.144 368.252 84.44C368.02 84.728 367.904 85.12 367.904 85.616V89H366.404ZM379.537 89.12C379.009 89.12 378.545 88.996 378.145 88.748C377.745 88.492 377.433 88.128 377.209 87.656C376.985 87.184 376.873 86.62 376.873 85.964C376.873 85.308 376.985 84.748 377.209 84.284C377.433 83.812 377.745 83.452 378.145 83.204C378.545 82.948 379.009 82.82 379.537 82.82C380.049 82.82 380.497 82.948 380.881 83.204C381.273 83.452 381.533 83.788 381.661 84.212H381.529L381.661 82.94H383.101C383.077 83.188 383.053 83.44 383.029 83.696C383.013 83.952 383.005 84.204 383.005 84.452V89H381.517L381.505 87.752H381.649C381.521 88.168 381.261 88.5 380.869 88.748C380.477 88.996 380.033 89.12 379.537 89.12ZM379.957 87.968C380.429 87.968 380.809 87.804 381.097 87.476C381.385 87.14 381.529 86.636 381.529 85.964C381.529 85.292 381.385 84.792 381.097 84.464C380.809 84.136 380.429 83.972 379.957 83.972C379.485 83.972 379.105 84.136 378.817 84.464C378.529 84.792 378.385 85.292 378.385 85.964C378.385 86.636 378.525 87.14 378.805 87.476C379.093 87.804 379.477 87.968 379.957 87.968ZM390.271 89.12C389.743 89.12 389.279 88.996 388.879 88.748C388.479 88.492 388.167 88.128 387.943 87.656C387.719 87.184 387.607 86.62 387.607 85.964C387.607 85.308 387.719 84.748 387.943 84.284C388.167 83.812 388.479 83.452 388.879 83.204C389.279 82.948 389.743 82.82 390.271 82.82C390.783 82.82 391.231 82.948 391.615 83.204C392.007 83.452 392.267 83.788 392.395 84.212H392.263L392.395 82.94H393.835C393.811 83.188 393.787 83.44 393.763 83.696C393.747 83.952 393.739 84.204 393.739 84.452V89H392.251L392.239 87.752H392.383C392.255 88.168 391.995 88.5 391.603 88.748C391.211 88.996 390.767 89.12 390.271 89.12ZM390.691 87.968C391.163 87.968 391.543 87.804 391.831 87.476C392.119 87.14 392.263 86.636 392.263 85.964C392.263 85.292 392.119 84.792 391.831 84.464C391.543 84.136 391.163 83.972 390.691 83.972C390.219 83.972 389.839 84.136 389.551 84.464C389.263 84.792 389.119 85.292 389.119 85.964C389.119 86.636 389.259 87.14 389.539 87.476C389.827 87.804 390.211 87.968 390.691 87.968ZM395.373 89V84.452C395.373 84.204 395.365 83.952 395.349 83.696C395.333 83.44 395.309 83.188 395.277 82.94H396.729L396.849 84.14H396.705C396.897 83.716 397.181 83.392 397.557 83.168C397.933 82.936 398.369 82.82 398.865 82.82C399.577 82.82 400.113 83.02 400.473 83.42C400.833 83.82 401.013 84.444 401.013 85.292V89H399.513V85.364C399.513 84.876 399.417 84.528 399.225 84.32C399.041 84.104 398.761 83.996 398.385 83.996C397.921 83.996 397.553 84.14 397.281 84.428C397.009 84.716 396.873 85.1 396.873 85.58V89H395.373ZM404.955 89.12C404.427 89.12 403.959 88.996 403.551 88.748C403.151 88.492 402.839 88.128 402.615 87.656C402.391 87.184 402.279 86.62 402.279 85.964C402.279 85.308 402.391 84.748 402.615 84.284C402.839 83.812 403.151 83.452 403.551 83.204C403.959 82.948 404.427 82.82 404.955 82.82C405.459 82.82 405.903 82.944 406.287 83.192C406.679 83.432 406.939 83.76 407.067 84.176H406.911V80.168H408.411V89H406.935V87.716H407.079C406.951 88.148 406.691 88.492 406.299 88.748C405.915 88.996 405.467 89.12 404.955 89.12ZM405.375 87.968C405.847 87.968 406.227 87.804 406.515 87.476C406.803 87.14 406.947 86.636 406.947 85.964C406.947 85.292 406.803 84.792 406.515 84.464C406.227 84.136 405.847 83.972 405.375 83.972C404.903 83.972 404.519 84.136 404.223 84.464C403.935 84.792 403.791 85.292 403.791 85.964C403.791 86.636 403.935 87.14 404.223 87.476C404.519 87.804 404.903 87.968 405.375 87.968ZM349.052 106.664C348.9 106.664 348.736 106.652 348.56 106.628C348.376 106.604 348.216 106.564 348.08 106.508V105.32C348.184 105.352 348.296 105.38 348.416 105.404C348.536 105.428 348.652 105.44 348.764 105.44C349.052 105.44 349.276 105.352 349.436 105.176C349.604 105 349.688 104.704 349.688 104.288V97.94H351.188V104.372C351.188 105.124 351.016 105.692 350.672 106.076C350.328 106.468 349.788 106.664 349.052 106.664ZM349.592 96.8V95.336H351.26V96.8H349.592ZM354.965 104.12C354.221 104.12 353.665 103.916 353.297 103.508C352.929 103.1 352.745 102.476 352.745 101.636V97.94H354.245V101.624C354.245 102.072 354.337 102.404 354.521 102.62C354.705 102.828 354.985 102.932 355.361 102.932C355.785 102.932 356.129 102.788 356.393 102.5C356.665 102.212 356.801 101.832 356.801 101.36V97.94H358.301V104H356.837V102.764H357.005C356.829 103.196 356.561 103.532 356.201 103.772C355.849 104.004 355.437 104.12 354.965 104.12ZM362.281 104.12C361.753 104.12 361.285 103.996 360.877 103.748C360.477 103.492 360.165 103.128 359.941 102.656C359.717 102.184 359.605 101.62 359.605 100.964C359.605 100.308 359.717 99.748 359.941 99.284C360.165 98.812 360.477 98.452 360.877 98.204C361.285 97.948 361.753 97.82 362.281 97.82C362.785 97.82 363.229 97.944 363.613 98.192C364.005 98.432 364.265 98.76 364.393 99.176H364.237V95.168H365.737V104H364.261V102.716H364.405C364.277 103.148 364.017 103.492 363.625 103.748C363.241 103.996 362.793 104.12 362.281 104.12ZM362.701 102.968C363.173 102.968 363.553 102.804 363.841 102.476C364.129 102.14 364.273 101.636 364.273 100.964C364.273 100.292 364.129 99.792 363.841 99.464C363.553 99.136 363.173 98.972 362.701 98.972C362.229 98.972 361.845 99.136 361.549 99.464C361.261 99.792 361.117 100.292 361.117 100.964C361.117 101.636 361.261 102.14 361.549 102.476C361.845 102.804 362.229 102.968 362.701 102.968ZM370.179 106.688C369.619 106.688 369.111 106.628 368.655 106.508C368.207 106.388 367.807 106.204 367.455 105.956L367.779 104.876C368.011 105.028 368.251 105.152 368.499 105.248C368.747 105.344 369.003 105.416 369.267 105.464C369.531 105.512 369.799 105.536 370.071 105.536C370.631 105.536 371.047 105.396 371.319 105.116C371.599 104.844 371.739 104.452 371.739 103.94V102.488H371.859C371.731 102.904 371.471 103.236 371.079 103.484C370.695 103.732 370.251 103.856 369.747 103.856C369.203 103.856 368.727 103.736 368.319 103.496C367.919 103.248 367.607 102.896 367.383 102.44C367.159 101.984 367.047 101.448 367.047 100.832C367.047 100.216 367.159 99.684 367.383 99.236C367.607 98.78 367.919 98.432 368.319 98.192C368.727 97.944 369.203 97.82 369.747 97.82C370.259 97.82 370.703 97.944 371.079 98.192C371.463 98.432 371.719 98.76 371.847 99.176L371.739 99.104L371.859 97.94H373.311C373.279 98.188 373.255 98.44 373.239 98.696C373.223 98.952 373.215 99.204 373.215 99.452V103.76C373.215 104.712 372.955 105.436 372.435 105.932C371.923 106.436 371.171 106.688 370.179 106.688ZM370.155 102.704C370.635 102.704 371.015 102.544 371.295 102.224C371.583 101.896 371.727 101.432 371.727 100.832C371.727 100.232 371.583 99.772 371.295 99.452C371.015 99.132 370.635 98.972 370.155 98.972C369.667 98.972 369.279 99.132 368.991 99.452C368.703 99.772 368.559 100.232 368.559 100.832C368.559 101.432 368.703 101.896 368.991 102.224C369.279 102.544 369.667 102.704 370.155 102.704ZM374.836 104V99.452C374.836 99.204 374.828 98.952 374.812 98.696C374.796 98.44 374.772 98.188 374.74 97.94H376.192L376.312 99.14H376.168C376.336 98.724 376.592 98.4 376.936 98.168C377.288 97.936 377.704 97.82 378.184 97.82C378.664 97.82 379.06 97.936 379.372 98.168C379.692 98.392 379.916 98.744 380.044 99.224H379.852C380.02 98.792 380.296 98.452 380.68 98.204C381.064 97.948 381.504 97.82 382 97.82C382.68 97.82 383.188 98.02 383.524 98.42C383.86 98.82 384.028 99.444 384.028 100.292V104H382.528V100.352C382.528 99.872 382.448 99.528 382.288 99.32C382.128 99.104 381.872 98.996 381.52 98.996C381.104 98.996 380.776 99.144 380.536 99.44C380.296 99.728 380.176 100.12 380.176 100.616V104H378.676V100.352C378.676 99.872 378.596 99.528 378.436 99.32C378.276 99.104 378.02 98.996 377.668 98.996C377.252 98.996 376.924 99.144 376.684 99.44C376.452 99.728 376.336 100.12 376.336 100.616V104H374.836ZM388.557 104.12C387.541 104.12 386.745 103.84 386.169 103.28C385.593 102.72 385.305 101.952 385.305 100.976C385.305 100.344 385.429 99.792 385.677 99.32C385.925 98.848 386.269 98.48 386.709 98.216C387.157 97.952 387.677 97.82 388.269 97.82C388.853 97.82 389.341 97.944 389.733 98.192C390.125 98.44 390.421 98.788 390.621 99.236C390.829 99.684 390.933 100.208 390.933 100.808V101.204H386.517V100.412H389.865L389.661 100.58C389.661 100.02 389.541 99.592 389.301 99.296C389.069 99 388.729 98.852 388.281 98.852C387.785 98.852 387.401 99.028 387.129 99.38C386.865 99.732 386.733 100.224 386.733 100.856V101.012C386.733 101.668 386.893 102.16 387.213 102.488C387.541 102.808 388.001 102.968 388.593 102.968C388.937 102.968 389.257 102.924 389.553 102.836C389.857 102.74 390.145 102.588 390.417 102.38L390.861 103.388C390.573 103.62 390.229 103.8 389.829 103.928C389.429 104.056 389.005 104.12 388.557 104.12ZM392.203 104V99.452C392.203 99.204 392.195 98.952 392.179 98.696C392.163 98.44 392.139 98.188 392.107 97.94H393.559L393.679 99.14H393.535C393.727 98.716 394.011 98.392 394.387 98.168C394.763 97.936 395.199 97.82 395.695 97.82C396.407 97.82 396.943 98.02 397.303 98.42C397.663 98.82 397.843 99.444 397.843 100.292V104H396.343V100.364C396.343 99.876 396.247 99.528 396.055 99.32C395.871 99.104 395.591 98.996 395.215 98.996C394.751 98.996 394.383 99.14 394.111 99.428C393.839 99.716 393.703 100.1 393.703 100.58V104H392.203ZM402.025 104.12C401.305 104.12 400.761 103.932 400.393 103.556C400.025 103.18 399.841 102.616 399.841 101.864V99.068H398.677V97.94H399.841V96.392L401.341 96.008V97.94H402.961V99.068H401.341V101.768C401.341 102.184 401.421 102.476 401.581 102.644C401.741 102.812 401.961 102.896 402.241 102.896C402.393 102.896 402.521 102.884 402.625 102.86C402.737 102.836 402.845 102.804 402.949 102.764V103.952C402.813 104.008 402.661 104.048 402.493 104.072C402.333 104.104 402.177 104.12 402.025 104.12Z" class="w8"/>
<path d="M76.9758 292L80.7078 283.54H81.5718L85.3638 292H84.3318L83.2758 289.588L83.7198 289.84H78.5478L79.0278 289.588L77.9958 292H76.9758ZM81.1278 284.68L79.1838 289.24L78.8958 289.024H83.3598L83.1438 289.24L81.1518 284.68H81.1278ZM89.0054 292.108C88.4134 292.108 87.8974 291.98 87.4574 291.724C87.0254 291.468 86.6894 291.104 86.4494 290.632C86.2174 290.16 86.1014 289.6 86.1014 288.952C86.1014 288.296 86.2214 287.74 86.4614 287.284C86.7014 286.82 87.0374 286.468 87.4694 286.228C87.9094 285.988 88.4214 285.868 89.0054 285.868C89.3894 285.868 89.7614 285.936 90.1214 286.072C90.4894 286.208 90.7934 286.4 91.0334 286.648L90.6854 287.344C90.4454 287.112 90.1814 286.94 89.8934 286.828C89.6134 286.716 89.3374 286.66 89.0654 286.66C88.4414 286.66 87.9574 286.856 87.6134 287.248C87.2694 287.64 87.0974 288.212 87.0974 288.964C87.0974 289.708 87.2694 290.284 87.6134 290.692C87.9574 291.1 88.4414 291.304 89.0654 291.304C89.3294 291.304 89.6014 291.252 89.8814 291.148C90.1694 291.044 90.4374 290.872 90.6854 290.632L91.0334 291.316C90.7854 291.572 90.4774 291.768 90.1094 291.904C89.7414 292.04 89.3734 292.108 89.0054 292.108ZM94.8296 292.108C94.2376 292.108 93.7216 291.98 93.2816 291.724C92.8496 291.468 92.5136 291.104 92.2736 290.632C92.0416 290.16 91.9256 289.6 91.9256 288.952C91.9256 288.296 92.0456 287.74 92.2856 287.284C92.5256 286.82 92.8616 286.468 93.2936 286.228C93.7336 285.988 94.2456 285.868 94.8296 285.868C95.2136 285.868 95.5856 285.936 95.9456 286.072C96.3136 286.208 96.6176 286.4 96.8576 286.648L96.5096 287.344C96.2696 287.112 96.0056 286.94 95.7176 286.828C95.4376 286.716 95.1616 286.66 94.8896 286.66C94.2656 286.66 93.7816 286.856 93.4376 287.248C93.0936 287.64 92.9216 288.212 92.9216 288.964C92.9216 289.708 93.0936 290.284 93.4376 290.692C93.7816 291.1 94.2656 291.304 94.8896 291.304C95.1536 291.304 95.4256 291.252 95.7056 291.148C95.9936 291.044 96.2616 290.872 96.5096 290.632L96.8576 291.316C96.6096 291.572 96.3016 291.768 95.9336 291.904C95.5656 292.04 95.1976 292.108 94.8296 292.108ZM100.594 292.108C100.018 292.108 99.5138 291.984 99.0818 291.736C98.6578 291.48 98.3298 291.12 98.0978 290.656C97.8658 290.184 97.7498 289.628 97.7498 288.988C97.7498 288.34 97.8658 287.784 98.0978 287.32C98.3298 286.856 98.6578 286.5 99.0818 286.252C99.5138 285.996 100.018 285.868 100.594 285.868C101.178 285.868 101.682 285.996 102.106 286.252C102.538 286.5 102.87 286.856 103.102 287.32C103.342 287.784 103.462 288.34 103.462 288.988C103.462 289.628 103.342 290.184 103.102 290.656C102.87 291.12 102.538 291.48 102.106 291.736C101.682 291.984 101.178 292.108 100.594 292.108ZM100.594 291.316C101.17 291.316 101.626 291.12 101.962 290.728C102.298 290.328 102.466 289.748 102.466 288.988C102.466 288.22 102.294 287.64 101.95 287.248C101.614 286.848 101.162 286.648 100.594 286.648C100.026 286.648 99.5738 286.848 99.2378 287.248C98.9018 287.64 98.7338 288.22 98.7338 288.988C98.7338 289.748 98.9018 290.328 99.2378 290.728C99.5738 291.12 100.026 291.316 100.594 291.316ZM104.977 292V287.368C104.977 287.144 104.965 286.916 104.941 286.684C104.925 286.444 104.905 286.208 104.881 285.976H105.817L105.937 287.296H105.793C105.953 286.84 106.205 286.488 106.549 286.24C106.901 285.992 107.325 285.868 107.821 285.868C108.325 285.868 108.733 285.988 109.045 286.228C109.365 286.468 109.581 286.84 109.693 287.344H109.513C109.665 286.888 109.933 286.528 110.317 286.264C110.701 286 111.149 285.868 111.661 285.868C112.325 285.868 112.825 286.06 113.161 286.444C113.497 286.82 113.665 287.416 113.665 288.232V292H112.693V288.292C112.693 287.724 112.593 287.312 112.393 287.056C112.193 286.792 111.873 286.66 111.433 286.66C110.929 286.66 110.529 286.836 110.233 287.188C109.945 287.532 109.801 287.996 109.801 288.58V292H108.829V288.292C108.829 287.724 108.729 287.312 108.529 287.056C108.329 286.792 108.009 286.66 107.569 286.66C107.065 286.66 106.669 286.836 106.381 287.188C106.093 287.532 105.949 287.996 105.949 288.58V292H104.977ZM115.512 292V287.368C115.512 287.144 115.5 286.916 115.476 286.684C115.46 286.444 115.44 286.208 115.416 285.976H116.352L116.472 287.296H116.328C116.488 286.84 116.74 286.488 117.084 286.24C117.436 285.992 117.86 285.868 118.356 285.868C118.86 285.868 119.268 285.988 119.58 286.228C119.9 286.468 120.116 286.84 120.228 287.344H120.048C120.2 286.888 120.468 286.528 120.852 286.264C121.236 286 121.684 285.868 122.196 285.868C122.86 285.868 123.36 286.06 123.696 286.444C124.032 286.82 124.2 287.416 124.2 288.232V292H123.228V288.292C123.228 287.724 123.128 287.312 122.928 287.056C122.728 286.792 122.408 286.66 121.968 286.66C121.464 286.66 121.064 286.836 120.768 287.188C120.48 287.532 120.336 287.996 120.336 288.58V292H119.364V288.292C119.364 287.724 119.264 287.312 119.064 287.056C118.864 286.792 118.544 286.66 118.104 286.66C117.6 286.66 117.204 286.836 116.916 287.188C116.628 287.532 116.484 287.996 116.484 288.58V292H115.512ZM128.52 292.108C127.944 292.108 127.44 291.984 127.008 291.736C126.584 291.48 126.256 291.12 126.024 290.656C125.792 290.184 125.676 289.628 125.676 288.988C125.676 288.34 125.792 287.784 126.024 287.32C126.256 286.856 126.584 286.5 127.008 286.252C127.44 285.996 127.944 285.868 128.52 285.868C129.104 285.868 129.608 285.996 130.032 286.252C130.464 286.5 130.796 286.856 131.028 287.32C131.268 287.784 131.388 288.34 131.388 288.988C131.388 289.628 131.268 290.184 131.028 290.656C130.796 291.12 130.464 291.48 130.032 291.736C129.608 291.984 129.104 292.108 128.52 292.108ZM128.52 291.316C129.096 291.316 129.552 291.12 129.888 290.728C130.224 290.328 130.392 289.748 130.392 288.988C130.392 288.22 130.22 287.64 129.876 287.248C129.54 286.848 129.088 286.648 128.52 286.648C127.952 286.648 127.5 286.848 127.164 287.248C126.828 287.64 126.66 288.22 126.66 288.988C126.66 289.748 126.828 290.328 127.164 290.728C127.5 291.12 127.952 291.316 128.52 291.316ZM135.183 292.108C134.655 292.108 134.191 291.984 133.791 291.736C133.391 291.48 133.079 291.12 132.855 290.656C132.639 290.192 132.531 289.636 132.531 288.988C132.531 288.332 132.639 287.772 132.855 287.308C133.079 286.844 133.391 286.488 133.791 286.24C134.191 285.992 134.655 285.868 135.183 285.868C135.727 285.868 136.195 286.004 136.587 286.276C136.987 286.548 137.255 286.916 137.391 287.38H137.247V283.168H138.219V292H137.259V290.56H137.391C137.263 291.04 136.999 291.42 136.599 291.7C136.199 291.972 135.727 292.108 135.183 292.108ZM135.387 291.316C135.955 291.316 136.411 291.12 136.755 290.728C137.099 290.328 137.271 289.748 137.271 288.988C137.271 288.22 137.099 287.64 136.755 287.248C136.411 286.848 135.955 286.648 135.387 286.648C134.819 286.648 134.363 286.848 134.019 287.248C133.683 287.64 133.515 288.22 133.515 288.988C133.515 289.748 133.683 290.328 134.019 290.728C134.363 291.12 134.819 291.316 135.387 291.316ZM142.39 292.108C141.854 292.108 141.386 291.984 140.986 291.736C140.586 291.48 140.274 291.12 140.05 290.656C139.834 290.192 139.726 289.636 139.726 288.988C139.726 288.332 139.834 287.772 140.05 287.308C140.274 286.844 140.586 286.488 140.986 286.24C141.386 285.992 141.854 285.868 142.39 285.868C142.934 285.868 143.402 286.008 143.794 286.288C144.194 286.56 144.458 286.932 144.586 287.404H144.442L144.574 285.976H145.51C145.486 286.208 145.462 286.444 145.438 286.684C145.422 286.916 145.414 287.144 145.414 287.368V292H144.442V290.584H144.574C144.446 291.056 144.182 291.428 143.782 291.7C143.382 291.972 142.918 292.108 142.39 292.108ZM142.582 291.316C143.158 291.316 143.614 291.12 143.95 290.728C144.286 290.328 144.454 289.748 144.454 288.988C144.454 288.22 144.286 287.64 143.95 287.248C143.614 286.848 143.158 286.648 142.582 286.648C142.014 286.648 141.558 286.848 141.214 287.248C140.878 287.64 140.71 288.22 140.71 288.988C140.71 289.748 140.878 290.328 141.214 290.728C141.558 291.12 142.014 291.316 142.582 291.316ZM149.43 292.108C148.838 292.108 148.386 291.94 148.074 291.604C147.762 291.26 147.606 290.744 147.606 290.056V286.732H146.43V285.976H147.606V284.332L148.578 284.056V285.976H150.306V286.732H148.578V289.948C148.578 290.428 148.658 290.772 148.818 290.98C148.986 291.18 149.234 291.28 149.562 291.28C149.714 291.28 149.85 291.268 149.97 291.244C150.09 291.212 150.198 291.176 150.294 291.136V291.952C150.182 292 150.046 292.036 149.886 292.06C149.734 292.092 149.582 292.108 149.43 292.108ZM151.489 292V285.976H152.461V292H151.489ZM151.369 284.608V283.516H152.569V284.608H151.369ZM156.82 292.108C156.244 292.108 155.74 291.984 155.308 291.736C154.884 291.48 154.556 291.12 154.324 290.656C154.092 290.184 153.976 289.628 153.976 288.988C153.976 288.34 154.092 287.784 154.324 287.32C154.556 286.856 154.884 286.5 155.308 286.252C155.74 285.996 156.244 285.868 156.82 285.868C157.404 285.868 157.908 285.996 158.332 286.252C158.764 286.5 159.096 286.856 159.328 287.32C159.568 287.784 159.688 288.34 159.688 288.988C159.688 289.628 159.568 290.184 159.328 290.656C159.096 291.12 158.764 291.48 158.332 291.736C157.908 291.984 157.404 292.108 156.82 292.108ZM156.82 291.316C157.396 291.316 157.852 291.12 158.188 290.728C158.524 290.328 158.692 289.748 158.692 288.988C158.692 288.22 158.52 287.64 158.176 287.248C157.84 286.848 157.388 286.648 156.82 286.648C156.252 286.648 155.8 286.848 155.464 287.248C155.128 287.64 154.96 288.22 154.96 288.988C154.96 289.748 155.128 290.328 155.464 290.728C155.8 291.12 156.252 291.316 156.82 291.316ZM161.204 292V287.368C161.204 287.144 161.192 286.916 161.168 286.684C161.152 286.444 161.132 286.208 161.108 285.976H162.044L162.164 287.296H162.02C162.196 286.832 162.476 286.48 162.86 286.24C163.252 285.992 163.704 285.868 164.216 285.868C164.928 285.868 165.464 286.06 165.824 286.444C166.192 286.82 166.376 287.416 166.376 288.232V292H165.404V288.292C165.404 287.724 165.288 287.312 165.056 287.056C164.832 286.792 164.48 286.66 164 286.66C163.44 286.66 162.996 286.832 162.668 287.176C162.34 287.52 162.176 287.98 162.176 288.556V292H161.204ZM170.239 292.108C169.759 292.108 169.311 292.044 168.895 291.916C168.479 291.78 168.135 291.592 167.863 291.352L168.199 290.668C168.495 290.9 168.815 291.072 169.159 291.184C169.511 291.296 169.875 291.352 170.251 291.352C170.731 291.352 171.091 291.268 171.331 291.1C171.579 290.924 171.703 290.684 171.703 290.38C171.703 290.148 171.623 289.964 171.463 289.828C171.311 289.684 171.059 289.572 170.707 289.492L169.591 289.264C169.079 289.152 168.695 288.964 168.439 288.7C168.183 288.428 168.055 288.084 168.055 287.668C168.055 287.316 168.147 287.008 168.331 286.744C168.515 286.472 168.783 286.26 169.135 286.108C169.487 285.948 169.899 285.868 170.371 285.868C170.811 285.868 171.215 285.936 171.583 286.072C171.959 286.2 172.271 286.388 172.519 286.636L172.171 287.308C171.931 287.076 171.655 286.904 171.343 286.792C171.039 286.672 170.723 286.612 170.395 286.612C169.923 286.612 169.567 286.708 169.327 286.9C169.095 287.084 168.979 287.328 168.979 287.632C168.979 287.864 169.051 288.056 169.195 288.208C169.347 288.352 169.579 288.46 169.891 288.532L171.007 288.76C171.551 288.88 171.955 289.068 172.219 289.324C172.491 289.572 172.627 289.908 172.627 290.332C172.627 290.692 172.527 291.008 172.327 291.28C172.127 291.544 171.847 291.748 171.487 291.892C171.135 292.036 170.719 292.108 170.239 292.108ZM107.111 307.108C106.575 307.108 106.107 306.984 105.707 306.736C105.307 306.48 104.995 306.12 104.771 305.656C104.555 305.192 104.447 304.636 104.447 303.988C104.447 303.332 104.555 302.772 104.771 302.308C104.995 301.844 105.307 301.488 105.707 301.24C106.107 300.992 106.575 300.868 107.111 300.868C107.655 300.868 108.123 301.008 108.515 301.288C108.915 301.56 109.179 301.932 109.307 302.404H109.163L109.295 300.976H110.231C110.207 301.208 110.183 301.444 110.159 301.684C110.143 301.916 110.135 302.144 110.135 302.368V307H109.163V305.584H109.295C109.167 306.056 108.903 306.428 108.503 306.7C108.103 306.972 107.639 307.108 107.111 307.108ZM107.303 306.316C107.879 306.316 108.335 306.12 108.671 305.728C109.007 305.328 109.175 304.748 109.175 303.988C109.175 303.22 109.007 302.64 108.671 302.248C108.335 301.848 107.879 301.648 107.303 301.648C106.735 301.648 106.279 301.848 105.935 302.248C105.599 302.64 105.431 303.22 105.431 303.988C105.431 304.748 105.599 305.328 105.935 305.728C106.279 306.12 106.735 306.316 107.303 306.316ZM114.15 307.108C113.558 307.108 113.106 306.94 112.794 306.604C112.482 306.26 112.326 305.744 112.326 305.056V301.732H111.15V300.976H112.326V299.332L113.298 299.056V300.976H115.026V301.732H113.298V304.948C113.298 305.428 113.378 305.772 113.538 305.98C113.706 306.18 113.954 306.28 114.282 306.28C114.434 306.28 114.57 306.268 114.69 306.244C114.81 306.212 114.918 306.176 115.014 306.136V306.952C114.902 307 114.766 307.036 114.606 307.06C114.454 307.092 114.302 307.108 114.15 307.108ZM120.947 307L118.715 300.976H119.747L121.607 306.28H121.295L123.215 300.976H124.055L125.939 306.28H125.639L127.511 300.976H128.495L126.251 307H125.315L123.371 301.612H123.851L121.895 307H120.947ZM132.158 307.108C131.582 307.108 131.078 306.984 130.646 306.736C130.222 306.48 129.894 306.12 129.662 305.656C129.43 305.184 129.314 304.628 129.314 303.988C129.314 303.34 129.43 302.784 129.662 302.32C129.894 301.856 130.222 301.5 130.646 301.252C131.078 300.996 131.582 300.868 132.158 300.868C132.742 300.868 133.246 300.996 133.67 301.252C134.102 301.5 134.434 301.856 134.666 302.32C134.906 302.784 135.026 303.34 135.026 303.988C135.026 304.628 134.906 305.184 134.666 305.656C134.434 306.12 134.102 306.48 133.67 306.736C133.246 306.984 132.742 307.108 132.158 307.108ZM132.158 306.316C132.734 306.316 133.19 306.12 133.526 305.728C133.862 305.328 134.03 304.748 134.03 303.988C134.03 303.22 133.858 302.64 133.514 302.248C133.178 301.848 132.726 301.648 132.158 301.648C131.59 301.648 131.138 301.848 130.802 302.248C130.466 302.64 130.298 303.22 130.298 303.988C130.298 304.748 130.466 305.328 130.802 305.728C131.138 306.12 131.59 306.316 132.158 306.316ZM136.518 307V302.428C136.518 302.188 136.51 301.944 136.494 301.696C136.486 301.448 136.47 301.208 136.446 300.976H137.382L137.502 302.44L137.334 302.452C137.414 302.092 137.554 301.796 137.754 301.564C137.954 301.332 138.19 301.16 138.462 301.048C138.734 300.928 139.018 300.868 139.314 300.868C139.434 300.868 139.538 300.872 139.626 300.88C139.722 300.888 139.81 300.908 139.89 300.94L139.878 301.804C139.758 301.764 139.646 301.74 139.542 301.732C139.446 301.716 139.334 301.708 139.206 301.708C138.854 301.708 138.546 301.792 138.282 301.96C138.026 302.128 137.83 302.344 137.694 302.608C137.566 302.872 137.502 303.152 137.502 303.448V307H136.518ZM140.901 307V298.168H141.873V303.652H141.897L144.693 300.976H145.917L142.617 304.12L142.641 303.628L146.229 307H144.969L141.897 304.168H141.873V307H140.901Z" class="w7"/>
<path d="M4.04994 190.12C2.84194 190.12 1.94194 189.82 1.34994 189.22C0.765938 188.612 0.473938 187.716 0.473938 186.532L0.473938 181.54H2.02194V186.52C2.02194 187.272 2.18194 187.84 2.50194 188.224C2.82994 188.608 3.34594 188.8 4.04994 188.8C4.72194 188.8 5.22594 188.608 5.56194 188.224C5.90594 187.84 6.07794 187.272 6.07794 186.52V181.54H7.60194V186.532C7.60194 187.716 7.30194 188.612 6.70194 189.22C6.10994 189.82 5.22594 190.12 4.04994 190.12ZM9.28475 190V185.452C9.28475 185.204 9.27675 184.952 9.26075 184.696C9.24475 184.44 9.22075 184.188 9.18875 183.94H10.6408L10.7608 185.14H10.6168C10.8088 184.716 11.0928 184.392 11.4688 184.168C11.8448 183.936 12.2808 183.82 12.7768 183.82C13.4888 183.82 14.0248 184.02 14.3848 184.42C14.7448 184.82 14.9248 185.444 14.9248 186.292V190H13.4248V186.364C13.4248 185.876 13.3288 185.528 13.1368 185.32C12.9528 185.104 12.6728 184.996 12.2968 184.996C11.8328 184.996 11.4648 185.14 11.1928 185.428C10.9208 185.716 10.7848 186.1 10.7848 186.58V190H9.28475ZM19.4432 190.12C18.4272 190.12 17.6312 189.84 17.0552 189.28C16.4792 188.72 16.1912 187.952 16.1912 186.976C16.1912 186.344 16.3152 185.792 16.5632 185.32C16.8112 184.848 17.1552 184.48 17.5952 184.216C18.0432 183.952 18.5632 183.82 19.1552 183.82C19.7392 183.82 20.2272 183.944 20.6192 184.192C21.0112 184.44 21.3072 184.788 21.5072 185.236C21.7152 185.684 21.8192 186.208 21.8192 186.808V187.204H17.4032V186.412H20.7512L20.5472 186.58C20.5472 186.02 20.4272 185.592 20.1872 185.296C19.9552 185 19.6152 184.852 19.1672 184.852C18.6712 184.852 18.2872 185.028 18.0152 185.38C17.7512 185.732 17.6192 186.224 17.6192 186.856V187.012C17.6192 187.668 17.7792 188.16 18.0992 188.488C18.4272 188.808 18.8872 188.968 19.4792 188.968C19.8232 188.968 20.1432 188.924 20.4392 188.836C20.7432 188.74 21.0312 188.588 21.3032 188.38L21.7472 189.388C21.4592 189.62 21.1152 189.8 20.7152 189.928C20.3152 190.056 19.8912 190.12 19.4432 190.12ZM22.1183 190L24.9383 186.532V187.216L22.2743 183.94H24.0503L25.7903 186.184H25.2503L26.9903 183.94H28.7543L26.1143 187.216V186.532L28.9223 190H27.1343L25.2503 187.588H25.7903L23.8943 190H22.1183ZM29.6402 192.592V185.452C29.6402 185.204 29.6322 184.952 29.6162 184.696C29.6002 184.44 29.5762 184.188 29.5442 183.94H30.9962L31.1282 185.212H30.9962C31.1162 184.788 31.3682 184.452 31.7522 184.204C32.1442 183.948 32.5962 183.82 33.1082 183.82C33.6442 183.82 34.1122 183.948 34.5122 184.204C34.9122 184.452 35.2242 184.812 35.4482 185.284C35.6722 185.748 35.7842 186.308 35.7842 186.964C35.7842 187.62 35.6722 188.184 35.4482 188.656C35.2242 189.128 34.9122 189.492 34.5122 189.748C34.1122 189.996 33.6442 190.12 33.1082 190.12C32.6042 190.12 32.1602 189.996 31.7762 189.748C31.3922 189.5 31.1362 189.168 31.0082 188.752H31.1402V192.592H29.6402ZM32.6882 188.968C33.1682 188.968 33.5522 188.804 33.8402 188.476C34.1282 188.14 34.2722 187.636 34.2722 186.964C34.2722 186.292 34.1282 185.792 33.8402 185.464C33.5522 185.136 33.1682 184.972 32.6882 184.972C32.2162 184.972 31.8362 185.136 31.5482 185.464C31.2602 185.792 31.1162 186.292 31.1162 186.964C31.1162 187.636 31.2602 188.14 31.5482 188.476C31.8362 188.804 32.2162 188.968 32.6882 188.968ZM40.0096 190.12C38.9936 190.12 38.1976 189.84 37.6216 189.28C37.0456 188.72 36.7576 187.952 36.7576 186.976C36.7576 186.344 36.8816 185.792 37.1296 185.32C37.3776 184.848 37.7216 184.48 38.1616 184.216C38.6096 183.952 39.1296 183.82 39.7216 183.82C40.3056 183.82 40.7936 183.944 41.1856 184.192C41.5776 184.44 41.8736 184.788 42.0736 185.236C42.2816 185.684 42.3856 186.208 42.3856 186.808V187.204H37.9696V186.412H41.3176L41.1136 186.58C41.1136 186.02 40.9936 185.592 40.7536 185.296C40.5216 185 40.1816 184.852 39.7336 184.852C39.2376 184.852 38.8536 185.028 38.5816 185.38C38.3176 185.732 38.1856 186.224 38.1856 186.856V187.012C38.1856 187.668 38.3456 188.16 38.6656 188.488C38.9936 188.808 39.4536 188.968 40.0456 188.968C40.3896 188.968 40.7096 188.924 41.0056 188.836C41.3096 188.74 41.5976 188.588 41.8696 188.38L42.3136 189.388C42.0256 189.62 41.6816 189.8 41.2816 189.928C40.8816 190.056 40.4576 190.12 40.0096 190.12ZM46.4398 190.12C45.8158 190.12 45.2678 189.992 44.7958 189.736C44.3318 189.48 43.9718 189.116 43.7158 188.644C43.4598 188.164 43.3318 187.596 43.3318 186.94C43.3318 186.284 43.4598 185.724 43.7158 185.26C43.9798 184.796 44.3438 184.44 44.8078 184.192C45.2718 183.944 45.8158 183.82 46.4398 183.82C46.8398 183.82 47.2278 183.884 47.6038 184.012C47.9878 184.132 48.2998 184.308 48.5398 184.54L48.0838 185.584C47.8678 185.384 47.6238 185.236 47.3518 185.14C47.0878 185.036 46.8278 184.984 46.5718 184.984C46.0358 184.984 45.6158 185.152 45.3118 185.488C45.0158 185.824 44.8678 186.312 44.8678 186.952C44.8678 187.592 45.0158 188.084 45.3118 188.428C45.6158 188.772 46.0358 188.944 46.5718 188.944C46.8198 188.944 47.0758 188.896 47.3398 188.8C47.6118 188.704 47.8598 188.556 48.0838 188.356L48.5398 189.388C48.2918 189.62 47.9758 189.8 47.5918 189.928C47.2158 190.056 46.8318 190.12 46.4398 190.12ZM52.3182 190.12C51.5982 190.12 51.0542 189.932 50.6862 189.556C50.3182 189.18 50.1342 188.616 50.1342 187.864V185.068H48.9702V183.94H50.1342V182.392L51.6342 182.008V183.94H53.2542V185.068H51.6342V187.768C51.6342 188.184 51.7142 188.476 51.8742 188.644C52.0342 188.812 52.2542 188.896 52.5342 188.896C52.6862 188.896 52.8142 188.884 52.9182 188.86C53.0302 188.836 53.1382 188.804 53.2422 188.764V189.952C53.1062 190.008 52.9542 190.048 52.7862 190.072C52.6262 190.104 52.4702 190.12 52.3182 190.12ZM57.1424 190.12C56.1264 190.12 55.3304 189.84 54.7544 189.28C54.1784 188.72 53.8904 187.952 53.8904 186.976C53.8904 186.344 54.0144 185.792 54.2624 185.32C54.5104 184.848 54.8544 184.48 55.2944 184.216C55.7424 183.952 56.2624 183.82 56.8544 183.82C57.4384 183.82 57.9264 183.944 58.3184 184.192C58.7104 184.44 59.0064 184.788 59.2064 185.236C59.4144 185.684 59.5184 186.208 59.5184 186.808V187.204H55.1024V186.412H58.4504L58.2464 186.58C58.2464 186.02 58.1264 185.592 57.8864 185.296C57.6544 185 57.3144 184.852 56.8664 184.852C56.3704 184.852 55.9864 185.028 55.7144 185.38C55.4504 185.732 55.3184 186.224 55.3184 186.856V187.012C55.3184 187.668 55.4784 188.16 55.7984 188.488C56.1264 188.808 56.5864 188.968 57.1784 188.968C57.5224 188.968 57.8424 188.924 58.1384 188.836C58.4424 188.74 58.7304 188.588 59.0024 188.38L59.4464 189.388C59.1584 189.62 58.8144 189.8 58.4144 189.928C58.0144 190.056 57.5904 190.12 57.1424 190.12ZM63.1407 190.12C62.6127 190.12 62.1447 189.996 61.7367 189.748C61.3367 189.492 61.0247 189.128 60.8007 188.656C60.5767 188.184 60.4647 187.62 60.4647 186.964C60.4647 186.308 60.5767 185.748 60.8007 185.284C61.0247 184.812 61.3367 184.452 61.7367 184.204C62.1447 183.948 62.6127 183.82 63.1407 183.82C63.6447 183.82 64.0887 183.944 64.4727 184.192C64.8647 184.432 65.1247 184.76 65.2527 185.176H65.0967V181.168H66.5967V190H65.1207V188.716H65.2647C65.1367 189.148 64.8767 189.492 64.4847 189.748C64.1007 189.996 63.6527 190.12 63.1407 190.12ZM63.5607 188.968C64.0327 188.968 64.4127 188.804 64.7007 188.476C64.9887 188.14 65.1327 187.636 65.1327 186.964C65.1327 186.292 64.9887 185.792 64.7007 185.464C64.4127 185.136 64.0327 184.972 63.5607 184.972C63.0887 184.972 62.7047 185.136 62.4087 185.464C62.1207 185.792 61.9767 186.292 61.9767 186.964C61.9767 187.636 62.1207 188.14 62.4087 188.476C62.7047 188.804 63.0887 188.968 63.5607 188.968ZM18.617 205.12C17.601 205.12 16.805 204.84 16.229 204.28C15.653 203.72 15.365 202.952 15.365 201.976C15.365 201.344 15.489 200.792 15.737 200.32C15.985 199.848 16.329 199.48 16.769 199.216C17.217 198.952 17.737 198.82 18.329 198.82C18.913 198.82 19.401 198.944 19.793 199.192C20.185 199.44 20.481 199.788 20.681 200.236C20.889 200.684 20.993 201.208 20.993 201.808V202.204H16.577V201.412H19.925L19.721 201.58C19.721 201.02 19.601 200.592 19.361 200.296C19.129 200 18.789 199.852 18.341 199.852C17.845 199.852 17.461 200.028 17.189 200.38C16.925 200.732 16.793 201.224 16.793 201.856V202.012C16.793 202.668 16.953 203.16 17.273 203.488C17.601 203.808 18.061 203.968 18.653 203.968C18.997 203.968 19.317 203.924 19.613 203.836C19.917 203.74 20.205 203.588 20.477 203.38L20.921 204.388C20.633 204.62 20.289 204.8 19.889 204.928C19.489 205.056 19.065 205.12 18.617 205.12ZM23.9455 205L21.3295 198.94H22.9255L24.8215 203.68H24.4495L26.3935 198.94H27.8935L25.2655 205H23.9455ZM31.5077 205.12C30.4917 205.12 29.6957 204.84 29.1197 204.28C28.5437 203.72 28.2557 202.952 28.2557 201.976C28.2557 201.344 28.3797 200.792 28.6277 200.32C28.8757 199.848 29.2197 199.48 29.6597 199.216C30.1077 198.952 30.6277 198.82 31.2197 198.82C31.8037 198.82 32.2917 198.944 32.6837 199.192C33.0757 199.44 33.3717 199.788 33.5717 200.236C33.7797 200.684 33.8837 201.208 33.8837 201.808V202.204H29.4677V201.412H32.8157L32.6117 201.58C32.6117 201.02 32.4917 200.592 32.2517 200.296C32.0197 200 31.6797 199.852 31.2317 199.852C30.7357 199.852 30.3517 200.028 30.0797 200.38C29.8157 200.732 29.6837 201.224 29.6837 201.856V202.012C29.6837 202.668 29.8437 203.16 30.1637 203.488C30.4917 203.808 30.9517 203.968 31.5437 203.968C31.8877 203.968 32.2077 203.924 32.5037 203.836C32.8077 203.74 33.0957 203.588 33.3677 203.38L33.8117 204.388C33.5237 204.62 33.1797 204.8 32.7797 204.928C32.3797 205.056 31.9557 205.12 31.5077 205.12ZM35.1539 205V200.452C35.1539 200.204 35.1459 199.952 35.1299 199.696C35.1139 199.44 35.0899 199.188 35.0579 198.94H36.5099L36.6299 200.14H36.4859C36.6779 199.716 36.9619 199.392 37.3379 199.168C37.7139 198.936 38.1499 198.82 38.6459 198.82C39.3579 198.82 39.8939 199.02 40.2539 199.42C40.6139 199.82 40.7939 200.444 40.7939 201.292V205H39.2939V201.364C39.2939 200.876 39.1979 200.528 39.0059 200.32C38.8219 200.104 38.5419 199.996 38.1659 199.996C37.7019 199.996 37.3339 200.14 37.0619 200.428C36.7899 200.716 36.6539 201.1 36.6539 201.58V205H35.1539ZM44.9764 205.12C44.2564 205.12 43.7124 204.932 43.3444 204.556C42.9764 204.18 42.7924 203.616 42.7924 202.864V200.068H41.6284V198.94H42.7924V197.392L44.2924 197.008V198.94H45.9124V200.068H44.2924V202.768C44.2924 203.184 44.3724 203.476 44.5324 203.644C44.6924 203.812 44.9124 203.896 45.1924 203.896C45.3444 203.896 45.4724 203.884 45.5764 203.86C45.6884 203.836 45.7964 203.804 45.9004 203.764V204.952C45.7644 205.008 45.6124 205.048 45.4444 205.072C45.2844 205.104 45.1284 205.12 44.9764 205.12ZM49.0912 205.12C48.5712 205.12 48.0912 205.06 47.6512 204.94C47.2192 204.812 46.8552 204.636 46.5592 204.412L46.9792 203.404C47.2832 203.612 47.6192 203.772 47.9872 203.884C48.3552 203.996 48.7272 204.052 49.1032 204.052C49.5032 204.052 49.7992 203.984 49.9912 203.848C50.1912 203.712 50.2912 203.528 50.2912 203.296C50.2912 203.112 50.2272 202.968 50.0992 202.864C49.9792 202.752 49.7832 202.668 49.5112 202.612L48.3112 202.384C47.7992 202.272 47.4072 202.08 47.1352 201.808C46.8712 201.536 46.7392 201.18 46.7392 200.74C46.7392 200.364 46.8392 200.032 47.0392 199.744C47.2472 199.456 47.5392 199.232 47.9152 199.072C48.2992 198.904 48.7472 198.82 49.2592 198.82C49.7072 198.82 50.1272 198.88 50.5192 199C50.9192 199.12 51.2552 199.3 51.5272 199.54L51.0952 200.512C50.8472 200.312 50.5632 200.156 50.2432 200.044C49.9232 199.932 49.6112 199.876 49.3072 199.876C48.8912 199.876 48.5872 199.952 48.3952 200.104C48.2032 200.248 48.1072 200.436 48.1072 200.668C48.1072 200.844 48.1632 200.992 48.2752 201.112C48.3952 201.224 48.5792 201.308 48.8272 201.364L50.0272 201.592C50.5632 201.696 50.9672 201.88 51.2392 202.144C51.5192 202.4 51.6592 202.752 51.6592 203.2C51.6592 203.6 51.5512 203.944 51.3352 204.232C51.1192 204.52 50.8192 204.74 50.4352 204.892C50.0512 205.044 49.6032 205.12 49.0912 205.12Z" class="w8"/>
<path d="M266.063 15L263.111 6.54H264.155L266.735 14.16H266.315L269.027 6.54H269.819L272.387 14.16H272.003L274.655 6.54H275.639L272.663 15H271.775L269.279 7.668H269.531L266.927 15H266.063ZM276.999 15V6.168H277.971V10.308H277.815C277.983 9.836 278.263 9.48 278.655 9.24C279.055 8.992 279.515 8.868 280.035 8.868C280.755 8.868 281.291 9.064 281.643 9.456C281.995 9.84 282.171 10.424 282.171 11.208V15H281.199V11.268C281.199 10.708 281.087 10.3 280.863 10.044C280.647 9.788 280.295 9.66 279.807 9.66C279.247 9.66 278.799 9.832 278.463 10.176C278.135 10.52 277.971 10.972 277.971 11.532V15H276.999ZM286.706 15.108C285.762 15.108 285.018 14.836 284.474 14.292C283.93 13.74 283.658 12.976 283.658 12C283.658 11.368 283.778 10.82 284.018 10.356C284.258 9.884 284.594 9.52 285.026 9.264C285.458 9 285.954 8.868 286.514 8.868C287.066 8.868 287.53 8.984 287.906 9.216C288.282 9.448 288.57 9.78 288.77 10.212C288.97 10.636 289.07 11.14 289.07 11.724V12.084H284.402V11.472H288.434L288.23 11.628C288.23 10.988 288.086 10.488 287.798 10.128C287.51 9.768 287.082 9.588 286.514 9.588C285.914 9.588 285.446 9.8 285.11 10.224C284.774 10.64 284.606 11.204 284.606 11.916V12.024C284.606 12.776 284.79 13.348 285.158 13.74C285.534 14.124 286.058 14.316 286.73 14.316C287.09 14.316 287.426 14.264 287.738 14.16C288.058 14.048 288.362 13.868 288.65 13.62L288.986 14.304C288.722 14.56 288.386 14.76 287.978 14.904C287.578 15.04 287.154 15.108 286.706 15.108ZM290.533 15V10.428C290.533 10.188 290.525 9.944 290.509 9.696C290.501 9.448 290.485 9.208 290.461 8.976H291.397L291.517 10.44L291.349 10.452C291.429 10.092 291.569 9.796 291.769 9.564C291.969 9.332 292.205 9.16 292.477 9.048C292.749 8.928 293.033 8.868 293.329 8.868C293.449 8.868 293.553 8.872 293.641 8.88C293.737 8.888 293.825 8.908 293.905 8.94L293.893 9.804C293.773 9.764 293.661 9.74 293.557 9.732C293.461 9.716 293.349 9.708 293.221 9.708C292.869 9.708 292.561 9.792 292.297 9.96C292.041 10.128 291.845 10.344 291.709 10.608C291.581 10.872 291.517 11.152 291.517 11.448V15H290.533ZM297.522 15.108C296.578 15.108 295.834 14.836 295.29 14.292C294.746 13.74 294.474 12.976 294.474 12C294.474 11.368 294.594 10.82 294.834 10.356C295.074 9.884 295.41 9.52 295.842 9.264C296.274 9 296.77 8.868 297.33 8.868C297.882 8.868 298.346 8.984 298.722 9.216C299.098 9.448 299.386 9.78 299.586 10.212C299.786 10.636 299.886 11.14 299.886 11.724V12.084H295.218V11.472H299.25L299.046 11.628C299.046 10.988 298.902 10.488 298.614 10.128C298.326 9.768 297.898 9.588 297.33 9.588C296.73 9.588 296.262 9.8 295.926 10.224C295.59 10.64 295.422 11.204 295.422 11.916V12.024C295.422 12.776 295.606 13.348 295.974 13.74C296.35 14.124 296.874 14.316 297.546 14.316C297.906 14.316 298.242 14.264 298.554 14.16C298.874 14.048 299.178 13.868 299.466 13.62L299.802 14.304C299.538 14.56 299.202 14.76 298.794 14.904C298.394 15.04 297.97 15.108 297.522 15.108ZM304.263 17.724L304.035 16.92C304.411 16.832 304.723 16.728 304.971 16.608C305.227 16.496 305.439 16.344 305.607 16.152C305.775 15.96 305.919 15.72 306.039 15.432L306.351 14.724L306.327 15.132L303.699 8.976H304.755L306.927 14.268H306.615L308.763 8.976H309.783L306.999 15.504C306.839 15.888 306.663 16.208 306.471 16.464C306.279 16.728 306.071 16.94 305.847 17.1C305.631 17.268 305.391 17.4 305.127 17.496C304.863 17.592 304.575 17.668 304.263 17.724ZM313.268 15.108C312.692 15.108 312.188 14.984 311.756 14.736C311.332 14.48 311.004 14.12 310.772 13.656C310.54 13.184 310.424 12.628 310.424 11.988C310.424 11.34 310.54 10.784 310.772 10.32C311.004 9.856 311.332 9.5 311.756 9.252C312.188 8.996 312.692 8.868 313.268 8.868C313.852 8.868 314.356 8.996 314.78 9.252C315.212 9.5 315.544 9.856 315.776 10.32C316.016 10.784 316.136 11.34 316.136 11.988C316.136 12.628 316.016 13.184 315.776 13.656C315.544 14.12 315.212 14.48 314.78 14.736C314.356 14.984 313.852 15.108 313.268 15.108ZM313.268 14.316C313.844 14.316 314.3 14.12 314.636 13.728C314.972 13.328 315.14 12.748 315.14 11.988C315.14 11.22 314.968 10.64 314.624 10.248C314.288 9.848 313.836 9.648 313.268 9.648C312.7 9.648 312.248 9.848 311.912 10.248C311.576 10.64 311.408 11.22 311.408 11.988C311.408 12.748 311.576 13.328 311.912 13.728C312.248 14.12 312.7 14.316 313.268 14.316ZM319.775 15.108C319.063 15.108 318.523 14.912 318.155 14.52C317.795 14.128 317.615 13.528 317.615 12.72V8.976H318.587V12.696C318.587 13.248 318.699 13.656 318.923 13.92C319.147 14.176 319.495 14.304 319.967 14.304C320.495 14.304 320.919 14.132 321.239 13.788C321.559 13.444 321.719 12.984 321.719 12.408V8.976H322.691V15H321.743V13.644H321.899C321.731 14.108 321.459 14.468 321.083 14.724C320.715 14.98 320.279 15.108 319.775 15.108ZM327.706 15V6.168H328.678V15H327.706ZM330.565 15V8.976H331.537V15H330.565ZM330.445 7.608V6.516H331.645V7.608H330.445ZM335.201 15L332.621 8.976H333.677L335.837 14.28H335.513L337.697 8.976H338.705L336.125 15H335.201ZM342.394 15.108C341.45 15.108 340.706 14.836 340.162 14.292C339.618 13.74 339.346 12.976 339.346 12C339.346 11.368 339.466 10.82 339.706 10.356C339.946 9.884 340.282 9.52 340.714 9.264C341.146 9 341.642 8.868 342.202 8.868C342.754 8.868 343.218 8.984 343.594 9.216C343.97 9.448 344.258 9.78 344.458 10.212C344.658 10.636 344.758 11.14 344.758 11.724V12.084H340.09V11.472H344.122L343.918 11.628C343.918 10.988 343.774 10.488 343.486 10.128C343.198 9.768 342.77 9.588 342.202 9.588C341.602 9.588 341.134 9.8 340.798 10.224C340.462 10.64 340.294 11.204 340.294 11.916V12.024C340.294 12.776 340.478 13.348 340.846 13.74C341.222 14.124 341.746 14.316 342.418 14.316C342.778 14.316 343.114 14.264 343.426 14.16C343.746 14.048 344.05 13.868 344.338 13.62L344.674 14.304C344.41 14.56 344.074 14.76 343.666 14.904C343.266 15.04 342.842 15.108 342.394 15.108Z" class="w7"/>
<path d="M46.4603 15V6.54H47.4563V15H46.4603ZM49.4578 15V10.368C49.4578 10.144 49.4458 9.916 49.4218 9.684C49.4058 9.444 49.3858 9.208 49.3618 8.976H50.2978L50.4178 10.296H50.2738C50.4338 9.84 50.6858 9.488 51.0298 9.24C51.3818 8.992 51.8058 8.868 52.3018 8.868C52.8058 8.868 53.2138 8.988 53.5258 9.228C53.8458 9.468 54.0618 9.84 54.1738 10.344H53.9938C54.1458 9.888 54.4138 9.528 54.7978 9.264C55.1818 9 55.6298 8.868 56.1418 8.868C56.8058 8.868 57.3058 9.06 57.6418 9.444C57.9778 9.82 58.1458 10.416 58.1458 11.232V15H57.1738V11.292C57.1738 10.724 57.0738 10.312 56.8738 10.056C56.6738 9.792 56.3538 9.66 55.9138 9.66C55.4098 9.66 55.0098 9.836 54.7138 10.188C54.4258 10.532 54.2818 10.996 54.2818 11.58V15H53.3098V11.292C53.3098 10.724 53.2098 10.312 53.0098 10.056C52.8098 9.792 52.4898 9.66 52.0498 9.66C51.5458 9.66 51.1498 9.836 50.8618 10.188C50.5738 10.532 50.4298 10.996 50.4298 11.58V15H49.4578ZM59.9929 15V10.368C59.9929 10.144 59.9809 9.916 59.9569 9.684C59.9409 9.444 59.9209 9.208 59.8969 8.976H60.8329L60.9529 10.296H60.8089C60.9689 9.84 61.2209 9.488 61.5649 9.24C61.9169 8.992 62.3409 8.868 62.8369 8.868C63.3409 8.868 63.7489 8.988 64.0609 9.228C64.3809 9.468 64.5969 9.84 64.7089 10.344H64.5289C64.6809 9.888 64.9489 9.528 65.3329 9.264C65.7169 9 66.1649 8.868 66.6769 8.868C67.3409 8.868 67.8409 9.06 68.1769 9.444C68.5129 9.82 68.6809 10.416 68.6809 11.232V15H67.7089V11.292C67.7089 10.724 67.6089 10.312 67.4089 10.056C67.2089 9.792 66.8889 9.66 66.4489 9.66C65.9449 9.66 65.5449 9.836 65.2489 10.188C64.9609 10.532 64.8169 10.996 64.8169 11.58V15H63.8449V11.292C63.8449 10.724 63.7449 10.312 63.5449 10.056C63.3449 9.792 63.0249 9.66 62.5849 9.66C62.0809 9.66 61.6849 9.836 61.3969 10.188C61.1089 10.532 60.9649 10.996 60.9649 11.58V15H59.9929ZM70.5281 15V8.976H71.5001V15H70.5281ZM70.4081 7.608V6.516H71.6081V7.608H70.4081ZM76.0395 17.676C75.5195 17.676 75.0395 17.612 74.5995 17.484C74.1595 17.356 73.7635 17.16 73.4115 16.896L73.6995 16.164C73.9475 16.34 74.1915 16.48 74.4315 16.584C74.6715 16.688 74.9195 16.764 75.1755 16.812C75.4315 16.868 75.7035 16.896 75.9915 16.896C76.5835 16.896 77.0315 16.74 77.3355 16.428C77.6395 16.116 77.7915 15.672 77.7915 15.096V13.332H77.9115C77.7835 13.804 77.5195 14.18 77.1195 14.46C76.7195 14.732 76.2515 14.868 75.7155 14.868C75.1635 14.868 74.6835 14.748 74.2755 14.508C73.8755 14.26 73.5635 13.912 73.3395 13.464C73.1235 13.008 73.0155 12.472 73.0155 11.856C73.0155 11.248 73.1235 10.72 73.3395 10.272C73.5635 9.824 73.8755 9.48 74.2755 9.24C74.6835 8.992 75.1635 8.868 75.7155 8.868C76.2595 8.868 76.7275 9.004 77.1195 9.276C77.5195 9.548 77.7835 9.924 77.9115 10.404L77.7915 10.284L77.8995 8.976H78.8475C78.8155 9.208 78.7915 9.444 78.7755 9.684C78.7595 9.916 78.7515 10.144 78.7515 10.368V14.964C78.7515 15.86 78.5195 16.536 78.0555 16.992C77.5995 17.448 76.9275 17.676 76.0395 17.676ZM75.8955 14.076C76.4795 14.076 76.9395 13.884 77.2755 13.5C77.6115 13.108 77.7795 12.56 77.7795 11.856C77.7795 11.152 77.6115 10.608 77.2755 10.224C76.9395 9.84 76.4795 9.648 75.8955 9.648C75.3195 9.648 74.8595 9.84 74.5155 10.224C74.1715 10.608 73.9995 11.152 73.9995 11.856C73.9995 12.56 74.1715 13.108 74.5155 13.5C74.8595 13.884 75.3195 14.076 75.8955 14.076ZM80.5939 15V10.428C80.5939 10.188 80.5859 9.944 80.5699 9.696C80.5619 9.448 80.5459 9.208 80.5219 8.976H81.4579L81.5779 10.44L81.4099 10.452C81.4899 10.092 81.6299 9.796 81.8299 9.564C82.0299 9.332 82.2659 9.16 82.5379 9.048C82.8099 8.928 83.0939 8.868 83.3899 8.868C83.5099 8.868 83.6139 8.872 83.7019 8.88C83.7979 8.888 83.8859 8.908 83.9659 8.94L83.9539 9.804C83.8339 9.764 83.7219 9.74 83.6179 9.732C83.5219 9.716 83.4099 9.708 83.2819 9.708C82.9299 9.708 82.6219 9.792 82.3579 9.96C82.1019 10.128 81.9059 10.344 81.7699 10.608C81.6419 10.872 81.5779 11.152 81.5779 11.448V15H80.5939ZM87.2107 15.108C86.6747 15.108 86.2067 14.984 85.8067 14.736C85.4067 14.48 85.0947 14.12 84.8707 13.656C84.6547 13.192 84.5467 12.636 84.5467 11.988C84.5467 11.332 84.6547 10.772 84.8707 10.308C85.0947 9.844 85.4067 9.488 85.8067 9.24C86.2067 8.992 86.6747 8.868 87.2107 8.868C87.7547 8.868 88.2227 9.008 88.6147 9.288C89.0147 9.56 89.2787 9.932 89.4067 10.404H89.2627L89.3947 8.976H90.3307C90.3067 9.208 90.2827 9.444 90.2587 9.684C90.2427 9.916 90.2347 10.144 90.2347 10.368V15H89.2627V13.584H89.3947C89.2667 14.056 89.0027 14.428 88.6027 14.7C88.2027 14.972 87.7387 15.108 87.2107 15.108ZM87.4027 14.316C87.9787 14.316 88.4347 14.12 88.7707 13.728C89.1067 13.328 89.2747 12.748 89.2747 11.988C89.2747 11.22 89.1067 10.64 88.7707 10.248C88.4347 9.848 87.9787 9.648 87.4027 9.648C86.8347 9.648 86.3787 9.848 86.0347 10.248C85.6987 10.64 85.5307 11.22 85.5307 11.988C85.5307 12.748 85.6987 13.328 86.0347 13.728C86.3787 14.12 86.8347 14.316 87.4027 14.316ZM94.25 15.108C93.658 15.108 93.206 14.94 92.894 14.604C92.582 14.26 92.426 13.744 92.426 13.056V9.732H91.25V8.976H92.426V7.332L93.398 7.056V8.976H95.126V9.732H93.398V12.948C93.398 13.428 93.478 13.772 93.638 13.98C93.806 14.18 94.054 14.28 94.382 14.28C94.534 14.28 94.67 14.268 94.79 14.244C94.91 14.212 95.018 14.176 95.114 14.136V14.952C95.002 15 94.866 15.036 94.706 15.06C94.554 15.092 94.402 15.108 94.25 15.108ZM96.3093 15V8.976H97.2813V15H96.3093ZM96.1893 7.608V6.516H97.3893V7.608H96.1893ZM101.641 15.108C101.065 15.108 100.561 14.984 100.129 14.736C99.7047 14.48 99.3767 14.12 99.1447 13.656C98.9127 13.184 98.7967 12.628 98.7967 11.988C98.7967 11.34 98.9127 10.784 99.1447 10.32C99.3767 9.856 99.7047 9.5 100.129 9.252C100.561 8.996 101.065 8.868 101.641 8.868C102.225 8.868 102.729 8.996 103.153 9.252C103.585 9.5 103.917 9.856 104.149 10.32C104.389 10.784 104.509 11.34 104.509 11.988C104.509 12.628 104.389 13.184 104.149 13.656C103.917 14.12 103.585 14.48 103.153 14.736C102.729 14.984 102.225 15.108 101.641 15.108ZM101.641 14.316C102.217 14.316 102.673 14.12 103.009 13.728C103.345 13.328 103.513 12.748 103.513 11.988C103.513 11.22 103.341 10.64 102.997 10.248C102.661 9.848 102.209 9.648 101.641 9.648C101.073 9.648 100.621 9.848 100.285 10.248C99.9487 10.64 99.7807 11.22 99.7807 11.988C99.7807 12.748 99.9487 13.328 100.285 13.728C100.621 14.12 101.073 14.316 101.641 14.316ZM106.024 15V10.368C106.024 10.144 106.012 9.916 105.988 9.684C105.972 9.444 105.952 9.208 105.928 8.976H106.864L106.984 10.296H106.84C107.016 9.832 107.296 9.48 107.68 9.24C108.072 8.992 108.524 8.868 109.036 8.868C109.748 8.868 110.284 9.06 110.644 9.444C111.012 9.82 111.196 10.416 111.196 11.232V15H110.224V11.292C110.224 10.724 110.108 10.312 109.876 10.056C109.652 9.792 109.3 9.66 108.82 9.66C108.26 9.66 107.816 9.832 107.488 10.176C107.16 10.52 106.996 10.98 106.996 11.556V15H106.024ZM118.188 15.108C117.708 15.108 117.26 15.044 116.844 14.916C116.428 14.78 116.084 14.592 115.812 14.352L116.148 13.668C116.444 13.9 116.764 14.072 117.108 14.184C117.46 14.296 117.824 14.352 118.2 14.352C118.68 14.352 119.04 14.268 119.28 14.1C119.528 13.924 119.652 13.684 119.652 13.38C119.652 13.148 119.572 12.964 119.412 12.828C119.26 12.684 119.008 12.572 118.656 12.492L117.54 12.264C117.028 12.152 116.644 11.964 116.388 11.7C116.132 11.428 116.004 11.084 116.004 10.668C116.004 10.316 116.096 10.008 116.28 9.744C116.464 9.472 116.732 9.26 117.084 9.108C117.436 8.948 117.848 8.868 118.32 8.868C118.76 8.868 119.164 8.936 119.532 9.072C119.908 9.2 120.22 9.388 120.468 9.636L120.12 10.308C119.88 10.076 119.604 9.904 119.292 9.792C118.988 9.672 118.672 9.612 118.344 9.612C117.872 9.612 117.516 9.708 117.276 9.9C117.044 10.084 116.928 10.328 116.928 10.632C116.928 10.864 117 11.056 117.144 11.208C117.296 11.352 117.528 11.46 117.84 11.532L118.956 11.76C119.5 11.88 119.904 12.068 120.168 12.324C120.44 12.572 120.576 12.908 120.576 13.332C120.576 13.692 120.476 14.008 120.276 14.28C120.076 14.544 119.796 14.748 119.436 14.892C119.084 15.036 118.668 15.108 118.188 15.108ZM124.215 15.108C123.623 15.108 123.171 14.94 122.859 14.604C122.547 14.26 122.391 13.744 122.391 13.056V9.732H121.215V8.976H122.391V7.332L123.363 7.056V8.976H125.091V9.732H123.363V12.948C123.363 13.428 123.443 13.772 123.603 13.98C123.771 14.18 124.019 14.28 124.347 14.28C124.499 14.28 124.635 14.268 124.755 14.244C124.875 14.212 124.983 14.176 125.079 14.136V14.952C124.967 15 124.831 15.036 124.671 15.06C124.519 15.092 124.367 15.108 124.215 15.108ZM128.566 15.108C128.03 15.108 127.562 14.984 127.162 14.736C126.762 14.48 126.45 14.12 126.226 13.656C126.01 13.192 125.902 12.636 125.902 11.988C125.902 11.332 126.01 10.772 126.226 10.308C126.45 9.844 126.762 9.488 127.162 9.24C127.562 8.992 128.03 8.868 128.566 8.868C129.11 8.868 129.578 9.008 129.97 9.288C130.37 9.56 130.634 9.932 130.762 10.404H130.618L130.75 8.976H131.686C131.662 9.208 131.638 9.444 131.614 9.684C131.598 9.916 131.59 10.144 131.59 10.368V15H130.618V13.584H130.75C130.622 14.056 130.358 14.428 129.958 14.7C129.558 14.972 129.094 15.108 128.566 15.108ZM128.758 14.316C129.334 14.316 129.79 14.12 130.126 13.728C130.462 13.328 130.63 12.748 130.63 11.988C130.63 11.22 130.462 10.64 130.126 10.248C129.79 9.848 129.334 9.648 128.758 9.648C128.19 9.648 127.734 9.848 127.39 10.248C127.054 10.64 126.886 11.22 126.886 11.988C126.886 12.748 127.054 13.328 127.39 13.728C127.734 14.12 128.19 14.316 128.758 14.316ZM135.605 15.108C135.013 15.108 134.561 14.94 134.249 14.604C133.937 14.26 133.781 13.744 133.781 13.056V9.732H132.605V8.976H133.781V7.332L134.753 7.056V8.976H136.481V9.732H134.753V12.948C134.753 13.428 134.833 13.772 134.993 13.98C135.161 14.18 135.409 14.28 135.737 14.28C135.889 14.28 136.025 14.268 136.145 14.244C136.265 14.212 136.373 14.176 136.469 14.136V14.952C136.357 15 136.221 15.036 136.061 15.06C135.909 15.092 135.757 15.108 135.605 15.108ZM139.789 15.108C139.077 15.108 138.537 14.912 138.169 14.52C137.809 14.128 137.629 13.528 137.629 12.72V8.976H138.601V12.696C138.601 13.248 138.713 13.656 138.937 13.92C139.161 14.176 139.509 14.304 139.981 14.304C140.509 14.304 140.933 14.132 141.253 13.788C141.573 13.444 141.733 12.984 141.733 12.408V8.976H142.705V15H141.757V13.644H141.913C141.745 14.108 141.473 14.468 141.097 14.724C140.729 14.98 140.293 15.108 139.789 15.108ZM146.595 15.108C146.115 15.108 145.667 15.044 145.251 14.916C144.835 14.78 144.491 14.592 144.219 14.352L144.555 13.668C144.851 13.9 145.171 14.072 145.515 14.184C145.867 14.296 146.231 14.352 146.607 14.352C147.087 14.352 147.447 14.268 147.687 14.1C147.935 13.924 148.059 13.684 148.059 13.38C148.059 13.148 147.979 12.964 147.819 12.828C147.667 12.684 147.415 12.572 147.063 12.492L145.947 12.264C145.435 12.152 145.051 11.964 144.795 11.7C144.539 11.428 144.411 11.084 144.411 10.668C144.411 10.316 144.503 10.008 144.687 9.744C144.871 9.472 145.139 9.26 145.491 9.108C145.843 8.948 146.255 8.868 146.727 8.868C147.167 8.868 147.571 8.936 147.939 9.072C148.315 9.2 148.627 9.388 148.875 9.636L148.527 10.308C148.287 10.076 148.011 9.904 147.699 9.792C147.395 9.672 147.079 9.612 146.751 9.612C146.279 9.612 145.923 9.708 145.683 9.9C145.451 10.084 145.335 10.328 145.335 10.632C145.335 10.864 145.407 11.056 145.551 11.208C145.703 11.352 145.935 11.46 146.247 11.532L147.363 11.76C147.907 11.88 148.311 12.068 148.575 12.324C148.847 12.572 148.983 12.908 148.983 13.332C148.983 13.692 148.883 14.008 148.683 14.28C148.483 14.544 148.203 14.748 147.843 14.892C147.491 15.036 147.075 15.108 146.595 15.108Z" class="w7"/>
<path d="M13.6958 96V87.54H15.2438V94.692H19.2278V96H13.6958ZM22.6306 96.12C22.1026 96.12 21.6386 95.996 21.2386 95.748C20.8386 95.492 20.5266 95.128 20.3026 94.656C20.0786 94.184 19.9666 93.62 19.9666 92.964C19.9666 92.308 20.0786 91.748 20.3026 91.284C20.5266 90.812 20.8386 90.452 21.2386 90.204C21.6386 89.948 22.1026 89.82 22.6306 89.82C23.1426 89.82 23.5906 89.948 23.9746 90.204C24.3666 90.452 24.6266 90.788 24.7546 91.212H24.6226L24.7546 89.94H26.1946C26.1706 90.188 26.1466 90.44 26.1226 90.696C26.1066 90.952 26.0986 91.204 26.0986 91.452V96H24.6106L24.5986 94.752H24.7426C24.6146 95.168 24.3546 95.5 23.9626 95.748C23.5706 95.996 23.1266 96.12 22.6306 96.12ZM23.0506 94.968C23.5226 94.968 23.9026 94.804 24.1906 94.476C24.4786 94.14 24.6226 93.636 24.6226 92.964C24.6226 92.292 24.4786 91.792 24.1906 91.464C23.9026 91.136 23.5226 90.972 23.0506 90.972C22.5786 90.972 22.1986 91.136 21.9106 91.464C21.6226 91.792 21.4786 92.292 21.4786 92.964C21.4786 93.636 21.6186 94.14 21.8986 94.476C22.1866 94.804 22.5706 94.968 23.0506 94.968ZM27.732 96V91.452C27.732 91.204 27.724 90.952 27.708 90.696C27.692 90.44 27.668 90.188 27.636 89.94H29.088L29.208 91.14H29.064C29.256 90.716 29.54 90.392 29.916 90.168C30.292 89.936 30.728 89.82 31.224 89.82C31.936 89.82 32.472 90.02 32.832 90.42C33.192 90.82 33.372 91.444 33.372 92.292V96H31.872V92.364C31.872 91.876 31.776 91.528 31.584 91.32C31.4 91.104 31.12 90.996 30.744 90.996C30.28 90.996 29.912 91.14 29.64 91.428C29.368 91.716 29.232 92.1 29.232 92.58V96H27.732ZM37.7705 98.688C37.2105 98.688 36.7025 98.628 36.2465 98.508C35.7985 98.388 35.3985 98.204 35.0465 97.956L35.3705 96.876C35.6025 97.028 35.8425 97.152 36.0905 97.248C36.3385 97.344 36.5945 97.416 36.8585 97.464C37.1225 97.512 37.3905 97.536 37.6625 97.536C38.2225 97.536 38.6385 97.396 38.9105 97.116C39.1905 96.844 39.3305 96.452 39.3305 95.94V94.488H39.4505C39.3225 94.904 39.0625 95.236 38.6705 95.484C38.2865 95.732 37.8425 95.856 37.3385 95.856C36.7945 95.856 36.3185 95.736 35.9105 95.496C35.5105 95.248 35.1985 94.896 34.9745 94.44C34.7505 93.984 34.6385 93.448 34.6385 92.832C34.6385 92.216 34.7505 91.684 34.9745 91.236C35.1985 90.78 35.5105 90.432 35.9105 90.192C36.3185 89.944 36.7945 89.82 37.3385 89.82C37.8505 89.82 38.2945 89.944 38.6705 90.192C39.0545 90.432 39.3105 90.76 39.4385 91.176L39.3305 91.104L39.4505 89.94H40.9025C40.8705 90.188 40.8465 90.44 40.8305 90.696C40.8145 90.952 40.8065 91.204 40.8065 91.452V95.76C40.8065 96.712 40.5465 97.436 40.0265 97.932C39.5145 98.436 38.7625 98.688 37.7705 98.688ZM37.7465 94.704C38.2265 94.704 38.6065 94.544 38.8865 94.224C39.1745 93.896 39.3185 93.432 39.3185 92.832C39.3185 92.232 39.1745 91.772 38.8865 91.452C38.6065 91.132 38.2265 90.972 37.7465 90.972C37.2585 90.972 36.8705 91.132 36.5825 91.452C36.2945 91.772 36.1505 92.232 36.1505 92.832C36.1505 93.432 36.2945 93.896 36.5825 94.224C36.8705 94.544 37.2585 94.704 37.7465 94.704ZM44.6113 96.12C43.8673 96.12 43.3113 95.916 42.9433 95.508C42.5753 95.1 42.3913 94.476 42.3913 93.636V89.94H43.8913V93.624C43.8913 94.072 43.9833 94.404 44.1673 94.62C44.3513 94.828 44.6313 94.932 45.0073 94.932C45.4313 94.932 45.7753 94.788 46.0393 94.5C46.3113 94.212 46.4473 93.832 46.4473 93.36V89.94H47.9473V96H46.4833V94.764H46.6513C46.4753 95.196 46.2073 95.532 45.8473 95.772C45.4953 96.004 45.0833 96.12 44.6113 96.12ZM51.9158 96.12C51.3878 96.12 50.9238 95.996 50.5238 95.748C50.1238 95.492 49.8118 95.128 49.5878 94.656C49.3638 94.184 49.2518 93.62 49.2518 92.964C49.2518 92.308 49.3638 91.748 49.5878 91.284C49.8118 90.812 50.1238 90.452 50.5238 90.204C50.9238 89.948 51.3878 89.82 51.9158 89.82C52.4278 89.82 52.8758 89.948 53.2598 90.204C53.6518 90.452 53.9118 90.788 54.0398 91.212H53.9078L54.0398 89.94H55.4798C55.4558 90.188 55.4318 90.44 55.4078 90.696C55.3918 90.952 55.3838 91.204 55.3838 91.452V96H53.8958L53.8838 94.752H54.0278C53.8998 95.168 53.6398 95.5 53.2478 95.748C52.8558 95.996 52.4118 96.12 51.9158 96.12ZM52.3358 94.968C52.8078 94.968 53.1878 94.804 53.4758 94.476C53.7638 94.14 53.9078 93.636 53.9078 92.964C53.9078 92.292 53.7638 91.792 53.4758 91.464C53.1878 91.136 52.8078 90.972 52.3358 90.972C51.8638 90.972 51.4838 91.136 51.1958 91.464C50.9078 91.792 50.7638 92.292 50.7638 92.964C50.7638 93.636 50.9038 94.14 51.1838 94.476C51.4718 94.804 51.8558 94.968 52.3358 94.968ZM59.8252 98.688C59.2652 98.688 58.7572 98.628 58.3012 98.508C57.8532 98.388 57.4532 98.204 57.1012 97.956L57.4252 96.876C57.6572 97.028 57.8972 97.152 58.1452 97.248C58.3932 97.344 58.6492 97.416 58.9132 97.464C59.1772 97.512 59.4452 97.536 59.7172 97.536C60.2772 97.536 60.6932 97.396 60.9652 97.116C61.2452 96.844 61.3852 96.452 61.3852 95.94V94.488H61.5052C61.3772 94.904 61.1172 95.236 60.7252 95.484C60.3412 95.732 59.8972 95.856 59.3932 95.856C58.8492 95.856 58.3732 95.736 57.9652 95.496C57.5652 95.248 57.2532 94.896 57.0292 94.44C56.8052 93.984 56.6932 93.448 56.6932 92.832C56.6932 92.216 56.8052 91.684 57.0292 91.236C57.2532 90.78 57.5652 90.432 57.9652 90.192C58.3732 89.944 58.8492 89.82 59.3932 89.82C59.9052 89.82 60.3492 89.944 60.7252 90.192C61.1092 90.432 61.3652 90.76 61.4932 91.176L61.3852 91.104L61.5052 89.94H62.9572C62.9252 90.188 62.9012 90.44 62.8852 90.696C62.8692 90.952 62.8612 91.204 62.8612 91.452V95.76C62.8612 96.712 62.6012 97.436 62.0812 97.932C61.5692 98.436 60.8172 98.688 59.8252 98.688ZM59.8012 94.704C60.2812 94.704 60.6612 94.544 60.9412 94.224C61.2292 93.896 61.3732 93.432 61.3732 92.832C61.3732 92.232 61.2292 91.772 60.9412 91.452C60.6612 91.132 60.2812 90.972 59.8012 90.972C59.3132 90.972 58.9252 91.132 58.6372 91.452C58.3492 91.772 58.2052 92.232 58.2052 92.832C58.2052 93.432 58.3492 93.896 58.6372 94.224C58.9252 94.544 59.3132 94.704 59.8012 94.704ZM67.41 96.12C66.394 96.12 65.598 95.84 65.022 95.28C64.446 94.72 64.158 93.952 64.158 92.976C64.158 92.344 64.282 91.792 64.53 91.32C64.778 90.848 65.122 90.48 65.562 90.216C66.01 89.952 66.53 89.82 67.122 89.82C67.706 89.82 68.194 89.944 68.586 90.192C68.978 90.44 69.274 90.788 69.474 91.236C69.682 91.684 69.786 92.208 69.786 92.808V93.204H65.37V92.412H68.718L68.514 92.58C68.514 92.02 68.394 91.592 68.154 91.296C67.922 91 67.582 90.852 67.134 90.852C66.638 90.852 66.254 91.028 65.982 91.38C65.718 91.732 65.586 92.224 65.586 92.856V93.012C65.586 93.668 65.746 94.16 66.066 94.488C66.394 94.808 66.854 94.968 67.446 94.968C67.79 94.968 68.11 94.924 68.406 94.836C68.71 94.74 68.998 94.588 69.27 94.38L69.714 95.388C69.426 95.62 69.082 95.8 68.682 95.928C68.282 96.056 67.858 96.12 67.41 96.12Z" class="w8"/>
<rect width="36" height="17" transform="translate(188 25)" class="w4"/>
<path d="M192.927 38V29.54H194.283L197.391 36.536H197.019L200.127 29.54H201.471V38H200.067V31.724H200.499L197.655 38H196.731L193.887 31.724H194.331V38H192.927ZM205.972 38.12C205.348 38.12 204.808 37.992 204.352 37.736C203.896 37.48 203.54 37.116 203.284 36.644C203.036 36.172 202.912 35.612 202.912 34.964C202.912 34.316 203.036 33.76 203.284 33.296C203.54 32.824 203.896 32.46 204.352 32.204C204.808 31.948 205.348 31.82 205.972 31.82C206.596 31.82 207.136 31.948 207.592 32.204C208.056 32.46 208.412 32.824 208.66 33.296C208.916 33.76 209.044 34.316 209.044 34.964C209.044 35.612 208.916 36.172 208.66 36.644C208.412 37.116 208.056 37.48 207.592 37.736C207.136 37.992 206.596 38.12 205.972 38.12ZM205.972 36.968C206.444 36.968 206.82 36.804 207.1 36.476C207.38 36.14 207.52 35.636 207.52 34.964C207.52 34.292 207.38 33.792 207.1 33.464C206.82 33.136 206.444 32.972 205.972 32.972C205.5 32.972 205.124 33.136 204.844 33.464C204.564 33.792 204.424 34.292 204.424 34.964C204.424 35.636 204.564 36.14 204.844 36.476C205.124 36.804 205.5 36.968 205.972 36.968ZM212.497 38.12C211.977 38.12 211.497 38.06 211.057 37.94C210.625 37.812 210.261 37.636 209.965 37.412L210.385 36.404C210.689 36.612 211.025 36.772 211.393 36.884C211.761 36.996 212.133 37.052 212.509 37.052C212.909 37.052 213.205 36.984 213.397 36.848C213.597 36.712 213.697 36.528 213.697 36.296C213.697 36.112 213.633 35.968 213.505 35.864C213.385 35.752 213.189 35.668 212.917 35.612L211.717 35.384C211.205 35.272 210.813 35.08 210.541 34.808C210.277 34.536 210.145 34.18 210.145 33.74C210.145 33.364 210.245 33.032 210.445 32.744C210.653 32.456 210.945 32.232 211.321 32.072C211.705 31.904 212.153 31.82 212.665 31.82C213.113 31.82 213.533 31.88 213.925 32C214.325 32.12 214.661 32.3 214.933 32.54L214.501 33.512C214.253 33.312 213.969 33.156 213.649 33.044C213.329 32.932 213.017 32.876 212.713 32.876C212.297 32.876 211.993 32.952 211.801 33.104C211.609 33.248 211.513 33.436 211.513 33.668C211.513 33.844 211.569 33.992 211.681 34.112C211.801 34.224 211.985 34.308 212.233 34.364L213.433 34.592C213.969 34.696 214.373 34.88 214.645 35.144C214.925 35.4 215.065 35.752 215.065 36.2C215.065 36.6 214.957 36.944 214.741 37.232C214.525 37.52 214.225 37.74 213.841 37.892C213.457 38.044 213.009 38.12 212.497 38.12ZM218.883 38.12C218.163 38.12 217.619 37.932 217.251 37.556C216.883 37.18 216.699 36.616 216.699 35.864V33.068H215.535V31.94H216.699V30.392L218.199 30.008V31.94H219.819V33.068H218.199V35.768C218.199 36.184 218.279 36.476 218.439 36.644C218.599 36.812 218.819 36.896 219.099 36.896C219.251 36.896 219.379 36.884 219.483 36.86C219.595 36.836 219.703 36.804 219.807 36.764V37.952C219.671 38.008 219.519 38.048 219.351 38.072C219.191 38.104 219.035 38.12 218.883 38.12Z" class="w8"/>
<rect width="36" height="17" transform="translate(188 135)" class="w4" fill-opacity="0.7"/>
<path d="M191.35 148V139.54H192.898V146.692H196.882V148H191.35ZM200.814 148.12C199.798 148.12 199.002 147.84 198.426 147.28C197.85 146.72 197.562 145.952 197.562 144.976C197.562 144.344 197.686 143.792 197.934 143.32C198.182 142.848 198.526 142.48 198.966 142.216C199.414 141.952 199.934 141.82 200.526 141.82C201.11 141.82 201.598 141.944 201.99 142.192C202.382 142.44 202.678 142.788 202.878 143.236C203.086 143.684 203.19 144.208 203.19 144.808V145.204H198.774V144.412H202.122L201.918 144.58C201.918 144.02 201.798 143.592 201.558 143.296C201.326 143 200.986 142.852 200.538 142.852C200.042 142.852 199.658 143.028 199.386 143.38C199.122 143.732 198.99 144.224 198.99 144.856V145.012C198.99 145.668 199.15 146.16 199.47 146.488C199.798 146.808 200.258 146.968 200.85 146.968C201.194 146.968 201.514 146.924 201.81 146.836C202.114 146.74 202.402 146.588 202.674 146.38L203.118 147.388C202.83 147.62 202.486 147.8 202.086 147.928C201.686 148.056 201.262 148.12 200.814 148.12ZM206.801 148.12C206.273 148.12 205.809 147.996 205.409 147.748C205.009 147.492 204.697 147.128 204.473 146.656C204.249 146.184 204.137 145.62 204.137 144.964C204.137 144.308 204.249 143.748 204.473 143.284C204.697 142.812 205.009 142.452 205.409 142.204C205.809 141.948 206.273 141.82 206.801 141.82C207.313 141.82 207.761 141.948 208.145 142.204C208.537 142.452 208.797 142.788 208.925 143.212H208.793L208.925 141.94H210.365C210.341 142.188 210.317 142.44 210.293 142.696C210.277 142.952 210.269 143.204 210.269 143.452V148H208.781L208.769 146.752H208.913C208.785 147.168 208.525 147.5 208.133 147.748C207.741 147.996 207.297 148.12 206.801 148.12ZM207.221 146.968C207.693 146.968 208.073 146.804 208.361 146.476C208.649 146.14 208.793 145.636 208.793 144.964C208.793 144.292 208.649 143.792 208.361 143.464C208.073 143.136 207.693 142.972 207.221 142.972C206.749 142.972 206.369 143.136 206.081 143.464C205.793 143.792 205.649 144.292 205.649 144.964C205.649 145.636 205.789 146.14 206.069 146.476C206.357 146.804 206.741 146.968 207.221 146.968ZM214.062 148.12C213.542 148.12 213.062 148.06 212.622 147.94C212.19 147.812 211.826 147.636 211.53 147.412L211.95 146.404C212.254 146.612 212.59 146.772 212.958 146.884C213.326 146.996 213.698 147.052 214.074 147.052C214.474 147.052 214.77 146.984 214.962 146.848C215.162 146.712 215.262 146.528 215.262 146.296C215.262 146.112 215.198 145.968 215.07 145.864C214.95 145.752 214.754 145.668 214.482 145.612L213.282 145.384C212.77 145.272 212.378 145.08 212.106 144.808C211.842 144.536 211.71 144.18 211.71 143.74C211.71 143.364 211.81 143.032 212.01 142.744C212.218 142.456 212.51 142.232 212.886 142.072C213.27 141.904 213.718 141.82 214.23 141.82C214.678 141.82 215.098 141.88 215.49 142C215.89 142.12 216.226 142.3 216.498 142.54L216.066 143.512C215.818 143.312 215.534 143.156 215.214 143.044C214.894 142.932 214.582 142.876 214.278 142.876C213.862 142.876 213.558 142.952 213.366 143.104C213.174 143.248 213.078 143.436 213.078 143.668C213.078 143.844 213.134 143.992 213.246 144.112C213.366 144.224 213.55 144.308 213.798 144.364L214.998 144.592C215.534 144.696 215.938 144.88 216.21 145.144C216.49 145.4 216.63 145.752 216.63 146.2C216.63 146.6 216.522 146.944 216.306 147.232C216.09 147.52 215.79 147.74 215.406 147.892C215.022 148.044 214.574 148.12 214.062 148.12ZM220.447 148.12C219.727 148.12 219.183 147.932 218.815 147.556C218.447 147.18 218.263 146.616 218.263 145.864V143.068H217.099V141.94H218.263V140.392L219.763 140.008V141.94H221.383V143.068H219.763V145.768C219.763 146.184 219.843 146.476 220.003 146.644C220.163 146.812 220.383 146.896 220.663 146.896C220.815 146.896 220.943 146.884 221.047 146.86C221.159 146.836 221.267 146.804 221.371 146.764V147.952C221.235 148.008 221.083 148.048 220.915 148.072C220.755 148.104 220.599 148.12 220.447 148.12Z" class="w8"/>
<path d="M217.5 111L189.5 86L102 94.5V187.5L189.5 180L239 218.5L246.5 162.5L279 111H217.5Z" class="w9" stroke-width="2" stroke-dasharray="10 10"/>
</svg>
