<svg xmlns="http://www.w3.org/2000/svg" viewBox="0 0 146 52" width="146" height="52"><path fill="currentColor" d="M2.734 0C1.224 0 0 1.244 0 2.777v48.594c0 .347.278.629.615.629h144.77a.625.625 0 0 0 .615-.629V2.777C146 1.244 144.776 0 143.266 0H2.734zm0 1.258h140.532c.83 0 1.496.681 1.496 1.52V36.55H43.992C40.31 43.326 33.22 47.924 25.08 47.924c-8.147 0-15.237-4.593-18.918-11.375H1.238V2.779c0-.84.666-1.52 1.496-1.52v-.001zm83.268 39.289h3.797c.389 0 .74.032 1.056.098.318.072.582.182.81.34.226.157.401.367.524.63.123.255.19.576.19.963 0 .412-.09.752-.28 1.027-.18.276-.453.505-.816.682.5.144.868.402 1.115.762.246.367.37.805.37 1.316 0 .413-.079.772-.24 1.074-.156.3-.37.55-.635.74-.272.19-.577.334-.92.426a4.066 4.066 0 0 1-1.059.137h-3.912v-8.195zm7.074 0h1.99l1.887 3.236 1.873-3.236h1.977l-2.989 5.05v3.145H96.04v-3.19l-2.963-5.005zm-5.299 1.4v1.914h1.795c.317 0 .576-.077.783-.228.201-.157.305-.4.305-.746 0-.19-.032-.35-.103-.467a.684.684 0 0 0-.272-.287 1.023 1.023 0 0 0-.389-.145 2.544 2.544 0 0 0-.455-.04h-1.664zm0 3.147v2.248h1.899c.175 0 .344-.02.5-.053.162-.033.298-.092.42-.17a.93.93 0 0 0 .285-.328 1.15 1.15 0 0 0 .11-.53c0-.42-.116-.723-.35-.9-.233-.183-.543-.267-.926-.267h-1.938z"/><path fill="currentColor" d="M38.574 10.523c3.675 3.748 5.516 8.328 5.516 13.754 0 5.418-1.809 9.953-5.425 13.602-3.837 3.84-8.367 5.76-13.603 5.76-5.165 0-9.624-1.907-13.364-5.714-3.746-3.807-5.612-8.36-5.612-13.648 0-5.295 1.866-9.881 5.612-13.754 3.643-3.741 8.101-5.615 13.364-5.615 5.327 0 9.831 1.874 13.512 5.615Zm-24.4 2.523c-3.11 3.19-4.666 6.939-4.666 11.23 0 4.3 1.542 8.008 4.614 11.14 3.079 3.132 6.747 4.698 10.998 4.698 4.252 0 7.946-1.58 11.089-4.744 2.981-2.942 4.472-6.638 4.472-11.093 0-4.423-1.517-8.171-4.543-11.257-3.033-3.087-6.702-4.626-11.018-4.626-4.316 0-7.965 1.553-10.946 4.652Zm8.185 9.344c-.48-1.055-1.186-1.58-2.138-1.58-1.679 0-2.515 1.147-2.515 3.447 0 2.293.836 3.44 2.515 3.44 1.108 0 1.898-.557 2.372-1.677l2.326 1.258c-1.108 2.005-2.767 3.007-4.983 3.007-1.712 0-3.085-.53-4.11-1.599-1.03-1.068-1.548-2.535-1.548-4.41 0-1.847.531-3.308 1.594-4.39 1.063-1.08 2.385-1.624 3.966-1.624 2.346 0 4.018.943 5.036 2.817l-2.515 1.31Zm10.933 0c-.473-1.055-1.173-1.58-2.086-1.58-1.711 0-2.573 1.147-2.573 3.447 0 2.293.862 3.44 2.573 3.44 1.108 0 1.886-.557 2.326-1.677l2.379 1.258c-1.108 2.005-2.768 3.007-4.984 3.007-1.704 0-3.072-.53-4.096-1.599-1.03-1.068-1.542-2.535-1.542-4.41 0-1.847.518-3.308 1.561-4.39 1.044-1.08 2.372-1.624 3.986-1.624 2.34 0 4.012.943 5.023 2.817l-2.567 1.31ZM96.57 14.992a.917.917 0 0 0-.907-.924H89.89c-.5 0-.908.413-.908.924v5.87h1.608v6.96h4.374v-6.96h1.608v-5.87zm-1.82-3.709c0 1.108-.882 2.012-1.97 2.012-1.096 0-1.977-.904-1.977-2.012 0-1.107.881-2.005 1.976-2.005 1.09 0 1.97.898 1.97 2.005z"/><path fill="currentColor" d="M92.76 4.193c-3.908 0-7.22 1.39-9.928 4.161-2.774 2.87-4.161 6.27-4.161 10.196 0 3.918 1.387 7.293 4.16 10.117 2.78 2.824 6.093 4.233 9.93 4.233 3.881 0 7.251-1.422 10.096-4.266 2.683-2.706 4.031-6.068 4.031-10.084 0-4.024-1.367-7.418-4.095-10.196-2.735-2.772-6.08-4.16-10.033-4.16Zm.033 2.582c3.201 0 5.923 1.147 8.159 3.447 2.262 2.273 3.389 5.045 3.389 8.328 0 3.296-1.108 6.041-3.318 8.216-2.333 2.346-5.074 3.52-8.23 3.52-3.157 0-5.872-1.16-8.16-3.487-2.281-2.32-3.422-5.071-3.422-8.25 0-3.184 1.154-5.962 3.461-8.327 2.21-2.3 4.92-3.447 8.12-3.447Z"/></svg>
