<svg xmlns="http://www.w3.org/2000/svg" width="312" height="313" fill="none" viewBox="0 0 312 313">
    <circle cx="156.09" cy="156.523" r="155.091" fill="var(--fl-bgColor, #F1D9D9)" stroke="var(--fl-fgColor, #CB3335)" stroke-width="1.637"/>
    <circle cx="156.091" cy="156.525" r="107.452" fill="var(--fl-bgColor, #F9EEC6)" stroke="var(--fl-fgColor, #E8B91C)" stroke-width="1.637"/>
    <circle cx="156.09" cy="156.527" r="55.482" fill="var(--fl-bgColor, #D0F8D4)" stroke="var(--fl-fgColor, #7BD383)" stroke-width="1.637"/>
    <path fill="var(--fl-fgColor, #222)" d="m121.265 154.523-2.208-8.072h.994l1.687 6.575h.079l1.718-6.575h1.104l1.718 6.575h.079l1.687-6.575h.994l-2.208 8.072H125.9l-1.781-6.433h-.064l-1.781 6.433h-1.009Zm9.874-3.642v3.642h-.93v-8.072h.93v2.964h.079c.142-.313.354-.561.638-.745.287-.187.668-.28 1.143-.28.413 0 .774.083 1.084.248.31.163.551.414.722.753.173.337.26.765.26 1.285v3.847h-.93v-3.784c0-.481-.125-.852-.375-1.115-.247-.266-.59-.398-1.029-.398-.305 0-.578.064-.82.193a1.411 1.411 0 0 0-.567.564c-.137.247-.205.546-.205.898Zm7.409 3.784c-.383 0-.732-.072-1.044-.216a1.798 1.798 0 0 1-.745-.635c-.184-.279-.276-.615-.276-1.009 0-.347.068-.628.205-.844.136-.218.319-.389.548-.512a2.84 2.84 0 0 1 .757-.276c.278-.063.558-.113.839-.15.368-.047.666-.083.895-.106.231-.027.399-.07.504-.13.108-.061.162-.166.162-.316v-.031c0-.389-.106-.691-.319-.907-.21-.215-.53-.323-.958-.323-.444 0-.792.097-1.045.292-.252.194-.429.402-.532.622l-.883-.315c.158-.368.368-.654.631-.859a2.36 2.36 0 0 1 .867-.434c.315-.084.626-.126.93-.126.195 0 .418.024.671.071.254.045.5.138.737.28.239.142.437.356.595.642.157.287.236.67.236 1.151v3.989h-.93v-.819h-.047a1.612 1.612 0 0 1-.316.421c-.147.15-.343.278-.587.383-.244.105-.543.157-.895.157Zm.142-.835c.368 0 .678-.073.93-.217a1.48 1.48 0 0 0 .773-1.281v-.852c-.039.048-.126.091-.26.13-.131.037-.284.07-.457.099a22.293 22.293 0 0 1-.891.118 3.578 3.578 0 0 0-.678.154 1.168 1.168 0 0 0-.505.311c-.126.137-.189.324-.189.56 0 .323.12.568.359.733.242.163.548.245.918.245Zm6.964-5.361v.788h-3.137v-.788h3.137Zm-2.223-1.451h.93v5.771c0 .263.039.46.115.591a.587.587 0 0 0 .299.26c.124.043.254.064.391.064.102 0 .186-.006.252-.016l.158-.032.189.836a1.97 1.97 0 0 1-.694.11c-.263 0-.52-.056-.773-.169a1.529 1.529 0 0 1-.622-.517c-.163-.231-.245-.523-.245-.875v-6.023Zm9.204 7.632c-.567 0-1.056-.134-1.466-.402a2.63 2.63 0 0 1-.946-1.108c-.221-.471-.331-1.008-.331-1.612 0-.615.113-1.158.339-1.628.228-.473.546-.842.954-1.108.41-.268.888-.402 1.434-.402.426 0 .81.079 1.151.237.342.157.622.378.84.662.218.284.353.615.406.993h-.93a1.445 1.445 0 0 0-.473-.733c-.242-.216-.568-.323-.978-.323-.362 0-.68.094-.954.284-.27.186-.482.45-.634.792-.15.339-.225.737-.225 1.194 0 .468.074.875.221 1.222.15.347.36.616.63.808.274.192.594.288.962.288.242 0 .461-.042.658-.126a1.35 1.35 0 0 0 .793-.93h.93a2.164 2.164 0 0 1-.39.965c-.205.284-.477.51-.816.678-.337.166-.728.249-1.175.249Zm5.523.015a2.47 2.47 0 0 1-1.045-.216 1.798 1.798 0 0 1-.745-.635c-.184-.279-.276-.615-.276-1.009 0-.347.068-.628.205-.844.137-.218.319-.389.548-.512.229-.124.481-.216.757-.276.278-.063.558-.113.839-.15.368-.047.667-.083.895-.106.231-.027.4-.07.505-.13.107-.061.161-.166.161-.316v-.031c0-.389-.106-.691-.319-.907-.21-.215-.529-.323-.958-.323-.444 0-.792.097-1.044.292-.253.194-.43.402-.532.622l-.883-.315c.157-.368.367-.654.63-.859.266-.208.555-.352.867-.434.316-.084.626-.126.931-.126.194 0 .418.024.67.071.255.045.5.138.737.28.239.142.437.356.595.642.158.287.237.67.237 1.151v3.989h-.931v-.819h-.047a1.629 1.629 0 0 1-.315.421 1.81 1.81 0 0 1-.588.383c-.244.105-.542.157-.894.157Zm.142-.835c.367 0 .677-.073.93-.217a1.47 1.47 0 0 0 .772-1.281v-.852c-.039.048-.126.091-.26.13-.131.037-.284.07-.457.099a22.293 22.293 0 0 1-.891.118 3.578 3.578 0 0 0-.678.154 1.165 1.165 0 0 0-.504.311c-.127.137-.19.324-.19.56 0 .323.12.568.359.733.242.163.548.245.919.245Zm5.261-2.949v3.642h-.93v-6.054h.898v.946h.079c.142-.308.357-.555.647-.741.289-.189.662-.284 1.119-.284.41 0 .769.084 1.076.252.308.166.547.418.717.757.171.337.257.762.257 1.277v3.847h-.931v-3.784c0-.475-.123-.846-.37-1.111-.247-.268-.586-.402-1.017-.402a1.62 1.62 0 0 0-.796.193 1.38 1.38 0 0 0-.548.564c-.134.247-.201.546-.201.898Zm9.788-4.43v8.072h-.977v-8.072h.977Zm4.688-.379-2.602 9.666h-.851l2.601-9.666h.852Zm2.474 8.451-1.844-6.054h.977l1.309 4.635h.063l1.293-4.635h.993l1.277 4.62h.063l1.309-4.62h.978l-1.845 6.054h-.915l-1.324-4.651h-.095l-1.324 4.651h-.915Zm9.98.127c-.583 0-1.087-.129-1.51-.387a2.59 2.59 0 0 1-.973-1.088c-.226-.467-.339-1.011-.339-1.632 0-.62.113-1.166.339-1.639.228-.476.546-.846.953-1.112.41-.268.889-.402 1.435-.402.316 0 .627.053.934.158.308.105.588.276.84.512.252.234.453.544.603.93.15.387.225.862.225 1.427v.395h-4.667v-.805h3.721a1.98 1.98 0 0 0-.205-.914 1.544 1.544 0 0 0-.576-.635 1.61 1.61 0 0 0-.875-.232c-.37 0-.691.092-.961.276a1.798 1.798 0 0 0-.619.709 2.081 2.081 0 0 0-.217.938v.536c0 .458.079.845.236 1.163.161.316.383.556.667.722.283.162.613.244.989.244.244 0 .465-.034.662-.103.2-.071.372-.176.516-.315.145-.142.257-.318.336-.528l.898.252a1.976 1.976 0 0 1-.477.804 2.307 2.307 0 0 1-.827.536c-.329.127-.698.19-1.108.19Zm-53.167 13c-.568 0-1.056-.134-1.466-.402a2.624 2.624 0 0 1-.946-1.108c-.221-.471-.332-1.008-.332-1.612 0-.615.113-1.158.339-1.628a2.69 2.69 0 0 1 .954-1.108c.41-.268.889-.402 1.435-.402.426 0 .81.079 1.151.237.342.157.622.378.84.662.218.284.353.615.406.993h-.931a1.432 1.432 0 0 0-.473-.733c-.241-.216-.567-.323-.977-.323-.363 0-.681.094-.954.284-.271.186-.482.45-.635.792-.149.339-.224.737-.224 1.194 0 .468.073.875.22 1.222.15.347.36.616.631.808.273.192.594.288.962.288.242 0 .461-.042.658-.126.197-.084.364-.205.501-.363.136-.158.234-.347.291-.567h.931a2.164 2.164 0 0 1-.39.965c-.205.284-.477.51-.816.678-.337.166-.728.249-1.175.249Zm4.671-3.769v3.642h-.93v-8.072h.93v2.964h.079c.142-.313.355-.561.638-.745.287-.187.668-.28 1.143-.28.413 0 .774.083 1.084.248.31.163.551.414.722.753.173.337.26.765.26 1.285v3.847h-.93v-3.784c0-.481-.125-.852-.375-1.115-.247-.266-.59-.398-1.029-.398-.304 0-.578.064-.82.193a1.411 1.411 0 0 0-.567.564c-.137.247-.205.546-.205.898Zm7.409 3.784c-.383 0-.731-.072-1.044-.216a1.798 1.798 0 0 1-.745-.635c-.184-.279-.276-.615-.276-1.009 0-.347.068-.628.205-.844.137-.218.319-.389.548-.512a2.84 2.84 0 0 1 .757-.276c.278-.063.558-.113.839-.15.368-.047.666-.083.895-.106.231-.027.399-.07.505-.13.107-.061.161-.166.161-.316v-.031c0-.389-.106-.691-.319-.907-.21-.215-.53-.323-.958-.323-.444 0-.792.097-1.045.292-.252.194-.429.402-.532.622l-.883-.315c.158-.368.368-.654.631-.859.265-.208.555-.352.867-.434.316-.084.626-.126.931-.126.194 0 .417.024.67.071.255.045.5.138.737.28.239.142.437.356.595.642.158.287.236.67.236 1.151v3.989h-.93v-.819h-.047a1.629 1.629 0 0 1-.315.421c-.148.15-.343.278-.588.383-.244.105-.542.157-.895.157Zm.142-.835c.368 0 .678-.073.931-.217a1.483 1.483 0 0 0 .772-1.281v-.852c-.039.048-.126.091-.26.13-.131.037-.284.07-.457.099a22.293 22.293 0 0 1-.891.118 3.578 3.578 0 0 0-.678.154 1.168 1.168 0 0 0-.505.311c-.126.137-.189.324-.189.56 0 .323.12.568.359.733.242.163.548.245.918.245Zm5.262-2.949v3.642h-.931v-6.054h.899v.946h.079c.142-.308.357-.555.646-.741.289-.189.663-.284 1.12-.284.41 0 .768.084 1.076.252a1.7 1.7 0 0 1 .717.757c.171.337.257.762.257 1.277v3.847h-.931v-3.784c0-.475-.123-.846-.37-1.111-.247-.268-.586-.402-1.017-.402-.297 0-.563.064-.796.193a1.38 1.38 0 0 0-.548.564c-.134.247-.201.546-.201.898Zm8.006 6.039c-.449 0-.835-.058-1.159-.173a2.46 2.46 0 0 1-.808-.45 2.476 2.476 0 0 1-.508-.591l.741-.52c.084.11.19.236.319.378.129.145.305.269.528.375.226.107.522.161.887.161.489 0 .892-.118 1.21-.355.318-.236.477-.607.477-1.111v-1.23h-.078c-.069.11-.166.247-.292.41-.124.16-.302.303-.536.43-.231.123-.544.185-.938.185a2.53 2.53 0 0 1-1.317-.347 2.436 2.436 0 0 1-.918-1.009c-.224-.442-.335-.978-.335-1.608 0-.621.109-1.161.327-1.62.218-.463.521-.82.91-1.073a2.412 2.412 0 0 1 1.348-.382c.395 0 .707.066.939.197.233.129.412.276.536.442.126.163.223.297.291.402h.095v-.962h.899v6.228c0 .52-.119.943-.355 1.269a2.013 2.013 0 0 1-.946.721 3.55 3.55 0 0 1-1.317.233Zm-.031-3.327c.373 0 .688-.085.946-.256a1.6 1.6 0 0 0 .587-.737c.134-.321.201-.704.201-1.151 0-.436-.066-.821-.197-1.155a1.73 1.73 0 0 0-.583-.784c-.258-.19-.576-.284-.954-.284-.394 0-.723.1-.986.299-.26.2-.456.468-.587.804-.129.337-.193.71-.193 1.12 0 .42.066.792.197 1.115.134.321.331.573.591.757.263.182.589.272.978.272Zm6.89 1.057c-.583 0-1.087-.129-1.51-.387a2.59 2.59 0 0 1-.973-1.088c-.226-.467-.339-1.011-.339-1.632 0-.62.113-1.166.339-1.639.228-.476.546-.846.954-1.112.41-.268.888-.402 1.434-.402.316 0 .627.053.935.158.307.105.587.276.839.512.252.234.453.544.603.93.15.387.225.862.225 1.427v.395h-4.667v-.805h3.721a1.98 1.98 0 0 0-.205-.914 1.544 1.544 0 0 0-.576-.635 1.61 1.61 0 0 0-.875-.232c-.37 0-.691.092-.961.276a1.806 1.806 0 0 0-.619.709 2.081 2.081 0 0 0-.217.938v.536c0 .458.079.845.236 1.163.161.316.383.556.667.722.283.162.613.244.989.244.244 0 .465-.034.662-.103.2-.071.372-.176.517-.315.144-.142.256-.318.335-.528l.898.252a1.976 1.976 0 0 1-.477.804 2.307 2.307 0 0 1-.827.536c-.329.127-.698.19-1.108.19Zm5.136-2.397v-.047c.005-.502.058-.902.158-1.199.1-.297.242-.537.425-.721.184-.184.405-.353.663-.508.155-.095.294-.207.418-.335a1.507 1.507 0 0 0 .402-1.021 1.22 1.22 0 0 0-.182-.671 1.211 1.211 0 0 0-.485-.437 1.463 1.463 0 0 0-.674-.154 1.51 1.51 0 0 0-.622.134c-.2.09-.367.23-.501.422-.134.192-.212.443-.233.753h-.993c.021-.447.137-.829.347-1.147.213-.318.493-.561.84-.729a2.633 2.633 0 0 1 1.162-.253c.463 0 .865.092 1.207.276.344.184.609.436.796.757.189.321.284.686.284 1.096 0 .289-.045.55-.134.784a1.932 1.932 0 0 1-.379.627c-.163.184-.36.347-.591.489a2.443 2.443 0 0 0-.556.457 1.45 1.45 0 0 0-.303.564 3.16 3.16 0 0 0-.103.816v.047h-.946Zm.505 2.334a.684.684 0 0 1-.501-.209.687.687 0 0 1-.209-.501c0-.194.07-.361.209-.501a.684.684 0 0 1 .501-.209c.194 0 .361.07.5.209.14.14.209.307.209.501a.675.675 0 0 1-.098.355.744.744 0 0 1-.257.26.675.675 0 0 1-.354.095ZM121.074 75.602l-2.208-8.073h.993l1.688 6.575h.078l1.719-6.575h1.104l1.718 6.575h.079l1.687-6.575h.994l-2.208 8.073h-1.009l-1.782-6.433h-.063l-1.781 6.433h-1.009Zm9.874-3.643v3.643h-.931v-8.073h.931v2.964h.078c.142-.313.355-.561.639-.745.286-.187.668-.28 1.143-.28.413 0 .774.083 1.084.248.31.163.551.414.721.753.174.337.261.765.261 1.285v3.848h-.931v-3.785c0-.48-.124-.852-.374-1.115-.247-.266-.59-.398-1.029-.398-.305 0-.578.064-.82.193a1.408 1.408 0 0 0-.567.564c-.137.247-.205.546-.205.898Zm7.409 3.784c-.383 0-.732-.072-1.044-.216a1.791 1.791 0 0 1-.745-.635c-.184-.278-.276-.615-.276-1.009 0-.347.068-.628.205-.844a1.44 1.44 0 0 1 .548-.512c.228-.124.48-.216.756-.276.279-.063.559-.113.84-.15.368-.047.666-.082.895-.106.231-.026.399-.07.504-.13.108-.06.162-.166.162-.316v-.031c0-.389-.107-.691-.319-.907-.211-.215-.53-.323-.958-.323-.444 0-.793.097-1.045.292-.252.194-.429.402-.532.623l-.883-.316c.158-.368.368-.654.631-.86.265-.207.554-.351.867-.433.315-.084.625-.126.93-.126.195 0 .418.024.67.071.255.045.501.138.737.28.24.142.438.356.596.642.157.287.236.67.236 1.151v3.99h-.93v-.82h-.047a1.642 1.642 0 0 1-.316.421 1.82 1.82 0 0 1-.587.383c-.244.105-.543.157-.895.157Zm.142-.835c.368 0 .678-.073.93-.217a1.478 1.478 0 0 0 .773-1.281v-.852c-.04.048-.126.091-.26.13-.132.037-.284.07-.457.1a20.687 20.687 0 0 1-.891.117 3.547 3.547 0 0 0-.678.154 1.17 1.17 0 0 0-.505.312c-.126.136-.189.323-.189.56 0 .323.12.567.359.732.241.163.548.245.918.245Zm6.964-5.361v.788h-3.137v-.788h3.137Zm-2.223-1.45h.93v5.77c0 .263.038.46.115.591a.588.588 0 0 0 .299.26c.124.043.254.064.39.064.103 0 .187-.006.253-.016l.157-.032.19.836a1.948 1.948 0 0 1-.265.071 1.94 1.94 0 0 1-.429.04c-.263 0-.521-.057-.773-.17a1.542 1.542 0 0 1-.623-.516c-.163-.232-.244-.523-.244-.876v-6.023Zm9.204 7.63c-.568 0-1.056-.133-1.466-.401a2.614 2.614 0 0 1-.946-1.108c-.221-.47-.331-1.008-.331-1.612 0-.615.113-1.158.339-1.628.228-.473.546-.842.953-1.108.41-.268.889-.402 1.435-.402.426 0 .81.079 1.151.237.342.157.622.378.84.662.218.284.353.615.406.993h-.93a1.445 1.445 0 0 0-.473-.733c-.242-.215-.568-.323-.978-.323-.363 0-.681.094-.954.284-.271.186-.482.45-.634.792-.15.339-.225.737-.225 1.194 0 .468.073.875.221 1.222.149.347.36.616.63.808.274.192.594.288.962.288.242 0 .461-.042.658-.126.197-.084.364-.205.501-.363.137-.157.234-.347.292-.567h.93c-.053.357-.183.679-.39.965-.205.284-.477.51-.816.678-.337.166-.728.249-1.175.249Zm5.522.016c-.383 0-.731-.072-1.044-.216a1.791 1.791 0 0 1-.745-.635c-.184-.278-.276-.615-.276-1.009 0-.347.068-.628.205-.844.137-.218.319-.389.548-.512a2.87 2.87 0 0 1 .757-.276 9.17 9.17 0 0 1 .839-.15c.368-.047.666-.082.895-.106.231-.026.399-.07.505-.13.107-.06.161-.166.161-.316v-.031c0-.389-.106-.691-.319-.907-.21-.215-.53-.323-.958-.323-.444 0-.792.097-1.045.292-.252.194-.429.402-.532.623l-.883-.316c.158-.368.368-.654.631-.86.265-.207.555-.351.867-.433.316-.084.626-.126.931-.126.194 0 .417.024.67.071.255.045.5.138.737.28.239.142.437.356.595.642.158.287.236.67.236 1.151v3.99h-.93v-.82h-.047a1.636 1.636 0 0 1-.315.421c-.148.15-.343.278-.588.383-.244.105-.542.157-.895.157Zm.142-.835c.368 0 .678-.073.931-.217a1.475 1.475 0 0 0 .772-1.281v-.852c-.039.048-.126.091-.26.13-.131.037-.284.07-.457.1a20.687 20.687 0 0 1-.891.117 3.547 3.547 0 0 0-.678.154 1.17 1.17 0 0 0-.505.312c-.126.136-.189.323-.189.56 0 .323.12.567.359.732.242.163.548.245.918.245Zm5.262-2.949v3.643h-.931v-6.055h.899v.946h.079a1.73 1.73 0 0 1 .646-.741c.289-.19.663-.284 1.12-.284.41 0 .768.084 1.076.252.307.166.547.418.717.757.171.337.257.762.257 1.277v3.848h-.931v-3.785c0-.475-.123-.846-.37-1.111-.247-.268-.586-.402-1.017-.402a1.62 1.62 0 0 0-.796.193 1.377 1.377 0 0 0-.548.564c-.134.247-.201.546-.201.898Zm9.788-4.43v8.073h-.978v-8.073h.978Zm4.688-.379-2.602 9.666h-.851l2.601-9.666h.852Zm2.474 8.452-1.845-6.055h.978l1.309 4.636h.063l1.293-4.636h.993l1.277 4.62h.063l1.309-4.62h.977l-1.844 6.055h-.915l-1.324-4.652h-.095l-1.324 4.652h-.915Zm9.98.126c-.584 0-1.087-.13-1.51-.387a2.6 2.6 0 0 1-.974-1.087c-.226-.468-.339-1.012-.339-1.632 0-.62.113-1.167.339-1.64a2.68 2.68 0 0 1 .954-1.112c.41-.268.889-.402 1.435-.402.315 0 .627.053.934.158.308.105.588.276.84.512.252.234.453.544.603.93.15.387.225.862.225 1.428v.394h-4.667v-.805h3.721c0-.341-.069-.646-.205-.914a1.543 1.543 0 0 0-.576-.635 1.613 1.613 0 0 0-.875-.232c-.37 0-.691.092-.962.276a1.82 1.82 0 0 0-.619.71 2.09 2.09 0 0 0-.216.937v.536c0 .458.079.845.236 1.163.16.316.383.556.666.722.284.163.614.244.99.244.244 0 .465-.034.662-.102.2-.071.372-.177.516-.316.145-.142.257-.318.335-.528l.899.252a1.99 1.99 0 0 1-.477.804 2.319 2.319 0 0 1-.828.537c-.328.126-.697.189-1.107.189Zm-60.174 12.874v-6.055h.93v6.055h-.93Zm.473-7.064a.66.66 0 0 1-.469-.185.594.594 0 0 1-.193-.446c0-.173.064-.322.193-.445a.66.66 0 0 1 .469-.185c.181 0 .336.061.465.185a.591.591 0 0 1 .197.445.591.591 0 0 1-.197.446.648.648 0 0 1-.465.185Zm3.091 3.421v3.643h-.93v-6.055h.899v.946h.078c.142-.307.358-.554.647-.741.289-.19.662-.284 1.119-.284.41 0 .769.084 1.076.252.308.166.547.418.718.757.171.337.256.762.256 1.277v3.848h-.93v-3.785c0-.475-.124-.846-.371-1.111-.247-.268-.586-.402-1.017-.402-.297 0-.562.064-.796.193a1.383 1.383 0 0 0-.548.564c-.134.247-.201.546-.201.898Zm8.259-2.412v.788h-3.264v-.788h3.264Zm-2.286 6.055v-6.89c0-.347.081-.637.244-.868.163-.231.375-.404.635-.52.26-.116.535-.174.824-.174a2.176 2.176 0 0 1 .883.158l-.268.804a4.82 4.82 0 0 0-.197-.059 1.202 1.202 0 0 0-.324-.035c-.307 0-.529.077-.666.232-.134.155-.201.382-.201.682v6.67h-.93Zm4.52-8.073v8.073h-.93v-8.073h.93Zm5.52 5.597v-3.579h.93v6.055h-.93v-1.025h-.064a1.975 1.975 0 0 1-.662.784c-.299.213-.678.32-1.135.32-.378 0-.715-.083-1.009-.249a1.74 1.74 0 0 1-.694-.757c-.168-.339-.252-.766-.252-1.28v-3.848h.93v3.784c0 .442.124.794.371 1.056.249.263.567.395.954.395.231 0 .466-.06.705-.178.242-.118.444-.3.607-.544.166-.244.249-.556.249-.934Zm5.172 2.602c-.583 0-1.086-.13-1.51-.387a2.59 2.59 0 0 1-.973-1.087c-.226-.468-.339-1.012-.339-1.632 0-.62.113-1.167.339-1.64.228-.476.546-.846.954-1.112.41-.268.888-.402 1.435-.402.315 0 .626.053.934.158.307.105.587.276.839.512.253.234.454.544.603.93.15.387.225.862.225 1.428v.394h-4.667v-.805h3.721a1.98 1.98 0 0 0-.205-.914 1.548 1.548 0 0 0-.575-.635 1.613 1.613 0 0 0-.875-.232c-.371 0-.692.092-.962.276a1.811 1.811 0 0 0-.619.71 2.078 2.078 0 0 0-.217.937v.536c0 .458.079.845.237 1.163.16.316.382.556.666.722.284.163.613.244.989.244.245 0 .465-.034.662-.102.2-.071.372-.177.517-.316.144-.142.256-.318.335-.528l.898.252a1.988 1.988 0 0 1-.476.804c-.224.229-.5.408-.828.537-.329.126-.698.189-1.108.189Zm4.852-3.769v3.643h-.93v-6.055h.899v.946h.079a1.73 1.73 0 0 1 .646-.741c.289-.19.662-.284 1.12-.284.41 0 .768.084 1.076.252.307.166.546.418.717.757.171.337.256.762.256 1.277v3.848h-.93v-3.785c0-.475-.123-.846-.37-1.111-.247-.268-.586-.402-1.017-.402-.297 0-.563.064-.797.193a1.383 1.383 0 0 0-.548.564c-.134.247-.201.546-.201.898Zm8.023 3.769c-.568 0-1.056-.134-1.466-.402a2.614 2.614 0 0 1-.946-1.108c-.221-.47-.332-1.008-.332-1.612 0-.615.113-1.158.339-1.628.229-.473.547-.842.954-1.108.41-.268.889-.402 1.435-.402.426 0 .81.079 1.151.237.342.157.622.378.84.662.218.284.353.615.406.993h-.931a1.432 1.432 0 0 0-.473-.733c-.241-.215-.567-.323-.977-.323-.363 0-.681.094-.954.284-.271.186-.482.45-.635.792-.149.339-.224.737-.224 1.194 0 .468.073.875.22 1.222.15.347.36.616.631.808.273.192.594.288.962.288.242 0 .461-.042.658-.126.197-.084.364-.205.501-.363.136-.157.234-.347.291-.567h.931a2.157 2.157 0 0 1-1.206 1.643c-.337.166-.728.249-1.175.249Zm6.279 0c-.583 0-1.086-.13-1.51-.387a2.59 2.59 0 0 1-.973-1.087c-.226-.468-.339-1.012-.339-1.632 0-.62.113-1.167.339-1.64.228-.476.546-.846.954-1.112.41-.268.888-.402 1.435-.402.315 0 .626.053.934.158.307.105.587.276.839.512.253.234.454.544.603.93.15.387.225.862.225 1.428v.394h-4.667v-.805h3.721a1.98 1.98 0 0 0-.205-.914 1.548 1.548 0 0 0-.575-.635 1.613 1.613 0 0 0-.875-.232c-.371 0-.692.092-.962.276a1.811 1.811 0 0 0-.619.71 2.078 2.078 0 0 0-.217.937v.536c0 .458.079.845.237 1.163.16.316.382.556.666.722.284.163.613.244.989.244.245 0 .465-.034.662-.102.2-.071.372-.177.517-.316.144-.142.256-.318.335-.528l.898.252a1.988 1.988 0 0 1-.476.804c-.224.229-.5.408-.828.537-.329.126-.698.189-1.108.189Zm5.136-2.397v-.047c.006-.502.058-.902.158-1.199.1-.296.242-.537.426-.72a3.42 3.42 0 0 1 .662-.51c.155-.094.294-.206.418-.334a1.5 1.5 0 0 0 .402-1.021c0-.258-.061-.481-.182-.67a1.212 1.212 0 0 0-.484-.438 1.472 1.472 0 0 0-.674-.154c-.216 0-.424.045-.623.134-.2.09-.367.23-.501.422-.134.192-.211.443-.232.753h-.994c.021-.447.137-.83.347-1.147a2.09 2.09 0 0 1 .84-.73 2.646 2.646 0 0 1 1.163-.252c.462 0 .864.092 1.206.276.344.184.609.437.796.757.189.32.284.686.284 1.096 0 .29-.045.55-.134.784a1.932 1.932 0 0 1-.379.627c-.163.184-.36.347-.591.489a2.474 2.474 0 0 0-.556.457c-.139.158-.24.346-.303.564-.063.218-.097.49-.103.816v.047h-.946Zm.505 2.334a.682.682 0 0 1-.501-.21.684.684 0 0 1-.209-.5c0-.194.07-.361.209-.5a.682.682 0 0 1 .501-.21c.194 0 .361.07.5.21a.68.68 0 0 1 .209.5.675.675 0 0 1-.098.355.741.741 0 0 1-.256.26.68.68 0 0 1-.355.095ZM117.951 22.652l-2.207-8.072h.993l1.687 6.574h.079l1.719-6.574h1.104l1.718 6.574h.079l1.687-6.574h.993l-2.207 8.072h-1.009l-1.782-6.433h-.063l-1.781 6.433h-1.01Zm9.875-3.642v3.642h-.931V14.58h.931v2.964h.078c.142-.313.355-.561.639-.745.286-.187.667-.28 1.143-.28.413 0 .774.083 1.084.248.31.163.551.414.721.753.174.337.261.765.261 1.285v3.847h-.931v-3.784c0-.48-.124-.852-.374-1.115-.247-.266-.59-.398-1.029-.398-.305 0-.578.064-.82.193a1.409 1.409 0 0 0-.567.563c-.137.247-.205.547-.205.9Zm7.409 3.784c-.384 0-.732-.072-1.044-.216a1.792 1.792 0 0 1-.745-.635c-.184-.279-.276-.615-.276-1.01 0-.346.068-.627.205-.843a1.44 1.44 0 0 1 .548-.512c.228-.124.48-.216.756-.276.279-.063.559-.113.84-.15.368-.047.666-.083.895-.106.231-.027.399-.07.504-.13.108-.06.162-.166.162-.316v-.031c0-.39-.107-.691-.319-.907-.211-.215-.53-.323-.958-.323-.444 0-.793.097-1.045.292-.252.194-.429.402-.532.622l-.883-.315c.158-.368.368-.654.631-.86.265-.207.554-.351.867-.433.315-.084.625-.126.93-.126.195 0 .418.024.67.07.255.046.501.139.737.28.24.143.438.357.596.643.157.287.236.67.236 1.151v3.99h-.93v-.82h-.047a1.67 1.67 0 0 1-.316.421 1.82 1.82 0 0 1-.587.383c-.244.105-.543.157-.895.157Zm.142-.835c.368 0 .678-.073.93-.217a1.478 1.478 0 0 0 .773-1.281v-.852c-.04.048-.126.091-.26.13-.132.037-.284.07-.458.099a19.94 19.94 0 0 1-.89.118 3.547 3.547 0 0 0-.678.154 1.169 1.169 0 0 0-.505.311c-.126.137-.189.323-.189.56 0 .323.119.568.359.733.241.163.548.245.918.245Zm6.964-5.361v.788h-3.138v-.788h3.138Zm-2.223-1.45h.93v5.77c0 .263.038.46.115.591a.587.587 0 0 0 .299.26c.124.042.254.064.39.064.103 0 .187-.006.253-.016l.157-.032.19.836a1.948 1.948 0 0 1-.265.07c-.113.027-.256.04-.429.04-.263 0-.521-.056-.773-.17a1.542 1.542 0 0 1-.623-.516c-.163-.23-.244-.523-.244-.875v-6.023Zm9.204 7.63c-.568 0-1.056-.133-1.466-.402a2.614 2.614 0 0 1-.946-1.107c-.221-.47-.331-1.008-.331-1.612 0-.615.113-1.158.339-1.628.228-.473.546-.843.953-1.108.41-.268.889-.402 1.435-.402.426 0 .81.079 1.151.237.342.157.622.378.84.662.218.284.353.615.406.993h-.93a1.446 1.446 0 0 0-.473-.733c-.242-.216-.568-.323-.978-.323-.363 0-.681.094-.954.283-.271.187-.482.451-.635.793-.149.339-.224.737-.224 1.194 0 .468.073.875.221 1.222.149.347.36.616.63.808.274.192.594.288.962.288.242 0 .461-.042.658-.126.197-.084.364-.205.501-.363s.234-.347.292-.568h.93c-.053.358-.183.68-.39.966a2.18 2.18 0 0 1-.816.678c-.337.166-.728.248-1.175.248Zm5.522.016c-.383 0-.731-.072-1.044-.216a1.792 1.792 0 0 1-.745-.635c-.184-.279-.276-.615-.276-1.01 0-.346.068-.627.205-.843.137-.218.319-.389.548-.512.228-.124.481-.216.757-.276a9.17 9.17 0 0 1 .839-.15c.368-.047.666-.083.895-.106.231-.027.399-.07.505-.13.107-.06.161-.166.161-.316v-.031c0-.39-.106-.691-.319-.907-.21-.215-.53-.323-.958-.323-.444 0-.792.097-1.045.292-.252.194-.429.402-.532.622l-.883-.315c.158-.368.368-.654.631-.86.265-.207.555-.351.867-.433.316-.084.626-.126.93-.126.195 0 .418.024.671.07.254.046.5.139.737.28.239.143.437.357.595.643.158.287.236.67.236 1.151v3.99h-.93v-.82h-.047a1.64 1.64 0 0 1-.315.421c-.148.15-.343.277-.588.383-.244.105-.542.157-.895.157Zm.142-.835c.368 0 .678-.073.931-.217a1.482 1.482 0 0 0 .772-1.281v-.852c-.039.048-.126.091-.26.13-.131.037-.284.07-.457.099a20.687 20.687 0 0 1-.891.118 3.547 3.547 0 0 0-.678.154 1.169 1.169 0 0 0-.505.311c-.126.137-.189.323-.189.56 0 .323.12.568.359.733.242.163.548.245.918.245Zm5.262-2.949v3.642h-.931v-6.054h.899v.946h.079c.142-.308.357-.555.646-.741.289-.19.663-.284 1.12-.284.41 0 .768.084 1.076.252.307.166.546.418.717.757.171.336.256.762.256 1.277v3.847h-.93v-3.784c0-.475-.123-.846-.37-1.111-.247-.268-.586-.402-1.017-.402a1.62 1.62 0 0 0-.796.193 1.377 1.377 0 0 0-.548.563c-.134.247-.201.547-.201.9Zm6.382-4.43v.71c0 .215-.039.445-.118.689a2.833 2.833 0 0 1-.339.706 2.5 2.5 0 0 1-.536.59l-.505-.41c.166-.236.309-.481.43-.736.124-.258.185-.532.185-.824v-.725h.883Zm4.025 2.018v.788h-3.138v-.788h3.138Zm-2.223-1.45h.93v5.77c0 .263.038.46.114.591a.593.593 0 0 0 .3.26c.123.042.253.064.39.064.103 0 .187-.006.252-.016l.158-.032.189.836a1.887 1.887 0 0 1-.264.07 1.95 1.95 0 0 1-.43.04c-.262 0-.52-.056-.772-.17a1.536 1.536 0 0 1-.623-.516c-.163-.23-.244-.523-.244-.875v-6.023Zm7.848-.568v8.072h-.978V14.58h.978Zm4.687-.379-2.601 9.665h-.852l2.602-9.665h.851Zm2.475 8.451-1.845-6.054h.978l1.308 4.635h.063l1.293-4.635h.994l1.277 4.62h.063l1.309-4.62h.977l-1.845 6.054h-.914l-1.325-4.65h-.094l-1.325 4.65h-.914Zm9.979.127c-.583 0-1.086-.13-1.509-.387a2.593 2.593 0 0 1-.974-1.088c-.226-.467-.339-1.011-.339-1.632 0-.62.113-1.166.339-1.64a2.68 2.68 0 0 1 .954-1.111c.41-.268.888-.402 1.435-.402.315 0 .627.053.934.158.307.105.587.276.84.512.252.234.453.544.603.93.15.387.224.862.224 1.427v.394h-4.667v-.804h3.721a1.98 1.98 0 0 0-.205-.914 1.54 1.54 0 0 0-.575-.635 1.612 1.612 0 0 0-.875-.232 1.67 1.67 0 0 0-.962.276 1.82 1.82 0 0 0-.619.71 2.091 2.091 0 0 0-.217.937v.536c0 .457.079.845.237 1.163.16.315.382.556.666.721.284.163.614.245.989.245.245 0 .466-.034.663-.103.199-.07.371-.176.516-.315.145-.142.256-.318.335-.528l.899.252a2.002 2.002 0 0 1-.477.804 2.328 2.328 0 0 1-.828.536 3.07 3.07 0 0 1-1.108.19Zm-56.288 13c-.568 0-1.057-.135-1.467-.403a2.621 2.621 0 0 1-.946-1.107c-.221-.47-.331-1.008-.331-1.612 0-.615.113-1.158.339-1.628.229-.473.547-.843.954-1.108.41-.268.888-.402 1.435-.402.426 0 .809.079 1.151.237.341.157.621.378.839.662.219.284.354.615.406.993h-.93a1.44 1.44 0 0 0-.473-.733c-.242-.216-.567-.323-.977-.323-.363 0-.681.094-.954.283-.271.187-.483.451-.635.793-.15.339-.225.737-.225 1.194 0 .468.074.875.221 1.222.15.347.36.616.631.808.273.192.594.288.962.288.241 0 .461-.042.658-.126a1.351 1.351 0 0 0 .792-.93h.93a2.144 2.144 0 0 1-1.206 1.643c-.336.166-.728.248-1.174.248Zm4.671-3.769v3.642h-.931V27.58h.931v2.964h.078c.142-.313.355-.561.639-.745.286-.187.667-.28 1.143-.28.413 0 .774.083 1.084.248.31.163.551.414.721.753.174.337.261.765.261 1.285v3.847h-.931v-3.784c0-.48-.125-.852-.374-1.115-.247-.266-.59-.398-1.029-.398-.305 0-.578.064-.82.193a1.409 1.409 0 0 0-.567.563c-.137.247-.205.547-.205.9Zm7.409 3.784c-.384 0-.732-.072-1.044-.216a1.786 1.786 0 0 1-.745-.635c-.184-.279-.276-.615-.276-1.01 0-.346.068-.627.205-.843.136-.218.319-.389.547-.512.229-.124.481-.216.757-.276.279-.063.559-.113.84-.15.368-.047.666-.083.895-.106.231-.027.399-.07.504-.13.108-.06.162-.166.162-.316v-.031c0-.39-.107-.691-.319-.907-.211-.215-.53-.323-.958-.323-.444 0-.793.097-1.045.292-.252.194-.43.402-.532.622l-.883-.315c.158-.368.368-.654.631-.86.265-.207.554-.351.867-.433.315-.084.625-.126.93-.126.195 0 .418.024.67.07.255.046.501.139.737.28.24.143.438.357.596.643.157.287.236.67.236 1.151v3.99h-.93v-.82h-.047a1.67 1.67 0 0 1-.316.421 1.82 1.82 0 0 1-.587.383c-.245.105-.543.157-.895.157Zm.142-.835c.368 0 .678-.073.93-.217a1.478 1.478 0 0 0 .773-1.281v-.852c-.04.048-.126.091-.26.13-.132.037-.284.07-.458.099a19.94 19.94 0 0 1-.89.118 3.547 3.547 0 0 0-.678.154 1.169 1.169 0 0 0-.505.311c-.126.137-.189.324-.189.56 0 .323.119.568.359.733.241.163.547.245.918.245Zm5.261-2.949v3.642h-.93v-6.054h.899v.946h.079c.141-.308.357-.555.646-.741.289-.19.662-.284 1.119-.284.41 0 .769.084 1.077.252.307.166.546.418.717.757.171.336.256.762.256 1.277v3.847h-.93v-3.784c0-.475-.124-.846-.371-1.111-.247-.268-.586-.402-1.017-.402-.297 0-.562.064-.796.193a1.383 1.383 0 0 0-.548.563c-.134.247-.201.547-.201.9Zm8.007 6.039c-.449 0-.836-.058-1.159-.173a2.466 2.466 0 0 1-.808-.45 2.449 2.449 0 0 1-.508-.591l.741-.52c.084.11.19.236.319.378.129.145.305.27.528.374.226.108.522.162.887.162.489 0 .892-.118 1.21-.355.318-.236.477-.607.477-1.111v-1.23h-.079c-.068.11-.165.247-.291.41-.124.16-.303.303-.537.43-.231.123-.544.185-.938.185-.488 0-.927-.116-1.316-.347a2.43 2.43 0 0 1-.919-1.01c-.223-.44-.335-.977-.335-1.608 0-.62.109-1.16.327-1.62.219-.462.522-.82.911-1.072a2.403 2.403 0 0 1 1.348-.382c.394 0 .707.066.938.197.234.129.413.276.536.441.126.163.224.297.292.403h.095v-.962h.898v6.228c0 .52-.118.943-.354 1.269-.234.328-.55.569-.946.721a3.578 3.578 0 0 1-1.317.233Zm-.032-3.327c.374 0 .689-.085.946-.256.258-.17.454-.417.588-.737.134-.32.201-.704.201-1.151 0-.437-.066-.821-.197-1.155a1.735 1.735 0 0 0-.584-.785c-.257-.189-.575-.283-.954-.283-.394 0-.722.1-.985.3-.26.199-.456.467-.587.803-.129.337-.193.71-.193 1.12 0 .42.065.792.197 1.115.134.32.331.573.591.757.263.181.589.272.977.272Zm6.891 1.056c-.584 0-1.087-.128-1.51-.386a2.593 2.593 0 0 1-.974-1.088c-.226-.468-.339-1.012-.339-1.632 0-.62.113-1.166.339-1.64a2.68 2.68 0 0 1 .954-1.111c.41-.268.888-.402 1.435-.402.315 0 .627.053.934.158.308.105.588.276.84.512.252.234.453.544.603.93.15.387.225.862.225 1.427v.394h-4.667v-.804h3.721c0-.341-.069-.646-.205-.914a1.543 1.543 0 0 0-.576-.635 1.612 1.612 0 0 0-.875-.232c-.37 0-.691.092-.962.276a1.82 1.82 0 0 0-.619.71 2.09 2.09 0 0 0-.216.937v.536c0 .458.078.845.236 1.163.16.315.382.556.666.721.284.163.614.245.99.245.244 0 .465-.034.662-.103.2-.07.372-.176.516-.315.145-.142.256-.318.335-.528l.899.252a2.002 2.002 0 0 1-.477.804 2.319 2.319 0 0 1-.828.536c-.328.126-.697.19-1.107.19Zm5.136-2.396v-.047c.005-.502.058-.902.157-1.199.1-.297.242-.537.426-.721a3.45 3.45 0 0 1 .662-.508c.155-.095.295-.207.418-.336a1.483 1.483 0 0 0 .402-1.02c0-.258-.06-.481-.181-.67a1.22 1.22 0 0 0-.485-.438 1.469 1.469 0 0 0-.674-.154c-.215 0-.423.045-.623.134-.199.09-.366.23-.5.422-.134.192-.212.443-.233.753h-.993c.021-.447.136-.83.347-1.147.212-.318.492-.561.839-.73.35-.168.737-.252 1.163-.252.463 0 .865.092 1.206.276.344.184.61.436.796.757.19.32.284.686.284 1.096 0 .289-.044.55-.134.784a1.928 1.928 0 0 1-.378.627 2.6 2.6 0 0 1-.591.489 2.43 2.43 0 0 0-.556.457 1.447 1.447 0 0 0-.304.564c-.063.218-.097.49-.102.816v.047h-.946Zm.504 2.333a.682.682 0 0 1-.5-.209.68.68 0 0 1-.209-.5.68.68 0 0 1 .209-.5.682.682 0 0 1 .5-.21c.195 0 .362.07.501.21.139.139.209.305.209.5a.733.733 0 0 1-.355.615.675.675 0 0 1-.355.094Z"/>
  </svg>