<svg xmlns="http://www.w3.org/2000/svg" width="432" height="432" fill="none" viewBox="0 0 432 432">
    <circle cx="216" cy="216" r="213" fill="#f5d6d7" stroke="#cb3335" stroke-width="6"/>
    <circle cx="216" cy="216" r="147" fill="#f9eec6" stroke="#e8b91c" stroke-width="6"/>
    <circle cx="216" cy="216" r="75" fill="#d4e6d5" stroke="#62a969" stroke-width="6"/>
    <path fill="#222" d="m188.817 166-2.988-8.46h1.608l2.304 6.936h-.48l2.484-6.936h1.152l2.304 6.936h-.444l2.412-6.936h1.512l-3.012 8.46h-1.284l-2.232-6.504h.264L190.101 166h-1.284Zm10.981 0v-8.832h1.5v3.984h-.168c.184-.432.468-.76.852-.984a2.502 2.502 0 0 1 1.32-.348c.72 0 1.256.204 1.608.612.352.4.528 1.012.528 1.836V166h-1.5v-3.66c0-.472-.092-.812-.276-1.02-.176-.216-.46-.324-.852-.324-.456 0-.824.144-1.104.432-.272.28-.408.656-.408 1.128V166h-1.5Zm9.571.12c-.528 0-.992-.124-1.392-.372-.4-.256-.712-.62-.936-1.092-.224-.472-.336-1.036-.336-1.692 0-.656.112-1.216.336-1.68.224-.472.536-.832.936-1.08.4-.256.864-.384 1.392-.384.512 0 .96.128 1.344.384.392.248.652.584.78 1.008h-.132l.132-1.272h1.44l-.072.756a12.12 12.12 0 0 0-.024.756V166h-1.488l-.012-1.248h.144a1.77 1.77 0 0 1-.78.996 2.439 2.439 0 0 1-1.332.372Zm.42-1.152c.472 0 .852-.164 1.14-.492.288-.336.432-.84.432-1.512s-.144-1.172-.432-1.5c-.288-.328-.668-.492-1.14-.492-.472 0-.852.164-1.14.492-.288.328-.432.828-.432 1.5s.14 1.176.42 1.512c.288.328.672.492 1.152.492Zm7.273 1.152c-.72 0-1.264-.188-1.632-.564-.368-.376-.552-.94-.552-1.692v-2.796h-1.164v-1.128h1.164v-1.548l1.5-.384v1.932h1.62v1.128h-1.62v2.7c0 .416.08.708.24.876.16.168.38.252.66.252.152 0 .28-.012.384-.036.112-.024.22-.056.324-.096v1.188a1.9 1.9 0 0 1-.456.12c-.16.032-.316.048-.468.048Zm8.032 0c-.624 0-1.172-.128-1.644-.384a2.68 2.68 0 0 1-1.08-1.092c-.256-.48-.384-1.048-.384-1.704 0-.656.128-1.216.384-1.68.264-.464.628-.82 1.092-1.068.464-.248 1.008-.372 1.632-.372.4 0 .788.064 1.164.192.384.12.696.296.936.528l-.456 1.044c-.216-.2-.46-.348-.732-.444a2.118 2.118 0 0 0-.78-.156c-.536 0-.956.168-1.26.504-.296.336-.444.824-.444 1.464s.148 1.132.444 1.476c.304.344.724.516 1.26.516.248 0 .504-.048.768-.144.272-.096.52-.244.744-.444l.456 1.032a2.54 2.54 0 0 1-.948.54c-.376.128-.76.192-1.152.192Zm5.568 0c-.528 0-.992-.124-1.392-.372-.4-.256-.712-.62-.936-1.092-.224-.472-.336-1.036-.336-1.692 0-.656.112-1.216.336-1.68.224-.472.536-.832.936-1.08.4-.256.864-.384 1.392-.384.512 0 .96.128 1.344.384.392.248.652.584.78 1.008h-.132l.132-1.272h1.44l-.072.756a12.12 12.12 0 0 0-.024.756V166h-1.488l-.012-1.248h.144a1.77 1.77 0 0 1-.78.996 2.439 2.439 0 0 1-1.332.372Zm.42-1.152c.472 0 .852-.164 1.14-.492.288-.336.432-.84.432-1.512s-.144-1.172-.432-1.5c-.288-.328-.668-.492-1.14-.492-.472 0-.852.164-1.14.492-.288.328-.432.828-.432 1.5s.14 1.176.42 1.512c.288.328.672.492 1.152.492Zm4.681 1.032v-4.548a12.12 12.12 0 0 0-.096-1.512h1.452l.12 1.2h-.144c.192-.424.476-.748.852-.972.376-.232.812-.348 1.308-.348.712 0 1.248.2 1.608.6.36.4.54 1.024.54 1.872V166h-1.5v-3.636c0-.488-.096-.836-.288-1.044-.184-.216-.464-.324-.84-.324-.464 0-.832.144-1.104.432-.272.288-.408.672-.408 1.152V166h-1.5Zm-56.639 15v-8.46h1.548V181h-1.548Zm3.41.708h-1.236l3.156-9.732h1.236l-3.156 9.732Zm4.993-.708-2.364-6.06h1.548l1.704 4.716h-.312l1.728-4.716h1.068l1.716 4.716h-.276l1.692-4.716h1.464l-2.364 6.06h-1.32l-1.812-4.824h.636L188.859 181h-1.332Zm11.725.12c-1.016 0-1.812-.28-2.388-.84-.576-.56-.864-1.328-.864-2.304 0-.632.124-1.184.372-1.656a2.75 2.75 0 0 1 1.032-1.104c.448-.264.968-.396 1.56-.396.584 0 1.072.124 1.464.372.392.248.688.596.888 1.044.208.448.312.972.312 1.572v.396h-4.416v-.792h3.348l-.204.168c0-.56-.12-.988-.36-1.284-.232-.296-.572-.444-1.02-.444-.496 0-.88.176-1.152.528-.264.352-.396.844-.396 1.476v.156c0 .656.16 1.148.48 1.476.328.32.788.48 1.38.48.344 0 .664-.044.96-.132.304-.096.592-.248.864-.456l.444 1.008a3.162 3.162 0 0 1-1.032.54c-.4.128-.824.192-1.272.192Zm9.723 0c-.624 0-1.172-.128-1.644-.384a2.68 2.68 0 0 1-1.08-1.092c-.256-.48-.384-1.048-.384-1.704 0-.656.128-1.216.384-1.68.264-.464.628-.82 1.092-1.068.464-.248 1.008-.372 1.632-.372.4 0 .788.064 1.164.192.384.12.696.296.936.528l-.456 1.044c-.216-.2-.46-.348-.732-.444a2.118 2.118 0 0 0-.78-.156c-.536 0-.956.168-1.26.504-.296.336-.444.824-.444 1.464s.148 1.132.444 1.476c.304.344.724.516 1.26.516.248 0 .504-.048.768-.144.272-.096.52-.244.744-.444l.456 1.032a2.54 2.54 0 0 1-.948.54c-.376.128-.76.192-1.152.192Zm3.263-.12v-8.832h1.5v3.984h-.168c.184-.432.468-.76.852-.984a2.502 2.502 0 0 1 1.32-.348c.72 0 1.256.204 1.608.612.352.4.528 1.012.528 1.836V181h-1.5v-3.66c0-.472-.092-.812-.276-1.02-.176-.216-.46-.324-.852-.324-.456 0-.824.144-1.104.432-.272.28-.408.656-.408 1.128V181h-1.5Zm9.57.12c-.528 0-.992-.124-1.392-.372-.4-.256-.712-.62-.936-1.092-.224-.472-.336-1.036-.336-1.692 0-.656.112-1.216.336-1.68.224-.472.536-.832.936-1.08.4-.256.864-.384 1.392-.384.512 0 .96.128 1.344.384.392.248.652.584.78 1.008h-.132l.132-1.272h1.44l-.072.756a12.12 12.12 0 0 0-.024.756V181h-1.488l-.012-1.248h.144a1.77 1.77 0 0 1-.78.996 2.439 2.439 0 0 1-1.332.372Zm.42-1.152c.472 0 .852-.164 1.14-.492.288-.336.432-.84.432-1.512s-.144-1.172-.432-1.5c-.288-.328-.668-.492-1.14-.492-.472 0-.852.164-1.14.492-.288.328-.432.828-.432 1.5s.14 1.176.42 1.512c.288.328.672.492 1.152.492ZM226.91 181v-4.548a12.12 12.12 0 0 0-.096-1.512h1.452l.12 1.2h-.144c.192-.424.476-.748.852-.972.376-.232.812-.348 1.308-.348.712 0 1.248.2 1.608.6.36.4.54 1.024.54 1.872V181h-1.5v-3.636c0-.488-.096-.836-.288-1.044-.184-.216-.464-.324-.84-.324-.464 0-.832.144-1.104.432-.272.288-.408.672-.408 1.152V181h-1.5Zm10.038 2.688c-.56 0-1.068-.06-1.524-.18a3.746 3.746 0 0 1-1.2-.552l.324-1.08c.232.152.472.276.72.372.248.096.504.168.768.216.264.048.532.072.804.072.56 0 .976-.14 1.248-.42.28-.272.42-.664.42-1.176v-1.452h.12a1.77 1.77 0 0 1-.78.996 2.4 2.4 0 0 1-1.332.372c-.544 0-1.02-.12-1.428-.36a2.51 2.51 0 0 1-.936-1.056c-.224-.456-.336-.992-.336-1.608 0-.616.112-1.148.336-1.596.224-.456.536-.804.936-1.044.408-.248.884-.372 1.428-.372.512 0 .956.124 1.332.372.384.24.64.568.768.984l-.108-.072.12-1.164h1.452a11.523 11.523 0 0 0-.096 1.512v4.308c0 .952-.26 1.676-.78 2.172-.512.504-1.264.756-2.256.756Zm-.024-3.984c.48 0 .86-.16 1.14-.48.288-.328.432-.792.432-1.392 0-.6-.144-1.06-.432-1.38-.28-.32-.66-.48-1.14-.48-.488 0-.876.16-1.164.48-.288.32-.432.78-.432 1.38 0 .6.144 1.064.432 1.392.288.32.676.48 1.164.48Zm7.609 1.416c-1.016 0-1.812-.28-2.388-.84-.576-.56-.864-1.328-.864-2.304 0-.632.124-1.184.372-1.656a2.75 2.75 0 0 1 1.032-1.104c.448-.264.968-.396 1.56-.396.584 0 1.072.124 1.464.372.392.248.688.596.888 1.044.208.448.312.972.312 1.572v.396h-4.416v-.792h3.348l-.204.168c0-.56-.12-.988-.36-1.284-.232-.296-.572-.444-1.02-.444-.496 0-.88.176-1.152.528-.264.352-.396.844-.396 1.476v.156c0 .656.16 1.148.48 1.476.328.32.788.48 1.38.48.344 0 .664-.044.96-.132.304-.096.592-.248.864-.456l.444 1.008a3.162 3.162 0 0 1-1.032.54c-.4.128-.824.192-1.272.192Zm4.765-2.628v-.48c0-.376.072-.724.216-1.044.144-.32.392-.668.744-1.044.264-.28.448-.524.552-.732.112-.216.168-.432.168-.648a.743.743 0 0 0-.312-.636c-.2-.152-.48-.228-.84-.228-.312 0-.62.048-.924.144a4.182 4.182 0 0 0-.864.384v-1.296c.28-.16.596-.28.948-.36.36-.088.712-.132 1.056-.132.472 0 .892.072 1.26.216.376.136.668.348.876.636.216.28.324.64.324 1.08 0 .264-.048.52-.144.768-.088.24-.216.472-.384.696a4.783 4.783 0 0 1-.624.672c-.392.344-.664.644-.816.9a1.984 1.984 0 0 0-.276.768l-.048.336h-.912Zm-.384 2.508v-1.668h1.68V181h-1.68ZM188.817 96l-2.988-8.46h1.608l2.304 6.936h-.48l2.484-6.936h1.152l2.304 6.936h-.444l2.412-6.936h1.512L195.669 96h-1.284l-2.232-6.504h.264L190.101 96h-1.284Zm10.981 0v-8.832h1.5v3.984h-.168c.184-.432.468-.76.852-.984a2.502 2.502 0 0 1 1.32-.348c.72 0 1.256.204 1.608.612.352.4.528 1.012.528 1.836V96h-1.5v-3.66c0-.472-.092-.812-.276-1.02-.176-.216-.46-.324-.852-.324-.456 0-.824.144-1.104.432-.272.28-.408.656-.408 1.128V96h-1.5Zm9.571.12c-.528 0-.992-.124-1.392-.372-.4-.256-.712-.62-.936-1.092-.224-.472-.336-1.036-.336-1.692 0-.656.112-1.216.336-1.68.224-.472.536-.832.936-1.08.4-.256.864-.384 1.392-.384.512 0 .96.128 1.344.384.392.248.652.584.78 1.008h-.132l.132-1.272h1.44l-.072.756a12.12 12.12 0 0 0-.024.756V96h-1.488l-.012-1.248h.144a1.77 1.77 0 0 1-.78.996 2.439 2.439 0 0 1-1.332.372Zm.42-1.152c.472 0 .852-.164 1.14-.492.288-.336.432-.84.432-1.512s-.144-1.172-.432-1.5c-.288-.328-.668-.492-1.14-.492-.472 0-.852.164-1.14.492-.288.328-.432.828-.432 1.5s.14 1.176.42 1.512c.288.328.672.492 1.152.492Zm7.273 1.152c-.72 0-1.264-.188-1.632-.564-.368-.376-.552-.94-.552-1.692v-2.796h-1.164V89.94h1.164v-1.548l1.5-.384v1.932h1.62v1.128h-1.62v2.7c0 .416.08.708.24.876.16.168.38.252.66.252.152 0 .28-.012.384-.036.112-.024.22-.056.324-.096v1.188a1.9 1.9 0 0 1-.456.12c-.16.032-.316.048-.468.048Zm8.032 0c-.624 0-1.172-.128-1.644-.384a2.68 2.68 0 0 1-1.08-1.092c-.256-.48-.384-1.048-.384-1.704 0-.656.128-1.216.384-1.68.264-.464.628-.82 1.092-1.068.464-.248 1.008-.372 1.632-.372.4 0 .788.064 1.164.192.384.12.696.296.936.528l-.456 1.044c-.216-.2-.46-.348-.732-.444a2.118 2.118 0 0 0-.78-.156c-.536 0-.956.168-1.26.504-.296.336-.444.824-.444 1.464s.148 1.132.444 1.476c.304.344.724.516 1.26.516.248 0 .504-.048.768-.144.272-.096.52-.244.744-.444l.456 1.032a2.54 2.54 0 0 1-.948.54c-.376.128-.76.192-1.152.192Zm5.568 0c-.528 0-.992-.124-1.392-.372-.4-.256-.712-.62-.936-1.092-.224-.472-.336-1.036-.336-1.692 0-.656.112-1.216.336-1.68.224-.472.536-.832.936-1.08.4-.256.864-.384 1.392-.384.512 0 .96.128 1.344.384.392.248.652.584.78 1.008h-.132l.132-1.272h1.44l-.072.756a12.12 12.12 0 0 0-.024.756V96h-1.488l-.012-1.248h.144a1.77 1.77 0 0 1-.78.996 2.439 2.439 0 0 1-1.332.372Zm.42-1.152c.472 0 .852-.164 1.14-.492.288-.336.432-.84.432-1.512s-.144-1.172-.432-1.5c-.288-.328-.668-.492-1.14-.492-.472 0-.852.164-1.14.492-.288.328-.432.828-.432 1.5s.14 1.176.42 1.512c.288.328.672.492 1.152.492ZM235.763 96v-4.548a12.12 12.12 0 0 0-.096-1.512h1.452l.12 1.2h-.144c.192-.424.476-.748.852-.972.376-.232.812-.348 1.308-.348.712 0 1.248.2 1.608.6.36.4.54 1.024.54 1.872V96h-1.5v-3.636c0-.488-.096-.836-.288-1.044-.184-.216-.464-.324-.84-.324-.464 0-.832.144-1.104.432-.272.288-.408.672-.408 1.152V96h-1.5Zm-61.321 15v-8.46h1.548V111h-1.548Zm3.41.708h-1.236l3.156-9.732h1.236l-3.156 9.732Zm4.994-.708-2.364-6.06h1.548l1.704 4.716h-.312l1.728-4.716h1.068l1.716 4.716h-.276l1.692-4.716h1.464L188.45 111h-1.32l-1.812-4.824h.636L184.178 111h-1.332Zm11.724.12c-1.016 0-1.812-.28-2.388-.84-.576-.56-.864-1.328-.864-2.304 0-.632.124-1.184.372-1.656a2.75 2.75 0 0 1 1.032-1.104c.448-.264.968-.396 1.56-.396.584 0 1.072.124 1.464.372.392.248.688.596.888 1.044.208.448.312.972.312 1.572v.396h-4.416v-.792h3.348l-.204.168c0-.56-.12-.988-.36-1.284-.232-.296-.572-.444-1.02-.444-.496 0-.88.176-1.152.528-.264.352-.396.844-.396 1.476v.156c0 .656.16 1.148.48 1.476.328.32.788.48 1.38.48.344 0 .664-.044.96-.132.304-.096.592-.248.864-.456l.444 1.008a3.162 3.162 0 0 1-1.032.54c-.4.128-.824.192-1.272.192Zm6.939-.12v-6.06h1.5V111h-1.5Zm-.084-7.2v-1.464h1.668v1.464h-1.668Zm3.213 7.2v-4.548a12.12 12.12 0 0 0-.096-1.512h1.452l.12 1.2h-.144c.192-.424.476-.748.852-.972.376-.232.812-.348 1.308-.348.712 0 1.248.2 1.608.6.36.4.54 1.024.54 1.872V111h-1.5v-3.636c0-.488-.096-.836-.288-1.044-.184-.216-.464-.324-.84-.324-.464 0-.832.144-1.104.432-.272.288-.408.672-.408 1.152V111h-1.5Zm7.639 0v-4.932h-1.164v-1.128h1.584l-.42.384v-.924c0-.752.192-1.32.576-1.704.392-.384.964-.576 1.716-.576.176 0 .36.012.552.036.2.024.372.068.516.132v1.176a1.926 1.926 0 0 0-.372-.096 2.553 2.553 0 0 0-.42-.036c-.208 0-.396.04-.564.12a.904.904 0 0 0-.384.372c-.088.16-.132.376-.132.648v.732l-.216-.264h1.812v1.128h-1.584V111h-1.5Zm4.008 0v-8.832h1.5V111h-1.5Zm5.303.12c-.744 0-1.3-.204-1.668-.612-.368-.408-.552-1.032-.552-1.872v-3.696h1.5v3.684c0 .448.092.78.276.996.184.208.464.312.84.312.424 0 .768-.144 1.032-.432.272-.288.408-.668.408-1.14v-3.42h1.5V111h-1.464v-1.236h.168a2.151 2.151 0 0 1-.804 1.008c-.352.232-.764.348-1.236.348Zm7.892 0c-1.016 0-1.812-.28-2.388-.84-.576-.56-.864-1.328-.864-2.304 0-.632.124-1.184.372-1.656a2.75 2.75 0 0 1 1.032-1.104c.448-.264.968-.396 1.56-.396.584 0 1.072.124 1.464.372.392.248.688.596.888 1.044.208.448.312.972.312 1.572v.396h-4.416v-.792h3.348l-.204.168c0-.56-.12-.988-.36-1.284-.232-.296-.572-.444-1.02-.444-.496 0-.88.176-1.152.528-.264.352-.396.844-.396 1.476v.156c0 .656.16 1.148.48 1.476.328.32.788.48 1.38.48.344 0 .664-.044.96-.132.304-.096.592-.248.864-.456l.444 1.008a3.162 3.162 0 0 1-1.032.54c-.4.128-.824.192-1.272.192Zm3.647-.12v-4.548a12.12 12.12 0 0 0-.096-1.512h1.452l.12 1.2h-.144c.192-.424.476-.748.852-.972.376-.232.812-.348 1.308-.348.712 0 1.248.2 1.608.6.36.4.54 1.024.54 1.872V111h-1.5v-3.636c0-.488-.096-.836-.288-1.044-.184-.216-.464-.324-.84-.324-.464 0-.832.144-1.104.432-.272.288-.408.672-.408 1.152V111h-1.5Zm10.014.12c-.624 0-1.172-.128-1.644-.384a2.68 2.68 0 0 1-1.08-1.092c-.256-.48-.384-1.048-.384-1.704 0-.656.128-1.216.384-1.68.264-.464.628-.82 1.092-1.068.464-.248 1.008-.372 1.632-.372.4 0 .788.064 1.164.192.384.12.696.296.936.528l-.456 1.044c-.216-.2-.46-.348-.732-.444a2.118 2.118 0 0 0-.78-.156c-.536 0-.956.168-1.26.504-.296.336-.444.824-.444 1.464s.148 1.132.444 1.476c.304.344.724.516 1.26.516.248 0 .504-.048.768-.144.272-.096.52-.244.744-.444l.456 1.032a2.54 2.54 0 0 1-.948.54c-.376.128-.76.192-1.152.192Zm6.074 0c-1.016 0-1.812-.28-2.388-.84-.576-.56-.864-1.328-.864-2.304 0-.632.124-1.184.372-1.656a2.75 2.75 0 0 1 1.032-1.104c.448-.264.968-.396 1.56-.396.584 0 1.072.124 1.464.372.392.248.688.596.888 1.044.208.448.312.972.312 1.572v.396h-4.416v-.792h3.348l-.204.168c0-.56-.12-.988-.36-1.284-.232-.296-.572-.444-1.02-.444-.496 0-.88.176-1.152.528-.264.352-.396.844-.396 1.476v.156c0 .656.16 1.148.48 1.476.328.32.788.48 1.38.48.344 0 .664-.044.96-.132.304-.096.592-.248.864-.456l.444 1.008a3.162 3.162 0 0 1-1.032.54c-.4.128-.824.192-1.272.192Zm4.765-2.628v-.48c0-.376.072-.724.216-1.044.144-.32.392-.668.744-1.044.264-.28.448-.524.552-.732.112-.216.168-.432.168-.648a.743.743 0 0 0-.312-.636c-.2-.152-.48-.228-.84-.228-.312 0-.62.048-.924.144a4.182 4.182 0 0 0-.864.384v-1.296c.28-.16.596-.28.948-.36.36-.088.712-.132 1.056-.132.472 0 .892.072 1.26.216.376.136.668.348.876.636.216.28.324.64.324 1.08 0 .264-.048.52-.144.768-.088.24-.216.472-.384.696a4.783 4.783 0 0 1-.624.672c-.392.344-.664.644-.816.9a1.984 1.984 0 0 0-.276.768l-.048.336h-.912Zm-.384 2.508v-1.668h1.68V111h-1.68ZM185.132 24l-2.988-8.46h1.608l2.304 6.936h-.48l2.484-6.936h1.152l2.304 6.936h-.444l2.412-6.936h1.512L191.984 24H190.7l-2.232-6.504h.264L186.416 24h-1.284Zm10.981 0v-8.832h1.5v3.984h-.168c.184-.432.468-.76.852-.984a2.502 2.502 0 0 1 1.32-.348c.72 0 1.256.204 1.608.612.352.4.528 1.012.528 1.836V24h-1.5v-3.66c0-.472-.092-.812-.276-1.02-.176-.216-.46-.324-.852-.324-.456 0-.824.144-1.104.432-.272.28-.408.656-.408 1.128V24h-1.5Zm9.57.12c-.528 0-.992-.124-1.392-.372-.4-.256-.712-.62-.936-1.092-.224-.472-.336-1.036-.336-1.692 0-.656.112-1.216.336-1.68.224-.472.536-.832.936-1.08.4-.256.864-.384 1.392-.384.512 0 .96.128 1.344.384.392.248.652.584.78 1.008h-.132l.132-1.272h1.44l-.072.756a12.12 12.12 0 0 0-.024.756V24h-1.488l-.012-1.248h.144a1.77 1.77 0 0 1-.78.996 2.439 2.439 0 0 1-1.332.372Zm.42-1.152c.472 0 .852-.164 1.14-.492.288-.336.432-.84.432-1.512s-.144-1.172-.432-1.5c-.288-.328-.668-.492-1.14-.492-.472 0-.852.164-1.14.492-.288.328-.432.828-.432 1.5s.14 1.176.42 1.512c.288.328.672.492 1.152.492Zm7.274 1.152c-.72 0-1.264-.188-1.632-.564-.368-.376-.552-.94-.552-1.692v-2.796h-1.164V17.94h1.164v-1.548l1.5-.384v1.932h1.62v1.128h-1.62v2.7c0 .416.08.708.24.876.16.168.38.252.66.252.152 0 .28-.012.384-.036.112-.024.22-.056.324-.096v1.188a1.9 1.9 0 0 1-.456.12c-.16.032-.316.048-.468.048Zm8.032 0c-.624 0-1.172-.128-1.644-.384a2.68 2.68 0 0 1-1.08-1.092c-.256-.48-.384-1.048-.384-1.704 0-.656.128-1.216.384-1.68.264-.464.628-.82 1.092-1.068.464-.248 1.008-.372 1.632-.372.4 0 .788.064 1.164.192.384.12.696.296.936.528l-.456 1.044c-.216-.2-.46-.348-.732-.444a2.118 2.118 0 0 0-.78-.156c-.536 0-.956.168-1.26.504-.296.336-.444.824-.444 1.464s.148 1.132.444 1.476c.304.344.724.516 1.26.516.248 0 .504-.048.768-.144.272-.096.52-.244.744-.444l.456 1.032a2.54 2.54 0 0 1-.948.54c-.376.128-.76.192-1.152.192Zm5.567 0c-.528 0-.992-.124-1.392-.372-.4-.256-.712-.62-.936-1.092-.224-.472-.336-1.036-.336-1.692 0-.656.112-1.216.336-1.68.224-.472.536-.832.936-1.08.4-.256.864-.384 1.392-.384.512 0 .96.128 1.344.384.392.248.652.584.78 1.008h-.132l.132-1.272h1.44l-.072.756a12.12 12.12 0 0 0-.024.756V24h-1.488l-.012-1.248h.144a1.77 1.77 0 0 1-.78.996 2.439 2.439 0 0 1-1.332.372Zm.42-1.152c.472 0 .852-.164 1.14-.492.288-.336.432-.84.432-1.512s-.144-1.172-.432-1.5c-.288-.328-.668-.492-1.14-.492-.472 0-.852.164-1.14.492-.288.328-.432.828-.432 1.5s.14 1.176.42 1.512c.288.328.672.492 1.152.492ZM232.078 24v-4.548a12.12 12.12 0 0 0-.096-1.512h1.452l.12 1.2h-.144c.192-.424.476-.748.852-.972.376-.232.812-.348 1.308-.348.712 0 1.248.2 1.608.6.36.4.54 1.024.54 1.872V24h-1.5v-3.636c0-.488-.096-.836-.288-1.044-.184-.216-.464-.324-.84-.324-.464 0-.832.144-1.104.432-.272.288-.408.672-.408 1.152V24h-1.5Zm7.595-5.208-.612-.48c.256-.264.432-.508.528-.732.104-.232.156-.472.156-.72l.372.336h-1.176V15.54h1.68v1.092c0 .408-.072.784-.216 1.128-.136.336-.38.68-.732 1.032Zm5.051 5.328c-.72 0-1.264-.188-1.632-.564-.368-.376-.552-.94-.552-1.692v-2.796h-1.164V17.94h1.164v-1.548l1.5-.384v1.932h1.62v1.128h-1.62v2.7c0 .416.08.708.24.876.16.168.38.252.66.252.152 0 .28-.012.384-.036.112-.024.22-.056.324-.096v1.188a1.9 1.9 0 0 1-.456.12c-.16.032-.316.048-.468.048ZM179.124 39v-8.46h1.548V39h-1.548Zm3.41.708h-1.236l3.156-9.732h1.236l-3.156 9.732Zm4.993-.708-2.364-6.06h1.548l1.704 4.716h-.312l1.728-4.716h1.068l1.716 4.716h-.276l1.692-4.716h1.464L193.131 39h-1.32l-1.812-4.824h.636L188.859 39h-1.332Zm11.725.12c-1.016 0-1.812-.28-2.388-.84-.576-.56-.864-1.328-.864-2.304 0-.632.124-1.184.372-1.656a2.75 2.75 0 0 1 1.032-1.104c.448-.264.968-.396 1.56-.396.584 0 1.072.124 1.464.372.392.248.688.596.888 1.044.208.448.312.972.312 1.572v.396h-4.416v-.792h3.348l-.204.168c0-.56-.12-.988-.36-1.284-.232-.296-.572-.444-1.02-.444-.496 0-.88.176-1.152.528-.264.352-.396.844-.396 1.476v.156c0 .656.16 1.148.48 1.476.328.32.788.48 1.38.48.344 0 .664-.044.96-.132.304-.096.592-.248.864-.456l.444 1.008a3.162 3.162 0 0 1-1.032.54c-.4.128-.824.192-1.272.192Zm9.723 0c-.624 0-1.172-.128-1.644-.384a2.68 2.68 0 0 1-1.08-1.092c-.256-.48-.384-1.048-.384-1.704 0-.656.128-1.216.384-1.68.264-.464.628-.82 1.092-1.068.464-.248 1.008-.372 1.632-.372.4 0 .788.064 1.164.192.384.12.696.296.936.528l-.456 1.044c-.216-.2-.46-.348-.732-.444a2.118 2.118 0 0 0-.78-.156c-.536 0-.956.168-1.26.504-.296.336-.444.824-.444 1.464s.148 1.132.444 1.476c.304.344.724.516 1.26.516.248 0 .504-.048.768-.144.272-.096.52-.244.744-.444l.456 1.032a2.54 2.54 0 0 1-.948.54c-.376.128-.76.192-1.152.192Zm3.263-.12v-8.832h1.5v3.984h-.168c.184-.432.468-.76.852-.984a2.502 2.502 0 0 1 1.32-.348c.72 0 1.256.204 1.608.612.352.4.528 1.012.528 1.836V39h-1.5v-3.66c0-.472-.092-.812-.276-1.02-.176-.216-.46-.324-.852-.324-.456 0-.824.144-1.104.432-.272.28-.408.656-.408 1.128V39h-1.5Zm9.57.12c-.528 0-.992-.124-1.392-.372-.4-.256-.712-.62-.936-1.092-.224-.472-.336-1.036-.336-1.692 0-.656.112-1.216.336-1.68.224-.472.536-.832.936-1.08.4-.256.864-.384 1.392-.384.512 0 .96.128 1.344.384.392.248.652.584.78 1.008h-.132l.132-1.272h1.44l-.072.756a12.12 12.12 0 0 0-.024.756V39h-1.488l-.012-1.248h.144a1.77 1.77 0 0 1-.78.996 2.439 2.439 0 0 1-1.332.372Zm.42-1.152c.472 0 .852-.164 1.14-.492.288-.336.432-.84.432-1.512s-.144-1.172-.432-1.5c-.288-.328-.668-.492-1.14-.492-.472 0-.852.164-1.14.492-.288.328-.432.828-.432 1.5s.14 1.176.42 1.512c.288.328.672.492 1.152.492ZM226.91 39v-4.548a12.12 12.12 0 0 0-.096-1.512h1.452l.12 1.2h-.144c.192-.424.476-.748.852-.972.376-.232.812-.348 1.308-.348.712 0 1.248.2 1.608.6.36.4.54 1.024.54 1.872V39h-1.5v-3.636c0-.488-.096-.836-.288-1.044-.184-.216-.464-.324-.84-.324-.464 0-.832.144-1.104.432-.272.288-.408.672-.408 1.152V39h-1.5Zm10.038 2.688c-.56 0-1.068-.06-1.524-.18a3.746 3.746 0 0 1-1.2-.552l.324-1.08c.232.152.472.276.72.372.248.096.504.168.768.216.264.048.532.072.804.072.56 0 .976-.14 1.248-.42.28-.272.42-.664.42-1.176v-1.452h.12a1.77 1.77 0 0 1-.78.996 2.4 2.4 0 0 1-1.332.372c-.544 0-1.02-.12-1.428-.36a2.51 2.51 0 0 1-.936-1.056c-.224-.456-.336-.992-.336-1.608 0-.616.112-1.148.336-1.596.224-.456.536-.804.936-1.044.408-.248.884-.372 1.428-.372.512 0 .956.124 1.332.372.384.24.64.568.768.984l-.108-.072.12-1.164h1.452a11.523 11.523 0 0 0-.096 1.512v4.308c0 .952-.26 1.676-.78 2.172-.512.504-1.264.756-2.256.756Zm-.024-3.984c.48 0 .86-.16 1.14-.48.288-.328.432-.792.432-1.392 0-.6-.144-1.06-.432-1.38-.28-.32-.66-.48-1.14-.48-.488 0-.876.16-1.164.48-.288.32-.432.78-.432 1.38 0 .6.144 1.064.432 1.392.288.32.676.48 1.164.48Zm7.609 1.416c-1.016 0-1.812-.28-2.388-.84-.576-.56-.864-1.328-.864-2.304 0-.632.124-1.184.372-1.656a2.75 2.75 0 0 1 1.032-1.104c.448-.264.968-.396 1.56-.396.584 0 1.072.124 1.464.372.392.248.688.596.888 1.044.208.448.312.972.312 1.572v.396h-4.416v-.792h3.348l-.204.168c0-.56-.12-.988-.36-1.284-.232-.296-.572-.444-1.02-.444-.496 0-.88.176-1.152.528-.264.352-.396.844-.396 1.476v.156c0 .656.16 1.148.48 1.476.328.32.788.48 1.38.48.344 0 .664-.044.96-.132.304-.096.592-.248.864-.456l.444 1.008a3.162 3.162 0 0 1-1.032.54c-.4.128-.824.192-1.272.192Zm4.765-2.628v-.48c0-.376.072-.724.216-1.044.144-.32.392-.668.744-1.044.264-.28.448-.524.552-.732.112-.216.168-.432.168-.648a.743.743 0 0 0-.312-.636c-.2-.152-.48-.228-.84-.228-.312 0-.62.048-.924.144a4.182 4.182 0 0 0-.864.384v-1.296c.28-.16.596-.28.948-.36.36-.088.712-.132 1.056-.132.472 0 .892.072 1.26.216.376.136.668.348.876.636.216.28.324.64.324 1.08 0 .264-.048.52-.144.768-.088.24-.216.472-.384.696a4.783 4.783 0 0 1-.624.672c-.392.344-.664.644-.816.9a1.984 1.984 0 0 0-.276.768l-.048.336h-.912ZM248.914 39v-1.668h1.68V39h-1.68Z"/>
  </svg>