<svg xmlns="http://www.w3.org/2000/svg" width="821" height="821" fill="none" viewBox="0 0 821 821">
    <circle fill="var(--fi-control-no-surface, #f5d6d7)" stroke="var(--fi-control-no-border, #cb3335)" cx="410.014" cy="410.6" r="407.014" stroke-width="6" />
    <circle fill="var(--fi-control-maybe-surface, #f9eec6)" stroke="var(--fl-control-maybe-border, #e8b91c)" cx="410.014" cy="410.599" r="281.732" stroke-width="6" />
    <circle fill="var(--fi-control-yes-surface, #d4e6d5)" stroke="var(--fi-control-yes-border, #62a969)" cx="410.014" cy="410.6" r="145.06" stroke-width="6" />
    <path fill="var(--fl-fgColor, #222)" d="m354.586 318.082-4.347-12.408h1.9l3.608 10.718h-.651l3.819-10.718h1.391l3.59 10.718h-.598l3.731-10.718h1.795l-4.382 12.408h-1.567l-3.484-10.208h.369l-3.625 10.208h-1.549Zm16.072 0v-12.954h1.778v5.967h-.246c.258-.669.674-1.174 1.249-1.514.575-.352 1.238-.528 1.989-.528 1.056 0 1.842.294 2.358.88.517.575.775 1.449.775 2.623v5.526h-1.778v-5.421c0-.762-.152-1.314-.457-1.654-.294-.352-.763-.528-1.408-.528-.751 0-1.356.234-1.813.704-.446.457-.669 1.068-.669 1.83v5.069h-1.778Zm13.83.158c-.786 0-1.473-.181-2.059-.545-.587-.364-1.045-.892-1.373-1.584-.317-.692-.475-1.514-.475-2.464 0-.962.158-1.784.475-2.464.328-.681.786-1.203 1.373-1.567.586-.375 1.273-.563 2.059-.563.774 0 1.449.194 2.024.581.575.387.956.915 1.144 1.584h-.194l.176-2.006h1.725l-.105 1.091a15.26 15.26 0 0 0-.036 1.038v6.741h-1.777v-1.971h.193a2.722 2.722 0 0 1-1.161 1.566c-.575.376-1.238.563-1.989.563Zm.44-1.39c.763 0 1.373-.27 1.83-.81.47-.539.704-1.337.704-2.393 0-1.056-.234-1.848-.704-2.376-.457-.54-1.067-.81-1.83-.81-.774 0-1.396.27-1.866.81-.457.528-.686 1.32-.686 2.376 0 1.056.229 1.854.686 2.393.458.54 1.08.81 1.866.81Zm10.338 1.39c-.962 0-1.69-.258-2.183-.774-.492-.528-.739-1.314-.739-2.358v-4.524h-1.725v-1.372h1.725v-2.341l1.778-.475v2.816h2.464v1.372h-2.464v4.365c0 .657.117 1.127.352 1.408.234.282.575.423 1.021.423.222 0 .416-.018.58-.053.176-.047.335-.1.476-.159v1.444a2.79 2.79 0 0 1-.616.158c-.235.047-.458.07-.669.07Zm11.526 0c-.892 0-1.672-.181-2.341-.545a3.88 3.88 0 0 1-1.531-1.602c-.352-.704-.528-1.537-.528-2.499 0-.95.182-1.766.545-2.446a3.678 3.678 0 0 1 1.531-1.549c.658-.364 1.432-.546 2.324-.546.575 0 1.132.1 1.672.299.539.188.985.458 1.337.81l-.581 1.25a3.169 3.169 0 0 0-1.108-.704 3.202 3.202 0 0 0-1.197-.247c-.845 0-1.508.27-1.989.81-.481.54-.722 1.32-.722 2.341 0 1.032.241 1.824.722 2.376.481.551 1.144.827 1.989.827.375 0 .768-.071 1.179-.211a3.232 3.232 0 0 0 1.126-.722l.581 1.25c-.363.352-.821.627-1.373.827a4.938 4.938 0 0 1-1.636.281Zm8.221 0c-.786 0-1.473-.181-2.059-.545-.587-.364-1.045-.892-1.373-1.584-.317-.692-.475-1.514-.475-2.464 0-.962.158-1.784.475-2.464.328-.681.786-1.203 1.373-1.567.586-.375 1.273-.563 2.059-.563.774 0 1.449.194 2.024.581.575.387.956.915 1.144 1.584h-.194l.176-2.006h1.725l-.105 1.091a15.26 15.26 0 0 0-.036 1.038v6.741h-1.777v-1.971h.193a2.722 2.722 0 0 1-1.161 1.566c-.575.376-1.238.563-1.989.563Zm.44-1.39c.763 0 1.373-.27 1.83-.81.47-.539.704-1.337.704-2.393 0-1.056-.234-1.848-.704-2.376-.457-.54-1.067-.81-1.83-.81-.774 0-1.396.27-1.866.81-.457.528-.686 1.32-.686 2.376 0 1.056.229 1.854.686 2.393.458.54 1.08.81 1.866.81Zm6.888 1.232v-6.741c0-.34-.017-.686-.053-1.038a30.63 30.63 0 0 0-.088-1.091h1.725l.159 1.865h-.212c.27-.657.687-1.156 1.25-1.496.563-.352 1.214-.528 1.954-.528 1.044 0 1.83.288 2.358.863.54.575.81 1.466.81 2.675v5.491h-1.778v-5.386c0-.786-.158-1.349-.475-1.689-.305-.352-.775-.528-1.408-.528-.751 0-1.35.234-1.795.704-.446.457-.669 1.079-.669 1.865v5.034h-1.778Zm15.284 0v-12.408h1.83v12.408h-1.83Zm4.356 1.003h-1.496l4.611-14.203h1.496l-4.611 14.203Zm7.384-1.003-3.362-8.87h1.848l2.623 7.392h-.458l2.693-7.392h1.373l2.675 7.392h-.44l2.622-7.392h1.778l-3.379 8.87h-1.62l-2.78-7.533h.827l-2.746 7.533h-1.654Zm16.935.158c-1.432 0-2.558-.404-3.379-1.214-.822-.81-1.232-1.93-1.232-3.362 0-.927.176-1.736.528-2.428a3.935 3.935 0 0 1 1.496-1.602c.645-.387 1.39-.581 2.235-.581.833 0 1.531.176 2.094.528a3.35 3.35 0 0 1 1.285 1.496c.293.634.44 1.385.44 2.253v.563h-6.688v-1.021h5.474l-.3.229c0-.88-.199-1.56-.598-2.041-.387-.493-.95-.74-1.69-.74-.821 0-1.455.288-1.9.863-.446.563-.669 1.343-.669 2.341v.176c0 1.044.252 1.83.757 2.358.516.528 1.243.792 2.182.792.516 0 .997-.07 1.443-.211a4.057 4.057 0 0 0 1.303-.739l.58 1.214a4.32 4.32 0 0 1-1.496.845 6.07 6.07 0 0 1-1.865.281Zm-85.298 21c-.892 0-1.672-.181-2.341-.545a3.886 3.886 0 0 1-1.531-1.602c-.352-.704-.528-1.537-.528-2.499 0-.95.182-1.766.545-2.446a3.68 3.68 0 0 1 1.532-1.549c.657-.364 1.431-.546 2.323-.546.575 0 1.132.1 1.672.299.54.188.985.458 1.337.81l-.58 1.25a3.173 3.173 0 0 0-1.109-.704 3.202 3.202 0 0 0-1.197-.247c-.845 0-1.508.27-1.989.81-.481.54-.721 1.32-.721 2.341 0 1.032.24 1.824.721 2.376.481.551 1.144.827 1.989.827.376 0 .769-.071 1.179-.211a3.245 3.245 0 0 0 1.127-.722l.58 1.25c-.363.352-.821.627-1.372.827a4.948 4.948 0 0 1-1.637.281Zm4.893-.158v-12.954h1.778v5.967h-.247c.258-.669.675-1.174 1.25-1.514.575-.352 1.238-.528 1.989-.528 1.056 0 1.842.294 2.358.88.516.575.774 1.449.774 2.623v5.526h-1.777v-5.421c0-.762-.153-1.314-.458-1.654-.293-.352-.762-.528-1.408-.528-.751 0-1.355.234-1.813.704-.445.457-.668 1.068-.668 1.83v5.069h-1.778Zm13.83.158c-.786 0-1.473-.181-2.06-.545-.586-.364-1.044-.892-1.372-1.584-.317-.692-.476-1.514-.476-2.464 0-.962.159-1.784.476-2.464.328-.681.786-1.203 1.372-1.567.587-.375 1.274-.563 2.06-.563.774 0 1.449.194 2.024.581.575.387.956.915 1.144 1.584h-.194l.176-2.006h1.725l-.106 1.091c-.023.352-.035.698-.035 1.038v6.741h-1.778v-1.971h.194a2.724 2.724 0 0 1-1.162 1.566c-.574.376-1.237.563-1.988.563Zm.44-1.39c.762 0 1.372-.27 1.83-.81.469-.539.704-1.337.704-2.393 0-1.056-.235-1.848-.704-2.376-.458-.54-1.068-.81-1.83-.81-.775 0-1.397.27-1.866.81-.458.528-.686 1.32-.686 2.376 0 1.056.228 1.854.686 2.393.458.54 1.08.81 1.866.81Zm6.888 1.232v-6.741c0-.34-.018-.686-.053-1.038a33.166 33.166 0 0 0-.088-1.091h1.725l.158 1.865h-.211c.27-.657.686-1.156 1.25-1.496.563-.352 1.214-.528 1.953-.528 1.045 0 1.831.288 2.359.863.539.575.809 1.466.809 2.675v5.491h-1.777v-5.386c0-.786-.159-1.349-.476-1.689-.305-.352-.774-.528-1.408-.528-.75 0-1.349.234-1.795.704-.446.457-.669 1.079-.669 1.865v5.034h-1.777Zm14.428 3.942a7.93 7.93 0 0 1-2.183-.281 5.606 5.606 0 0 1-1.742-.845l.44-1.302c.364.246.722.44 1.074.58.352.153.721.264 1.108.335.388.07.787.105 1.197.105.845 0 1.479-.217 1.901-.651.434-.422.651-1.038.651-1.848v-2.376h.176a2.727 2.727 0 0 1-1.161 1.567c-.575.375-1.244.563-2.007.563-.809 0-1.513-.176-2.112-.528a3.715 3.715 0 0 1-1.373-1.531c-.316-.669-.475-1.455-.475-2.359 0-.903.159-1.684.475-2.341.329-.657.787-1.161 1.373-1.513.599-.364 1.303-.546 2.112-.546.775 0 1.443.194 2.007.581.575.375.956.892 1.144 1.549l-.159-.141.159-1.83h1.724a17.422 17.422 0 0 0-.14 2.129v6.565c0 1.338-.358 2.358-1.074 3.062-.704.704-1.742 1.056-3.115 1.056Zm-.123-5.544c.774 0 1.39-.264 1.848-.792.469-.528.704-1.273.704-2.235s-.235-1.701-.704-2.217c-.458-.517-1.074-.775-1.848-.775-.798 0-1.432.258-1.901.775-.458.516-.687 1.255-.687 2.217 0 .962.229 1.707.687 2.235.469.528 1.103.792 1.901.792Zm11.005 1.76c-1.431 0-2.558-.404-3.379-1.214-.821-.81-1.232-1.93-1.232-3.362 0-.927.176-1.736.528-2.428.364-.693.862-1.227 1.496-1.602.645-.387 1.39-.581 2.235-.581.833 0 1.531.176 2.094.528.564.352.992.851 1.285 1.496.294.634.44 1.385.44 2.253v.563h-6.688v-1.021h5.474l-.299.229c0-.88-.2-1.56-.599-2.041-.387-.493-.95-.74-1.689-.74-.822 0-1.455.288-1.901.863-.446.563-.669 1.343-.669 2.341v.176c0 1.044.252 1.83.757 2.358.516.528 1.244.792 2.182.792.517 0 .998-.07 1.443-.211a4.057 4.057 0 0 0 1.303-.739l.581 1.214c-.411.364-.91.645-1.496.845a6.081 6.081 0 0 1-1.866.281Zm7.06-3.59v-.616c0-.563.106-1.097.317-1.602.223-.504.61-1.056 1.161-1.654.435-.469.74-.874.916-1.214.176-.352.264-.71.264-1.074 0-.458-.171-.815-.511-1.074-.34-.258-.804-.387-1.39-.387-.458 0-.904.065-1.338.194a5.728 5.728 0 0 0-1.232.528v-1.584c.399-.211.839-.37 1.32-.475a6.333 6.333 0 0 1 1.479-.176c.668 0 1.267.105 1.795.316.528.2.938.505 1.232.916.305.41.457.927.457 1.548 0 .376-.064.74-.193 1.092a4.298 4.298 0 0 1-.563 1.038 8.26 8.26 0 0 1-.933 1.056c-.575.551-.98 1.033-1.215 1.443a3.39 3.39 0 0 0-.404 1.25l-.071.475h-1.091Zm-.51 3.432v-2.094h2.112v2.094h-2.112ZM312.252 211.035l-4.347-12.408h1.9l3.608 10.719h-.651l3.819-10.719h1.391l3.59 10.719h-.598l3.731-10.719h1.795l-4.382 12.408h-1.567l-3.484-10.208h.369l-3.625 10.208h-1.549Zm16.072 0v-12.953h1.778v5.966h-.246c.258-.669.674-1.173 1.249-1.514.575-.352 1.238-.528 1.989-.528 1.056 0 1.842.294 2.358.88.517.575.775 1.449.775 2.623v5.526h-1.778v-5.421c0-.762-.152-1.314-.457-1.654-.294-.352-.763-.528-1.408-.528-.751 0-1.356.235-1.813.704-.446.458-.669 1.068-.669 1.83v5.069h-1.778Zm13.83.159c-.786 0-1.473-.182-2.059-.546-.587-.364-1.045-.892-1.373-1.584-.317-.692-.475-1.514-.475-2.464 0-.962.158-1.784.475-2.464.328-.681.786-1.203 1.373-1.566.586-.376 1.273-.564 2.059-.564.774 0 1.449.194 2.024.581.575.387.956.915 1.144 1.584h-.194l.176-2.006h1.725l-.105 1.091a15.26 15.26 0 0 0-.036 1.038v6.741h-1.777v-1.971h.193a2.722 2.722 0 0 1-1.161 1.566c-.575.376-1.238.564-1.989.564Zm.44-1.391c.763 0 1.373-.27 1.83-.809.47-.54.704-1.338.704-2.394s-.234-1.848-.704-2.376c-.457-.54-1.067-.81-1.83-.81-.774 0-1.396.27-1.866.81-.457.528-.686 1.32-.686 2.376 0 1.056.229 1.854.686 2.394.458.539 1.08.809 1.866.809Zm10.338 1.391c-.962 0-1.69-.259-2.183-.775-.492-.528-.739-1.314-.739-2.358v-4.523h-1.725v-1.373h1.725v-2.341l1.778-.475v2.816h2.464v1.373h-2.464v4.364c0 .657.117 1.127.352 1.408.234.282.575.423 1.021.423.222 0 .416-.018.58-.053.176-.047.335-.1.476-.158v1.443a2.79 2.79 0 0 1-.616.158 3.418 3.418 0 0 1-.669.071Zm11.526 0c-.892 0-1.672-.182-2.341-.546a3.873 3.873 0 0 1-1.531-1.602c-.352-.704-.528-1.537-.528-2.499 0-.95.182-1.766.545-2.446a3.678 3.678 0 0 1 1.531-1.549c.658-.364 1.432-.546 2.324-.546.575 0 1.132.1 1.672.3.539.187.985.457 1.337.809l-.581 1.25a3.169 3.169 0 0 0-1.108-.704 3.202 3.202 0 0 0-1.197-.247c-.845 0-1.508.27-1.989.81-.481.54-.722 1.32-.722 2.341 0 1.032.241 1.824.722 2.376.481.551 1.144.827 1.989.827.375 0 .768-.07 1.179-.211a3.232 3.232 0 0 0 1.126-.722l.581 1.25c-.363.352-.821.627-1.373.827a4.94 4.94 0 0 1-1.636.282Zm8.221 0c-.786 0-1.473-.182-2.059-.546-.587-.364-1.045-.892-1.373-1.584-.317-.692-.475-1.514-.475-2.464 0-.962.158-1.784.475-2.464.328-.681.786-1.203 1.373-1.566.586-.376 1.273-.564 2.059-.564.774 0 1.449.194 2.024.581.575.387.956.915 1.144 1.584h-.194l.176-2.006h1.725l-.105 1.091a15.26 15.26 0 0 0-.036 1.038v6.741h-1.777v-1.971h.193a2.722 2.722 0 0 1-1.161 1.566c-.575.376-1.238.564-1.989.564Zm.44-1.391c.763 0 1.373-.27 1.83-.809.47-.54.704-1.338.704-2.394s-.234-1.848-.704-2.376c-.457-.54-1.067-.81-1.83-.81-.774 0-1.396.27-1.866.81-.457.528-.686 1.32-.686 2.376 0 1.056.229 1.854.686 2.394.458.539 1.08.809 1.866.809Zm6.888 1.232v-6.741c0-.34-.017-.686-.053-1.038a30.63 30.63 0 0 0-.088-1.091h1.725l.159 1.865h-.212c.27-.657.687-1.155 1.25-1.496.563-.352 1.214-.528 1.954-.528 1.044 0 1.83.288 2.358.863.54.575.81 1.466.81 2.675v5.491h-1.778v-5.385c0-.787-.158-1.35-.475-1.69-.305-.352-.775-.528-1.408-.528-.751 0-1.35.235-1.795.704-.446.458-.669 1.079-.669 1.866v5.033h-1.778Zm15.284 0v-12.408h1.83v12.408h-1.83Zm4.356 1.003h-1.496l4.611-14.203h1.496l-4.611 14.203Zm7.384-1.003-3.362-8.87h1.848l2.623 7.392h-.458l2.693-7.392h1.373l2.675 7.392h-.44l2.622-7.392h1.778l-3.379 8.87h-1.62l-2.78-7.533h.827l-2.746 7.533h-1.654Zm16.935.159c-1.432 0-2.558-.405-3.379-1.215-.822-.809-1.232-1.93-1.232-3.361 0-.927.176-1.737.528-2.429a3.941 3.941 0 0 1 1.496-1.602c.645-.387 1.39-.581 2.235-.581.833 0 1.531.176 2.094.528a3.35 3.35 0 0 1 1.285 1.496c.293.634.44 1.385.44 2.253v.563h-6.688v-1.02h5.474l-.3.228c0-.88-.199-1.56-.598-2.041-.387-.493-.95-.739-1.69-.739-.821 0-1.455.287-1.9.862-.446.563-.669 1.343-.669 2.341v.176c0 1.044.252 1.83.757 2.358.516.528 1.243.792 2.182.792.516 0 .997-.07 1.443-.211a4.057 4.057 0 0 0 1.303-.739l.58 1.214a4.32 4.32 0 0 1-1.496.845 6.07 6.07 0 0 1-1.865.282Zm10.199-.159v-8.87h1.778v8.87h-1.778Zm-.141-10.718v-1.848h2.059v1.848h-2.059Zm4.524 10.718v-6.741c0-.34-.018-.686-.053-1.038a36.159 36.159 0 0 0-.088-1.091h1.725l.158 1.865h-.211c.27-.657.686-1.155 1.25-1.496.563-.352 1.214-.528 1.953-.528 1.044 0 1.831.288 2.359.863.539.575.809 1.466.809 2.675v5.491h-1.777v-5.385c0-.787-.159-1.35-.476-1.69-.305-.352-.774-.528-1.408-.528-.751 0-1.349.235-1.795.704-.446.458-.669 1.079-.669 1.866v5.033h-1.777Zm10.961 0v-7.497h-1.725v-1.373h2.217l-.492.457v-1.408c0-1.044.264-1.836.792-2.376.528-.551 1.302-.827 2.323-.827.246 0 .504.018.774.053s.493.094.669.176v1.443a2.461 2.461 0 0 0-.528-.141c-.2-.047-.405-.07-.616-.07-.34 0-.634.07-.88.211a1.37 1.37 0 0 0-.581.599c-.129.269-.193.616-.193 1.038v1.197l-.264-.352h2.675v1.373h-2.394v7.497h-1.777Zm5.667 0v-12.953h1.777v12.953h-1.777Zm7.491.159c-1.068 0-1.872-.288-2.411-.863-.528-.587-.792-1.484-.792-2.693v-5.473h1.777v5.438c0 .739.153 1.285.458 1.637.305.352.768.528 1.39.528.704 0 1.273-.235 1.708-.704.434-.469.651-1.091.651-1.866v-5.033h1.777v8.87h-1.724v-1.901h.228c-.246.657-.639 1.168-1.179 1.532-.54.352-1.167.528-1.883.528Zm11.263 0c-1.432 0-2.558-.405-3.379-1.215-.822-.809-1.232-1.93-1.232-3.361 0-.927.176-1.737.528-2.429a3.941 3.941 0 0 1 1.496-1.602c.645-.387 1.39-.581 2.235-.581.833 0 1.531.176 2.094.528a3.35 3.35 0 0 1 1.285 1.496c.293.634.44 1.385.44 2.253v.563h-6.688v-1.02h5.474l-.3.228c0-.88-.199-1.56-.598-2.041-.387-.493-.95-.739-1.69-.739-.821 0-1.455.287-1.9.862-.446.563-.669 1.343-.669 2.341v.176c0 1.044.252 1.83.757 2.358.516.528 1.243.792 2.182.792.516 0 .997-.07 1.443-.211a4.057 4.057 0 0 0 1.303-.739l.58 1.214a4.32 4.32 0 0 1-1.496.845 6.07 6.07 0 0 1-1.865.282Zm5.507-.159v-6.741c0-.34-.018-.686-.053-1.038a33.166 33.166 0 0 0-.088-1.091h1.725l.158 1.865h-.211c.27-.657.686-1.155 1.25-1.496.563-.352 1.214-.528 1.953-.528 1.044 0 1.831.288 2.359.863.539.575.809 1.466.809 2.675v5.491h-1.777v-5.385c0-.787-.159-1.35-.476-1.69-.305-.352-.774-.528-1.408-.528-.751 0-1.349.235-1.795.704-.446.458-.669 1.079-.669 1.866v5.033h-1.777Zm14.322.159c-.892 0-1.672-.182-2.341-.546a3.88 3.88 0 0 1-1.531-1.602c-.352-.704-.528-1.537-.528-2.499 0-.95.182-1.766.546-2.446a3.678 3.678 0 0 1 1.531-1.549c.657-.364 1.431-.546 2.323-.546.575 0 1.132.1 1.672.3.54.187.986.457 1.338.809l-.581 1.25a3.173 3.173 0 0 0-1.109-.704 3.195 3.195 0 0 0-1.197-.247c-.844 0-1.507.27-1.988.81-.481.54-.722 1.32-.722 2.341 0 1.032.241 1.824.722 2.376.481.551 1.144.827 1.988.827.376 0 .769-.07 1.18-.211a3.24 3.24 0 0 0 1.126-.722l.581 1.25c-.364.352-.822.627-1.373.827a4.945 4.945 0 0 1-1.637.282Zm8.822 0c-1.431 0-2.557-.405-3.379-1.215-.821-.809-1.232-1.93-1.232-3.361 0-.927.176-1.737.528-2.429a3.954 3.954 0 0 1 1.496-1.602c.646-.387 1.391-.581 2.235-.581.833 0 1.532.176 2.095.528.563.352.991.851 1.285 1.496.293.634.44 1.385.44 2.253v.563h-6.688v-1.02h5.473l-.299.228c0-.88-.199-1.56-.598-2.041-.388-.493-.951-.739-1.69-.739-.821 0-1.455.287-1.901.862-.446.563-.669 1.343-.669 2.341v.176c0 1.044.253 1.83.757 2.358.516.528 1.244.792 2.183.792.516 0 .997-.07 1.443-.211a4.053 4.053 0 0 0 1.302-.739l.581 1.214a4.33 4.33 0 0 1-1.496.845 6.081 6.081 0 0 1-1.866.282Zm7.06-3.591v-.616c0-.563.106-1.097.317-1.601.223-.505.61-1.056 1.162-1.655.434-.469.739-.874.915-1.214.176-.352.264-.71.264-1.074 0-.457-.17-.815-.51-1.073-.341-.259-.804-.388-1.391-.388a4.67 4.67 0 0 0-1.337.194 5.707 5.707 0 0 0-1.232.528v-1.584a5.14 5.14 0 0 1 1.32-.475 6.318 6.318 0 0 1 1.478-.176c.669 0 1.267.105 1.795.317.528.199.939.504 1.232.915.305.41.458.927.458 1.549 0 .375-.065.739-.194 1.091a4.298 4.298 0 0 1-.563 1.038c-.246.34-.557.692-.933 1.056-.575.552-.98 1.033-1.214 1.443a3.399 3.399 0 0 0-.405 1.25l-.07.475h-1.092Zm-.51 3.432v-2.094h2.112v2.094h-2.112ZM313.687 72.973l-4.348-12.408h1.901l3.608 10.718h-.651l3.819-10.718h1.391l3.59 10.718h-.598l3.731-10.718h1.795l-4.382 12.408h-1.567l-3.485-10.208h.37l-3.626 10.208h-1.548Zm16.072 0V60.019h1.778v5.967h-.247c.259-.67.675-1.174 1.25-1.514.575-.352 1.238-.528 1.989-.528 1.056 0 1.842.293 2.358.88.516.575.775 1.449.775 2.622v5.527h-1.778v-5.421c0-.763-.153-1.314-.458-1.655-.293-.352-.762-.528-1.408-.528-.751 0-1.355.235-1.812.704-.446.458-.669 1.068-.669 1.83v5.07h-1.778Zm13.83.158c-.786 0-1.473-.182-2.059-.546-.587-.363-1.045-.891-1.373-1.584-.317-.692-.475-1.513-.475-2.464 0-.962.158-1.783.475-2.464.328-.68.786-1.202 1.373-1.566.586-.375 1.273-.563 2.059-.563.774 0 1.449.194 2.024.58.575.388.956.916 1.144 1.585h-.194l.176-2.007h1.725l-.106 1.091a15.93 15.93 0 0 0-.035 1.039v6.74h-1.777v-1.97h.193a2.728 2.728 0 0 1-1.161 1.566c-.575.375-1.238.563-1.989.563Zm.44-1.39c.762 0 1.373-.27 1.83-.81.47-.54.704-1.337.704-2.394 0-1.056-.234-1.848-.704-2.376-.457-.54-1.068-.81-1.83-.81-.775 0-1.396.27-1.866.81-.457.528-.686 1.32-.686 2.376 0 1.056.229 1.854.686 2.394.458.54 1.08.81 1.866.81Zm10.338 1.39c-.963 0-1.69-.258-2.183-.774-.493-.528-.739-1.314-.739-2.359v-4.523h-1.725v-1.373h1.725v-2.34l1.778-.476v2.816h2.464v1.373h-2.464v4.365c0 .657.117 1.126.352 1.408.234.281.575.422 1.02.422.223 0 .417-.017.581-.052.176-.047.335-.1.475-.159v1.443c-.176.07-.381.123-.616.159-.234.047-.457.07-.668.07Zm11.526 0c-.892 0-1.672-.182-2.341-.546a3.874 3.874 0 0 1-1.531-1.601c-.352-.704-.528-1.537-.528-2.5 0-.95.181-1.765.545-2.446a3.68 3.68 0 0 1 1.531-1.548c.657-.364 1.432-.546 2.324-.546.574 0 1.132.1 1.672.3.539.187.985.457 1.337.809l-.581 1.25a3.179 3.179 0 0 0-1.108-.705 3.215 3.215 0 0 0-1.197-.246c-.845 0-1.508.27-1.989.81-.481.54-.722 1.32-.722 2.34 0 1.033.241 1.825.722 2.376.481.552 1.144.828 1.989.828.375 0 .768-.07 1.179-.212a3.232 3.232 0 0 0 1.126-.721l.581 1.25c-.364.351-.821.627-1.373.827a4.947 4.947 0 0 1-1.636.281Zm8.221 0c-.786 0-1.473-.182-2.059-.546-.587-.363-1.045-.891-1.373-1.584-.317-.692-.475-1.513-.475-2.464 0-.962.158-1.783.475-2.464.328-.68.786-1.202 1.373-1.566.586-.375 1.273-.563 2.059-.563.774 0 1.449.194 2.024.58.575.388.956.916 1.144 1.585h-.194l.176-2.007h1.725l-.106 1.091a15.93 15.93 0 0 0-.035 1.039v6.74h-1.777v-1.97h.193a2.728 2.728 0 0 1-1.161 1.566c-.575.375-1.238.563-1.989.563Zm.44-1.39c.762 0 1.373-.27 1.83-.81.47-.54.704-1.337.704-2.394 0-1.056-.234-1.848-.704-2.376-.457-.54-1.068-.81-1.83-.81-.775 0-1.396.27-1.866.81-.457.528-.686 1.32-.686 2.376 0 1.056.229 1.854.686 2.394.458.54 1.08.81 1.866.81Zm6.888 1.232v-6.741c0-.34-.018-.686-.053-1.038a33.378 33.378 0 0 0-.088-1.092h1.725l.158 1.866h-.211c.27-.657.687-1.156 1.25-1.496.563-.352 1.214-.528 1.953-.528 1.045 0 1.831.287 2.359.862.54.575.809 1.467.809 2.675v5.492h-1.777v-5.386c0-.786-.159-1.35-.475-1.69-.305-.352-.775-.528-1.408-.528-.751 0-1.35.235-1.796.704-.445.458-.668 1.08-.668 1.866v5.034h-1.778Zm10.757-8.167-.774-.598c.34-.352.569-.68.686-.986.13-.316.194-.633.194-.95l.475.37h-1.478v-2.077h2.094v1.425c0 .528-.088 1.021-.264 1.479-.176.445-.487.891-.933 1.337Zm7.027 8.325c-.962 0-1.69-.258-2.182-.774-.493-.528-.74-1.314-.74-2.359v-4.523h-1.724v-1.373h1.724v-2.34l1.778-.476v2.816h2.464v1.373h-2.464v4.365c0 .657.117 1.126.352 1.408.235.281.575.422 1.021.422.223 0 .416-.017.581-.052.176-.047.334-.1.475-.159v1.443c-.176.07-.382.123-.616.159-.235.047-.458.07-.669.07Zm7.795-.158V60.565h1.83v12.408h-1.83Zm4.356 1.003h-1.496l4.611-14.203h1.496l-4.611 14.203Zm7.384-1.003-3.362-8.87h1.848l2.623 7.391h-.458l2.693-7.392h1.373l2.675 7.392h-.44l2.622-7.392h1.778l-3.379 8.87h-1.619l-2.781-7.532h.827l-2.746 7.533h-1.654Zm16.935.158c-1.432 0-2.558-.405-3.379-1.214-.822-.81-1.232-1.93-1.232-3.362 0-.927.176-1.737.528-2.429a3.94 3.94 0 0 1 1.496-1.601c.645-.388 1.39-.581 2.235-.581.833 0 1.531.176 2.094.528.564.352.992.85 1.285 1.496.293.633.44 1.384.44 2.253v.563h-6.688v-1.02h5.474l-.299.228c0-.88-.2-1.56-.599-2.042-.387-.493-.95-.739-1.689-.739-.822 0-1.455.288-1.901.862-.446.564-.669 1.344-.669 2.341v.176c0 1.044.252 1.83.757 2.359.516.528 1.243.792 2.182.792.516 0 .997-.07 1.443-.212a4.046 4.046 0 0 0 1.303-.739l.581 1.215c-.411.363-.91.645-1.496.845a6.09 6.09 0 0 1-1.866.281Zm14.089 0c-.892 0-1.672-.182-2.341-.546a3.874 3.874 0 0 1-1.531-1.601c-.352-.704-.528-1.537-.528-2.5 0-.95.182-1.765.545-2.446a3.677 3.677 0 0 1 1.532-1.548c.657-.364 1.431-.546 2.323-.546.575 0 1.132.1 1.672.3.539.187.985.457 1.337.809l-.58 1.25a3.192 3.192 0 0 0-1.109-.705 3.215 3.215 0 0 0-1.197-.246c-.845 0-1.508.27-1.989.81-.481.54-.721 1.32-.721 2.34 0 1.033.24 1.825.721 2.376.481.552 1.144.828 1.989.828.375 0 .768-.07 1.179-.212a3.245 3.245 0 0 0 1.127-.721l.58 1.25c-.363.351-.821.627-1.372.827a4.957 4.957 0 0 1-1.637.281Zm4.893-.158V60.019h1.778v5.967h-.247c.258-.67.675-1.174 1.25-1.514.575-.352 1.238-.528 1.989-.528 1.056 0 1.842.293 2.358.88.516.575.774 1.449.774 2.622v5.527h-1.777v-5.421c0-.763-.153-1.314-.458-1.655-.293-.352-.763-.528-1.408-.528-.751 0-1.355.235-1.813.704-.446.458-.668 1.068-.668 1.83v5.07h-1.778Zm13.83.158c-.787 0-1.473-.182-2.06-.546-.586-.363-1.044-.891-1.372-1.584-.317-.692-.476-1.513-.476-2.464 0-.962.159-1.783.476-2.464.328-.68.786-1.202 1.372-1.566.587-.375 1.273-.563 2.06-.563.774 0 1.449.194 2.024.58.574.388.956.916 1.144 1.585h-.194l.176-2.007h1.725l-.106 1.091a15.93 15.93 0 0 0-.035 1.039v6.74h-1.778v-1.97h.194a2.725 2.725 0 0 1-1.162 1.566c-.575.375-1.238.563-1.988.563Zm.44-1.39c.762 0 1.372-.27 1.83-.81.469-.54.704-1.337.704-2.394 0-1.056-.235-1.848-.704-2.376-.458-.54-1.068-.81-1.83-.81-.775 0-1.397.27-1.866.81-.458.528-.686 1.32-.686 2.376 0 1.056.228 1.854.686 2.394.458.54 1.079.81 1.866.81Zm6.888 1.232v-6.741c0-.34-.018-.686-.053-1.038a36.41 36.41 0 0 0-.088-1.092h1.725l.158 1.866h-.211c.27-.657.686-1.156 1.25-1.496.563-.352 1.214-.528 1.953-.528 1.044 0 1.831.287 2.359.862.539.575.809 1.467.809 2.675v5.492h-1.777v-5.386c0-.786-.159-1.35-.476-1.69-.305-.352-.774-.528-1.408-.528-.751 0-1.349.235-1.795.704-.446.458-.669 1.08-.669 1.866v5.034h-1.777Zm14.428 3.942a7.935 7.935 0 0 1-2.183-.282 5.592 5.592 0 0 1-1.742-.844l.44-1.303c.364.247.722.44 1.074.581a5.05 5.05 0 0 0 1.108.335c.388.07.786.105 1.197.105.845 0 1.479-.217 1.901-.651.434-.422.651-1.038.651-1.848v-2.376h.176a2.728 2.728 0 0 1-1.161 1.566c-.575.376-1.244.564-2.007.564-.809 0-1.513-.177-2.112-.528a3.707 3.707 0 0 1-1.373-1.532c-.316-.668-.475-1.455-.475-2.358 0-.904.159-1.684.475-2.34.329-.658.786-1.163 1.373-1.514.599-.364 1.303-.546 2.112-.546.775 0 1.443.194 2.007.58.574.376.956.892 1.144 1.55l-.159-.141.159-1.83h1.724a16.766 16.766 0 0 0-.14 2.129v6.565c0 1.337-.358 2.358-1.074 3.062-.704.704-1.742 1.056-3.115 1.056Zm-.123-5.544c.774 0 1.39-.264 1.848-.792.469-.528.704-1.273.704-2.235s-.235-1.701-.704-2.218c-.458-.516-1.074-.774-1.848-.774-.798 0-1.432.258-1.901.774-.458.516-.687 1.256-.687 2.218s.229 1.707.687 2.235c.469.528 1.103.792 1.901.792Zm11.005 1.76c-1.432 0-2.558-.405-3.379-1.214-.822-.81-1.232-1.93-1.232-3.362 0-.927.176-1.737.528-2.429a3.94 3.94 0 0 1 1.496-1.601c.645-.388 1.39-.581 2.235-.581.833 0 1.531.176 2.094.528.564.352.992.85 1.285 1.496.293.633.44 1.384.44 2.253v.563h-6.688v-1.02h5.474l-.299.228c0-.88-.2-1.56-.599-2.042-.387-.493-.95-.739-1.689-.739-.822 0-1.455.288-1.901.862-.446.564-.669 1.344-.669 2.341v.176c0 1.044.252 1.83.757 2.359.516.528 1.243.792 2.182.792.516 0 .997-.07 1.443-.212a4.046 4.046 0 0 0 1.303-.739l.581 1.215c-.411.363-.91.645-1.496.845a6.09 6.09 0 0 1-1.866.281Zm7.06-3.59v-.616c0-.563.105-1.097.317-1.602.223-.504.61-1.056 1.161-1.654.434-.47.739-.874.915-1.215.176-.352.264-.71.264-1.073 0-.458-.17-.816-.51-1.074-.34-.258-.804-.387-1.39-.387-.458 0-.904.064-1.338.194a5.728 5.728 0 0 0-1.232.528v-1.585c.399-.21.839-.37 1.32-.475a6.363 6.363 0 0 1 1.478-.176c.669 0 1.268.106 1.796.317.528.2.938.505 1.232.915.305.41.457.927.457 1.55 0 .374-.064.738-.193 1.09a4.276 4.276 0 0 1-.564 1.039c-.246.34-.557.692-.932 1.056-.575.551-.98 1.032-1.215 1.443-.223.41-.358.827-.405 1.25l-.07.475h-1.091Zm-.511 3.432v-2.095h2.112v2.095h-2.112Z"/>
  </svg>