<svg xmlns="http://www.w3.org/2000/svg" width="201" height="201" fill="none" viewBox="0 0 201 201">
    <g opacity=".5">
      <circle cx="100.782" cy="100.692" r="100.02" fill="var(--fl-bgColor, #949494)" stroke="var(--fl-fgColor, transparent)" stroke-dasharray="2 2" />
      <circle cx="100.911" cy="100.821" r="76.114" fill="var(--fl-bgColor, #CCC)" stroke="var(--fl-fgColor, transparent)" stroke-dasharray="2 2" />
      <circle cx="100.911" cy="100.821" r="47.184" fill="var(--fl-bgColor, #E6E6E6)" stroke="var(--fl-fgColor, #000)" stroke-dasharray="2 2" />
    </g>
    <path stroke="var(--fl-fgColor, #949494)" stroke-dasharray="2 2" d="M99.988 200.535V.721M29.868 170.924 170.982 29.81M30.833 30.068 171.43 170.665"/>
    <circle cx="126.746" cy="39.792" r="4.483" fill="var(--fl-fgColor, #2A842D)"/>
    <path fill="var(--fl-bgColor, #7BD383)" fill-opacity=".51" stroke="var(--fl-fgColor, #2A842D)" stroke-width="2.562" d="M140.195 84.634v34.381l-20.383 22.58-37.18-1.456-45.58-12.53 23.044-42.927 23.996-20.724 41.884-21.703 14.219 42.379Z"/>
    <circle cx="85.758" cy="62.846" r="4.483" fill="var(--fl-fgColor, #2A842D)"/>
    <circle cx="59.994" cy="83.288" r="4.483" fill="var(--fl-fgColor, #2A842D)"/>
    <circle cx="140.689" cy="85.85" r="4.483" fill="var(--fl-fgColor, #2A842D)"/>
    <path stroke="var(--fl-fgColor, #949494)" stroke-dasharray="2 2" d="M200.395 101.129H1.861"/>
    <circle cx="140.835" cy="119.202" r="4.483" fill="var(--fl-fgColor, #2A842D)"/>
    <circle cx="36.939" cy="128.116" r="4.483" fill="var(--fl-fgColor, #2A842D)"/>
    <circle cx="81.915" cy="140.975" r="4.483" fill="var(--fl-fgColor, #2A842D)"/>
    <circle cx="120.195" cy="143.487" r="4.483" fill="var(--fl-fgColor, #2A842D)"/>
  </svg>