<svg width="145" height="35" viewBox="0 0 145 35" xmlns="http://www.w3.org/2000/svg">
<path d="M143.879 0.0401001H138.429V10.9381H143.879V0.0401001Z" fill="currentColor"/>
<path d="M130.765 7.27999C130.747 7.2617 128.796 5.57595 128.796 5.57595L129.098 5.42353C129.143 5.40219 129.174 5.3778 129.198 5.35036C129.265 5.26806 129.247 5.16136 129.226 5.07906C129.217 5.05162 128.89 3.90543 128.89 3.90543C128.89 3.90543 129.82 4.10357 129.878 4.11272C129.896 4.11577 129.915 4.11882 129.93 4.11882C129.945 4.11882 129.973 4.11882 129.973 4.11882C130.052 4.10662 130.091 4.04565 130.122 3.96944C130.134 3.94506 130.36 3.39635 130.36 3.39635C130.36 3.39635 131.357 4.49682 131.363 4.50291C131.433 4.56693 131.503 4.58827 131.561 4.57912C131.573 4.57912 131.582 4.57303 131.594 4.56693C131.67 4.53644 131.719 4.45109 131.701 4.34135C131.686 4.24075 131.198 1.99104 131.198 1.99104C131.198 1.99104 131.722 2.30198 131.896 2.40257C131.981 2.4544 132.045 2.47574 132.1 2.46354C132.155 2.45135 132.201 2.40562 132.247 2.32027C132.274 2.27454 132.984 0.872284 132.984 0.872284C132.984 0.872284 133.695 2.27454 133.722 2.32027C133.768 2.40257 133.81 2.4483 133.868 2.46354C133.923 2.47574 133.987 2.4544 134.073 2.40257C134.246 2.30198 134.771 1.99104 134.771 1.99104C134.771 1.99104 134.283 4.2438 134.268 4.34135C134.249 4.45109 134.298 4.53644 134.374 4.56693C134.384 4.56998 134.396 4.57607 134.408 4.57912C134.466 4.58827 134.536 4.56693 134.606 4.50291C134.612 4.49682 135.609 3.39635 135.609 3.39635C135.609 3.39635 135.835 3.94506 135.847 3.96944C135.877 4.04565 135.917 4.10662 135.996 4.11882C135.996 4.11882 136.024 4.11882 136.039 4.11882C136.054 4.11882 136.072 4.11882 136.091 4.11272C136.148 4.10357 137.078 3.90543 137.078 3.90543C137.078 3.90543 136.749 5.05162 136.743 5.07906C136.725 5.15832 136.703 5.26501 136.77 5.35036C136.792 5.3778 136.825 5.40219 136.871 5.42353L137.173 5.57595C137.173 5.57595 135.225 7.2617 135.204 7.27999C135.149 7.33182 135.097 7.41107 135.164 7.61837C135.179 7.66409 135.386 8.26462 135.386 8.26462C135.386 8.26462 133.518 7.88357 133.487 7.87748C133.442 7.86833 133.399 7.86224 133.359 7.86528C133.237 7.87443 133.152 7.94454 133.152 8.07867C133.152 8.26462 133.225 10.0998 133.225 10.0998H132.75C132.75 10.0998 132.823 8.26158 132.823 8.07867C132.823 7.94149 132.737 7.87443 132.615 7.86528C132.576 7.86528 132.533 7.86528 132.487 7.87748C132.457 7.88357 130.588 8.26462 130.588 8.26462C130.588 8.26462 130.796 7.66409 130.811 7.61837C130.878 7.41107 130.826 7.33182 130.771 7.27999H130.765Z" fill="currentColor"/>
<path d="M127.534 0.0401001H122.084V10.9381H127.534V0.0401001Z" fill="currentColor"/>
<path fill-rule="evenodd" clip-rule="evenodd" d="M135.554 19.5924C135.539 19.7845 135.505 20.0375 135.487 20.1472C135.328 21.1166 134.825 21.6196 133.868 22.0921C132.624 22.7048 129.14 23.2231 128.698 23.3237C127.29 23.6437 123.333 24.6467 123.421 28.7925C123.507 32.8865 127.555 34.2674 130.381 34.2003C133.121 34.1332 134.728 32.9566 135.444 32.3743C135.868 32.0329 135.831 32.1152 136.185 32.5084C136.578 32.9474 137.938 34.2521 141.086 34.2399C144.284 34.2277 144.76 32.7127 144.946 32.2463C145.193 31.6244 144.525 31.283 144.284 31.8469C143.885 32.7859 143.077 33.0389 142.522 33.0328C141.906 33.0267 140.093 32.8804 140.081 28.2041C140.081 28.2041 140.081 18.5682 140.077 18.0103C140.077 14.8705 137.681 12.3007 131.335 12.3007C124.51 12.3007 124.473 15.6631 124.43 16.4983C124.379 17.4433 124.875 18.4401 126.589 18.4462C128.137 18.4493 128.5 16.7696 128.719 16.1264C128.948 15.4558 128.994 13.3798 131.752 13.4225C134.1 13.4225 135.554 15.4771 135.569 18.4097C135.569 18.7907 135.575 19.0834 135.569 19.3577C135.569 19.4126 135.56 19.565 135.56 19.5894L135.554 19.5924ZM135.615 27.3719C135.615 30.4935 134.005 32.9779 131.634 32.9779C128.78 32.9718 128.079 30.5971 128.052 29.4784C128.024 28.3596 128.637 26.0154 131.454 24.3875C131.454 24.3875 132.734 23.5614 135.261 22.589C135.328 22.5707 135.38 22.5707 135.417 22.5768C135.462 22.5829 135.502 22.6195 135.502 22.6195C135.535 22.6591 135.596 22.7628 135.593 23.1133C135.593 23.2139 135.618 27.3719 135.618 27.3719H135.615Z" fill="currentColor"/>
<path fill-rule="evenodd" clip-rule="evenodd" d="M119.359 1.16188C119.359 0.86009 119.322 0.0705572 118.404 0.0827507C117.484 0.0949443 111.387 0.40893 110.957 0.448559C110.531 0.485139 110.201 0.911912 110.948 0.975928C111.686 1.03994 114.948 1.30211 114.948 6.67641C114.948 9.28279 114.954 11.9288 114.951 13.8523C114.951 13.9346 114.972 14.4589 114.859 14.5534C114.768 14.6297 114.682 14.5931 114.365 14.3614C113.872 13.9803 111.537 12.5324 108.604 12.5263C103.812 12.5141 97.9258 15.9313 97.9258 23.1042C97.9258 30.7008 103.309 34.31 108.897 34.31C111.613 34.31 113.545 33.0937 114.228 32.6761C115.003 32.2006 114.939 32.2371 115.076 32.9383C115.185 33.4778 115.121 34.4472 116.49 34.31C118.051 34.1546 121.639 33.7065 122.389 33.5571C123.111 33.4108 122.94 32.9413 122.288 32.8621C121.846 32.8102 119.356 33.0998 119.356 25.4027V1.16188H119.359ZM114.932 24.9271C114.844 30.9812 112.396 33.1578 109.689 33.1517C105.269 33.1395 102.931 27.8566 102.931 22.7993C102.931 17.1903 106.056 13.4743 109.4 13.6694C113.801 13.9255 114.853 17.425 114.929 23.6498C114.932 24.0614 114.935 24.9302 114.935 24.9302L114.932 24.9271Z" fill="currentColor"/>
<path fill-rule="evenodd" clip-rule="evenodd" d="M89.1709 19.5924C89.1557 19.7845 89.1222 20.0375 89.1039 20.1472C88.9454 21.1166 88.4424 21.6196 87.4852 22.0921C86.2415 22.7048 82.7572 23.2231 82.3152 23.3237C80.9069 23.6437 76.9502 24.6467 77.0386 28.7925C77.1239 32.8865 81.1721 34.2674 83.9979 34.2003C86.7384 34.1332 88.3448 32.9566 89.0612 32.3743C89.4849 32.0329 89.4483 32.1152 89.8019 32.5084C90.1952 32.9474 91.5547 34.2521 94.7037 34.2399C97.9014 34.2277 98.3769 32.7127 98.5629 32.2463C98.8098 31.6244 98.1422 31.283 97.9014 31.8469C97.502 32.7859 96.6942 33.0389 96.1394 33.0328C95.5237 33.0267 93.7099 32.8804 93.6977 28.2041C93.6977 28.2041 93.6977 18.5682 93.6947 18.0103C93.6947 14.8705 91.2987 12.3007 84.952 12.3007C78.1268 12.3007 78.0903 15.6631 78.0476 16.4983C77.9958 17.4433 78.4926 18.4401 80.2058 18.4462C81.7543 18.4493 82.1171 16.7696 82.3366 16.1264C82.5652 15.4558 82.6109 13.3798 85.3697 13.4225C87.7169 13.4225 89.1709 15.4771 89.1862 18.4097C89.1862 18.7907 89.1923 19.0834 89.1862 19.3577C89.1862 19.4126 89.177 19.565 89.177 19.5894L89.1709 19.5924ZM89.235 27.3719C89.235 30.4935 87.6254 32.9779 85.2538 32.9779C82.4006 32.9718 81.6995 30.5971 81.672 29.4784C81.6446 28.3596 82.2573 26.0154 85.074 24.3875C85.074 24.3875 86.3543 23.5614 88.8813 22.589C88.9484 22.5707 89.0002 22.5707 89.0368 22.5768C89.0825 22.5829 89.1222 22.6195 89.1222 22.6195C89.1557 22.6591 89.2167 22.7628 89.2136 23.1133C89.2136 23.2139 89.238 27.3719 89.238 27.3719H89.235Z" fill="currentColor"/>
<path fill-rule="evenodd" clip-rule="evenodd" d="M68.7588 28.4419C68.7588 31.9445 67.7407 33.0907 66.5457 33.3285C65.4422 33.548 65.6769 34.0814 66.1952 34.0784C66.4238 34.0784 75.581 34.0784 75.5962 34.0784C76.3644 34.0784 76.8887 33.5846 75.5292 33.2706C74.697 33.0846 73.31 32.1366 73.31 27.7317L73.2886 19.1261C73.2734 17.1781 73.4898 12.2702 65.8354 12.2702C61.9275 12.2702 59.6382 14.2547 59.4096 14.4285C59.056 14.7028 58.9066 14.8309 58.7511 14.3127C58.6322 13.9164 58.4249 13.2549 58.303 12.9134C58.1872 12.572 58.0439 12.2824 57.3001 12.3861C56.5563 12.4897 52.0966 13.1939 51.3559 13.3798C50.6151 13.5627 50.8102 13.8767 51.3498 13.9682C51.8863 14.0566 54.2853 14.2517 54.2701 18.4127C54.2579 22.5768 54.267 27.5884 54.267 27.5884C54.2914 32.6091 53.2275 33.0663 52.2978 33.3193C51.0876 33.6516 51.6516 34.0723 52.2307 34.0754C52.2429 34.0754 61.2477 34.0784 61.4763 34.0754C62.0951 34.0662 62.3664 33.5084 61.1227 33.298C59.9247 33.0999 58.7847 32.3926 58.809 28.448C58.809 28.0609 58.809 23.217 58.7999 22.4183C58.7694 20.3271 58.2786 13.7639 64.1955 13.7091C68.3259 13.5749 68.7253 17.0257 68.7466 19.3212L68.7558 28.4389L68.7588 28.4419Z" fill="currentColor"/>
<path fill-rule="evenodd" clip-rule="evenodd" d="M42.1797 19.5924C42.1645 19.7845 42.1309 20.0375 42.1127 20.1472C41.9541 21.1166 41.4512 21.6196 40.494 22.0921C39.2503 22.7048 35.766 23.2231 35.324 23.3237C33.9157 23.6437 29.959 24.6467 30.0474 28.7925C30.1327 32.8865 34.1809 34.2674 37.0067 34.2003C39.7472 34.1332 41.3536 32.9566 42.07 32.3743C42.4937 32.0329 42.4571 32.1152 42.8107 32.5084C43.204 32.9474 44.5635 34.2521 47.7125 34.2399C50.9102 34.2277 51.3857 32.7127 51.5716 32.2463C51.8186 31.6244 51.151 31.283 50.9101 31.8469C50.5108 32.7859 49.703 33.0389 49.1482 33.0328C48.5324 33.0267 46.7187 32.8804 46.7065 28.2041C46.7065 28.2041 46.7065 18.5682 46.7035 18.0103C46.7035 14.8705 44.3075 12.3007 37.9608 12.3007C31.1356 12.3007 31.099 15.6631 31.0564 16.4983C31.0045 17.4433 31.5014 18.4401 33.2146 18.4462C34.7631 18.4493 35.1259 16.7696 35.3454 16.1264C35.574 15.4558 35.6197 13.3798 38.3784 13.4225C40.7257 13.4225 42.1797 15.4771 42.195 18.4097C42.195 18.7907 42.2011 19.0834 42.195 19.3577C42.195 19.4126 42.1858 19.565 42.1858 19.5894L42.1797 19.5924ZM42.2407 27.3719C42.2407 30.4935 40.6312 32.9779 38.2596 32.9779C35.4063 32.9718 34.7052 30.5971 34.6778 29.4784C34.6503 28.3596 35.2631 26.0154 38.0797 24.3875C38.0797 24.3875 39.36 23.5614 41.8871 22.589C41.9541 22.5707 42.006 22.5707 42.0425 22.5768C42.0883 22.5829 42.1279 22.6195 42.1279 22.6195C42.1614 22.6591 42.2224 22.7628 42.2194 23.1133C42.2194 23.2139 42.2437 27.3719 42.2437 27.3719H42.2407Z" fill="currentColor"/>
<path fill-rule="evenodd" clip-rule="evenodd" d="M24.6349 1.6161C25.0129 1.75023 26.1743 2.1953 26.5432 1.32041C26.659 1.04301 26.7352 0.860103 26.8145 0.722926C26.9547 0.485152 27.1467 0.393699 27.2687 0.351022C27.5704 0.256522 27.9179 0.37236 28.0185 0.969844C28.1862 1.97886 28.7776 10.7094 28.8081 11.1758C28.866 12.2032 27.479 12.3068 27.4028 11.2917C27.3022 9.94735 24.6075 1.08568 17.2488 1.23505C10.6888 1.36918 6.36928 8.95662 6.62229 18.7663C6.86006 27.9359 11.2801 32.9901 18.5321 32.8438C25.5159 32.7005 27.4607 27.3872 28.491 24.1376C28.9178 22.7902 30.1676 23.1652 29.875 24.3967C28.5855 29.8198 24.4855 34.4076 17.072 34.56C8.96951 34.7246 0.226886 28.6004 0.0043575 17.7787C-0.224268 6.63375 8.58237 0.180313 17.2732 0.00350609C19.1479 -0.0361229 20.6873 0.265667 21.9158 0.631473C22.6138 0.838764 24.6349 1.6161 24.6349 1.6161Z" fill="currentColor"/>
</svg>
