<svg xmlns="http://www.w3.org/2000/svg" width="99" height="1659" fill="none" viewBox="0 0 99 1659">
  <circle cx="48.5" cy="280.353" r="8.684" stroke="var(--fl-fgColor, #E8A41C)" stroke-width="1.632" transform="rotate(90 48.5 280.353)"/>
  <circle cx="9.5" cy="556.846" r="8.184" stroke="var(--fl-fgColor, #CB3335)" stroke-width="1.632" transform="rotate(90 9.5 556.846)"/>
  <circle cx="9.5" cy="744.103" r="8.684" stroke="var(--fl-fgColor, #CB3335)" stroke-width="1.632" transform="rotate(90 9.5 744.103)"/>
  <circle cx="9.5" cy="984.984" r="8.684" stroke="var(--fl-fgColor, #CB3335)" stroke-width="1.632" transform="rotate(90 9.5 984.984)"/>
  <path stroke="var(--fl-fgColor, url(#2-a-mobile))" stroke-width="1.632" d="M48.5 18.103v118.25"/>
  <path stroke="var(--fl-fgColor, #E8A41C)" stroke-width="1.632" d="M48.5 154.603v116.25"/>
  <path stroke="var(--fl-fgColor, #CB3335)" stroke-width="1.632" d="M9.5 564.353v171M9.5 752.897v223.706"/>
  <path stroke="var(--fl-fgColor, url(#2-b-mobile))" stroke-width="1.632" d="M90 457.854v-7.884c0-9.013-7.307-16.32-16.32-16.32h-8.555c-9.014 0-16.32-7.308-16.32-16.322v-35.551"/>
  <path stroke="var(--fl-fgColor, url(#2-c-mobile))" stroke-width="1.632" d="M9.5 548.603v-99.118c0-9.013 7.307-16.32 16.32-16.32h6.86c9.013 0 16.3-7.269 16.265-16.282-.14-36.448-.5-120.767-.5-128.53"/>
  <circle stroke="var(--fl-fgColor, #E8A41C)" cx="48.5" cy="145.354" r="8.684" stroke-width="1.632" transform="rotate(90 48.5 145.354)"/>
  <circle stroke="var(--fl-fgColor, #E8451C)" cx="48.5" cy="9.5" r="8.684" stroke-width="1.632" transform="rotate(90 48.5 9.5)"/>
  <circle stroke="var(--fl-fgColor, #C5C818)" cx="89.195" cy="1247.35" r="8.684" stroke-width="1.632" transform="rotate(90 89.195 1247.35)"/>
  <circle stroke="var(--fl-fgColor, #7BD383)" cx="89.036" cy="1649.1" r="8.684" stroke-width="1.632" transform="rotate(90 89.036 1649.1)"/>
  <path stroke="var(--fl-fgColor, url(#2-d-mobile))" stroke-width="1.632" d="m89.008 1443.85.055 196.25"/>
  <path stroke="var(--fl-fgColor, url(#2-e-mobile))" stroke-width="1.632" d="M89.001 1255.85v170.5"/>
  <path stroke="var(--fl-fgColor, url(#2-f-mobile))" stroke-width="1.632" d="M88.999 1166.35v72"/>
  <circle stroke="var(--fl-fgColor, #99C818)" cx="89.195" cy="1435.11" r="8.684" stroke-width="1.632" transform="rotate(90 89.195 1435.11)"/>
  <defs>
    <linearGradient id="2-a-mobile" x1="44.496" x2="44.496" y1="54.113" y2="237.98" gradientUnits="userSpaceOnUse">
      <stop stop-color="#CB3335"/>
      <stop offset="1" stop-color="#E8A41C"/>
    </linearGradient>
    <linearGradient id="2-b-mobile" x1="49.7" x2="105.427" y1="397.802" y2="466.922" gradientUnits="userSpaceOnUse">
      <stop stop-color="#E8A41C"/>
      <stop offset="1" stop-color="#C5C818"/>
    </linearGradient>
    <linearGradient id="2-c-mobile" x1="48.142" x2="34.88" y1="419.13" y2="459.415" gradientUnits="userSpaceOnUse">
      <stop stop-color="#E8A41C"/>
      <stop offset="1" stop-color="#CB3335"/>
    </linearGradient>
    <linearGradient id="2-d-mobile" x1="-1741.75" x2="-1741.75" y1="1546.82" y2="1728.2" gradientUnits="userSpaceOnUse">
      <stop stop-color="#99C818"/>
      <stop offset="1" stop-color="#7BD383"/>
    </linearGradient>
    <linearGradient id="2-e-mobile" x1="19879300000" x2="19879300000" y1="2494.48" y2="2677.1" gradientUnits="userSpaceOnUse">
      <stop stop-color="#C5C818"/>
      <stop offset="1" stop-color="#99C818"/>
    </linearGradient>
    <linearGradient id="2-f-mobile" x1="304.248" x2="304.248" y1="1558.87" y2="1741.5" gradientUnits="userSpaceOnUse">
      <stop stop-color="#C5C818"/>
      <stop offset="1" stop-color="#99C818"/>
    </linearGradient>
  </defs>
</svg>
