<svg xmlns="http://www.w3.org/2000/svg" width="557" height="2187" fill="none" viewBox="0 0 557 2187">
  <path stroke="var(--fl-fgColor, #E8451C)" stroke-width="1.632" d="M300.575 395.747c0 12.535-10.093 22.687-22.531 22.687-12.439 0-22.531-10.152-22.532-22.687 0-12.536 10.093-22.688 22.532-22.688 12.438 0 22.531 10.152 22.531 22.688Z"/>
  <path stroke="var(--fl-fgColor, #CB3335)" stroke-width="1.632" d="M46.09 966.504c0 12.535-10.092 22.687-22.53 22.687-12.439 0-22.532-10.152-22.532-22.687 0-12.535 10.093-22.687 22.532-22.688 12.438 0 22.53 10.153 22.53 22.688ZM45.879 1185.54c0 12.53-10.093 22.68-22.532 22.68-12.438 0-22.531-10.15-22.531-22.68 0-12.54 10.093-22.69 22.531-22.69 12.439 0 22.532 10.15 22.532 22.69ZM45.91 1403.5c0 12.54-10.093 22.69-22.531 22.69-12.439 0-22.532-10.15-22.532-22.69 0-12.53 10.093-22.68 22.531-22.68 12.44 0 22.532 10.15 22.532 22.68Z"/>
  <path stroke="var(--fl-fgColor, url(#1-a))" stroke-width="1.632" d="M278.049 46.55v139.496"/>
  <path stroke="var(--fl-fgColor, #E8451C)" stroke-width="1.632" d="M278.044 231.5v141"/>
  <path stroke="var(--fl-fgColor, #CB3335)" stroke-width="1.632" d="M23.347 989.501V1162.5M23.379 1208.5V1381"/>
  <path stroke="var(--fl-fgColor, url(#1-b))" stroke-width="1.632" d="M532.214 912v-59.535c0-9.013-7.307-16.32-16.32-16.32H294.371c-9.013 0-16.32-7.276-16.32-16.289V614"/>
  <path stroke="var(--fl-fgColor, url(#1-c))" stroke-width="1.632" d="M23.379 944v-91.156c0-9.013 7.307-16.32 16.32-16.32h222.032c9.013 0 16.32-7.269 16.32-16.282V418.75"/>
  <circle stroke="var(--fl-fgColor, #C5C818)" cx="532.915" cy="1689.5" r="22.688" stroke-width="1.632" transform="rotate(90 532.915 1689.5)"/>
  <circle stroke="var(--fl-fgColor, #99C818)" cx="532.213" cy="1906.57" r="22.688" stroke-width="1.632" transform="rotate(90 532.213 1906.57)"/>
  <circle stroke="var(--fl-fgColor, #7BD383)" cx="532.166" cy="2163" r="22.688" stroke-width="1.632" transform="rotate(90 532.166 2163)"/>
  <path stroke="var(--fl-fgColor, url(#1-d))" stroke-width="1.632" d="M532.166 1929.96v210.35"/>
  <path stroke="var(--fl-fgColor, url(#1-e))" stroke-width="1.632" d="M532.165 1711.5V1884"/>
  <path stroke="var(--fl-fgColor, url(#1-f))" stroke-width="1.632" d="M532.213 912v754"/>
  <path stroke="var(--fl-fgColor, #E8451C)" stroke-width="1.632" d="M300.58 209.004c0 12.535-10.092 22.687-22.531 22.687-12.438 0-22.531-10.152-22.531-22.687 0-12.535 10.093-22.688 22.531-22.688 12.439 0 22.531 10.152 22.531 22.688Z"/>
  <path stroke="var(--fl-fgColor, #E8451C)" stroke-width="1.632" d="M300.582 23.504c0 12.535-10.093 22.687-22.531 22.687-12.439 0-22.532-10.152-22.532-22.687 0-12.535 10.093-22.687 22.532-22.688 12.438 0 22.531 10.153 22.531 22.688Z"/>
  <defs>
    <linearGradient id="1-a" x1="274.427" x2="274.427" y1="47.1" y2="314.681" gradientUnits="userSpaceOnUse">
      <stop stop-color="#CB3335"/>
      <stop offset="1" stop-color="#E8A41C"/>
    </linearGradient>
    <linearGradient id="1-b" x1="283.576" x2="322.915" y1="776.545" y2="957.613" gradientUnits="userSpaceOnUse">
      <stop stop-color="#E8A41C"/>
      <stop offset="1" stop-color="#C5C818"/>
    </linearGradient>
    <linearGradient id="1-c" x1="272.515" x2="233.159" y1="776.854" y2="958.15" gradientUnits="userSpaceOnUse">
      <stop stop-color="#E8A41C"/>
      <stop offset="1" stop-color="#CB3335"/>
    </linearGradient>
    <linearGradient id="1-d" x1="531.6" x2="531.6" y1="1961.78" y2="2225.75" gradientUnits="userSpaceOnUse">
      <stop stop-color="#99C818"/>
      <stop offset="1" stop-color="#7BD383"/>
    </linearGradient>
    <linearGradient id="1-e" x1="531.599" x2="531.599" y1="1649" y2="1914.77" gradientUnits="userSpaceOnUse">
      <stop stop-color="#C5C818"/>
      <stop offset="1" stop-color="#99C818"/>
    </linearGradient>
    <linearGradient id="1-f" x1="442.713" x2="442.713" y1="1551" y2="1816.77" gradientUnits="userSpaceOnUse">
      <stop stop-color="#C5C818"/>
      <stop offset="1" stop-color="#99C818"/>
    </linearGradient>
  </defs>
</svg>