<svg xmlns="http://www.w3.org/2000/svg" width="237" height="525" fill="none" viewBox="0 0 237 525">
  <circle cx="87.047" cy="6.693" r="5.921" stroke="#E8A41C" stroke-width="1.545" transform="rotate(90 87.047 6.693)"/>
  <circle cx="6.95" cy="170.658" r="5.921" stroke="#CB3335" stroke-width="1.545" transform="rotate(90 6.95 170.658)"/>
  <circle cx="229.772" cy="517.793" r="5.921" stroke="#7BD383" stroke-width="1.545" transform="rotate(90 229.772 517.793)"/>
  <circle cx="6.694" cy="331.375" r="5.921" stroke="#CB3335" stroke-width="1.545" transform="rotate(90 6.694 331.375)"/>
  <circle cx="6.694" cy="492.886" r="5.921" stroke="#CB3335" stroke-width="1.545" transform="rotate(90 6.694 492.886)"/>
  <path stroke="#CB3335" stroke-width="1.545" d="M7 177v148M7 337.5v149"/>
  <path stroke="url(#a)" stroke-width="1.545" d="M230 98v-6.19c0-8.531-6.915-15.446-15.446-15.446H102.446C93.916 76.364 87 69.459 87 60.928V13"/>
  <path stroke="url(#b)" stroke-width="1.545" d="M7 164.5V91.81c0-8.531 6.915-15.446 15.445-15.446h49.11c8.53 0 15.445-6.905 15.445-15.436V13"/>
  <path stroke="url(#c)" stroke-width="1.545" d="M229.771 342v169.5"/>
  <path stroke="url(#d)" stroke-width="1.545" d="M229.771 98.325v232.8"/>
  <circle cx="230" cy="175.943" r="5.921" fill="#fff" stroke="#C5C818" stroke-width="1.545" transform="rotate(90 230 175.943)"/>
  <circle cx="229.772" cy="336.932" r="5.921" fill="#fff" stroke="#99C818" stroke-width="1.545" transform="rotate(90 229.772 336.932)"/>
  <defs>
    <linearGradient id="a" x1="90.109" x2="95.994" y1="59.364" y2="112.8" gradientUnits="userSpaceOnUse">
      <stop stop-color="#E8A41C"/>
      <stop offset="1" stop-color="#C5C818"/>
    </linearGradient>
    <linearGradient id="b" x1="85.261" x2="75.01" y1="59.364" y2="111.43" gradientUnits="userSpaceOnUse">
      <stop stop-color="#E8A41C"/>
      <stop offset="1" stop-color="#CB3335"/>
    </linearGradient>
    <linearGradient id="c" x1="228.5" x2="228.5" y1="443.664" y2="541.664" gradientUnits="userSpaceOnUse">
      <stop stop-color="#99C818"/>
      <stop offset="1" stop-color="#7BD383"/>
    </linearGradient>
    <linearGradient id="d" x1="228.646" x2="228.646" y1="355.36" y2="431.043" gradientUnits="userSpaceOnUse">
      <stop stop-color="#C5C818"/>
      <stop offset="1" stop-color="#99C818"/>
    </linearGradient>
  </defs>
</svg>