<svg xmlns="http://www.w3.org/2000/svg" width="151" height="491" fill="none" viewBox="0 0 151 491">
    <circle cx="75.346" cy="7.072" r="6.256" stroke="#E8451C" stroke-width="1.632" transform="rotate(90 75.346 7.072)"/>
    <circle cx="75.073" cy="159.822" r="6.256" stroke="#E8A41C" stroke-width="1.632" transform="rotate(90 75.073 159.822)"/>
    <circle cx="7.072" cy="378.79" r="6.256" stroke="#CB3335" stroke-width="1.632" opacity=".25" transform="rotate(90 7.072 378.79)"/>
    <circle cx="143.072" cy="378.79" r="6.256" stroke="#C5C818" stroke-width="1.632" opacity=".25" transform="rotate(90 143.072 378.79)"/>
    <circle cx="143.072" cy="472.359" r="6.256" stroke="#99C818" stroke-width="1.632" opacity=".25" transform="rotate(90 143.072 472.359)"/>
    <circle cx="7.072" cy="472.359" r="6.256" stroke="#CB3335" stroke-width="1.632" opacity=".25" transform="rotate(90 7.072 472.359)"/>
    <path stroke="url(#a)" stroke-width="1.632" d="M75.344 13.25V153.5"/>
    <path stroke="#E8A41C" stroke-width="1.632" d="M75.346 166.25v85"/>
    <path stroke="#CB3335" stroke-width="1.632" d="M7.343 385.318v79.969M7.343 478.887v79.969" opacity=".25"/>
    <path stroke="url(#b)" stroke-width="1.632" d="M143.072 371.718v-6.528c0-9.013-7.307-16.32-16.32-16.32h-35.36c-9.013 0-16.32-7.292-16.32-16.305V264" opacity=".35"/>
    <path stroke="url(#c)" stroke-width="1.632" d="M7.072 371.719v-6.528c0-9.014 7.307-16.321 16.32-16.321h35.36c9.014 0 16.32-7.292 16.32-16.305v-68.69" opacity=".35"/>
    <path stroke="url(#d)" stroke-width="1.632" d="M142.8 479.431v79.425" opacity=".25"/>
    <path stroke="url(#e)" stroke-width="1.632" d="M142.8 385.318v79.969" opacity=".25"/>
    <circle cx="75.346" cy="257.822" r="6.256" fill="#fff" stroke="#E8A41C" stroke-width="1.632" transform="rotate(90 75.346 257.822)"/>
    <defs>
      <linearGradient id="a" x1="74.027" x2="74.027" y1="49.644" y2="130.157" gradientUnits="userSpaceOnUse">
        <stop stop-color="#CB3335"/>
        <stop offset="1" stop-color="#E8A41C"/>
      </linearGradient>
      <linearGradient id="b" x1="76.55" x2="89.731" y1="330.918" y2="384.808" gradientUnits="userSpaceOnUse">
        <stop stop-color="#E8A41C"/>
        <stop offset="1" stop-color="#C5C818"/>
      </linearGradient>
      <linearGradient id="c" x1="73.594" x2="60.413" y1="330.918" y2="384.808" gradientUnits="userSpaceOnUse">
        <stop stop-color="#E8A41C"/>
        <stop offset="1" stop-color="#CB3335"/>
      </linearGradient>
      <linearGradient id="d" x1="141.484" x2="141.484" y1="479.431" y2="558.856" gradientUnits="userSpaceOnUse">
        <stop stop-color="#99C818"/>
        <stop offset="1" stop-color="#7BD383"/>
      </linearGradient>
      <linearGradient id="e" x1="141.484" x2="141.484" y1="385.318" y2="465.287" gradientUnits="userSpaceOnUse">
        <stop stop-color="#C5C818"/>
        <stop offset="1" stop-color="#99C818"/>
      </linearGradient>
    </defs>
  </svg>