<svg width="237" height="525" viewBox="0 0 237 525" fill="none" xmlns="http://www.w3.org/2000/svg">
<circle cx="87.0472" cy="6.69308" r="5.92079" transform="rotate(90 87.0472 6.69308)" stroke="#E8A41C" stroke-width="1.54455"/>
<circle cx="6.94951" cy="170.658" r="5.92079" transform="rotate(90 6.94951 170.658)" stroke="#CB3335" stroke-width="1.54455"/>
<circle cx="229.772" cy="517.793" r="5.92079" transform="rotate(90 229.772 517.793)" stroke="#7BD383" stroke-width="1.54455"/>
<circle cx="6.69365" cy="331.375" r="5.92079" transform="rotate(90 6.69365 331.375)" stroke="#CB3335" stroke-width="1.54455"/>
<circle cx="6.69365" cy="492.886" r="5.92079" transform="rotate(90 6.69365 492.886)" stroke="#CB3335" stroke-width="1.54455"/>
<path d="M6.99983 177L6.99999 325" stroke="#CB3335" stroke-width="1.54455"/>
<g filter="url(#filter0_d_1511_201)">
<path d="M6.99999 337.5L6.99999 486.5" stroke="#CB3335" stroke-width="1.54455"/>
</g>
<path d="M230 98L230 91.8092C230 83.2789 223.085 76.3637 214.554 76.3637L158.5 76.3636L102.446 76.3636C93.9152 76.3636 87 69.4587 87 60.9283C87 44.5504 87 21.1809 87 13" stroke="url(#paint0_linear_1511_201)" stroke-width="1.54455"/>
<path d="M6.99999 164.5L6.99999 91.8092C6.99999 83.2788 13.9152 76.3636 22.4455 76.3636L47 76.3636L71.5545 76.3637C80.0848 76.3637 87 69.4587 87 60.9284C87 44.5504 87 21.1809 87 13" stroke="url(#paint1_linear_1511_201)" stroke-width="1.54455"/>
<path d="M229.771 342L229.771 511.5" stroke="url(#paint2_linear_1511_201)" stroke-width="1.54455"/>
<path d="M229.771 98.3252L229.771 331.125" stroke="url(#paint3_linear_1511_201)" stroke-width="1.54455"/>
<circle cx="230" cy="175.943" r="5.92079" transform="rotate(90 230 175.943)" fill="white" stroke="#C5C818" stroke-width="1.54455"/>
<circle cx="229.772" cy="336.932" r="5.92079" transform="rotate(90 229.772 336.932)" fill="white" stroke="#99C818" stroke-width="1.54455"/>
<defs>
<filter id="filter0_d_1511_201" x="2.22852" y="337.5" width="9.54297" height="157" filterUnits="userSpaceOnUse" color-interpolation-filters="sRGB">
<feFlood flood-opacity="0" result="BackgroundImageFix"/>
<feColorMatrix in="SourceAlpha" type="matrix" values="0 0 0 0 0 0 0 0 0 0 0 0 0 0 0 0 0 0 127 0" result="hardAlpha"/>
<feOffset dy="4"/>
<feGaussianBlur stdDeviation="2"/>
<feComposite in2="hardAlpha" operator="out"/>
<feColorMatrix type="matrix" values="0 0 0 0 0 0 0 0 0 0 0 0 0 0 0 0 0 0 0.25 0"/>
<feBlend mode="normal" in2="BackgroundImageFix" result="effect1_dropShadow_1511_201"/>
<feBlend mode="normal" in="SourceGraphic" in2="effect1_dropShadow_1511_201" result="shape"/>
</filter>
<linearGradient id="paint0_linear_1511_201" x1="90.1087" y1="59.3636" x2="95.9944" y2="112.8" gradientUnits="userSpaceOnUse">
<stop stop-color="#E8A41C"/>
<stop offset="1" stop-color="#C5C818"/>
</linearGradient>
<linearGradient id="paint1_linear_1511_201" x1="85.2609" y1="59.3637" x2="75.0099" y2="111.43" gradientUnits="userSpaceOnUse">
<stop stop-color="#E8A41C"/>
<stop offset="1" stop-color="#CB3335"/>
</linearGradient>
<linearGradient id="paint2_linear_1511_201" x1="228.5" y1="443.664" x2="228.5" y2="541.664" gradientUnits="userSpaceOnUse">
<stop stop-color="#99C818"/>
<stop offset="1" stop-color="#7BD383"/>
</linearGradient>
<linearGradient id="paint3_linear_1511_201" x1="228.646" y1="355.36" x2="228.646" y2="431.043" gradientUnits="userSpaceOnUse">
<stop stop-color="#C5C818"/>
<stop offset="1" stop-color="#99C818"/>
</linearGradient>
</defs>
</svg>
