<svg xmlns="http://www.w3.org/2000/svg" width="237" height="478" fill="none" viewBox="0 0 237 478">
  <circle cx="87.049" cy="6.693" r="5.921" stroke="#E8A41C" stroke-width="1.545" transform="rotate(90 87.05 6.693)"/>
  <circle cx="7" cy="165.568" r="5.921" stroke="#CB3335" stroke-width="1.545" transform="rotate(90 7 165.568)"/>
  <circle cx="230" cy="470.443" r="5.921" stroke="#7BD383" stroke-width="1.545" transform="rotate(90 230 470.443)"/>
  <circle cx="7" cy="281.307" r="5.921" stroke="#CB3335" stroke-width="1.545" transform="rotate(90 7 281.307)"/>
  <circle cx="6.694" cy="383.693" r="5.921" stroke="#CB3335" stroke-width="1.545" transform="rotate(90 6.694 383.693)"/>
  <path stroke="#CB3335" stroke-width="1.545" d="M7 171.125V276M6.95 287.375v89.875"/>
  <path stroke="url(#a)" stroke-width="1.545" d="M230 98v-6.191c0-8.53-6.915-15.446-15.446-15.446H102.446C93.916 76.363 87 69.458 87 60.928V13"/>
  <path stroke="url(#b)" stroke-width="1.545" d="M7 159.5V91.809c0-8.53 6.915-15.446 15.445-15.446h49.11c8.53 0 15.445-6.905 15.445-15.435V13"/>
  <path stroke="url(#c)" stroke-width="1.545" d="M229.771 337.25v127"/>
  <path stroke="url(#d)" stroke-width="1.545" d="M230 97.836V324.25"/>
  <circle cx="229.694" cy="212.443" r="5.921" fill="#fff" stroke="#C5C818" stroke-width="1.545" transform="rotate(90 229.694 212.443)"/>
  <circle cx="229.694" cy="330.557" r="5.921" fill="#fff" stroke="#99C818" stroke-width="1.545" transform="rotate(90 229.694 330.557)"/>
  <defs>
    <linearGradient id="a" x1="90.109" x2="95.994" y1="59.363" y2="112.8" gradientUnits="userSpaceOnUse">
      <stop stop-color="#E8A41C"/>
      <stop offset="1" stop-color="#C5C818"/>
    </linearGradient>
    <linearGradient id="b" x1="85.261" x2="75.01" y1="59.363" y2="111.43" gradientUnits="userSpaceOnUse">
      <stop stop-color="#E8A41C"/>
      <stop offset="1" stop-color="#CB3335"/>
    </linearGradient>
    <linearGradient id="c" x1="228.5" x2="228.5" y1="443.663" y2="541.663" gradientUnits="userSpaceOnUse">
      <stop stop-color="#99C818"/>
      <stop offset="1" stop-color="#7BD383"/>
    </linearGradient>
    <linearGradient id="d" x1="228.875" x2="228.875" y1="354.871" y2="430.554" gradientUnits="userSpaceOnUse">
      <stop stop-color="#C5C818"/>
      <stop offset="1" stop-color="#99C818"/>
    </linearGradient>
  </defs>
</svg>