<svg xmlns="http://www.w3.org/2000/svg" width="99" height="1403" fill="none" viewBox="0 0 99 1403">
  <circle cx="9.251" cy="556.25" r="8.184" stroke="var(--fl-fgColor, #CB3335)" stroke-width="1.632" transform="rotate(90 9.251 556.25)"/>
  <circle cx="9.5" cy="693" r="8.684" stroke="var(--fl-fgColor, #CB3335)" stroke-width="1.632" transform="rotate(90 9.5 693)"/>
  <circle cx="9.5" cy="855.5" r="8.684" stroke="var(--fl-fgColor, #CB3335)" stroke-width="1.632" transform="rotate(90 9.5 855.5)"/>
  <path stroke="var(--fl-fgColor, url(#1-a-mobile))" stroke-width="1.632" d="M48.252 18.25V109"/>
  <path stroke="var(--fl-fgColor, #E8A41C)" stroke-width="1.632" d="M48.284 127v144.75"/>
  <path stroke="var(--fl-fgColor, #CB3335)" stroke-width="1.632" d="M9.251 564.5v120M9.251 701.75v145"/>
  <path stroke="var(--fl-fgColor, url(#1-b-mobile))" stroke-width="1.632" d="M89.251 470.375V459.55c0-9.014-7.306-16.32-16.32-16.32h-8.36c-9.013 0-16.32-7.288-16.32-16.302V318.375"/>
  <path stroke="var(--fl-fgColor, url(#1-c-mobile))" stroke-width="1.632" d="M9.251 547.25v-87.017c0-9.013 7.307-16.32 16.32-16.32h6.36c9.014 0 16.32-7.303 16.32-16.316V290.25"/>
  <circle cx="48.284" cy="280.75" r="8.684" stroke="var(--fl-fgColor, #E8A41C)" stroke-width="1.632" transform="rotate(90 48.284 280.75)"/>
  <circle cx="48.252" cy="118.25" r="8.684" stroke="var(--fl-fgColor, #E8A41C)" stroke-width="1.632" transform="rotate(90 48.252 118.25)"/>
  <circle cx="48.502" cy="9.5" r="8.684" stroke="var(--fl-fgColor, #E8451C)" stroke-width="1.632" transform="rotate(90 48.502 9.5)"/>
  <circle cx="89.501" cy="1087.62" r="8.684" stroke="var(--fl-fgColor, #C5C818)" stroke-width="1.632" transform="rotate(90 89.501 1087.62)"/>
  <circle cx="89.501" cy="1392.75" r="8.684" stroke="var(--fl-fgColor, #7BD383)" stroke-width="1.632" transform="rotate(90 89.501 1392.75)"/>
  <path stroke="var(--fl-fgColor, url(#1-d-mobile))" stroke-width="1.632" d="M89.44 1234.5v149.63"/>
  <path stroke="var(--fl-fgColor, url(#1-e-mobile))" stroke-width="1.632" d="M89.503 1096.5v120.75"/>
  <path stroke="var(--fl-fgColor, url(#1-f-mobile))" stroke-width="1.632" d="M89.5 1019.62v59.5"/>
  <circle cx="89.503" cy="1226.12" r="8.684" stroke="var(--fl-fgColor, #99C818)" stroke-width="1.632" transform="rotate(90 89.503 1226.12)"/>
  <defs>
    <linearGradient id="1-a-mobile" x1="45.247" x2="45.247" y1="87.25" y2="271.116" gradientUnits="userSpaceOnUse">
      <stop stop-color="#CB3335"/>
      <stop offset="1" stop-color="#E8A41C"/>
    </linearGradient>
    <linearGradient id="1-b-mobile" x1="49.143" x2="112.805" y1="403.025" y2="473.096" gradientUnits="userSpaceOnUse">
      <stop stop-color="#E8A41C"/>
      <stop offset="1" stop-color="#C5C818"/>
    </linearGradient>
    <linearGradient id="1-c-mobile" x1="47.404" x2="32.731" y1="429.147" y2="470.976" gradientUnits="userSpaceOnUse">
      <stop stop-color="#E8A41C"/>
      <stop offset="1" stop-color="#CB3335"/>
    </linearGradient>
    <linearGradient id="1-d-mobile" x1="88.098" x2="88.098" y1="1253.08" y2="1434.46" gradientUnits="userSpaceOnUse">
      <stop stop-color="#99C818"/>
      <stop offset="1" stop-color="#7BD383"/>
    </linearGradient>
    <linearGradient id="1-e-mobile" x1="306.735" x2="306.735" y1="1385.54" y2="1568.16" gradientUnits="userSpaceOnUse">
      <stop stop-color="#C5C818"/>
      <stop offset="1" stop-color="#99C818"/>
    </linearGradient>
    <linearGradient id="1-f-mobile" x1="304.75" x2="304.75" y1="1323.89" y2="1506.51" gradientUnits="userSpaceOnUse">
      <stop stop-color="#C5C818"/>
      <stop offset="1" stop-color="#99C818"/>
    </linearGradient>
  </defs>
</svg>