<svg xmlns="http://www.w3.org/2000/svg" width="99" height="1871" fill="none" viewBox="0 0 99 1871">
  <circle cx="48.508" cy="357.115" r="8.684" stroke="var(--fl-fgColor, #E8A41C)" stroke-width="1.632" transform="rotate(90 48.508 357.115)"/>
  <circle cx="9.508" cy="582.25" r="8.184" stroke="var(--fl-fgColor, #CB3335)" stroke-width="1.632" transform="rotate(90 9.508 582.25)"/>
  <circle cx="9.509" cy="797.324" r="8.684" stroke="var(--fl-fgColor, #CB3335)" stroke-width="1.632" transform="rotate(90 9.509 797.324)"/>
  <circle cx="9.5" cy="1063.49" r="8.684" stroke="var(--fl-fgColor, #CB3335)" stroke-width="1.632" transform="rotate(90 9.5 1063.49)"/>
  <path stroke="var(--fl-fgColor, url(#4-a-mobile))" stroke-width="1.632" d="M48.383 18.24v197.375"/>
  <path stroke="var(--fl-fgColor, #E8A41C)" stroke-width="1.632" d="M48.258 233.365V348.24"/>
  <path stroke="var(--fl-fgColor, #CB3335)" stroke-width="1.632" d="M9.509 590.74v198M9.5 805.49v249"/>
  <path stroke="var(--fl-fgColor, url(#4-b-mobile))" stroke-width="1.632" d="M89.508 478v-10.825c0-9.014-7.307-16.32-16.32-16.32h-8.36c-9.013 0-16.32-7.307-16.32-16.321V384.74"/>
  <path stroke="var(--fl-fgColor, url(#4-c-mobile))" stroke-width="1.632" d="M9.508 573.49V467.858c0-9.013 7.307-16.32 16.32-16.32h6.36c9.013 0 16.32-7.288 16.32-16.301v-69.622"/>
  <circle stroke="var(--fl-fgColor, #E8451C)" cx="48.383" cy="9.5" r="8.684" stroke-width="1.632" transform="rotate(90 48.383 9.5)"/>
  <circle stroke="var(--fl-fgColor, #E8A41C)" cx="48.258" cy="224.25" r="8.684" stroke-width="1.632" transform="rotate(90 48.258 224.25)"/>
  <circle stroke="var(--fl-fgColor, #C5C818)" cx="89.007" cy="1328.57" r="8.684" stroke-width="1.632" transform="rotate(90 89.007 1328.57)"/>
  <path stroke="var(--fl-fgColor, url(#4-d-mobile))" stroke-width="1.632" d="M89.009 1577.24v275.5"/>
  <path stroke="var(--fl-fgColor, url(#4-e-mobile))" stroke-width="1.632" d="M89.01 1337.24v222.5"/>
  <path stroke="var(--fl-fgColor, url(#4-f-mobile))" stroke-width="1.632" d="M89.007 1258.74v61"/>
  <circle stroke="var(--fl-fgColor, #99C818)" cx="89.204" cy="1569.24" r="8.684" stroke-width="1.632" transform="rotate(90 89.204 1569.24)"/>
  <circle stroke="var(--fl-fgColor, #7BD383)" cx="89.009" cy="1861.24" r="8.684" stroke-width="1.632" transform="rotate(90 89.01 1861.24)"/>
  <defs>
    <linearGradient id="4-a-mobile" x1="44.504" x2="44.504" y1="133" y2="316.866" gradientUnits="userSpaceOnUse">
      <stop stop-color="#CB3335"/>
      <stop offset="1" stop-color="#E8A41C"/>
    </linearGradient>
    <linearGradient id="4-b-mobile" x1="49.399" x2="113.061" y1="410.65" y2="480.721" gradientUnits="userSpaceOnUse">
      <stop stop-color="#E8A41C"/>
      <stop offset="1" stop-color="#C5C818"/>
    </linearGradient>
    <linearGradient id="4-c-mobile" x1="47.66" x2="32.988" y1="436.772" y2="478.601" gradientUnits="userSpaceOnUse">
      <stop stop-color="#E8A41C"/>
      <stop offset="1" stop-color="#CB3335"/>
    </linearGradient>
    <linearGradient id="4-d-mobile" x1="87.23" x2="87.23" y1="1384.83" y2="1566.21" gradientUnits="userSpaceOnUse">
      <stop stop-color="#99C818"/>
      <stop offset="1" stop-color="#7BD383"/>
    </linearGradient>
    <linearGradient id="4-e-mobile" x1="306.242" x2="306.242" y1="1516.41" y2="1699.04" gradientUnits="userSpaceOnUse">
      <stop stop-color="#C5C818"/>
      <stop offset="1" stop-color="#99C818"/>
    </linearGradient>
    <linearGradient id="4-f-mobile" x1="304.257" x2="304.257" y1="1375.71" y2="1558.33" gradientUnits="userSpaceOnUse">
      <stop stop-color="#C5C818"/>
      <stop offset="1" stop-color="#99C818"/>
    </linearGradient>
  </defs>
</svg>
