<svg xmlns="http://www.w3.org/2000/svg" width="237" height="507" fill="none" viewBox="0 0 237 507">
  <circle cx="87.047" cy="6.693" r="5.921" stroke="#E8A41C" stroke-width="1.545" transform="rotate(90 87.047 6.693)"/>
  <circle cx="7" cy="162.943" r="5.921" stroke="#CB3335" stroke-width="1.545" transform="rotate(90 7 162.943)"/>
  <circle cx="229.694" cy="364.96" r="5.921" stroke="#99C818" stroke-width="1.545" transform="rotate(90 229.694 364.96)"/>
  <circle cx="229.772" cy="499.818" r="5.921" stroke="#7BD383" stroke-width="1.545" transform="rotate(90 229.772 499.818)"/>
  <circle cx="6.694" cy="278.808" r="5.921" stroke="#CB3335" stroke-width="1.545" transform="rotate(90 6.694 278.808)"/>
  <circle cx="6.694" cy="457.347" r="5.921" stroke="#CB3335" stroke-width="1.545" transform="rotate(90 6.694 457.347)"/>
  <path stroke="#CB3335" stroke-width="1.545" d="M7 169.001v103.75M6.95 284.501V451.25"/>
  <path stroke="url(#a)" stroke-width="1.545" d="M230 98v-6.191c0-8.53-6.915-15.446-15.446-15.446H102.446C93.916 76.363 87 69.458 87 60.928V13"/>
  <path stroke="url(#b)" stroke-width="1.545" d="M7 157.126V91.809c0-8.53 6.915-15.446 15.445-15.446h49.11c8.53 0 15.445-6.905 15.445-15.435V13"/>
  <path stroke="url(#c)" stroke-width="1.545" d="M229.771 370.876v122.75"/>
  <path stroke="url(#d)" stroke-width="1.545" d="M230 97.836v261.165"/>
  <circle cx="229.694" cy="223.443" r="5.921" fill="#fff" stroke="#C5C818" stroke-width="1.545" transform="rotate(90 229.694 223.443)"/>
  <defs>
    <linearGradient id="a" x1="90.109" x2="95.994" y1="59.363" y2="112.8" gradientUnits="userSpaceOnUse">
      <stop stop-color="#E8A41C"/>
      <stop offset="1" stop-color="#C5C818"/>
    </linearGradient>
    <linearGradient id="b" x1="85.261" x2="75.01" y1="59.363" y2="111.43" gradientUnits="userSpaceOnUse">
      <stop stop-color="#E8A41C"/>
      <stop offset="1" stop-color="#CB3335"/>
    </linearGradient>
    <linearGradient id="c" x1="228.5" x2="228.5" y1="443.664" y2="541.664" gradientUnits="userSpaceOnUse">
      <stop stop-color="#99C818"/>
      <stop offset="1" stop-color="#7BD383"/>
    </linearGradient>
    <linearGradient id="d" x1="23635" x2="23635" y1="186.095" y2="212.082" gradientUnits="userSpaceOnUse">
      <stop stop-color="#C5C818"/>
      <stop offset="1" stop-color="#99C818"/>
    </linearGradient>
  </defs>
</svg>