<svg xmlns="http://www.w3.org/2000/svg" width="99" height="1588" fill="none" viewBox="0 0 99 1588">
  <circle cx="47.563" cy="301.375" r="8.684" stroke="var(--fl-fgColor, #E8A41C)" stroke-width="1.632" transform="rotate(90 47.563 301.375)"/>
  <circle cx="9.5" cy="540.5" r="8.184" stroke="var(--fl-fgColor, #CB3335)" stroke-width="1.632" transform="rotate(90 9.5 540.5)"/>
  <circle cx="9.501" cy="725" r="8.684" stroke="var(--fl-fgColor, #CB3335)" stroke-width="1.632" transform="rotate(90 9.501 725)"/>
  <circle cx="9.5" cy="862.029" r="8.684" stroke="var(--fl-fgColor, #CB3335)" stroke-width="1.632" transform="rotate(90 9.5 862.029)"/>
  <path stroke="var(--fl-fgColor, url(#3-a-mobile))" stroke-width="1.632" d="M47.563 18v113"/>
  <path stroke="var(--fl-fgColor, #E8A41C)" stroke-width="1.632" d="M47.563 147.75v144.625"/>
  <path stroke="var(--fl-fgColor, #CB3335)" stroke-width="1.632" d="M9.501 549v167M9.5 733v120"/>
  <path stroke="var(--fl-fgColor, url(#3-b-mobile))" stroke-width="1.632" d="M89.5 446.26v-.335c0-9.013-7.306-16.32-16.32-16.32h-9.274c-9.013 0-16.32-7.294-16.32-16.308V353"/>
  <path stroke="var(--fl-fgColor, url(#3-c-mobile))" stroke-width="1.632" d="M9.5 532v-85.536c0-9.013 7.307-16.32 16.32-16.32H31.242c9.014 0 16.32-7.295 16.32-16.309v-103.71"/>
  <circle stroke="var(--fl-fgColor, #E8A41C)" cx="47.563" cy="139.125" r="8.684" stroke-width="1.632" transform="rotate(90 47.563 139.125)"/>
  <circle stroke="var(--fl-fgColor, #E8451C)" cx="47.501" cy="9.5" r="8.684" stroke-width="1.632" transform="rotate(90 47.5 9.5)"/>
  <circle stroke="var(--fl-fgColor, #C5C818)" cx="89" cy="1177.62" r="8.684" stroke-width="1.632" transform="rotate(90 89 1177.62)"/>
  <circle stroke="var(--fl-fgColor, #7BD383)" cx="89.001" cy="1577.76" r="8.684" stroke-width="1.632" transform="rotate(90 89.001 1577.76)"/>
  <path stroke="var(--fl-fgColor, url(#3-d-mobile))" stroke-width="1.632" d="M89.001 1376.25v192.25"/>
  <path stroke="var(--fl-fgColor, url(#3-e-mobile))" stroke-width="1.632" d="M89.001 1187v171"/>
  <path stroke="var(--fl-fgColor, url(#3-f-mobile))" stroke-width="1.632" d="M89.001 1104.5v64"/>
  <circle stroke="var(--fl-fgColor, #99C818)" cx="89.001" cy="1367.01" r="8.684" stroke-width="1.632" transform="rotate(90 89.001 1367.01)"/>
  <defs>
    <linearGradient id="3-a-mobile" x1="45.746" x2="45.746" y1="40.26" y2="224.127" gradientUnits="userSpaceOnUse">
      <stop stop-color="#CB3335"/>
      <stop offset="1" stop-color="#E8A41C"/>
    </linearGradient>
    <linearGradient id="3-b-mobile" x1="48.497" x2="81.483" y1="404.937" y2="465.431" gradientUnits="userSpaceOnUse">
      <stop stop-color="#E8A41C"/>
      <stop offset="1" stop-color="#C5C818"/>
    </linearGradient>
    <linearGradient id="3-c-mobile" x1="47.653" x2="41.166" y1="420.645" y2="449.397" gradientUnits="userSpaceOnUse">
      <stop stop-color="#E8A41C"/>
      <stop offset="1" stop-color="#CB3335"/>
    </linearGradient>
    <linearGradient id="3-d-mobile" x1="88.097" x2="88.097" y1="1156.48" y2="1337.86" gradientUnits="userSpaceOnUse">
      <stop stop-color="#99C818"/>
      <stop offset="1" stop-color="#7BD383"/>
    </linearGradient>
    <linearGradient id="3-e-mobile" x1="306.233" x2="306.233" y1="1289.17" y2="1471.8" gradientUnits="userSpaceOnUse">
      <stop stop-color="#C5C818"/>
      <stop offset="1" stop-color="#99C818"/>
    </linearGradient>
    <linearGradient id="3-f-mobile" x1="304.251" x2="304.251" y1="1311.42" y2="1494.04" gradientUnits="userSpaceOnUse">
      <stop stop-color="#C5C818"/>
      <stop offset="1" stop-color="#99C818"/>
    </linearGradient>
  </defs>
</svg>
