<svg xmlns="http://www.w3.org/2000/svg" width="42" height="42" fill="none" viewBox="0 0 42 42">
  <circle cx="21" cy="21" r="21" fill="var(--fl-fgColor, #C38813)"/>
  <path fill="var(--fl-bgColor, #fff)" d="M19.141 24.243c0-.822.182-1.5.545-2.038.38-.537.924-1.13 1.635-1.777.521-.474.9-.868 1.137-1.184.253-.332.38-.703.38-1.114 0-.584-.238-1.042-.712-1.374-.458-.348-1.074-.521-1.848-.521-.742 0-1.405.158-1.99.474-.568.3-1.05.726-1.445 1.279l-2.867-1.682a6.655 6.655 0 0 1 2.678-2.346c1.137-.553 2.48-.829 4.027-.829 1.817 0 3.27.387 4.36 1.161 1.105.774 1.658 1.848 1.658 3.222 0 .648-.11 1.216-.332 1.706-.205.49-.466.908-.782 1.256-.3.331-.694.718-1.184 1.16-.584.522-1.01.964-1.28 1.327-.268.348-.402.774-.402 1.28H19.14Zm1.8 5.947c-.647 0-1.192-.206-1.634-.617a2.1 2.1 0 0 1-.64-1.54c0-.6.214-1.097.64-1.492.427-.41.972-.616 1.635-.616s1.208.205 1.635.616c.426.395.64.892.64 1.492s-.222 1.114-.664 1.54c-.427.411-.964.616-1.611.616Z"/>
</svg>