<svg width="80" height="113" viewBox="0 0 80 113" fill="none" xmlns="http://www.w3.org/2000/svg">
<path class="w1" d="M-9.08169e-05 95.4673C12.5423 100.847 26.0217 103.704 39.6685 103.876C53.3154 104.048 66.8624 101.531 79.5361 96.4702L40.9756 4.24053e-05L-9.08169e-05 95.4673Z" />
<path class="w2" d="M8.92724 73.0921C18.654 77.2106 29.1074 79.3982 39.6907 79.5299C50.2739 79.6617 60.7798 77.735 70.6084 73.86L40.7043 3.55327e-05L8.92724 73.0921Z" />
<path class="w3" d="M19.4779 48.4795C25.8771 51.2111 32.7543 52.6621 39.717 52.7495C46.6797 52.8368 53.5914 51.559 60.0576 48.9888L40.3839 4.78711e-05L19.4779 48.4795Z" />
<path class="w6" d="M39.873 112.707C40.2635 113.098 40.8967 113.098 41.2872 112.707L47.6511 106.343C48.0417 105.953 48.0417 105.319 47.6511 104.929C47.2606 104.538 46.6275 104.538 46.2369 104.929L40.5801 110.586L34.9232 104.929C34.5327 104.538 33.8995 104.538 33.509 104.929C33.1185 105.319 33.1185 105.953 33.509 106.343L39.873 112.707ZM40.5801 112L41.5801 112L41.5801 26.7826L40.5801 26.7826L39.5801 26.7826L39.5801 112L40.5801 112Z" />
</svg>
