<svg xmlns="http://www.w3.org/2000/svg" width="297" height="229" fill="none" viewBox="0 0 297 229">
    <g opacity=".5">
      <circle cx="144.354" cy="107.67" r="95.123" fill="var(--fl-bgColor, #9E9E9C)" stroke="var(--fl-fgColor, transparent)" stroke-dasharray="1.41 1.41" stroke-width=".707"/>
      <circle cx="144.477" cy="107.789" r="72.387" fill="var(--fl-bgColor, #D8D8D8)" stroke="var(--fl-fgColor, transparent)" stroke-dasharray="1.41 1.41" stroke-width=".707"/>
      <circle cx="144.476" cy="107.787" r="44.996" fill="var(--fl-bgColor, #FCFCFC)" stroke="var(--fl-fgColor, #000)" stroke-dasharray="1.41 1.41" stroke-width=".707"/>
    </g>
    <path stroke="var(--fl-fgColor, #555)" stroke-dasharray="1.41 1.41" stroke-width=".707" d="M239.477 108.365H49.938M144.353 202.078V12.539M76.999 174.543 211.203 40.338M77.744 40.582l133.713 133.713"/>
    <path fill="var(--fl-bgColor, #E8B91C)" fill-opacity=".53" stroke="var(--fl-fgColor, #95760E)" stroke-width="1.414" d="m104.655 90.494-.113.093-.067.129-21.138 40.597-3.65-46.91 45.577-10.713-20.609 16.804ZM126.821 145.758l.082.022.084.003 32.372 1.04-42.376 22.541-31.654-35.11 41.492 11.504Zm54.662-53.066-.036-.108-13.437-40.666-.258-.782-.734.374-33.098 16.86 42.934-40.527 27.968 54.905v50.682l-40.735 11.46 17.226-20.153.17-.198V92.692Z"/>
    <path fill="var(--fl-bgColor, #7BD383)" fill-opacity=".51" stroke="var(--fl-fgColor, #2A842D)" stroke-width="1.414" d="M181.484 92.043v33.028l-19.682 21.83-35.667-1.397-44.043-12.122 22.86-43.295 22.349-18.075 40.44-20.98 13.743 41.011Z"/>
    <circle cx="83.885" cy="132.767" r="4.243" fill="var(--fl-fgColor, #2A842D)"/>
    <circle cx="105.102" cy="90.333" r="4.243" fill="var(--fl-fgColor, #2A842D)"/>
    <circle cx="129.856" cy="71.24" r="4.243" fill="var(--fl-fgColor, #2A842D)"/>
    <circle cx="169.107" cy="49.671" r="3.89" fill="var(--fl-fgColor, #2A842D)"/>
    <circle cx="182.191" cy="93.165" r="4.243" fill="var(--fl-fgColor, #2A842D)"/>
    <circle cx="182.191" cy="124.99" r="4.243" fill="var(--fl-fgColor, #2A842D)"/>
    <circle cx="204.823" cy="133.474" r="3.536" fill="#F6D872" stroke="var(--fl-fgColor, #95760E)" stroke-width="1.414"/>
    <circle cx="204.823" cy="82.556" r="3.536" fill="#F6D872" stroke="var(--fl-fgColor, #95760E)" stroke-width="1.414"/>
    <circle cx="177.24" cy="27.392" r="3.536" fill="#F6D872" stroke="var(--fl-fgColor, #95760E)" stroke-width="1.414"/>
    <circle cx="80.348" cy="84.673" r="3.536" fill="#F6D872" stroke="var(--fl-fgColor, #95760E)" stroke-width="1.414"/>
    <circle cx="116.418" cy="169.544" r="3.536" fill="#F6D872" stroke="var(--fl-fgColor, #95760E)" stroke-width="1.414"/>
    <circle cx="162.388" cy="146.208" r="4.243" fill="var(--fl-fgColor, #2A842D)"/>
    <circle cx="126.319" cy="144.79" r="4.243" fill="var(--fl-fgColor, #2A842D)"/>
    <path fill="var(--fl-fgColor, #000)" d="M44.413 6.102V.939h.761v5.163h-.761Zm1.908 0V3.297c0-.142-.008-.286-.022-.432-.01-.152-.022-.303-.037-.454h.718l.066.776h-.088a1.3 1.3 0 0 1 .468-.622c.215-.147.471-.22.77-.22.302 0 .548.073.739.22.195.141.33.36.403.659h-.118c.098-.269.264-.481.498-.637a1.4 1.4 0 0 1 .813-.242c.41 0 .718.12.923.359.205.239.307.61.307 1.113v2.285h-.74V3.853c0-.322-.055-.554-.168-.695-.107-.147-.283-.22-.527-.22-.283 0-.508.098-.673.293-.166.195-.25.459-.25.79v2.08h-.74V3.854c0-.322-.055-.554-.167-.695-.108-.147-.284-.22-.528-.22-.283 0-.505.098-.666.293-.161.195-.242.459-.242.79v2.08h-.74Zm6.5 0V3.297c0-.142-.007-.286-.022-.432-.01-.152-.022-.303-.036-.454h.717l.066.776h-.088a1.3 1.3 0 0 1 .469-.622c.215-.147.471-.22.769-.22.302 0 .549.073.74.22.195.141.329.36.402.659h-.117c.098-.269.264-.481.498-.637a1.4 1.4 0 0 1 .813-.242c.41 0 .717.12.923.359.205.239.307.61.307 1.113v2.285h-.74V3.853c0-.322-.056-.554-.168-.695-.107-.147-.283-.22-.527-.22-.283 0-.508.098-.674.293-.166.195-.249.459-.249.79v2.08h-.74V3.854c0-.322-.056-.554-.168-.695-.107-.147-.283-.22-.527-.22-.283 0-.505.098-.667.293-.16.195-.241.459-.241.79v2.08h-.74Zm6.5 0V2.41h.74V6.1h-.74Zm-.058-4.46V.873h.857v.769h-.857Zm3.544 6.1c-.332 0-.634-.04-.907-.117a2.325 2.325 0 0 1-.725-.352l.183-.542c.15.103.3.183.446.242.147.063.3.11.462.14.16.028.327.043.498.043.351 0 .615-.09.79-.27.181-.177.271-.433.271-.77v-.988h.074c-.078.273-.24.49-.484.651-.239.157-.517.235-.834.235-.337 0-.63-.074-.88-.22a1.542 1.542 0 0 1-.57-.637 2.271 2.271 0 0 1-.198-.981c0-.376.066-.7.197-.974.137-.274.328-.484.572-.63.249-.151.542-.227.879-.227.322 0 .6.08.834.242.24.156.398.37.476.644l-.066-.059.066-.761h.718a7.185 7.185 0 0 0-.059.886v2.731c0 .557-.148.982-.446 1.275-.293.292-.725.439-1.297.439Zm-.05-2.307c.321 0 .578-.11.768-.33.195-.219.293-.53.293-.93s-.098-.707-.293-.922c-.19-.215-.447-.322-.769-.322-.332 0-.595.107-.79.322-.191.215-.286.522-.286.923 0 .4.095.71.285.93.196.22.46.33.791.33Zm2.857.667V3.326c0-.151-.005-.303-.014-.454a7.132 7.132 0 0 0-.03-.461h.718l.08.952h-.117c.05-.23.132-.42.25-.571.117-.152.258-.264.424-.337a1.344 1.344 0 0 1 .733-.095.931.931 0 0 1 .16.029l-.007.659a.74.74 0 0 0-.22-.059 1.37 1.37 0 0 0-.22-.014.991.991 0 0 0-.548.146.896.896 0 0 0-.344.38 1.176 1.176 0 0 0-.118.52v2.08h-.747Zm4.153.065c-.327 0-.613-.075-.857-.227a1.515 1.515 0 0 1-.57-.659c-.133-.288-.199-.63-.199-1.025 0-.4.066-.742.198-1.025.137-.283.327-.5.571-.652.244-.156.53-.234.857-.234.322 0 .603.08.842.242.24.16.398.38.476.659h-.08l.073-.835h.718l-.045.454c-.01.146-.014.29-.014.432v2.805h-.74v-.82h.08c-.077.273-.238.49-.483.651-.239.156-.514.234-.827.234Zm.183-.578a.948.948 0 0 0 .762-.337c.195-.224.293-.556.293-.996 0-.44-.098-.769-.293-.988a.948.948 0 0 0-.762-.337c-.322 0-.58.112-.776.337-.19.22-.286.549-.286.988 0 .44.096.772.286.996.19.225.449.337.776.337Zm4.301.578c-.4 0-.703-.107-.908-.322-.205-.22-.307-.547-.307-.981V2.982h-.718v-.571h.718v-.974l.74-.198v1.172H74.8v.571h-1.026v1.816c0 .273.05.469.147.586.097.117.24.176.425.176.092 0 .173-.008.241-.022.074-.02.14-.042.198-.066v.6c-.073.03-.159.052-.256.066-.098.02-.19.03-.279.03Zm1.225-.065V2.41h.74V6.1h-.74Zm-.058-4.46V.873h.857v.769h-.857Zm3.464 4.525c-.366 0-.684-.075-.952-.227a1.59 1.59 0 0 1-.623-.659c-.146-.288-.22-.63-.22-1.025 0-.395.074-.735.22-1.018.147-.288.354-.507.623-.659a1.86 1.86 0 0 1 .952-.234c.366 0 .683.078.952.234.273.152.483.371.63.66.15.282.227.622.227 1.017 0 .396-.076.737-.228 1.025a1.577 1.577 0 0 1-.63.66 1.908 1.908 0 0 1-.951.226Zm0-.578c.322 0 .578-.112.769-.337.19-.224.285-.556.285-.996 0-.44-.095-.769-.285-.988-.19-.225-.447-.337-.77-.337a.948.948 0 0 0-.76.337c-.191.22-.286.549-.286.988 0 .44.092.772.278.996.19.225.447.337.769.337Zm2.673.513V3.297c0-.142-.007-.286-.022-.432-.01-.152-.022-.303-.037-.454h.718l.066.776h-.088c.112-.273.286-.48.52-.622.234-.147.505-.22.813-.22.434 0 .761.12.981.359.225.239.337.61.337 1.113v2.285h-.74V3.86c0-.327-.066-.562-.197-.703-.127-.147-.323-.22-.586-.22-.313 0-.562.098-.747.293-.186.19-.278.45-.278.776v2.095h-.74Zm7.56.065c-.308 0-.59-.039-.85-.117a1.823 1.823 0 0 1-.644-.33l.227-.505c.18.137.38.24.6.308.22.068.445.103.674.103.269 0 .471-.047.608-.14a.462.462 0 0 0 .205-.395.392.392 0 0 0-.132-.308c-.083-.078-.222-.136-.417-.175l-.703-.14c-.313-.068-.55-.185-.71-.351a.877.877 0 0 1-.242-.637c0-.22.059-.415.176-.586.122-.17.293-.305.512-.403.225-.097.486-.146.784-.146.273 0 .527.039.761.117.235.078.43.19.586.337l-.234.49a1.668 1.668 0 0 0-.513-.292 1.6 1.6 0 0 0-.578-.11c-.273 0-.476.051-.608.154a.486.486 0 0 0-.198.402c0 .127.04.232.118.315.082.078.212.14.388.183l.703.14c.332.068.58.18.746.336.166.157.25.366.25.63 0 .23-.064.43-.19.6-.128.171-.303.3-.528.389a2.165 2.165 0 0 1-.791.131Zm3.78 0c-.4 0-.703-.107-.908-.322-.205-.22-.308-.547-.308-.981V2.982h-.717v-.571h.717v-.974l.74-.198v1.172h1.025v.571H92.42v1.816c0 .273.049.469.146.586.098.117.24.176.425.176.093 0 .173-.008.242-.022.073-.02.139-.042.197-.066v.6c-.073.03-.158.052-.256.066-.097.02-.19.03-.278.03Zm2.638 0c-.327 0-.612-.075-.857-.227a1.516 1.516 0 0 1-.57-.659c-.133-.288-.198-.63-.198-1.025 0-.4.065-.742.197-1.025.137-.283.327-.5.571-.652.245-.156.53-.234.857-.234.322 0 .603.08.842.242.24.16.398.38.476.659h-.08l.073-.835h.718l-.044.454c-.01.146-.015.29-.015.432v2.805h-.74v-.82h.081c-.078.273-.24.49-.483.651-.24.156-.515.234-.828.234Zm.183-.578a.948.948 0 0 0 .762-.337c.195-.224.293-.556.293-.996 0-.44-.098-.769-.293-.988a.948.948 0 0 0-.762-.337c-.322 0-.58.112-.776.337-.19.22-.286.549-.286.988 0 .44.096.772.286.996.19.225.45.337.776.337Zm4.302.578c-.4 0-.704-.107-.909-.322-.205-.22-.307-.547-.307-.981V2.982h-.718v-.571h.718v-.974l.74-.198v1.172h1.025v.571h-1.025v1.816c0 .273.048.469.146.586.098.117.24.176.425.176.092 0 .173-.008.241-.022.074-.02.14-.042.198-.066v.6c-.073.03-.159.052-.256.066-.098.02-.191.03-.278.03Zm2.535 0c-.444 0-.778-.12-1.003-.358-.22-.244-.329-.618-.329-1.12V2.41h.739v2.263c0 .307.064.534.191.68.126.147.319.22.578.22.293 0 .53-.097.71-.293.181-.195.271-.454.271-.776V2.411h.74V6.1h-.718v-.79h.096a1.297 1.297 0 0 1-.491.637c-.225.146-.486.22-.784.22Zm4.247 0c-.307 0-.591-.039-.849-.117a1.825 1.825 0 0 1-.645-.33l.227-.505c.181.137.381.24.601.308.219.068.444.103.673.103.269 0 .472-.047.608-.14a.46.46 0 0 0 .205-.395.394.394 0 0 0-.131-.308c-.083-.078-.223-.136-.418-.175l-.703-.14c-.312-.068-.549-.185-.71-.351a.878.878 0 0 1-.242-.637c0-.22.059-.415.176-.586.122-.17.293-.305.512-.403.225-.097.486-.146.784-.146.273 0 .527.039.762.117.234.078.429.19.585.337l-.234.49a1.665 1.665 0 0 0-.512-.292 1.606 1.606 0 0 0-.579-.11c-.273 0-.476.051-.608.154a.486.486 0 0 0-.198.402c0 .127.04.232.118.315.083.078.212.14.388.183l.703.14c.332.068.581.18.747.336.166.157.249.366.249.63a.98.98 0 0 1-.191.6c-.127.171-.302.3-.527.389a2.166 2.166 0 0 1-.791.131ZM1.131 64.8v-5.162h.762v4.511h2.534v.652H1.13Zm5.388.067c-.327 0-.612-.076-.856-.227a1.517 1.517 0 0 1-.572-.66c-.131-.287-.197-.63-.197-1.025 0-.4.066-.742.197-1.025.137-.283.327-.5.572-.651.244-.157.53-.235.856-.235.323 0 .603.08.842.242.24.16.398.38.476.659h-.08l.073-.835h.718l-.044.454a6.5 6.5 0 0 0-.015.432v2.805h-.74v-.82h.081c-.078.273-.239.49-.483.651a1.48 1.48 0 0 1-.828.235Zm.183-.579a.948.948 0 0 0 .762-.337c.195-.224.293-.556.293-.996 0-.439-.098-.768-.293-.988a.948.948 0 0 0-.762-.337c-.322 0-.58.112-.776.337-.19.22-.285.549-.285.988 0 .44.095.772.285.996.19.225.45.337.776.337Zm2.866.513v-2.805a4.34 4.34 0 0 0-.022-.432 14.24 14.24 0 0 0-.036-.454h.717l.066.776h-.087c.112-.273.285-.48.52-.622a1.5 1.5 0 0 1 .812-.22c.435 0 .762.12.982.359.224.24.336.61.336 1.113v2.285h-.74V62.56c0-.327-.065-.562-.197-.703-.127-.146-.322-.22-.586-.22-.312 0-.561.098-.747.293-.185.19-.278.45-.278.776v2.095h-.74Zm6.004 1.64a3.3 3.3 0 0 1-.908-.117 2.328 2.328 0 0 1-.725-.352l.183-.541c.151.102.3.183.446.241.147.064.3.11.462.14.16.029.327.043.498.043.351 0 .615-.09.79-.27.181-.176.271-.433.271-.77v-.988h.074c-.078.273-.24.49-.484.652-.239.156-.517.234-.834.234-.337 0-.63-.073-.88-.22a1.541 1.541 0 0 1-.57-.637 2.27 2.27 0 0 1-.198-.981c0-.376.066-.7.198-.974.136-.274.327-.483.57-.63a1.66 1.66 0 0 1 .88-.227c.322 0 .6.08.834.242.24.156.398.37.476.644l-.066-.058.066-.762h.718a7.192 7.192 0 0 0-.059.886v2.732c0 .556-.148.98-.446 1.274-.293.293-.725.44-1.296.44Zm-.052-2.307c.322 0 .579-.11.77-.33.195-.219.292-.529.292-.93 0-.4-.098-.707-.293-.922-.19-.215-.447-.322-.769-.322-.332 0-.595.107-.79.322-.19.215-.286.523-.286.923s.095.71.285.93c.196.22.46.33.791.33Zm4.184.733c-.444 0-.779-.12-1.003-.36-.22-.243-.33-.617-.33-1.12V61.11h.74v2.263c0 .307.063.534.19.68.127.147.32.22.579.22.293 0 .53-.097.71-.292.18-.196.271-.454.271-.777V61.11h.74v3.69h-.718v-.79h.095a1.29 1.29 0 0 1-.49.637c-.225.146-.486.22-.784.22Zm4.393 0c-.327 0-.612-.076-.857-.227a1.517 1.517 0 0 1-.57-.66c-.133-.287-.198-.63-.198-1.025 0-.4.066-.742.197-1.025.137-.283.327-.5.572-.651.244-.157.53-.235.856-.235.322 0 .603.08.842.242.24.16.398.38.476.659h-.08l.073-.835h.718l-.044.454c-.01.147-.015.29-.015.432v2.805h-.74v-.82h.081c-.078.273-.24.49-.483.651a1.48 1.48 0 0 1-.828.235Zm.183-.579a.948.948 0 0 0 .762-.337c.195-.224.293-.556.293-.996 0-.439-.098-.768-.293-.988a.948.948 0 0 0-.762-.337c-.322 0-.58.112-.776.337-.19.22-.286.549-.286.988 0 .44.096.772.286.996.19.225.45.337.776.337Zm4.529 2.153a3.3 3.3 0 0 1-.908-.117 2.329 2.329 0 0 1-.725-.352l.183-.541c.151.102.3.183.446.241.147.064.3.11.462.14.16.029.327.043.498.043.351 0 .615-.09.79-.27.181-.176.271-.433.271-.77v-.988h.074c-.078.273-.24.49-.484.652-.239.156-.517.234-.834.234-.337 0-.63-.073-.88-.22a1.541 1.541 0 0 1-.57-.637 2.27 2.27 0 0 1-.198-.981c0-.376.066-.7.198-.974.136-.274.327-.483.57-.63.25-.151.543-.227.88-.227.322 0 .6.08.834.242.24.156.398.37.476.644l-.066-.058.066-.762h.718a7.119 7.119 0 0 0-.058.886v2.732c0 .556-.15.98-.447 1.274-.293.293-.725.44-1.296.44Zm-.052-2.307c.323 0 .579-.11.77-.33.195-.219.292-.529.292-.93 0-.4-.097-.707-.293-.922-.19-.215-.446-.322-.769-.322-.332 0-.595.107-.79.322-.19.215-.286.523-.286.923s.095.71.285.93c.196.22.46.33.791.33Zm4.58.733c-.596 0-1.065-.169-1.407-.506-.341-.336-.512-.803-.512-1.398 0-.386.073-.723.22-1.01.15-.289.358-.511.622-.667.269-.161.579-.242.93-.242.347 0 .637.073.871.22.235.146.413.354.535.622.122.264.183.576.183.938v.234h-2.783v-.425h2.278l-.125.095c0-.366-.083-.649-.249-.85-.16-.204-.395-.307-.703-.307-.341 0-.605.12-.79.36-.186.233-.279.558-.279.973v.073c0 .435.105.762.315.982.215.22.518.33.908.33.215 0 .415-.03.6-.089.191-.063.372-.166.542-.307l.242.505c-.17.151-.378.269-.622.352a2.533 2.533 0 0 1-.777.117ZM2.127 145.976c-.415 0-.791-.051-1.128-.154a2.751 2.751 0 0 1-.879-.454l.256-.6c.166.127.337.232.513.315.18.083.371.146.571.19.205.039.427.059.667.059.41 0 .71-.074.9-.22a.69.69 0 0 0 .293-.579c0-.205-.068-.363-.205-.476-.132-.112-.366-.202-.703-.27l-.798-.162c-.474-.097-.828-.256-1.062-.476-.23-.224-.344-.529-.344-.915 0-.312.083-.586.249-.82.166-.234.395-.415.688-.542.298-.127.645-.19 1.04-.19.366 0 .703.053 1.01.161.308.102.567.256.777.461l-.249.579a2.172 2.172 0 0 0-.703-.418 2.416 2.416 0 0 0-.85-.139c-.375 0-.67.078-.886.234a.754.754 0 0 0-.314.637c0 .215.065.384.197.506.137.122.362.215.674.278l.798.154c.493.102.857.261 1.091.476.235.21.352.5.352.871 0 .298-.08.559-.242.784-.156.224-.38.4-.674.527-.292.122-.64.183-1.04.183Zm4.238 0c-.327 0-.613-.076-.857-.227a1.514 1.514 0 0 1-.57-.659c-.133-.288-.199-.63-.199-1.025 0-.401.066-.742.198-1.025.137-.284.327-.501.571-.652.244-.156.53-.235.857-.235.322 0 .603.081.842.242.24.161.398.381.476.659h-.08l.073-.835h.718l-.044.454c-.01.147-.015.291-.015.432v2.805h-.74v-.82h.081c-.078.273-.24.491-.483.652a1.48 1.48 0 0 1-.828.234Zm.183-.578a.95.95 0 0 0 .762-.337c.195-.225.293-.557.293-.996 0-.44-.098-.769-.293-.989a.95.95 0 0 0-.762-.337.98.98 0 0 0-.776.337c-.19.22-.286.549-.286.989 0 .439.096.771.286.996.19.224.45.337.776.337Zm3.914.512-1.581-3.691h.79l1.245 3.083h-.212l1.267-3.083h.754l-1.589 3.691h-.674Zm2.85 0v-3.691h.74v3.691h-.74Zm-.059-4.46v-.768h.857v.768h-.857Zm1.882 4.46v-2.805a4.34 4.34 0 0 0-.022-.432c-.01-.151-.022-.302-.036-.454h.717l.066.777h-.088c.113-.274.286-.481.52-.623.235-.146.506-.22.813-.22.435 0 .762.12.981.359.225.24.337.611.337 1.113v2.285h-.74v-2.241c0-.327-.065-.561-.197-.703-.127-.146-.322-.219-.586-.219-.312 0-.561.097-.747.293-.185.19-.278.449-.278.776v2.094h-.74Zm6.003 1.64c-.332 0-.634-.039-.908-.117a2.328 2.328 0 0 1-.725-.351l.184-.542a2.425 2.425 0 0 0 1.405.425c.352 0 .616-.091.791-.271.181-.176.271-.432.271-.769v-.989h.074c-.079.274-.24.491-.484.652-.239.156-.517.234-.835.234-.336 0-.63-.073-.878-.219a1.544 1.544 0 0 1-.572-.638 2.269 2.269 0 0 1-.197-.981c0-.376.066-.7.198-.974a1.49 1.49 0 0 1 .57-.629c.25-.152.543-.228.88-.228.322 0 .6.081.834.242.24.156.398.371.476.645l-.066-.059.066-.762h.718a7.183 7.183 0 0 0-.059.886v2.732c0 .556-.149.981-.446 1.274-.293.293-.725.439-1.297.439Zm-.05-2.306c.321 0 .578-.11.768-.33.195-.219.293-.529.293-.93 0-.4-.098-.708-.293-.922-.19-.215-.447-.323-.769-.323-.332 0-.595.108-.79.323-.191.214-.286.522-.286.922 0 .401.095.711.285.93.196.22.46.33.791.33Zm4.139.732c-.308 0-.59-.039-.85-.117a1.815 1.815 0 0 1-.644-.33l.227-.505c.18.137.38.239.6.308.22.068.445.102.674.102.269 0 .471-.046.608-.139a.461.461 0 0 0 .205-.395.392.392 0 0 0-.132-.308c-.083-.078-.222-.137-.417-.176l-.703-.139c-.313-.068-.55-.185-.71-.351a.878.878 0 0 1-.242-.637c0-.22.058-.415.176-.586.122-.171.293-.305.512-.403.225-.098.486-.147.784-.147.273 0 .527.04.761.118.235.078.43.19.586.337l-.234.49a1.679 1.679 0 0 0-.513-.293 1.605 1.605 0 0 0-.578-.11c-.274 0-.476.052-.608.154a.487.487 0 0 0-.198.403c0 .127.04.232.117.315.083.078.213.139.389.183l.703.139c.331.068.58.181.746.337.166.156.25.366.25.63a.98.98 0 0 1-.191.6c-.127.171-.303.3-.527.388a2.161 2.161 0 0 1-.791.132Zm5.746 0c-.327 0-.613-.076-.857-.227a1.514 1.514 0 0 1-.571-.659c-.132-.288-.198-.63-.198-1.025 0-.401.066-.742.198-1.025.136-.284.327-.501.571-.652.244-.156.53-.235.857-.235.322 0 .603.081.842.242.24.161.398.381.476.659h-.08l.073-.835H33l-.044.454c-.01.147-.014.291-.014.432v2.805h-.74v-.82h.08c-.078.273-.239.491-.483.652a1.48 1.48 0 0 1-.827.234Zm.183-.578a.95.95 0 0 0 .761-.337c.196-.225.293-.557.293-.996 0-.44-.097-.769-.293-.989a.95.95 0 0 0-.761-.337.98.98 0 0 0-.776.337c-.19.22-.286.549-.286.989 0 .439.095.771.286.996.19.224.449.337.776.337Zm2.866.512v-2.805a4.37 4.37 0 0 0-.022-.432c-.01-.151-.022-.302-.037-.454h.718l.066.777h-.088c.112-.274.286-.481.52-.623.234-.146.505-.22.813-.22.434 0 .761.12.981.359.225.24.337.611.337 1.113v2.285h-.74v-2.241c0-.327-.066-.561-.197-.703-.127-.146-.323-.219-.586-.219-.313 0-.562.097-.747.293-.186.19-.279.449-.279.776v2.094h-.74Zm5.754.066a1.62 1.62 0 0 1-.857-.227 1.514 1.514 0 0 1-.57-.659c-.133-.288-.199-.63-.199-1.025 0-.401.066-.742.198-1.025.137-.284.327-.501.571-.652a1.58 1.58 0 0 1 .857-.235c.317 0 .596.081.835.242.244.156.405.371.483.645h-.088v-2.52h.74v5.39h-.732v-.835h.087a1.174 1.174 0 0 1-.483.659c-.239.162-.52.242-.842.242Zm.183-.578a.972.972 0 0 0 .769-.337c.195-.225.293-.557.293-.996 0-.44-.098-.769-.293-.989a.972.972 0 0 0-.769-.337.98.98 0 0 0-.776.337c-.19.22-.286.549-.286.989 0 .439.096.771.286.996a.98.98 0 0 0 .776.337Zm-35.591 9.578c-.445 0-.78-.12-1.004-.359-.22-.244-.33-.617-.33-1.12v-2.278h.74v2.263c0 .308.064.535.19.681.128.147.32.22.58.22.292 0 .529-.098.71-.293.18-.195.27-.454.27-.776v-2.095h.74v3.691h-.717v-.791h.095a1.286 1.286 0 0 1-.49.637c-.225.147-.487.22-.784.22Zm2.98-.066v-2.805c0-.141-.008-.285-.022-.432-.01-.151-.022-.302-.037-.454h.718l.066.777h-.088c.112-.274.285-.481.52-.623.234-.146.505-.22.812-.22.435 0 .762.12.982.359.224.24.337.611.337 1.113v2.285h-.74v-2.241c0-.327-.066-.561-.198-.703-.127-.146-.322-.219-.586-.219-.312 0-.561.097-.747.293-.185.19-.278.449-.278.776v2.094h-.74Zm6.047.066c-.596 0-1.065-.168-1.406-.505-.342-.337-.513-.803-.513-1.399 0-.386.073-.722.22-1.01.151-.288.359-.511.622-.667.269-.161.579-.242.93-.242.347 0 .637.074.872.22.234.147.412.354.534.623.122.263.183.576.183.937v.234h-2.782v-.424h2.277l-.125.095c0-.366-.083-.65-.248-.85-.162-.205-.396-.307-.704-.307-.341 0-.605.119-.79.359-.186.234-.279.559-.279.974v.073c0 .434.105.761.315.981.215.22.518.33.908.33.215 0 .415-.03.6-.088.191-.064.372-.166.543-.308l.241.505a1.79 1.79 0 0 1-.622.352 2.535 2.535 0 0 1-.776.117Zm1.735-.066 1.677-2.08v.352l-1.589-1.963h.886l1.12 1.443h-.263l1.12-1.443h.879l-1.574 1.956v-.337l1.67 2.072h-.887l-1.208-1.545h.263l-1.215 1.545h-.879Zm4.49 1.582v-4.387a4.37 4.37 0 0 0-.023-.432c-.01-.151-.022-.302-.036-.454h.717l.074.835h-.081c.078-.278.234-.498.469-.659.239-.161.522-.242.849-.242.327 0 .613.079.857.235.244.151.432.368.564.652.136.283.205.624.205 1.025 0 .395-.069.737-.205 1.025a1.47 1.47 0 0 1-.564.659c-.244.151-.53.227-.857.227-.322 0-.603-.078-.842-.234a1.154 1.154 0 0 1-.469-.652h.08v2.402h-.739Zm1.786-2.094c.322 0 .579-.113.769-.337.195-.225.293-.557.293-.996 0-.44-.098-.769-.293-.989-.19-.224-.447-.337-.769-.337a.98.98 0 0 0-.776.337c-.19.22-.286.549-.286.989 0 .439.095.771.286.996a.98.98 0 0 0 .776.337Zm4.382.578c-.596 0-1.064-.168-1.406-.505-.342-.337-.513-.803-.513-1.399 0-.386.073-.722.22-1.01.151-.288.359-.511.622-.667.269-.161.579-.242.93-.242.347 0 .637.074.872.22.234.147.412.354.534.623.122.263.183.576.183.937v.234h-2.782v-.424h2.277l-.124.095c0-.366-.083-.65-.25-.85-.16-.205-.395-.307-.702-.307-.342 0-.606.119-.791.359-.186.234-.279.559-.279.974v.073c0 .434.105.761.315.981.215.22.518.33.909.33.214 0 .414-.03.6-.088.19-.064.371-.166.542-.308l.241.505a1.79 1.79 0 0 1-.622.352 2.535 2.535 0 0 1-.776.117Zm3.91 0a2.01 2.01 0 0 1-.974-.227 1.611 1.611 0 0 1-.637-.666c-.147-.293-.22-.64-.22-1.04 0-.396.075-.735.227-1.018.151-.283.363-.498.637-.644.273-.152.595-.228.966-.228.24 0 .472.042.696.125.225.078.41.19.557.337l-.242.52a1.315 1.315 0 0 0-.461-.293 1.344 1.344 0 0 0-.498-.103c-.352 0-.628.113-.828.337-.2.225-.3.549-.3.974 0 .43.1.759.3.989.2.229.476.344.828.344a1.35 1.35 0 0 0 .96-.388l.24.52a1.587 1.587 0 0 1-.57.344 2.062 2.062 0 0 1-.681.117Zm3.478 0c-.4 0-.703-.107-.908-.322-.205-.22-.308-.547-.308-.981v-1.882h-.717v-.572h.717v-.974l.74-.197v1.171h1.025v.572H32.7v1.816c0 .273.049.468.146.586.098.117.24.175.425.175.093 0 .173-.007.242-.022.073-.019.139-.041.198-.066v.601a1.19 1.19 0 0 1-.257.066c-.098.019-.19.029-.278.029Zm2.895 0c-.595 0-1.064-.168-1.406-.505-.341-.337-.512-.803-.512-1.399 0-.386.073-.722.22-1.01.15-.288.358-.511.622-.667.268-.161.578-.242.93-.242.347 0 .637.074.871.22.235.147.413.354.535.623.122.263.183.576.183.937v.234h-2.783v-.424h2.278l-.125.095c0-.366-.083-.65-.249-.85-.16-.205-.395-.307-.703-.307-.342 0-.605.119-.79.359-.186.234-.279.559-.279.974v.073c0 .434.105.761.315.981.215.22.518.33.908.33.215 0 .415-.03.6-.088.19-.064.371-.166.542-.308l.242.505a1.79 1.79 0 0 1-.622.352 2.535 2.535 0 0 1-.777.117Zm3.705 0a1.62 1.62 0 0 1-.857-.227 1.514 1.514 0 0 1-.57-.659c-.133-.288-.199-.63-.199-1.025 0-.401.066-.742.198-1.025.137-.284.327-.501.571-.652a1.58 1.58 0 0 1 .857-.235c.317 0 .596.081.835.242.244.156.405.371.483.645h-.088v-2.52h.74v5.39h-.732v-.835h.087a1.174 1.174 0 0 1-.483.659c-.239.162-.52.242-.842.242Zm.183-.578a.972.972 0 0 0 .769-.337c.195-.225.293-.557.293-.996 0-.44-.098-.769-.293-.989a.972.972 0 0 0-.769-.337.98.98 0 0 0-.776.337c-.19.22-.286.549-.286.989 0 .439.096.771.286.996a.98.98 0 0 0 .776.337Zm-17.89 9.578c-.595 0-1.064-.168-1.406-.505-.342-.337-.512-.803-.512-1.399a2.2 2.2 0 0 1 .22-1.01c.15-.288.358-.511.622-.667.268-.161.578-.242.93-.242.346 0 .637.074.871.22.234.147.413.354.535.623.122.263.183.576.183.937v.234h-2.783v-.424h2.277l-.124.095c0-.366-.083-.65-.249-.85-.161-.205-.395-.307-.703-.307-.342 0-.605.119-.79.359-.186.234-.28.559-.28.974v.073c0 .434.106.761.316.981.215.22.517.33.908.33.215 0 .415-.03.6-.088.19-.064.371-.166.542-.308l.242.505a1.79 1.79 0 0 1-.623.352 2.536 2.536 0 0 1-.776.117Zm3.325-.066-1.581-3.691h.79l1.245 3.083h-.212l1.267-3.083h.754l-1.59 3.691h-.673Zm4.492.066c-.596 0-1.065-.168-1.406-.505-.342-.337-.513-.803-.513-1.399 0-.386.073-.722.22-1.01.15-.288.358-.511.622-.667.268-.161.578-.242.93-.242.347 0 .637.074.871.22.235.147.413.354.535.623.122.263.183.576.183.937v.234h-2.783v-.424h2.278l-.125.095c0-.366-.083-.65-.249-.85-.16-.205-.395-.307-.703-.307-.341 0-.605.119-.79.359-.186.234-.279.559-.279.974v.073c0 .434.105.761.315.981.215.22.518.33.908.33.215 0 .415-.03.6-.088.191-.064.372-.166.543-.308l.241.505a1.79 1.79 0 0 1-.622.352 2.535 2.535 0 0 1-.776.117Zm2.29-.066v-2.805a4.37 4.37 0 0 0-.021-.432c-.01-.151-.022-.302-.037-.454h.718l.066.777h-.088c.112-.274.285-.481.52-.623.234-.146.505-.22.813-.22.434 0 .761.12.981.359.224.24.337.611.337 1.113v2.285h-.74v-2.241c0-.327-.066-.561-.197-.703-.127-.146-.323-.219-.586-.219-.313 0-.562.097-.747.293-.186.19-.279.449-.279.776v2.094h-.74Zm5.777.066c-.4 0-.703-.107-.908-.322-.205-.22-.308-.547-.308-.981v-1.882h-.717v-.572h.717v-.974l.74-.197v1.171h1.025v.572h-1.025v1.816c0 .273.049.468.146.586.098.117.24.175.425.175.093 0 .173-.007.242-.022.073-.019.139-.041.197-.066v.601a1.187 1.187 0 0 1-.256.066 1.46 1.46 0 0 1-.278.029Zm2.492 0c-.308 0-.59-.039-.85-.117a1.815 1.815 0 0 1-.644-.33l.227-.505c.18.137.38.239.6.308.22.068.445.102.674.102.269 0 .471-.046.608-.139a.461.461 0 0 0 .205-.395.392.392 0 0 0-.132-.308c-.083-.078-.222-.137-.417-.176l-.703-.139c-.313-.068-.55-.185-.71-.351a.878.878 0 0 1-.242-.637c0-.22.058-.415.175-.586.123-.171.294-.305.513-.403.225-.098.486-.147.784-.147.273 0 .527.04.761.118.235.078.43.19.586.337l-.234.49a1.68 1.68 0 0 0-.513-.293 1.605 1.605 0 0 0-.578-.11c-.274 0-.476.052-.608.154a.487.487 0 0 0-.198.403c0 .127.04.232.117.315.083.078.213.139.388.183l.703.139c.332.068.581.181.747.337.166.156.25.366.25.63a.98.98 0 0 1-.191.6c-.127.171-.303.3-.527.388a2.162 2.162 0 0 1-.791.132ZM50.304 213.32v-5.162h3.384v.607h-2.644v1.626h2.475v.615h-2.475v1.699h2.644v.615h-3.384Zm4.261 0v-2.804a4.31 4.31 0 0 0-.022-.432c-.01-.152-.022-.303-.037-.454h.718l.066.776h-.088a1.3 1.3 0 0 1 .469-.623c.215-.146.47-.219.769-.219.302 0 .549.073.74.219.195.142.329.362.402.659h-.117a1.27 1.27 0 0 1 .498-.637 1.4 1.4 0 0 1 .813-.241c.41 0 .717.119.922.358.205.24.308.611.308 1.114v2.284h-.74v-2.248c0-.322-.056-.554-.168-.696-.108-.146-.283-.219-.527-.219-.283 0-.508.097-.674.293-.166.195-.249.459-.249.791v2.079h-.74v-2.248c0-.322-.056-.554-.168-.696-.108-.146-.283-.219-.527-.219-.284 0-.506.097-.667.293-.16.195-.241.459-.241.791v2.079h-.74Zm6.5 1.582v-4.386a4.34 4.34 0 0 0-.021-.432c-.01-.152-.022-.303-.037-.454h.718l.073.834h-.08c.077-.278.234-.498.468-.659.24-.161.522-.241.85-.241.326 0 .612.078.856.234.244.151.432.369.564.652.137.283.205.625.205 1.025 0 .395-.068.737-.205 1.025a1.47 1.47 0 0 1-.564.659c-.244.152-.53.227-.857.227-.322 0-.602-.078-.842-.234a1.15 1.15 0 0 1-.468-.652h.08v2.402h-.74Zm1.787-2.094c.323 0 .579-.113.77-.337.194-.225.292-.557.292-.996 0-.439-.098-.769-.293-.989-.19-.224-.447-.337-.769-.337a.98.98 0 0 0-.776.337c-.19.22-.285.55-.285.989 0 .439.095.771.285.996a.98.98 0 0 0 .776.337Zm2.676.512v-5.389h.74v5.389h-.74Zm3.405.066a1.9 1.9 0 0 1-.952-.227 1.59 1.59 0 0 1-.622-.659c-.147-.288-.22-.63-.22-1.025 0-.396.073-.735.22-1.018.146-.288.354-.508.622-.659.269-.156.586-.234.952-.234s.684.078.952.234c.274.151.484.371.63.659.151.283.227.622.227 1.018 0 .395-.076.737-.227 1.025a1.576 1.576 0 0 1-.63.659 1.9 1.9 0 0 1-.952.227Zm0-.578c.322 0 .579-.113.77-.337.19-.225.285-.557.285-.996 0-.439-.095-.769-.286-.989-.19-.224-.447-.337-.769-.337a.95.95 0 0 0-.761.337c-.19.22-.286.55-.286.989 0 .439.093.771.278.996.19.224.447.337.77.337Zm2.5 2.175-.176-.601c.229-.049.42-.107.57-.176.157-.068.286-.158.389-.271.102-.107.19-.246.264-.417l.183-.432-.015.3-1.604-3.756h.791l1.245 3.075h-.198l1.245-3.075h.762l-1.692 3.954a3.253 3.253 0 0 1-.344.615 1.84 1.84 0 0 1-.395.403 1.772 1.772 0 0 1-.47.241c-.17.059-.356.105-.556.14Zm4.035-1.663v-2.804a4.34 4.34 0 0 0-.022-.432c-.01-.152-.022-.303-.036-.454h.717l.066.776h-.088c.103-.269.26-.476.469-.623.215-.146.471-.219.769-.219.303 0 .55.073.74.219.195.142.33.362.402.659h-.117c.098-.268.264-.48.498-.637a1.4 1.4 0 0 1 .813-.241c.41 0 .718.119.923.358.205.24.307.611.307 1.114v2.284h-.74v-2.248c0-.322-.056-.554-.168-.696-.107-.146-.283-.219-.527-.219-.283 0-.508.097-.674.293-.166.195-.249.459-.249.791v2.079h-.74v-2.248c0-.322-.056-.554-.168-.696-.107-.146-.283-.219-.527-.219-.283 0-.505.097-.666.293-.162.195-.242.459-.242.791v2.079h-.74Zm8.207.066c-.596 0-1.064-.168-1.406-.505-.342-.337-.513-.803-.513-1.399a2.2 2.2 0 0 1 .22-1.01 1.65 1.65 0 0 1 .623-.667c.268-.161.578-.241.93-.241.346 0 .637.073.871.219.234.147.412.354.535.623.122.263.183.576.183.937v.234h-2.783v-.424h2.277l-.124.095c0-.366-.083-.649-.25-.85-.16-.205-.394-.307-.702-.307-.342 0-.606.12-.791.359-.186.234-.278.559-.278.974v.073c0 .434.105.761.315.981.214.22.517.33.908.33.215 0 .415-.03.6-.088.19-.064.371-.166.542-.308l.242.506c-.171.151-.379.268-.623.351a2.536 2.536 0 0 1-.776.117Zm2.291-.066v-2.804a4.34 4.34 0 0 0-.022-.432c-.01-.152-.022-.303-.036-.454h.717l.066.776h-.088c.113-.274.286-.481.52-.623.235-.146.506-.219.813-.219.435 0 .762.119.981.358.225.24.337.611.337 1.114v2.284h-.74v-2.241c0-.327-.065-.561-.197-.703-.127-.146-.322-.219-.586-.219-.312 0-.561.097-.747.293-.185.19-.278.449-.278.776v2.094h-.74Zm5.777.066c-.4 0-.703-.107-.908-.322-.206-.22-.308-.547-.308-.981v-1.882h-.718v-.571h.718v-.974l.74-.198v1.172h1.025v.571h-1.026v1.816c0 .273.05.468.147.586.098.117.24.175.425.175.093 0 .173-.007.241-.022a1.55 1.55 0 0 0 .198-.065v.6a1.19 1.19 0 0 1-.256.066c-.098.019-.19.029-.278.029Zm4.444 0c-.308 0-.591-.039-.85-.117a1.83 1.83 0 0 1-.644-.329l.227-.506c.18.137.38.239.6.308.22.068.445.102.674.102.269 0 .471-.046.608-.139a.46.46 0 0 0 .205-.395.392.392 0 0 0-.132-.308c-.083-.078-.222-.137-.417-.176l-.703-.139c-.313-.068-.55-.185-.71-.351a.878.878 0 0 1-.242-.637c0-.22.058-.415.175-.586.122-.171.293-.305.513-.403.225-.098.486-.146.784-.146.273 0 .527.039.761.117.234.078.43.19.586.337l-.234.49a1.679 1.679 0 0 0-.513-.293 1.604 1.604 0 0 0-.579-.109c-.273 0-.476.051-.607.153a.487.487 0 0 0-.198.403c0 .127.039.232.117.315.083.078.212.139.388.183l.703.139c.332.069.581.181.747.337.166.156.25.366.25.63a.98.98 0 0 1-.191.6 1.16 1.16 0 0 1-.527.388 2.161 2.161 0 0 1-.791.132Zm3.78 0c-.4 0-.704-.107-.909-.322-.205-.22-.307-.547-.307-.981v-1.882h-.718v-.571h.718v-.974l.74-.198v1.172h1.025v.571H99.49v1.816c0 .273.05.468.147.586.098.117.24.175.425.175.092 0 .173-.007.241-.022.074-.019.139-.041.198-.065v.6a1.192 1.192 0 0 1-.256.066 1.47 1.47 0 0 1-.279.029Zm2.638 0c-.327 0-.613-.075-.857-.227a1.517 1.517 0 0 1-.571-.659c-.132-.288-.198-.63-.198-1.025 0-.4.066-.742.198-1.025.137-.283.327-.501.571-.652.244-.156.53-.234.857-.234.322 0 .603.08.842.241.239.161.398.381.476.659h-.081l.074-.834h.717l-.044.454c-.009.146-.014.29-.014.432v2.804h-.74v-.82h.081c-.079.274-.24.491-.484.652a1.48 1.48 0 0 1-.827.234Zm.183-.578a.949.949 0 0 0 .761-.337c.196-.225.293-.557.293-.996 0-.439-.097-.769-.293-.989a.949.949 0 0 0-.761-.337.98.98 0 0 0-.776.337c-.191.22-.286.55-.286.989 0 .439.095.771.286.996.19.224.449.337.776.337Zm4.301.578c-.4 0-.703-.107-.908-.322-.205-.22-.307-.547-.307-.981v-1.882h-.718v-.571h.718v-.974l.739-.198v1.172h1.025v.571h-1.025v1.816c0 .273.049.468.147.586.097.117.239.175.424.175.093 0 .174-.007.242-.022.073-.019.139-.041.198-.065v.6a1.186 1.186 0 0 1-.257.066c-.097.019-.19.029-.278.029Zm2.536 0c-.444 0-.779-.119-1.003-.359-.22-.244-.33-.617-.33-1.12v-2.277h.74v2.262c0 .308.063.535.19.681.127.147.32.22.579.22a.923.923 0 0 0 .71-.293c.181-.195.271-.454.271-.776v-2.094h.74v3.69h-.718v-.791h.095a1.293 1.293 0 0 1-.49.638 1.407 1.407 0 0 1-.784.219Zm4.247 0c-.308 0-.591-.039-.85-.117a1.835 1.835 0 0 1-.644-.329l.227-.506c.181.137.381.239.6.308.22.068.445.102.674.102.269 0 .471-.046.608-.139a.46.46 0 0 0 .205-.395.392.392 0 0 0-.132-.308c-.083-.078-.222-.137-.417-.176l-.703-.139c-.313-.068-.549-.185-.711-.351a.878.878 0 0 1-.241-.637c0-.22.058-.415.176-.586a1.22 1.22 0 0 1 .512-.403c.225-.098.486-.146.784-.146.273 0 .527.039.761.117.235.078.43.19.586.337l-.234.49a1.682 1.682 0 0 0-.513-.293 1.6 1.6 0 0 0-.578-.109c-.274 0-.476.051-.608.153a.487.487 0 0 0-.198.403c0 .127.039.232.117.315.083.078.213.139.388.183l.703.139c.332.069.581.181.747.337.166.156.249.366.249.63a.978.978 0 0 1-.19.6 1.163 1.163 0 0 1-.527.388 2.167 2.167 0 0 1-.791.132Zm-70.215 9c-.327 0-.613-.075-.857-.227a1.514 1.514 0 0 1-.571-.659c-.132-.288-.198-.63-.198-1.025 0-.4.066-.742.198-1.025.136-.283.327-.501.57-.652.245-.156.53-.234.858-.234.322 0 .603.08.842.241.239.161.398.381.476.659h-.08l.072-.834h.718l-.044.454a6.45 6.45 0 0 0-.014.432v2.804h-.74v-.82h.08c-.078.274-.239.491-.483.652a1.48 1.48 0 0 1-.827.234Zm.183-.578a.95.95 0 0 0 .761-.337c.196-.225.293-.557.293-.996 0-.439-.097-.769-.293-.989a.95.95 0 0 0-.761-.337.98.98 0 0 0-.777.337c-.19.22-.285.55-.285.989 0 .439.095.771.285.996.19.224.45.337.777.337Zm2.866.512v-2.804a4.34 4.34 0 0 0-.022-.432c-.01-.152-.022-.303-.037-.454h.718l.066.776h-.088c.112-.274.285-.481.52-.623.234-.146.505-.219.813-.219.434 0 .761.119.98.358.225.24.338.611.338 1.114v2.284h-.74v-2.241c0-.327-.066-.561-.198-.703-.127-.146-.322-.219-.585-.219-.313 0-.562.097-.747.293-.186.19-.279.449-.279.776v2.094h-.74Zm5.754.066a1.61 1.61 0 0 1-.857-.227 1.514 1.514 0 0 1-.571-.659c-.132-.288-.198-.63-.198-1.025 0-.4.066-.742.198-1.025.137-.283.327-.501.571-.652a1.58 1.58 0 0 1 .857-.234c.317 0 .596.08.835.241.244.157.405.371.483.645h-.088v-2.519h.74v5.389h-.733v-.835h.088a1.18 1.18 0 0 1-.483.66c-.24.161-.52.241-.842.241Zm.183-.578a.972.972 0 0 0 .769-.337c.195-.225.293-.557.293-.996 0-.439-.098-.769-.293-.989a.972.972 0 0 0-.769-.337.98.98 0 0 0-.776.337c-.19.22-.286.55-.286.989 0 .439.095.771.286.996a.98.98 0 0 0 .776.337Zm6.232.578c-.328 0-.613-.075-.857-.227a1.514 1.514 0 0 1-.571-.659c-.132-.288-.198-.63-.198-1.025 0-.4.066-.742.198-1.025.136-.283.327-.501.57-.652.245-.156.53-.234.858-.234.322 0 .602.08.842.241.239.161.398.381.476.659h-.08l.072-.834h.718l-.044.454c-.01.146-.015.29-.015.432v2.804h-.74v-.82h.081c-.078.274-.239.491-.483.652a1.48 1.48 0 0 1-.827.234Zm.183-.578a.95.95 0 0 0 .761-.337c.196-.225.293-.557.293-.996 0-.439-.097-.769-.293-.989a.95.95 0 0 0-.761-.337.98.98 0 0 0-.776.337c-.19.22-.286.55-.286.989 0 .439.095.771.285.996.19.224.45.337.777.337Zm4.484.578a2 2 0 0 1-.974-.227 1.612 1.612 0 0 1-.637-.666c-.146-.293-.22-.64-.22-1.04 0-.395.076-.735.227-1.018.152-.283.364-.498.637-.644.274-.152.596-.227.967-.227.24 0 .471.041.696.124.224.078.41.191.556.337l-.241.52a1.314 1.314 0 0 0-.462-.293 1.345 1.345 0 0 0-.498-.103c-.351 0-.627.113-.827.337-.2.225-.3.55-.3.974 0 .43.1.759.3.989.2.229.476.344.827.344.157 0 .32-.029.491-.088.17-.063.327-.163.469-.3l.241.52a1.588 1.588 0 0 1-.57.344 2.063 2.063 0 0 1-.682.117Zm3.583 0a2 2 0 0 1-.974-.227 1.612 1.612 0 0 1-.637-.666c-.147-.293-.22-.64-.22-1.04 0-.395.076-.735.227-1.018.151-.283.364-.498.637-.644.274-.152.596-.227.967-.227.24 0 .471.041.695.124.225.078.41.191.557.337l-.242.52a1.314 1.314 0 0 0-.46-.293 1.345 1.345 0 0 0-.499-.103c-.351 0-.627.113-.827.337-.2.225-.3.55-.3.974 0 .43.1.759.3.989.2.229.476.344.827.344.156 0 .32-.029.49-.088.172-.063.328-.163.47-.3l.241.52a1.588 1.588 0 0 1-.571.344 2.063 2.063 0 0 1-.681.117Zm3.546 0a1.9 1.9 0 0 1-.952-.227 1.59 1.59 0 0 1-.622-.659c-.147-.288-.22-.63-.22-1.025 0-.396.073-.735.22-1.018.146-.288.354-.508.622-.659.269-.156.586-.234.952-.234s.683.078.952.234c.273.151.483.371.63.659.151.283.227.622.227 1.018 0 .395-.076.737-.227 1.025a1.577 1.577 0 0 1-.63.659 1.9 1.9 0 0 1-.952.227Zm0-.578c.322 0 .579-.113.769-.337.19-.225.286-.557.286-.996 0-.439-.096-.769-.286-.989-.19-.224-.447-.337-.769-.337a.95.95 0 0 0-.762.337c-.19.22-.285.55-.285.989 0 .439.093.771.278.996.19.224.447.337.77.337Zm2.673.512v-2.804a4.34 4.34 0 0 0-.022-.432 13.93 13.93 0 0 0-.036-.454h.717l.066.776h-.088c.103-.269.26-.476.47-.623.214-.146.47-.219.768-.219.303 0 .55.073.74.219.195.142.33.362.402.659h-.117a1.27 1.27 0 0 1 .498-.637 1.4 1.4 0 0 1 .813-.241c.41 0 .718.119.923.358.205.24.307.611.307 1.114v2.284h-.74v-2.248c0-.322-.055-.554-.168-.696-.107-.146-.283-.219-.527-.219-.283 0-.508.097-.674.293-.166.195-.249.459-.249.791v2.079h-.74v-2.248c0-.322-.055-.554-.168-.696-.107-.146-.283-.219-.527-.219-.283 0-.505.097-.666.293-.161.195-.242.459-.242.791v2.079h-.74Zm6.5 0v-2.804a4.34 4.34 0 0 0-.021-.432c-.01-.152-.022-.303-.037-.454h.718l.066.776h-.088c.103-.269.259-.476.469-.623.214-.146.47-.219.769-.219.302 0 .549.073.74.219.194.142.329.362.402.659h-.117c.097-.268.263-.48.498-.637a1.4 1.4 0 0 1 .813-.241c.41 0 .717.119.922.358.205.24.308.611.308 1.114v2.284h-.74v-2.248c0-.322-.056-.554-.168-.696-.108-.146-.283-.219-.528-.219-.283 0-.507.097-.673.293-.166.195-.25.459-.25.791v2.079h-.739v-2.248c0-.322-.056-.554-.168-.696-.108-.146-.283-.219-.527-.219-.284 0-.506.097-.667.293-.161.195-.241.459-.241.791v2.079h-.74Zm8.083.066a1.9 1.9 0 0 1-.952-.227 1.59 1.59 0 0 1-.622-.659c-.147-.288-.22-.63-.22-1.025 0-.396.073-.735.22-1.018.146-.288.354-.508.622-.659.269-.156.586-.234.952-.234s.684.078.952.234c.273.151.483.371.63.659.151.283.227.622.227 1.018 0 .395-.076.737-.227 1.025a1.577 1.577 0 0 1-.63.659 1.9 1.9 0 0 1-.952.227Zm0-.578c.322 0 .579-.113.769-.337.19-.225.286-.557.286-.996 0-.439-.096-.769-.286-.989-.19-.224-.447-.337-.769-.337a.95.95 0 0 0-.761.337c-.19.22-.286.55-.286.989 0 .439.093.771.278.996.19.224.447.337.77.337Zm4.087.578a1.61 1.61 0 0 1-.857-.227 1.515 1.515 0 0 1-.571-.659c-.132-.288-.198-.63-.198-1.025 0-.4.066-.742.198-1.025.136-.283.327-.501.57-.652a1.58 1.58 0 0 1 .858-.234c.317 0 .595.08.835.241.244.157.405.371.483.645h-.088v-2.519h.74v5.389h-.733v-.835h.088a1.18 1.18 0 0 1-.483.66c-.24.161-.52.241-.842.241Zm.183-.578a.972.972 0 0 0 .769-.337c.195-.225.293-.557.293-.996 0-.439-.098-.769-.293-.989a.972.972 0 0 0-.77-.337.98.98 0 0 0-.775.337c-.19.22-.286.55-.286.989 0 .439.095.771.286.996a.98.98 0 0 0 .776.337Zm4.28.578c-.328 0-.614-.075-.858-.227a1.514 1.514 0 0 1-.57-.659c-.133-.288-.199-.63-.199-1.025 0-.4.066-.742.198-1.025.137-.283.327-.501.571-.652.245-.156.53-.234.857-.234.322 0 .603.08.842.241.24.161.398.381.476.659h-.08l.073-.834h.718l-.044.454a6.45 6.45 0 0 0-.015.432v2.804h-.74v-.82h.08c-.077.274-.238.491-.482.652a1.48 1.48 0 0 1-.828.234Zm.182-.578a.95.95 0 0 0 .762-.337c.195-.225.293-.557.293-.996 0-.439-.098-.769-.293-.989a.95.95 0 0 0-.762-.337.98.98 0 0 0-.776.337c-.19.22-.286.55-.286.989 0 .439.096.771.286.996.19.224.45.337.776.337Zm4.302.578c-.401 0-.703-.107-.909-.322-.205-.22-.307-.547-.307-.981v-1.882h-.718v-.571h.718v-.974l.74-.198v1.172h1.025v.571h-1.025v1.816c0 .273.048.468.146.586.098.117.239.175.425.175.092 0 .173-.007.241-.022.074-.019.14-.041.198-.065v.6a1.192 1.192 0 0 1-.256.066 1.468 1.468 0 0 1-.278.029Zm1.225-.066v-3.69h.739v3.69h-.739Zm-.059-4.459v-.769h.857v.769h-.857Zm3.464 4.525c-.366 0-.684-.075-.952-.227a1.591 1.591 0 0 1-.623-.659c-.146-.288-.219-.63-.219-1.025 0-.396.073-.735.219-1.018.147-.288.354-.508.623-.659.268-.156.586-.234.952-.234s.683.078.952.234c.273.151.483.371.63.659.151.283.227.622.227 1.018 0 .395-.076.737-.227 1.025a1.583 1.583 0 0 1-.63.659 1.902 1.902 0 0 1-.952.227Zm0-.578c.322 0 .578-.113.769-.337.19-.225.285-.557.285-.996 0-.439-.095-.769-.285-.989-.191-.224-.447-.337-.769-.337a.952.952 0 0 0-.762.337c-.19.22-.285.55-.285.989 0 .439.092.771.278.996.19.224.447.337.769.337Zm2.673.512v-2.804c0-.142-.007-.286-.022-.432-.01-.152-.022-.303-.036-.454h.717l.066.776h-.088c.112-.274.286-.481.52-.623.234-.146.505-.219.813-.219.434 0 .762.119.981.358.225.24.337.611.337 1.114v2.284h-.74v-2.241c0-.327-.065-.561-.197-.703-.127-.146-.322-.219-.586-.219-.313 0-.561.097-.747.293-.186.19-.278.449-.278.776v2.094h-.74Zm5.608.066c-.308 0-.591-.039-.85-.117a1.835 1.835 0 0 1-.644-.329l.227-.506c.181.137.381.239.6.308.22.068.445.102.674.102.269 0 .471-.046.608-.139a.46.46 0 0 0 .205-.395.392.392 0 0 0-.132-.308c-.083-.078-.222-.137-.417-.176l-.703-.139c-.313-.068-.549-.185-.711-.351a.878.878 0 0 1-.241-.637c0-.22.058-.415.176-.586a1.22 1.22 0 0 1 .512-.403c.225-.098.486-.146.784-.146.273 0 .527.039.761.117.235.078.43.19.586.337l-.234.49a1.682 1.682 0 0 0-.513-.293 1.6 1.6 0 0 0-.578-.109c-.274 0-.476.051-.608.153a.487.487 0 0 0-.198.403c0 .127.039.232.117.315.083.078.213.139.388.183l.703.139c.332.069.581.181.747.337.166.156.249.366.249.63a.978.978 0 0 1-.19.6 1.163 1.163 0 0 1-.527.388 2.163 2.163 0 0 1-.791.132ZM174.311 218.273v-5.162h.762v5.162h-.762Zm1.908 0v-2.804c0-.142-.007-.286-.022-.432a13.655 13.655 0 0 0-.036-.454h.717l.066.776h-.088c.113-.273.286-.481.52-.623.235-.146.506-.219.813-.219.435 0 .762.119.981.359.225.239.337.61.337 1.113v2.284h-.739v-2.24c0-.327-.066-.562-.198-.703-.127-.147-.322-.22-.586-.22-.312 0-.561.098-.747.293-.185.19-.278.449-.278.776v2.094h-.74Zm5.959.066c-.371 0-.695-.075-.973-.227a1.614 1.614 0 0 1-.638-.666c-.146-.293-.219-.64-.219-1.04 0-.395.075-.735.227-1.018.151-.283.363-.498.637-.644.273-.152.595-.227.966-.227.24 0 .472.041.696.124.225.078.41.191.557.337l-.242.52a1.33 1.33 0 0 0-.461-.293 1.344 1.344 0 0 0-.498-.102c-.352 0-.628.112-.828.336-.2.225-.3.55-.3.974 0 .43.1.76.3.989.2.229.476.344.828.344a1.34 1.34 0 0 0 .959-.388l.242.52a1.596 1.596 0 0 1-.571.344 2.068 2.068 0 0 1-.682.117Zm3.547 0c-.366 0-.684-.075-.952-.227a1.591 1.591 0 0 1-.623-.659c-.146-.288-.219-.63-.219-1.025 0-.395.073-.735.219-1.018.147-.288.354-.508.623-.659.268-.156.586-.234.952-.234s.683.078.952.234c.273.151.483.371.629.659.152.283.227.623.227 1.018s-.075.737-.227 1.025a1.574 1.574 0 0 1-.629.659 1.902 1.902 0 0 1-.952.227Zm0-.578c.322 0 .578-.112.769-.337.19-.225.285-.557.285-.996 0-.439-.095-.769-.285-.989-.191-.224-.447-.336-.769-.336-.318 0-.572.112-.762.336-.19.22-.286.55-.286.989 0 .439.093.771.279.996.19.225.446.337.769.337Zm2.673.512v-2.804c0-.142-.007-.286-.022-.432-.01-.152-.022-.303-.037-.454h.718l.066.776h-.088c.103-.269.259-.476.469-.623.214-.146.471-.219.769-.219.302 0 .549.073.739.219.195.142.33.362.403.66h-.117c.097-.269.263-.481.498-.638.234-.161.505-.241.813-.241.41 0 .717.119.922.359.205.239.308.61.308 1.113v2.284h-.74v-2.248c0-.322-.056-.554-.168-.695-.108-.147-.283-.22-.527-.22-.284 0-.508.098-.674.293-.166.195-.249.459-.249.791v2.079h-.74v-2.248c0-.322-.056-.554-.168-.695-.108-.147-.283-.22-.527-.22-.284 0-.506.098-.667.293-.161.195-.241.459-.241.791v2.079h-.74Zm8.207.066c-.596 0-1.065-.168-1.406-.505-.342-.337-.513-.803-.513-1.399 0-.385.073-.722.22-1.01a1.65 1.65 0 0 1 .622-.667c.269-.161.579-.241.93-.241.347 0 .637.073.872.219.234.147.412.354.534.623.122.264.183.576.183.937v.235h-2.782v-.425h2.277l-.124.095c0-.366-.083-.649-.249-.849-.162-.205-.396-.308-.703-.308-.342 0-.606.12-.791.359-.186.234-.279.559-.279.974v.073c0 .435.105.762.315.981.215.22.518.33.908.33.215 0 .415-.029.601-.088.19-.064.371-.166.542-.308l.241.506c-.17.151-.378.268-.622.351a2.535 2.535 0 0 1-.776.117Zm5.657 0c-.327 0-.613-.075-.857-.227a1.51 1.51 0 0 1-.571-.659c-.132-.288-.198-.63-.198-1.025 0-.4.066-.742.198-1.025a1.52 1.52 0 0 1 .571-.652c.244-.156.53-.234.857-.234.322 0 .603.08.842.241.239.162.398.381.476.659h-.081l.073-.834h.718l-.044.454c-.01.146-.014.29-.014.432v2.804h-.74v-.82h.08a1.131 1.131 0 0 1-.483.652 1.48 1.48 0 0 1-.827.234Zm.183-.578c.317 0 .571-.112.761-.337.196-.225.293-.557.293-.996 0-.439-.097-.769-.293-.989-.19-.224-.444-.336-.761-.336-.322 0-.581.112-.776.336-.191.22-.286.55-.286.989 0 .439.095.771.286.996.19.225.449.337.776.337Zm2.866.512v-2.804c0-.142-.008-.286-.022-.432-.01-.152-.022-.303-.037-.454h.718l.066.776h-.088c.112-.273.285-.481.52-.623.234-.146.505-.219.813-.219.434 0 .761.119.981.359.224.239.337.61.337 1.113v2.284h-.74v-2.24c0-.327-.066-.562-.198-.703-.127-.147-.322-.22-.585-.22-.313 0-.562.098-.747.293-.186.19-.279.449-.279.776v2.094h-.739Zm5.754.066c-.322 0-.608-.075-.857-.227a1.517 1.517 0 0 1-.571-.659c-.132-.288-.198-.63-.198-1.025 0-.4.066-.742.198-1.025.137-.283.327-.501.571-.652a1.58 1.58 0 0 1 .857-.234c.317 0 .596.08.835.241.244.157.405.371.483.645h-.088v-2.519h.74v5.389h-.733v-.834h.088a1.178 1.178 0 0 1-.483.659c-.239.161-.52.241-.842.241Zm.183-.578a.969.969 0 0 0 .769-.337c.195-.225.293-.557.293-.996 0-.439-.098-.769-.293-.989a.971.971 0 0 0-.769-.336c-.322 0-.581.112-.776.336-.191.22-.286.55-.286.989 0 .439.095.771.286.996.195.225.454.337.776.337Zm-35.384 9.578a2 2 0 0 1-.974-.227 1.612 1.612 0 0 1-.637-.666c-.147-.293-.22-.64-.22-1.04 0-.395.076-.735.227-1.018.151-.283.364-.498.637-.644.274-.152.596-.227.967-.227.239 0 .471.041.696.124.224.078.41.191.556.337l-.242.52a1.32 1.32 0 0 0-.461-.293 1.344 1.344 0 0 0-.498-.102c-.351 0-.627.112-.827.336-.201.225-.301.55-.301.974 0 .43.1.76.301.989.2.229.476.344.827.344.156 0 .32-.029.491-.088.171-.063.327-.163.468-.3l.242.52a1.588 1.588 0 0 1-.571.344 2.067 2.067 0 0 1-.681.117Zm3.546 0c-.366 0-.683-.075-.952-.227a1.59 1.59 0 0 1-.622-.659c-.147-.288-.22-.63-.22-1.025 0-.395.073-.735.22-1.018.146-.288.354-.508.622-.659.269-.156.586-.234.952-.234s.684.078.952.234c.273.151.483.371.63.659.151.283.227.623.227 1.018s-.076.737-.227 1.025a1.583 1.583 0 0 1-.63.659c-.268.152-.586.227-.952.227Zm0-.578c.322 0 .579-.112.769-.337.19-.225.286-.557.286-.996 0-.439-.096-.769-.286-.989-.19-.224-.447-.336-.769-.336a.951.951 0 0 0-.762.336c-.19.22-.285.55-.285.989 0 .439.093.771.278.996.191.225.447.337.769.337Zm3.94.578c-.307 0-.591-.039-.849-.117a1.832 1.832 0 0 1-.645-.329l.227-.506c.181.137.381.24.601.308.22.068.444.102.674.102.268 0 .471-.046.607-.139a.46.46 0 0 0 .205-.395.395.395 0 0 0-.131-.308c-.083-.078-.223-.136-.418-.175l-.703-.14c-.312-.068-.549-.185-.71-.351a.877.877 0 0 1-.242-.637c0-.22.059-.415.176-.586.122-.171.293-.305.513-.403.224-.097.485-.146.783-.146.273 0 .527.039.762.117.234.078.429.19.585.337l-.234.49a1.674 1.674 0 0 0-.512-.292 1.59 1.59 0 0 0-.579-.11c-.273 0-.476.051-.608.153a.486.486 0 0 0-.197.403c0 .127.039.232.117.315.083.078.212.139.388.183l.703.139c.332.069.581.181.747.337.166.156.249.366.249.63 0 .229-.064.43-.191.6a1.167 1.167 0 0 1-.527.389 2.181 2.181 0 0 1-.791.131Zm3.78 0c-.4 0-.703-.107-.908-.322-.205-.22-.308-.547-.308-.981v-1.882h-.717v-.571h.717v-.974l.74-.198v1.172h1.025v.571h-1.025v1.816c0 .273.049.469.147.586.097.117.239.176.424.176.093 0 .174-.008.242-.022.073-.02.139-.042.198-.066v.6a1.202 1.202 0 0 1-.257.066c-.097.02-.19.029-.278.029Zm4.759 0c-.366 0-.683-.075-.952-.227a1.59 1.59 0 0 1-.622-.659c-.147-.288-.22-.63-.22-1.025 0-.395.073-.735.22-1.018.146-.288.354-.508.622-.659.269-.156.586-.234.952-.234s.684.078.952.234c.273.151.483.371.63.659.151.283.227.623.227 1.018s-.076.737-.227 1.025a1.583 1.583 0 0 1-.63.659c-.268.152-.586.227-.952.227Zm0-.578c.322 0 .579-.112.769-.337.19-.225.286-.557.286-.996 0-.439-.096-.769-.286-.989-.19-.224-.447-.336-.769-.336a.951.951 0 0 0-.762.336c-.19.22-.285.55-.285.989 0 .439.093.771.278.996.191.225.447.337.769.337Zm2.857.512v-3.119h-.717v-.571h.922l-.205.19v-.586c0-.434.11-.764.33-.988.219-.23.542-.345.966-.345.103 0 .21.008.323.022a.938.938 0 0 1 .278.074v.6a1.007 1.007 0 0 0-.22-.058 1.087 1.087 0 0 0-.256-.03.729.729 0 0 0-.366.088.572.572 0 0 0-.242.249.998.998 0 0 0-.08.432v.498l-.11-.146h1.113v.571h-.996v3.119h-.74Zm4.307 0v-5.389h.74v5.389h-.74Zm1.824 0v-3.69h.74v3.69h-.74Zm-.059-4.459v-.769h.857v.769h-.857Zm2.966 4.459-1.581-3.69h.79l1.245 3.083h-.212l1.267-3.083h.754l-1.589 3.69h-.674Zm2.85 0v-3.69h.739v3.69h-.739Zm-.059-4.459v-.769h.857v.769h-.857Zm1.882 4.459v-2.804c0-.142-.007-.286-.022-.432a13.655 13.655 0 0 0-.036-.454h.717l.066.776h-.088c.113-.273.286-.481.52-.623.235-.146.506-.219.813-.219.435 0 .762.119.981.359.225.239.337.61.337 1.113v2.284h-.739v-2.24c0-.327-.066-.562-.198-.703-.127-.147-.322-.22-.586-.22-.312 0-.561.098-.747.293-.185.19-.278.449-.278.776v2.094h-.74Zm6.003 1.641c-.332 0-.634-.039-.908-.117a2.36 2.36 0 0 1-.725-.352l.184-.542c.151.103.3.183.446.242.147.063.3.11.462.139.161.029.327.044.498.044.351 0 .615-.09.79-.271.181-.176.271-.432.271-.769v-.989h.074c-.079.274-.24.491-.484.652a1.493 1.493 0 0 1-.835.235c-.336 0-.629-.074-.878-.22a1.537 1.537 0 0 1-.571-.637 2.269 2.269 0 0 1-.198-.981c0-.376.066-.701.198-.974.136-.274.327-.484.571-.63.249-.152.542-.227.878-.227.323 0 .601.08.835.241.239.157.398.371.476.645l-.066-.059.066-.761h.718a6.903 6.903 0 0 0-.059.886v2.731c0 .557-.149.981-.446 1.274-.293.293-.725.44-1.297.44Zm-.051-2.307c.322 0 .579-.11.769-.329.195-.22.293-.53.293-.93 0-.401-.098-.708-.293-.923-.19-.215-.447-.322-.769-.322-.332 0-.595.107-.791.322-.19.215-.285.522-.285.923 0 .4.095.71.285.93.196.219.459.329.791.329ZM258.801 146.199c-.415 0-.791-.052-1.128-.154a2.772 2.772 0 0 1-.879-.454l.257-.601c.166.127.337.232.512.315.181.083.371.147.571.191.206.039.428.058.667.058.41 0 .71-.073.901-.219a.69.69 0 0 0 .292-.579c0-.205-.068-.364-.205-.476-.131-.112-.366-.202-.703-.271l-.798-.161c-.473-.098-.827-.256-1.062-.476-.229-.225-.344-.53-.344-.915 0-.313.083-.586.249-.82.166-.235.396-.415.689-.542a2.628 2.628 0 0 1 1.039-.191c.367 0 .703.054 1.011.161.308.103.566.257.776.462l-.249.578a2.18 2.18 0 0 0-.703-.417 2.415 2.415 0 0 0-.849-.139c-.376 0-.671.078-.886.234a.752.752 0 0 0-.315.637c0 .215.066.383.198.505.136.122.361.215.673.279l.798.153c.494.103.857.262 1.092.476.234.21.351.501.351.872a1.3 1.3 0 0 1-.242.783c-.156.225-.38.401-.673.528-.293.122-.64.183-1.04.183Zm4.407 0a1.91 1.91 0 0 1-.952-.227 1.597 1.597 0 0 1-.623-.659c-.146-.288-.219-.63-.219-1.026 0-.395.073-.734.219-1.017.147-.288.354-.508.623-.66.268-.156.586-.234.952-.234s.683.078.952.234c.273.152.483.372.63.66.151.283.227.622.227 1.017 0 .396-.076.738-.227 1.026a1.589 1.589 0 0 1-.63.659 1.913 1.913 0 0 1-.952.227Zm0-.579c.322 0 .578-.112.769-.337.19-.224.285-.556.285-.996 0-.439-.095-.768-.285-.988-.191-.225-.447-.337-.769-.337a.95.95 0 0 0-.762.337c-.19.22-.285.549-.285.988 0 .44.092.772.278.996.19.225.447.337.769.337Zm4.292.579c-.372 0-.696-.076-.974-.227a1.622 1.622 0 0 1-.638-.667c-.146-.293-.219-.639-.219-1.04 0-.395.075-.734.227-1.017a1.53 1.53 0 0 1 .637-.645c.273-.151.595-.227.967-.227.239 0 .471.042.695.125.225.078.41.19.557.336l-.242.52a1.326 1.326 0 0 0-.461-.292 1.326 1.326 0 0 0-.498-.103c-.352 0-.628.112-.828.337-.2.224-.3.549-.3.974 0 .429.1.759.3.988.2.23.476.345.828.345.156 0 .32-.03.49-.088.171-.064.328-.164.469-.301l.242.52a1.584 1.584 0 0 1-.571.345 2.067 2.067 0 0 1-.681.117Zm2.035-.066v-3.691h.74v3.691h-.74Zm-.058-4.46v-.769h.857v.769h-.857Zm3.295 4.526c-.327 0-.612-.076-.856-.227a1.518 1.518 0 0 1-.572-.659c-.131-.288-.197-.63-.197-1.026 0-.4.066-.742.197-1.025.137-.283.327-.5.572-.652.244-.156.529-.234.856-.234.323 0 .603.081.843.242.239.161.397.381.476.659h-.081l.073-.835h.718l-.044.454c-.01.147-.015.291-.015.432v2.805h-.739v-.82h.08c-.078.273-.239.49-.483.651a1.473 1.473 0 0 1-.828.235Zm.183-.579c.318 0 .572-.112.762-.337.195-.224.293-.556.293-.996 0-.439-.098-.768-.293-.988-.19-.225-.444-.337-.762-.337-.322 0-.581.112-.776.337-.19.22-.285.549-.285.988 0 .44.095.772.285.996.191.225.449.337.776.337Zm2.866.513v-5.39h.74v5.39h-.74Zm5.19.066c-.327 0-.613-.076-.857-.227a1.516 1.516 0 0 1-.571-.659c-.132-.288-.198-.63-.198-1.026 0-.4.066-.742.198-1.025.136-.283.327-.5.571-.652.244-.156.53-.234.857-.234.322 0 .603.081.842.242.239.161.398.381.476.659h-.081l.073-.835h.718l-.044.454c-.01.147-.014.291-.014.432v2.805h-.74v-.82h.08c-.078.273-.239.49-.483.651a1.472 1.472 0 0 1-.827.235Zm.183-.579c.317 0 .571-.112.761-.337.196-.224.293-.556.293-.996 0-.439-.097-.768-.293-.988-.19-.225-.444-.337-.761-.337-.322 0-.581.112-.776.337-.191.22-.286.549-.286.988 0 .44.095.772.286.996.19.225.449.337.776.337Zm2.866.513v-3.691h.739v3.691h-.739Zm-.059-4.46v-.769h.857v.769h-.857Zm3.296 4.526c-.323 0-.608-.076-.857-.227a1.516 1.516 0 0 1-.571-.659c-.132-.288-.198-.63-.198-1.026 0-.4.066-.742.198-1.025.136-.283.327-.5.571-.652.249-.156.534-.234.857-.234.317 0 .595.081.834.242a1.1 1.1 0 0 1 .484.644h-.088v-2.519h.74v5.39h-.733v-.835h.088a1.178 1.178 0 0 1-.483.659c-.239.161-.52.242-.842.242Zm.183-.579a.97.97 0 0 0 .769-.337c.195-.224.293-.556.293-.996 0-.439-.098-.768-.293-.988a.97.97 0 0 0-.769-.337c-.322 0-.581.112-.776.337-.191.22-.286.549-.286.988 0 .44.095.772.286.996.195.225.454.337.776.337Zm-29.221 9.579c-.308 0-.591-.039-.85-.117a1.836 1.836 0 0 1-.644-.33l.227-.505c.181.136.381.239.601.307.219.069.444.103.673.103.269 0 .471-.047.608-.139a.462.462 0 0 0 .205-.396.39.39 0 0 0-.132-.307c-.083-.078-.222-.137-.417-.176l-.703-.139c-.313-.069-.549-.186-.71-.352a.873.873 0 0 1-.242-.637c0-.219.059-.415.176-.586.122-.17.293-.305.512-.402.225-.098.486-.147.784-.147.273 0 .527.039.761.117.235.078.43.191.586.337l-.234.491a1.65 1.65 0 0 0-.513-.293 1.602 1.602 0 0 0-.578-.11c-.274 0-.476.051-.608.154a.486.486 0 0 0-.198.403.44.44 0 0 0 .117.314c.083.079.213.14.389.184l.703.139c.332.068.581.18.747.337.165.156.248.366.248.629a.98.98 0 0 1-.19.601 1.17 1.17 0 0 1-.527.388 2.163 2.163 0 0 1-.791.132Zm3.78 0c-.401 0-.703-.108-.908-.322-.205-.22-.308-.547-.308-.982v-1.882h-.717v-.571h.717v-.974l.74-.198v1.172h1.025v.571h-1.025v1.816c0 .274.049.469.146.586.098.117.239.176.425.176.093 0 .173-.007.242-.022a1.68 1.68 0 0 0 .197-.066v.601a1.124 1.124 0 0 1-.256.065c-.098.02-.19.03-.278.03Zm2.638 0c-.327 0-.613-.076-.857-.227a1.522 1.522 0 0 1-.571-.659c-.132-.288-.198-.63-.198-1.026 0-.4.066-.742.198-1.025.137-.283.327-.5.571-.652.244-.156.53-.234.857-.234.322 0 .603.081.842.242.239.161.398.381.476.659h-.08l.073-.835h.718l-.044.454c-.01.147-.015.291-.015.432v2.805h-.74v-.82h.081c-.078.273-.239.49-.483.651-.24.157-.515.235-.828.235Zm.183-.579c.318 0 .571-.112.762-.337.195-.224.293-.556.293-.996 0-.439-.098-.768-.293-.988-.191-.225-.444-.337-.762-.337-.322 0-.581.112-.776.337-.19.22-.286.549-.286.988 0 .44.096.772.286.996.19.225.449.337.776.337Zm4.301.579c-.4 0-.703-.108-.908-.322-.205-.22-.307-.547-.307-.982v-1.882h-.718v-.571h.718v-.974l.739-.198v1.172h1.026v.571h-1.026v1.816c0 .274.049.469.147.586.098.117.239.176.425.176.092 0 .173-.007.241-.022.074-.02.139-.042.198-.066v.601a1.138 1.138 0 0 1-.256.065c-.098.02-.191.03-.279.03Zm2.536 0c-.444 0-.778-.12-1.003-.359-.22-.244-.329-.618-.329-1.121v-2.277h.739v2.263c0 .307.064.534.191.681.126.146.319.22.578.22.293 0 .53-.098.71-.293.181-.196.271-.454.271-.777v-2.094h.74v3.691h-.718v-.791h.095a1.29 1.29 0 0 1-.49.637c-.225.146-.486.22-.784.22Zm4.247 0c-.307 0-.591-.039-.849-.117a1.833 1.833 0 0 1-.645-.33l.227-.505c.181.136.381.239.601.307.219.069.444.103.673.103.269 0 .472-.047.608-.139a.462.462 0 0 0 .205-.396.39.39 0 0 0-.132-.307c-.083-.078-.222-.137-.417-.176l-.703-.139c-.312-.069-.549-.186-.71-.352a.877.877 0 0 1-.242-.637c0-.219.059-.415.176-.586.122-.17.293-.305.512-.402.225-.098.486-.147.784-.147.273 0 .527.039.762.117.234.078.429.191.585.337l-.234.491a1.65 1.65 0 0 0-.513-.293 1.602 1.602 0 0 0-.578-.11c-.273 0-.476.051-.608.154a.486.486 0 0 0-.198.403c0 .127.039.231.118.314.083.079.212.14.388.184l.703.139c.332.068.581.18.747.337.166.156.249.366.249.629a.98.98 0 0 1-.191.601c-.127.171-.302.3-.527.388a2.163 2.163 0 0 1-.791.132ZM255.643 47.828v-5.163h.762v4.511h2.534v.652h-3.296Zm5.646.066c-.596 0-1.065-.168-1.406-.505-.342-.337-.513-.803-.513-1.399 0-.386.073-.723.22-1.01.151-.288.358-.51.622-.667.269-.161.579-.242.93-.242.347 0 .637.074.871.22.235.147.413.354.535.623.122.263.183.576.183.937v.234h-2.783v-.425h2.278l-.125.096c0-.366-.083-.65-.249-.85-.161-.205-.395-.307-.703-.307-.341 0-.605.12-.791.359-.185.234-.278.559-.278.974v.073c0 .434.105.761.315.981.215.22.518.33.908.33.215 0 .415-.03.601-.088.19-.064.371-.166.542-.308l.241.505a1.8 1.8 0 0 1-.622.352 2.532 2.532 0 0 1-.776.117Zm3.325-.066-1.582-3.69h.791l1.245 3.082h-.213l1.267-3.083h.754l-1.589 3.691h-.673Zm4.491.066c-.596 0-1.064-.168-1.406-.505-.342-.337-.513-.803-.513-1.399 0-.386.074-.723.22-1.01.151-.288.359-.51.622-.667.269-.161.579-.242.93-.242.347 0 .638.074.872.22.234.147.412.354.534.623.122.263.183.576.183.937v.234h-2.782v-.425h2.277l-.124.096c0-.366-.083-.65-.249-.85-.161-.205-.396-.307-.703-.307-.342 0-.606.12-.791.359-.186.234-.278.559-.278.974v.073c0 .434.105.761.314.981.215.22.518.33.909.33.214 0 .414-.03.6-.088.19-.064.371-.166.542-.308l.242.505a1.805 1.805 0 0 1-.623.352 2.532 2.532 0 0 1-.776.117Zm2.291-.066v-5.39h.74v5.39h-.74Zm5.358.066c-.366 0-.684-.076-.952-.227a1.592 1.592 0 0 1-.623-.659c-.146-.288-.219-.63-.219-1.025 0-.396.073-.735.219-1.018.147-.288.354-.508.623-.66a1.86 1.86 0 0 1 .952-.233c.366 0 .683.078.952.234.273.151.483.37.63.659.151.283.227.622.227 1.018 0 .395-.076.737-.227 1.025a1.583 1.583 0 0 1-.63.659 1.909 1.909 0 0 1-.952.227Zm0-.578c.322 0 .578-.113.769-.337.19-.225.285-.557.285-.996 0-.44-.095-.77-.285-.989-.191-.224-.447-.337-.769-.337a.95.95 0 0 0-.762.337c-.19.22-.285.55-.285.989 0 .44.092.771.278.996.19.224.447.337.769.337Zm2.857.512v-3.12h-.718v-.57h.923l-.205.19v-.586c0-.435.11-.764.33-.989.219-.23.541-.344.966-.344.103 0 .21.008.322.022.113.015.205.04.279.073v.6a1.017 1.017 0 0 0-.22-.058 1.108 1.108 0 0 0-.256-.029.724.724 0 0 0-.366.088.563.563 0 0 0-.242.249.999.999 0 0 0-.081.432v.498l-.109-.147h1.113v.572h-.996v3.12h-.74Zm-22.767 9.066a2.93 2.93 0 0 1-.849-.117 1.81 1.81 0 0 1-.644-.33l.227-.505c.18.137.38.24.6.308.22.068.444.102.674.102.268 0 .471-.046.608-.139a.463.463 0 0 0 .205-.395.392.392 0 0 0-.132-.308c-.083-.078-.222-.137-.418-.176l-.703-.139c-.312-.068-.549-.185-.71-.351a.877.877 0 0 1-.242-.638c0-.22.059-.414.176-.585.122-.171.293-.305.513-.403.224-.098.485-.147.783-.147.274 0 .528.04.762.118.234.078.429.19.586.337l-.235.49a1.667 1.667 0 0 0-.512-.293 1.603 1.603 0 0 0-.579-.11c-.273 0-.476.052-.608.154a.488.488 0 0 0-.197.403c0 .127.039.232.117.315.083.078.212.139.388.183l.703.139c.332.068.581.18.747.337.166.156.249.366.249.63 0 .23-.064.43-.19.6-.127.171-.303.3-.528.388a2.161 2.161 0 0 1-.791.132Zm3.78 0c-.4 0-.703-.107-.908-.322-.205-.22-.307-.547-.307-.982V53.71h-.718v-.572h.718v-.974l.739-.197v1.171h1.025v.572h-1.025v1.816c0 .273.049.468.147.586.097.117.239.175.424.175.093 0 .174-.007.242-.022.073-.02.139-.041.198-.066v.6c-.073.03-.159.052-.256.067-.098.02-.191.029-.279.029Zm1.225-.066v-3.69h.74v3.69h-.74Zm-.058-4.46V51.6h.856v.768h-.856Zm3.544 6.1c-.332 0-.635-.039-.908-.117a2.334 2.334 0 0 1-.725-.351l.183-.542c.152.102.3.183.447.242.146.063.3.11.461.139.161.029.327.044.498.044.352 0 .615-.09.791-.271.181-.176.271-.432.271-.77v-.988h.073c-.078.274-.239.49-.483.652a1.493 1.493 0 0 1-.835.234c-.337 0-.63-.073-.879-.22a1.544 1.544 0 0 1-.571-.637 2.268 2.268 0 0 1-.198-.98c0-.377.066-.701.198-.975.137-.273.327-.483.571-.63.249-.15.542-.227.879-.227.322 0 .601.081.835.242.239.156.398.371.476.645l-.066-.059.066-.762h.718a6.33 6.33 0 0 0-.044.454c-.01.147-.015.29-.015.432v2.732c0 .556-.149.981-.447 1.274-.293.293-.725.44-1.296.44Zm-.051-2.306c.322 0 .578-.11.769-.33.195-.22.293-.53.293-.93s-.098-.708-.293-.922c-.191-.215-.447-.323-.769-.323-.332 0-.596.108-.791.323-.19.214-.286.522-.286.922s.096.71.286.93c.195.22.459.33.791.33Zm2.873.666v-2.805c0-.141-.008-.285-.022-.432-.01-.151-.022-.302-.037-.454h.718l.066.777h-.088a1.3 1.3 0 0 1 .468-.623c.215-.146.472-.22.769-.22.303 0 .55.074.74.22.195.142.329.361.403.66h-.117c.097-.27.263-.482.498-.638.234-.161.505-.242.812-.242.41 0 .718.12.923.36.205.239.308.61.308 1.112v2.285h-.74V54.58c0-.322-.056-.554-.168-.696-.108-.146-.284-.22-.528-.22-.283 0-.507.098-.673.294-.166.195-.249.458-.249.79v2.08h-.74V54.58c0-.322-.056-.554-.168-.696-.108-.146-.284-.22-.528-.22-.283 0-.505.098-.666.294-.161.195-.242.458-.242.79v2.08h-.739Zm7.914.066a1.59 1.59 0 0 1-.857-.227 1.512 1.512 0 0 1-.571-.659c-.132-.288-.198-.63-.198-1.025 0-.4.066-.742.198-1.025a1.52 1.52 0 0 1 1.428-.886c.322 0 .602.08.842.241.239.161.398.38.476.66h-.081l.073-.836h.718l-.044.454c-.01.147-.015.29-.015.432v2.805h-.739v-.82h.08c-.078.273-.239.49-.483.652a1.478 1.478 0 0 1-.827.234Zm.183-.578a.947.947 0 0 0 .761-.337c.195-.225.293-.557.293-.996 0-.44-.098-.77-.293-.989a.947.947 0 0 0-.761-.337c-.323 0-.581.113-.777.337-.19.22-.285.55-.285.989 0 .44.095.771.285.996.191.224.45.337.777.337Zm6.231.578c-.327 0-.612-.076-.857-.227a1.518 1.518 0 0 1-.571-.659c-.132-.288-.197-.63-.197-1.025 0-.4.065-.742.197-1.025.137-.284.327-.5.571-.652.245-.156.53-.234.857-.234.322 0 .603.08.842.241.24.161.398.38.476.66h-.08l.073-.836h.718l-.044.454c-.01.147-.015.29-.015.432v2.805h-.74v-.82h.081c-.078.273-.239.49-.483.652a1.48 1.48 0 0 1-.828.234Zm.183-.578c.318 0 .572-.113.762-.337.195-.225.293-.557.293-.996 0-.44-.098-.77-.293-.989-.19-.224-.444-.337-.762-.337-.322 0-.581.113-.776.337-.19.22-.286.55-.286.989 0 .44.096.771.286.996.19.224.449.337.776.337Zm2.866.512v-2.805c0-.141-.007-.285-.022-.432a13.85 13.85 0 0 0-.036-.454h.717l.066.777h-.088c.113-.274.286-.481.52-.623.235-.146.506-.22.813-.22.435 0 .762.12.981.36.225.239.337.61.337 1.112v2.285h-.739v-2.24c0-.328-.066-.562-.198-.704-.127-.146-.322-.22-.586-.22-.312 0-.561.098-.747.294-.185.19-.278.449-.278.776v2.094h-.74Zm5.754.066c-.322 0-.607-.076-.856-.227a1.512 1.512 0 0 1-.571-.659c-.132-.288-.198-.63-.198-1.025 0-.4.066-.742.198-1.025a1.52 1.52 0 0 1 1.427-.886c.318 0 .596.08.835.241.244.156.406.371.484.645h-.088v-2.52h.739v5.39h-.732v-.835h.088a1.177 1.177 0 0 1-.483.66c-.24.16-.52.241-.843.241Zm.184-.578a.968.968 0 0 0 .768-.337c.196-.225.293-.557.293-.996 0-.44-.097-.77-.293-.989a.968.968 0 0 0-.768-.337c-.323 0-.581.113-.777.337-.19.22-.285.55-.285.989 0 .44.095.771.285.996.196.224.454.337.777.337Zm-36.327 11.13c-.078 0-.168-.007-.27-.022a1.045 1.045 0 0 1-.279-.073v-.6c.064.02.135.036.213.051.073.02.144.03.212.03.19 0 .334-.062.432-.184.103-.117.154-.312.154-.585v-3.926h.739v3.977c0 .44-.097.771-.292.996-.196.224-.498.337-.909.337Zm.396-6.078V60.6h.864v.768h-.864Zm3.171 4.526c-.444 0-.779-.12-1.003-.359-.22-.244-.33-.617-.33-1.12v-2.278h.74V64.4c0 .308.063.535.19.681.127.147.32.22.579.22a.922.922 0 0 0 .71-.293c.181-.195.271-.454.271-.776v-2.095h.74v3.691h-.718v-.79h.095a1.286 1.286 0 0 1-.491.636c-.224.147-.485.22-.783.22Zm4.393 0c-.322 0-.608-.076-.857-.227a1.518 1.518 0 0 1-.571-.659c-.132-.288-.197-.63-.197-1.025 0-.4.065-.742.197-1.025.137-.284.327-.5.571-.652a1.58 1.58 0 0 1 .857-.234c.318 0 .596.08.835.241.244.156.405.371.483.645h-.088v-2.52h.74v5.39h-.732v-.835h.088a1.174 1.174 0 0 1-.484.66c-.239.16-.52.241-.842.241Zm.183-.579a.969.969 0 0 0 .769-.336c.195-.225.293-.557.293-.996 0-.44-.098-.77-.293-.989a.969.969 0 0 0-.769-.337c-.322 0-.581.113-.776.337-.19.22-.286.55-.286.989 0 .44.096.771.286.996.195.224.454.337.776.337Zm4.529 2.154c-.332 0-.635-.04-.908-.118a2.313 2.313 0 0 1-.725-.351l.183-.542c.151.102.3.183.446.242.147.063.301.11.462.139.161.029.327.044.498.044.351 0 .615-.09.791-.271.18-.176.271-.432.271-.77v-.988h.073a1.13 1.13 0 0 1-.484.652 1.49 1.49 0 0 1-.834.234c-.337 0-.63-.073-.879-.22a1.537 1.537 0 0 1-.571-.636 2.268 2.268 0 0 1-.198-.982c0-.376.066-.7.198-.974.136-.273.327-.483.571-.63.249-.15.542-.227.879-.227.322 0 .6.081.834.242.24.156.398.371.476.645l-.065-.059.065-.762h.718a7.735 7.735 0 0 0-.059.886v2.732c0 .556-.148.981-.446 1.274-.293.293-.725.44-1.296.44Zm-.052-2.307c.323 0 .579-.11.769-.33.196-.22.293-.53.293-.93s-.097-.708-.293-.922c-.19-.215-.446-.323-.769-.323-.332 0-.595.108-.791.323-.19.214-.285.522-.285.922s.095.71.285.93c.196.22.459.33.791.33Zm2.873.666v-2.805c0-.141-.007-.285-.022-.432-.01-.151-.022-.302-.036-.454h.717l.066.777h-.088c.103-.269.259-.476.469-.623.215-.146.471-.22.769-.22.303 0 .549.074.739.22.196.142.33.361.403.66h-.117a1.27 1.27 0 0 1 .498-.638c.234-.161.505-.242.813-.242.41 0 .718.12.923.36.205.239.307.61.307 1.112v2.285h-.74V63.58c0-.322-.056-.554-.168-.696-.107-.146-.283-.22-.527-.22-.283 0-.508.098-.674.294-.166.195-.249.458-.249.79v2.08h-.739V63.58c0-.322-.057-.554-.169-.696-.107-.146-.283-.22-.527-.22-.283 0-.505.098-.667.294-.161.195-.241.458-.241.79v2.08h-.74Zm8.207.066c-.596 0-1.064-.168-1.406-.505-.342-.337-.513-.803-.513-1.399 0-.386.074-.723.22-1.01.151-.288.359-.51.622-.667.269-.161.579-.242.93-.242.347 0 .638.074.872.22.234.147.412.354.534.623a2.2 2.2 0 0 1 .184.937v.234h-2.783v-.424h2.277l-.124.095c0-.366-.083-.65-.249-.85-.161-.205-.396-.307-.703-.307-.342 0-.606.12-.791.359-.186.234-.278.559-.278.974v.073c0 .434.105.761.315.981.214.22.517.33.908.33.214 0 .415-.03.6-.088.19-.064.371-.166.542-.308l.242.505a1.805 1.805 0 0 1-.623.352 2.532 2.532 0 0 1-.776.117Zm2.291-.066v-2.805c0-.141-.007-.285-.022-.432a13.85 13.85 0 0 0-.036-.454h.717l.066.777h-.088c.113-.274.286-.481.52-.623.235-.146.506-.22.813-.22.435 0 .762.12.981.36.225.239.337.61.337 1.112v2.285h-.739v-2.24c0-.328-.066-.562-.198-.704-.127-.146-.322-.22-.586-.22-.312 0-.561.098-.747.294-.185.19-.278.449-.278.776v2.094h-.74Zm5.776.066c-.4 0-.703-.107-.908-.322-.205-.22-.307-.547-.307-.981v-1.882h-.718v-.572h.718v-.974l.739-.197v1.171h1.026v.572h-1.026v1.816c0 .273.049.468.147.585.098.118.239.176.425.176.092 0 .173-.007.241-.022.073-.02.139-.041.198-.066v.6c-.073.03-.159.052-.256.067-.098.02-.191.029-.279.029Zm-29.899 9c-.4 0-.703-.107-.908-.322-.205-.22-.308-.547-.308-.981v-1.882h-.717v-.572h.717v-.974l.74-.197v1.171h1.025v.572h-1.025v1.816c0 .273.049.468.146.585.098.118.24.176.425.176.093 0 .173-.007.242-.022.073-.02.139-.041.197-.066v.6c-.073.03-.158.052-.256.067-.098.02-.19.029-.278.029Zm1.225-.066v-5.39h.739v2.483h-.102c.107-.278.281-.488.52-.63.239-.146.515-.22.827-.22.44 0 .767.123.982.367.214.239.322.602.322 1.09v2.3h-.74v-2.255c0-.318-.063-.547-.19-.689-.122-.146-.318-.22-.586-.22-.312 0-.564.098-.754.293-.186.19-.279.445-.279.762v2.11h-.739Zm6.047.066c-.596 0-1.064-.168-1.406-.505-.342-.337-.513-.803-.513-1.399 0-.386.074-.722.22-1.01.151-.288.359-.51.622-.667.269-.161.579-.242.93-.242.347 0 .638.074.872.22.234.147.412.354.534.623.122.263.184.576.184.937v.234h-2.783v-.424h2.277l-.124.095c0-.366-.083-.65-.249-.85-.161-.205-.396-.307-.703-.307-.342 0-.606.12-.791.358-.186.235-.278.56-.278.975v.073c0 .434.105.761.315.981.214.22.517.33.908.33.214 0 .415-.03.6-.088.19-.064.371-.166.542-.308l.242.505a1.805 1.805 0 0 1-.623.352 2.532 2.532 0 0 1-.776.117Zm2.131 1.596-.175-.6c.229-.049.419-.108.571-.176.156-.068.285-.159.388-.27a1.42 1.42 0 0 0 .264-.418l.183-.432-.015.3-1.604-3.757h.791l1.245 3.076h-.198l1.245-3.076h.762l-1.692 3.955c-.107.244-.222.449-.344.615-.122.166-.254.3-.395.403a1.78 1.78 0 0 1-.469.241 3.57 3.57 0 0 1-.557.14Zm4.357-5.06-.322-.249c.142-.146.237-.283.286-.41.053-.132.08-.263.08-.395l.198.154h-.615v-.865h.871v.594c0 .22-.036.424-.11.615a1.663 1.663 0 0 1-.388.556Zm1.452 3.398v-2.775c0-.152-.004-.303-.014-.454a6.92 6.92 0 0 0-.03-.462h.718l.081.952h-.117c.048-.23.131-.42.248-.57.118-.152.259-.265.425-.338a1.345 1.345 0 0 1 .733-.095.955.955 0 0 1 .161.03l-.008.659a.74.74 0 0 0-.219-.06 1.373 1.373 0 0 0-.22-.014.99.99 0 0 0-.549.147.89.89 0 0 0-.344.38 1.165 1.165 0 0 0-.118.52v2.08h-.747Zm4.432.066c-.596 0-1.065-.168-1.406-.505-.342-.337-.513-.803-.513-1.399 0-.386.073-.722.22-1.01.151-.288.359-.51.622-.667.269-.161.579-.242.93-.242.347 0 .637.074.872.22.234.147.412.354.534.623.122.263.183.576.183.937v.234h-2.782v-.424h2.277l-.125.095c0-.366-.082-.65-.248-.85-.162-.205-.396-.307-.703-.307-.342 0-.606.12-.791.358-.186.235-.279.56-.279.975v.073c0 .434.105.761.315.981.215.22.518.33.908.33.215 0 .415-.03.601-.088.19-.064.371-.166.542-.308l.241.505a1.8 1.8 0 0 1-.622.352 2.532 2.532 0 0 1-.776.117Zm-19.813 9a2.93 2.93 0 0 1-.849-.117 1.81 1.81 0 0 1-.644-.33l.227-.505c.18.137.38.24.6.308.22.068.444.102.674.102.268 0 .471-.046.608-.139a.463.463 0 0 0 .205-.395.392.392 0 0 0-.132-.308c-.083-.078-.222-.137-.418-.176l-.703-.139c-.312-.068-.549-.185-.71-.351a.877.877 0 0 1-.242-.637c0-.22.059-.415.176-.586.122-.171.293-.305.513-.403.224-.098.485-.147.783-.147.274 0 .528.04.762.118.234.078.429.19.586.337l-.235.49a1.667 1.667 0 0 0-.512-.293 1.603 1.603 0 0 0-.579-.11c-.273 0-.476.052-.608.154a.488.488 0 0 0-.197.403c0 .127.039.232.117.315.083.078.212.139.388.183l.703.139c.332.068.581.18.747.337.166.156.249.366.249.63 0 .23-.064.43-.19.6-.127.171-.303.3-.528.388a2.161 2.161 0 0 1-.791.132Zm3.692 0c-.445 0-.779-.12-1.004-.359-.219-.244-.329-.617-.329-1.12v-2.278h.739V82.4c0 .308.064.535.191.681.127.147.32.22.578.22.293 0 .53-.098.711-.293.18-.195.271-.454.271-.776v-2.095h.739v3.691h-.718v-.79h.096a1.292 1.292 0 0 1-.491.636c-.225.147-.486.22-.783.22Zm4.949 0c-.322 0-.603-.08-.842-.242a1.144 1.144 0 0 1-.476-.659h.081v.835h-.733v-5.39h.74v2.52h-.088c.083-.274.242-.489.476-.645.239-.161.52-.242.842-.242.327 0 .613.079.857.235.244.151.432.37.564.659.137.283.205.625.205 1.025 0 .395-.068.737-.205 1.025-.132.283-.322.5-.571.652a1.578 1.578 0 0 1-.85.227Zm-.183-.579c.318 0 .574-.11.769-.329.195-.225.293-.557.293-.996 0-.444-.098-.776-.293-.996a.969.969 0 0 0-.769-.337c-.322 0-.581.113-.776.337-.19.22-.286.55-.286.989 0 .44.096.771.286.996.195.224.454.337.776.337Zm2.244 2.132c-.078 0-.169-.008-.271-.023a1.037 1.037 0 0 1-.278-.073v-.6c.063.02.134.036.212.051.073.02.144.03.212.03.191 0 .335-.062.432-.184.103-.117.154-.312.154-.585v-3.926h.74v3.977c0 .44-.098.771-.293.996-.195.224-.498.337-.908.337Zm.395-6.079V78.6h.864v.769h-.864Zm3.567 4.526c-.596 0-1.065-.168-1.406-.505-.342-.337-.513-.803-.513-1.399 0-.386.073-.722.22-1.01.151-.288.359-.51.622-.667.269-.161.579-.242.93-.242.347 0 .637.074.872.22.234.147.412.354.534.623.122.263.183.576.183.937v.234h-2.782v-.424h2.277l-.124.095c0-.366-.083-.65-.249-.85-.162-.205-.396-.307-.703-.307-.342 0-.606.12-.791.358-.186.235-.279.56-.279.975v.073c0 .434.105.761.315.981.215.22.518.33.908.33.215 0 .415-.03.601-.088.19-.064.371-.166.542-.308l.241.505a1.79 1.79 0 0 1-.622.352 2.532 2.532 0 0 1-.776.117Zm3.909 0c-.371 0-.695-.076-.974-.227a1.62 1.62 0 0 1-.637-.666c-.146-.293-.219-.64-.219-1.04 0-.396.075-.735.227-1.018.151-.283.363-.498.637-.644a1.96 1.96 0 0 1 .966-.228c.24 0 .472.042.696.125.225.078.41.19.557.337l-.242.52a1.325 1.325 0 0 0-.461-.293 1.339 1.339 0 0 0-.498-.103c-.352 0-.628.113-.828.337-.2.225-.3.55-.3.974 0 .43.1.76.3.989.2.23.476.344.828.344.156 0 .319-.03.49-.088.171-.063.327-.163.469-.3l.242.52a1.587 1.587 0 0 1-.572.344 2.055 2.055 0 0 1-.681.117Zm3.479 0c-.401 0-.703-.107-.908-.322-.205-.22-.308-.547-.308-.981v-1.882h-.717v-.572h.717v-.974l.74-.197v1.171h1.025v.572h-1.025v1.816c0 .273.049.468.146.585.098.118.239.176.425.176.093 0 .173-.007.242-.022.073-.02.139-.041.197-.066v.6c-.073.03-.158.052-.256.067-.098.02-.19.029-.278.029Zm2.895 0c-.595 0-1.064-.168-1.406-.505-.341-.337-.512-.803-.512-1.399 0-.386.073-.722.219-1.01.152-.288.359-.51.623-.667a1.77 1.77 0 0 1 .93-.242c.346 0 .637.074.871.22.235.147.413.354.535.623.122.263.183.576.183.937v.234h-2.783v-.424h2.278l-.125.095c0-.366-.083-.65-.249-.85-.161-.205-.395-.307-.703-.307-.342 0-.605.12-.791.358-.185.235-.278.56-.278.975v.073c0 .434.105.761.315.981.215.22.517.33.908.33.215 0 .415-.03.6-.088.191-.064.371-.166.542-.308l.242.505a1.8 1.8 0 0 1-.622.352 2.538 2.538 0 0 1-.777.117Zm3.705 0c-.322 0-.608-.076-.857-.227a1.518 1.518 0 0 1-.571-.659c-.132-.288-.198-.63-.198-1.025 0-.4.066-.742.198-1.026.137-.283.327-.5.571-.651a1.58 1.58 0 0 1 .857-.234c.317 0 .596.08.835.241.244.156.405.371.483.644h-.088v-2.519h.74v5.39h-.732v-.835h.087a1.177 1.177 0 0 1-.483.66c-.239.16-.52.241-.842.241Zm.183-.579a.97.97 0 0 0 .769-.336c.195-.225.293-.557.293-.996 0-.44-.098-.77-.293-.989a.97.97 0 0 0-.769-.337c-.322 0-.581.113-.776.337-.191.22-.286.55-.286.989 0 .44.095.771.286.996.195.224.454.337.776.337Zm6.254.579c-.401 0-.703-.107-.908-.322-.205-.22-.308-.547-.308-.981v-1.882h-.718v-.572h.718v-.974l.74-.197v1.171h1.025v.572h-1.025v1.816c0 .273.048.468.146.585.098.118.239.176.425.176.093 0 .173-.007.241-.022.074-.02.14-.041.198-.066v.6c-.073.03-.158.052-.256.067-.098.02-.191.029-.278.029Zm2.771 0c-.367 0-.684-.076-.952-.227a1.592 1.592 0 0 1-.623-.659c-.146-.288-.22-.63-.22-1.025 0-.396.074-.735.22-1.018.147-.288.354-.508.623-.66.268-.155.585-.234.952-.234.366 0 .683.079.952.235.273.151.483.37.629.659.152.283.227.622.227 1.018 0 .395-.075.737-.227 1.025a1.575 1.575 0 0 1-.629.659 1.909 1.909 0 0 1-.952.227Zm0-.579c.322 0 .578-.112.769-.336.19-.225.285-.557.285-.996 0-.44-.095-.77-.285-.989-.191-.224-.447-.337-.769-.337-.318 0-.572.113-.762.337-.19.22-.286.55-.286.989 0 .44.093.771.279.996.19.224.446.337.769.337ZM175.732 6.809l-1.809-5.163h.791l1.501 4.46h-.271l1.59-4.46h.578l1.494 4.46h-.249l1.552-4.46h.747l-1.823 5.163h-.652l-1.45-4.248h.154l-1.509 4.248h-.644Zm6.687 0v-5.39h.74V3.9h-.102a1.21 1.21 0 0 1 .519-.63c.24-.146.516-.22.828-.22.439 0 .766.123.981.367.215.24.322.603.322 1.091v2.3h-.739V4.553c0-.317-.064-.547-.191-.688-.122-.147-.317-.22-.585-.22-.313 0-.564.098-.755.293-.185.19-.278.444-.278.762v2.109h-.74Zm6.048.066c-.596 0-1.065-.169-1.406-.506-.342-.337-.513-.803-.513-1.398 0-.386.073-.723.22-1.011.151-.288.358-.51.622-.666.269-.162.579-.242.93-.242.347 0 .637.073.871.22.235.146.413.354.535.622.122.264.183.576.183.937v.235h-2.783V4.64h2.278l-.125.095c0-.366-.083-.65-.249-.85-.161-.204-.395-.307-.703-.307-.341 0-.605.12-.79.359-.186.234-.279.559-.279.974v.073c0 .435.105.762.315.981.215.22.518.33.908.33.215 0 .415-.03.601-.088.19-.063.371-.166.542-.307l.241.505a1.8 1.8 0 0 1-.622.351 2.532 2.532 0 0 1-.776.118Zm2.276-.066V4.033c0-.151-.005-.302-.014-.454a6.922 6.922 0 0 0-.03-.461h.718l.08.952h-.117c.049-.23.132-.42.249-.571.117-.152.259-.264.425-.337a1.344 1.344 0 0 1 .732-.095.913.913 0 0 1 .161.029l-.007.659a.737.737 0 0 0-.22-.059 1.355 1.355 0 0 0-.219-.014.995.995 0 0 0-.55.146.897.897 0 0 0-.344.38 1.177 1.177 0 0 0-.117.52v2.08h-.747Zm4.431.066c-.595 0-1.064-.169-1.406-.506-.341-.337-.512-.803-.512-1.398 0-.386.073-.723.22-1.011.151-.288.358-.51.622-.666a1.77 1.77 0 0 1 .93-.242c.347 0 .637.073.871.22.235.146.413.354.535.622.122.264.183.576.183.937v.235h-2.783V4.64h2.278l-.125.095c0-.366-.083-.65-.249-.85-.161-.204-.395-.307-.703-.307-.341 0-.605.12-.791.359-.185.234-.278.559-.278.974v.073c0 .435.105.762.315.981.215.22.518.33.908.33.215 0 .415-.03.601-.088.19-.063.371-.166.541-.307l.242.505a1.8 1.8 0 0 1-.622.351 2.533 2.533 0 0 1-.777.118Zm5.679 0c-.4 0-.703-.108-.908-.323-.205-.22-.307-.546-.307-.981V3.689h-.718v-.571h.718v-.974l.739-.198v1.172h1.026v.571h-1.026v1.816c0 .274.049.469.147.586.097.117.239.176.425.176.092 0 .173-.008.241-.022.073-.02.139-.042.198-.066v.6c-.073.03-.159.052-.256.066a1.43 1.43 0 0 1-.279.03Zm1.225-.066v-5.39h.74V3.9h-.103c.108-.278.281-.488.52-.63.24-.146.515-.22.828-.22.439 0 .766.123.981.367.215.24.322.603.322 1.091v2.3h-.739V4.553c0-.317-.064-.547-.191-.688-.122-.147-.317-.22-.585-.22-.313 0-.564.098-.755.293-.185.19-.278.444-.278.762v2.109h-.74Zm6.047.066c-.595 0-1.064-.169-1.406-.506-.341-.337-.512-.803-.512-1.398 0-.386.073-.723.22-1.011.151-.288.358-.51.622-.666a1.77 1.77 0 0 1 .93-.242c.347 0 .637.073.871.22.235.146.413.354.535.622.122.264.183.576.183.937v.235h-2.783V4.64h2.278l-.125.095c0-.366-.083-.65-.249-.85-.161-.204-.395-.307-.703-.307-.341 0-.605.12-.791.359-.185.234-.278.559-.278.974v.073c0 .435.105.762.315.981.215.22.518.33.908.33.215 0 .415-.03.601-.088.19-.063.371-.166.541-.307l.242.505a1.8 1.8 0 0 1-.622.351 2.533 2.533 0 0 1-.777.118Zm2.132 1.596-.176-.6c.23-.05.42-.108.571-.176.157-.069.286-.159.388-.271.103-.108.191-.247.264-.418l.183-.432-.015.3-1.603-3.756h.791l1.245 3.075h-.198l1.245-3.075h.761l-1.691 3.954c-.108.244-.222.45-.344.615a1.84 1.84 0 0 1-.396.403 1.767 1.767 0 0 1-.469.242c-.17.058-.356.105-.556.139Zm5.988-1.662v-5.39h.74v5.39h-.74Zm1.824 0V3.118h.739v3.69h-.739Zm-.059-4.46V1.58h.857v.769h-.857Zm2.966 4.46-1.582-3.691h.791L221.43 6.2h-.212l1.267-3.083h.754l-1.589 3.69h-.674Zm4.491.066c-.595 0-1.064-.169-1.406-.506-.341-.337-.512-.803-.512-1.398 0-.386.073-.723.219-1.011.152-.288.359-.51.623-.666a1.77 1.77 0 0 1 .93-.242c.347 0 .637.073.871.22.235.146.413.354.535.622.122.264.183.576.183.937v.235h-2.783V4.64h2.278l-.125.095c0-.366-.083-.65-.249-.85-.161-.204-.395-.307-.703-.307-.342 0-.605.12-.791.359-.185.234-.278.559-.278.974v.073c0 .435.105.762.315.981.215.22.517.33.908.33.215 0 .415-.03.6-.088.191-.063.371-.166.542-.307l.242.505a1.8 1.8 0 0 1-.622.351 2.538 2.538 0 0 1-.777.118Z"/>
    <path stroke="var(--fl-fgColor, #000)" stroke-dasharray="7.07 7.07" stroke-width="1.414" d="m163.266 66.29-33.426 5.512-23.481 19.573-35.911 49.07 39.226 44.659h67.127l29.559-50.999 16.85-59.27-59.944-8.546Z"/>
  </svg>