<svg xmlns="http://www.w3.org/2000/svg" width="691" height="508" fill="none" viewBox="0 0 691 508">
    <circle cx="334.225" cy="243.501" r="224.094" fill="var(--fl-bgColor, #B3B3B3)" stroke="var(--fl-fgColor, gray)" stroke-dasharray="2 2"/>
    <circle cx="334.225" cy="243.488" r="176.906" fill="var(--fl-bgColor, #CCC)" stroke="var(--fl-fgColor, gray)" stroke-dasharray="2 2"/>
    <circle cx="334.225" cy="243.498" r="104.283" fill="var(--fl-bgColor, #F4F4F4)" stroke="var(--fl-fgColor, gray)" stroke-dasharray="2 2"/>
    <path stroke="var(--fl-fgColor, gray)" stroke-dasharray="2 2" d="M333.058 468V17.477M174.775 401.662l318.17-318.169M176.064 84.08l317.004 317.004M558.82 243.238H111.185"/>
    <path fill="var(--fl-bgColor, #E8B91C)" fill-opacity=".5" stroke="var(--fl-fgColor, #997D1E)" stroke-width="3.4" d="m246.438 200.863-.271.222-.162.311-50.802 97.571-8.776-112.742 109.541-25.747-49.53 40.385ZM299.713 333.693l.196.054.203.007 77.803 2.502L276.07 390.43l-76.079-84.384 99.722 27.647Zm131.375-127.538-.086-.259-32.296-97.738-.621-1.88-1.764.9-79.548 40.522 103.189-97.406 67.219 131.964v121.806l-97.907 27.544 41.407-48.435.407-.477v-76.541Z"/>
    <path fill="var(--fl-bgColor, #559D57)" fill-opacity=".5" stroke="var(--fl-fgColor, #2A842D)" stroke-width="3.4" d="M431.088 204.583v79.383l-47.302 52.467-85.727-3.362-105.849-29.133 54.944-104.056 53.716-43.443 97.189-50.422 33.029 98.566Z"/>
    <circle cx="196.519" cy="302.468" r="10.199" fill="var(--fl-fgColor, #2A842D)"/>
    <circle cx="247.512" cy="200.48" r="10.199" fill="var(--fl-fgColor, #2A842D)"/>
    <circle cx="307.005" cy="154.585" r="10.199" fill="var(--fl-fgColor, #2A842D)"/>
    <circle cx="401.342" cy="102.743" r="9.349" fill="var(--fl-fgColor, #2A842D)"/>
    <circle cx="432.788" cy="207.281" r="10.199" fill="var(--fl-fgColor, #2A842D)"/>
    <circle cx="432.788" cy="283.769" r="10.199" fill="var(--fl-fgColor, #2A842D)"/>
    <circle cx="487.181" cy="304.167" r="8.499" fill="var(--fl-bgColor, #E8B91C)" stroke="var(--fl-fgColor, #997D1E)" stroke-width="3.4"/>
    <circle cx="487.181" cy="181.785" r="8.499" fill="var(--fl-bgColor, #E8B91C)" stroke="var(--fl-fgColor, #997D1E)" stroke-width="3.4"/>
    <circle cx="420.889" cy="49.203" r="8.499" fill="var(--fl-bgColor, #E8B91C)" stroke="var(--fl-fgColor, #997D1E)" stroke-width="3.4"/>
    <circle cx="188.02" cy="186.882" r="8.499" fill="var(--fl-bgColor, #E8B91C)" stroke="var(--fl-fgColor, #997D1E)" stroke-width="3.4"/>
    <circle cx="274.709" cy="390.855" r="8.499" fill="var(--fl-bgColor, #E8B91C)" stroke="var(--fl-fgColor, #997D1E)" stroke-width="3.4"/>
    <circle cx="385.194" cy="334.765" r="10.199" fill="var(--fl-fgColor, #2A842D)"/>
    <circle cx="298.506" cy="331.363" r="10.199" fill="var(--fl-fgColor, #2A842D)"/>
    <path fill="var(--fl-fgColor, #222)" d="M93.633 12.672V.264h1.83v12.408h-1.83Zm4.585 0v-6.74c0-.341-.018-.687-.053-1.04a34.26 34.26 0 0 0-.088-1.09h1.725l.158 1.865h-.21c.246-.645.621-1.144 1.126-1.496.516-.352 1.132-.528 1.848-.528.727 0 1.32.176 1.777.528.47.34.792.868.968 1.584h-.281a3.038 3.038 0 0 1 1.196-1.531c.564-.387 1.215-.58 1.954-.58.986 0 1.725.287 2.218.861.492.575.739 1.467.739 2.676v5.49h-1.778V7.27c0-.775-.135-1.332-.405-1.672-.258-.352-.68-.528-1.267-.528-.68 0-1.22.234-1.619.704-.399.469-.598 1.103-.598 1.9v4.999h-1.778V7.269c0-.775-.135-1.332-.405-1.672-.258-.352-.68-.528-1.267-.528-.681 0-1.214.234-1.602.704-.387.469-.58 1.103-.58 1.9v4.999h-1.778Zm15.623 0v-6.74c0-.341-.017-.687-.052-1.04a36.44 36.44 0 0 0-.088-1.09h1.724l.159 1.865h-.211c.246-.645.621-1.144 1.126-1.496.516-.352 1.132-.528 1.848-.528.727 0 1.32.176 1.778.528.469.34.792.868.968 1.584h-.282a3.045 3.045 0 0 1 1.197-1.531c.563-.387 1.214-.58 1.953-.58.986 0 1.725.287 2.218.861.493.575.739 1.467.739 2.676v5.49h-1.777V7.27c0-.775-.135-1.332-.405-1.672-.258-.352-.681-.528-1.267-.528-.681 0-1.221.234-1.62.704-.399.469-.598 1.103-.598 1.9v4.999h-1.778V7.269c0-.775-.135-1.332-.404-1.672-.259-.352-.681-.528-1.268-.528-.68 0-1.214.234-1.601.704-.387.469-.581 1.103-.581 1.9v4.999h-1.778Zm15.624 0v-8.87h1.777v8.87h-1.777Zm-.141-10.719V.105h2.059v1.848h-2.059Zm8.519 14.661a7.94 7.94 0 0 1-2.183-.281 5.592 5.592 0 0 1-1.742-.845l.44-1.303c.364.247.722.44 1.074.581a5.05 5.05 0 0 0 1.108.335c.388.07.787.105 1.197.105.845 0 1.479-.217 1.901-.65.434-.423.651-1.04.651-1.849v-2.376h.176a2.723 2.723 0 0 1-1.161 1.567c-.575.375-1.244.563-2.007.563-.809 0-1.513-.176-2.112-.528a3.714 3.714 0 0 1-1.373-1.531c-.316-.67-.475-1.455-.475-2.359 0-.903.159-1.684.475-2.34.329-.658.787-1.162 1.373-1.514.599-.364 1.303-.546 2.112-.546.775 0 1.443.194 2.007.58.575.376.956.893 1.144 1.55l-.159-.141.159-1.83h1.724a17.502 17.502 0 0 0-.14 2.13v6.564c0 1.338-.358 2.358-1.074 3.062-.704.704-1.742 1.056-3.115 1.056Zm-.123-5.544c.774 0 1.39-.264 1.848-.792.469-.528.704-1.273.704-2.235s-.235-1.701-.704-2.218c-.458-.516-1.074-.774-1.848-.774-.798 0-1.432.258-1.901.774-.458.517-.687 1.256-.687 2.218s.229 1.707.687 2.235c.469.528 1.103.792 1.901.792Zm6.869 1.602v-6.67c0-.364-.012-.728-.035-1.092a16.664 16.664 0 0 0-.071-1.109h1.725l.194 2.288h-.282c.118-.551.317-1.009.599-1.372a2.613 2.613 0 0 1 1.02-.81 3.23 3.23 0 0 1 1.76-.229c.13.012.259.035.388.07l-.018 1.585a1.77 1.77 0 0 0-.528-.141 3.3 3.3 0 0 0-.528-.035c-.516 0-.956.117-1.32.352a2.152 2.152 0 0 0-.827.915 2.823 2.823 0 0 0-.282 1.25v4.998h-1.795Zm9.98.158c-.786 0-1.472-.182-2.059-.545-.586-.364-1.044-.892-1.373-1.584-.316-.693-.475-1.514-.475-2.464 0-.962.159-1.784.475-2.464.329-.68.787-1.203 1.373-1.567.587-.375 1.273-.563 2.059-.563.775 0 1.45.194 2.024.58.575.388.957.916 1.144 1.585h-.193l.176-2.007h1.725l-.106 1.092a15.93 15.93 0 0 0-.035 1.038v6.74h-1.778v-1.97h.194a2.725 2.725 0 0 1-1.162 1.566c-.575.376-1.238.563-1.989.563Zm.44-1.39c.763 0 1.373-.27 1.831-.81.469-.54.704-1.337.704-2.393 0-1.056-.235-1.848-.704-2.376-.458-.54-1.068-.81-1.831-.81-.774 0-1.396.27-1.865.81-.458.528-.687 1.32-.687 2.376 0 1.056.229 1.854.687 2.393.457.54 1.079.81 1.865.81Zm10.338 1.39c-.962 0-1.689-.258-2.182-.774-.493-.528-.739-1.314-.739-2.359V5.174h-1.725V3.801h1.725v-2.34l1.777-.476v2.816h2.464v1.373h-2.464V9.54c0 .657.118 1.127.352 1.408.235.282.575.423 1.021.423.223 0 .417-.018.581-.053.176-.047.334-.1.475-.159v1.444c-.176.07-.381.123-.616.158-.235.047-.458.07-.669.07Zm2.944-.158v-8.87h1.778v8.87h-1.778Zm-.14-10.719V.105h2.059v1.848h-2.059Zm8.325 10.877c-.88 0-1.643-.182-2.288-.545a3.825 3.825 0 0 1-1.496-1.584c-.352-.693-.528-1.514-.528-2.464s.176-1.766.528-2.447a3.69 3.69 0 0 1 1.496-1.584c.645-.375 1.408-.563 2.288-.563.88 0 1.643.188 2.288.563a3.658 3.658 0 0 1 1.513 1.584c.364.68.546 1.496.546 2.447 0 .95-.182 1.771-.546 2.464a3.79 3.79 0 0 1-1.513 1.584c-.645.363-1.408.545-2.288.545Zm0-1.39c.774 0 1.39-.27 1.848-.81.457-.54.686-1.337.686-2.393 0-1.056-.229-1.848-.686-2.376-.458-.54-1.074-.81-1.848-.81-.763 0-1.373.27-1.831.81-.457.528-.686 1.32-.686 2.376 0 1.056.223 1.854.669 2.393.457.54 1.073.81 1.848.81Zm6.425 1.232v-6.74c0-.341-.018-.687-.053-1.04a33.403 33.403 0 0 0-.088-1.09h1.725l.158 1.865h-.211c.27-.657.686-1.156 1.25-1.496.563-.352 1.214-.528 1.953-.528 1.044 0 1.831.288 2.359.862.539.575.809 1.467.809 2.676v5.49h-1.777V7.287c0-.786-.159-1.35-.476-1.69-.305-.351-.774-.527-1.408-.527-.751 0-1.349.234-1.795.704-.446.457-.669 1.08-.669 1.865v5.034h-1.777Zm18.17.158a7.04 7.04 0 0 1-2.042-.281c-.622-.188-1.138-.452-1.549-.792l.546-1.215c.434.329.915.575 1.443.74a5.423 5.423 0 0 0 1.619.246c.646 0 1.132-.112 1.461-.335.329-.234.493-.551.493-.95a.943.943 0 0 0-.317-.74c-.199-.187-.534-.328-1.003-.422l-1.69-.334c-.751-.164-1.32-.446-1.707-.845-.387-.399-.581-.91-.581-1.53 0-.529.141-.998.423-1.409.293-.41.704-.733 1.232-.968.539-.235 1.167-.352 1.883-.352.657 0 1.267.094 1.83.282.563.187 1.033.457 1.408.81l-.563 1.178a4.006 4.006 0 0 0-1.232-.704 3.846 3.846 0 0 0-1.39-.264c-.657 0-1.144.124-1.461.37-.317.246-.475.57-.475.968 0 .305.093.557.281.757.2.188.511.334.933.44l1.69.334c.797.165 1.396.434 1.795.81.399.375.598.88.598 1.513 0 .552-.152 1.033-.457 1.444-.305.41-.728.721-1.268.933-.539.21-1.173.316-1.9.316Zm9.084 0c-.962 0-1.689-.258-2.182-.774-.493-.528-.739-1.314-.739-2.359V5.174h-1.725V3.801h1.725v-2.34l1.777-.476v2.816h2.464v1.373h-2.464V9.54c0 .657.117 1.127.352 1.408.235.282.575.423 1.021.423.223 0 .416-.018.581-.053.176-.047.334-.1.475-.159v1.444c-.176.07-.381.123-.616.158-.235.047-.458.07-.669.07Zm6.341 0c-.786 0-1.472-.182-2.059-.545-.587-.364-1.044-.892-1.373-1.584-.317-.693-.475-1.514-.475-2.464 0-.962.158-1.784.475-2.464.329-.68.786-1.203 1.373-1.567.587-.375 1.273-.563 2.059-.563.774 0 1.449.194 2.024.58.575.388.956.916 1.144 1.585h-.194l.176-2.007h1.725l-.105 1.092c-.024.352-.036.698-.036 1.038v6.74h-1.777v-1.97h.193a2.72 2.72 0 0 1-1.161 1.566c-.575.376-1.238.563-1.989.563Zm.44-1.39c.763 0 1.373-.27 1.83-.81.47-.54.704-1.337.704-2.393 0-1.056-.234-1.848-.704-2.376-.457-.54-1.067-.81-1.83-.81-.774 0-1.396.27-1.866.81-.457.528-.686 1.32-.686 2.376 0 1.056.229 1.854.686 2.393.458.54 1.08.81 1.866.81Zm10.338 1.39c-.962 0-1.69-.258-2.183-.774-.492-.528-.739-1.314-.739-2.359V5.174h-1.725V3.801h1.725v-2.34l1.778-.476v2.816h2.464v1.373h-2.464V9.54c0 .657.117 1.127.352 1.408.235.282.575.423 1.021.423.223 0 .416-.018.58-.053a3.8 3.8 0 0 0 .476-.159v1.444c-.176.07-.382.123-.616.158-.235.047-.458.07-.669.07Zm6.094 0c-1.067 0-1.871-.287-2.411-.862-.528-.587-.792-1.484-.792-2.693V3.801h1.778V9.24c0 .74.152 1.285.457 1.637.305.352.769.528 1.391.528.704 0 1.273-.235 1.707-.704.434-.47.651-1.092.651-1.866V3.801h1.778v8.87h-1.725v-1.9h.229c-.247.657-.64 1.167-1.179 1.531-.54.352-1.168.528-1.884.528Zm10.207 0a7.038 7.038 0 0 1-2.041-.281c-.622-.188-1.138-.452-1.549-.792l.546-1.215c.434.329.915.575 1.443.74a5.418 5.418 0 0 0 1.619.246c.645 0 1.132-.112 1.461-.335a1.11 1.11 0 0 0 .493-.95.943.943 0 0 0-.317-.74c-.2-.187-.534-.328-1.003-.422l-1.69-.334c-.751-.164-1.32-.446-1.707-.845-.387-.399-.581-.91-.581-1.53 0-.529.141-.998.422-1.409.294-.41.704-.733 1.232-.968.54-.235 1.168-.352 1.884-.352.657 0 1.267.094 1.83.282.563.187 1.032.457 1.408.81l-.563 1.178a4.017 4.017 0 0 0-1.232-.704 3.847 3.847 0 0 0-1.391-.264c-.657 0-1.144.124-1.46.37-.317.246-.476.57-.476.968 0 .305.094.557.282.757.199.188.51.334.933.44l1.689.334c.798.165 1.397.434 1.796.81.398.375.598.88.598 1.513 0 .552-.153 1.033-.458 1.444-.305.41-.727.721-1.267.933-.54.21-1.173.316-1.901.316ZM1.688 152.039v-12.408h1.83v10.842h6.09v1.566h-7.92Zm12.949.158c-.786 0-1.473-.181-2.06-.545-.586-.364-1.043-.892-1.372-1.584-.317-.692-.475-1.514-.475-2.464 0-.962.158-1.784.475-2.464.329-.681.786-1.203 1.373-1.567.587-.375 1.273-.563 2.059-.563.774 0 1.45.194 2.024.581.575.387.956.915 1.144 1.584h-.194l.176-2.006h1.725l-.105 1.091c-.024.352-.036.698-.036 1.038v6.741h-1.777v-1.971h.193a2.723 2.723 0 0 1-1.161 1.566c-.575.376-1.238.563-1.989.563Zm.44-1.39c.763 0 1.373-.27 1.83-.81.47-.539.704-1.337.704-2.393 0-1.056-.234-1.848-.704-2.376-.457-.54-1.067-.81-1.83-.81-.774 0-1.396.27-1.866.81-.457.528-.686 1.32-.686 2.376 0 1.056.229 1.854.686 2.393.458.54 1.08.81 1.866.81Zm6.888 1.232v-6.741c0-.34-.017-.686-.053-1.038a34.01 34.01 0 0 0-.088-1.091h1.725l.159 1.865h-.212c.27-.657.687-1.155 1.25-1.496.563-.352 1.214-.528 1.954-.528 1.044 0 1.83.288 2.358.863.54.575.81 1.466.81 2.675v5.491H28.09v-5.386c0-.786-.158-1.349-.475-1.689-.305-.352-.775-.528-1.408-.528-.751 0-1.35.235-1.795.704-.446.457-.67 1.079-.67 1.865v5.034h-1.777Zm14.428 3.942a7.92 7.92 0 0 1-2.182-.281 5.586 5.586 0 0 1-1.743-.845l.44-1.302c.364.246.722.44 1.074.58a5.06 5.06 0 0 0 1.109.335c.387.07.786.105 1.197.105.844 0 1.478-.217 1.9-.651.434-.422.652-1.038.652-1.848v-2.376h.176a2.728 2.728 0 0 1-1.162 1.567c-.575.375-1.244.563-2.006.563-.81 0-1.514-.176-2.112-.528a3.706 3.706 0 0 1-1.373-1.531c-.317-.669-.475-1.455-.475-2.359 0-.903.158-1.683.475-2.341.328-.657.786-1.161 1.373-1.513.598-.364 1.302-.546 2.112-.546.774 0 1.443.194 2.006.581.575.376.956.892 1.144 1.549l-.158-.141.158-1.83h1.725a17.128 17.128 0 0 0-.141 2.129v6.565c0 1.338-.358 2.358-1.074 3.062-.704.704-1.742 1.056-3.115 1.056Zm-.123-5.544c.774 0 1.39-.264 1.848-.792.47-.528.704-1.273.704-2.235s-.235-1.701-.704-2.217c-.458-.517-1.074-.775-1.848-.775-.798 0-1.431.258-1.9.775-.458.516-.687 1.255-.687 2.217 0 .962.229 1.707.686 2.235.47.528 1.103.792 1.901.792Zm10.055 1.76c-1.068 0-1.872-.287-2.411-.862-.528-.587-.792-1.484-.792-2.693v-5.473h1.777v5.438c0 .739.153 1.285.458 1.637.305.352.769.528 1.39.528.704 0 1.273-.235 1.708-.704.434-.469.65-1.091.65-1.866v-5.033h1.778v8.87H49.16v-1.901h.228c-.246.657-.64 1.168-1.179 1.531-.54.352-1.167.528-1.883.528Zm10.559 0c-.786 0-1.473-.181-2.06-.545-.586-.364-1.044-.892-1.372-1.584-.317-.692-.475-1.514-.475-2.464 0-.962.158-1.784.475-2.464.328-.681.786-1.203 1.373-1.567.586-.375 1.273-.563 2.059-.563.774 0 1.449.194 2.024.581.575.387.956.915 1.144 1.584h-.194l.176-2.006h1.725l-.105 1.091c-.024.352-.036.698-.036 1.038v6.741h-1.777v-1.971h.193a2.724 2.724 0 0 1-1.161 1.566c-.575.376-1.238.563-1.99.563Zm.44-1.39c.763 0 1.373-.27 1.83-.81.47-.539.704-1.337.704-2.393 0-1.056-.234-1.848-.704-2.376-.457-.54-1.068-.81-1.83-.81-.774 0-1.396.27-1.866.81-.457.528-.686 1.32-.686 2.376 0 1.056.229 1.854.686 2.393.458.54 1.08.81 1.866.81Zm10.883 5.174a7.92 7.92 0 0 1-2.182-.281 5.584 5.584 0 0 1-1.743-.845l.44-1.302c.364.246.722.44 1.074.58a5.06 5.06 0 0 0 1.109.335c.387.07.786.105 1.197.105.844 0 1.478-.217 1.9-.651.435-.422.652-1.038.652-1.848v-2.376h.176a2.729 2.729 0 0 1-1.162 1.567c-.575.375-1.244.563-2.006.563-.81 0-1.514-.176-2.112-.528a3.706 3.706 0 0 1-1.373-1.531c-.317-.669-.475-1.455-.475-2.359 0-.903.158-1.683.475-2.341.328-.657.786-1.161 1.373-1.513.598-.364 1.302-.546 2.112-.546.774 0 1.443.194 2.006.581.575.376.956.892 1.144 1.549l-.158-.141.158-1.83h1.725a16.983 16.983 0 0 0-.14 2.129v6.565c0 1.338-.359 2.358-1.075 3.062-.704.704-1.742 1.056-3.115 1.056Zm-.123-5.544c.775 0 1.39-.264 1.848-.792.47-.528.704-1.273.704-2.235s-.235-1.701-.704-2.217c-.457-.517-1.073-.775-1.848-.775-.798 0-1.431.258-1.9.775-.458.516-.687 1.255-.687 2.217 0 .962.229 1.707.686 2.235.47.528 1.103.792 1.901.792Zm11.005 1.76c-1.431 0-2.557-.404-3.379-1.214-.821-.81-1.232-1.93-1.232-3.362 0-.926.176-1.736.528-2.428a3.95 3.95 0 0 1 1.496-1.602c.646-.387 1.39-.581 2.235-.581.834 0 1.532.176 2.095.528.563.352.991.851 1.285 1.496.293.634.44 1.385.44 2.253v.563h-6.688v-1.021h5.473l-.299.229c0-.88-.2-1.56-.598-2.041-.388-.493-.95-.74-1.69-.74-.821 0-1.455.288-1.9.863-.447.563-.67 1.343-.67 2.341v.176c0 1.044.253 1.83.757 2.358.517.528 1.244.792 2.183.792.516 0 .997-.07 1.443-.211a4.054 4.054 0 0 0 1.302-.739l.581 1.214c-.41.364-.91.645-1.496.845a6.076 6.076 0 0 1-1.866.281ZM5.194 350.94c-1.725 0-3.01-.434-3.854-1.303-.833-.868-1.25-2.153-1.25-3.854v-7.41h1.83v7.375c0 1.196.259 2.1.775 2.71.528.598 1.361.898 2.5.898 1.079 0 1.894-.3 2.446-.898.551-.61.827-1.514.827-2.71v-7.375h1.795v7.41c0 1.701-.428 2.986-1.285 3.854-.856.869-2.118 1.303-3.784 1.303Zm7.75-.159v-6.741c0-.34-.017-.686-.052-1.038a33.955 33.955 0 0 0-.088-1.091h1.724l.159 1.865h-.211c.27-.657.686-1.155 1.25-1.496.562-.352 1.214-.528 1.953-.528 1.044 0 1.83.288 2.358.863.54.575.81 1.467.81 2.675v5.491h-1.778v-5.385c0-.786-.158-1.35-.475-1.69-.305-.352-.774-.528-1.408-.528-.75 0-1.35.235-1.795.704-.446.458-.669 1.08-.669 1.866v5.033h-1.778Zm14.534.159c-1.431 0-2.558-.405-3.38-1.215-.82-.809-1.231-1.93-1.231-3.361 0-.927.176-1.737.528-2.429a3.955 3.955 0 0 1 1.496-1.602c.645-.387 1.39-.581 2.235-.581.833 0 1.531.176 2.094.528.564.352.992.851 1.285 1.496.294.634.44 1.385.44 2.253v.563h-6.688v-1.02h5.474l-.3.228c0-.88-.199-1.56-.598-2.041-.387-.493-.95-.739-1.69-.739-.82 0-1.454.287-1.9.862-.446.563-.669 1.344-.669 2.341v.176c0 1.044.252 1.83.757 2.358.516.528 1.244.792 2.182.792.516 0 .998-.07 1.443-.211a4.036 4.036 0 0 0 1.303-.739l.58 1.214c-.41.364-.909.646-1.495.845a6.076 6.076 0 0 1-1.866.282Zm4.171-.159 4.03-4.998v.845l-3.819-4.717h2.13l2.693 3.467h-.634l2.693-3.467h2.112l-3.784 4.699v-.81l4.013 4.981h-2.13l-2.904-3.713h.634l-2.922 3.713H31.65Zm10.79 3.802V344.04c0-.34-.018-.686-.054-1.038a34.245 34.245 0 0 0-.088-1.091h1.725l.176 2.006h-.193a2.77 2.77 0 0 1 1.126-1.584c.575-.387 1.255-.581 2.042-.581.786 0 1.472.188 2.059.564.586.363 1.038.886 1.355 1.566.328.681.493 1.502.493 2.464 0 .95-.164 1.772-.493 2.464-.317.692-.769 1.22-1.355 1.584-.587.364-1.273.546-2.06.546-.774 0-1.448-.188-2.023-.564a2.769 2.769 0 0 1-1.127-1.566h.194v5.773h-1.778Zm4.294-5.034c.774 0 1.39-.27 1.848-.809.469-.54.704-1.338.704-2.394s-.235-1.848-.704-2.376c-.458-.54-1.074-.81-1.848-.81-.775 0-1.397.27-1.866.81-.458.528-.686 1.32-.686 2.376 0 1.056.228 1.854.686 2.394.47.539 1.091.809 1.866.809Zm10.531 1.391c-1.431 0-2.558-.405-3.38-1.215-.82-.809-1.231-1.93-1.231-3.361 0-.927.176-1.737.528-2.429a3.955 3.955 0 0 1 1.496-1.602c.645-.387 1.39-.581 2.235-.581.833 0 1.531.176 2.094.528.564.352.992.851 1.285 1.496.294.634.44 1.385.44 2.253v.563h-6.688v-1.02h5.474l-.3.228c0-.88-.199-1.56-.598-2.041-.387-.493-.95-.739-1.69-.739-.82 0-1.454.287-1.9.862-.446.563-.669 1.344-.669 2.341v.176c0 1.044.252 1.83.757 2.358.516.528 1.244.792 2.182.792.516 0 .998-.07 1.443-.211a4.037 4.037 0 0 0 1.303-.739l.58 1.214c-.41.364-.909.646-1.495.845a6.077 6.077 0 0 1-1.866.282Zm9.397 0c-.892 0-1.672-.182-2.341-.546a3.872 3.872 0 0 1-1.531-1.602c-.352-.704-.528-1.537-.528-2.499 0-.95.181-1.766.545-2.446a3.677 3.677 0 0 1 1.531-1.549c.657-.364 1.432-.546 2.324-.546.575 0 1.132.1 1.672.3.54.187.985.457 1.337.809l-.58 1.25a3.17 3.17 0 0 0-1.11-.704 3.22 3.22 0 0 0-1.196-.247c-.845 0-1.508.27-1.989.81-.481.54-.722 1.32-.722 2.341 0 1.032.24 1.824.722 2.376.481.551 1.144.827 1.989.827.375 0 .768-.07 1.179-.211.41-.153.786-.393 1.126-.722l.581 1.25c-.364.352-.821.628-1.373.827a4.945 4.945 0 0 1-1.636.282Zm8.36 0c-.963 0-1.69-.258-2.183-.775-.493-.528-.739-1.314-.739-2.358v-4.523h-1.725v-1.373H72.1v-2.341l1.778-.475v2.816h2.464v1.373h-2.464v4.364c0 .658.117 1.127.352 1.408.234.282.575.423 1.02.423.223 0 .417-.018.581-.053.176-.047.335-.1.475-.158v1.443a2.78 2.78 0 0 1-.616.158 3.412 3.412 0 0 1-.668.071Zm6.959 0c-1.432 0-2.558-.405-3.38-1.215-.82-.809-1.232-1.93-1.232-3.361 0-.927.176-1.737.528-2.429a3.955 3.955 0 0 1 1.496-1.602c.646-.387 1.39-.581 2.236-.581.833 0 1.53.176 2.094.528.563.352.992.851 1.285 1.496.293.634.44 1.385.44 2.253v.563h-6.688v-1.02h5.473l-.299.228c0-.88-.2-1.56-.598-2.041-.387-.493-.95-.739-1.69-.739-.821 0-1.455.287-1.9.862-.447.563-.67 1.344-.67 2.341v.176c0 1.044.253 1.83.757 2.358.517.528 1.244.792 2.183.792.516 0 .997-.07 1.443-.211a4.037 4.037 0 0 0 1.302-.739l.581 1.214c-.41.364-.91.646-1.496.845a6.077 6.077 0 0 1-1.865.282Zm8.903 0c-.774 0-1.46-.182-2.059-.546-.586-.364-1.044-.892-1.373-1.584-.316-.692-.475-1.514-.475-2.464 0-.962.159-1.783.475-2.464.329-.68.787-1.203 1.373-1.566.599-.376 1.285-.564 2.06-.564.762 0 1.43.194 2.006.581.587.376.974.892 1.161 1.549h-.21v-6.054h1.777v12.953h-1.76v-2.006h.211a2.827 2.827 0 0 1-1.162 1.584c-.575.387-1.25.581-2.024.581Zm.44-1.391c.763 0 1.38-.27 1.848-.809.47-.54.704-1.338.704-2.394s-.234-1.848-.704-2.376c-.469-.54-1.085-.81-1.848-.81-.774 0-1.396.27-1.865.81-.458.528-.687 1.32-.687 2.376 0 1.056.23 1.854.687 2.394.47.539 1.091.809 1.865.809ZM48.327 371.94c-1.432 0-2.558-.405-3.38-1.215-.821-.809-1.232-1.93-1.232-3.361 0-.927.176-1.737.528-2.429a3.955 3.955 0 0 1 1.496-1.602c.646-.387 1.39-.581 2.236-.581.833 0 1.53.176 2.094.528.563.352.991.851 1.285 1.496.293.634.44 1.385.44 2.253v.563h-6.688v-1.02h5.473l-.299.228c0-.88-.2-1.56-.598-2.041-.388-.493-.95-.739-1.69-.739-.821 0-1.455.287-1.9.862-.447.563-.67 1.344-.67 2.341v.176c0 1.044.253 1.83.757 2.358.517.528 1.244.792 2.183.792.516 0 .997-.07 1.443-.211a4.037 4.037 0 0 0 1.302-.739l.581 1.214c-.41.364-.91.646-1.496.845a6.077 6.077 0 0 1-1.865.282Zm7.991-.159-3.802-8.87h1.901l2.992 7.409h-.51l3.045-7.409h1.812l-3.819 8.87h-1.619Zm10.794.159c-1.431 0-2.557-.405-3.379-1.215-.821-.809-1.232-1.93-1.232-3.361 0-.927.176-1.737.528-2.429a3.955 3.955 0 0 1 1.496-1.602c.646-.387 1.39-.581 2.235-.581.834 0 1.532.176 2.095.528.563.352.991.851 1.285 1.496.293.634.44 1.385.44 2.253v.563h-6.688v-1.02h5.473l-.299.228c0-.88-.2-1.56-.598-2.041-.388-.493-.95-.739-1.69-.739-.821 0-1.455.287-1.9.862-.447.563-.67 1.344-.67 2.341v.176c0 1.044.253 1.83.757 2.358.516.528 1.244.792 2.183.792.516 0 .997-.07 1.443-.211a4.036 4.036 0 0 0 1.302-.739l.581 1.214c-.41.364-.91.646-1.496.845a6.076 6.076 0 0 1-1.866.282Zm5.507-.159v-6.741c0-.34-.017-.686-.052-1.038a33.955 33.955 0 0 0-.088-1.091h1.724l.159 1.865h-.211c.27-.657.686-1.155 1.25-1.496.562-.352 1.214-.528 1.953-.528 1.044 0 1.83.288 2.358.863.54.575.81 1.467.81 2.675v5.491h-1.778v-5.385c0-.786-.158-1.35-.475-1.69-.305-.352-.774-.528-1.408-.528-.75 0-1.35.235-1.795.704-.446.458-.669 1.08-.669 1.866v5.033h-1.778Zm13.883.159c-.962 0-1.69-.258-2.183-.775-.492-.528-.739-1.314-.739-2.358v-4.523h-1.725v-1.373h1.725v-2.341l1.778-.475v2.816h2.464v1.373h-2.464v4.364c0 .658.117 1.127.352 1.408.235.282.575.423 1.02.423.224 0 .417-.018.581-.053.176-.047.335-.1.476-.158v1.443a2.78 2.78 0 0 1-.616.158 3.411 3.411 0 0 1-.67.071Zm5.989 0a7.03 7.03 0 0 1-2.042-.282c-.622-.188-1.138-.452-1.549-.792l.546-1.214c.434.328.915.575 1.443.739a5.428 5.428 0 0 0 1.62.246c.645 0 1.132-.111 1.46-.334a1.11 1.11 0 0 0 .493-.951.942.942 0 0 0-.317-.739c-.2-.187-.534-.328-1.003-.422l-1.69-.335c-.75-.164-1.32-.445-1.707-.844-.387-.399-.58-.91-.58-1.532 0-.528.14-.997.422-1.408.293-.41.704-.733 1.232-.968.54-.234 1.167-.352 1.883-.352.657 0 1.267.094 1.83.282.564.188 1.033.458 1.408.81l-.563 1.179a4.003 4.003 0 0 0-1.232-.704 3.845 3.845 0 0 0-1.39-.264c-.657 0-1.144.123-1.461.369a1.17 1.17 0 0 0-.475.968c0 .306.094.558.281.757.2.188.51.335.933.44l1.69.335c.798.164 1.396.434 1.795.809.399.376.598.88.598 1.514 0 .551-.152 1.032-.457 1.443-.305.411-.728.722-1.267.933-.54.211-1.174.317-1.901.317ZM141.681 486.047l5.526-12.408h1.566l5.615 12.408h-1.883l-1.532-3.52.775.493h-7.515l.827-.493-1.531 3.52h-1.848Zm6.283-10.402-2.675 6.319-.423-.405h6.248l-.352.405-2.728-6.319h-.07Zm11.709 10.56c-.892 0-1.672-.182-2.341-.545a3.886 3.886 0 0 1-1.531-1.602c-.352-.704-.528-1.537-.528-2.499 0-.951.182-1.766.546-2.447a3.682 3.682 0 0 1 1.531-1.548c.657-.364 1.431-.546 2.323-.546.575 0 1.132.1 1.672.299.54.188.986.458 1.338.81l-.581 1.249a3.202 3.202 0 0 0-1.109-.704 3.212 3.212 0 0 0-1.197-.246c-.844 0-1.507.27-1.988.81-.481.539-.722 1.32-.722 2.34 0 1.033.241 1.825.722 2.376.481.552 1.144.828 1.988.828.376 0 .769-.071 1.18-.212.41-.152.786-.393 1.126-.721l.581 1.249c-.364.352-.822.628-1.373.828a4.97 4.97 0 0 1-1.637.281Zm8.611 0c-.892 0-1.672-.182-2.341-.545a3.886 3.886 0 0 1-1.531-1.602c-.352-.704-.528-1.537-.528-2.499 0-.951.182-1.766.546-2.447a3.676 3.676 0 0 1 1.531-1.548c.657-.364 1.431-.546 2.323-.546.575 0 1.132.1 1.672.299.54.188.986.458 1.338.81l-.581 1.249a3.202 3.202 0 0 0-1.109-.704 3.216 3.216 0 0 0-1.197-.246c-.844 0-1.507.27-1.988.81-.482.539-.722 1.32-.722 2.34 0 1.033.24 1.825.722 2.376.481.552 1.144.828 1.988.828.376 0 .769-.071 1.18-.212.41-.152.786-.393 1.126-.721l.581 1.249c-.364.352-.822.628-1.373.828a4.97 4.97 0 0 1-1.637.281Zm8.523 0c-.88 0-1.643-.182-2.288-.545a3.83 3.83 0 0 1-1.496-1.584c-.352-.693-.528-1.514-.528-2.464 0-.951.176-1.766.528-2.447a3.692 3.692 0 0 1 1.496-1.584c.645-.375 1.408-.563 2.288-.563.88 0 1.643.188 2.288.563a3.663 3.663 0 0 1 1.514 1.584c.363.681.545 1.496.545 2.447 0 .95-.182 1.771-.545 2.464a3.798 3.798 0 0 1-1.514 1.584c-.645.363-1.408.545-2.288.545Zm0-1.39c.774 0 1.39-.27 1.848-.81.458-.539.686-1.337.686-2.393 0-1.056-.228-1.848-.686-2.376-.458-.54-1.074-.81-1.848-.81-.763 0-1.373.27-1.83.81-.458.528-.687 1.32-.687 2.376 0 1.056.223 1.854.669 2.393.458.54 1.074.81 1.848.81Zm6.425 1.232v-6.741c0-.34-.018-.686-.053-1.038a33.45 33.45 0 0 0-.088-1.092h1.725l.158 1.866h-.211c.247-.645.622-1.144 1.127-1.496.516-.352 1.132-.528 1.848-.528.727 0 1.32.176 1.777.528.47.34.792.868.968 1.584h-.281a3.037 3.037 0 0 1 1.196-1.531c.564-.387 1.215-.581 1.954-.581.986 0 1.725.288 2.218.862.492.575.739 1.467.739 2.676v5.491h-1.778v-5.403c0-.775-.135-1.332-.405-1.672-.258-.352-.68-.528-1.267-.528-.68 0-1.22.234-1.619.704-.399.469-.598 1.103-.598 1.9v4.999h-1.778v-5.403c0-.775-.135-1.332-.405-1.672-.258-.352-.68-.528-1.267-.528-.68 0-1.214.234-1.602.704-.387.469-.58 1.103-.58 1.9v4.999h-1.778Zm15.623 0v-6.741c0-.34-.017-.686-.052-1.038a36.49 36.49 0 0 0-.088-1.092h1.724l.159 1.866h-.211c.246-.645.622-1.144 1.126-1.496.516-.352 1.132-.528 1.848-.528.728 0 1.32.176 1.778.528.469.34.792.868.968 1.584h-.282a3.044 3.044 0 0 1 1.197-1.531c.563-.387 1.214-.581 1.953-.581.986 0 1.725.288 2.218.862.493.575.739 1.467.739 2.676v5.491h-1.777v-5.403c0-.775-.135-1.332-.405-1.672-.258-.352-.681-.528-1.267-.528-.681 0-1.221.234-1.62.704-.398.469-.598 1.103-.598 1.9v4.999h-1.778v-5.403c0-.775-.134-1.332-.404-1.672-.258-.352-.681-.528-1.268-.528-.68 0-1.214.234-1.601.704-.387.469-.581 1.103-.581 1.9v4.999h-1.778Zm19.426.158c-.88 0-1.643-.182-2.288-.545a3.825 3.825 0 0 1-1.496-1.584c-.352-.693-.528-1.514-.528-2.464 0-.951.176-1.766.528-2.447.352-.692.85-1.22 1.496-1.584.645-.375 1.408-.563 2.288-.563.88 0 1.642.188 2.288.563a3.66 3.66 0 0 1 1.513 1.584c.364.681.546 1.496.546 2.447 0 .95-.182 1.771-.546 2.464a3.796 3.796 0 0 1-1.513 1.584c-.646.363-1.408.545-2.288.545Zm0-1.39c.774 0 1.39-.27 1.848-.81.457-.539.686-1.337.686-2.393 0-1.056-.229-1.848-.686-2.376-.458-.54-1.074-.81-1.848-.81-.763 0-1.373.27-1.831.81-.457.528-.686 1.32-.686 2.376 0 1.056.223 1.854.669 2.393.457.54 1.073.81 1.848.81Zm9.821 1.39c-.774 0-1.461-.182-2.059-.545-.587-.364-1.044-.892-1.373-1.584-.317-.693-.475-1.514-.475-2.464 0-.962.158-1.784.475-2.464.329-.681.786-1.203 1.373-1.567.598-.375 1.285-.563 2.059-.563.763 0 1.432.194 2.007.581.586.375.974.892 1.161 1.549h-.211v-6.055h1.778v12.954h-1.76v-2.007h.211a2.83 2.83 0 0 1-1.162 1.584c-.575.388-1.249.581-2.024.581Zm.44-1.39c.763 0 1.379-.27 1.848-.81.47-.539.704-1.337.704-2.393 0-1.056-.234-1.848-.704-2.376-.469-.54-1.085-.81-1.848-.81-.774 0-1.396.27-1.865.81-.458.528-.687 1.32-.687 2.376 0 1.056.229 1.854.687 2.393.469.54 1.091.81 1.865.81Zm10.285 1.39c-.786 0-1.472-.182-2.059-.545-.587-.364-1.044-.892-1.373-1.584-.317-.693-.475-1.514-.475-2.464 0-.962.158-1.784.475-2.464.329-.681.786-1.203 1.373-1.567.587-.375 1.273-.563 2.059-.563.775 0 1.449.194 2.024.581.575.387.957.915 1.144 1.584h-.193l.176-2.007h1.724l-.105 1.092a15.25 15.25 0 0 0-.035 1.038v6.741h-1.778v-1.971h.194a2.724 2.724 0 0 1-1.162 1.566c-.575.376-1.238.563-1.989.563Zm.44-1.39c.763 0 1.373-.27 1.831-.81.469-.539.704-1.337.704-2.393 0-1.056-.235-1.848-.704-2.376-.458-.54-1.068-.81-1.831-.81-.774 0-1.396.27-1.865.81-.458.528-.687 1.32-.687 2.376 0 1.056.229 1.854.687 2.393.457.54 1.079.81 1.865.81Zm10.338 1.39c-.962 0-1.69-.258-2.182-.774-.493-.528-.74-1.314-.74-2.359v-4.523h-1.724v-1.373h1.724v-2.34l1.778-.476v2.816h2.464v1.373h-2.464v4.365c0 .657.117 1.126.352 1.408.235.282.575.422 1.021.422.223 0 .416-.017.581-.052.176-.047.334-.1.475-.159v1.443a2.72 2.72 0 0 1-.616.159c-.235.047-.458.07-.669.07Zm2.944-.158v-8.871h1.778v8.871h-1.778Zm-.141-10.719v-1.848h2.06v1.848h-2.06Zm-89.076 31.877c-.88 0-1.643-.182-2.288-.545a3.83 3.83 0 0 1-1.496-1.584c-.352-.693-.528-1.514-.528-2.464 0-.951.176-1.766.528-2.447a3.692 3.692 0 0 1 1.496-1.584c.645-.375 1.408-.563 2.288-.563.88 0 1.643.188 2.288.563a3.663 3.663 0 0 1 1.514 1.584c.363.681.545 1.496.545 2.447 0 .95-.182 1.771-.545 2.464a3.798 3.798 0 0 1-1.514 1.584c-.645.363-1.408.545-2.288.545Zm0-1.39c.774 0 1.39-.27 1.848-.81.458-.539.686-1.337.686-2.393 0-1.056-.228-1.848-.686-2.376-.458-.54-1.074-.81-1.848-.81-.763 0-1.373.27-1.83.81-.458.528-.687 1.32-.687 2.376 0 1.056.223 1.854.669 2.393.458.54 1.074.81 1.848.81Zm6.425 1.232v-6.741c0-.34-.018-.686-.053-1.038a33.45 33.45 0 0 0-.088-1.092h1.725l.158 1.866h-.211c.27-.657.687-1.156 1.25-1.496.563-.352 1.214-.528 1.953-.528 1.045 0 1.831.288 2.359.862.54.575.809 1.467.809 2.676v5.491h-1.777v-5.386c0-.786-.159-1.349-.475-1.689-.305-.352-.775-.528-1.408-.528-.751 0-1.35.234-1.796.704-.445.457-.668 1.079-.668 1.865v5.034h-1.778Zm13.478.158c-.74 0-1.42-.094-2.042-.281-.622-.188-1.138-.452-1.549-.792l.546-1.215c.434.329.915.575 1.443.739a5.398 5.398 0 0 0 1.619.247c.646 0 1.133-.112 1.461-.335.329-.234.493-.551.493-.95a.943.943 0 0 0-.317-.739c-.199-.188-.534-.329-1.003-.423l-1.69-.334c-.751-.164-1.32-.446-1.707-.845-.387-.399-.581-.909-.581-1.531 0-.528.141-.997.423-1.408.293-.411.704-.733 1.232-.968.539-.235 1.167-.352 1.883-.352.657 0 1.267.094 1.83.282.563.187 1.033.457 1.408.809l-.563 1.179a4.022 4.022 0 0 0-1.232-.704 3.846 3.846 0 0 0-1.39-.264c-.657 0-1.144.124-1.461.37a1.167 1.167 0 0 0-.475.968c0 .305.094.557.281.757.2.188.511.334.933.44l1.69.334c.798.165 1.396.434 1.795.81.399.375.598.88.598 1.513 0 .552-.152 1.033-.457 1.444-.305.41-.728.721-1.268.932-.539.212-1.173.317-1.9.317Zm13.809 0c-.786 0-1.472-.182-2.059-.545-.586-.364-1.044-.892-1.373-1.584-.316-.693-.475-1.514-.475-2.464 0-.962.159-1.784.475-2.464.329-.681.787-1.203 1.373-1.567.587-.375 1.273-.563 2.059-.563.775 0 1.45.194 2.024.581.575.387.957.915 1.144 1.584h-.193l.176-2.007h1.725l-.106 1.092c-.023.352-.035.698-.035 1.038v6.741h-1.778v-1.971h.194a2.724 2.724 0 0 1-1.162 1.566c-.575.376-1.238.563-1.989.563Zm.44-1.39c.763 0 1.373-.27 1.831-.81.469-.539.704-1.337.704-2.393 0-1.056-.235-1.848-.704-2.376-.458-.54-1.068-.81-1.831-.81-.774 0-1.396.27-1.865.81-.458.528-.687 1.32-.687 2.376 0 1.056.229 1.854.687 2.393.457.54 1.079.81 1.865.81Zm10.338 1.39c-.962 0-1.689-.258-2.182-.774-.493-.528-.739-1.314-.739-2.359v-4.523h-1.725v-1.373h1.725v-2.34l1.777-.476v2.816h2.464v1.373h-2.464v4.365c0 .657.118 1.126.352 1.408.235.282.575.422 1.021.422.223 0 .417-.017.581-.052.176-.047.334-.1.475-.159v1.443a2.72 2.72 0 0 1-.616.159c-.235.047-.458.07-.669.07Zm10.048-.158-3.362-8.871h1.848l2.623 7.392h-.458l2.693-7.392h1.373l2.675 7.392h-.44l2.622-7.392h1.778l-3.379 8.871h-1.62l-2.78-7.533h.827l-2.746 7.533h-1.654Zm16.636.158c-.88 0-1.643-.182-2.288-.545a3.825 3.825 0 0 1-1.496-1.584c-.352-.693-.528-1.514-.528-2.464 0-.951.176-1.766.528-2.447.352-.692.85-1.22 1.496-1.584.645-.375 1.408-.563 2.288-.563.88 0 1.642.188 2.288.563a3.66 3.66 0 0 1 1.513 1.584c.364.681.546 1.496.546 2.447 0 .95-.182 1.771-.546 2.464a3.796 3.796 0 0 1-1.513 1.584c-.646.363-1.408.545-2.288.545Zm0-1.39c.774 0 1.39-.27 1.848-.81.457-.539.686-1.337.686-2.393 0-1.056-.229-1.848-.686-2.376-.458-.54-1.074-.81-1.848-.81-.763 0-1.373.27-1.831.81-.457.528-.686 1.32-.686 2.376 0 1.056.223 1.854.669 2.393.457.54 1.073.81 1.848.81Zm6.389 1.232v-6.671c0-.363-.011-.727-.035-1.091a17.41 17.41 0 0 0-.07-1.109h1.724l.194 2.288h-.282c.118-.551.317-1.009.599-1.372a2.607 2.607 0 0 1 1.021-.81c.41-.176.839-.264 1.284-.264.188 0 .347.012.476.035.129.012.258.035.387.071l-.018 1.584a1.783 1.783 0 0 0-.528-.141 3.241 3.241 0 0 0-.528-.035c-.516 0-.956.117-1.32.352a2.16 2.16 0 0 0-.827.915 2.823 2.823 0 0 0-.282 1.249v4.999h-1.795Zm6.67 0v-12.954h1.777v7.955h.036l3.872-3.872h2.2l-4.682 4.664.018-.792 5.051 4.999h-2.253l-4.206-4.066h-.036v4.066h-1.777ZM438.128 489.697c-1.267 0-2.347-.258-3.239-.774a5.19 5.19 0 0 1-2.059-2.2c-.469-.962-.704-2.094-.704-3.397 0-1.302.235-2.429.704-3.379a5.19 5.19 0 0 1 2.059-2.2c.892-.516 1.972-.774 3.239-.774.88 0 1.666.129 2.358.387a5.236 5.236 0 0 1 1.813 1.126l-.634 1.461c-.563-.481-1.114-.827-1.654-1.038-.528-.212-1.144-.317-1.848-.317-1.338 0-2.358.411-3.062 1.232-.704.821-1.056 1.989-1.056 3.502 0 1.514.352 2.687 1.056 3.52.704.822 1.724 1.232 3.062 1.232.704 0 1.32-.105 1.848-.317.54-.211 1.091-.563 1.654-1.056l.634 1.461a5.465 5.465 0 0 1-1.813 1.144c-.692.258-1.478.387-2.358.387Zm9.494 0c-.88 0-1.643-.181-2.288-.545a3.825 3.825 0 0 1-1.496-1.584c-.352-.692-.528-1.514-.528-2.464 0-.951.176-1.766.528-2.447.352-.692.85-1.22 1.496-1.584.645-.375 1.408-.563 2.288-.563.88 0 1.642.188 2.288.563a3.66 3.66 0 0 1 1.513 1.584c.364.681.546 1.496.546 2.447 0 .95-.182 1.772-.546 2.464a3.796 3.796 0 0 1-1.513 1.584c-.646.364-1.408.545-2.288.545Zm0-1.39c.774 0 1.39-.27 1.848-.81.457-.539.686-1.337.686-2.393 0-1.056-.229-1.848-.686-2.376-.458-.54-1.074-.81-1.848-.81-.763 0-1.373.27-1.831.81-.457.528-.686 1.32-.686 2.376 0 1.056.223 1.854.669 2.393.457.54 1.073.81 1.848.81Zm9.469 1.39a7.028 7.028 0 0 1-2.041-.281c-.622-.188-1.138-.452-1.549-.792l.546-1.215c.434.329.915.575 1.443.74a5.424 5.424 0 0 0 1.619.246c.645 0 1.132-.111 1.461-.334.328-.235.493-.552.493-.951a.943.943 0 0 0-.317-.739c-.2-.188-.534-.328-1.003-.422l-1.69-.335c-.751-.164-1.32-.446-1.707-.845-.387-.398-.581-.909-.581-1.531 0-.528.141-.997.422-1.408.294-.41.704-.733 1.232-.968.54-.234 1.168-.352 1.884-.352.657 0 1.267.094 1.83.282.563.188 1.032.457 1.408.809l-.563 1.18a4.013 4.013 0 0 0-1.232-.704 3.847 3.847 0 0 0-1.391-.264c-.657 0-1.144.123-1.46.369a1.17 1.17 0 0 0-.476.968c0 .305.094.558.282.757.199.188.51.334.933.44l1.689.334c.798.165 1.397.435 1.796.81.398.376.598.88.598 1.514 0 .551-.153 1.032-.458 1.443-.305.411-.727.721-1.267.933-.54.211-1.173.316-1.901.316Zm9.085 0c-.962 0-1.69-.258-2.183-.774-.492-.528-.739-1.314-.739-2.358v-4.524h-1.725v-1.372h1.725v-2.341l1.778-.475v2.816h2.464v1.372h-2.464v4.365c0 .657.117 1.127.352 1.408.234.282.575.423 1.021.423.223 0 .416-.018.58-.053.176-.047.335-.1.476-.159v1.444a2.79 2.79 0 0 1-.616.158c-.235.047-.458.07-.669.07Zm11.438 0c-.88 0-1.643-.181-2.288-.545a3.825 3.825 0 0 1-1.496-1.584c-.352-.692-.528-1.514-.528-2.464 0-.951.176-1.766.528-2.447.352-.692.85-1.22 1.496-1.584.645-.375 1.408-.563 2.288-.563.88 0 1.642.188 2.288.563a3.66 3.66 0 0 1 1.513 1.584c.364.681.546 1.496.546 2.447 0 .95-.182 1.772-.546 2.464a3.796 3.796 0 0 1-1.513 1.584c-.646.364-1.408.545-2.288.545Zm0-1.39c.774 0 1.39-.27 1.848-.81.457-.539.686-1.337.686-2.393 0-1.056-.229-1.848-.686-2.376-.458-.54-1.074-.81-1.848-.81-.763 0-1.373.27-1.831.81-.457.528-.686 1.32-.686 2.376 0 1.056.223 1.854.669 2.393.457.54 1.073.81 1.848.81Zm6.867 1.232v-7.498h-1.725v-1.372h2.218l-.493.457v-1.408c0-1.044.264-1.836.792-2.376.528-.551 1.302-.827 2.323-.827.246 0 .505.018.774.053.27.035.493.094.669.176v1.443a2.404 2.404 0 0 0-.528-.141 2.675 2.675 0 0 0-.616-.07c-.34 0-.633.07-.88.211-.246.129-.44.329-.581.598-.129.27-.193.616-.193 1.039v1.197l-.264-.352h2.675v1.372h-2.394v7.498h-1.777Zm10.351 0v-12.954h1.778v12.954h-1.778Zm4.383 0v-8.87h1.778v8.87h-1.778Zm-.141-10.718v-1.848h2.06v1.848h-2.06Zm7.129 10.718-3.802-8.87h1.901l2.992 7.409h-.51l3.045-7.409h1.812l-3.819 8.87h-1.619Zm6.848 0v-8.87h1.778v8.87h-1.778Zm-.141-10.718v-1.848h2.06v1.848h-2.06Zm4.524 10.718v-6.741c0-.34-.018-.686-.053-1.038a33.166 33.166 0 0 0-.088-1.091h1.725l.158 1.865h-.211c.27-.657.687-1.155 1.25-1.496.563-.352 1.214-.528 1.953-.528 1.045 0 1.831.288 2.359.863.54.575.809 1.466.809 2.675v5.491h-1.777v-5.386c0-.786-.159-1.349-.475-1.689-.305-.352-.775-.528-1.408-.528-.751 0-1.35.235-1.796.704-.445.457-.668 1.079-.668 1.865v5.034h-1.778Zm14.428 3.942a7.917 7.917 0 0 1-2.182-.281 5.589 5.589 0 0 1-1.743-.845l.44-1.302c.364.246.722.44 1.074.58.352.153.721.264 1.109.335.387.07.786.105 1.196.105.845 0 1.479-.217 1.901-.651.434-.422.651-1.038.651-1.848v-2.376h.176a2.723 2.723 0 0 1-1.161 1.567c-.575.375-1.244.563-2.007.563-.809 0-1.513-.176-2.112-.528a3.706 3.706 0 0 1-1.372-1.531c-.317-.669-.476-1.455-.476-2.359 0-.903.159-1.683.476-2.341.328-.657.786-1.161 1.372-1.513.599-.364 1.303-.546 2.112-.546.775 0 1.444.194 2.007.581.575.376.956.892 1.144 1.549l-.159-.141.159-1.83h1.725a17.426 17.426 0 0 0-.141 2.129v6.565c0 1.338-.358 2.358-1.074 3.062-.704.704-1.742 1.056-3.115 1.056Zm-.123-5.544c.774 0 1.39-.264 1.848-.792.469-.528.704-1.273.704-2.235s-.235-1.701-.704-2.217c-.458-.517-1.074-.775-1.848-.775-.798 0-1.432.258-1.901.775-.458.516-.686 1.255-.686 2.217 0 .962.228 1.707.686 2.235.469.528 1.103.792 1.901.792ZM590.806 340.873c-.997 0-1.9-.123-2.71-.369a6.644 6.644 0 0 1-2.112-1.092l.616-1.443c.399.305.81.558 1.232.757.434.2.892.352 1.373.458.493.094 1.026.14 1.601.14.986 0 1.708-.176 2.165-.528.469-.352.704-.815.704-1.39 0-.493-.164-.874-.493-1.144-.316-.27-.88-.487-1.689-.651l-1.919-.387c-1.138-.235-1.988-.616-2.552-1.144-.551-.54-.827-1.273-.827-2.2 0-.751.2-1.408.599-1.972.398-.563.95-.997 1.654-1.302.716-.305 1.549-.458 2.499-.458.88 0 1.69.13 2.429.388.739.246 1.361.616 1.866 1.108l-.599 1.391a5.227 5.227 0 0 0-1.689-1.003c-.599-.223-1.279-.335-2.042-.335-.904 0-1.613.188-2.13.563-.504.376-.756.886-.756 1.532 0 .516.158.921.475 1.214.328.293.868.516 1.619.669l1.918.369c1.185.247 2.06.628 2.623 1.144.563.505.845 1.203.845 2.095 0 .716-.194 1.343-.581 1.883-.376.54-.915.962-1.619 1.267-.704.294-1.538.44-2.5.44Zm10.592 0c-.88 0-1.642-.182-2.288-.545a3.83 3.83 0 0 1-1.496-1.584c-.352-.693-.528-1.514-.528-2.464 0-.951.176-1.766.528-2.447a3.692 3.692 0 0 1 1.496-1.584c.646-.375 1.408-.563 2.288-.563.88 0 1.643.188 2.288.563a3.663 3.663 0 0 1 1.514 1.584c.364.681.545 1.496.545 2.447 0 .95-.181 1.771-.545 2.464a3.798 3.798 0 0 1-1.514 1.584c-.645.363-1.408.545-2.288.545Zm0-1.39c.775 0 1.391-.27 1.848-.81.458-.539.687-1.337.687-2.393 0-1.056-.229-1.848-.687-2.376-.457-.54-1.073-.81-1.848-.81-.762 0-1.373.27-1.83.81-.458.528-.687 1.32-.687 2.376 0 1.056.223 1.854.669 2.393.458.54 1.074.81 1.848.81Zm10.315 1.39c-.892 0-1.672-.182-2.341-.545a3.886 3.886 0 0 1-1.531-1.602c-.352-.704-.528-1.537-.528-2.499 0-.951.182-1.766.545-2.447a3.684 3.684 0 0 1 1.532-1.548c.657-.364 1.431-.546 2.323-.546.575 0 1.132.1 1.672.299.54.188.985.458 1.337.81l-.58 1.249a3.21 3.21 0 0 0-1.109-.704 3.22 3.22 0 0 0-1.197-.246c-.845 0-1.508.27-1.989.81-.481.539-.721 1.32-.721 2.34 0 1.033.24 1.825.721 2.376.481.552 1.144.828 1.989.828.375 0 .769-.071 1.179-.212a3.242 3.242 0 0 0 1.127-.721l.58 1.249c-.363.352-.821.628-1.372.828a4.974 4.974 0 0 1-1.637.281Zm4.893-.158v-8.871h1.778v8.871h-1.778Zm-.141-10.719v-1.848h2.059v1.848h-2.059Zm7.921 10.877c-.787 0-1.473-.182-2.06-.545-.586-.364-1.044-.892-1.372-1.584-.317-.693-.476-1.514-.476-2.464 0-.962.159-1.784.476-2.464.328-.681.786-1.203 1.372-1.567.587-.375 1.273-.563 2.06-.563.774 0 1.449.194 2.024.581.575.387.956.915 1.144 1.584h-.194l.176-2.007h1.725l-.106 1.092c-.023.352-.035.698-.035 1.038v6.741h-1.778v-1.971h.194a2.724 2.724 0 0 1-1.162 1.566c-.575.376-1.237.563-1.988.563Zm.44-1.39c.762 0 1.372-.27 1.83-.81.469-.539.704-1.337.704-2.393 0-1.056-.235-1.848-.704-2.376-.458-.54-1.068-.81-1.83-.81-.775 0-1.397.27-1.866.81-.458.528-.686 1.32-.686 2.376 0 1.056.228 1.854.686 2.393.458.54 1.079.81 1.866.81Zm6.888 1.232v-12.954h1.777v12.954h-1.777Zm12.472.158c-.787 0-1.473-.182-2.06-.545-.586-.364-1.044-.892-1.372-1.584-.317-.693-.476-1.514-.476-2.464 0-.962.159-1.784.476-2.464.328-.681.786-1.203 1.372-1.567.587-.375 1.273-.563 2.06-.563.774 0 1.449.194 2.024.581.575.387.956.915 1.144 1.584h-.194l.176-2.007h1.725l-.106 1.092c-.023.352-.035.698-.035 1.038v6.741h-1.778v-1.971h.194a2.724 2.724 0 0 1-1.162 1.566c-.575.376-1.237.563-1.988.563Zm.44-1.39c.762 0 1.372-.27 1.83-.81.469-.539.704-1.337.704-2.393 0-1.056-.235-1.848-.704-2.376-.458-.54-1.068-.81-1.83-.81-.775 0-1.397.27-1.866.81-.458.528-.686 1.32-.686 2.376 0 1.056.228 1.854.686 2.393.458.54 1.079.81 1.866.81Zm6.888 1.232v-8.871h1.777v8.871h-1.777Zm-.141-10.719v-1.848h2.059v1.848h-2.059Zm7.92 10.877c-.774 0-1.46-.182-2.059-.545-.586-.364-1.044-.892-1.373-1.584-.316-.693-.475-1.514-.475-2.464 0-.962.159-1.784.475-2.464.329-.681.787-1.203 1.373-1.567.599-.375 1.285-.563 2.059-.563.763 0 1.432.194 2.007.581.587.375.974.892 1.161 1.549h-.211v-6.055h1.778v12.954h-1.76v-2.007h.211a2.825 2.825 0 0 1-1.162 1.584c-.574.388-1.249.581-2.024.581Zm.44-1.39c.763 0 1.379-.27 1.848-.81.47-.539.704-1.337.704-2.393 0-1.056-.234-1.848-.704-2.376-.469-.54-1.085-.81-1.848-.81-.774 0-1.396.27-1.865.81-.458.528-.687 1.32-.687 2.376 0 1.056.229 1.854.687 2.393.469.54 1.091.81 1.865.81Zm-73.274 26.033v-10.542c0-.34-.017-.686-.053-1.038a30.877 30.877 0 0 0-.088-1.092h1.725l.176 2.007h-.193a2.768 2.768 0 0 1 1.126-1.584c.575-.387 1.255-.581 2.042-.581.786 0 1.472.188 2.059.563.586.364 1.038.886 1.355 1.567.328.68.493 1.502.493 2.464 0 .95-.165 1.771-.493 2.464-.317.692-.769 1.22-1.355 1.584-.587.363-1.273.545-2.059.545-.775 0-1.45-.187-2.024-.563a2.767 2.767 0 0 1-1.127-1.566h.194v5.772h-1.778Zm4.295-5.033c.774 0 1.39-.27 1.848-.81.469-.539.704-1.337.704-2.393 0-1.056-.235-1.848-.704-2.376-.458-.54-1.074-.81-1.848-.81-.775 0-1.397.27-1.866.81-.458.528-.686 1.32-.686 2.376 0 1.056.228 1.854.686 2.393.469.54 1.091.81 1.866.81Zm10.232 1.39c-.88 0-1.643-.182-2.288-.545a3.825 3.825 0 0 1-1.496-1.584c-.352-.693-.528-1.514-.528-2.464 0-.951.176-1.766.528-2.447.352-.692.85-1.22 1.496-1.584.645-.375 1.408-.563 2.288-.563.88 0 1.642.188 2.288.563a3.66 3.66 0 0 1 1.513 1.584c.364.681.546 1.496.546 2.447 0 .95-.182 1.771-.546 2.464a3.796 3.796 0 0 1-1.513 1.584c-.646.363-1.408.545-2.288.545Zm0-1.39c.774 0 1.39-.27 1.848-.81.457-.539.686-1.337.686-2.393 0-1.056-.229-1.848-.686-2.376-.458-.54-1.074-.81-1.848-.81-.763 0-1.373.27-1.831.81-.457.528-.686 1.32-.686 2.376 0 1.056.223 1.854.669 2.393.457.54 1.073.81 1.848.81Zm6.425 1.232v-12.954h1.777v12.954h-1.777Zm4.383 0v-8.871h1.777v8.871h-1.777Zm-.141-10.719v-1.848h2.059v1.848h-2.059Zm8.413 10.877c-.892 0-1.672-.182-2.341-.545a3.886 3.886 0 0 1-1.531-1.602c-.352-.704-.528-1.537-.528-2.499 0-.951.182-1.766.546-2.447a3.676 3.676 0 0 1 1.531-1.548c.657-.364 1.431-.546 2.323-.546.575 0 1.132.1 1.672.299.54.188.986.458 1.338.81l-.581 1.249a3.202 3.202 0 0 0-1.109-.704 3.22 3.22 0 0 0-1.197-.246c-.845 0-1.508.27-1.989.81-.481.539-.721 1.32-.721 2.34 0 1.033.24 1.825.721 2.376.481.552 1.144.828 1.989.828.376 0 .769-.071 1.179-.212a3.242 3.242 0 0 0 1.127-.721l.581 1.249c-.364.352-.822.628-1.373.828a4.974 4.974 0 0 1-1.637.281Zm4.893-.158v-8.871h1.778v8.871h-1.778Zm-.141-10.719v-1.848h2.06v1.848h-2.06Zm8.625 10.877c-1.432 0-2.558-.405-3.379-1.214-.822-.81-1.232-1.93-1.232-3.362 0-.927.176-1.736.528-2.429a3.938 3.938 0 0 1 1.496-1.601c.645-.387 1.39-.581 2.235-.581.833 0 1.531.176 2.094.528a3.35 3.35 0 0 1 1.285 1.496c.293.634.44 1.385.44 2.253v.563h-6.688v-1.021h5.474l-.3.229c0-.88-.199-1.56-.598-2.042-.387-.492-.95-.739-1.69-.739-.821 0-1.455.288-1.9.863-.446.563-.669 1.343-.669 2.34v.176c0 1.045.252 1.831.757 2.359.516.528 1.243.792 2.182.792.516 0 .997-.071 1.443-.211a4.042 4.042 0 0 0 1.303-.74l.58 1.215a4.32 4.32 0 0 1-1.496.845 6.1 6.1 0 0 1-1.865.281Zm8.552 0c-.74 0-1.42-.094-2.042-.281-.622-.188-1.138-.452-1.549-.792l.546-1.215c.434.329.915.575 1.443.739a5.398 5.398 0 0 0 1.619.247c.645 0 1.132-.112 1.461-.335.328-.234.493-.551.493-.95a.943.943 0 0 0-.317-.739c-.2-.188-.534-.329-1.003-.423l-1.69-.334c-.751-.164-1.32-.446-1.707-.845-.387-.399-.581-.909-.581-1.531 0-.528.141-.997.423-1.408.293-.411.704-.733 1.232-.968.539-.235 1.167-.352 1.883-.352.657 0 1.267.094 1.83.282.563.187 1.033.457 1.408.809l-.563 1.179a4.022 4.022 0 0 0-1.232-.704 3.846 3.846 0 0 0-1.39-.264c-.658 0-1.144.124-1.461.37a1.167 1.167 0 0 0-.475.968c0 .305.093.557.281.757.2.188.511.334.933.44l1.69.334c.797.165 1.396.434 1.795.81.399.375.598.88.598 1.513 0 .552-.152 1.033-.457 1.444-.306.41-.728.721-1.268.932-.539.212-1.173.317-1.9.317ZM601.616 141.151c-.997 0-1.901-.124-2.71-.37a6.663 6.663 0 0 1-2.112-1.091l.616-1.443c.399.305.809.557 1.232.756.434.2.891.352 1.373.458a8.54 8.54 0 0 0 1.601.141c.986 0 1.707-.176 2.165-.528.469-.352.704-.816.704-1.391 0-.492-.164-.874-.493-1.144-.317-.269-.88-.487-1.689-.651l-1.919-.387c-1.138-.235-1.989-.616-2.552-1.144-.551-.54-.827-1.273-.827-2.2 0-.751.199-1.408.598-1.971.399-.563.951-.998 1.655-1.303.715-.305 1.549-.457 2.499-.457.88 0 1.69.129 2.429.387.739.246 1.361.616 1.865 1.109l-.598 1.39a5.239 5.239 0 0 0-1.69-1.003c-.598-.223-1.279-.334-2.041-.334-.904 0-1.614.187-2.13.563-.504.375-.757.886-.757 1.531 0 .516.159.921.476 1.214.328.294.868.517 1.619.669l1.918.37c1.185.246 2.059.628 2.623 1.144.563.504.844 1.202.844 2.094 0 .716-.193 1.344-.58 1.883-.376.54-.916.963-1.62 1.268-.704.293-1.537.44-2.499.44Zm10.188 0c-.962 0-1.689-.259-2.182-.775-.493-.528-.739-1.314-.739-2.358v-4.523h-1.725v-1.373h1.725v-2.341l1.777-.475v2.816h2.464v1.373h-2.464v4.364c0 .657.118 1.127.352 1.408.235.282.575.423 1.021.423.223 0 .417-.018.581-.053.176-.047.334-.1.475-.158v1.443c-.176.07-.381.123-.616.158a3.402 3.402 0 0 1-.669.071Zm2.945-.159v-8.87h1.777v8.87h-1.777Zm-.141-10.718v-1.848h2.059v1.848h-2.059Zm8.519 14.661a7.923 7.923 0 0 1-2.183-.282 5.584 5.584 0 0 1-1.742-.845l.44-1.302c.364.246.721.44 1.073.581.352.152.722.264 1.109.334s.786.106 1.197.106c.845 0 1.478-.217 1.901-.652.434-.422.651-1.038.651-1.848v-2.376h.176a2.726 2.726 0 0 1-1.162 1.567c-.574.375-1.243.563-2.006.563-.81 0-1.514-.176-2.112-.528a3.708 3.708 0 0 1-1.373-1.531c-.317-.669-.475-1.455-.475-2.359 0-.903.158-1.683.475-2.34.329-.657.786-1.162 1.373-1.514.598-.364 1.302-.546 2.112-.546.774 0 1.443.194 2.006.581a2.67 2.67 0 0 1 1.144 1.549l-.158-.141.158-1.83h1.725c-.047.364-.082.727-.105 1.091a15.26 15.26 0 0 0-.036 1.038v6.565c0 1.338-.357 2.359-1.073 3.063-.704.704-1.743 1.056-3.115 1.056Zm-.124-5.544c.775 0 1.391-.264 1.848-.792.47-.528.704-1.273.704-2.236 0-.962-.234-1.701-.704-2.217-.457-.516-1.073-.775-1.848-.775-.797 0-1.431.259-1.9.775-.458.516-.687 1.255-.687 2.217 0 .963.229 1.708.687 2.236.469.528 1.103.792 1.9.792Zm6.905 1.601v-6.741c0-.34-.018-.686-.053-1.038a33.389 33.389 0 0 0-.088-1.091h1.725l.158 1.865h-.211c.247-.645.622-1.144 1.127-1.496.516-.352 1.132-.528 1.848-.528.727 0 1.32.176 1.777.528.47.341.792.869.968 1.584h-.281a3.04 3.04 0 0 1 1.196-1.531c.564-.387 1.215-.581 1.954-.581.986 0 1.725.288 2.218.863.492.575.739 1.466.739 2.675v5.491h-1.778v-5.403c0-.774-.135-1.332-.405-1.672-.258-.352-.68-.528-1.267-.528-.68 0-1.22.235-1.619.704s-.598 1.103-.598 1.901v4.998h-1.778v-5.403c0-.774-.135-1.332-.405-1.672-.258-.352-.68-.528-1.267-.528-.681 0-1.214.235-1.602.704-.387.469-.58 1.103-.58 1.901v4.998h-1.778Zm19.02.159c-.786 0-1.472-.182-2.059-.546-.587-.364-1.044-.892-1.373-1.584-.317-.692-.475-1.514-.475-2.464 0-.962.158-1.783.475-2.464.329-.681.786-1.203 1.373-1.566.587-.376 1.273-.564 2.059-.564.775 0 1.449.194 2.024.581.575.387.957.915 1.144 1.584h-.193l.176-2.006h1.724l-.105 1.091a15.25 15.25 0 0 0-.035 1.038v6.741h-1.778v-1.971h.194a2.724 2.724 0 0 1-1.162 1.566c-.575.376-1.238.564-1.989.564Zm.44-1.391c.763 0 1.373-.27 1.831-.809.469-.54.704-1.338.704-2.394s-.235-1.848-.704-2.376c-.458-.54-1.068-.81-1.831-.81-.774 0-1.396.27-1.865.81-.458.528-.687 1.32-.687 2.376 0 1.056.229 1.854.687 2.394.457.539 1.079.809 1.865.809Zm14.977 1.391c-.786 0-1.472-.182-2.059-.546-.586-.364-1.044-.892-1.373-1.584-.316-.692-.475-1.514-.475-2.464 0-.962.159-1.783.475-2.464.329-.681.787-1.203 1.373-1.566.587-.376 1.273-.564 2.059-.564.775 0 1.45.194 2.024.581.575.387.957.915 1.144 1.584h-.193l.176-2.006h1.725l-.106 1.091c-.023.352-.035.698-.035 1.038v6.741h-1.778v-1.971h.194a2.724 2.724 0 0 1-1.162 1.566c-.575.376-1.238.564-1.989.564Zm.44-1.391c.763 0 1.373-.27 1.831-.809.469-.54.704-1.338.704-2.394s-.235-1.848-.704-2.376c-.458-.54-1.068-.81-1.831-.81-.774 0-1.396.27-1.865.81-.458.528-.687 1.32-.687 2.376 0 1.056.229 1.854.687 2.394.457.539 1.079.809 1.865.809Zm6.889 1.232v-6.741c0-.34-.018-.686-.053-1.038a36.424 36.424 0 0 0-.088-1.091h1.725l.158 1.865h-.211c.27-.657.686-1.155 1.249-1.496.564-.352 1.215-.528 1.954-.528 1.044 0 1.83.288 2.358.863.54.575.81 1.466.81 2.675v5.491h-1.778v-5.385c0-.787-.158-1.35-.475-1.69-.305-.352-.774-.528-1.408-.528-.751 0-1.349.235-1.795.704-.446.458-.669 1.079-.669 1.866v5.033h-1.777Zm13.829.159c-.774 0-1.461-.182-2.059-.546-.587-.364-1.044-.892-1.373-1.584-.317-.692-.475-1.514-.475-2.464 0-.962.158-1.783.475-2.464.329-.681.786-1.203 1.373-1.566.598-.376 1.285-.564 2.059-.564.763 0 1.432.194 2.007.581.586.376.974.892 1.161 1.549h-.211v-6.054h1.778v12.953h-1.76v-2.006h.211a2.83 2.83 0 0 1-1.162 1.584c-.575.387-1.249.581-2.024.581Zm.44-1.391c.763 0 1.379-.27 1.848-.809.47-.54.704-1.338.704-2.394s-.234-1.848-.704-2.376c-.469-.54-1.085-.81-1.848-.81-.774 0-1.396.27-1.865.81-.458.528-.687 1.32-.687 2.376 0 1.056.229 1.854.687 2.394.469.539 1.091.809 1.865.809Zm-89.712 26.122a4.72 4.72 0 0 1-.652-.053 2.506 2.506 0 0 1-.668-.176v-1.443c.152.047.322.088.51.123.176.047.346.07.51.07.458 0 .804-.146 1.039-.44.246-.281.369-.751.369-1.408v-9.433h1.778v9.557c0 1.056-.235 1.853-.704 2.393-.469.54-1.197.81-2.182.81Zm.95-14.608v-1.848h2.077v1.848h-2.077Zm7.621 10.877c-1.068 0-1.871-.288-2.411-.863-.528-.586-.792-1.484-.792-2.693v-5.473h1.778v5.438c0 .739.152 1.285.457 1.637.305.352.769.528 1.391.528.704 0 1.273-.235 1.707-.704.434-.469.651-1.091.651-1.866v-5.033h1.778v8.87h-1.725v-1.901h.229c-.247.657-.64 1.168-1.18 1.532-.539.352-1.167.528-1.883.528Zm11.157 3.784a7.92 7.92 0 0 1-2.182-.282 5.584 5.584 0 0 1-1.742-.845l.44-1.302c.363.246.721.44 1.073.581.352.152.722.264 1.109.334s.786.106 1.197.106c.845 0 1.478-.217 1.901-.652.434-.422.651-1.038.651-1.848v-2.376h.176a2.726 2.726 0 0 1-1.162 1.567c-.575.375-1.243.563-2.006.563-.81 0-1.514-.176-2.112-.528a3.708 3.708 0 0 1-1.373-1.531c-.317-.669-.475-1.455-.475-2.359 0-.903.158-1.683.475-2.34.329-.657.786-1.162 1.373-1.514.598-.364 1.302-.546 2.112-.546.774 0 1.443.194 2.006.581a2.67 2.67 0 0 1 1.144 1.549l-.158-.141.158-1.83h1.725a17.5 17.5 0 0 0-.141 2.129v6.565c0 1.338-.358 2.359-1.073 3.063-.704.704-1.743 1.056-3.116 1.056Zm-.123-5.544c.775 0 1.391-.264 1.848-.792.47-.528.704-1.273.704-2.236 0-.962-.234-1.701-.704-2.217-.457-.516-1.073-.775-1.848-.775-.798 0-1.431.259-1.901.775-.457.516-.686 1.255-.686 2.217 0 .963.229 1.708.686 2.236.47.528 1.103.792 1.901.792Zm11.006 1.76c-1.432 0-2.558-.405-3.38-1.215-.821-.809-1.232-1.93-1.232-3.361 0-.927.176-1.737.528-2.429a3.96 3.96 0 0 1 1.496-1.602c.646-.387 1.391-.581 2.236-.581.833 0 1.531.176 2.094.528.563.352.991.851 1.285 1.496.293.634.44 1.385.44 2.253v.563h-6.688v-1.02h5.473l-.299.228c0-.88-.199-1.56-.598-2.041-.387-.493-.951-.739-1.69-.739-.821 0-1.455.287-1.901.862-.445.563-.668 1.343-.668 2.341v.176c0 1.044.252 1.83.756 2.358.517.528 1.244.792 2.183.792.516 0 .997-.07 1.443-.211a4.042 4.042 0 0 0 1.302-.739l.581 1.214c-.41.364-.909.646-1.496.845a6.07 6.07 0 0 1-1.865.282Zm5.507-.159v-6.741c0-.34-.018-.686-.053-1.038a36.424 36.424 0 0 0-.088-1.091h1.725l.158 1.865h-.211c.246-.645.622-1.144 1.126-1.496.517-.352 1.133-.528 1.848-.528.728 0 1.32.176 1.778.528.469.341.792.869.968 1.584h-.282a3.048 3.048 0 0 1 1.197-1.531c.563-.387 1.214-.581 1.954-.581.985 0 1.724.288 2.217.863.493.575.739 1.466.739 2.675v5.491h-1.777v-5.403c0-.774-.135-1.332-.405-1.672-.258-.352-.68-.528-1.267-.528-.681 0-1.22.235-1.619.704s-.599 1.103-.599 1.901v4.998h-1.777v-5.403c0-.774-.135-1.332-.405-1.672-.258-.352-.681-.528-1.267-.528-.681 0-1.215.235-1.602.704s-.581 1.103-.581 1.901v4.998h-1.777Zm19.724.159c-1.432 0-2.558-.405-3.379-1.215-.822-.809-1.232-1.93-1.232-3.361 0-.927.176-1.737.528-2.429a3.947 3.947 0 0 1 1.496-1.602c.645-.387 1.39-.581 2.235-.581.833 0 1.531.176 2.094.528a3.35 3.35 0 0 1 1.285 1.496c.293.634.44 1.385.44 2.253v.563h-6.688v-1.02h5.474l-.3.228c0-.88-.199-1.56-.598-2.041-.387-.493-.95-.739-1.69-.739-.821 0-1.454.287-1.9.862-.446.563-.669 1.343-.669 2.341v.176c0 1.044.252 1.83.757 2.358.516.528 1.243.792 2.182.792.516 0 .997-.07 1.443-.211a4.057 4.057 0 0 0 1.303-.739l.58 1.214c-.41.364-.909.646-1.496.845a6.07 6.07 0 0 1-1.865.282Zm5.507-.159v-6.741c0-.34-.018-.686-.053-1.038a33.389 33.389 0 0 0-.088-1.091h1.725l.158 1.865h-.211c.27-.657.686-1.155 1.25-1.496.563-.352 1.214-.528 1.953-.528 1.045 0 1.831.288 2.359.863.539.575.809 1.466.809 2.675v5.491h-1.777v-5.385c0-.787-.159-1.35-.476-1.69-.305-.352-.774-.528-1.408-.528-.75 0-1.349.235-1.795.704-.446.458-.669 1.079-.669 1.866v5.033h-1.777Zm13.882.159c-.962 0-1.689-.259-2.182-.775-.493-.528-.739-1.314-.739-2.358v-4.523h-1.725v-1.373h1.725v-2.341l1.777-.475v2.816h2.464v1.373h-2.464v4.364c0 .657.118 1.127.352 1.408.235.282.575.423 1.021.423.223 0 .417-.018.581-.053.176-.047.334-.1.475-.158v1.443c-.176.07-.381.123-.616.158a3.41 3.41 0 0 1-.669.071ZM429.164 14.082l-4.347-12.408h1.901l3.608 10.718h-.651l3.819-10.718h1.39l3.591 10.718h-.599l3.731-10.718h1.796l-4.383 12.408h-1.566l-3.485-10.208h.37l-3.626 10.208h-1.549Zm16.073 0V1.128h1.777v5.967h-.246c.258-.669.675-1.173 1.25-1.514.575-.352 1.237-.528 1.988-.528 1.056 0 1.843.294 2.359.88.516.575.774 1.45.774 2.623v5.526h-1.777v-5.42c0-.763-.153-1.315-.458-1.655-.293-.352-.763-.528-1.408-.528-.751 0-1.355.234-1.813.704-.446.457-.669 1.068-.669 1.83v5.069h-1.777Zm14.533.158c-1.431 0-2.557-.404-3.379-1.214-.821-.81-1.232-1.93-1.232-3.362 0-.926.176-1.736.528-2.428a3.955 3.955 0 0 1 1.496-1.602c.646-.387 1.391-.58 2.235-.58.833 0 1.532.175 2.095.527.563.352.991.85 1.285 1.496.293.634.44 1.385.44 2.253v.563h-6.688v-1.02h5.473l-.299.228c0-.88-.199-1.56-.598-2.041-.388-.493-.951-.74-1.69-.74-.821 0-1.455.288-1.901.863-.446.563-.669 1.343-.669 2.34V9.7c0 1.044.253 1.83.757 2.358.516.528 1.244.792 2.183.792.516 0 .997-.07 1.443-.211a4.038 4.038 0 0 0 1.302-.74l.581 1.215a4.322 4.322 0 0 1-1.496.845 6.087 6.087 0 0 1-1.866.281Zm5.472-.158v-6.67c0-.364-.012-.728-.035-1.092a17.369 17.369 0 0 0-.07-1.108h1.724l.194 2.288h-.282c.118-.552.317-1.01.599-1.373a2.609 2.609 0 0 1 1.021-.81c.41-.176.839-.264 1.284-.264.188 0 .347.012.476.035.129.012.258.036.387.07l-.018 1.585a1.77 1.77 0 0 0-.528-.141 3.299 3.299 0 0 0-.528-.035c-.516 0-.956.117-1.32.352a2.152 2.152 0 0 0-.827.915 2.823 2.823 0 0 0-.282 1.25v4.998h-1.795Zm10.65.158c-1.431 0-2.558-.404-3.379-1.214-.821-.81-1.232-1.93-1.232-3.362 0-.926.176-1.736.528-2.428a3.948 3.948 0 0 1 1.496-1.602c.645-.387 1.39-.58 2.235-.58.833 0 1.531.175 2.095.527.563.352.991.85 1.284 1.496.294.634.44 1.385.44 2.253v.563h-6.688v-1.02h5.474l-.299.228c0-.88-.2-1.56-.599-2.041-.387-.493-.95-.74-1.689-.74-.821 0-1.455.288-1.901.863-.446.563-.669 1.343-.669 2.34V9.7c0 1.044.253 1.83.757 2.358.516.528 1.244.792 2.182.792.517 0 .998-.07 1.444-.211a4.049 4.049 0 0 0 1.302-.74l.581 1.215a4.322 4.322 0 0 1-1.496.845 6.087 6.087 0 0 1-1.866.281Zm13.649 0c-.962 0-1.69-.258-2.182-.774-.493-.528-.74-1.314-.74-2.358V6.584h-1.724V5.212h1.724V2.87l1.778-.475v2.816h2.464v1.372h-2.464v4.365c0 .657.117 1.127.352 1.408.235.282.575.423 1.021.423.223 0 .416-.018.581-.053.176-.047.334-.1.475-.159v1.444c-.176.07-.381.123-.616.158-.235.047-.458.07-.669.07Zm2.944-.158V1.128h1.778v5.967h-.247c.259-.669.675-1.173 1.25-1.514.575-.352 1.238-.528 1.989-.528 1.056 0 1.842.294 2.358.88.516.575.775 1.45.775 2.623v5.526h-1.778v-5.42c0-.763-.153-1.315-.458-1.655-.293-.352-.762-.528-1.408-.528-.751 0-1.355.234-1.812.704-.446.457-.669 1.068-.669 1.83v5.069h-1.778Zm14.534.158c-1.432 0-2.558-.404-3.379-1.214-.822-.81-1.232-1.93-1.232-3.362 0-.926.176-1.736.528-2.428a3.941 3.941 0 0 1 1.496-1.602c.645-.387 1.39-.58 2.235-.58.833 0 1.531.175 2.094.527.563.352.992.85 1.285 1.496.293.634.44 1.385.44 2.253v.563h-6.688v-1.02h5.474l-.3.228c0-.88-.199-1.56-.598-2.041-.387-.493-.95-.74-1.69-.74-.821 0-1.455.288-1.9.863-.446.563-.669 1.343-.669 2.34V9.7c0 1.044.252 1.83.757 2.358.516.528 1.243.792 2.182.792.516 0 .997-.07 1.443-.211a4.043 4.043 0 0 0 1.303-.74l.58 1.215c-.41.364-.909.645-1.496.845a6.076 6.076 0 0 1-1.865.281Zm5.123 3.837-.423-1.443c.552-.117 1.009-.258 1.373-.422.375-.165.686-.382.933-.652a3.35 3.35 0 0 0 .633-1.003l.44-1.038-.035.721-3.854-9.028h1.901l2.992 7.392h-.476l2.992-7.392h1.831l-4.066 9.504a7.816 7.816 0 0 1-.827 1.478c-.293.399-.61.722-.95.968-.341.246-.716.44-1.127.58a8.57 8.57 0 0 1-1.337.335Zm14.392-3.995V1.128h1.777v12.954h-1.777Zm4.382 0v-8.87h1.778v8.87h-1.778Zm-.14-10.718V1.516h2.059v1.848h-2.059Zm7.128 10.718-3.802-8.87h1.901l2.992 7.41h-.51l3.045-7.41h1.812l-3.819 8.87h-1.619Zm10.795.158c-1.432 0-2.558-.404-3.38-1.214-.821-.81-1.232-1.93-1.232-3.362 0-.926.176-1.736.528-2.428a3.955 3.955 0 0 1 1.496-1.602c.646-.387 1.391-.58 2.236-.58.833 0 1.531.175 2.094.527.563.352.991.85 1.285 1.496.293.634.44 1.385.44 2.253v.563h-6.688v-1.02h5.473l-.299.228c0-.88-.199-1.56-.598-2.041-.387-.493-.951-.74-1.69-.74-.821 0-1.455.288-1.901.863-.446.563-.668 1.343-.668 2.34V9.7c0 1.044.252 1.83.756 2.358.517.528 1.244.792 2.183.792.516 0 .997-.07 1.443-.211a4.028 4.028 0 0 0 1.302-.74l.581 1.215a4.322 4.322 0 0 1-1.496.845 6.08 6.08 0 0 1-1.865.281Z"/>
    <path stroke="var(--fl-fgColor, #222)" stroke-dasharray="17 17" stroke-width="3.4" d="m387.303 142.688-80.335 13.251-56.434 47.041-86.311 117.935 94.278 107.335h161.334l71.04-122.573 40.5-142.45-144.072-20.539Z"/>
  </svg>