<svg xmlns="http://www.w3.org/2000/svg" width="295" height="222" fill="none" viewBox="0 0 295 222">
  <circle cx="143.223" cy="106.797" r="95.123" fill="var(--fi-gap-mapping-neutral-dark, #b3b3b3)" stroke="var(--fi-gap-mapping-border, #808080)" stroke-dasharray="1.41 1.41" stroke-width=".707" />
  <circle cx="143.345" cy="106.916" r="72.387" fill="var(--fi-gap-mapping-neutral-medium, #ccc)" stroke="var(--fi-gap-mapping-border, #808080)" stroke-dasharray="1.41 1.41" stroke-width=".707" />
  <circle cx="143.345" cy="106.918" r="44.996" fill="var(--fi-gap-mapping-neutral-light, #f4f4f4)" stroke="var(--fi-gap-mapping-border, #808080)" stroke-dasharray="1.41 1.41" stroke-width=".707" />
  <path stroke="var(--fi-gap-mapping-border, #808080)" stroke-dasharray="1.41 1.41" stroke-width=".707" d="M238.346 107.492H48.807M144.222 201.205V11.666M75.867 173.67 210.072 39.465M76.612 39.709l133.713 133.713"/>
  <path fill="var(--fi-gap-mapping-may-access-fill, #e8b91c)" fill-opacity=".5" stroke="var(--fi-gap-mapping-may-access-outline, #997d1e)" stroke-width="1.414" d="m103.524 89.621-.113.093-.068.129-21.138 40.597-3.65-46.91 45.577-10.713-20.608 16.804ZM125.69 144.885l.082.022.084.003 32.372 1.04-42.376 22.541-31.654-35.11 41.492 11.504Zm54.662-53.066-.036-.108-13.438-40.666-.258-.782-.734.374-33.098 16.86 42.934-40.527 27.969 54.905v50.682l-40.736 11.46 17.227-20.153.17-.198V91.819Z"/>
  <path fill="var(--fi-gap-mapping-can-access-fill, #559d57)" fill-opacity=".5" stroke="var(--fi-gap-mapping-can-access-outline, #2a842d)" stroke-width="1.414" d="M180.352 91.17v33.028l-19.681 21.83-35.667-1.397-44.043-12.122 22.859-43.295 22.35-18.075 40.439-20.98 13.743 41.01Z"/>
  <circle cx="82.754" cy="131.894" r="4.243" fill="var(--fi-gap-mapping-can-access-outline, #2a842d)"/>
  <circle cx="103.97" cy="89.46" r="4.243" fill="var(--fi-gap-mapping-can-access-outline, #2a842d)"/>
  <circle cx="128.724" cy="70.367" r="4.243" fill="var(--fi-gap-mapping-can-access-outline, #2a842d)"/>
  <circle cx="168.976" cy="48.798" r="3.89" fill="var(--fi-gap-mapping-can-access-outline, #2a842d)"/>
  <circle cx="182.059" cy="92.292" r="4.243" fill="var(--fi-gap-mapping-can-access-outline, #2a842d)"/>
  <circle cx="182.059" cy="124.116" r="4.243" fill="var(--fi-gap-mapping-can-access-outline, #2a842d)"/>
  <circle cx="204.691" cy="132.601" r="3.536" fill="var(--fi-gap-mapping-may-access-fill, #e8b91c)" stroke="var(--fi-gap-mapping-may-access-outline, #997d1e)" stroke-width="1.414"/>
  <circle cx="204.691" cy="81.683" r="3.536" fill="var(--fi-gap-mapping-may-access-fill, #e8b91c)" stroke="var(--fi-gap-mapping-may-access-outline, #997d1e)" stroke-width="1.414"/>
  <circle cx="177.109" cy="26.519" r="3.536" fill="var(--fi-gap-mapping-may-access-fill, #e8b91c)" stroke="var(--fi-gap-mapping-may-access-outline, #997d1e)" stroke-width="1.414"/>
  <circle cx="79.217" cy="83.8" r="3.536" fill="var(--fi-gap-mapping-may-access-fill, #e8b91c)" stroke="var(--fi-gap-mapping-may-access-outline, #997d1e)" stroke-width="1.414"/>
  <circle cx="115.286" cy="168.671" r="3.536" fill="var(--fi-gap-mapping-may-access-fill, #e8b91c)" stroke="var(--fi-gap-mapping-may-access-outline, #997d1e)" stroke-width="1.414"/>
  <circle cx="162.257" cy="145.335" r="4.243" fill="var(--fi-gap-mapping-can-access-outline, #2a842d)"/>
  <circle cx="125.188" cy="143.917" r="4.243" fill="var(--fi-gap-mapping-can-access-outline, #2a842d)"/>
  <path fill="var(--fi-main-content, #222)" d="M43.281 5.229V.066h.762v5.163h-.762Zm1.908 0V2.424c0-.142-.007-.286-.022-.432-.01-.152-.022-.303-.037-.454h.718l.066.776h-.088a1.3 1.3 0 0 1 .469-.622c.215-.147.471-.22.769-.22.302 0 .549.073.74.22.195.141.329.36.402.659h-.117c.098-.269.264-.481.498-.637a1.4 1.4 0 0 1 .813-.242c.41 0 .717.12.922.359.206.239.308.61.308 1.113v2.285h-.74V2.98c0-.322-.056-.554-.168-.695-.107-.147-.283-.22-.527-.22-.283 0-.508.098-.674.293-.166.195-.249.459-.249.79v2.08h-.74V2.98c0-.322-.056-.554-.168-.695-.107-.147-.283-.22-.527-.22-.283 0-.506.098-.667.293-.16.195-.241.459-.241.79v2.08h-.74Zm6.5 0V2.424c0-.142-.007-.286-.021-.432-.01-.152-.022-.303-.037-.454h.718l.066.776h-.088a1.3 1.3 0 0 1 .468-.622c.215-.147.471-.22.77-.22.302 0 .549.073.739.22.195.141.33.36.403.659h-.117c.097-.269.263-.481.497-.637a1.4 1.4 0 0 1 .813-.242c.41 0 .718.12.923.359.205.239.307.61.307 1.113v2.285h-.74V2.98c0-.322-.055-.554-.168-.695-.107-.147-.283-.22-.527-.22-.283 0-.508.098-.673.293-.166.195-.25.459-.25.79v2.08h-.74V2.98c0-.322-.055-.554-.167-.695-.108-.147-.284-.22-.528-.22-.283 0-.505.098-.666.293-.161.195-.242.459-.242.79v2.08h-.74Zm6.501 0V1.538h.74v3.69h-.74Zm-.058-4.46v-.77h.856v.77h-.856Zm3.544 6.1a3.3 3.3 0 0 1-.908-.117 2.326 2.326 0 0 1-.725-.352l.183-.542c.151.103.3.183.447.242.146.063.3.11.461.14.161.028.327.043.498.043.352 0 .615-.09.791-.27.18-.177.27-.433.27-.77v-.988h.074c-.078.273-.24.49-.483.651-.24.157-.518.235-.835.235-.337 0-.63-.074-.879-.22a1.542 1.542 0 0 1-.57-.637 2.271 2.271 0 0 1-.199-.981c0-.376.066-.701.198-.974.137-.274.327-.484.571-.63.25-.151.542-.227.879-.227.322 0 .6.08.835.242.239.156.398.37.476.644l-.066-.059.066-.761h.718a7.112 7.112 0 0 0-.06.886v2.731c0 .557-.148.982-.446 1.274-.293.293-.725.44-1.296.44Zm-.051-2.307c.322 0 .578-.11.769-.33.195-.22.293-.53.293-.93s-.098-.707-.293-.922c-.19-.215-.447-.322-.77-.322-.331 0-.595.107-.79.322-.19.215-.286.522-.286.923 0 .4.096.71.286.93.195.22.459.33.79.33Zm2.858.667V2.453c0-.151-.005-.303-.015-.454a7.132 7.132 0 0 0-.029-.461h.718l.08.952h-.117c.049-.23.132-.42.249-.571.117-.152.259-.264.425-.337a1.344 1.344 0 0 1 .732-.096.931.931 0 0 1 .161.03l-.007.659a.74.74 0 0 0-.22-.059 1.372 1.372 0 0 0-.22-.014.992.992 0 0 0-.549.146.896.896 0 0 0-.344.38 1.176 1.176 0 0 0-.117.52v2.08h-.747Zm4.153.065c-.328 0-.613-.075-.857-.227a1.516 1.516 0 0 1-.571-.659c-.132-.288-.198-.63-.198-1.025 0-.4.066-.742.198-1.025.136-.283.327-.5.57-.652.245-.156.53-.234.858-.234.322 0 .603.08.842.242.239.16.398.38.476.659h-.08l.072-.835h.718l-.044.454c-.01.146-.015.29-.015.432v2.805h-.74v-.82h.081c-.078.273-.239.49-.483.651-.24.156-.515.234-.827.234Zm.183-.578a.948.948 0 0 0 .761-.337c.195-.225.293-.556.293-.996 0-.44-.098-.769-.293-.988a.948.948 0 0 0-.761-.337c-.323 0-.581.112-.777.337-.19.22-.285.549-.285.988 0 .44.095.771.285.996.19.225.45.337.777.337Zm4.3.578c-.4 0-.702-.107-.907-.322-.205-.22-.308-.547-.308-.981V2.109h-.717v-.571h.717V.564l.74-.198v1.172h1.025v.571h-1.025v1.816c0 .273.049.469.146.586.098.117.24.176.425.176.093 0 .173-.008.242-.022.073-.02.139-.042.198-.066v.6c-.074.03-.16.051-.257.066-.097.02-.19.03-.278.03Zm1.226-.065V1.538h.74v3.69h-.74Zm-.059-4.46v-.77h.857v.77h-.857Zm3.464 4.525c-.366 0-.683-.075-.952-.227a1.59 1.59 0 0 1-.622-.659c-.147-.288-.22-.63-.22-1.025 0-.395.073-.735.22-1.018.146-.288.354-.507.622-.659a1.86 1.86 0 0 1 .952-.234c.366 0 .684.078.952.234.274.152.484.371.63.66.151.282.227.622.227 1.017 0 .396-.076.737-.227 1.025a1.577 1.577 0 0 1-.63.66 1.907 1.907 0 0 1-.952.226Zm0-.578c.323 0 .579-.112.77-.337.19-.225.285-.556.285-.996 0-.44-.095-.769-.286-.988-.19-.225-.447-.337-.769-.337a.948.948 0 0 0-.761.337c-.19.22-.286.549-.286.988 0 .44.093.771.278.996.19.225.447.337.77.337Zm2.674.513V2.424c0-.142-.008-.286-.022-.432-.01-.152-.022-.303-.037-.454h.718l.066.776h-.088c.112-.273.285-.48.52-.622.234-.147.505-.22.812-.22.435 0 .762.12.982.359.224.239.337.61.337 1.113v2.285h-.74V2.988c0-.327-.066-.562-.198-.703-.127-.147-.322-.22-.586-.22-.312 0-.561.098-.747.293-.185.19-.278.45-.278.776V5.23h-.74Zm7.56.065c-.308 0-.591-.039-.85-.117a1.822 1.822 0 0 1-.644-.33l.227-.505c.18.137.38.24.6.308.22.068.444.103.674.103.268 0 .471-.047.608-.14a.461.461 0 0 0 .205-.395.392.392 0 0 0-.132-.308c-.083-.078-.222-.136-.418-.175l-.703-.14c-.312-.068-.549-.185-.71-.351a.877.877 0 0 1-.241-.637c0-.22.058-.415.175-.586.122-.17.293-.305.513-.403a1.95 1.95 0 0 1 .783-.146c.274 0 .528.039.762.117.234.078.43.19.586.337l-.234.49a1.667 1.667 0 0 0-.513-.292 1.6 1.6 0 0 0-.579-.11c-.273 0-.476.051-.607.154a.486.486 0 0 0-.198.402c0 .127.039.232.117.315.083.078.212.14.388.183l.703.14c.332.068.581.18.747.336.166.156.25.366.25.63a.98.98 0 0 1-.191.6c-.127.171-.303.3-.528.389a2.165 2.165 0 0 1-.79.131Zm3.78 0c-.401 0-.704-.107-.909-.322-.205-.22-.307-.547-.307-.981V2.109h-.718v-.571h.718V.564l.74-.198v1.172h1.025v.571h-1.026v1.816c0 .273.05.469.147.586.097.117.239.176.425.176.092 0 .173-.008.241-.022.073-.02.14-.042.198-.066v.6a1.15 1.15 0 0 1-.256.066c-.098.02-.19.03-.279.03Zm2.638 0c-.327 0-.613-.075-.857-.227a1.516 1.516 0 0 1-.571-.659c-.132-.288-.198-.63-.198-1.025 0-.4.066-.742.198-1.025.136-.283.327-.5.57-.652.245-.156.53-.234.858-.234.322 0 .603.08.842.242.239.16.398.38.476.659h-.08l.073-.835h.717l-.044.454a6.47 6.47 0 0 0-.014.432v2.805h-.74v-.82h.08c-.078.273-.239.49-.483.651a1.48 1.48 0 0 1-.827.234Zm.183-.578a.948.948 0 0 0 .761-.337c.196-.225.293-.556.293-.996 0-.44-.097-.769-.293-.988a.948.948 0 0 0-.761-.337c-.322 0-.581.112-.776.337-.19.22-.286.549-.286.988 0 .44.095.771.285.996.19.225.45.337.777.337Zm4.301.578c-.4 0-.703-.107-.908-.322-.205-.22-.307-.547-.307-.981V2.109h-.718v-.571h.718V.564l.74-.198v1.172h1.024v.571H98.41v1.816c0 .273.049.469.147.586.097.117.239.176.424.176.093 0 .174-.008.242-.022.073-.02.14-.042.198-.066v.6a1.15 1.15 0 0 1-.257.066c-.097.02-.19.03-.278.03Zm2.536 0c-.444 0-.779-.12-1.003-.358-.22-.245-.33-.618-.33-1.12V1.537h.74V3.8c0 .307.063.534.19.68.127.147.32.22.579.22a.922.922 0 0 0 .71-.293c.181-.195.271-.454.271-.776V1.538h.739v3.69h-.717v-.79h.095a1.286 1.286 0 0 1-.491.637c-.224.146-.485.22-.783.22Zm4.247 0c-.308 0-.591-.039-.85-.117a1.82 1.82 0 0 1-.644-.33l.227-.505c.18.137.381.24.6.308.22.068.445.103.674.103.269 0 .471-.047.608-.14a.46.46 0 0 0 .205-.395.392.392 0 0 0-.132-.308c-.083-.078-.222-.136-.417-.175l-.703-.14c-.313-.068-.55-.185-.711-.351a.877.877 0 0 1-.241-.637c0-.22.058-.415.175-.586.122-.17.293-.305.513-.403.225-.097.486-.146.784-.146.273 0 .527.039.761.117.234.078.43.19.586.337l-.234.49a1.682 1.682 0 0 0-.513-.292 1.597 1.597 0 0 0-.578-.11c-.274 0-.476.051-.608.154a.486.486 0 0 0-.198.402c0 .127.039.232.117.315.083.078.213.14.388.183l.703.14c.332.068.581.18.747.336.166.156.249.366.249.63 0 .23-.063.43-.19.6-.127.171-.303.3-.527.389a2.17 2.17 0 0 1-.791.131ZM0 63.928v-5.163h.762v4.511h2.533v.652H0Zm5.388.066c-.327 0-.613-.076-.857-.227a1.516 1.516 0 0 1-.571-.66c-.132-.288-.198-.63-.198-1.025 0-.4.066-.742.198-1.025.137-.283.327-.5.571-.652.244-.156.53-.234.857-.234.322 0 .603.08.842.242.24.16.398.38.476.659h-.08l.073-.835h.717l-.044.454a6.5 6.5 0 0 0-.014.432v2.805h-.74v-.82h.08c-.077.273-.239.49-.483.651a1.48 1.48 0 0 1-.827.235Zm.183-.579a.948.948 0 0 0 .762-.337c.195-.224.292-.556.292-.996 0-.439-.097-.769-.292-.988a.948.948 0 0 0-.762-.337c-.322 0-.581.112-.776.337-.19.22-.286.549-.286.988 0 .44.095.772.286.996.19.225.449.337.776.337Zm2.866.513v-2.805a4.34 4.34 0 0 0-.022-.432c-.01-.151-.022-.303-.037-.454h.718l.066.776h-.088c.112-.273.286-.48.52-.622.234-.147.505-.22.813-.22.434 0 .761.12.981.359.225.24.337.61.337 1.113v2.285h-.74v-2.241c0-.327-.066-.561-.197-.703-.127-.147-.323-.22-.586-.22-.313 0-.562.098-.747.293-.186.19-.278.45-.278.776v2.095h-.74Zm6.003 1.64a3.3 3.3 0 0 1-.908-.117 2.327 2.327 0 0 1-.725-.352l.183-.541c.152.102.3.183.447.241.146.064.3.11.461.14.161.029.327.043.498.043.352 0 .615-.09.791-.27.18-.177.271-.433.271-.77v-.988h.073c-.078.273-.239.49-.483.651-.24.157-.518.235-.835.235-.337 0-.63-.073-.879-.22a1.542 1.542 0 0 1-.57-.637 2.271 2.271 0 0 1-.199-.981c0-.376.066-.7.198-.974.137-.273.327-.483.571-.63.25-.151.542-.227.88-.227.321 0 .6.08.834.242.24.156.398.37.476.644L15.458 61l.066-.762h.718a7.112 7.112 0 0 0-.059.886v2.732c0 .556-.149.98-.447 1.274-.293.293-.725.44-1.296.44Zm-.051-2.307c.322 0 .578-.11.769-.33.195-.219.293-.529.293-.93 0-.4-.098-.707-.293-.922-.19-.215-.447-.322-.77-.322-.331 0-.595.107-.79.322-.19.215-.286.523-.286.923s.096.71.286.93c.195.22.459.33.79.33Zm4.184.733c-.445 0-.78-.12-1.004-.36-.22-.243-.33-.617-.33-1.12v-2.277h.74V62.5c0 .307.064.534.19.68.128.147.32.22.58.22.292 0 .529-.097.71-.292.18-.196.27-.454.27-.777v-2.094h.74v3.69h-.718v-.79h.096a1.292 1.292 0 0 1-.491.637c-.225.146-.486.22-.784.22Zm4.393 0c-.327 0-.613-.076-.857-.227a1.516 1.516 0 0 1-.571-.66c-.132-.288-.198-.63-.198-1.025 0-.4.066-.742.198-1.025.136-.283.327-.5.571-.652.244-.156.53-.234.857-.234.322 0 .603.08.842.242.24.16.398.38.476.659h-.08l.073-.835h.717l-.044.454c-.01.146-.014.29-.014.432v2.805h-.74v-.82h.08c-.078.273-.239.49-.483.651a1.48 1.48 0 0 1-.827.235Zm.183-.579a.948.948 0 0 0 .761-.337c.196-.224.293-.556.293-.996 0-.439-.097-.769-.293-.988a.948.948 0 0 0-.761-.337c-.322 0-.581.112-.776.337-.19.22-.286.549-.286.988 0 .44.095.772.286.996.19.225.449.337.776.337Zm4.528 2.153a3.3 3.3 0 0 1-.908-.117 2.326 2.326 0 0 1-.725-.352l.183-.541c.152.102.3.183.447.241.146.064.3.11.461.14.161.029.327.043.498.043.352 0 .615-.09.791-.27.18-.177.271-.433.271-.77v-.988h.073c-.078.273-.239.49-.483.651-.24.157-.518.235-.835.235-.337 0-.63-.073-.879-.22a1.542 1.542 0 0 1-.57-.637 2.271 2.271 0 0 1-.199-.981c0-.376.066-.7.198-.974.137-.273.327-.483.571-.63.25-.151.542-.227.88-.227.321 0 .6.08.834.242.24.156.398.37.476.644L28.695 61l.066-.762h.718a7.111 7.111 0 0 0-.059.886v2.732c0 .556-.149.98-.447 1.274-.293.293-.725.44-1.296.44Zm-.051-2.307c.322 0 .578-.11.769-.33.195-.219.293-.529.293-.93 0-.4-.098-.707-.293-.922-.19-.215-.447-.322-.77-.322-.331 0-.595.107-.79.322-.19.215-.286.523-.286.923s.096.71.286.93c.195.22.459.33.79.33Zm4.579.733c-.596 0-1.064-.169-1.406-.506-.342-.337-.513-.803-.513-1.398 0-.386.074-.723.22-1.01.151-.289.359-.511.622-.667.269-.161.579-.242.93-.242.347 0 .638.073.872.22.234.146.413.354.535.622.122.264.183.576.183.938v.234h-2.783v-.425h2.277l-.124.095c0-.366-.083-.649-.25-.85-.16-.204-.395-.307-.702-.307-.342 0-.606.12-.791.36-.186.233-.278.558-.278.973v.073c0 .435.105.762.315.982.214.22.517.33.908.33.214 0 .415-.03.6-.089.19-.063.371-.166.542-.307l.242.505a1.8 1.8 0 0 1-.623.352 2.532 2.532 0 0 1-.776.117ZM2.991 145.103c-.717 0-1.252-.181-1.603-.542-.347-.361-.52-.896-.52-1.604v-3.083h.761v3.069c0 .498.108.874.323 1.127.22.249.566.374 1.04.374.449 0 .788-.125 1.017-.374.23-.253.344-.629.344-1.127v-3.069H5.1v3.083c0 .708-.178 1.243-.534 1.604-.357.361-.881.542-1.575.542Zm3.225-.066v-2.805c0-.141-.007-.285-.022-.432-.01-.151-.022-.302-.037-.454h.718l.066.777h-.088c.112-.274.286-.481.52-.623.234-.146.505-.22.813-.22.434 0 .762.12.981.359.225.239.337.611.337 1.113v2.285h-.74v-2.241c0-.327-.065-.561-.197-.703-.127-.146-.322-.219-.586-.219-.313 0-.562.097-.747.293-.186.19-.278.449-.278.776v2.094h-.74Zm6.047.066c-.595 0-1.064-.168-1.406-.505-.342-.337-.512-.803-.512-1.399 0-.386.073-.722.22-1.011a1.64 1.64 0 0 1 .622-.666c.268-.161.578-.242.93-.242.346 0 .637.074.871.22.234.147.413.354.535.623.122.263.183.576.183.937v.234h-2.783v-.424H13.2l-.124.095c0-.366-.083-.65-.249-.85-.161-.205-.395-.307-.703-.307-.342 0-.605.119-.79.359-.186.234-.28.559-.28.973v.074c0 .434.106.761.316.981.215.22.517.33.908.33.215 0 .415-.03.6-.088.19-.064.371-.166.542-.308l.242.505c-.171.152-.379.269-.623.352a2.536 2.536 0 0 1-.776.117Zm1.736-.066 1.677-2.08v.352l-1.59-1.963h.887l1.12 1.443h-.264l1.12-1.443h.88l-1.575 1.956v-.337l1.67 2.072h-.886l-1.209-1.545h.264l-1.216 1.545H14Zm4.489 1.582v-4.387a4.34 4.34 0 0 0-.022-.432c-.01-.151-.022-.302-.037-.454h.718l.073.835h-.08c.078-.278.234-.498.468-.659.24-.161.523-.242.85-.242.327 0 .612.079.856.235.244.151.432.368.564.652.137.283.205.624.205 1.025 0 .395-.068.737-.205 1.025a1.47 1.47 0 0 1-.564.659c-.244.151-.53.227-.856.227-.323 0-.603-.078-.843-.234a1.155 1.155 0 0 1-.468-.652h.08v2.402h-.74Zm1.787-2.094c.322 0 .578-.113.768-.337.196-.225.293-.557.293-.996 0-.44-.097-.769-.293-.989-.19-.224-.446-.337-.768-.337a.98.98 0 0 0-.777.337c-.19.22-.285.549-.285.989 0 .439.095.771.285.996a.98.98 0 0 0 .776.337Zm4.381.578c-.595 0-1.064-.168-1.406-.505-.341-.337-.512-.803-.512-1.399 0-.386.073-.722.22-1.011a1.64 1.64 0 0 1 .622-.666c.268-.161.578-.242.93-.242.346 0 .637.074.871.22.235.147.413.354.535.623.122.263.183.576.183.937v.234h-2.783v-.424h2.278l-.125.095c0-.366-.083-.65-.249-.85-.16-.205-.395-.307-.703-.307-.341 0-.605.119-.79.359-.186.234-.279.559-.279.973v.074c0 .434.105.761.315.981.215.22.517.33.908.33.215 0 .415-.03.6-.088.19-.064.371-.166.542-.308l.242.505a1.79 1.79 0 0 1-.622.352 2.536 2.536 0 0 1-.777.117Zm3.91 0c-.371 0-.696-.076-.974-.227a1.611 1.611 0 0 1-.637-.666c-.146-.293-.22-.64-.22-1.04 0-.396.076-.735.227-1.018.152-.283.364-.498.637-.645.274-.151.596-.227.967-.227.24 0 .471.042.696.125.224.078.41.19.556.337l-.241.52a1.315 1.315 0 0 0-.462-.293 1.325 1.325 0 0 0-.498-.103c-.351 0-.627.113-.827.337-.2.225-.3.549-.3.974 0 .43.1.759.3.989.2.229.476.344.827.344a1.35 1.35 0 0 0 .96-.388l.241.52a1.588 1.588 0 0 1-.57.344 2.063 2.063 0 0 1-.682.117Zm3.478 0c-.4 0-.703-.107-.908-.322-.205-.22-.307-.547-.307-.981v-1.882h-.718v-.572h.718v-.974l.74-.197v1.171h1.025v.572h-1.026v1.816c0 .273.05.468.147.585.098.118.24.176.425.176.092 0 .173-.007.241-.022.074-.019.14-.041.198-.066v.601a1.189 1.189 0 0 1-.256.066 1.46 1.46 0 0 1-.279.029Zm2.896 0c-.596 0-1.064-.168-1.406-.505-.342-.337-.513-.803-.513-1.399 0-.386.073-.722.22-1.011a1.64 1.64 0 0 1 .622-.666c.269-.161.579-.242.93-.242.347 0 .638.074.872.22.234.147.412.354.534.623.123.263.184.576.184.937v.234H33.6v-.424h2.277l-.124.095c0-.366-.083-.65-.25-.85-.16-.205-.395-.307-.702-.307-.342 0-.606.119-.791.359-.186.234-.278.559-.278.973v.074c0 .434.105.761.315.981.214.22.517.33.908.33.214 0 .415-.03.6-.088.19-.064.371-.166.542-.308l.242.505a1.79 1.79 0 0 1-.623.352 2.535 2.535 0 0 1-.776.117Zm3.705 0a1.62 1.62 0 0 1-.857-.227 1.514 1.514 0 0 1-.571-.659c-.132-.288-.198-.63-.198-1.025 0-.401.066-.742.198-1.025.136-.284.327-.501.57-.652a1.58 1.58 0 0 1 .858-.235c.317 0 .595.081.834.242.245.156.406.371.484.645h-.088v-2.52h.74v5.39h-.733v-.835h.088a1.174 1.174 0 0 1-.483.659c-.24.161-.52.242-.842.242Zm.183-.578a.971.971 0 0 0 .768-.337c.196-.225.294-.557.294-.996 0-.44-.098-.769-.294-.989a.971.971 0 0 0-.768-.337.98.98 0 0 0-.777.337c-.19.22-.285.549-.285.989 0 .439.095.771.285.996a.98.98 0 0 0 .777.337Zm-17.89 9.578c-.596 0-1.065-.168-1.406-.505-.342-.337-.513-.803-.513-1.399 0-.386.073-.722.22-1.011.151-.288.359-.51.622-.666.269-.161.579-.242.93-.242.347 0 .637.074.872.22.234.147.412.354.534.623.122.263.183.576.183.937v.234h-2.782v-.424h2.277l-.125.095c0-.366-.082-.65-.248-.85-.162-.205-.396-.307-.703-.307-.342 0-.606.119-.791.359-.186.234-.279.559-.279.973v.074c0 .434.105.761.315.981.215.22.518.33.908.33.215 0 .415-.03.6-.088.191-.064.372-.166.543-.308l.241.505c-.17.152-.378.269-.622.352a2.535 2.535 0 0 1-.776.117Zm3.325-.066-1.582-3.691h.79l1.246 3.083h-.213l1.267-3.083h.755l-1.59 3.691h-.673Zm4.491.066c-.596 0-1.064-.168-1.406-.505-.342-.337-.513-.803-.513-1.399 0-.386.074-.722.22-1.011a1.64 1.64 0 0 1 .623-.666c.268-.161.578-.242.93-.242.346 0 .637.074.871.22.234.147.413.354.535.623.122.263.183.576.183.937v.234h-2.783v-.424h2.277l-.124.095c0-.366-.083-.65-.25-.85-.16-.205-.395-.307-.702-.307-.342 0-.605.119-.791.359-.186.234-.278.559-.278.973v.074c0 .434.105.761.315.981.214.22.517.33.908.33.215 0 .415-.03.6-.088.19-.064.371-.166.542-.308l.242.505a1.79 1.79 0 0 1-.623.352 2.536 2.536 0 0 1-.776.117Zm2.291-.066v-2.805a4.37 4.37 0 0 0-.022-.432c-.01-.151-.022-.302-.036-.454h.717l.066.777h-.087c.112-.274.285-.481.52-.623.234-.146.505-.22.812-.22.435 0 .762.12.981.359.225.239.337.611.337 1.113v2.285h-.74v-2.241c0-.327-.065-.561-.197-.703-.127-.146-.322-.219-.586-.219-.312 0-.561.097-.747.293-.185.19-.278.449-.278.776v2.094h-.74Zm5.776.066c-.4 0-.703-.107-.907-.322-.206-.22-.308-.547-.308-.981v-1.882h-.718v-.572h.718v-.974l.74-.197v1.171h1.025v.572h-1.026v1.816c0 .273.05.468.147.585.098.118.24.176.425.176.093 0 .173-.007.241-.022.074-.019.14-.041.198-.066v.601a1.19 1.19 0 0 1-.256.066c-.098.019-.19.029-.279.029Zm2.492 0c-.307 0-.59-.039-.85-.117a1.814 1.814 0 0 1-.644-.33l.227-.505c.181.137.381.239.601.308.22.068.444.102.674.102.268 0 .47-.046.608-.139a.461.461 0 0 0 .204-.395.392.392 0 0 0-.131-.308c-.083-.078-.222-.137-.418-.176l-.703-.139c-.312-.068-.549-.185-.71-.351a.878.878 0 0 1-.242-.637c0-.22.059-.415.176-.586.122-.171.293-.305.513-.403.224-.098.485-.147.783-.147.274 0 .527.04.762.118.234.078.43.19.586.336l-.235.491a1.679 1.679 0 0 0-.512-.293 1.605 1.605 0 0 0-.579-.11c-.273 0-.476.052-.608.154a.487.487 0 0 0-.197.403c0 .127.039.232.117.315.083.078.212.139.388.183l.703.139c.332.068.58.181.747.337.166.156.249.366.249.63a.98.98 0 0 1-.19.6c-.127.171-.303.3-.528.388a2.161 2.161 0 0 1-.79.132ZM61.425 212.447l2.3-5.162h.651l2.336 5.162h-.784l-.637-1.464.323.205h-3.127l.344-.205-.637 1.464h-.77Zm2.614-4.328-1.113 2.629-.176-.168h2.6l-.146.168-1.136-2.629h-.029Zm4.872 4.394a2 2 0 0 1-.974-.227 1.611 1.611 0 0 1-.637-.666c-.146-.293-.22-.64-.22-1.04 0-.396.076-.735.227-1.018.152-.283.364-.498.638-.644.273-.152.595-.227.966-.227.24 0 .471.041.696.124.224.078.41.19.556.337l-.241.52a1.315 1.315 0 0 0-.462-.293 1.344 1.344 0 0 0-.498-.103c-.351 0-.627.113-.827.337-.2.225-.3.55-.3.974 0 .43.1.759.3.989.2.229.476.344.827.344a1.5 1.5 0 0 0 .491-.088c.17-.063.327-.163.469-.3l.241.52a1.587 1.587 0 0 1-.57.344 2.063 2.063 0 0 1-.682.117Zm3.583 0a2 2 0 0 1-.974-.227 1.611 1.611 0 0 1-.637-.666c-.147-.293-.22-.64-.22-1.04 0-.396.076-.735.227-1.018.151-.283.364-.498.637-.644.274-.152.596-.227.967-.227.24 0 .471.041.696.124.224.078.41.19.556.337l-.242.52a1.315 1.315 0 0 0-.46-.293 1.344 1.344 0 0 0-.499-.103c-.351 0-.627.113-.827.337-.2.225-.3.55-.3.974 0 .43.1.759.3.989.2.229.476.344.827.344a1.5 1.5 0 0 0 .49-.088c.172-.063.328-.163.47-.3l.241.52a1.587 1.587 0 0 1-.571.344 2.063 2.063 0 0 1-.681.117Zm3.546 0a1.9 1.9 0 0 1-.952-.227 1.59 1.59 0 0 1-.622-.659c-.147-.288-.22-.63-.22-1.025 0-.396.073-.735.22-1.018.146-.288.354-.508.622-.659.269-.156.586-.234.952-.234s.684.078.952.234c.273.151.483.371.63.659.151.283.227.622.227 1.018 0 .395-.076.737-.227 1.025a1.577 1.577 0 0 1-.63.659 1.9 1.9 0 0 1-.952.227Zm0-.578c.322 0 .579-.113.769-.337.19-.225.286-.557.286-.996 0-.439-.096-.769-.286-.989-.19-.224-.447-.337-.769-.337a.95.95 0 0 0-.762.337c-.19.22-.285.55-.285.989 0 .439.093.771.278.996.19.224.447.337.77.337Zm2.673.512v-2.804a4.31 4.31 0 0 0-.022-.432 13.93 13.93 0 0 0-.036-.454h.717l.066.776h-.088c.103-.269.26-.476.47-.623.214-.146.47-.219.768-.219.303 0 .55.073.74.219.195.142.33.362.402.659h-.117c.098-.268.264-.481.498-.637a1.4 1.4 0 0 1 .813-.241c.41 0 .718.119.923.358.205.24.307.611.307 1.114v2.284h-.74v-2.248c0-.322-.055-.554-.168-.696-.107-.146-.283-.219-.527-.219-.283 0-.508.097-.674.293-.166.195-.249.459-.249.791v2.079h-.74v-2.248c0-.322-.055-.554-.168-.696-.107-.146-.283-.219-.527-.219-.283 0-.505.097-.666.293-.161.195-.242.459-.242.791v2.079h-.74Zm8.083.066a1.9 1.9 0 0 1-.952-.227 1.59 1.59 0 0 1-.623-.659c-.146-.288-.22-.63-.22-1.025 0-.396.074-.735.22-1.018.147-.288.354-.508.623-.659.268-.156.586-.234.952-.234s.683.078.952.234c.273.151.483.371.63.659.15.283.226.622.226 1.018 0 .395-.075.737-.227 1.025a1.576 1.576 0 0 1-.63.659 1.9 1.9 0 0 1-.951.227Zm0-.578c.322 0 .578-.113.769-.337.19-.225.285-.557.285-.996 0-.439-.095-.769-.285-.989-.19-.224-.447-.337-.77-.337a.95.95 0 0 0-.76.337c-.191.22-.286.55-.286.989 0 .439.092.771.278.996.19.224.447.337.769.337Zm4.086.578a1.61 1.61 0 0 1-.857-.227 1.514 1.514 0 0 1-.57-.659c-.132-.288-.198-.63-.198-1.025 0-.4.066-.742.197-1.025.137-.283.327-.501.572-.652a1.58 1.58 0 0 1 .856-.234c.318 0 .596.08.835.241.244.156.405.371.483.645h-.088v-2.519h.74v5.389h-.732v-.835h.088a1.18 1.18 0 0 1-.484.66c-.239.161-.52.241-.842.241Zm.183-.578a.971.971 0 0 0 .77-.337c.195-.225.292-.557.292-.996 0-.439-.097-.769-.293-.989a.971.971 0 0 0-.769-.337.98.98 0 0 0-.776.337c-.19.22-.285.55-.285.989 0 .439.095.771.285.996a.98.98 0 0 0 .776.337Zm4.28.578c-.327 0-.613-.075-.857-.227a1.514 1.514 0 0 1-.571-.659c-.132-.288-.198-.63-.198-1.025 0-.4.066-.742.198-1.025.136-.283.327-.501.57-.652.245-.156.53-.234.858-.234.322 0 .603.08.842.241.239.161.398.381.476.659h-.08l.073-.834h.717l-.044.454a6.45 6.45 0 0 0-.014.432v2.804h-.74v-.82h.08c-.078.273-.239.491-.483.652-.24.156-.515.234-.827.234Zm.183-.578a.95.95 0 0 0 .761-.337c.196-.225.293-.557.293-.996 0-.439-.097-.769-.293-.989a.95.95 0 0 0-.761-.337.98.98 0 0 0-.777.337c-.19.22-.285.55-.285.989 0 .439.095.771.285.996.19.224.45.337.777.337Zm4.301.578c-.4 0-.703-.107-.908-.322-.205-.22-.308-.547-.308-.981v-1.882h-.717v-.571h.717v-.974l.74-.198v1.172h1.025v.571h-1.025v1.816c0 .273.049.468.147.586.097.117.239.175.424.175.093 0 .174-.007.242-.022.073-.019.139-.041.198-.066v.601a1.202 1.202 0 0 1-.257.066c-.097.019-.19.029-.278.029Zm1.225-.066v-3.69h.74v3.69h-.74Zm-.059-4.459v-.769h.857v.769h-.857Zm3.464 4.525c-.366 0-.683-.075-.952-.227a1.59 1.59 0 0 1-.622-.659c-.147-.288-.22-.63-.22-1.025 0-.396.073-.735.22-1.018.146-.288.354-.508.622-.659.269-.156.586-.234.952-.234.367 0 .684.078.952.234.274.151.484.371.63.659.151.283.227.622.227 1.018 0 .395-.076.737-.227 1.025a1.57 1.57 0 0 1-.63.659c-.268.152-.585.227-.952.227Zm0-.578c.323 0 .579-.113.769-.337.191-.225.286-.557.286-.996 0-.439-.095-.769-.286-.989-.19-.224-.446-.337-.769-.337a.949.949 0 0 0-.761.337c-.191.22-.286.55-.286.989 0 .439.093.771.278.996.191.224.447.337.769.337Zm2.674.512v-2.804c0-.142-.008-.286-.022-.432-.01-.152-.022-.303-.037-.454h.718l.066.776h-.088a1.26 1.26 0 0 1 .52-.623c.234-.146.505-.219.813-.219.434 0 .761.119.981.358.224.24.337.611.337 1.114v2.284h-.74v-2.241c0-.327-.066-.561-.198-.703-.127-.146-.322-.219-.586-.219-.312 0-.561.097-.746.293-.186.19-.279.449-.279.776v2.094h-.739Zm5.607.066c-.307 0-.59-.039-.849-.117a1.816 1.816 0 0 1-.645-.33l.227-.505c.181.137.381.239.601.308.22.068.444.102.674.102.268 0 .471-.046.607-.139a.46.46 0 0 0 .206-.395.392.392 0 0 0-.132-.308c-.083-.078-.222-.137-.418-.176l-.703-.139c-.312-.068-.549-.185-.71-.351a.879.879 0 0 1-.242-.637c0-.22.059-.415.176-.586.122-.171.293-.305.513-.403a1.94 1.94 0 0 1 .783-.146 2.4 2.4 0 0 1 .762.117c.234.078.429.19.586.337l-.235.49a1.677 1.677 0 0 0-.512-.293 1.611 1.611 0 0 0-.579-.11c-.273 0-.476.052-.608.154a.489.489 0 0 0-.197.403c0 .127.039.232.117.315.083.078.212.139.388.183l.703.139c.332.068.581.181.747.337.166.156.249.366.249.63a.98.98 0 0 1-.191.6 1.16 1.16 0 0 1-.527.388 2.16 2.16 0 0 1-.791.132Zm-22.537 9c-.327 0-.613-.075-.857-.227a1.514 1.514 0 0 1-.571-.659c-.132-.288-.198-.63-.198-1.025 0-.4.066-.742.198-1.025.137-.283.327-.501.571-.652.244-.156.53-.234.857-.234.322 0 .603.08.842.241.24.161.398.381.476.659h-.08l.073-.834h.717l-.044.454c-.01.146-.014.29-.014.432v2.804h-.74v-.82h.08c-.077.273-.239.491-.483.652a1.48 1.48 0 0 1-.827.234Zm.183-.578a.95.95 0 0 0 .761-.337c.196-.225.293-.557.293-.996 0-.439-.097-.769-.293-.989a.95.95 0 0 0-.761-.337.98.98 0 0 0-.776.337c-.19.22-.286.55-.286.989 0 .439.095.771.286.996.19.224.449.337.776.337Zm4.301.578c-.4 0-.703-.107-.908-.322-.205-.22-.307-.547-.307-.981v-1.882h-.718v-.571h.718v-.974l.74-.198v1.172h1.025v.571H94.21v1.816c0 .273.05.468.147.586.097.117.239.175.424.175.093 0 .174-.007.242-.022.073-.019.14-.041.198-.066v.601a1.187 1.187 0 0 1-.256.066 1.46 1.46 0 0 1-.279.029Zm4.18-.066-1.398-3.69h.769l1.091 3.075h-.19l1.12-3.075h.571l1.113 3.075h-.183l1.091-3.075h.74l-1.406 3.69h-.674l-1.157-3.134h.345l-1.143 3.134h-.688Zm6.923.066c-.367 0-.684-.075-.952-.227a1.591 1.591 0 0 1-.623-.659c-.146-.288-.22-.63-.22-1.025 0-.396.074-.735.22-1.018.147-.288.354-.508.623-.659.268-.156.585-.234.952-.234.366 0 .683.078.951.234.274.151.484.371.63.659.152.283.227.622.227 1.018 0 .395-.075.737-.227 1.025a1.57 1.57 0 0 1-.63.659 1.896 1.896 0 0 1-.951.227Zm0-.578c.322 0 .578-.113.768-.337.191-.225.286-.557.286-.996 0-.439-.095-.769-.286-.989-.19-.224-.446-.337-.768-.337a.95.95 0 0 0-.762.337c-.19.22-.286.55-.286.989 0 .439.093.771.279.996.19.224.446.337.769.337Zm2.658.512v-2.775c0-.151-.005-.303-.015-.454a6.3 6.3 0 0 0-.029-.461h.718l.08.951h-.117c.049-.229.132-.419.249-.571.117-.151.259-.263.425-.337a1.347 1.347 0 0 1 .732-.095.895.895 0 0 1 .161.03l-.007.659a.718.718 0 0 0-.22-.059 1.325 1.325 0 0 0-.219-.015.993.993 0 0 0-.55.147.9.9 0 0 0-.344.381 1.176 1.176 0 0 0-.117.52v2.079h-.747Zm2.775 0v-5.389h.74v3.31h.014l1.611-1.611h.916l-1.948 1.94.007-.329 2.102 2.079h-.937l-1.751-1.691h-.014v1.691h-.74ZM176.501 217.466c-.527 0-.976-.107-1.347-.322a2.16 2.16 0 0 1-.857-.915c-.195-.401-.293-.872-.293-1.414 0-.542.098-1.01.293-1.406.2-.395.486-.7.857-.915.371-.215.82-.322 1.347-.322.367 0 .694.054.982.161.288.107.539.264.754.469l-.264.607a2.45 2.45 0 0 0-.688-.432 2.061 2.061 0 0 0-.769-.131c-.556 0-.981.17-1.274.512-.293.342-.439.828-.439 1.457 0 .63.146 1.118.439 1.465.293.342.718.513 1.274.513.293 0 .549-.044.769-.132a2.38 2.38 0 0 0 .688-.44l.264.608a2.275 2.275 0 0 1-.754.476 2.782 2.782 0 0 1-.982.161Zm3.951 0c-.367 0-.684-.075-.952-.227a1.591 1.591 0 0 1-.623-.659c-.146-.288-.22-.63-.22-1.025 0-.395.074-.735.22-1.018.147-.288.354-.508.623-.659.268-.156.585-.234.952-.234.366 0 .683.078.952.234.273.151.483.371.629.659.152.283.227.623.227 1.018s-.075.737-.227 1.025a1.574 1.574 0 0 1-.629.659 1.902 1.902 0 0 1-.952.227Zm0-.578c.322 0 .578-.112.768-.337.191-.225.286-.557.286-.996 0-.439-.095-.769-.286-.989-.19-.224-.446-.336-.768-.336-.318 0-.572.112-.762.336-.19.22-.286.55-.286.989 0 .439.093.771.279.996.19.225.446.337.769.337Zm3.94.578c-.308 0-.591-.039-.85-.117a1.827 1.827 0 0 1-.644-.329l.227-.506c.18.137.381.24.6.308.22.068.445.102.674.102.268 0 .471-.046.608-.139a.461.461 0 0 0 .205-.395.392.392 0 0 0-.132-.308c-.083-.078-.222-.136-.417-.175l-.703-.14c-.313-.068-.55-.185-.711-.351a.876.876 0 0 1-.241-.637c0-.22.058-.415.175-.586.122-.171.293-.305.513-.403.225-.097.486-.146.784-.146.273 0 .527.039.761.117.234.078.43.19.586.337l-.234.49a1.694 1.694 0 0 0-.513-.293 1.6 1.6 0 0 0-.578-.109c-.274 0-.476.051-.608.153a.487.487 0 0 0-.198.403c0 .127.039.232.117.315.083.078.213.139.388.183l.703.139c.332.069.581.181.747.337.166.156.249.366.249.63 0 .229-.063.43-.19.6a1.163 1.163 0 0 1-.527.388 2.167 2.167 0 0 1-.791.132Zm3.779 0c-.4 0-.703-.107-.908-.322-.205-.22-.307-.547-.307-.981v-1.882h-.718v-.571h.718v-.974l.74-.198v1.172h1.025v.571h-1.025v1.816c0 .273.048.469.146.586.098.117.239.175.425.175.092 0 .173-.007.241-.021.074-.02.139-.042.198-.066v.6a1.192 1.192 0 0 1-.256.066c-.098.02-.191.029-.279.029Zm4.76 0c-.367 0-.684-.075-.952-.227a1.591 1.591 0 0 1-.623-.659c-.146-.288-.22-.63-.22-1.025 0-.395.074-.735.22-1.018.147-.288.354-.508.623-.659.268-.156.585-.234.952-.234.366 0 .683.078.952.234.273.151.483.371.629.659.152.283.227.623.227 1.018s-.075.737-.227 1.025a1.574 1.574 0 0 1-.629.659 1.902 1.902 0 0 1-.952.227Zm0-.578c.322 0 .578-.112.768-.337.191-.225.286-.557.286-.996 0-.439-.095-.769-.286-.989-.19-.224-.446-.336-.768-.336-.318 0-.572.112-.762.336-.19.22-.286.55-.286.989 0 .439.093.771.279.996.19.225.446.337.769.337Zm2.857.512v-3.119h-.718v-.571h.923l-.205.19v-.586c0-.434.11-.764.329-.988.22-.23.542-.345.967-.345.102 0 .21.008.322.022a.938.938 0 0 1 .278.074v.6a.982.982 0 0 0-.219-.058 1.095 1.095 0 0 0-.257-.03.734.734 0 0 0-.366.088.57.57 0 0 0-.241.249.997.997 0 0 0-.081.432v.498l-.11-.146h1.113v.571h-.996v3.119h-.739Zm4.307 0v-5.389h.739v5.389h-.739Zm1.823 0v-3.69h.74v3.69h-.74Zm-.058-4.459v-.769h.857v.769h-.857Zm2.966 4.459-1.582-3.69h.791l1.245 3.083h-.213l1.267-3.083h.755l-1.59 3.69h-.673Zm2.849 0v-3.69h.74v3.69h-.74Zm-.058-4.459v-.769h.856v.769h-.856Zm1.882 4.459v-2.804c0-.142-.008-.286-.022-.432-.01-.152-.022-.303-.037-.454h.718l.066.776h-.088a1.26 1.26 0 0 1 .52-.623c.234-.146.505-.219.813-.219.434 0 .761.119.981.359.224.239.337.61.337 1.113v2.284h-.74v-2.24c0-.328-.066-.562-.198-.703-.126-.147-.322-.22-.585-.22-.313 0-.562.098-.747.293-.186.19-.279.449-.279.776v2.094h-.739Zm6.003 1.641c-.332 0-.635-.039-.908-.117a2.349 2.349 0 0 1-.725-.352l.183-.542c.151.103.3.183.447.242.146.063.3.11.461.139.161.029.327.044.498.044.351 0 .615-.09.791-.271.18-.176.271-.432.271-.769v-.989h.073a1.131 1.131 0 0 1-.483.652 1.495 1.495 0 0 1-.835.235c-.337 0-.63-.074-.879-.22a1.55 1.55 0 0 1-.571-.637 2.274 2.274 0 0 1-.198-.982c0-.375.066-.7.198-.973.137-.274.327-.484.571-.63.249-.152.542-.227.879-.227.322 0 .6.08.835.241.239.157.398.371.476.645l-.066-.059.066-.761h.717a7.025 7.025 0 0 0-.058.886v2.731c0 .557-.149.981-.447 1.274-.293.293-.725.44-1.296.44Zm-.051-2.307c.322 0 .578-.11.769-.33.195-.219.292-.529.292-.93 0-.4-.097-.707-.292-.922-.191-.215-.447-.322-.769-.322-.332 0-.596.107-.791.322-.191.215-.286.522-.286.922 0 .401.095.711.286.93.195.22.459.33.791.33ZM258.554 145.401c-.415 0-.791-.051-1.128-.154a2.777 2.777 0 0 1-.878-.454l.256-.6c.166.127.337.231.513.314.18.083.371.147.571.191.205.039.427.058.666.058.41 0 .71-.073.901-.219a.692.692 0 0 0 .293-.579.584.584 0 0 0-.205-.476c-.132-.112-.366-.202-.703-.271l-.798-.161c-.474-.097-.828-.256-1.062-.476-.23-.224-.344-.529-.344-.915 0-.313.083-.586.249-.82.166-.235.395-.415.688-.542a2.633 2.633 0 0 1 1.04-.191c.366 0 .703.054 1.01.161.308.103.567.257.777.462l-.249.578a2.19 2.19 0 0 0-.703-.417 2.42 2.42 0 0 0-.85-.139c-.376 0-.671.078-.886.234a.752.752 0 0 0-.315.637c0 .215.066.383.198.506.137.122.361.214.674.278l.798.154c.493.102.857.261 1.091.476.234.209.351.5.351.871 0 .298-.08.559-.241.784a1.55 1.55 0 0 1-.674.527c-.293.122-.64.183-1.04.183Zm4.407 0c-.366 0-.683-.076-.952-.227a1.59 1.59 0 0 1-.622-.659c-.147-.288-.22-.63-.22-1.025 0-.396.073-.735.22-1.018.146-.288.354-.508.622-.659.269-.157.586-.235.952-.235s.684.078.952.235c.274.151.483.371.63.659.151.283.227.622.227 1.018 0 .395-.076.737-.227 1.025a1.577 1.577 0 0 1-.63.659 1.91 1.91 0 0 1-.952.227Zm0-.579c.322 0 .579-.112.769-.336.19-.225.286-.557.286-.996 0-.44-.096-.769-.286-.989-.19-.225-.447-.337-.769-.337-.317 0-.571.112-.761.337-.191.22-.286.549-.286.989 0 .439.093.771.278.996.191.224.447.336.769.336Zm4.292.579a2.01 2.01 0 0 1-.974-.227 1.602 1.602 0 0 1-.637-.667c-.147-.292-.22-.639-.22-1.039 0-.396.076-.735.227-1.018.151-.283.364-.498.637-.645.274-.151.596-.227.967-.227.239 0 .471.042.695.125.225.078.411.19.557.337l-.242.52a1.306 1.306 0 0 0-.461-.293 1.326 1.326 0 0 0-.498-.103c-.351 0-.627.112-.827.337-.201.225-.301.549-.301.974 0 .43.1.759.301.989.2.229.476.344.827.344.156 0 .32-.03.491-.088.171-.064.327-.164.468-.3l.242.52a1.588 1.588 0 0 1-.571.344 2.067 2.067 0 0 1-.681.117Zm2.036-.066v-3.691h.739v3.691h-.739Zm-.059-4.46v-.769h.857v.769h-.857Zm3.296 4.526c-.327 0-.613-.076-.857-.227a1.51 1.51 0 0 1-.571-.659c-.132-.288-.198-.63-.198-1.025 0-.401.066-.742.198-1.026.136-.283.327-.5.571-.651a1.55 1.55 0 0 1 .857-.235c.322 0 .603.081.842.242.239.161.398.381.476.659h-.081l.073-.835h.718l-.044.454c-.01.147-.014.291-.014.432v2.805h-.74v-.82h.08c-.078.273-.239.49-.483.652a1.48 1.48 0 0 1-.827.234Zm.183-.579c.317 0 .571-.112.761-.336.196-.225.293-.557.293-.996 0-.44-.097-.769-.293-.989-.19-.225-.444-.337-.761-.337-.322 0-.581.112-.776.337-.191.22-.286.549-.286.989 0 .439.095.771.286.996.19.224.449.336.776.336Zm2.866.513v-5.39h.739v5.39h-.739Zm5.189.066c-.327 0-.613-.076-.857-.227a1.517 1.517 0 0 1-.571-.659c-.132-.288-.198-.63-.198-1.025 0-.401.066-.742.198-1.026a1.523 1.523 0 0 1 1.428-.886c.322 0 .603.081.842.242.239.161.398.381.476.659h-.08l.073-.835h.717l-.044.454a7.077 7.077 0 0 0-.014.432v2.805h-.74v-.82h.081c-.078.273-.239.49-.484.652a1.48 1.48 0 0 1-.827.234Zm.183-.579a.951.951 0 0 0 .762-.336c.195-.225.293-.557.293-.996 0-.44-.098-.769-.293-.989a.95.95 0 0 0-.762-.337c-.322 0-.581.112-.776.337-.191.22-.286.549-.286.989 0 .439.095.771.286.996.19.224.449.336.776.336Zm2.866.513v-3.691h.74v3.691h-.74Zm-.059-4.46v-.769h.857v.769h-.857Zm3.296 4.526a1.62 1.62 0 0 1-.857-.227 1.517 1.517 0 0 1-.571-.659c-.132-.288-.198-.63-.198-1.025 0-.401.066-.742.198-1.026a1.523 1.523 0 0 1 1.428-.886c.317 0 .596.081.835.242.244.156.405.371.483.644h-.088v-2.519h.74v5.39h-.732v-.835h.087a1.178 1.178 0 0 1-.483.659c-.239.161-.52.242-.842.242Zm.183-.579a.971.971 0 0 0 .769-.336c.195-.225.293-.557.293-.996 0-.44-.098-.769-.293-.989a.969.969 0 0 0-.769-.337c-.322 0-.581.112-.776.337-.191.22-.286.549-.286.989 0 .439.095.771.286.996.195.224.454.336.776.336Zm-30.488 11.095v-4.387c0-.141-.007-.285-.022-.432a14.095 14.095 0 0 0-.036-.454h.717l.074.835h-.081a1.15 1.15 0 0 1 .469-.659c.239-.161.522-.242.849-.242.327 0 .613.078.857.235.244.151.432.368.564.651.137.284.205.625.205 1.026 0 .395-.068.737-.205 1.025-.132.288-.32.508-.564.659-.244.151-.53.227-.857.227-.322 0-.603-.078-.842-.234a1.164 1.164 0 0 1-.469-.652h.081v2.402h-.74Zm1.787-2.095c.322 0 .579-.112.769-.336.195-.225.293-.557.293-.996 0-.44-.098-.769-.293-.989-.19-.225-.447-.337-.769-.337s-.581.112-.776.337c-.19.22-.286.549-.286.989 0 .439.096.771.286.996.195.224.454.336.776.336Zm4.258.579c-.367 0-.684-.076-.952-.227a1.591 1.591 0 0 1-.623-.659c-.146-.288-.22-.63-.22-1.025 0-.396.074-.735.22-1.018.147-.288.354-.508.623-.659.268-.157.585-.235.952-.235.366 0 .683.078.952.235.273.151.483.371.629.659.152.283.227.622.227 1.018 0 .395-.075.737-.227 1.025a1.574 1.574 0 0 1-.629.659 1.913 1.913 0 0 1-.952.227Zm0-.579c.322 0 .578-.112.768-.336.191-.225.286-.557.286-.996 0-.44-.095-.769-.286-.989-.19-.225-.446-.337-.768-.337-.318 0-.572.112-.762.337-.19.22-.286.549-.286.989 0 .439.093.771.279.996.19.224.446.336.769.336Zm2.673.513v-5.39h.739v5.39h-.739Zm1.823 0v-3.691h.74v3.691h-.74Zm-.058-4.46v-.769h.857v.769h-.857Zm3.5 4.526c-.371 0-.695-.076-.974-.227a1.614 1.614 0 0 1-.637-.667c-.146-.292-.219-.639-.219-1.039 0-.396.075-.735.227-1.018a1.53 1.53 0 0 1 .637-.645c.273-.151.595-.227.966-.227.24 0 .471.042.696.125.225.078.41.19.557.337l-.242.52a1.324 1.324 0 0 0-.461-.293 1.326 1.326 0 0 0-.498-.103c-.352 0-.628.112-.828.337-.2.225-.3.549-.3.974 0 .43.1.759.3.989.2.229.476.344.828.344.156 0 .319-.03.49-.088.171-.064.327-.164.469-.3l.242.52a1.592 1.592 0 0 1-.572.344 2.058 2.058 0 0 1-.681.117Zm2.036-.066v-3.691h.74v3.691h-.74Zm-.058-4.46v-.769h.856v.769h-.856Zm3.588 4.526c-.595 0-1.064-.169-1.406-.505-.342-.337-.512-.803-.512-1.399 0-.386.073-.723.219-1.011.152-.288.359-.51.623-.666a1.77 1.77 0 0 1 .93-.242c.346 0 .637.074.871.22.234.146.413.354.535.622.122.264.183.577.183.938v.234h-2.783v-.425h2.277l-.124.096c0-.367-.083-.65-.249-.85-.161-.205-.395-.307-.703-.307-.342 0-.605.119-.791.358-.185.235-.278.559-.278.974v.074c0 .434.105.761.315.981.215.22.517.329.908.329.215 0 .415-.029.6-.088.191-.063.371-.166.542-.307l.242.505a1.795 1.795 0 0 1-.623.352 2.53 2.53 0 0 1-.776.117Zm3.558 0c-.307 0-.59-.039-.849-.117a1.816 1.816 0 0 1-.645-.33l.227-.505c.181.137.381.239.601.307.22.069.444.103.674.103.268 0 .471-.046.607-.139a.462.462 0 0 0 .205-.396.39.39 0 0 0-.131-.307c-.083-.078-.222-.137-.418-.176l-.703-.139c-.312-.068-.549-.186-.71-.352a.877.877 0 0 1-.242-.637c0-.219.059-.415.176-.585.122-.171.293-.306.513-.403a1.94 1.94 0 0 1 .783-.147 2.4 2.4 0 0 1 .762.117c.234.079.429.191.586.337l-.235.491a1.657 1.657 0 0 0-.512-.293 1.611 1.611 0 0 0-.579-.11c-.273 0-.476.051-.608.154a.487.487 0 0 0-.197.403c0 .127.039.232.117.315.083.078.212.139.388.183l.703.139c.332.068.581.18.747.337.166.156.249.366.249.629a.98.98 0 0 1-.191.601 1.16 1.16 0 0 1-.527.388 2.16 2.16 0 0 1-.791.132ZM257.254 47.021c-.415 0-.791-.051-1.127-.154a2.773 2.773 0 0 1-.879-.454l.257-.6c.165.127.336.232.512.315.18.083.371.146.571.19.205.04.427.059.666.059.41 0 .71-.073.9-.22a.687.687 0 0 0 .293-.578c0-.205-.068-.364-.205-.476-.132-.112-.366-.202-.703-.27l-.797-.162c-.474-.097-.828-.256-1.062-.476-.229-.224-.344-.529-.344-.915 0-.312.083-.585.249-.82.166-.234.395-.414.688-.541.298-.127.644-.19 1.04-.19.366 0 .702.053 1.01.16.307.103.566.257.776.462l-.249.578c-.22-.19-.454-.33-.703-.417a2.422 2.422 0 0 0-.849-.14c-.376 0-.671.079-.886.235a.752.752 0 0 0-.315.637c0 .215.066.383.198.505.137.122.361.215.674.278l.797.154c.493.102.857.26 1.091.476.234.21.351.5.351.87 0 .298-.08.56-.241.784a1.54 1.54 0 0 1-.674.527 2.688 2.688 0 0 1-1.039.183Zm4.237 0c-.4 0-.702-.107-.907-.322-.205-.22-.308-.547-.308-.981v-1.881h-.717v-.571h.717v-.974l.74-.197v1.17h1.024v.572h-1.024v1.815c0 .273.048.469.146.586.098.117.239.175.425.175.092 0 .173-.007.241-.022a1.6 1.6 0 0 0 .198-.065v.6c-.073.03-.159.051-.256.066-.098.02-.191.029-.279.029Zm1.225-.066v-3.69h.739v3.69h-.739Zm-.059-4.458v-.768h.857v.768h-.857Zm3.543 6.098c-.331 0-.634-.04-.907-.117a2.323 2.323 0 0 1-.725-.352l.183-.541c.151.102.3.183.447.241.146.064.3.11.461.14.161.029.327.043.498.043.351 0 .614-.09.79-.27.181-.176.271-.433.271-.77v-.988h.073c-.078.274-.239.491-.483.652a1.49 1.49 0 0 1-.834.234c-.337 0-.63-.073-.879-.22a1.543 1.543 0 0 1-.571-.636 2.267 2.267 0 0 1-.197-.981c0-.376.065-.7.197-.974.137-.273.327-.483.571-.63a1.66 1.66 0 0 1 .879-.226c.322 0 .6.08.834.241.239.157.398.371.476.645l-.066-.059.066-.761h.717a7.745 7.745 0 0 0-.044.454 6.33 6.33 0 0 0-.014.431v2.73c0 .557-.149.982-.447 1.275-.293.292-.725.439-1.296.439Zm-.051-2.306c.322 0 .578-.11.769-.33.195-.219.293-.529.293-.93 0-.4-.098-.707-.293-.921-.191-.215-.447-.322-.769-.322-.332 0-.595.107-.79.322-.191.214-.286.522-.286.922s.095.71.286.93c.195.22.458.329.79.329Zm2.872.666v-2.803c0-.142-.007-.286-.022-.432a13.89 13.89 0 0 0-.037-.454h.718l.066.776h-.088c.102-.269.258-.476.468-.623.215-.146.471-.22.769-.22.302 0 .549.074.739.22.195.142.329.362.403.66h-.117c.097-.27.263-.481.497-.638a1.4 1.4 0 0 1 .813-.241c.41 0 .717.12.922.359.205.239.308.61.308 1.112v2.284h-.74v-2.247c0-.322-.056-.554-.168-.696-.107-.146-.283-.22-.527-.22-.283 0-.508.098-.674.294-.165.195-.248.458-.248.79v2.08h-.74v-2.248c0-.322-.056-.554-.168-.696-.107-.146-.283-.22-.527-.22-.283 0-.505.098-.666.294-.161.195-.242.458-.242.79v2.08h-.739Zm7.911.066c-.327 0-.613-.076-.857-.227a1.517 1.517 0 0 1-.571-.659c-.132-.288-.197-.63-.197-1.025 0-.4.065-.741.197-1.024.137-.283.327-.5.571-.652.244-.156.53-.234.857-.234.322 0 .602.08.841.241.239.161.398.381.476.66h-.08l.073-.835h.717l-.044.454c-.009.146-.014.29-.014.431v2.804h-.74v-.82h.081c-.078.273-.239.49-.483.652a1.478 1.478 0 0 1-.827.234Zm.183-.578a.947.947 0 0 0 .761-.337c.195-.224.293-.556.293-.996 0-.439-.098-.768-.293-.988a.947.947 0 0 0-.761-.337c-.323 0-.581.113-.776.337-.191.22-.286.55-.286.988 0 .44.095.772.286.996.19.224.449.337.776.337Zm6.229.578c-.327 0-.613-.076-.857-.227a1.517 1.517 0 0 1-.571-.659c-.131-.288-.197-.63-.197-1.025 0-.4.066-.741.197-1.024.137-.283.327-.5.571-.652.244-.156.53-.234.857-.234.322 0 .602.08.841.241.24.161.398.381.476.66h-.08l.073-.835h.717l-.044.454c-.009.146-.014.29-.014.431v2.804h-.74v-.82h.081c-.078.273-.239.49-.483.652a1.478 1.478 0 0 1-.827.234Zm.183-.578a.947.947 0 0 0 .761-.337c.195-.224.293-.556.293-.996 0-.439-.098-.768-.293-.988a.947.947 0 0 0-.761-.337c-.322 0-.581.113-.776.337-.191.22-.286.55-.286.988 0 .44.095.772.286.996.19.224.449.337.776.337Zm2.865.512v-2.803c0-.142-.008-.286-.022-.432a13.89 13.89 0 0 0-.037-.454h.717l.066.776h-.088c.113-.274.286-.481.52-.623a1.5 1.5 0 0 1 .813-.22c.434 0 .761.12.981.36.224.239.336.61.336 1.112v2.284h-.739v-2.24c0-.327-.066-.561-.198-.703-.127-.146-.322-.22-.585-.22-.313 0-.562.098-.747.294-.185.19-.278.449-.278.776v2.093h-.739Zm5.751.066c-.322 0-.607-.076-.856-.227a1.517 1.517 0 0 1-.571-.659c-.132-.288-.198-.63-.198-1.025 0-.4.066-.741.198-1.024.137-.283.327-.5.571-.652.249-.156.534-.234.856-.234.318 0 .596.08.835.241.244.157.405.371.483.645h-.088v-2.518h.74v5.387h-.732v-.834h.087a1.177 1.177 0 0 1-.483.658 1.47 1.47 0 0 1-.842.242Zm.183-.578a.97.97 0 0 0 .769-.337c.195-.224.293-.556.293-.996 0-.439-.098-.768-.293-.988a.97.97 0 0 0-.769-.337c-.322 0-.58.113-.775.337-.191.22-.286.55-.286.988 0 .44.095.772.286.996.195.224.453.337.775.337Zm-37.312 11.13c-.078 0-.168-.008-.271-.022a1.047 1.047 0 0 1-.278-.073v-.6c.064.019.134.036.212.05.074.02.144.03.213.03.19 0 .334-.061.432-.183.102-.117.153-.312.153-.586v-3.923h.74v3.975c0 .439-.098.77-.293.995-.195.225-.498.337-.908.337Zm.395-6.076v-.768h.864v.768h-.864Zm3.17 4.524c-.444 0-.778-.12-1.003-.359-.219-.244-.329-.617-.329-1.12v-2.276h.739v2.262c0 .307.064.534.191.68.126.147.319.22.578.22a.922.922 0 0 0 .71-.293c.18-.195.271-.454.271-.776v-2.093h.739v3.69h-.717v-.792h.095a1.291 1.291 0 0 1-.491.637c-.224.147-.485.22-.783.22Zm4.641 1.574c-.332 0-.635-.04-.908-.117a2.323 2.323 0 0 1-.725-.352l.183-.541c.151.102.3.183.447.241.146.064.3.11.461.14.161.029.327.043.498.043.351 0 .614-.09.79-.27.181-.176.271-.433.271-.77v-.988h.073c-.078.274-.239.491-.483.652a1.49 1.49 0 0 1-.834.234c-.337 0-.63-.073-.879-.22a1.543 1.543 0 0 1-.571-.636 2.267 2.267 0 0 1-.197-.981c0-.376.065-.7.197-.974.137-.273.327-.483.571-.63a1.66 1.66 0 0 1 .879-.226c.322 0 .6.08.834.241.239.157.398.371.476.645l-.066-.059.066-.761h.717a7.045 7.045 0 0 0-.058.886v2.73c0 .556-.149.98-.447 1.274-.293.292-.725.439-1.295.439Zm-.052-2.306c.322 0 .579-.11.769-.33.195-.219.293-.529.293-.93 0-.4-.098-.707-.293-.921-.19-.215-.447-.322-.769-.322-.332 0-.595.107-.79.322-.191.214-.286.522-.286.922s.095.71.286.93c.195.22.458.329.79.329Zm4.578.732c-.596 0-1.064-.168-1.406-.505-.342-.337-.512-.803-.512-1.398 0-.386.073-.723.219-1.01a1.65 1.65 0 0 1 .622-.666c.269-.162.579-.242.93-.242.347 0 .637.073.871.22.234.146.413.353.535.622.122.263.183.576.183.937v.234h-2.782v-.425h2.276l-.124.096c0-.367-.083-.65-.249-.85-.161-.205-.395-.307-.703-.307-.341 0-.605.12-.79.359-.186.234-.278.558-.278.973v.073c0 .435.105.762.314.981.215.22.518.33.908.33.215 0 .415-.03.6-.088.191-.064.371-.166.542-.308l.242.506a1.803 1.803 0 0 1-.623.35 2.526 2.526 0 0 1-.775.118Zm2.29-.066v-2.803c0-.142-.007-.286-.022-.432a13.89 13.89 0 0 0-.037-.454h.718l.066.776h-.088c.102-.269.258-.476.468-.623.215-.146.471-.22.769-.22.302 0 .549.074.739.22.195.142.33.362.403.66h-.117c.097-.27.263-.481.497-.638a1.4 1.4 0 0 1 .813-.241c.41 0 .717.12.922.359.205.239.308.61.308 1.112v2.284h-.74v-2.247c0-.322-.056-.554-.168-.696-.107-.146-.283-.22-.527-.22-.283 0-.508.098-.673.294-.166.195-.249.458-.249.79v2.08h-.74v-2.248c0-.322-.056-.554-.168-.696-.107-.146-.283-.22-.527-.22-.283 0-.505.098-.666.294-.161.195-.242.458-.242.79v2.08h-.739Zm8.203.066c-.595 0-1.063-.168-1.405-.505-.342-.337-.512-.803-.512-1.398 0-.386.073-.723.219-1.01.151-.288.359-.51.622-.666.269-.162.579-.242.93-.242.347 0 .637.073.871.22.234.146.412.353.534.622.122.263.183.576.183.937v.234H276.9v-.425h2.276l-.124.096c0-.367-.083-.65-.249-.85-.161-.205-.395-.307-.703-.307-.341 0-.605.12-.79.359-.186.234-.278.558-.278.973v.073c0 .435.105.762.314.981.215.22.518.33.908.33.215 0 .415-.03.6-.088.191-.064.371-.166.542-.308l.242.506a1.803 1.803 0 0 1-.623.35 2.527 2.527 0 0 1-.776.118Zm2.291-.066v-2.803c0-.142-.007-.286-.022-.432a13.89 13.89 0 0 0-.037-.454h.718l.066.776h-.088c.112-.274.285-.481.519-.623.235-.146.505-.22.813-.22.434 0 .761.12.981.36.224.239.337.61.337 1.112v2.284h-.74v-2.24c0-.327-.066-.561-.197-.703-.127-.146-.323-.22-.586-.22-.312 0-.561.098-.747.294-.185.19-.278.449-.278.776v2.093h-.739Zm5.774.066c-.4 0-.703-.107-.908-.322-.205-.22-.307-.547-.307-.981v-1.881h-.718v-.571h.718v-.974l.739-.197v1.17h1.025v.572h-1.025v1.815c0 .273.049.469.146.586.098.117.239.175.425.175.093 0 .173-.007.241-.022.074-.02.139-.041.198-.065v.6c-.073.03-.159.051-.256.066-.098.02-.19.029-.278.029ZM175.601 5.936 173.792.773h.791l1.501 4.46h-.271l1.589-4.46h.579l1.494 4.46h-.249l1.552-4.46h.747l-1.823 5.163h-.652l-1.45-4.248h.154l-1.509 4.248h-.644Zm6.687 0V.546h.74v2.482h-.103c.108-.278.281-.488.52-.63.239-.146.515-.22.828-.22.439 0 .766.123.981.367.215.24.322.603.322 1.091v2.3h-.74V3.68c0-.317-.063-.547-.19-.688-.122-.147-.317-.22-.586-.22-.312 0-.564.098-.754.293-.186.19-.278.444-.278.762v2.109h-.74Zm6.047.065c-.595 0-1.064-.168-1.406-.505-.342-.337-.512-.803-.512-1.399 0-.385.073-.722.219-1.01.152-.288.359-.51.623-.666a1.77 1.77 0 0 1 .93-.242c.346 0 .637.073.871.22.234.146.413.354.535.622.122.264.183.576.183.937v.235h-2.783v-.425h2.278l-.125.095c0-.366-.083-.65-.249-.85-.161-.204-.395-.307-.703-.307-.342 0-.605.12-.791.359-.185.234-.278.559-.278.974v.073c0 .435.105.762.315.981.215.22.517.33.908.33.215 0 .415-.03.6-.088.191-.063.371-.166.542-.308l.242.506a1.795 1.795 0 0 1-.623.351 2.527 2.527 0 0 1-.776.117Zm2.277-.065V3.16c0-.151-.005-.303-.015-.454a6.926 6.926 0 0 0-.029-.461h.718l.08.952h-.117c.049-.23.132-.42.249-.571.117-.152.259-.264.425-.337a1.343 1.343 0 0 1 .732-.095.931.931 0 0 1 .161.029l-.007.659a.737.737 0 0 0-.22-.059 1.379 1.379 0 0 0-.22-.014.992.992 0 0 0-.549.146.897.897 0 0 0-.344.38 1.177 1.177 0 0 0-.117.52v2.08h-.747Zm4.431.065c-.596 0-1.064-.168-1.406-.505-.342-.337-.513-.803-.513-1.399 0-.385.074-.722.22-1.01.152-.288.359-.51.623-.666a1.77 1.77 0 0 1 .93-.242c.346 0 .637.073.871.22.234.146.413.354.535.622.122.264.183.576.183.937v.235h-2.783v-.425h2.277l-.124.095c0-.366-.083-.65-.249-.85-.161-.204-.395-.307-.703-.307-.342 0-.605.12-.791.359-.185.234-.278.559-.278.974v.073c0 .435.105.762.315.981.215.22.517.33.908.33.215 0 .415-.03.6-.088.191-.063.371-.166.542-.308l.242.506a1.804 1.804 0 0 1-.623.351 2.532 2.532 0 0 1-.776.117Zm5.679 0c-.4 0-.703-.107-.908-.322-.205-.22-.308-.547-.308-.981V2.816h-.717v-.571h.717V1.27l.74-.198v1.172h1.025v.571h-1.025v1.816c0 .273.049.469.146.586.098.117.24.176.425.176.093 0 .174-.008.242-.022.073-.02.139-.042.198-.066v.6c-.074.03-.159.052-.257.066-.097.02-.19.03-.278.03Zm1.225-.065V.546h.74v2.482h-.103c.108-.278.281-.488.52-.63.239-.146.515-.22.828-.22.439 0 .766.123.981.367.215.24.322.603.322 1.091v2.3h-.74V3.68c0-.317-.063-.547-.19-.688-.122-.147-.317-.22-.586-.22-.312 0-.564.098-.754.293-.186.19-.278.444-.278.762v2.109h-.74Zm6.047.065c-.596 0-1.064-.168-1.406-.505-.342-.337-.513-.803-.513-1.399 0-.385.074-.722.22-1.01.152-.288.359-.51.623-.666a1.77 1.77 0 0 1 .93-.242c.346 0 .637.073.871.22.234.146.413.354.535.622.122.264.183.576.183.937v.235h-2.783v-.425h2.277l-.124.095c0-.366-.083-.65-.249-.85-.161-.204-.395-.307-.703-.307-.342 0-.605.12-.791.359-.185.234-.278.559-.278.974v.073c0 .435.105.762.315.981.215.22.517.33.908.33.215 0 .415-.03.6-.088.191-.063.371-.166.542-.308l.242.506a1.804 1.804 0 0 1-.623.351 2.532 2.532 0 0 1-.776.117Zm2.132 1.597-.176-.6c.229-.05.42-.108.571-.176.156-.069.286-.159.388-.271.103-.108.19-.247.264-.418l.183-.432-.015.3-1.604-3.756h.791l1.245 3.075h-.198l1.245-3.075h.762l-1.692 3.954c-.107.244-.222.45-.344.615-.122.166-.254.3-.395.403a1.783 1.783 0 0 1-.469.242 3.567 3.567 0 0 1-.556.139Zm5.988-1.662V.546h.739v5.39h-.739Zm1.823 0V2.245h.74v3.69h-.74Zm-.058-4.46V.707h.857v.769h-.857Zm2.966 4.46-1.582-3.691h.791l1.245 3.083h-.213l1.267-3.083h.754l-1.589 3.69h-.673Zm4.491.065c-.596 0-1.064-.168-1.406-.505-.342-.337-.513-.803-.513-1.399 0-.385.074-.722.22-1.01a1.64 1.64 0 0 1 .623-.666 1.77 1.77 0 0 1 .93-.242c.346 0 .637.073.871.22.234.146.412.354.535.622.122.264.183.576.183.937v.235h-2.783v-.425h2.277l-.124.095c0-.366-.083-.65-.249-.85-.161-.204-.396-.307-.703-.307-.342 0-.606.12-.791.359-.186.234-.278.559-.278.974v.073c0 .435.105.762.315.981.214.22.517.33.908.33.214 0 .415-.03.6-.088.191-.063.371-.166.542-.308l.242.506a1.804 1.804 0 0 1-.623.351 2.532 2.532 0 0 1-.776.117Z"/>
  <path stroke="var(--fi-main-content, #222)" stroke-dasharray="7.07 7.07" stroke-width="1.414" d="m162.134 65.416-33.425 5.514-23.481 19.572-35.912 49.07 39.227 44.659h67.127l29.558-50.999 16.851-59.27-59.945-8.546Z"/>
</svg>