<svg xmlns="http://www.w3.org/2000/svg" width="691" height="508" fill="none" viewBox="0 0 691 508">
  <circle fill="var(--fi-gap-mapping-neutral-dark, #b3b3b3)" stroke="var(--fi-gap-mapping-border, #808080)" cx="334.135" cy="243.395" r="224.094" stroke-dasharray="2 2"/>
  <circle fill="var(--fi-gap-mapping-neutral-medium, #ccc)" stroke="var(--fi-gap-mapping-border, #808080)" cx="334.134" cy="243.383" r="176.906" stroke-dasharray="2 2"/>
  <circle fill="var(--fi-gap-mapping-neutral-light, #f4f4f4)" stroke="var(--fi-gap-mapping-border, #808080)" cx="334.134" cy="243.395" r="104.283" stroke-dasharray="2 2"/>
  <path stroke="var(--fi-gap-mapping-border, #808080)" stroke-dasharray="2 2" d="M332.968 467.895V17.372M174.685 401.557l318.17-318.17M175.974 83.975l317.004 317.004M558.73 243.133H111.095"/>
  <path fill="var(--fi-gap-mapping-may-access-fill, #e8b91c)" stroke="var(--fi-gap-mapping-may-access-outline, #997d1e)" fill-opacity=".5" stroke-width="3.4" d="m246.348 200.758-.272.221-.162.311-50.801 97.571-8.776-112.742 109.54-25.747-49.529 40.386ZM299.623 333.588l.196.054.203.006 77.803 2.502-101.845 54.174-76.079-84.384 99.722 27.648ZM430.998 206.05l-.086-.26-32.296-97.737-.621-1.88-1.764.899-79.548 40.523 103.189-97.406 67.218 131.963v121.807l-97.906 27.544 41.406-48.436.408-.476V206.05Z"/>
  <path fill="var(--fi-gap-mapping-can-access-fill, #559d57)" stroke="var(--fi-gap-mapping-can-access-outline, #2a842d)" fill-opacity=".5" stroke-width="3.4" d="M430.998 204.478v79.382l-47.302 52.467-85.727-3.361-105.849-29.133 54.943-104.057 53.717-43.442 97.189-50.423 33.029 98.567Z"/>
  <circle fill="var(--fi-gap-mapping-can-access-outline, #2a842d)" cx="196.429" cy="302.363" r="10.199"  />
  <circle fill="var(--fi-gap-mapping-can-access-outline, #2a842d)" cx="247.422" cy="200.374" r="10.199"  />
  <circle fill="var(--fi-gap-mapping-can-access-outline, #2a842d)" cx="306.914" cy="154.48" r="10.199"  />
  <circle fill="var(--fi-gap-mapping-can-access-outline, #2a842d)" cx="401.252" cy="102.638" r="9.349"  />
  <circle fill="var(--fi-gap-mapping-can-access-outline, #2a842d)" cx="432.697" cy="207.175" r="10.199"  />
  <circle fill="var(--fi-gap-mapping-can-access-outline, #2a842d)" cx="432.697" cy="283.663" r="10.199"  />
  <circle fill="var(--fi-gap-mapping-may-access-fill, #e8b91c)" stroke="var(--fi-gap-mapping-may-access-outline, #997d1e)"  cx="487.09" cy="304.062" r="8.499" stroke-width="3.4"/>
  <circle fill="var(--fi-gap-mapping-may-access-fill, #e8b91c)" stroke="var(--fi-gap-mapping-may-access-outline, #997d1e)" cx="487.09" cy="181.679" r="8.499" stroke-width="3.4"/>
  <circle fill="var(--fi-gap-mapping-may-access-fill, #e8b91c)" stroke="var(--fi-gap-mapping-may-access-outline, #997d1e)" cx="420.799" cy="49.097" r="8.499" stroke-width="3.4"/>
  <circle fill="var(--fi-gap-mapping-may-access-fill, #e8b91c)" stroke="var(--fi-gap-mapping-may-access-outline, #997d1e)" cx="187.93" cy="186.777" r="8.499" stroke-width="3.4"/>
  <circle fill="var(--fi-gap-mapping-may-access-fill, #e8b91c)" stroke="var(--fi-gap-mapping-may-access-outline, #997d1e)" cx="274.619" cy="390.749" r="8.499" stroke-width="3.4"/>
  <circle fill="var(--fi-can-access-fill, #2a842d)" cx="385.104" cy="334.66" r="10.199"  />
  <circle fill="var(--fi-can-access-fill, #2a842d)" cx="298.415" cy="331.257" r="10.199"  />
  <path fill="var(--fi-main-content, #222)" d="M93.542 12.566V.158h1.83v12.408h-1.83Zm4.586 0v-6.74c0-.34-.018-.687-.053-1.039a34.255 34.255 0 0 0-.088-1.091h1.725l.158 1.866h-.211c.246-.646.622-1.144 1.126-1.496.517-.352 1.133-.528 1.848-.528.728 0 1.32.176 1.778.528.469.34.792.868.968 1.584h-.282a3.045 3.045 0 0 1 1.197-1.532c.563-.387 1.214-.58 1.954-.58.985 0 1.724.287 2.217.862.493.575.739 1.467.739 2.675v5.491h-1.777V7.163c0-.774-.135-1.332-.405-1.672-.258-.352-.68-.528-1.267-.528-.681 0-1.22.235-1.619.704-.399.47-.599 1.103-.599 1.901v4.998h-1.777V7.163c0-.774-.135-1.332-.405-1.672-.258-.352-.681-.528-1.267-.528-.681 0-1.215.235-1.602.704-.387.47-.58 1.103-.58 1.901v4.998h-1.778Zm15.623 0v-6.74c0-.34-.017-.687-.053-1.039a30.83 30.83 0 0 0-.088-1.091h1.725l.159 1.866h-.212c.247-.646.622-1.144 1.127-1.496.516-.352 1.132-.528 1.848-.528.727 0 1.32.176 1.777.528.47.34.792.868.968 1.584h-.281a3.034 3.034 0 0 1 1.197-1.532c.563-.387 1.214-.58 1.953-.58.986 0 1.725.287 2.218.862.493.575.739 1.467.739 2.675v5.491h-1.778V7.163c0-.774-.135-1.332-.404-1.672-.259-.352-.681-.528-1.268-.528-.68 0-1.22.235-1.619.704-.399.47-.598 1.103-.598 1.901v4.998h-1.778V7.163c0-.774-.135-1.332-.405-1.672-.258-.352-.68-.528-1.267-.528-.68 0-1.214.235-1.601.704-.388.47-.581 1.103-.581 1.901v4.998h-1.778Zm15.624 0v-8.87h1.777v8.87h-1.777Zm-.141-10.718V0h2.059v1.848h-2.059Zm8.519 14.66a7.935 7.935 0 0 1-2.183-.28 5.588 5.588 0 0 1-1.742-.846l.44-1.302c.363.246.721.44 1.073.58.352.153.722.265 1.109.335s.786.106 1.197.106c.845 0 1.478-.217 1.901-.651.434-.423.651-1.039.651-1.848v-2.376h.176a2.725 2.725 0 0 1-1.162 1.566c-.575.376-1.243.563-2.006.563-.81 0-1.514-.176-2.112-.528a3.706 3.706 0 0 1-1.373-1.531c-.317-.669-.475-1.455-.475-2.358 0-.904.158-1.684.475-2.341.329-.657.786-1.162 1.373-1.514.598-.364 1.302-.545 2.112-.545.774 0 1.443.193 2.006.58.575.376.957.892 1.144 1.55l-.158-.142.158-1.83h1.725c-.047.364-.082.727-.105 1.091-.024.352-.036.698-.036 1.039v6.564c0 1.338-.358 2.359-1.073 3.063-.704.704-1.743 1.056-3.115 1.056Zm-.124-5.543c.775 0 1.391-.264 1.848-.792.47-.528.704-1.273.704-2.235 0-.963-.234-1.702-.704-2.218-.457-.516-1.073-.774-1.848-.774-.798 0-1.431.258-1.9.774-.458.516-.687 1.255-.687 2.218 0 .962.229 1.707.687 2.235.469.528 1.102.792 1.9.792Zm6.87 1.601v-6.67c0-.364-.012-.727-.035-1.091a17.364 17.364 0 0 0-.071-1.109h1.725l.194 2.288h-.282c.117-.551.317-1.01.598-1.373a2.616 2.616 0 0 1 1.021-.81 3.23 3.23 0 0 1 1.76-.228c.129.012.258.035.387.07l-.017 1.584c-.2-.082-.376-.129-.528-.14a3.299 3.299 0 0 0-.528-.036c-.517 0-.957.118-1.32.352-.364.223-.64.528-.827.915a2.823 2.823 0 0 0-.282 1.25v4.998h-1.795Zm9.98.159c-.786 0-1.472-.182-2.059-.546-.587-.364-1.044-.892-1.373-1.584-.317-.692-.475-1.513-.475-2.464 0-.962.158-1.783.475-2.464.329-.68.786-1.202 1.373-1.566.587-.376 1.273-.563 2.059-.563.775 0 1.449.193 2.024.58.575.388.956.916 1.144 1.584h-.193l.176-2.006h1.724l-.105 1.091c-.024.352-.035.698-.035 1.039v6.74h-1.778v-1.97h.194a2.725 2.725 0 0 1-1.162 1.566c-.575.375-1.238.563-1.989.563Zm.44-1.39c.763 0 1.373-.27 1.831-.81.469-.54.704-1.338.704-2.394s-.235-1.848-.704-2.376c-.458-.54-1.068-.81-1.831-.81-.774 0-1.396.27-1.865.81-.458.528-.687 1.32-.687 2.376 0 1.056.229 1.854.687 2.394.457.54 1.079.81 1.865.81Zm10.338 1.39c-.962 0-1.69-.258-2.182-.775-.493-.528-.74-1.314-.74-2.358V5.069h-1.724V3.696h1.724v-2.34l1.778-.476v2.816h2.464v1.373h-2.464v4.365c0 .657.117 1.126.352 1.408.235.281.575.422 1.021.422.223 0 .416-.018.581-.053.176-.047.334-.1.475-.158v1.443c-.176.07-.382.123-.616.158-.235.047-.458.07-.669.07Zm2.944-.159v-8.87h1.778v8.87h-1.778Zm-.141-10.718V0h2.06v1.848h-2.06Zm8.326 10.877c-.88 0-1.643-.182-2.288-.546a3.819 3.819 0 0 1-1.496-1.584c-.352-.692-.528-1.513-.528-2.464 0-.95.176-1.766.528-2.446.352-.692.85-1.22 1.496-1.584.645-.376 1.408-.563 2.288-.563.88 0 1.642.187 2.288.563a3.658 3.658 0 0 1 1.513 1.584c.364.68.546 1.496.546 2.446 0 .95-.182 1.772-.546 2.464a3.79 3.79 0 0 1-1.513 1.584c-.646.364-1.408.546-2.288.546Zm0-1.39c.774 0 1.39-.27 1.848-.81.457-.54.686-1.338.686-2.394s-.229-1.848-.686-2.376c-.458-.54-1.074-.81-1.848-.81-.763 0-1.373.27-1.831.81-.457.528-.686 1.32-.686 2.376 0 1.056.223 1.854.669 2.394.457.54 1.073.81 1.848.81Zm6.424 1.231v-6.74c0-.34-.017-.687-.052-1.039a36.434 36.434 0 0 0-.088-1.091h1.724l.159 1.866h-.211c.27-.657.686-1.156 1.249-1.496.563-.352 1.215-.528 1.954-.528 1.044 0 1.83.287 2.358.862.54.575.81 1.467.81 2.675v5.491h-1.778V7.181c0-.786-.158-1.35-.475-1.69-.305-.352-.774-.528-1.408-.528-.751 0-1.349.235-1.795.704-.446.458-.669 1.08-.669 1.866v5.033h-1.778Zm18.17.159a7.038 7.038 0 0 1-2.041-.282c-.622-.188-1.138-.451-1.549-.792l.545-1.214c.435.328.916.575 1.444.739a5.415 5.415 0 0 0 1.619.246c.645 0 1.132-.111 1.461-.334a1.11 1.11 0 0 0 .492-.95.942.942 0 0 0-.316-.74c-.2-.187-.534-.328-1.004-.422l-1.689-.334c-.751-.165-1.32-.446-1.707-.845-.388-.4-.581-.91-.581-1.531 0-.528.141-.998.422-1.408.294-.411.704-.734 1.232-.968.54-.235 1.168-.352 1.883-.352.658 0 1.268.093 1.831.281.563.188 1.032.458 1.408.81l-.563 1.179a4.017 4.017 0 0 0-1.232-.704 3.847 3.847 0 0 0-1.391-.264c-.657 0-1.144.123-1.461.37a1.17 1.17 0 0 0-.475.968c0 .305.094.557.282.756.199.188.51.335.933.44l1.689.335c.798.164 1.397.434 1.795.81.399.375.599.88.599 1.513 0 .552-.153 1.033-.458 1.443-.305.41-.727.722-1.267.933-.54.211-1.173.317-1.901.317Zm9.085 0c-.962 0-1.69-.258-2.183-.775-.492-.528-.739-1.314-.739-2.358V5.069h-1.725V3.696h1.725v-2.34l1.778-.476v2.816h2.464v1.373h-2.464v4.365c0 .657.117 1.126.352 1.408.234.281.575.422 1.021.422.223 0 .416-.018.58-.053.176-.047.335-.1.476-.158v1.443c-.176.07-.382.123-.616.158-.235.047-.458.07-.669.07Zm6.341 0c-.786 0-1.473-.182-2.059-.546-.587-.364-1.045-.892-1.373-1.584-.317-.692-.475-1.513-.475-2.464 0-.962.158-1.783.475-2.464.328-.68.786-1.202 1.373-1.566.586-.376 1.273-.563 2.059-.563.774 0 1.449.193 2.024.58.575.388.956.916 1.144 1.584h-.194l.176-2.006h1.725l-.106 1.091a15.93 15.93 0 0 0-.035 1.039v6.74h-1.777v-1.97h.193a2.727 2.727 0 0 1-1.161 1.566c-.575.375-1.238.563-1.989.563Zm.44-1.39c.762 0 1.373-.27 1.83-.81.469-.54.704-1.338.704-2.394s-.235-1.848-.704-2.376c-.457-.54-1.068-.81-1.83-.81-.775 0-1.397.27-1.866.81-.457.528-.686 1.32-.686 2.376 0 1.056.229 1.854.686 2.394.458.54 1.08.81 1.866.81Zm10.338 1.39c-.963 0-1.69-.258-2.183-.775-.493-.528-.739-1.314-.739-2.358V5.069h-1.725V3.696h1.725v-2.34L226.04.88v2.816h2.464v1.373h-2.464v4.365c0 .657.117 1.126.352 1.408.234.281.574.422 1.02.422.223 0 .417-.018.581-.053.176-.047.335-.1.475-.158v1.443c-.176.07-.381.123-.616.158-.234.047-.457.07-.668.07Zm6.094 0c-1.068 0-1.871-.288-2.411-.863-.528-.586-.792-1.484-.792-2.692V3.696h1.777v5.438c0 .74.153 1.285.458 1.637.305.352.769.528 1.39.528.704 0 1.274-.234 1.708-.704.434-.47.651-1.091.651-1.865V3.696h1.777v8.87h-1.724v-1.9h.228c-.246.657-.639 1.167-1.179 1.53-.539.353-1.167.529-1.883.529Zm10.207 0c-.739 0-1.42-.094-2.042-.282-.621-.188-1.138-.451-1.548-.792l.545-1.214c.434.328.915.575 1.443.739a5.422 5.422 0 0 0 1.62.246c.645 0 1.132-.111 1.46-.334.329-.235.493-.551.493-.95a.94.94 0 0 0-.317-.74c-.199-.187-.533-.328-1.003-.422l-1.689-.334c-.751-.165-1.32-.446-1.708-.845-.387-.4-.58-.91-.58-1.531 0-.528.14-.998.422-1.408.293-.411.704-.734 1.232-.968.54-.235 1.167-.352 1.883-.352.657 0 1.267.093 1.831.281.563.188 1.032.458 1.408.81l-.564 1.179a3.994 3.994 0 0 0-1.232-.704 3.842 3.842 0 0 0-1.39-.264c-.657 0-1.144.123-1.461.37-.317.246-.475.569-.475.968 0 .305.094.557.282.756.199.188.51.335.932.44l1.69.335c.798.164 1.396.434 1.795.81.399.375.599.88.599 1.513 0 .552-.153 1.033-.458 1.443-.305.41-.727.722-1.267.933-.54.211-1.174.317-1.901.317ZM1.597 151.934v-12.408h1.83v10.841h6.09v1.567h-7.92Zm12.95.158c-.787 0-1.473-.182-2.06-.546-.586-.363-1.044-.891-1.372-1.584-.317-.692-.476-1.513-.476-2.464 0-.962.159-1.783.476-2.464.328-.68.786-1.202 1.373-1.566.586-.375 1.273-.563 2.059-.563.774 0 1.449.193 2.024.581.575.387.956.915 1.144 1.584h-.194l.176-2.007h1.725l-.106 1.091c-.023.352-.035.699-.035 1.039v6.741h-1.777v-1.972h.193a2.726 2.726 0 0 1-1.162 1.567c-.575.375-1.237.563-1.988.563Zm.44-1.39c.762 0 1.373-.27 1.83-.81.47-.54.704-1.338.704-2.394s-.235-1.848-.704-2.376c-.457-.539-1.068-.809-1.83-.809-.775 0-1.397.27-1.866.809-.457.528-.686 1.32-.686 2.376 0 1.056.229 1.854.686 2.394.458.54 1.08.81 1.866.81Zm6.888 1.232v-6.741c0-.34-.018-.687-.053-1.039a34.482 34.482 0 0 0-.088-1.091h1.725l.158 1.866h-.21c.269-.657.686-1.156 1.249-1.496.563-.352 1.214-.528 1.953-.528 1.044 0 1.83.287 2.359.862.54.575.81 1.467.81 2.675v5.492H28v-5.386c0-.786-.159-1.349-.476-1.69-.305-.352-.774-.528-1.408-.528-.75 0-1.349.235-1.795.704-.446.458-.669 1.08-.669 1.866v5.034h-1.777Zm14.428 3.942a7.919 7.919 0 0 1-2.182-.282 5.582 5.582 0 0 1-1.743-.844l.44-1.303c.364.247.722.44 1.074.581.352.153.721.264 1.108.334.388.071.787.106 1.197.106.845 0 1.479-.217 1.901-.651.434-.423.651-1.039.651-1.848v-2.376h.176a2.724 2.724 0 0 1-1.161 1.566c-.575.376-1.244.563-2.007.563-.81 0-1.513-.176-2.112-.528a3.7 3.7 0 0 1-1.373-1.531c-.316-.669-.475-1.455-.475-2.358 0-.904.159-1.684.476-2.341.328-.657.786-1.162 1.372-1.514.599-.363 1.303-.545 2.112-.545.775 0 1.444.193 2.007.581.575.375.956.891 1.144 1.548l-.159-.14.159-1.831h1.724a17.123 17.123 0 0 0-.14 2.13v6.565c0 1.337-.358 2.358-1.074 3.062-.704.704-1.742 1.056-3.115 1.056Zm-.123-5.544c.774 0 1.39-.264 1.848-.792.469-.528.704-1.273.704-2.235s-.235-1.702-.704-2.218c-.458-.516-1.074-.774-1.848-.774-.798 0-1.432.258-1.901.774-.458.516-.687 1.256-.687 2.218s.23 1.707.687 2.235c.47.528 1.103.792 1.9.792Zm10.055 1.76c-1.068 0-1.872-.287-2.412-.862-.528-.587-.792-1.485-.792-2.693v-5.474h1.778v5.439c0 .739.153 1.284.458 1.636.305.352.768.528 1.39.528.704 0 1.273-.234 1.707-.704.434-.469.651-1.091.651-1.865v-5.034h1.778v8.871h-1.725v-1.901h.229c-.246.657-.64 1.167-1.18 1.531-.539.352-1.167.528-1.882.528Zm10.559 0c-.787 0-1.473-.182-2.06-.546-.586-.363-1.044-.891-1.373-1.584-.316-.692-.475-1.513-.475-2.464 0-.962.159-1.783.475-2.464.33-.68.787-1.202 1.373-1.566.587-.375 1.273-.563 2.06-.563.774 0 1.449.193 2.024.581.575.387.956.915 1.144 1.584h-.194l.176-2.007h1.725l-.106 1.091a15.68 15.68 0 0 0-.035 1.039v6.741H59.75v-1.972h.194a2.725 2.725 0 0 1-1.162 1.567c-.575.375-1.237.563-1.988.563Zm.44-1.39c.762 0 1.372-.27 1.83-.81.47-.54.704-1.338.704-2.394s-.235-1.848-.704-2.376c-.458-.539-1.068-.809-1.83-.809-.775 0-1.397.27-1.866.809-.458.528-.687 1.32-.687 2.376 0 1.056.23 1.854.687 2.394.457.54 1.08.81 1.865.81Zm10.883 5.174a7.92 7.92 0 0 1-2.183-.282 5.584 5.584 0 0 1-1.742-.844l.44-1.303c.364.247.722.44 1.074.581.352.153.721.264 1.108.334.388.071.787.106 1.197.106.845 0 1.479-.217 1.901-.651.434-.423.651-1.039.651-1.848v-2.376h.176a2.723 2.723 0 0 1-1.161 1.566c-.575.376-1.244.563-2.007.563-.81 0-1.513-.176-2.112-.528a3.701 3.701 0 0 1-1.373-1.531c-.316-.669-.475-1.455-.475-2.358 0-.904.159-1.684.476-2.341.328-.657.786-1.162 1.372-1.514.599-.363 1.303-.545 2.112-.545.775 0 1.444.193 2.007.581.575.375.956.891 1.144 1.548l-.159-.14.159-1.831h1.725a17.27 17.27 0 0 0-.141 2.13v6.565c0 1.337-.358 2.358-1.074 3.062-.704.704-1.742 1.056-3.115 1.056Zm-.123-5.544c.774 0 1.39-.264 1.848-.792.47-.528.704-1.273.704-2.235s-.235-1.702-.704-2.218c-.458-.516-1.074-.774-1.848-.774-.798 0-1.432.258-1.901.774-.458.516-.687 1.256-.687 2.218s.23 1.707.687 2.235c.47.528 1.103.792 1.9.792Zm11.005 1.76c-1.431 0-2.558-.405-3.38-1.214-.82-.81-1.231-1.931-1.231-3.362 0-.927.176-1.737.528-2.429a3.946 3.946 0 0 1 1.496-1.601c.645-.388 1.39-.581 2.235-.581.833 0 1.531.176 2.094.528.564.352.992.85 1.285 1.496.294.633.44 1.384.44 2.253v.563h-6.688v-1.021h5.474l-.3.229c0-.88-.199-1.561-.598-2.042-.387-.493-.95-.739-1.69-.739-.82 0-1.454.287-1.9.862-.446.564-.669 1.344-.669 2.341v.176c0 1.044.252 1.831.757 2.359.516.528 1.244.792 2.182.792.517 0 .998-.071 1.444-.212a4.037 4.037 0 0 0 1.302-.739l.58 1.215c-.41.363-.909.645-1.495.844a6.077 6.077 0 0 1-1.866.282ZM5.104 350.834c-1.725 0-3.01-.434-3.854-1.302-.834-.868-1.25-2.153-1.25-3.855v-7.409h1.83v7.374c0 1.197.258 2.1.775 2.711.528.598 1.36.897 2.499.897 1.08 0 1.895-.299 2.446-.897.552-.611.828-1.514.828-2.711v-7.374h1.795v7.409c0 1.702-.429 2.987-1.285 3.855-.857.868-2.118 1.302-3.784 1.302Zm7.75-.158v-6.741c0-.34-.018-.686-.053-1.038a34.307 34.307 0 0 0-.088-1.092h1.725l.159 1.866h-.212c.27-.657.687-1.156 1.25-1.496.563-.352 1.214-.528 1.954-.528 1.044 0 1.83.287 2.358.862.54.575.81 1.467.81 2.676v5.491h-1.778v-5.386c0-.786-.159-1.349-.475-1.689-.305-.352-.775-.528-1.408-.528-.751 0-1.35.234-1.796.704-.445.457-.668 1.079-.668 1.865v5.034h-1.778Zm14.534.158c-1.432 0-2.558-.405-3.38-1.214-.82-.81-1.232-1.93-1.232-3.362 0-.927.177-1.736.529-2.429a3.946 3.946 0 0 1 1.495-1.601c.646-.387 1.39-.581 2.236-.581.833 0 1.53.176 2.094.528.563.352.992.851 1.285 1.496.293.634.44 1.385.44 2.253v.563h-6.688v-1.021h5.473l-.299.229c0-.88-.2-1.561-.598-2.042-.387-.492-.95-.739-1.69-.739-.821 0-1.455.288-1.9.863-.446.563-.67 1.343-.67 2.34v.176c0 1.045.253 1.831.758 2.359.516.528 1.243.792 2.182.792.516 0 .997-.071 1.443-.211a4.04 4.04 0 0 0 1.303-.74l.58 1.215a4.33 4.33 0 0 1-1.496.845 6.107 6.107 0 0 1-1.865.281Zm4.17-.158 4.031-4.999v.845l-3.819-4.717h2.13l2.692 3.468h-.633l2.693-3.468h2.112l-3.784 4.7v-.81l4.012 4.981h-2.13l-2.903-3.714h.633l-2.921 3.714h-2.112Zm10.79 3.801v-10.542c0-.34-.018-.686-.053-1.038a34.016 34.016 0 0 0-.088-1.092h1.725l.176 2.007h-.194a2.77 2.77 0 0 1 1.127-1.584c.575-.387 1.255-.581 2.041-.581s1.473.188 2.06.563c.586.364 1.038.886 1.355 1.567.328.68.492 1.501.492 2.464 0 .95-.164 1.771-.492 2.464-.317.692-.769 1.22-1.356 1.584-.586.363-1.273.545-2.059.545-.774 0-1.449-.188-2.024-.563a2.77 2.77 0 0 1-1.126-1.566h.193v5.772h-1.777Zm4.294-5.033c.775 0 1.39-.27 1.848-.81.47-.54.704-1.337.704-2.393 0-1.056-.234-1.848-.704-2.376-.457-.54-1.073-.81-1.848-.81-.774 0-1.396.27-1.865.81-.458.528-.687 1.32-.687 2.376 0 1.056.229 1.853.687 2.393.469.54 1.09.81 1.865.81Zm10.532 1.39c-1.432 0-2.558-.405-3.38-1.214-.82-.81-1.232-1.93-1.232-3.362 0-.927.176-1.736.528-2.429a3.946 3.946 0 0 1 1.496-1.601c.646-.387 1.39-.581 2.236-.581.833 0 1.53.176 2.094.528.563.352.992.851 1.285 1.496.293.634.44 1.385.44 2.253v.563h-6.688v-1.021h5.473l-.299.229c0-.88-.2-1.561-.598-2.042-.387-.492-.95-.739-1.69-.739-.821 0-1.455.288-1.9.863-.446.563-.67 1.343-.67 2.34v.176c0 1.045.253 1.831.757 2.359.517.528 1.244.792 2.183.792.516 0 .997-.071 1.443-.211a4.039 4.039 0 0 0 1.302-.74l.581 1.215c-.41.364-.91.645-1.496.845a6.107 6.107 0 0 1-1.865.281Zm9.396 0c-.891 0-1.672-.182-2.34-.545a3.884 3.884 0 0 1-1.532-1.602c-.352-.704-.528-1.537-.528-2.499 0-.951.182-1.766.546-2.447a3.68 3.68 0 0 1 1.531-1.548c.657-.364 1.431-.546 2.323-.546.575 0 1.133.1 1.672.299.54.188.986.458 1.338.81l-.58 1.249a3.2 3.2 0 0 0-1.11-.704 3.217 3.217 0 0 0-1.197-.246c-.844 0-1.507.27-1.988.81-.481.539-.722 1.32-.722 2.34 0 1.033.24 1.825.722 2.376.48.552 1.144.828 1.989.828a3.63 3.63 0 0 0 1.179-.212c.41-.152.786-.393 1.126-.721l.58 1.249c-.363.352-.82.628-1.372.828a4.97 4.97 0 0 1-1.637.281Zm8.36 0c-.962 0-1.69-.258-2.182-.774-.493-.528-.74-1.314-.74-2.359v-4.523h-1.724v-1.373h1.725v-2.34l1.777-.476v2.816h2.464v1.373h-2.464v4.365c0 .657.118 1.126.352 1.408.235.282.575.422 1.021.422.223 0 .417-.017.58-.052.177-.047.335-.1.476-.159v1.443a2.726 2.726 0 0 1-.616.159c-.235.047-.458.07-.669.07Zm6.96 0c-1.432 0-2.559-.405-3.38-1.214-.821-.81-1.232-1.93-1.232-3.362 0-.927.176-1.736.528-2.429a3.946 3.946 0 0 1 1.496-1.601c.645-.387 1.39-.581 2.235-.581.833 0 1.531.176 2.095.528.563.352.991.851 1.284 1.496.294.634.44 1.385.44 2.253v.563h-6.688v-1.021h5.474l-.3.229c0-.88-.199-1.561-.597-2.042-.388-.492-.95-.739-1.69-.739-.822 0-1.455.288-1.9.863-.447.563-.67 1.343-.67 2.34v.176c0 1.045.252 1.831.757 2.359.516.528 1.244.792 2.182.792.517 0 .998-.071 1.444-.211a4.04 4.04 0 0 0 1.302-.74l.58 1.215a4.33 4.33 0 0 1-1.495.845 6.107 6.107 0 0 1-1.866.281Zm8.903 0c-.774 0-1.46-.182-2.06-.545-.586-.364-1.043-.892-1.372-1.584-.317-.693-.475-1.514-.475-2.464 0-.963.158-1.784.475-2.464.329-.681.786-1.203 1.373-1.567.598-.375 1.285-.563 2.06-.563.762 0 1.43.194 2.005.581a2.65 2.65 0 0 1 1.162 1.549h-.211v-6.055h1.778v12.954h-1.76v-2.007h.21a2.827 2.827 0 0 1-1.16 1.584c-.576.388-1.25.581-2.025.581Zm.44-1.39c.763 0 1.379-.27 1.848-.81.47-.54.704-1.337.704-2.393 0-1.056-.235-1.848-.704-2.376-.47-.54-1.085-.81-1.848-.81-.774 0-1.396.27-1.865.81-.458.528-.687 1.32-.687 2.376 0 1.056.229 1.853.687 2.393.469.54 1.09.81 1.865.81Zm-42.997 22.39c-1.431 0-2.558-.405-3.379-1.214-.821-.81-1.232-1.93-1.232-3.362 0-.927.176-1.736.528-2.429a3.946 3.946 0 0 1 1.496-1.601c.645-.387 1.39-.581 2.235-.581.833 0 1.531.176 2.095.528.563.352.991.851 1.284 1.496.294.634.44 1.385.44 2.253v.563h-6.688v-1.021h5.474l-.3.229c0-.88-.199-1.561-.598-2.042-.387-.492-.95-.739-1.69-.739-.82 0-1.454.288-1.9.863-.446.563-.669 1.343-.669 2.34v.176c0 1.045.252 1.831.757 2.359.516.528 1.244.792 2.182.792.517 0 .998-.071 1.444-.211a4.04 4.04 0 0 0 1.302-.74l.58 1.215a4.33 4.33 0 0 1-1.495.845 6.107 6.107 0 0 1-1.866.281Zm7.992-.158-3.802-8.871h1.9l2.993 7.41h-.51l3.044-7.41h1.813l-3.82 8.871h-1.618Zm10.794.158c-1.431 0-2.558-.405-3.38-1.214-.82-.81-1.231-1.93-1.231-3.362 0-.927.176-1.736.528-2.429a3.946 3.946 0 0 1 1.496-1.601c.645-.387 1.39-.581 2.235-.581.833 0 1.531.176 2.094.528.564.352.992.851 1.285 1.496.294.634.44 1.385.44 2.253v.563h-6.688v-1.021h5.474l-.3.229c0-.88-.199-1.561-.598-2.042-.387-.492-.95-.739-1.69-.739-.82 0-1.454.288-1.9.863-.446.563-.669 1.343-.669 2.34v.176c0 1.045.252 1.831.757 2.359.516.528 1.244.792 2.182.792.517 0 .998-.071 1.444-.211a4.04 4.04 0 0 0 1.302-.74l.58 1.215a4.33 4.33 0 0 1-1.495.845 6.107 6.107 0 0 1-1.866.281Zm5.507-.158v-6.741c0-.34-.017-.686-.053-1.038a34.307 34.307 0 0 0-.088-1.092h1.725l.159 1.866h-.212c.27-.657.687-1.156 1.25-1.496.563-.352 1.214-.528 1.953-.528 1.045 0 1.83.287 2.359.862.54.575.81 1.467.81 2.676v5.491h-1.778v-5.386c0-.786-.158-1.349-.475-1.689-.305-.352-.775-.528-1.408-.528-.751 0-1.35.234-1.796.704-.445.457-.668 1.079-.668 1.865v5.034h-1.778Zm13.883.158c-.963 0-1.69-.258-2.183-.774-.493-.528-.74-1.314-.74-2.359v-4.523h-1.724v-1.373h1.725v-2.34l1.778-.476v2.816h2.463v1.373h-2.463v4.365c0 .657.117 1.126.352 1.408.234.282.574.422 1.02.422.223 0 .417-.017.581-.052.176-.047.334-.1.475-.159v1.443a2.725 2.725 0 0 1-.616.159c-.234.047-.457.07-.668.07Zm5.988 0c-.739 0-1.42-.094-2.041-.281-.622-.188-1.138-.452-1.549-.792l.546-1.215c.434.329.915.575 1.443.739a5.397 5.397 0 0 0 1.62.247c.644 0 1.131-.112 1.46-.335.328-.234.493-.551.493-.95a.942.942 0 0 0-.317-.739c-.2-.188-.534-.329-1.003-.423l-1.69-.334c-.75-.164-1.32-.446-1.707-.845-.387-.399-.58-.909-.58-1.531 0-.528.14-.997.421-1.408.294-.411.705-.733 1.233-.968.54-.235 1.167-.352 1.883-.352.657 0 1.267.094 1.83.282.563.187 1.033.457 1.408.809l-.563 1.179a4.024 4.024 0 0 0-1.232-.704 3.845 3.845 0 0 0-1.39-.264c-.658 0-1.145.124-1.461.37a1.168 1.168 0 0 0-.475.968c0 .305.093.557.281.757.2.188.51.334.933.44l1.69.334c.797.164 1.396.434 1.795.81.399.375.598.88.598 1.513 0 .552-.152 1.033-.457 1.444-.306.41-.728.721-1.268.932-.54.212-1.173.317-1.9.317ZM112.536 485.895l5.526-12.408h1.566l5.615 12.408h-1.883l-1.532-3.52.775.492h-7.515l.827-.492-1.531 3.52h-1.848Zm6.283-10.402-2.675 6.318-.423-.404h6.248l-.352.404-2.728-6.318h-.07Zm11.709 10.56c-.892 0-1.672-.182-2.341-.546a3.877 3.877 0 0 1-1.531-1.601c-.352-.704-.528-1.537-.528-2.499 0-.951.182-1.766.546-2.447a3.684 3.684 0 0 1 1.531-1.549c.657-.363 1.431-.545 2.323-.545.575 0 1.132.099 1.672.299.54.188.986.458 1.338.81l-.581 1.249a3.187 3.187 0 0 0-1.109-.704 3.212 3.212 0 0 0-1.197-.246c-.844 0-1.507.27-1.988.809-.481.54-.722 1.32-.722 2.341 0 1.033.241 1.825.722 2.376.481.552 1.144.827 1.988.827.376 0 .769-.07 1.18-.211.41-.152.786-.393 1.126-.721l.581 1.249c-.364.352-.822.628-1.373.827a4.945 4.945 0 0 1-1.637.282Zm8.611 0c-.892 0-1.672-.182-2.341-.546a3.877 3.877 0 0 1-1.531-1.601c-.352-.704-.528-1.537-.528-2.499 0-.951.182-1.766.546-2.447a3.678 3.678 0 0 1 1.531-1.549c.657-.363 1.431-.545 2.323-.545.575 0 1.132.099 1.672.299.54.188.986.458 1.338.81l-.581 1.249a3.187 3.187 0 0 0-1.109-.704 3.212 3.212 0 0 0-1.197-.246c-.844 0-1.507.27-1.988.809-.482.54-.722 1.32-.722 2.341 0 1.033.24 1.825.722 2.376.481.552 1.144.827 1.988.827.376 0 .769-.07 1.18-.211.41-.152.786-.393 1.126-.721l.581 1.249c-.364.352-.822.628-1.373.827a4.945 4.945 0 0 1-1.637.282Zm8.523 0c-.88 0-1.643-.182-2.288-.546a3.819 3.819 0 0 1-1.496-1.584c-.352-.692-.528-1.513-.528-2.464 0-.95.176-1.766.528-2.446a3.692 3.692 0 0 1 1.496-1.584c.645-.376 1.408-.563 2.288-.563.88 0 1.643.187 2.288.563a3.663 3.663 0 0 1 1.514 1.584c.363.68.545 1.496.545 2.446 0 .951-.182 1.772-.545 2.464a3.786 3.786 0 0 1-1.514 1.584c-.645.364-1.408.546-2.288.546Zm0-1.39c.775 0 1.391-.27 1.848-.81.458-.54.687-1.338.687-2.394s-.229-1.848-.687-2.376c-.457-.539-1.073-.809-1.848-.809-.763 0-1.373.27-1.83.809-.458.528-.687 1.32-.687 2.376 0 1.056.223 1.854.669 2.394.458.54 1.074.81 1.848.81Zm6.425 1.232v-6.741c0-.341-.018-.687-.053-1.039a33.615 33.615 0 0 0-.088-1.091h1.725l.158 1.866h-.211c.247-.646.622-1.144 1.127-1.496.516-.352 1.132-.528 1.848-.528.727 0 1.32.176 1.777.528.47.34.792.868.968 1.584h-.281a3.033 3.033 0 0 1 1.196-1.531c.564-.388 1.215-.581 1.954-.581.986 0 1.725.287 2.218.862.492.575.739 1.467.739 2.675v5.492h-1.778v-5.404c0-.774-.135-1.331-.405-1.672-.258-.352-.68-.528-1.267-.528-.68 0-1.22.235-1.619.704-.399.47-.598 1.103-.598 1.901v4.999h-1.778v-5.404c0-.774-.135-1.331-.405-1.672-.258-.352-.68-.528-1.267-.528-.68 0-1.214.235-1.602.704-.387.47-.58 1.103-.58 1.901v4.999h-1.778Zm15.624 0v-6.741c0-.341-.018-.687-.053-1.039a36.693 36.693 0 0 0-.088-1.091h1.725l.158 1.866h-.211c.246-.646.622-1.144 1.126-1.496.516-.352 1.132-.528 1.848-.528.728 0 1.32.176 1.778.528.469.34.792.868.968 1.584h-.282a3.04 3.04 0 0 1 1.197-1.531c.563-.388 1.214-.581 1.954-.581.985 0 1.724.287 2.217.862.493.575.739 1.467.739 2.675v5.492h-1.777v-5.404c0-.774-.135-1.331-.405-1.672-.258-.352-.681-.528-1.267-.528-.681 0-1.221.235-1.619.704-.399.47-.599 1.103-.599 1.901v4.999h-1.777v-5.404c0-.774-.135-1.331-.405-1.672-.258-.352-.681-.528-1.267-.528-.681 0-1.215.235-1.602.704-.387.47-.581 1.103-.581 1.901v4.999h-1.777Zm19.425.158c-.88 0-1.643-.182-2.288-.546a3.813 3.813 0 0 1-1.496-1.584c-.352-.692-.528-1.513-.528-2.464 0-.95.176-1.766.528-2.446.352-.692.85-1.22 1.496-1.584.645-.376 1.408-.563 2.288-.563.88 0 1.642.187 2.288.563a3.66 3.66 0 0 1 1.513 1.584c.364.68.546 1.496.546 2.446 0 .951-.182 1.772-.546 2.464a3.784 3.784 0 0 1-1.513 1.584c-.646.364-1.408.546-2.288.546Zm0-1.39c.774 0 1.39-.27 1.848-.81.457-.54.686-1.338.686-2.394s-.229-1.848-.686-2.376c-.458-.539-1.074-.809-1.848-.809-.763 0-1.373.27-1.831.809-.457.528-.686 1.32-.686 2.376 0 1.056.223 1.854.669 2.394.457.54 1.073.81 1.848.81Zm9.821 1.39c-.774 0-1.46-.182-2.059-.546-.587-.363-1.044-.891-1.373-1.584-.316-.692-.475-1.513-.475-2.464 0-.962.159-1.783.475-2.464.329-.68.786-1.202 1.373-1.566.599-.376 1.285-.563 2.059-.563.763 0 1.432.193 2.007.581.586.375.974.891 1.161 1.548h-.211v-6.054h1.778v12.954h-1.76v-2.007h.211a2.83 2.83 0 0 1-1.162 1.584c-.575.387-1.249.581-2.024.581Zm.44-1.39c.763 0 1.379-.27 1.848-.81.47-.54.704-1.338.704-2.394s-.234-1.848-.704-2.376c-.469-.539-1.085-.809-1.848-.809-.774 0-1.396.27-1.865.809-.458.528-.687 1.32-.687 2.376 0 1.056.229 1.854.687 2.394.469.54 1.091.81 1.865.81Zm10.285 1.39c-.786 0-1.472-.182-2.059-.546-.587-.363-1.044-.891-1.373-1.584-.316-.692-.475-1.513-.475-2.464 0-.962.159-1.783.475-2.464.329-.68.786-1.202 1.373-1.566.587-.376 1.273-.563 2.059-.563.775 0 1.449.193 2.024.581.575.387.957.915 1.144 1.584h-.193l.176-2.007h1.725l-.106 1.091c-.024.352-.035.698-.035 1.039v6.741h-1.778v-1.972h.194a2.726 2.726 0 0 1-1.162 1.567c-.575.375-1.238.563-1.989.563Zm.44-1.39c.763 0 1.373-.27 1.831-.81.469-.54.704-1.338.704-2.394s-.235-1.848-.704-2.376c-.458-.539-1.068-.809-1.831-.809-.774 0-1.396.27-1.865.809-.458.528-.687 1.32-.687 2.376 0 1.056.229 1.854.687 2.394.457.54 1.079.81 1.865.81Zm10.338 1.39c-.962 0-1.689-.258-2.182-.774-.493-.528-.739-1.315-.739-2.359v-4.523h-1.725v-1.373h1.725v-2.341l1.777-.475v2.816h2.464v1.373h-2.464v4.365c0 .657.117 1.126.352 1.408.235.281.575.422 1.021.422.223 0 .416-.017.581-.053a3.72 3.72 0 0 0 .475-.158v1.443a2.774 2.774 0 0 1-.616.159c-.235.046-.458.07-.669.07Zm2.944-.158v-8.871h1.778v8.871h-1.778Zm-.141-10.719v-1.848h2.06v1.848h-2.06Zm8.326 10.877c-.88 0-1.643-.182-2.288-.546a3.813 3.813 0 0 1-1.496-1.584c-.352-.692-.528-1.513-.528-2.464 0-.95.176-1.766.528-2.446.352-.692.85-1.22 1.496-1.584.645-.376 1.408-.563 2.288-.563.88 0 1.642.187 2.288.563a3.66 3.66 0 0 1 1.513 1.584c.364.68.546 1.496.546 2.446 0 .951-.182 1.772-.546 2.464a3.784 3.784 0 0 1-1.513 1.584c-.646.364-1.408.546-2.288.546Zm0-1.39c.774 0 1.39-.27 1.848-.81.457-.54.686-1.338.686-2.394s-.229-1.848-.686-2.376c-.458-.539-1.074-.809-1.848-.809-.763 0-1.373.27-1.831.809-.457.528-.686 1.32-.686 2.376 0 1.056.223 1.854.669 2.394.457.54 1.073.81 1.848.81Zm6.425 1.232v-6.741c0-.341-.018-.687-.053-1.039a36.693 36.693 0 0 0-.088-1.091h1.725l.158 1.866h-.211c.27-.657.686-1.156 1.249-1.496.564-.352 1.215-.528 1.954-.528 1.044 0 1.83.287 2.358.862.54.575.81 1.467.81 2.675v5.492h-1.778v-5.386c0-.786-.158-1.349-.475-1.69-.305-.352-.774-.528-1.408-.528-.751 0-1.349.235-1.795.704-.446.458-.669 1.08-.669 1.866v5.034h-1.777Zm13.477.158a7.027 7.027 0 0 1-2.041-.282c-.622-.187-1.138-.451-1.549-.792l.545-1.214c.435.328.916.575 1.444.739a5.425 5.425 0 0 0 1.619.247c.645 0 1.132-.112 1.461-.335a1.11 1.11 0 0 0 .492-.95.94.94 0 0 0-.316-.739c-.2-.188-.534-.329-1.004-.423l-1.689-.334c-.751-.165-1.32-.446-1.707-.845-.388-.399-.581-.909-.581-1.531 0-.528.141-.998.422-1.408.294-.411.704-.734 1.232-.968.54-.235 1.168-.352 1.883-.352.658 0 1.268.094 1.831.281.563.188 1.032.458 1.408.81l-.563 1.179a4.013 4.013 0 0 0-1.232-.704 3.847 3.847 0 0 0-1.391-.264c-.657 0-1.144.123-1.461.37a1.17 1.17 0 0 0-.475.968c0 .305.094.557.282.757.199.187.51.334.933.44l1.689.334c.798.164 1.397.434 1.795.81.399.375.599.88.599 1.513 0 .552-.153 1.033-.458 1.443-.305.411-.727.722-1.267.933-.54.211-1.173.317-1.901.317Zm-54.167 21c-.786 0-1.472-.182-2.059-.546-.586-.363-1.044-.891-1.373-1.584-.316-.692-.475-1.513-.475-2.464 0-.962.159-1.783.475-2.464.329-.68.787-1.202 1.373-1.566.587-.376 1.273-.563 2.059-.563.775 0 1.45.193 2.024.581.575.387.957.915 1.144 1.584h-.193l.176-2.007h1.725l-.106 1.091c-.023.352-.035.698-.035 1.039v6.741h-1.778v-1.972h.194a2.726 2.726 0 0 1-1.162 1.567c-.575.375-1.238.563-1.989.563Zm.44-1.39c.763 0 1.373-.27 1.831-.81.469-.54.704-1.338.704-2.394s-.235-1.848-.704-2.376c-.458-.539-1.068-.809-1.831-.809-.774 0-1.396.27-1.865.809-.458.528-.687 1.32-.687 2.376 0 1.056.229 1.854.687 2.394.457.54 1.079.81 1.865.81Zm10.338 1.39c-.962 0-1.689-.258-2.182-.774-.493-.528-.739-1.315-.739-2.359v-4.523h-1.725v-1.373h1.725v-2.341l1.777-.475v2.816h2.464v1.373h-2.464v4.365c0 .657.118 1.126.352 1.408.235.281.575.422 1.021.422.223 0 .417-.017.581-.053a3.72 3.72 0 0 0 .475-.158v1.443a2.774 2.774 0 0 1-.616.159c-.235.046-.458.07-.669.07Zm10.048-.158-3.362-8.871h1.848l2.623 7.392h-.458l2.693-7.392h1.373l2.675 7.392h-.44l2.622-7.392h1.778l-3.379 8.871h-1.62l-2.78-7.533h.827l-2.746 7.533h-1.654Zm16.636.158c-.88 0-1.643-.182-2.288-.546a3.813 3.813 0 0 1-1.496-1.584c-.352-.692-.528-1.513-.528-2.464 0-.95.176-1.766.528-2.446.352-.692.85-1.22 1.496-1.584.645-.376 1.408-.563 2.288-.563.88 0 1.642.187 2.288.563a3.66 3.66 0 0 1 1.513 1.584c.364.68.546 1.496.546 2.446 0 .951-.182 1.772-.546 2.464a3.784 3.784 0 0 1-1.513 1.584c-.646.364-1.408.546-2.288.546Zm0-1.39c.774 0 1.39-.27 1.848-.81.457-.54.686-1.338.686-2.394s-.229-1.848-.686-2.376c-.458-.539-1.074-.809-1.848-.809-.763 0-1.373.27-1.831.809-.457.528-.686 1.32-.686 2.376 0 1.056.223 1.854.669 2.394.457.54 1.073.81 1.848.81Zm6.389 1.232v-6.671c0-.364-.011-.727-.035-1.091a17.363 17.363 0 0 0-.07-1.109h1.725l.193 2.288h-.281c.117-.551.316-1.009.598-1.373a2.62 2.62 0 0 1 1.021-.809c.41-.176.839-.264 1.285-.264.187 0 .346.011.475.035.129.012.258.035.387.07l-.018 1.584a1.748 1.748 0 0 0-.528-.14 3.21 3.21 0 0 0-.528-.036c-.516 0-.956.118-1.32.352a2.156 2.156 0 0 0-.827.916 2.819 2.819 0 0 0-.281 1.249v4.999h-1.796Zm6.67 0v-12.954h1.777v7.955h.036l3.872-3.872h2.2l-4.682 4.664.018-.792 5.051 4.999h-2.253l-4.206-4.066h-.036v4.066h-1.777ZM438.038 489.592c-1.268 0-2.347-.258-3.239-.774a5.19 5.19 0 0 1-2.059-2.2c-.469-.963-.704-2.095-.704-3.397 0-1.303.235-2.429.704-3.379a5.178 5.178 0 0 1 2.059-2.2c.892-.517 1.971-.775 3.239-.775.88 0 1.666.129 2.358.387a5.272 5.272 0 0 1 1.813 1.127l-.634 1.461c-.563-.481-1.115-.828-1.654-1.039-.528-.211-1.144-.317-1.848-.317-1.338 0-2.359.411-3.063 1.232-.704.822-1.056 1.989-1.056 3.503 0 1.513.352 2.687 1.056 3.52.704.821 1.725 1.232 3.063 1.232.704 0 1.32-.106 1.848-.317.539-.211 1.091-.563 1.654-1.056l.634 1.461a5.485 5.485 0 0 1-1.813 1.144c-.692.258-1.478.387-2.358.387Zm9.493 0c-.88 0-1.642-.182-2.288-.546a3.819 3.819 0 0 1-1.496-1.584c-.352-.692-.528-1.513-.528-2.464 0-.95.176-1.765.528-2.446a3.692 3.692 0 0 1 1.496-1.584c.646-.375 1.408-.563 2.288-.563.88 0 1.643.188 2.288.563a3.663 3.663 0 0 1 1.514 1.584c.364.681.545 1.496.545 2.446 0 .951-.181 1.772-.545 2.464a3.786 3.786 0 0 1-1.514 1.584c-.645.364-1.408.546-2.288.546Zm0-1.39c.775 0 1.391-.27 1.848-.81.458-.54.687-1.338.687-2.394s-.229-1.848-.687-2.376c-.457-.539-1.073-.809-1.848-.809-.762 0-1.373.27-1.83.809-.458.528-.687 1.32-.687 2.376 0 1.056.223 1.854.669 2.394.458.54 1.074.81 1.848.81Zm9.47 1.39c-.739 0-1.42-.094-2.042-.282-.621-.187-1.138-.451-1.548-.792l.545-1.214c.434.329.915.575 1.443.739a5.432 5.432 0 0 0 1.62.247c.645 0 1.132-.112 1.46-.335.329-.234.493-.551.493-.95a.938.938 0 0 0-.317-.739c-.199-.188-.533-.329-1.003-.423l-1.689-.334c-.751-.164-1.32-.446-1.708-.845-.387-.399-.58-.909-.58-1.531 0-.528.14-.998.422-1.408.293-.411.704-.734 1.232-.968.54-.235 1.167-.352 1.883-.352.657 0 1.267.094 1.831.281.563.188 1.032.458 1.408.81l-.564 1.179a3.99 3.99 0 0 0-1.232-.704 3.842 3.842 0 0 0-1.39-.264c-.657 0-1.144.123-1.461.37a1.167 1.167 0 0 0-.475.968c0 .305.094.557.282.757.199.187.51.334.932.44l1.69.334c.798.164 1.396.434 1.795.81.399.375.599.88.599 1.513 0 .552-.153 1.033-.458 1.443-.305.411-.727.722-1.267.933-.54.211-1.174.317-1.901.317Zm9.084 0c-.962 0-1.689-.258-2.182-.774-.493-.528-.739-1.315-.739-2.359v-4.523h-1.725v-1.373h1.725v-2.341l1.777-.475v2.816h2.464v1.373h-2.464v4.365c0 .657.118 1.126.352 1.408.235.281.575.422 1.021.422.223 0 .417-.017.581-.053a3.72 3.72 0 0 0 .475-.158v1.443a2.774 2.774 0 0 1-.616.159c-.234.047-.457.07-.669.07Zm11.438 0c-.88 0-1.642-.182-2.288-.546a3.819 3.819 0 0 1-1.496-1.584c-.352-.692-.528-1.513-.528-2.464 0-.95.176-1.765.528-2.446a3.692 3.692 0 0 1 1.496-1.584c.646-.375 1.408-.563 2.288-.563.88 0 1.643.188 2.288.563a3.657 3.657 0 0 1 1.514 1.584c.364.681.546 1.496.546 2.446 0 .951-.182 1.772-.546 2.464a3.78 3.78 0 0 1-1.514 1.584c-.645.364-1.408.546-2.288.546Zm0-1.39c.775 0 1.391-.27 1.848-.81.458-.54.687-1.338.687-2.394s-.229-1.848-.687-2.376c-.457-.539-1.073-.809-1.848-.809-.762 0-1.372.27-1.83.809-.458.528-.686 1.32-.686 2.376 0 1.056.223 1.854.668 2.394.458.54 1.074.81 1.848.81Zm6.867 1.232v-7.498h-1.724v-1.373h2.217l-.493.458v-1.408c0-1.044.264-1.836.792-2.376.528-.552 1.303-.827 2.324-.827.246 0 .504.017.774.052.27.036.493.094.669.176v1.444a2.404 2.404 0 0 0-.528-.141 2.682 2.682 0 0 0-.616-.071c-.34 0-.634.071-.88.212-.247.129-.44.328-.581.598-.129.27-.194.616-.194 1.038v1.197l-.264-.352h2.676v1.373h-2.394v7.498h-1.778Zm10.352 0V476.48h1.778v12.954h-1.778Zm4.383 0v-8.871h1.778v8.871h-1.778Zm-.141-10.719v-1.848h2.059v1.848h-2.059Zm7.129 10.719-3.802-8.871h1.901l2.992 7.41h-.511l3.045-7.41h1.813l-3.819 8.871h-1.619Zm6.848 0v-8.871h1.777v8.871h-1.777Zm-.141-10.719v-1.848h2.059v1.848h-2.059Zm4.524 10.719v-6.741c0-.34-.018-.687-.053-1.039a36.693 36.693 0 0 0-.088-1.091h1.725l.158 1.866h-.211c.27-.657.686-1.156 1.25-1.496.563-.352 1.214-.528 1.953-.528 1.044 0 1.831.287 2.359.862.539.575.809 1.467.809 2.675v5.492h-1.777v-5.386c0-.786-.159-1.349-.476-1.69-.305-.352-.774-.528-1.408-.528-.751 0-1.349.235-1.795.704-.446.458-.669 1.08-.669 1.866v5.034h-1.777Zm14.428 3.942a7.923 7.923 0 0 1-2.183-.282 5.582 5.582 0 0 1-1.742-.844l.44-1.303c.364.247.722.44 1.074.581a5 5 0 0 0 1.108.334 6.63 6.63 0 0 0 1.197.106c.845 0 1.479-.217 1.901-.651.434-.423.651-1.039.651-1.848v-2.376h.176a2.726 2.726 0 0 1-1.161 1.566c-.575.376-1.244.563-2.007.563-.809 0-1.513-.176-2.112-.528a3.702 3.702 0 0 1-1.373-1.531c-.316-.669-.475-1.455-.475-2.358 0-.904.159-1.684.475-2.341.329-.657.786-1.162 1.373-1.514.599-.363 1.303-.545 2.112-.545.775 0 1.443.193 2.007.581.574.375.956.891 1.144 1.548l-.159-.14.159-1.831h1.724a16.834 16.834 0 0 0-.14 2.13v6.565c0 1.337-.358 2.358-1.074 3.062-.704.704-1.742 1.056-3.115 1.056Zm-.123-5.544c.774 0 1.39-.264 1.848-.792.469-.528.704-1.273.704-2.235s-.235-1.702-.704-2.218c-.458-.516-1.074-.774-1.848-.774-.798 0-1.432.258-1.901.774-.458.516-.687 1.256-.687 2.218s.229 1.707.687 2.235c.469.528 1.103.792 1.901.792ZM590.716 340.768c-.997 0-1.901-.123-2.71-.37a6.663 6.663 0 0 1-2.112-1.091l.616-1.443c.399.305.809.557 1.232.757a6.72 6.72 0 0 0 1.372.457 8.56 8.56 0 0 0 1.602.141c.986 0 1.707-.176 2.165-.528.469-.352.704-.815.704-1.39 0-.493-.164-.875-.493-1.144-.317-.27-.88-.487-1.69-.652l-1.918-.387c-1.138-.234-1.989-.616-2.552-1.144-.551-.54-.827-1.273-.827-2.2 0-.751.199-1.408.598-1.971.399-.563.951-.997 1.655-1.302.715-.305 1.548-.458 2.499-.458.88 0 1.689.129 2.429.387.739.247 1.361.616 1.865 1.109l-.598 1.39a5.239 5.239 0 0 0-1.69-1.003c-.598-.223-1.279-.334-2.041-.334-.904 0-1.614.188-2.13.563-.505.375-.757.886-.757 1.531 0 .516.159.921.475 1.215.329.293.869.516 1.62.668l1.918.37c1.185.246 2.059.628 2.622 1.144.564.505.845 1.203.845 2.094 0 .716-.193 1.344-.581 1.884-.375.539-.915.962-1.619 1.267-.704.293-1.537.44-2.499.44Zm10.592 0c-.88 0-1.643-.182-2.288-.546a3.819 3.819 0 0 1-1.496-1.584c-.352-.692-.528-1.513-.528-2.464 0-.95.176-1.766.528-2.446a3.692 3.692 0 0 1 1.496-1.584c.645-.376 1.408-.563 2.288-.563.88 0 1.643.187 2.288.563a3.663 3.663 0 0 1 1.514 1.584c.363.68.545 1.496.545 2.446 0 .951-.182 1.772-.545 2.464a3.786 3.786 0 0 1-1.514 1.584c-.645.364-1.408.546-2.288.546Zm0-1.391c.774 0 1.39-.269 1.848-.809.458-.54.686-1.338.686-2.394s-.228-1.848-.686-2.376c-.458-.54-1.074-.809-1.848-.809-.763 0-1.373.269-1.83.809-.458.528-.687 1.32-.687 2.376 0 1.056.223 1.854.669 2.394.458.54 1.074.809 1.848.809Zm10.314 1.391c-.891 0-1.672-.182-2.34-.546a3.88 3.88 0 0 1-1.532-1.601c-.352-.704-.528-1.537-.528-2.5 0-.95.182-1.765.546-2.446a3.678 3.678 0 0 1 1.531-1.549c.657-.364 1.432-.545 2.323-.545a4.77 4.77 0 0 1 1.672.299c.54.188.986.457 1.338.809l-.581 1.25a3.178 3.178 0 0 0-1.109-.704 3.211 3.211 0 0 0-1.196-.246c-.845 0-1.508.269-1.989.809-.481.54-.722 1.32-.722 2.341 0 1.033.241 1.825.722 2.376.481.551 1.144.827 1.989.827.375 0 .768-.07 1.179-.211a3.232 3.232 0 0 0 1.126-.722l.581 1.25c-.364.352-.821.628-1.373.827a4.94 4.94 0 0 1-1.637.282Zm4.894-.159v-8.87h1.777v8.87h-1.777Zm-.141-10.718v-1.848h2.059v1.848h-2.059Zm7.92 10.877c-.786 0-1.472-.182-2.059-.546-.587-.364-1.044-.892-1.373-1.584-.317-.692-.475-1.513-.475-2.464 0-.962.158-1.783.475-2.464.329-.68.786-1.202 1.373-1.566.587-.376 1.273-.563 2.059-.563.775 0 1.449.193 2.024.58a2.75 2.75 0 0 1 1.144 1.584h-.193l.176-2.006h1.724l-.105 1.091c-.024.352-.035.698-.035 1.039v6.74h-1.778v-1.971h.194a2.729 2.729 0 0 1-1.162 1.567c-.575.375-1.238.563-1.989.563Zm.44-1.391c.763 0 1.373-.269 1.831-.809.469-.54.704-1.338.704-2.394s-.235-1.848-.704-2.376c-.458-.54-1.068-.809-1.831-.809-.774 0-1.396.269-1.865.809-.458.528-.687 1.32-.687 2.376 0 1.056.229 1.854.687 2.394.457.54 1.079.809 1.865.809Zm6.888 1.232v-12.953h1.778v12.953h-1.778Zm12.472.159c-.786 0-1.472-.182-2.059-.546-.587-.364-1.044-.892-1.373-1.584-.317-.692-.475-1.513-.475-2.464 0-.962.158-1.783.475-2.464.329-.68.786-1.202 1.373-1.566.587-.376 1.273-.563 2.059-.563.775 0 1.449.193 2.024.58a2.75 2.75 0 0 1 1.144 1.584h-.193l.176-2.006h1.724l-.105 1.091c-.024.352-.035.698-.035 1.039v6.74h-1.778v-1.971h.194a2.729 2.729 0 0 1-1.162 1.567c-.575.375-1.238.563-1.989.563Zm.44-1.391c.763 0 1.373-.269 1.831-.809.469-.54.704-1.338.704-2.394s-.235-1.848-.704-2.376c-.458-.54-1.068-.809-1.831-.809-.774 0-1.396.269-1.865.809-.458.528-.687 1.32-.687 2.376 0 1.056.229 1.854.687 2.394.457.54 1.079.809 1.865.809Zm6.888 1.232v-8.87h1.778v8.87h-1.778Zm-.14-10.718v-1.848h2.059v1.848h-2.059Zm7.92 10.877c-.774 0-1.461-.182-2.059-.546-.587-.364-1.044-.892-1.373-1.584-.317-.692-.475-1.513-.475-2.464 0-.962.158-1.783.475-2.464.329-.68.786-1.202 1.373-1.566.598-.376 1.285-.563 2.059-.563.763 0 1.432.193 2.007.58.586.376.973.892 1.161 1.549h-.211v-6.054h1.778v12.953h-1.76v-2.006h.211a2.83 2.83 0 0 1-1.162 1.584c-.575.387-1.249.581-2.024.581Zm.44-1.391c.763 0 1.379-.269 1.848-.809.469-.54.704-1.338.704-2.394s-.235-1.848-.704-2.376c-.469-.54-1.085-.809-1.848-.809-.774 0-1.396.269-1.865.809-.458.528-.687 1.32-.687 2.376 0 1.056.229 1.854.687 2.394.469.54 1.091.809 1.865.809Zm-73.274 26.034v-10.542c0-.341-.018-.687-.053-1.039a33.389 33.389 0 0 0-.088-1.091h1.725l.176 2.006h-.194a2.776 2.776 0 0 1 1.127-1.584c.575-.387 1.255-.58 2.041-.58s1.473.187 2.059.563c.587.364 1.039.886 1.356 1.566.328.681.492 1.502.492 2.464 0 .951-.164 1.772-.492 2.464-.317.692-.769 1.22-1.356 1.584-.586.364-1.273.546-2.059.546-.774 0-1.449-.188-2.024-.563a2.776 2.776 0 0 1-1.126-1.567h.193v5.773h-1.777Zm4.294-5.034c.775 0 1.391-.269 1.848-.809.47-.54.704-1.338.704-2.394s-.234-1.848-.704-2.376c-.457-.54-1.073-.809-1.848-.809-.774 0-1.396.269-1.865.809-.458.528-.687 1.32-.687 2.376 0 1.056.229 1.854.687 2.394.469.54 1.091.809 1.865.809Zm10.232 1.391c-.88 0-1.642-.182-2.288-.546a3.819 3.819 0 0 1-1.496-1.584c-.352-.692-.528-1.513-.528-2.464 0-.95.176-1.766.528-2.446a3.692 3.692 0 0 1 1.496-1.584c.646-.376 1.408-.563 2.288-.563.88 0 1.643.187 2.288.563a3.663 3.663 0 0 1 1.514 1.584c.364.68.546 1.496.546 2.446 0 .951-.182 1.772-.546 2.464a3.786 3.786 0 0 1-1.514 1.584c-.645.364-1.408.546-2.288.546Zm0-1.391c.775 0 1.391-.269 1.848-.809.458-.54.687-1.338.687-2.394s-.229-1.848-.687-2.376c-.457-.54-1.073-.809-1.848-.809-.762 0-1.372.269-1.83.809-.458.528-.686 1.32-.686 2.376 0 1.056.223 1.854.668 2.394.458.54 1.074.809 1.848.809Zm6.425 1.232v-12.953h1.778v12.953h-1.778Zm4.383 0v-8.87h1.778v8.87h-1.778Zm-.141-10.718v-1.848h2.06v1.848h-2.06Zm8.414 10.877c-.892 0-1.672-.182-2.341-.546a3.87 3.87 0 0 1-1.531-1.601c-.352-.704-.528-1.537-.528-2.5 0-.95.181-1.765.545-2.446a3.678 3.678 0 0 1 1.531-1.549c.657-.364 1.432-.545 2.324-.545.575 0 1.132.099 1.672.299.539.188.985.457 1.337.809l-.581 1.25a3.183 3.183 0 0 0-1.108-.704 3.22 3.22 0 0 0-1.197-.246c-.845 0-1.508.269-1.989.809-.481.54-.722 1.32-.722 2.341 0 1.033.241 1.825.722 2.376.481.551 1.144.827 1.989.827.375 0 .768-.07 1.179-.211a3.232 3.232 0 0 0 1.126-.722l.581 1.25c-.364.352-.821.628-1.373.827a4.94 4.94 0 0 1-1.636.282Zm4.893-.159v-8.87h1.777v8.87h-1.777Zm-.141-10.718v-1.848h2.059v1.848h-2.059Zm8.624 10.877c-1.431 0-2.557-.405-3.379-1.215-.821-.809-1.232-1.93-1.232-3.361 0-.927.176-1.737.528-2.429a3.96 3.96 0 0 1 1.496-1.602c.646-.387 1.391-.58 2.235-.58.833 0 1.532.176 2.095.528.563.352.991.85 1.285 1.496.293.633.44 1.384.44 2.252v.564h-6.688V356.4h5.473l-.299.229c0-.88-.199-1.561-.598-2.042-.388-.493-.951-.739-1.69-.739-.821 0-1.455.287-1.901.862-.446.563-.669 1.344-.669 2.341v.176c0 1.044.253 1.83.757 2.358.516.528 1.244.792 2.183.792.516 0 .997-.07 1.443-.211a4.034 4.034 0 0 0 1.302-.739l.581 1.214a4.313 4.313 0 0 1-1.496.845 6.081 6.081 0 0 1-1.866.282Zm8.552 0a7.027 7.027 0 0 1-2.041-.282c-.622-.188-1.138-.452-1.549-.792l.545-1.214c.435.328.916.575 1.444.739a5.424 5.424 0 0 0 1.619.246c.645 0 1.132-.111 1.461-.334a1.11 1.11 0 0 0 .492-.95.944.944 0 0 0-.316-.74c-.2-.187-.534-.328-1.004-.422l-1.689-.334c-.751-.165-1.32-.446-1.707-.845-.388-.399-.581-.91-.581-1.531 0-.528.141-.998.422-1.408.294-.411.704-.734 1.232-.968.54-.235 1.168-.352 1.883-.352.658 0 1.268.093 1.831.281.563.188 1.032.458 1.408.81l-.563 1.179a4.013 4.013 0 0 0-1.232-.704 3.847 3.847 0 0 0-1.391-.264c-.657 0-1.144.123-1.461.37a1.17 1.17 0 0 0-.475.968c0 .305.094.557.282.756.199.188.51.335.933.44l1.689.335c.798.164 1.397.434 1.795.809.399.376.599.88.599 1.514 0 .551-.153 1.033-.458 1.443-.305.411-.727.722-1.267.933-.54.211-1.173.317-1.901.317ZM601.526 141.045c-.998 0-1.901-.123-2.711-.369-.809-.259-1.513-.622-2.112-1.092l.616-1.443c.399.305.81.557 1.232.757.435.199.892.352 1.373.458.493.093 1.027.14 1.602.14.985 0 1.707-.176 2.165-.528.469-.352.704-.815.704-1.39 0-.493-.165-.874-.493-1.144-.317-.27-.88-.487-1.69-.651l-1.918-.387c-1.138-.235-1.989-.616-2.552-1.144-.552-.54-.827-1.274-.827-2.2 0-.751.199-1.408.598-1.972.399-.563.95-.997 1.654-1.302.716-.305 1.549-.458 2.5-.458.88 0 1.689.129 2.428.388.74.246 1.361.616 1.866 1.108l-.598 1.391a5.231 5.231 0 0 0-1.69-1.003c-.598-.223-1.279-.335-2.042-.335-.903 0-1.613.188-2.129.563-.505.376-.757.886-.757 1.532 0 .516.158.921.475 1.214.329.293.868.516 1.619.669l1.919.369c1.185.247 2.059.628 2.622 1.144.563.505.845 1.203.845 2.095 0 .715-.194 1.343-.581 1.883-.375.54-.915.962-1.619 1.267-.704.293-1.537.44-2.499.44Zm10.188 0c-.962 0-1.689-.258-2.182-.774-.493-.528-.739-1.314-.739-2.359v-4.523h-1.725v-1.373h1.725v-2.34l1.777-.476v2.816h2.464v1.373h-2.464v4.365c0 .657.117 1.126.352 1.408.235.282.575.422 1.021.422.223 0 .416-.017.581-.052.176-.047.334-.1.475-.159v1.443a2.72 2.72 0 0 1-.616.159c-.235.047-.458.07-.669.07Zm2.944-.158v-8.871h1.778v8.871h-1.778Zm-.14-10.719v-1.848h2.059v1.848h-2.059Zm8.518 14.661a7.955 7.955 0 0 1-2.182-.281 5.606 5.606 0 0 1-1.742-.845l.44-1.303c.363.247.721.44 1.073.581.352.153.722.264 1.109.335.387.07.786.105 1.197.105.845 0 1.478-.217 1.901-.651.434-.422.651-1.038.651-1.848v-2.376h.176a2.724 2.724 0 0 1-1.162 1.566c-.575.376-1.244.564-2.006.564-.81 0-1.514-.176-2.112-.528a3.704 3.704 0 0 1-1.373-1.532c-.317-.668-.475-1.455-.475-2.358 0-.904.158-1.684.475-2.341.328-.657.786-1.161 1.373-1.513.598-.364 1.302-.546 2.112-.546.774 0 1.443.194 2.006.581.575.375.956.891 1.144 1.549l-.158-.141.158-1.831h1.725a17.531 17.531 0 0 0-.141 2.13v6.565c0 1.337-.358 2.358-1.073 3.062-.704.704-1.743 1.056-3.116 1.056Zm-.123-5.544c.775 0 1.391-.264 1.848-.792.469-.528.704-1.273.704-2.235s-.235-1.701-.704-2.218c-.457-.516-1.073-.774-1.848-.774-.798 0-1.431.258-1.901.774-.457.517-.686 1.256-.686 2.218s.229 1.707.686 2.235c.47.528 1.103.792 1.901.792Zm6.905 1.602v-6.741c0-.34-.018-.686-.053-1.038a36.49 36.49 0 0 0-.088-1.092h1.725l.158 1.866h-.211c.246-.645.622-1.144 1.126-1.496.517-.352 1.133-.528 1.848-.528.728 0 1.32.176 1.778.528.469.34.792.868.968 1.584h-.282a3.044 3.044 0 0 1 1.197-1.531c.563-.387 1.214-.581 1.954-.581.985 0 1.724.287 2.217.862.493.575.739 1.467.739 2.676v5.491h-1.777v-5.403c0-.775-.135-1.332-.405-1.672-.258-.352-.68-.528-1.267-.528-.681 0-1.22.234-1.619.704-.399.469-.599 1.102-.599 1.9v4.999h-1.777v-5.403c0-.775-.135-1.332-.405-1.672-.258-.352-.681-.528-1.267-.528-.681 0-1.215.234-1.602.704-.387.469-.581 1.102-.581 1.9v4.999h-1.777Zm19.02.158c-.786 0-1.473-.182-2.059-.545-.587-.364-1.045-.892-1.373-1.584-.317-.693-.475-1.514-.475-2.464 0-.963.158-1.784.475-2.464.328-.681.786-1.203 1.373-1.567.586-.375 1.273-.563 2.059-.563.774 0 1.449.194 2.024.581.575.387.956.915 1.144 1.584h-.194l.176-2.007h1.725l-.105 1.092a15.26 15.26 0 0 0-.036 1.038v6.741h-1.777v-1.971h.193a2.722 2.722 0 0 1-1.161 1.566c-.575.375-1.238.563-1.989.563Zm.44-1.39c.763 0 1.373-.27 1.83-.81.47-.54.704-1.337.704-2.393 0-1.056-.234-1.848-.704-2.376-.457-.54-1.067-.81-1.83-.81-.774 0-1.396.27-1.866.81-.457.528-.686 1.32-.686 2.376 0 1.056.229 1.853.686 2.393.458.54 1.08.81 1.866.81Zm14.977 1.39c-.786 0-1.472-.182-2.059-.545-.587-.364-1.044-.892-1.373-1.584-.317-.693-.475-1.514-.475-2.464 0-.963.158-1.784.475-2.464.329-.681.786-1.203 1.373-1.567.587-.375 1.273-.563 2.059-.563.775 0 1.449.194 2.024.581.575.387.956.915 1.144 1.584h-.193l.176-2.007h1.724l-.105 1.092a15.25 15.25 0 0 0-.035 1.038v6.741h-1.778v-1.971h.194a2.724 2.724 0 0 1-1.162 1.566c-.575.375-1.238.563-1.989.563Zm.44-1.39c.763 0 1.373-.27 1.831-.81.469-.54.704-1.337.704-2.393 0-1.056-.235-1.848-.704-2.376-.458-.54-1.068-.81-1.831-.81-.774 0-1.396.27-1.865.81-.458.528-.687 1.32-.687 2.376 0 1.056.229 1.853.687 2.393.457.54 1.079.81 1.865.81Zm6.888 1.232v-6.741c0-.34-.017-.686-.052-1.038a36.49 36.49 0 0 0-.088-1.092h1.724l.159 1.866h-.211c.269-.657.686-1.156 1.249-1.496.563-.352 1.215-.528 1.954-.528 1.044 0 1.83.287 2.358.862.54.575.81 1.467.81 2.676v5.491h-1.778v-5.386c0-.786-.158-1.349-.475-1.689-.305-.352-.774-.528-1.408-.528-.751 0-1.349.234-1.795.704-.446.457-.669 1.079-.669 1.865v5.034h-1.778Zm13.83.158c-.774 0-1.461-.182-2.059-.545-.587-.364-1.045-.892-1.373-1.584-.317-.693-.475-1.514-.475-2.464 0-.963.158-1.784.475-2.464.328-.681.786-1.203 1.373-1.567.598-.375 1.285-.563 2.059-.563.763 0 1.431.194 2.006.581.587.375.974.891 1.162 1.549h-.211v-6.055h1.777v12.954h-1.76v-2.007h.212a2.83 2.83 0 0 1-1.162 1.584c-.575.388-1.25.581-2.024.581Zm.44-1.39c.763 0 1.379-.27 1.848-.81.469-.54.704-1.337.704-2.393 0-1.056-.235-1.848-.704-2.376-.469-.54-1.085-.81-1.848-.81-.774 0-1.396.27-1.866.81-.457.528-.686 1.32-.686 2.376 0 1.056.229 1.853.686 2.393.47.54 1.092.81 1.866.81Zm-89.713 26.121a4.68 4.68 0 0 1-.651-.052 2.563 2.563 0 0 1-.669-.176v-1.444c.153.047.323.088.511.124.176.046.346.07.51.07.458 0 .804-.147 1.038-.44.247-.282.37-.751.37-1.408v-9.434h1.778v9.557c0 1.056-.235 1.854-.704 2.394-.47.539-1.197.809-2.183.809Zm.951-14.608v-1.848h2.076v1.848h-2.076Zm7.621 10.877c-1.068 0-1.872-.287-2.411-.862-.528-.587-.792-1.485-.792-2.693v-5.474h1.777v5.439c0 .739.153 1.285.458 1.637.305.352.768.528 1.39.528.704 0 1.273-.235 1.707-.704.435-.47.652-1.092.652-1.866v-5.034h1.777v8.871h-1.725v-1.901h.229c-.246.657-.639 1.167-1.179 1.531-.54.352-1.167.528-1.883.528Zm11.157 3.784a7.955 7.955 0 0 1-2.182-.281 5.611 5.611 0 0 1-1.743-.845l.44-1.303c.364.247.722.44 1.074.581.352.153.722.264 1.109.335.387.07.786.105 1.197.105.844 0 1.478-.217 1.9-.651.434-.422.652-1.038.652-1.848v-2.376h.176a2.724 2.724 0 0 1-1.162 1.566c-.575.376-1.244.564-2.006.564-.81 0-1.514-.176-2.112-.528a3.704 3.704 0 0 1-1.373-1.532c-.317-.668-.475-1.455-.475-2.358 0-.904.158-1.684.475-2.341.328-.657.786-1.161 1.373-1.513.598-.364 1.302-.546 2.112-.546.774 0 1.443.194 2.006.581.575.375.956.891 1.144 1.549l-.158-.141.158-1.831h1.725a17.531 17.531 0 0 0-.141 2.13v6.565c0 1.337-.358 2.358-1.074 3.062-.704.704-1.742 1.056-3.115 1.056Zm-.123-5.544c.774 0 1.39-.264 1.848-.792.469-.528.704-1.273.704-2.235s-.235-1.701-.704-2.218c-.458-.516-1.074-.774-1.848-.774-.798 0-1.432.258-1.901.774-.457.517-.686 1.256-.686 2.218s.229 1.707.686 2.235c.469.528 1.103.792 1.901.792Zm11.005 1.76c-1.431 0-2.558-.405-3.379-1.214-.821-.81-1.232-1.93-1.232-3.362 0-.927.176-1.736.528-2.429.364-.692.862-1.226 1.496-1.601.645-.387 1.39-.581 2.235-.581.833 0 1.531.176 2.095.528.563.352.991.851 1.284 1.496.294.634.44 1.384.44 2.253v.563h-6.688v-1.021h5.474l-.299.229c0-.88-.2-1.561-.599-2.042-.387-.492-.95-.739-1.689-.739-.821 0-1.455.288-1.901.863-.446.563-.669 1.343-.669 2.34v.176c0 1.045.253 1.831.757 2.359.516.528 1.244.792 2.182.792.517 0 .998-.071 1.444-.211a4.048 4.048 0 0 0 1.302-.74l.581 1.215a4.345 4.345 0 0 1-1.496.845 6.111 6.111 0 0 1-1.866.281Zm5.507-.158v-6.741c0-.34-.017-.686-.052-1.038a36.49 36.49 0 0 0-.088-1.092h1.724l.159 1.866h-.211c.246-.645.621-1.144 1.126-1.496.516-.352 1.132-.528 1.848-.528.727 0 1.32.176 1.778.528.469.34.792.868.968 1.584h-.282a3.044 3.044 0 0 1 1.197-1.531c.563-.387 1.214-.581 1.953-.581.986 0 1.725.287 2.218.862.493.575.739 1.467.739 2.676v5.491h-1.777v-5.403c0-.775-.135-1.332-.405-1.672-.258-.352-.681-.528-1.267-.528-.681 0-1.221.234-1.62.704-.399.469-.598 1.102-.598 1.9v4.999h-1.778v-5.403c0-.775-.135-1.332-.404-1.672-.259-.352-.681-.528-1.268-.528-.68 0-1.214.234-1.601.704-.387.469-.581 1.102-.581 1.9v4.999h-1.778Zm19.725.158c-1.432 0-2.558-.405-3.38-1.214-.821-.81-1.232-1.93-1.232-3.362 0-.927.176-1.736.528-2.429a3.952 3.952 0 0 1 1.496-1.601c.646-.387 1.391-.581 2.236-.581.833 0 1.531.176 2.094.528.563.352.991.851 1.285 1.496.293.634.44 1.384.44 2.253v.563h-6.688v-1.021h5.473l-.299.229c0-.88-.199-1.561-.598-2.042-.387-.492-.951-.739-1.69-.739-.821 0-1.455.288-1.901.863-.446.563-.668 1.343-.668 2.34v.176c0 1.045.252 1.831.756 2.359.517.528 1.244.792 2.183.792.516 0 .997-.071 1.443-.211a4.027 4.027 0 0 0 1.302-.74l.581 1.215a4.345 4.345 0 0 1-1.496.845 6.105 6.105 0 0 1-1.865.281Zm5.507-.158v-6.741c0-.34-.018-.686-.053-1.038a36.49 36.49 0 0 0-.088-1.092h1.725l.158 1.866h-.211c.27-.657.686-1.156 1.249-1.496.564-.352 1.215-.528 1.954-.528 1.044 0 1.83.287 2.358.862.54.575.81 1.467.81 2.676v5.491h-1.778v-5.386c0-.786-.158-1.349-.475-1.689-.305-.352-.774-.528-1.408-.528-.751 0-1.349.234-1.795.704-.446.457-.669 1.079-.669 1.865v5.034h-1.777Zm13.882.158c-.962 0-1.69-.258-2.182-.774-.493-.528-.74-1.314-.74-2.359v-4.523h-1.724v-1.373h1.724v-2.34l1.778-.476v2.816h2.464v1.373h-2.464v4.365c0 .657.117 1.126.352 1.408.235.282.575.422 1.021.422.223 0 .416-.017.581-.052.176-.047.334-.1.475-.159v1.443a2.734 2.734 0 0 1-.616.159c-.235.047-.458.07-.669.07ZM429.074 13.977l-4.347-12.408h1.901l3.608 10.718h-.652l3.82-10.718h1.39l3.59 10.718h-.598l3.731-10.718h1.795l-4.382 12.408h-1.566l-3.485-10.208h.369l-3.625 10.208h-1.549Zm16.072 0V1.023h1.778v5.966h-.246c.258-.668.674-1.173 1.249-1.513.575-.352 1.238-.528 1.989-.528 1.056 0 1.842.293 2.358.88.517.575.775 1.449.775 2.622v5.527h-1.778V8.556c0-.763-.152-1.314-.457-1.655-.294-.352-.763-.528-1.408-.528-.751 0-1.356.235-1.813.704-.446.458-.669 1.068-.669 1.83v5.07h-1.778Zm14.534.158c-1.431 0-2.558-.405-3.379-1.214-.821-.81-1.232-1.93-1.232-3.362 0-.927.176-1.737.528-2.429a3.948 3.948 0 0 1 1.496-1.601c.645-.388 1.39-.581 2.235-.581.833 0 1.531.176 2.094.528.564.352.992.85 1.285 1.496.294.633.44 1.384.44 2.253v.563h-6.688V8.767h5.474l-.299.229c0-.88-.2-1.56-.599-2.042-.387-.493-.95-.739-1.689-.739-.822 0-1.455.287-1.901.862-.446.564-.669 1.344-.669 2.341v.176c0 1.044.252 1.83.757 2.359.516.528 1.244.792 2.182.792.517 0 .998-.07 1.443-.212a4.046 4.046 0 0 0 1.303-.739l.581 1.215c-.411.363-.91.645-1.496.844a6.09 6.09 0 0 1-1.866.282Zm5.472-.158v-6.67c0-.365-.012-.728-.035-1.092a17.365 17.365 0 0 0-.071-1.109h1.725l.194 2.288h-.282c.117-.551.317-1.009.598-1.373a2.616 2.616 0 0 1 1.021-.81 3.23 3.23 0 0 1 1.76-.228c.129.012.258.035.387.07l-.017 1.584c-.2-.082-.376-.129-.528-.14a3.3 3.3 0 0 0-.528-.036c-.516 0-.956.118-1.32.352-.364.223-.64.528-.827.916a2.823 2.823 0 0 0-.282 1.25v4.998h-1.795Zm10.65.158c-1.432 0-2.558-.405-3.379-1.214-.822-.81-1.232-1.93-1.232-3.362 0-.927.176-1.737.528-2.429a3.941 3.941 0 0 1 1.496-1.601c.645-.388 1.39-.581 2.235-.581.833 0 1.531.176 2.094.528.564.352.992.85 1.285 1.496.293.633.44 1.384.44 2.253v.563h-6.688V8.767h5.474l-.299.229c0-.88-.2-1.56-.599-2.042-.387-.493-.95-.739-1.689-.739-.822 0-1.455.287-1.901.862-.446.564-.669 1.344-.669 2.341v.176c0 1.044.252 1.83.757 2.359.516.528 1.243.792 2.182.792.516 0 .997-.07 1.443-.212a4.046 4.046 0 0 0 1.303-.739l.581 1.215c-.411.363-.91.645-1.496.844a6.09 6.09 0 0 1-1.866.282Zm13.649 0c-.962 0-1.69-.258-2.183-.774-.492-.528-.739-1.315-.739-2.359V6.48h-1.725V5.106h1.725v-2.34l1.778-.476v2.816h2.464V6.48h-2.464v4.365c0 .657.117 1.126.352 1.408.234.281.575.422 1.021.422.222 0 .416-.017.58-.053a3.8 3.8 0 0 0 .476-.158v1.443c-.176.07-.382.123-.616.159-.235.046-.458.07-.669.07Zm2.944-.158V1.023h1.777v5.966h-.246c.258-.668.675-1.173 1.25-1.513.575-.352 1.238-.528 1.988-.528 1.056 0 1.843.293 2.359.88.516.575.774 1.449.774 2.622v5.527h-1.777V8.556c0-.763-.153-1.314-.458-1.655-.293-.352-.763-.528-1.408-.528-.751 0-1.355.235-1.813.704-.446.458-.669 1.068-.669 1.83v5.07h-1.777Zm14.533.158c-1.431 0-2.557-.405-3.379-1.214-.821-.81-1.232-1.93-1.232-3.362 0-.927.176-1.737.528-2.429a3.955 3.955 0 0 1 1.496-1.601c.646-.388 1.391-.581 2.235-.581.834 0 1.532.176 2.095.528.563.352.991.85 1.285 1.496.293.633.44 1.384.44 2.253v.563h-6.688V8.767h5.473l-.299.229c0-.88-.199-1.56-.598-2.042-.388-.493-.951-.739-1.69-.739-.821 0-1.455.287-1.901.862-.446.564-.669 1.344-.669 2.341v.176c0 1.044.253 1.83.757 2.359.517.528 1.244.792 2.183.792.516 0 .997-.07 1.443-.212a4.042 4.042 0 0 0 1.302-.739l.581 1.215a4.326 4.326 0 0 1-1.496.844 6.086 6.086 0 0 1-1.866.282Zm5.123 3.837-.422-1.443c.551-.118 1.009-.259 1.373-.423.375-.164.686-.381.932-.651.247-.258.458-.593.634-1.003l.44-1.039-.035.722-3.855-9.029h1.901l2.992 7.392h-.475l2.992-7.392h1.83l-4.065 9.504a7.822 7.822 0 0 1-.827 1.479 4.413 4.413 0 0 1-.951.968c-.34.246-.716.44-1.126.58-.411.141-.857.253-1.338.335Zm14.392-3.995V1.023h1.778v12.954h-1.778Zm4.383 0v-8.87h1.778v8.87h-1.778Zm-.141-10.719V1.41h2.06v1.848h-2.06Zm7.129 10.719-3.802-8.87h1.901l2.992 7.409h-.51l3.044-7.41h1.813l-3.819 8.87h-1.619Zm10.794.158c-1.431 0-2.558-.405-3.379-1.214-.821-.81-1.232-1.93-1.232-3.362 0-.927.176-1.737.528-2.429a3.948 3.948 0 0 1 1.496-1.601c.645-.388 1.39-.581 2.235-.581.833 0 1.531.176 2.095.528.563.352.991.85 1.284 1.496.294.633.44 1.384.44 2.253v.563h-6.688V8.767h5.474l-.299.229c0-.88-.2-1.56-.599-2.042-.387-.493-.95-.739-1.689-.739-.822 0-1.455.287-1.901.862-.446.564-.669 1.344-.669 2.341v.176c0 1.044.252 1.83.757 2.359.516.528 1.244.792 2.182.792.517 0 .998-.07 1.444-.212a4.053 4.053 0 0 0 1.302-.739l.581 1.215c-.411.363-.91.645-1.496.844a6.09 6.09 0 0 1-1.866.282Z"/>
  <path stroke="var(--fi-main-content, #222)" stroke-dasharray="17 17" stroke-width="3.4" d="m387.212 142.582-80.335 13.251-56.434 47.042-86.31 117.935 94.278 107.334h161.334l71.04-122.573 40.499-142.45-144.072-20.539Z"/>
</svg>