<svg xmlns="http://www.w3.org/2000/svg" width="718" height="533" fill="none" viewBox="0 0 718 533">
    <circle cx="335.869" cy="243.782" r="224.094" fill="var(--fl-bgColor, #B3B3B3)" stroke="var(--fl-fgColor, gray)" stroke-dasharray="2 2"/>
    <circle cx="335.869" cy="243.77" r="176.906" fill="var(--fl-bgColor, #CCC)" stroke="var(--fl-fgColor, gray)" stroke-dasharray="2 2"/>
    <circle cx="335.869" cy="243.781" r="104.283" fill="var(--fl-bgColor, #F4F4F4)" stroke="var(--fl-fgColor, gray)" stroke-dasharray="2 2"/>
    <path stroke="var(--fl-fgColor, gray)" stroke-dasharray="2 2" d="M334.702 468.281V17.758M176.419 401.942l318.17-318.169M177.708 84.36l317.004 317.004M560.464 243.519H112.829"/>
    <path fill="var(--fl-bgColor, #E8B91C)" fill-opacity=".5" stroke="var(--fl-fgColor, #997D1E)" stroke-width="3.4" d="m248.082 201.145-.271.221-.162.311-50.802 97.571-8.775-112.742 109.54-25.747-49.53 40.386ZM301.357 333.975l.196.053.203.007 77.803 2.502-101.845 54.174-76.079-84.384 99.722 27.648Zm131.375-127.538-.086-.26-32.296-97.738-.621-1.879-1.764.899-79.548 40.522 103.189-97.406 67.219 131.964v121.807l-97.907 27.544 41.407-48.436.407-.476v-76.541Z"/>
    <path fill="var(--fl-bgColor, #559D57)" fill-opacity=".5" stroke="var(--fl-fgColor, #2A842D)" stroke-width="3.4" d="M432.732 204.864v79.383l-47.302 52.467-85.727-3.361-105.849-29.133 54.944-104.057 53.716-43.442 97.189-50.423 33.029 98.566Z"/>
    <circle cx="198.163" cy="302.749" r="10.199" fill="var(--fl-fgColor, #2A842D)"/>
    <circle cx="249.156" cy="200.761" r="10.199" fill="var(--fl-fgColor, #2A842D)"/>
    <circle cx="308.649" cy="154.867" r="10.199" fill="var(--fl-fgColor, #2A842D)"/>
    <circle cx="402.986" cy="103.025" r="9.349" fill="var(--fl-fgColor, #2A842D)"/>
    <circle cx="434.432" cy="207.562" r="10.199" fill="var(--fl-fgColor, #2A842D)"/>
    <circle cx="434.432" cy="284.05" r="10.199" fill="var(--fl-fgColor, #2A842D)"/>
    <circle cx="488.825" cy="304.449" r="8.499" fill="var(--fl-bgColor, #E8B91C)" stroke="var(--fl-fgColor, #997D1E)" stroke-width="3.4"/>
    <circle cx="488.825" cy="182.066" r="8.499" fill="var(--fl-bgColor, #E8B91C)" stroke="var(--fl-fgColor, #997D1E)" stroke-width="3.4"/>
    <circle cx="422.533" cy="49.484" r="8.499" fill="var(--fl-bgColor, #E8B91C)" stroke="var(--fl-fgColor, #997D1E)" stroke-width="3.4"/>
    <circle cx="189.664" cy="187.163" r="8.499" fill="var(--fl-bgColor, #E8B91C)" stroke="var(--fl-fgColor, #997D1E)" stroke-width="3.4"/>
    <circle cx="276.353" cy="391.136" r="8.499" fill="var(--fl-bgColor, #E8B91C)" stroke="var(--fl-fgColor, #997D1E)" stroke-width="3.4"/>
    <circle cx="386.838" cy="335.046" r="10.199" fill="var(--fl-fgColor, #2A842D)"/>
    <circle cx="300.15" cy="331.644" r="10.199" fill="var(--fl-fgColor, #2A842D)"/>
    <path fill="var(--fl-fgColor, #000)" d="M84.89 13.111c-.997 0-1.9-.123-2.71-.37a6.665 6.665 0 0 1-2.112-1.09l.616-1.444c.399.306.81.558 1.232.757.434.2.892.352 1.373.458.493.094 1.027.14 1.602.14.985 0 1.707-.175 2.164-.527.47-.352.704-.816.704-1.39 0-.493-.164-.875-.493-1.145-.316-.27-.88-.487-1.69-.65l-1.917-.388c-1.139-.235-1.99-.616-2.553-1.144-.551-.54-.827-1.273-.827-2.2 0-.751.2-1.408.599-1.971.399-.563.95-.998 1.654-1.303.716-.305 1.549-.457 2.5-.457.88 0 1.689.129 2.428.387.74.246 1.361.616 1.866 1.109l-.599 1.39a5.237 5.237 0 0 0-1.69-1.003c-.598-.223-1.278-.334-2.04-.334-.904 0-1.614.187-2.13.563-.505.375-.757.886-.757 1.53 0 .517.158.922.475 1.215.328.294.868.517 1.62.67l1.918.369c1.185.246 2.059.627 2.622 1.144.563.504.845 1.202.845 2.094 0 .716-.194 1.344-.581 1.883-.376.54-.915.963-1.62 1.268-.703.293-1.536.44-2.498.44Zm10.189 0c-.962 0-1.69-.258-2.183-.774-.492-.528-.739-1.314-.739-2.358V5.456h-1.725V4.083h1.725V1.742l1.778-.475v2.816h2.464v1.373h-2.464V9.82c0 .657.117 1.127.352 1.408.234.282.575.423 1.02.423.224 0 .417-.018.581-.053.176-.047.335-.1.476-.159v1.444c-.176.07-.382.123-.616.158-.235.047-.458.07-.67.07Zm6.341 0c-.786 0-1.473-.181-2.06-.545-.586-.364-1.044-.892-1.372-1.584-.317-.692-.475-1.514-.475-2.464 0-.962.158-1.784.475-2.464.328-.68.786-1.203 1.373-1.566.586-.376 1.273-.564 2.059-.564.774 0 1.449.194 2.024.581.575.387.956.915 1.144 1.584h-.194l.176-2.006h1.725l-.106 1.09a15.93 15.93 0 0 0-.035 1.04v6.74h-1.777v-1.971h.193a2.727 2.727 0 0 1-1.161 1.566c-.575.376-1.238.563-1.989.563Zm.44-1.39c.762 0 1.373-.27 1.83-.81.47-.54.704-1.337.704-2.393 0-1.056-.234-1.848-.704-2.376-.457-.54-1.068-.81-1.83-.81-.775 0-1.396.27-1.866.81-.457.528-.686 1.32-.686 2.376 0 1.056.229 1.854.686 2.393.458.54 1.08.81 1.866.81Zm10.338 1.39c-.963 0-1.69-.258-2.183-.774-.493-.528-.739-1.314-.739-2.358V5.456h-1.725V4.083h1.725V1.742l1.778-.475v2.816h2.464v1.373h-2.464V9.82c0 .657.117 1.127.352 1.408.234.282.575.423 1.02.423.223 0 .417-.018.581-.053.176-.047.335-.1.475-.159v1.444c-.176.07-.381.123-.616.158-.234.047-.457.07-.668.07Zm6.094 0c-1.068 0-1.871-.287-2.411-.862-.528-.587-.792-1.484-.792-2.693V4.083h1.778V9.52c0 .74.152 1.285.457 1.637.305.352.769.528 1.391.528.704 0 1.273-.235 1.707-.704.434-.47.651-1.091.651-1.866V4.083h1.778v8.87h-1.725v-1.9h.229c-.247.656-.64 1.167-1.18 1.53-.539.352-1.167.528-1.883.528Zm10.612 0c-.962 0-1.69-.258-2.183-.774-.492-.528-.739-1.314-.739-2.358V5.456h-1.725V4.083h1.725V1.742l1.778-.475v2.816h2.464v1.373h-2.464V9.82c0 .657.117 1.127.352 1.408.234.282.575.423 1.021.423.223 0 .416-.018.58-.053.176-.047.335-.1.476-.159v1.444c-.176.07-.382.123-.616.158-.235.047-.458.07-.669.07Zm11.033 0c-.774 0-1.461-.181-2.059-.545-.587-.364-1.045-.892-1.373-1.584-.317-.692-.475-1.514-.475-2.464 0-.962.158-1.784.475-2.464.328-.68.786-1.203 1.373-1.566.598-.376 1.285-.564 2.059-.564.763 0 1.431.194 2.006.581.587.376.974.892 1.162 1.549h-.211V0h1.777v12.953h-1.76v-2.006h.212a2.831 2.831 0 0 1-1.162 1.584c-.575.387-1.25.58-2.024.58Zm.44-1.39c.763 0 1.379-.27 1.848-.81.469-.54.704-1.337.704-2.393 0-1.056-.235-1.848-.704-2.376-.469-.54-1.085-.81-1.848-.81-.774 0-1.396.27-1.866.81-.457.528-.686 1.32-.686 2.376 0 1.056.229 1.854.686 2.393.47.54 1.092.81 1.866.81Zm7.539-6.934-.774-.599c.34-.352.569-.68.686-.985.129-.317.194-.634.194-.95l.475.369h-1.478V.545h2.094v1.426c0 .528-.088 1.02-.264 1.478-.176.446-.487.892-.933 1.338Zm3.526 8.166v-8.87h1.777v8.87h-1.777Zm-.141-10.718V.387h2.059v1.848h-2.059Zm4.524 10.718v-6.74c0-.34-.018-.687-.053-1.04a36.44 36.44 0 0 0-.088-1.09h1.725l.158 1.865h-.211c.246-.645.622-1.144 1.126-1.496.516-.352 1.132-.528 1.848-.528.728 0 1.32.176 1.778.528.469.34.792.869.968 1.584h-.282a3.045 3.045 0 0 1 1.197-1.53c.563-.388 1.214-.582 1.954-.582.985 0 1.724.288 2.217.863.493.575.739 1.466.739 2.675v5.491h-1.777V7.55c0-.774-.135-1.332-.405-1.672-.258-.352-.681-.528-1.267-.528-.681 0-1.221.235-1.619.704-.399.47-.599 1.103-.599 1.9v5h-1.777V7.55c0-.774-.135-1.332-.405-1.672-.258-.352-.681-.528-1.267-.528-.681 0-1.215.235-1.602.704-.387.47-.581 1.103-.581 1.9v5h-1.777Zm15.623 0v-6.74c0-.34-.018-.687-.053-1.04a33.403 33.403 0 0 0-.088-1.09h1.725l.158 1.865h-.211c.247-.645.622-1.144 1.127-1.496.516-.352 1.132-.528 1.848-.528.727 0 1.32.176 1.777.528.47.34.792.869.968 1.584h-.281a3.038 3.038 0 0 1 1.196-1.53c.564-.388 1.215-.582 1.954-.582.986 0 1.725.288 2.218.863.492.575.739 1.466.739 2.675v5.491h-1.778V7.55c0-.774-.135-1.332-.405-1.672-.258-.352-.68-.528-1.267-.528-.68 0-1.22.235-1.619.704-.399.47-.598 1.103-.598 1.9v5h-1.778V7.55c0-.774-.135-1.332-.405-1.672-.258-.352-.68-.528-1.267-.528-.681 0-1.214.235-1.602.704-.387.47-.58 1.103-.58 1.9v5h-1.778Zm15.623 0v-8.87h1.778v8.87h-1.778Zm-.14-10.718V.387h2.059v1.848h-2.059Zm8.518 14.66a7.929 7.929 0 0 1-2.182-.281 5.588 5.588 0 0 1-1.742-.845l.44-1.302c.363.246.721.44 1.073.58.352.153.722.264 1.109.335.387.07.786.106 1.197.106.845 0 1.478-.217 1.901-.652.434-.422.651-1.038.651-1.848v-2.376h.176a2.725 2.725 0 0 1-1.162 1.567c-.575.375-1.244.563-2.006.563-.81 0-1.514-.176-2.112-.528a3.706 3.706 0 0 1-1.373-1.531c-.317-.67-.475-1.455-.475-2.359 0-.903.158-1.683.475-2.34.329-.658.786-1.162 1.373-1.514.598-.364 1.302-.546 2.112-.546.774 0 1.443.194 2.006.581.575.376.956.892 1.144 1.549l-.158-.14.158-1.831h1.725a17.507 17.507 0 0 0-.141 2.13v6.564c0 1.338-.358 2.359-1.073 3.063-.704.704-1.743 1.055-3.116 1.055Zm-.123-5.543c.775 0 1.391-.264 1.848-.793.47-.527.704-1.273.704-2.235s-.234-1.701-.704-2.217c-.457-.517-1.073-.775-1.848-.775-.798 0-1.431.258-1.901.775-.457.516-.686 1.255-.686 2.217 0 .962.229 1.707.686 2.236.47.527 1.103.791 1.901.791Zm6.87 1.601v-6.67c0-.364-.012-.728-.036-1.091a16.668 16.668 0 0 0-.07-1.11h1.725l.193 2.289h-.281c.117-.552.317-1.01.598-1.373a2.616 2.616 0 0 1 1.021-.81 3.23 3.23 0 0 1 1.76-.228c.129.011.258.035.387.07l-.017 1.584c-.2-.082-.376-.13-.528-.14a3.3 3.3 0 0 0-.528-.036c-.517 0-.957.117-1.32.352-.364.223-.64.528-.828.915a2.836 2.836 0 0 0-.281 1.25v4.998h-1.795Zm9.98.159c-.786 0-1.472-.182-2.059-.546-.587-.364-1.044-.892-1.373-1.584-.317-.692-.475-1.514-.475-2.464 0-.962.158-1.784.475-2.464.329-.68.786-1.203 1.373-1.566.587-.376 1.273-.564 2.059-.564.774 0 1.449.194 2.024.581.575.387.956.915 1.144 1.584h-.194l.176-2.006h1.725l-.105 1.09c-.024.353-.036.7-.036 1.04v6.74h-1.777v-1.971h.193a2.719 2.719 0 0 1-1.161 1.566c-.575.376-1.238.563-1.989.563Zm.44-1.39c.763 0 1.373-.27 1.83-.81.47-.54.704-1.338.704-2.394s-.234-1.848-.704-2.376c-.457-.54-1.067-.81-1.83-.81-.774 0-1.396.27-1.866.81-.457.528-.686 1.32-.686 2.376 0 1.056.229 1.854.686 2.393.458.54 1.08.81 1.866.81Zm10.338 1.39c-.962 0-1.69-.259-2.183-.775-.492-.528-.739-1.314-.739-2.358V5.456h-1.725V4.083h1.725V1.742l1.778-.475v2.816h2.464v1.373h-2.464V9.82c0 .657.117 1.127.352 1.408.234.282.575.423 1.021.423.223 0 .416-.018.58-.053.176-.047.335-.1.476-.159v1.444c-.176.07-.382.123-.616.158-.235.047-.458.07-.669.07Zm2.944-.159v-8.87h1.778v8.87h-1.778Zm-.141-10.718V.387h2.059v1.848h-2.059Zm8.325 10.877c-.88 0-1.642-.182-2.288-.546a3.824 3.824 0 0 1-1.496-1.584c-.352-.692-.528-1.514-.528-2.464s.176-1.766.528-2.446a3.69 3.69 0 0 1 1.496-1.584c.646-.376 1.408-.564 2.288-.564.88 0 1.643.188 2.288.564a3.66 3.66 0 0 1 1.514 1.584c.364.68.546 1.496.546 2.446 0 .95-.182 1.772-.546 2.464a3.791 3.791 0 0 1-1.514 1.584c-.645.364-1.408.545-2.288.545Zm0-1.39c.775 0 1.391-.27 1.848-.81.458-.54.687-1.338.687-2.394s-.229-1.848-.687-2.376c-.457-.54-1.073-.81-1.848-.81-.762 0-1.372.27-1.83.81-.458.528-.686 1.32-.686 2.376 0 1.056.223 1.854.668 2.393.458.54 1.074.81 1.848.81Zm6.425 1.231v-6.74c0-.34-.017-.687-.052-1.04a36.44 36.44 0 0 0-.088-1.09h1.724l.159 1.865h-.211c.269-.657.686-1.155 1.249-1.496.563-.352 1.215-.528 1.954-.528 1.044 0 1.83.288 2.358.863.54.575.81 1.466.81 2.675v5.491h-1.778V7.568c0-.787-.158-1.35-.475-1.69-.305-.352-.774-.528-1.408-.528-.751 0-1.349.235-1.795.704-.446.458-.669 1.08-.669 1.866v5.033h-1.778ZM24.833 152.32v-12.408h1.83v10.842h6.09v1.566h-7.92Zm12.95.159c-.787 0-1.473-.182-2.06-.546-.586-.364-1.044-.892-1.372-1.584-.317-.692-.476-1.513-.476-2.464 0-.962.159-1.783.476-2.464.328-.68.786-1.203 1.372-1.566.587-.376 1.273-.563 2.06-.563.774 0 1.449.193 2.024.58.575.388.956.916 1.144 1.584h-.194l.176-2.006h1.725l-.106 1.091a15.59 15.59 0 0 0-.035 1.039v6.74h-1.778v-1.971h.194a2.728 2.728 0 0 1-1.162 1.567c-.575.375-1.238.563-1.988.563Zm.44-1.391c.762 0 1.372-.27 1.83-.809.47-.54.704-1.338.704-2.394s-.235-1.848-.704-2.376c-.458-.54-1.068-.809-1.83-.809-.775 0-1.397.269-1.866.809-.458.528-.686 1.32-.686 2.376 0 1.056.228 1.854.686 2.394.458.539 1.08.809 1.866.809Zm6.888 1.232v-6.74c0-.341-.018-.687-.053-1.039a34.245 34.245 0 0 0-.088-1.091h1.725l.158 1.866h-.211c.27-.658.686-1.156 1.25-1.496.563-.352 1.214-.528 1.953-.528 1.044 0 1.83.287 2.359.862.54.575.81 1.467.81 2.675v5.491h-1.778v-5.385c0-.786-.159-1.35-.476-1.69-.305-.352-.774-.528-1.408-.528-.75 0-1.349.235-1.795.704-.446.458-.669 1.08-.669 1.866v5.033h-1.777Zm14.428 3.943a7.92 7.92 0 0 1-2.183-.282 5.586 5.586 0 0 1-1.742-.845l.44-1.302c.364.246.722.44 1.074.581.352.152.721.264 1.108.334.388.071.787.106 1.197.106.845 0 1.479-.217 1.901-.651.434-.423.651-1.039.651-1.848v-2.376h.176A2.723 2.723 0 0 1 61 151.546c-.575.375-1.244.563-2.007.563-.81 0-1.513-.176-2.112-.528a3.707 3.707 0 0 1-1.373-1.531c-.316-.669-.475-1.455-.475-2.358 0-.904.159-1.684.475-2.341.329-.657.787-1.162 1.373-1.514.599-.364 1.303-.545 2.112-.545.775 0 1.443.193 2.007.58.575.376.956.892 1.144 1.549l-.159-.141.159-1.83h1.724a17.199 17.199 0 0 0-.14 2.13v6.564c0 1.338-.358 2.359-1.074 3.063-.704.704-1.742 1.056-3.115 1.056Zm-.123-5.544c.774 0 1.39-.264 1.848-.792.469-.528.704-1.273.704-2.235 0-.963-.235-1.702-.704-2.218-.458-.516-1.074-.774-1.848-.774-.798 0-1.432.258-1.901.774-.458.516-.687 1.255-.687 2.218 0 .962.23 1.707.687 2.235.47.528 1.103.792 1.9.792Zm10.055 1.76c-1.068 0-1.872-.288-2.412-.863-.528-.586-.792-1.484-.792-2.692v-5.474h1.778v5.438c0 .74.153 1.285.458 1.637.305.352.768.528 1.39.528.704 0 1.273-.235 1.707-.704.434-.469.651-1.091.651-1.865v-5.034h1.778v8.87h-1.725v-1.9h.229c-.246.657-.64 1.167-1.18 1.531-.539.352-1.167.528-1.882.528Zm11.263 0c-1.432 0-2.558-.405-3.38-1.215-.821-.809-1.232-1.93-1.232-3.361 0-.927.176-1.737.528-2.429a3.955 3.955 0 0 1 1.496-1.602c.646-.387 1.39-.58 2.236-.58.832 0 1.53.176 2.094.528.563.352.991.85 1.285 1.496.293.633.44 1.384.44 2.252v.564h-6.688v-1.021h5.473l-.299.229c0-.88-.2-1.561-.598-2.042-.388-.493-.95-.739-1.69-.739-.821 0-1.455.287-1.9.862-.447.563-.67 1.344-.67 2.341v.176c0 1.044.253 1.83.757 2.358.517.528 1.244.792 2.183.792.516 0 .997-.07 1.443-.211a4.037 4.037 0 0 0 1.302-.739l.581 1.214c-.41.364-.91.646-1.496.845a6.077 6.077 0 0 1-1.865.282ZM0 351.062v-12.408h8.131v1.461H1.778v3.907h5.948v1.479H1.778v4.083H8.13v1.478H0Zm3.696-13.464 2.077-3.044H7.69l-2.693 3.044H3.696Zm8.994 13.464-3.801-8.87h1.9l2.992 7.41h-.51l3.045-7.41h1.813l-3.82 8.87H12.69Zm10.795.159c-1.432 0-2.558-.405-3.38-1.215-.82-.809-1.232-1.93-1.232-3.361 0-.927.176-1.737.528-2.429a3.955 3.955 0 0 1 1.496-1.602c.646-.387 1.39-.58 2.236-.58.833 0 1.53.176 2.094.528.563.352.991.85 1.285 1.496.293.633.44 1.384.44 2.252v.564h-6.688v-1.021h5.473l-.299.229c0-.88-.2-1.561-.598-2.042-.387-.493-.95-.739-1.69-.739-.821 0-1.455.287-1.9.862-.447.563-.67 1.344-.67 2.341v.176c0 1.044.253 1.83.757 2.358.517.528 1.244.792 2.183.792.516 0 .997-.07 1.443-.211a4.037 4.037 0 0 0 1.302-.739l.581 1.214c-.41.364-.91.646-1.496.845a6.077 6.077 0 0 1-1.865.282Zm-.968-9.891 1.812-3.556h1.813l-2.393 3.556h-1.232Zm6.475 9.732v-6.74c0-.341-.018-.687-.053-1.039a34.482 34.482 0 0 0-.088-1.091h1.725l.158 1.866h-.211c.27-.657.686-1.156 1.25-1.496.563-.352 1.214-.528 1.953-.528 1.044 0 1.83.287 2.358.862.54.575.81 1.467.81 2.675v5.491h-1.778v-5.385c0-.786-.158-1.349-.475-1.69-.305-.352-.774-.528-1.408-.528-.75 0-1.35.235-1.795.704-.446.458-.669 1.08-.669 1.866v5.033h-1.777Zm14.533.159c-1.431 0-2.558-.405-3.379-1.215-.821-.809-1.232-1.93-1.232-3.361 0-.927.176-1.737.528-2.429a3.955 3.955 0 0 1 1.496-1.602c.645-.387 1.39-.58 2.235-.58.833 0 1.531.176 2.095.528.563.352.991.85 1.284 1.496.294.633.44 1.384.44 2.252v.564h-6.688v-1.021h5.474l-.3.229c0-.88-.199-1.561-.598-2.042-.387-.493-.95-.739-1.69-.739-.82 0-1.454.287-1.9.862-.446.563-.669 1.344-.669 2.341v.176c0 1.044.252 1.83.757 2.358.516.528 1.244.792 2.182.792.517 0 .998-.07 1.444-.211a4.037 4.037 0 0 0 1.302-.739l.58 1.214c-.41.364-.909.646-1.495.845a6.077 6.077 0 0 1-1.866.282Zm5.507-.159v-6.74c0-.341-.017-.687-.053-1.039a34.188 34.188 0 0 0-.088-1.091h1.725l.159 1.866h-.212c.247-.646.622-1.144 1.127-1.496.516-.352 1.132-.528 1.848-.528.727 0 1.32.176 1.777.528.47.34.792.868.968 1.584h-.281a3.043 3.043 0 0 1 1.197-1.532c.563-.387 1.214-.58 1.953-.58.986 0 1.725.287 2.218.862.493.575.739 1.467.739 2.675v5.491h-1.778v-5.403c0-.774-.135-1.331-.404-1.672-.258-.352-.68-.528-1.268-.528-.68 0-1.22.235-1.619.704-.399.47-.598 1.103-.598 1.901v4.998h-1.778v-5.403c0-.774-.135-1.331-.405-1.672-.258-.352-.68-.528-1.267-.528-.68 0-1.214.235-1.601.704-.388.47-.581 1.103-.581 1.901v4.998h-1.778Zm19.725.159c-1.432 0-2.558-.405-3.38-1.215-.821-.809-1.232-1.93-1.232-3.361 0-.927.176-1.737.528-2.429a3.955 3.955 0 0 1 1.496-1.602c.646-.387 1.39-.58 2.236-.58.832 0 1.53.176 2.094.528.563.352.991.85 1.285 1.496.293.633.44 1.384.44 2.252v.564h-6.688v-1.021h5.473l-.299.229c0-.88-.2-1.561-.598-2.042-.387-.493-.95-.739-1.69-.739-.821 0-1.455.287-1.9.862-.447.563-.67 1.344-.67 2.341v.176c0 1.044.253 1.83.757 2.358.517.528 1.244.792 2.183.792.516 0 .997-.07 1.443-.211a4.037 4.037 0 0 0 1.302-.739l.581 1.214c-.41.364-.91.646-1.496.845a6.077 6.077 0 0 1-1.865.282Zm5.506-.159v-6.74c0-.341-.017-.687-.052-1.039a34.482 34.482 0 0 0-.088-1.091h1.724l.159 1.866h-.211c.27-.657.686-1.156 1.25-1.496.563-.352 1.214-.528 1.953-.528 1.044 0 1.83.287 2.358.862.54.575.81 1.467.81 2.675v5.491h-1.778v-5.385c0-.786-.158-1.349-.475-1.69-.305-.352-.774-.528-1.408-.528-.75 0-1.35.235-1.795.704-.446.458-.669 1.08-.669 1.866v5.033h-1.778Zm13.883.159c-.962 0-1.69-.258-2.183-.775-.492-.528-.739-1.314-.739-2.358v-4.523H83.5v-1.373h1.725v-2.341l1.778-.475v2.816h2.464v1.373h-2.464v4.365c0 .657.117 1.126.352 1.408.235.281.575.422 1.02.422.224 0 .417-.018.582-.053.175-.047.334-.099.475-.158v1.443c-.176.07-.382.123-.616.159-.235.046-.458.07-.67.07Zm5.989 0a7.03 7.03 0 0 1-2.042-.282c-.622-.187-1.138-.451-1.549-.792l.546-1.214c.434.328.915.575 1.443.739a5.428 5.428 0 0 0 1.62.246c.645 0 1.132-.111 1.46-.334.329-.235.493-.551.493-.95a.944.944 0 0 0-.317-.74c-.2-.187-.534-.328-1.003-.422l-1.69-.334c-.75-.165-1.32-.446-1.707-.845-.387-.399-.58-.909-.58-1.531 0-.528.14-.998.422-1.408.293-.411.704-.734 1.232-.968.54-.235 1.167-.352 1.883-.352.657 0 1.267.094 1.83.281.564.188 1.033.458 1.408.81l-.563 1.179a4.003 4.003 0 0 0-1.232-.704 3.845 3.845 0 0 0-1.39-.264c-.657 0-1.144.123-1.461.37a1.168 1.168 0 0 0-.475.968c0 .305.094.557.281.756.2.188.51.335.933.44l1.69.335c.798.164 1.396.434 1.795.809.399.376.598.88.598 1.514 0 .552-.152 1.033-.457 1.443-.305.411-.728.722-1.267.933-.54.211-1.174.317-1.901.317Zm-69.543 20.841v-8.87h1.777v8.87h-1.777Zm-.141-10.718v-1.848h2.059v1.848h-2.06Zm4.523 10.718v-6.74c0-.341-.017-.687-.052-1.039a34.188 34.188 0 0 0-.088-1.091h1.724l.159 1.866h-.211c.246-.646.622-1.144 1.126-1.496.516-.352 1.132-.528 1.848-.528.728 0 1.32.176 1.778.528.469.34.792.868.968 1.584h-.282a3.043 3.043 0 0 1 1.197-1.532c.563-.387 1.214-.58 1.953-.58.986 0 1.725.287 2.218.862.493.575.74 1.467.74 2.675v5.491h-1.778v-5.403c0-.774-.135-1.331-.405-1.672-.258-.352-.68-.528-1.267-.528-.68 0-1.22.235-1.62.704-.398.47-.598 1.103-.598 1.901v4.998h-1.778v-5.403c0-.774-.135-1.331-.404-1.672-.258-.352-.68-.528-1.268-.528-.68 0-1.214.235-1.601.704-.387.47-.581 1.103-.581 1.901v4.998h-1.778Zm15.624 3.802v-10.542c0-.341-.018-.687-.053-1.039a34.482 34.482 0 0 0-.088-1.091h1.725l.176 2.006h-.194a2.777 2.777 0 0 1 1.127-1.584c.575-.387 1.255-.58 2.041-.58s1.473.187 2.06.563c.586.364 1.038.886 1.355 1.566.328.681.492 1.502.492 2.464 0 .951-.164 1.772-.492 2.464-.317.693-.769 1.221-1.355 1.584-.587.364-1.274.546-2.06.546-.774 0-1.449-.188-2.024-.563a2.774 2.774 0 0 1-1.126-1.567h.194v5.773h-1.778Zm4.294-5.034c.775 0 1.39-.269 1.848-.809.47-.54.704-1.338.704-2.394s-.234-1.848-.704-2.376c-.457-.539-1.073-.809-1.848-.809-.774 0-1.396.27-1.865.809-.458.528-.687 1.32-.687 2.376 0 1.056.23 1.854.687 2.394.469.54 1.09.809 1.865.809Zm6.396 1.232v-6.67c0-.364-.012-.727-.035-1.091a17.074 17.074 0 0 0-.07-1.109h1.724l.194 2.288h-.282c.117-.551.317-1.009.598-1.373a2.617 2.617 0 0 1 1.021-.809c.41-.176.839-.264 1.285-.264.188 0 .346.011.475.035.13.012.258.035.387.07l-.017 1.584a1.79 1.79 0 0 0-.528-.141 3.354 3.354 0 0 0-.528-.035c-.517 0-.957.118-1.32.352-.364.223-.64.528-.828.915a2.83 2.83 0 0 0-.281 1.25v4.998h-1.795Zm10.65.159c-1.432 0-2.558-.405-3.38-1.215-.82-.809-1.231-1.93-1.231-3.361 0-.927.175-1.737.528-2.429a3.955 3.955 0 0 1 1.495-1.602c.646-.387 1.39-.58 2.236-.58.833 0 1.53.176 2.094.528.563.352.992.85 1.285 1.496.293.633.44 1.384.44 2.252v.564h-6.688v-1.021h5.474l-.3.229c0-.88-.2-1.561-.598-2.042-.387-.493-.95-.739-1.69-.739-.821 0-1.455.287-1.9.862-.446.563-.67 1.344-.67 2.341v.176c0 1.044.253 1.83.758 2.358.516.528 1.243.792 2.182.792.516 0 .997-.07 1.443-.211a4.037 4.037 0 0 0 1.303-.739l.58 1.214c-.41.364-.909.646-1.496.845a6.077 6.077 0 0 1-1.865.282Zm-.968-9.891 1.813-3.556h1.812l-2.393 3.556H64.97Zm8.96 9.732-3.802-8.87h1.9l2.992 7.41h-.51l3.045-7.41h1.813l-3.82 8.87H73.93Zm9.998.159c-1.068 0-1.871-.288-2.411-.863-.528-.586-.792-1.484-.792-2.692v-5.474h1.777v5.438c0 .74.153 1.285.458 1.637.305.352.769.528 1.39.528.704 0 1.273-.234 1.708-.704.434-.469.65-1.091.65-1.865v-5.034h1.778v8.87h-1.725v-1.9h.23c-.247.657-.64 1.167-1.18 1.531-.54.352-1.167.528-1.883.528Zm10.207 0a7.03 7.03 0 0 1-2.042-.282c-.622-.187-1.138-.451-1.549-.792l.546-1.214c.434.328.915.575 1.443.739a5.428 5.428 0 0 0 1.62.246c.645 0 1.132-.111 1.46-.334.329-.235.493-.551.493-.95a.944.944 0 0 0-.317-.74c-.2-.187-.534-.328-1.003-.422l-1.69-.334c-.75-.165-1.32-.446-1.707-.845-.387-.399-.58-.909-.58-1.531 0-.528.14-.998.422-1.408.293-.411.704-.734 1.232-.968.54-.235 1.167-.352 1.883-.352.657 0 1.267.094 1.83.281.564.188 1.033.458 1.408.81l-.563 1.179a4.003 4.003 0 0 0-1.232-.704 3.845 3.845 0 0 0-1.39-.264c-.657 0-1.144.123-1.461.37a1.168 1.168 0 0 0-.475.968c0 .305.094.557.281.756.2.188.51.335.933.44l1.69.335c.798.164 1.396.434 1.795.809.399.376.598.88.598 1.514 0 .552-.152 1.033-.457 1.443-.305.411-.728.722-1.267.933-.54.211-1.174.317-1.901.317ZM190.338 486.281v-12.408h1.602l4.787 10.789h-.528l4.787-10.789h1.584v12.408h-1.654v-9.926h.58l-4.47 9.926h-1.144l-4.47-9.926h.598v9.926h-1.672Zm19.136.159c-1.432 0-2.558-.405-3.379-1.215-.822-.809-1.232-1.93-1.232-3.361 0-.927.176-1.737.528-2.429a3.947 3.947 0 0 1 1.496-1.602c.645-.387 1.39-.581 2.235-.581.833 0 1.531.176 2.094.528a3.35 3.35 0 0 1 1.285 1.496c.293.634.44 1.385.44 2.253v.563h-6.688v-1.02h5.474l-.3.228c0-.88-.199-1.56-.598-2.041-.387-.493-.95-.739-1.69-.739-.821 0-1.455.287-1.9.862-.446.563-.669 1.344-.669 2.341v.176c0 1.044.252 1.83.757 2.358.516.528 1.243.792 2.182.792.516 0 .997-.07 1.443-.211a4.038 4.038 0 0 0 1.303-.739l.58 1.214c-.41.364-.909.646-1.496.845a6.07 6.07 0 0 1-1.865.282Zm8.552 0a7.03 7.03 0 0 1-2.042-.282c-.622-.188-1.138-.452-1.549-.792l.546-1.214c.434.328.915.575 1.443.739a5.43 5.43 0 0 0 1.619.246c.646 0 1.132-.111 1.461-.334a1.11 1.11 0 0 0 .493-.951.943.943 0 0 0-.317-.739c-.199-.187-.534-.328-1.003-.422l-1.69-.335c-.751-.164-1.32-.445-1.707-.844-.387-.399-.581-.91-.581-1.532 0-.528.141-.997.423-1.408.293-.41.704-.733 1.232-.968.539-.234 1.167-.352 1.883-.352.657 0 1.267.094 1.83.282.563.188 1.033.458 1.408.81l-.563 1.179a4.001 4.001 0 0 0-1.232-.704 3.846 3.846 0 0 0-1.39-.264c-.657 0-1.144.123-1.461.369a1.17 1.17 0 0 0-.475.968c0 .306.093.558.281.757.2.188.511.335.933.44l1.69.335c.797.164 1.396.434 1.795.809.399.376.598.88.598 1.514 0 .551-.152 1.032-.457 1.443-.305.411-.728.722-1.268.933-.539.211-1.173.317-1.9.317Zm8.871 0c-1.068 0-1.872-.288-2.411-.863-.528-.586-.792-1.484-.792-2.693v-5.473h1.777v5.438c0 .739.153 1.285.458 1.637.305.352.768.528 1.39.528.704 0 1.273-.235 1.707-.704.435-.469.652-1.091.652-1.866v-5.033h1.777v8.87h-1.725v-1.901h.229c-.246.658-.639 1.168-1.179 1.532-.54.352-1.167.528-1.883.528Zm7.127-.159v-6.67c0-.364-.012-.728-.035-1.091a17.358 17.358 0 0 0-.071-1.109h1.725l.194 2.288h-.282c.117-.552.317-1.009.598-1.373a2.614 2.614 0 0 1 1.021-.81 3.23 3.23 0 0 1 1.76-.228c.129.011.258.035.387.07l-.017 1.584a1.798 1.798 0 0 0-.528-.141 3.358 3.358 0 0 0-.528-.035c-.517 0-.957.117-1.32.352-.364.223-.64.528-.827.915a2.824 2.824 0 0 0-.282 1.25v4.998h-1.795Zm10.65.159c-1.432 0-2.558-.405-3.379-1.215-.822-.809-1.232-1.93-1.232-3.361 0-.927.176-1.737.528-2.429a3.947 3.947 0 0 1 1.496-1.602c.645-.387 1.39-.581 2.235-.581.833 0 1.531.176 2.094.528a3.35 3.35 0 0 1 1.285 1.496c.293.634.44 1.385.44 2.253v.563h-6.688v-1.02h5.474l-.3.228c0-.88-.199-1.56-.598-2.041-.387-.493-.95-.739-1.69-.739-.821 0-1.455.287-1.9.862-.446.563-.669 1.344-.669 2.341v.176c0 1.044.252 1.83.757 2.358.516.528 1.243.792 2.182.792.516 0 .997-.07 1.443-.211a4.038 4.038 0 0 0 1.303-.739l.58 1.214c-.41.364-.909.646-1.496.845a6.07 6.07 0 0 1-1.865.282Zm8.552 0a7.03 7.03 0 0 1-2.042-.282c-.622-.188-1.138-.452-1.549-.792l.546-1.214c.434.328.915.575 1.443.739a5.43 5.43 0 0 0 1.619.246c.646 0 1.132-.111 1.461-.334a1.11 1.11 0 0 0 .493-.951.943.943 0 0 0-.317-.739c-.199-.187-.534-.328-1.003-.422l-1.69-.335c-.751-.164-1.32-.445-1.707-.844-.387-.399-.581-.91-.581-1.532 0-.528.141-.997.423-1.408.293-.41.704-.733 1.232-.968.539-.234 1.167-.352 1.883-.352.657 0 1.267.094 1.83.282.563.188 1.033.458 1.408.81l-.563 1.179a4.001 4.001 0 0 0-1.232-.704 3.846 3.846 0 0 0-1.39-.264c-.657 0-1.144.123-1.461.369a1.17 1.17 0 0 0-.475.968c0 .306.093.558.281.757.2.188.511.335.933.44l1.69.335c.797.164 1.396.434 1.795.809.399.376.598.88.598 1.514 0 .551-.152 1.032-.457 1.443-.305.411-.728.722-1.268.933-.539.211-1.173.317-1.9.317Zm-97.153 21c-.774 0-1.461-.182-2.059-.546-.587-.364-1.045-.892-1.373-1.584-.317-.692-.475-1.514-.475-2.464 0-.962.158-1.783.475-2.464.328-.68.786-1.203 1.373-1.566.598-.376 1.285-.564 2.059-.564.763 0 1.431.194 2.006.581.587.376.974.892 1.162 1.549h-.211v-6.054h1.777v12.953h-1.76v-2.006h.212a2.83 2.83 0 0 1-1.162 1.584c-.575.387-1.25.581-2.024.581Zm.44-1.391c.763 0 1.379-.27 1.848-.809.469-.54.704-1.338.704-2.394s-.235-1.848-.704-2.376c-.469-.54-1.085-.81-1.848-.81-.774 0-1.396.27-1.866.81-.457.528-.686 1.32-.686 2.376 0 1.056.229 1.854.686 2.394.47.539 1.092.809 1.866.809Zm7.539-6.934-.774-.599c.34-.352.569-.68.686-.985.129-.317.194-.634.194-.951l.475.37h-1.478v-2.077h2.094v1.426c0 .528-.088 1.021-.264 1.478-.176.446-.487.892-.933 1.338Zm6.922 8.325c-.786 0-1.472-.182-2.059-.546-.586-.364-1.044-.892-1.373-1.584-.316-.692-.475-1.514-.475-2.464 0-.962.159-1.783.475-2.464.329-.68.787-1.203 1.373-1.566.587-.376 1.273-.564 2.059-.564.775 0 1.45.194 2.024.581.575.387.957.915 1.144 1.584h-.193l.176-2.006h1.725l-.106 1.091c-.023.352-.035.698-.035 1.038v6.741h-1.778v-1.971h.194a2.724 2.724 0 0 1-1.162 1.566c-.575.376-1.238.564-1.989.564Zm.44-1.391c.763 0 1.373-.27 1.831-.809.469-.54.704-1.338.704-2.394s-.235-1.848-.704-2.376c-.458-.54-1.068-.81-1.831-.81-.774 0-1.396.27-1.865.81-.458.528-.687 1.32-.687 2.376 0 1.056.229 1.854.687 2.394.457.539 1.079.809 1.865.809Zm10.285 1.391c-.774 0-1.46-.182-2.059-.546-.586-.364-1.044-.892-1.373-1.584-.316-.692-.475-1.514-.475-2.464 0-.962.159-1.783.475-2.464.329-.68.787-1.203 1.373-1.566.599-.376 1.285-.564 2.059-.564.763 0 1.432.194 2.007.581.587.376.974.892 1.161 1.549h-.211v-6.054h1.778v12.953h-1.76v-2.006h.211a2.825 2.825 0 0 1-1.162 1.584c-.574.387-1.249.581-2.024.581Zm.44-1.391c.763 0 1.379-.27 1.848-.809.47-.54.704-1.338.704-2.394s-.234-1.848-.704-2.376c-.469-.54-1.085-.81-1.848-.81-.774 0-1.396.27-1.865.81-.458.528-.687 1.32-.687 2.376 0 1.056.229 1.854.687 2.394.469.539 1.091.809 1.865.809Zm10.285 1.391c-.786 0-1.472-.182-2.059-.546-.586-.364-1.044-.892-1.373-1.584-.316-.692-.475-1.514-.475-2.464 0-.962.159-1.783.475-2.464.329-.68.787-1.203 1.373-1.566.587-.376 1.273-.564 2.059-.564.775 0 1.45.194 2.024.581.575.387.957.915 1.144 1.584h-.193l.176-2.006h1.725l-.106 1.091c-.023.352-.035.698-.035 1.038v6.741h-1.778v-1.971h.194a2.724 2.724 0 0 1-1.162 1.566c-.575.376-1.238.564-1.989.564Zm.44-1.391c.763 0 1.373-.27 1.831-.809.469-.54.704-1.338.704-2.394s-.235-1.848-.704-2.376c-.458-.54-1.068-.81-1.831-.81-.774 0-1.396.27-1.865.81-.458.528-.687 1.32-.687 2.376 0 1.056.229 1.854.687 2.394.457.539 1.079.809 1.865.809Zm6.889 5.034V500.54c0-.34-.018-.686-.053-1.038a36.424 36.424 0 0 0-.088-1.091h1.725l.176 2.006h-.194a2.772 2.772 0 0 1 1.126-1.584c.575-.387 1.256-.581 2.042-.581.786 0 1.473.188 2.059.564.587.363 1.039.886 1.355 1.566.329.681.493 1.502.493 2.464 0 .95-.164 1.772-.493 2.464-.316.692-.768 1.22-1.355 1.584-.586.364-1.273.546-2.059.546-.774 0-1.449-.188-2.024-.564a2.766 2.766 0 0 1-1.126-1.566h.193v5.773h-1.777Zm4.294-5.034c.774 0 1.39-.27 1.848-.809.469-.54.704-1.338.704-2.394s-.235-1.848-.704-2.376c-.458-.54-1.074-.81-1.848-.81s-1.396.27-1.866.81c-.457.528-.686 1.32-.686 2.376 0 1.056.229 1.854.686 2.394.47.539 1.092.809 1.866.809Zm9.794 1.391c-.962 0-1.689-.258-2.182-.775-.493-.528-.739-1.314-.739-2.358v-4.523h-1.725v-1.373h1.725v-2.341l1.777-.475v2.816h2.464v1.373h-2.464v4.364c0 .658.118 1.127.352 1.408.235.282.575.423 1.021.423.223 0 .417-.018.581-.053.176-.047.334-.1.475-.158v1.443c-.176.07-.381.123-.616.158a3.41 3.41 0 0 1-.669.071Zm6.341 0c-.786 0-1.472-.182-2.059-.546-.587-.364-1.044-.892-1.373-1.584-.316-.692-.475-1.514-.475-2.464 0-.962.159-1.783.475-2.464.329-.68.786-1.203 1.373-1.566.587-.376 1.273-.564 2.059-.564.775 0 1.449.194 2.024.581.575.387.957.915 1.144 1.584h-.193l.176-2.006h1.725l-.106 1.091a15.25 15.25 0 0 0-.035 1.038v6.741h-1.778v-1.971h.194a2.724 2.724 0 0 1-1.162 1.566c-.575.376-1.238.564-1.989.564Zm.44-1.391c.763 0 1.373-.27 1.831-.809.469-.54.704-1.338.704-2.394s-.235-1.848-.704-2.376c-.458-.54-1.068-.81-1.831-.81-.774 0-1.396.27-1.865.81-.458.528-.687 1.32-.687 2.376 0 1.056.229 1.854.687 2.394.457.539 1.079.809 1.865.809Zm10.338 1.391c-.962 0-1.689-.258-2.182-.775-.493-.528-.739-1.314-.739-2.358v-4.523h-1.725v-1.373h1.725v-2.341l1.777-.475v2.816h2.464v1.373h-2.464v4.364c0 .658.117 1.127.352 1.408.235.282.575.423 1.021.423.223 0 .416-.018.581-.053.176-.047.334-.1.475-.158v1.443c-.176.07-.381.123-.616.158a3.418 3.418 0 0 1-.669.071Zm2.944-.159v-8.87h1.778v8.87h-1.778Zm-.141-10.718v-1.848h2.06v1.848h-2.06Zm8.326 10.877c-.88 0-1.643-.182-2.288-.546a3.813 3.813 0 0 1-1.496-1.584c-.352-.692-.528-1.514-.528-2.464s.176-1.766.528-2.446a3.676 3.676 0 0 1 1.496-1.584c.645-.376 1.408-.564 2.288-.564.88 0 1.642.188 2.288.564a3.65 3.65 0 0 1 1.513 1.584c.364.68.546 1.496.546 2.446 0 .95-.182 1.772-.546 2.464a3.784 3.784 0 0 1-1.513 1.584c-.646.364-1.408.546-2.288.546Zm0-1.391c.774 0 1.39-.27 1.848-.809.457-.54.686-1.338.686-2.394s-.229-1.848-.686-2.376c-.458-.54-1.074-.81-1.848-.81-.763 0-1.373.27-1.831.81-.457.528-.686 1.32-.686 2.376 0 1.056.223 1.854.669 2.394.457.539 1.073.809 1.848.809Zm6.425 1.232v-6.741c0-.34-.018-.686-.053-1.038a36.424 36.424 0 0 0-.088-1.091h1.725l.158 1.865h-.211c.27-.657.686-1.155 1.249-1.496.564-.352 1.215-.528 1.954-.528 1.044 0 1.83.288 2.358.863.54.575.81 1.467.81 2.675v5.491h-1.778v-5.385c0-.786-.158-1.35-.475-1.69-.305-.352-.774-.528-1.408-.528-.751 0-1.349.235-1.795.704-.446.458-.669 1.08-.669 1.866v5.033h-1.777Zm-65.148 21.159c-1.431 0-2.558-.405-3.379-1.215-.822-.809-1.232-1.93-1.232-3.361 0-.927.176-1.737.528-2.429a3.954 3.954 0 0 1 1.496-1.602c.645-.387 1.39-.581 2.235-.581.833 0 1.531.176 2.094.528.564.352.992.851 1.285 1.496.294.634.44 1.385.44 2.253v.563h-6.688v-1.02h5.474l-.299.228c0-.88-.2-1.56-.599-2.041-.387-.493-.95-.739-1.689-.739-.822 0-1.455.287-1.901.862-.446.563-.669 1.344-.669 2.341v.176c0 1.044.252 1.83.757 2.358.516.528 1.244.792 2.182.792.516 0 .998-.07 1.443-.211a4.038 4.038 0 0 0 1.303-.739l.581 1.214c-.411.364-.91.646-1.496.845a6.081 6.081 0 0 1-1.866.282Zm5.507-.159v-6.741c0-.34-.018-.686-.053-1.038a33.389 33.389 0 0 0-.088-1.091h1.725l.158 1.865h-.211c.27-.657.687-1.155 1.25-1.496.563-.352 1.214-.528 1.953-.528 1.045 0 1.831.288 2.359.863.54.575.809 1.467.809 2.675v5.491h-1.777v-5.385c0-.786-.159-1.35-.475-1.69-.305-.352-.775-.528-1.408-.528-.751 0-1.35.235-1.796.704-.445.458-.668 1.08-.668 1.866v5.033h-1.778Zm19.226.159c-1.432 0-2.558-.405-3.379-1.215-.822-.809-1.232-1.93-1.232-3.361 0-.927.176-1.737.528-2.429a3.947 3.947 0 0 1 1.496-1.602c.645-.387 1.39-.581 2.235-.581.833 0 1.531.176 2.094.528a3.35 3.35 0 0 1 1.285 1.496c.293.634.44 1.385.44 2.253v.563h-6.688v-1.02h5.474l-.3.228c0-.88-.199-1.56-.598-2.041-.387-.493-.95-.739-1.69-.739-.821 0-1.455.287-1.9.862-.446.563-.669 1.344-.669 2.341v.176c0 1.044.252 1.83.757 2.358.516.528 1.243.792 2.182.792.516 0 .997-.07 1.443-.211a4.038 4.038 0 0 0 1.303-.739l.58 1.214c-.41.364-.909.646-1.496.845a6.07 6.07 0 0 1-1.865.282Zm5.507-.159v-6.741c0-.34-.018-.686-.053-1.038a33.389 33.389 0 0 0-.088-1.091h1.725l.158 1.865h-.211c.246-.645.622-1.144 1.126-1.496.517-.352 1.133-.528 1.848-.528.728 0 1.32.176 1.778.528.469.341.792.869.968 1.584h-.282a3.048 3.048 0 0 1 1.197-1.531c.563-.387 1.215-.581 1.954-.581.985 0 1.725.288 2.217.863.493.575.74 1.467.74 2.675v5.491h-1.778v-5.403c0-.774-.135-1.332-.405-1.672-.258-.352-.68-.528-1.267-.528-.681 0-1.22.235-1.619.704s-.599 1.103-.599 1.901v4.998h-1.777v-5.403c0-.774-.135-1.332-.405-1.672-.258-.352-.681-.528-1.267-.528-.681 0-1.215.235-1.602.704s-.581 1.103-.581 1.901v4.998h-1.777Zm15.623 3.802V521.54c0-.34-.017-.686-.053-1.038a30.82 30.82 0 0 0-.088-1.091h1.725l.176 2.006h-.193a2.768 2.768 0 0 1 1.126-1.584c.575-.387 1.256-.581 2.042-.581.786 0 1.472.188 2.059.564.587.363 1.038.886 1.355 1.566.329.681.493 1.502.493 2.464 0 .95-.164 1.772-.493 2.464-.317.692-.768 1.22-1.355 1.584-.587.364-1.273.546-2.059.546-.775 0-1.449-.188-2.024-.564a2.767 2.767 0 0 1-1.127-1.566h.194v5.773h-1.778Zm4.295-5.034c.774 0 1.39-.27 1.848-.809.469-.54.704-1.338.704-2.394s-.235-1.848-.704-2.376c-.458-.54-1.074-.81-1.848-.81-.775 0-1.397.27-1.866.81-.458.528-.686 1.32-.686 2.376 0 1.056.228 1.854.686 2.394.469.539 1.091.809 1.866.809Zm6.43 1.232v-12.953h1.778v12.953h-1.778Zm8.185.159c-.88 0-1.643-.182-2.288-.546a3.813 3.813 0 0 1-1.496-1.584c-.352-.692-.528-1.514-.528-2.464s.176-1.766.528-2.446a3.676 3.676 0 0 1 1.496-1.584c.645-.376 1.408-.564 2.288-.564.88 0 1.642.188 2.288.564a3.65 3.65 0 0 1 1.513 1.584c.364.68.546 1.496.546 2.446 0 .95-.182 1.772-.546 2.464a3.784 3.784 0 0 1-1.513 1.584c-.646.364-1.408.546-2.288.546Zm0-1.391c.774 0 1.39-.27 1.848-.809.457-.54.686-1.338.686-2.394s-.229-1.848-.686-2.376c-.458-.54-1.074-.81-1.848-.81-.763 0-1.373.27-1.831.81-.457.528-.686 1.32-.686 2.376 0 1.056.223 1.854.669 2.394.457.539 1.073.809 1.848.809Zm6.425 1.232v-8.87h1.777v8.87h-1.777Zm-.141-10.718v-1.848h2.059v1.848h-2.059ZM439.772 489.979c-1.267 0-2.347-.258-3.238-.775a5.18 5.18 0 0 1-2.06-2.2c-.469-.962-.704-2.094-.704-3.396 0-1.303.235-2.429.704-3.38a5.192 5.192 0 0 1 2.06-2.2c.891-.516 1.971-.774 3.238-.774.88 0 1.666.129 2.358.387a5.238 5.238 0 0 1 1.813 1.127l-.633 1.46c-.564-.481-1.115-.827-1.655-1.038-.528-.211-1.144-.317-1.848-.317-1.337 0-2.358.411-3.062 1.232-.704.821-1.056 1.989-1.056 3.503 0 1.513.352 2.686 1.056 3.52.704.821 1.725 1.232 3.062 1.232.704 0 1.32-.106 1.848-.317.54-.211 1.091-.563 1.655-1.056l.633 1.461a5.48 5.48 0 0 1-1.813 1.144c-.692.258-1.478.387-2.358.387Zm9.494 0c-.88 0-1.643-.182-2.288-.546a3.813 3.813 0 0 1-1.496-1.584c-.352-.692-.528-1.513-.528-2.464 0-.95.176-1.766.528-2.446a3.676 3.676 0 0 1 1.496-1.584c.645-.376 1.408-.563 2.288-.563.88 0 1.642.187 2.288.563a3.65 3.65 0 0 1 1.513 1.584c.364.68.546 1.496.546 2.446 0 .951-.182 1.772-.546 2.464a3.784 3.784 0 0 1-1.513 1.584c-.646.364-1.408.546-2.288.546Zm0-1.391c.774 0 1.39-.27 1.848-.809.457-.54.686-1.338.686-2.394s-.229-1.848-.686-2.376c-.458-.54-1.074-.809-1.848-.809-.763 0-1.373.269-1.831.809-.457.528-.686 1.32-.686 2.376 0 1.056.223 1.854.669 2.394.457.539 1.073.809 1.848.809Zm9.575 1.391c-1.068 0-1.871-.288-2.411-.863-.528-.586-.792-1.484-.792-2.692v-5.474h1.777v5.438c0 .74.153 1.285.458 1.637.305.352.769.528 1.39.528.704 0 1.273-.235 1.708-.704.434-.469.651-1.091.651-1.865v-5.034h1.777v8.87h-1.724v-1.9h.228c-.246.657-.639 1.167-1.179 1.531-.54.352-1.167.528-1.883.528Zm-2.042-9.909 1.936-3.555h1.62l1.936 3.555h-1.18l-1.566-2.464-1.566 2.464h-1.18Zm12.654 9.909c-.962 0-1.69-.258-2.183-.775-.493-.528-.739-1.314-.739-2.358v-4.523h-1.725v-1.373h1.725v-2.341l1.778-.475v2.816h2.464v1.373h-2.464v4.365c0 .657.117 1.126.352 1.408.234.281.575.422 1.02.422.223 0 .417-.018.581-.053.176-.047.335-.1.475-.158v1.443c-.176.07-.381.123-.616.158a3.4 3.4 0 0 1-.668.071Zm11.033 0c-.775 0-1.461-.182-2.059-.546-.587-.364-1.045-.892-1.373-1.584-.317-.692-.475-1.513-.475-2.464 0-.962.158-1.783.475-2.464.328-.68.786-1.203 1.373-1.566.598-.376 1.284-.563 2.059-.563.762 0 1.431.193 2.006.58.587.376.974.892 1.162 1.549h-.211v-6.054h1.777v12.953h-1.76v-2.006h.211a2.824 2.824 0 0 1-1.161 1.584c-.575.387-1.25.581-2.024.581Zm.44-1.391c.762 0 1.378-.27 1.848-.809.469-.54.704-1.338.704-2.394s-.235-1.848-.704-2.376c-.47-.54-1.086-.809-1.848-.809-.775 0-1.396.269-1.866.809-.457.528-.686 1.32-.686 2.376 0 1.056.229 1.854.686 2.394.47.539 1.091.809 1.866.809Zm10.989 1.391c-1.432 0-2.558-.405-3.379-1.215-.822-.809-1.232-1.93-1.232-3.361 0-.927.176-1.737.528-2.429a3.947 3.947 0 0 1 1.496-1.602c.645-.387 1.39-.58 2.235-.58.833 0 1.531.176 2.094.528.563.352.992.85 1.285 1.496.293.633.44 1.384.44 2.252v.564h-6.688v-1.021h5.474l-.3.229c0-.88-.199-1.561-.598-2.042-.387-.493-.95-.739-1.69-.739-.821 0-1.455.287-1.9.862-.446.563-.669 1.344-.669 2.341v.176c0 1.044.252 1.83.757 2.358.516.528 1.243.792 2.182.792.516 0 .997-.07 1.443-.211a4.038 4.038 0 0 0 1.303-.739l.58 1.214c-.41.364-.909.646-1.496.845a6.07 6.07 0 0 1-1.865.282Zm10.199-.159v-12.953h1.778v12.953h-1.778Zm7.78.159c-.786 0-1.473-.182-2.06-.546-.586-.364-1.044-.892-1.372-1.584-.317-.692-.476-1.513-.476-2.464 0-.962.159-1.783.476-2.464.328-.68.786-1.203 1.372-1.566.587-.376 1.274-.563 2.06-.563.774 0 1.449.193 2.024.58.575.388.956.916 1.144 1.584h-.194l.176-2.006h1.725l-.106 1.091c-.023.352-.035.698-.035 1.039v6.74h-1.778v-1.971h.194a2.729 2.729 0 0 1-1.162 1.567c-.574.375-1.237.563-1.988.563Zm.44-1.391c.762 0 1.372-.27 1.83-.809.469-.54.704-1.338.704-2.394s-.235-1.848-.704-2.376c-.458-.54-1.068-.809-1.83-.809-.775 0-1.397.269-1.866.809-.458.528-.686 1.32-.686 2.376 0 1.056.228 1.854.686 2.394.458.539 1.08.809 1.866.809Zm14.185 1.232-3.802-8.87h1.901l2.992 7.41h-.51l3.044-7.41h1.813l-3.819 8.87h-1.619Zm6.848 0v-8.87h1.778v8.87h-1.778Zm-.141-10.718v-1.848h2.06v1.848h-2.06Zm8.625 10.877c-1.432 0-2.558-.405-3.379-1.215-.822-.809-1.232-1.93-1.232-3.361 0-.927.176-1.737.528-2.429a3.947 3.947 0 0 1 1.496-1.602c.645-.387 1.39-.58 2.235-.58.833 0 1.531.176 2.094.528.563.352.992.85 1.285 1.496.293.633.44 1.384.44 2.252v.564h-6.688v-1.021h5.474l-.3.229c0-.88-.199-1.561-.598-2.042-.387-.493-.95-.739-1.69-.739-.821 0-1.455.287-1.9.862-.446.563-.669 1.344-.669 2.341v.176c0 1.044.252 1.83.757 2.358.516.528 1.243.792 2.182.792.516 0 .997-.07 1.443-.211a4.038 4.038 0 0 0 1.303-.739l.58 1.214c-.41.364-.909.646-1.496.845a6.07 6.07 0 0 1-1.865.282ZM588.262 340.996v-12.408h5.262c1.326 0 2.341.323 3.045.968.716.634 1.073 1.514 1.073 2.64 0 1.126-.357 2.012-1.073 2.658-.704.645-1.719.968-3.045.968h-3.432v5.174h-1.83Zm1.83-6.635h3.238c.833 0 1.461-.188 1.884-.563.422-.376.633-.91.633-1.602 0-.68-.211-1.208-.633-1.584-.423-.375-1.051-.563-1.884-.563h-3.238v4.312Zm12.985 6.793c-.88 0-1.643-.181-2.288-.545a3.825 3.825 0 0 1-1.496-1.584c-.352-.692-.528-1.514-.528-2.464 0-.951.176-1.766.528-2.447.352-.692.85-1.22 1.496-1.584.645-.375 1.408-.563 2.288-.563.88 0 1.642.188 2.288.563a3.66 3.66 0 0 1 1.513 1.584c.364.681.546 1.496.546 2.447 0 .95-.182 1.772-.546 2.464a3.796 3.796 0 0 1-1.513 1.584c-.646.364-1.408.545-2.288.545Zm0-1.39c.774 0 1.39-.27 1.848-.81.457-.539.686-1.337.686-2.393 0-1.056-.229-1.848-.686-2.376-.458-.54-1.074-.81-1.848-.81-.763 0-1.373.27-1.831.81-.457.528-.686 1.32-.686 2.376 0 1.056.223 1.854.669 2.393.457.54 1.073.81 1.848.81Zm6.425 1.232v-12.954h1.777v12.954h-1.777Zm4.382 0v-8.87h1.778v8.87h-1.778Zm-.14-10.718v-1.848h2.059v1.848h-2.059Zm7.973 10.876c-.962 0-1.69-.258-2.183-.774-.492-.528-.739-1.314-.739-2.358v-4.524h-1.725v-1.372h1.725v-2.341l1.778-.475v2.816h2.464v1.372h-2.464v4.365c0 .657.117 1.127.352 1.408.235.282.575.423 1.021.423.223 0 .416-.018.58-.053.176-.047.335-.1.476-.159v1.444a2.79 2.79 0 0 1-.616.158c-.235.047-.458.07-.669.07Zm2.944-.158v-8.87h1.778v8.87h-1.778Zm-.141-10.718v-1.848h2.059v1.848h-2.059Zm10.877 14.52v-5.773h.194a2.724 2.724 0 0 1-1.162 1.566c-.575.376-1.237.563-1.988.563-.787 0-1.473-.181-2.06-.545-.586-.364-1.044-.892-1.372-1.584-.317-.692-.476-1.514-.476-2.464 0-.962.159-1.784.476-2.464.328-.681.786-1.203 1.372-1.567.587-.375 1.273-.563 2.06-.563.774 0 1.449.194 2.024.581.575.387.956.915 1.144 1.584h-.194l.176-2.006h1.725l-.106 1.091c-.023.352-.035.698-.035 1.038v10.543h-1.778Zm-2.516-5.034c.762 0 1.372-.27 1.83-.81.469-.539.704-1.337.704-2.393 0-1.056-.235-1.848-.704-2.376-.458-.54-1.068-.81-1.83-.81-.775 0-1.397.27-1.866.81-.458.528-.686 1.32-.686 2.376 0 1.056.228 1.854.686 2.393.458.54 1.079.81 1.866.81Zm10.038 1.39c-1.068 0-1.871-.287-2.411-.862-.528-.587-.792-1.484-.792-2.693v-5.473h1.778v5.438c0 .739.152 1.285.457 1.637.305.352.769.528 1.391.528.704 0 1.273-.235 1.707-.704.434-.469.651-1.091.651-1.866v-5.033h1.778v8.87h-1.725v-1.901h.229c-.247.657-.64 1.168-1.18 1.531-.539.352-1.167.528-1.883.528Zm11.263 0c-1.431 0-2.558-.404-3.379-1.214-.821-.81-1.232-1.93-1.232-3.362 0-.926.176-1.736.528-2.428a3.948 3.948 0 0 1 1.496-1.602c.645-.387 1.39-.581 2.235-.581.833 0 1.531.176 2.095.528.563.352.991.851 1.284 1.496.294.634.44 1.385.44 2.253v.563h-6.688v-1.021h5.474l-.299.229c0-.88-.2-1.56-.599-2.041-.387-.493-.95-.74-1.689-.74-.822 0-1.455.288-1.901.863-.446.563-.669 1.343-.669 2.341v.176c0 1.044.252 1.83.757 2.358.516.528 1.244.792 2.182.792.517 0 .998-.07 1.444-.211a4.063 4.063 0 0 0 1.302-.739l.581 1.214c-.411.364-.91.645-1.496.845a6.081 6.081 0 0 1-1.866.281Zm8.552 0c-.739 0-1.42-.093-2.042-.281-.622-.188-1.138-.452-1.548-.792l.545-1.215c.434.329.915.575 1.443.74a5.43 5.43 0 0 0 1.62.246c.645 0 1.132-.111 1.46-.334a1.11 1.11 0 0 0 .493-.951.94.94 0 0 0-.317-.739c-.199-.188-.534-.328-1.003-.422l-1.689-.335c-.751-.164-1.32-.446-1.708-.845-.387-.398-.58-.909-.58-1.531 0-.528.14-.997.422-1.408.293-.41.704-.733 1.232-.968.54-.234 1.167-.352 1.883-.352.657 0 1.267.094 1.831.282.563.188 1.032.457 1.408.809l-.564 1.18a3.99 3.99 0 0 0-1.232-.704 3.842 3.842 0 0 0-1.39-.264c-.657 0-1.144.123-1.461.369a1.168 1.168 0 0 0-.475.968c0 .305.094.558.282.757.199.188.51.334.932.44l1.69.334c.798.165 1.396.435 1.795.81.399.376.599.88.599 1.514 0 .551-.153 1.032-.458 1.443-.305.411-.728.721-1.267.933-.54.211-1.174.316-1.901.316Zm-71.234 21c-.774 0-1.461-.181-2.059-.545-.587-.364-1.044-.892-1.373-1.584-.317-.692-.475-1.514-.475-2.464 0-.962.158-1.784.475-2.464.329-.681.786-1.203 1.373-1.567.598-.375 1.285-.563 2.059-.563.763 0 1.431.194 2.006.581.587.376.974.892 1.162 1.549h-.211v-6.055h1.777v12.954h-1.76v-2.006h.212a2.837 2.837 0 0 1-1.162 1.584c-.575.387-1.25.58-2.024.58Zm.44-1.39c.763 0 1.379-.27 1.848-.81.469-.539.704-1.337.704-2.393 0-1.056-.235-1.848-.704-2.376-.469-.54-1.085-.81-1.848-.81-.774 0-1.396.27-1.866.81-.457.528-.686 1.32-.686 2.376 0 1.056.229 1.854.686 2.393.47.54 1.092.81 1.866.81Zm7.539-6.934-.774-.599c.34-.352.569-.68.686-.985.129-.317.194-.634.194-.951l.475.37h-1.478v-2.077h2.094v1.426c0 .528-.088 1.02-.264 1.478-.176.446-.487.892-.933 1.338Zm6.923 8.324c-.787 0-1.473-.181-2.06-.545-.586-.364-1.044-.892-1.372-1.584-.317-.692-.476-1.514-.476-2.464 0-.962.159-1.784.476-2.464.328-.681.786-1.203 1.372-1.567.587-.375 1.273-.563 2.06-.563.774 0 1.449.194 2.024.581.574.387.956.915 1.144 1.584h-.194l.176-2.006h1.725l-.106 1.091c-.023.352-.035.698-.035 1.038v6.741h-1.778v-1.971h.194a2.724 2.724 0 0 1-1.162 1.566c-.575.376-1.238.563-1.988.563Zm.44-1.39c.762 0 1.372-.27 1.83-.81.469-.539.704-1.337.704-2.393 0-1.056-.235-1.848-.704-2.376-.458-.54-1.068-.81-1.83-.81-.775 0-1.397.27-1.866.81-.458.528-.686 1.32-.686 2.376 0 1.056.228 1.854.686 2.393.458.54 1.079.81 1.866.81Zm6.888 1.232v-8.87h1.777v8.87h-1.777Zm-.141-10.718v-1.848h2.059v1.848h-2.059Zm7.92 10.876c-.774 0-1.46-.181-2.059-.545-.587-.364-1.044-.892-1.373-1.584-.316-.692-.475-1.514-.475-2.464 0-.962.159-1.784.475-2.464.329-.681.786-1.203 1.373-1.567.599-.375 1.285-.563 2.059-.563.763 0 1.432.194 2.007.581.586.376.974.892 1.161 1.549h-.211v-6.055h1.778v12.954h-1.76v-2.006h.211a2.837 2.837 0 0 1-1.162 1.584c-.575.387-1.249.58-2.024.58Zm.44-1.39c.763 0 1.379-.27 1.848-.81.47-.539.704-1.337.704-2.393 0-1.056-.234-1.848-.704-2.376-.469-.54-1.085-.81-1.848-.81-.774 0-1.396.27-1.865.81-.458.528-.687 1.32-.687 2.376 0 1.056.229 1.854.687 2.393.469.54 1.091.81 1.865.81Zm10.989 1.39c-1.431 0-2.558-.404-3.379-1.214-.821-.81-1.232-1.93-1.232-3.362 0-.926.176-1.736.528-2.428a3.954 3.954 0 0 1 1.496-1.602c.645-.387 1.391-.581 2.235-.581.833 0 1.532.176 2.095.528.563.352.991.851 1.285 1.496.293.634.44 1.385.44 2.253v.563h-6.688v-1.021h5.473l-.299.229c0-.88-.2-1.56-.598-2.041-.388-.493-.951-.74-1.69-.74-.821 0-1.455.288-1.901.863-.446.563-.669 1.343-.669 2.341v.176c0 1.044.253 1.83.757 2.358.516.528 1.244.792 2.183.792.516 0 .997-.07 1.443-.211a4.063 4.063 0 0 0 1.302-.739l.581 1.214a4.33 4.33 0 0 1-1.496.845 6.081 6.081 0 0 1-1.866.281Zm-41.79 21c-.739 0-1.42-.093-2.042-.281-.621-.188-1.138-.452-1.548-.792l.545-1.215c.434.329.915.575 1.443.74a5.43 5.43 0 0 0 1.62.246c.645 0 1.132-.111 1.46-.334a1.11 1.11 0 0 0 .493-.951.94.94 0 0 0-.317-.739c-.199-.188-.533-.328-1.003-.422l-1.689-.335c-.751-.164-1.32-.446-1.708-.845-.387-.398-.58-.909-.58-1.531 0-.528.14-.997.422-1.408.293-.41.704-.733 1.232-.968.54-.234 1.167-.352 1.883-.352.657 0 1.267.094 1.831.282.563.188 1.032.457 1.408.809l-.564 1.18a3.99 3.99 0 0 0-1.232-.704 3.842 3.842 0 0 0-1.39-.264c-.657 0-1.144.123-1.461.369a1.168 1.168 0 0 0-.475.968c0 .305.094.558.282.757.199.188.51.334.932.44l1.69.334c.798.165 1.396.435 1.795.81.399.376.599.88.599 1.514 0 .551-.153 1.032-.458 1.443-.305.411-.727.721-1.267.933-.54.211-1.174.316-1.901.316Zm9.522 0c-.88 0-1.642-.181-2.288-.545a3.83 3.83 0 0 1-1.496-1.584c-.352-.692-.528-1.514-.528-2.464 0-.951.176-1.766.528-2.447a3.692 3.692 0 0 1 1.496-1.584c.646-.375 1.408-.563 2.288-.563.88 0 1.643.188 2.288.563a3.663 3.663 0 0 1 1.514 1.584c.364.681.546 1.496.546 2.447 0 .95-.182 1.772-.546 2.464a3.798 3.798 0 0 1-1.514 1.584c-.645.364-1.408.545-2.288.545Zm0-1.39c.775 0 1.391-.27 1.848-.81.458-.539.687-1.337.687-2.393 0-1.056-.229-1.848-.687-2.376-.457-.54-1.073-.81-1.848-.81-.762 0-1.372.27-1.83.81-.458.528-.686 1.32-.686 2.376 0 1.056.223 1.854.668 2.393.458.54 1.074.81 1.848.81Zm10.315 1.39c-.892 0-1.672-.181-2.341-.545a3.88 3.88 0 0 1-1.531-1.602c-.352-.704-.528-1.537-.528-2.499 0-.95.182-1.766.546-2.446a3.673 3.673 0 0 1 1.531-1.549c.657-.364 1.431-.546 2.323-.546.575 0 1.132.1 1.672.299.54.188.986.458 1.338.81l-.581 1.25a3.173 3.173 0 0 0-1.109-.704 3.202 3.202 0 0 0-1.197-.247c-.845 0-1.508.27-1.989.81-.481.54-.721 1.32-.721 2.341 0 1.032.24 1.824.721 2.376.481.551 1.144.827 1.989.827.376 0 .769-.071 1.179-.211a3.236 3.236 0 0 0 1.127-.722l.581 1.25c-.364.352-.822.627-1.373.827a4.948 4.948 0 0 1-1.637.281Zm4.893-.158v-8.87h1.778v8.87h-1.778Zm-.141-10.718v-1.848h2.06v1.848h-2.06Zm7.921 10.876c-.786 0-1.473-.181-2.059-.545-.587-.364-1.045-.892-1.373-1.584-.317-.692-.475-1.514-.475-2.464 0-.962.158-1.784.475-2.464.328-.681.786-1.203 1.373-1.567.586-.375 1.273-.563 2.059-.563.774 0 1.449.194 2.024.581.575.387.956.915 1.144 1.584h-.194l.176-2.006h1.725l-.106 1.091c-.023.352-.035.698-.035 1.038v6.741h-1.777v-1.971h.193a2.726 2.726 0 0 1-1.161 1.566c-.575.376-1.238.563-1.989.563Zm.44-1.39c.762 0 1.373-.27 1.83-.81.47-.539.704-1.337.704-2.393 0-1.056-.234-1.848-.704-2.376-.457-.54-1.068-.81-1.83-.81-.775 0-1.396.27-1.866.81-.457.528-.686 1.32-.686 2.376 0 1.056.229 1.854.686 2.393.458.54 1.08.81 1.866.81Zm6.888 1.232v-12.954h1.778v12.954h-1.778Zm8.484.158c-1.432 0-2.558-.404-3.38-1.214-.821-.81-1.232-1.93-1.232-3.362 0-.926.176-1.736.528-2.428a3.954 3.954 0 0 1 1.496-1.602c.646-.387 1.391-.581 2.236-.581.833 0 1.531.176 2.094.528.563.352.991.851 1.285 1.496.293.634.44 1.385.44 2.253v.563h-6.688v-1.021h5.473l-.299.229c0-.88-.199-1.56-.598-2.041-.387-.493-.951-.74-1.69-.74-.821 0-1.455.288-1.901.863-.445.563-.668 1.343-.668 2.341v.176c0 1.044.252 1.83.756 2.358.517.528 1.244.792 2.183.792.516 0 .997-.07 1.443-.211a4.042 4.042 0 0 0 1.302-.739l.581 1.214a4.32 4.32 0 0 1-1.496.845 6.07 6.07 0 0 1-1.865.281ZM603.26 141.432c-.997 0-1.901-.123-2.71-.37a6.663 6.663 0 0 1-2.112-1.091l.616-1.443c.399.305.809.557 1.232.757.434.199.892.352 1.373.457a8.54 8.54 0 0 0 1.601.141c.986 0 1.707-.176 2.165-.528.469-.352.704-.815.704-1.39 0-.493-.164-.874-.493-1.144-.317-.27-.88-.487-1.689-.652l-1.919-.387c-1.138-.234-1.989-.616-2.552-1.144-.551-.539-.827-1.273-.827-2.2 0-.751.199-1.408.598-1.971.399-.563.951-.997 1.655-1.302.716-.305 1.549-.458 2.499-.458.88 0 1.69.129 2.429.387.739.247 1.361.616 1.865 1.109l-.598 1.39a5.239 5.239 0 0 0-1.69-1.003c-.598-.223-1.279-.334-2.041-.334-.904 0-1.614.188-2.13.563-.504.376-.757.886-.757 1.531 0 .517.159.921.476 1.215.328.293.868.516 1.619.668l1.918.37c1.185.246 2.059.628 2.623 1.144.563.505.844 1.203.844 2.094 0 .716-.193 1.344-.58 1.884-.376.539-.916.962-1.62 1.267-.704.293-1.537.44-2.499.44Zm10.189 0c-.963 0-1.69-.258-2.183-.775-.493-.528-.739-1.314-.739-2.358v-4.523h-1.725v-1.373h1.725v-2.341l1.778-.475v2.816h2.464v1.373h-2.464v4.365c0 .657.117 1.126.352 1.408.234.281.574.422 1.02.422.223 0 .417-.018.581-.053.176-.047.335-.099.475-.158v1.443c-.176.07-.381.123-.616.158a3.4 3.4 0 0 1-.668.071Zm2.944-.159v-8.87h1.777v8.87h-1.777Zm-.141-10.718v-1.848h2.059v1.848h-2.059Zm8.519 14.661a7.923 7.923 0 0 1-2.183-.282 5.562 5.562 0 0 1-1.742-.845l.44-1.302c.364.246.721.44 1.073.581.352.152.722.264 1.109.334.387.071.786.106 1.197.106.845 0 1.478-.217 1.901-.651.434-.423.651-1.039.651-1.848v-2.376h.176a2.724 2.724 0 0 1-1.162 1.566c-.574.376-1.243.563-2.006.563-.81 0-1.514-.176-2.112-.528a3.702 3.702 0 0 1-1.373-1.531c-.317-.669-.475-1.455-.475-2.358 0-.904.158-1.684.475-2.341.329-.657.786-1.162 1.373-1.514.598-.363 1.302-.545 2.112-.545.774 0 1.443.193 2.006.58a2.67 2.67 0 0 1 1.144 1.549l-.158-.141.158-1.83h1.725a16.834 16.834 0 0 0-.141 2.13v6.564c0 1.338-.357 2.359-1.073 3.063-.704.704-1.743 1.056-3.115 1.056Zm-.124-5.544c.775 0 1.391-.264 1.848-.792.47-.528.704-1.273.704-2.235s-.234-1.702-.704-2.218c-.457-.516-1.073-.774-1.848-.774-.797 0-1.431.258-1.9.774-.458.516-.687 1.256-.687 2.218s.229 1.707.687 2.235c.469.528 1.103.792 1.9.792Zm6.905 1.601v-6.74c0-.341-.018-.687-.053-1.039a33.615 33.615 0 0 0-.088-1.091h1.725l.158 1.866h-.211c.247-.646.622-1.144 1.127-1.496.516-.352 1.132-.528 1.848-.528.727 0 1.32.176 1.777.528.47.34.792.868.968 1.584h-.281a3.04 3.04 0 0 1 1.196-1.532c.564-.387 1.215-.58 1.954-.58.986 0 1.725.287 2.218.862.492.575.739 1.467.739 2.675v5.491h-1.778v-5.403c0-.774-.135-1.331-.405-1.672-.258-.352-.68-.528-1.267-.528-.68 0-1.22.235-1.619.704-.399.47-.598 1.103-.598 1.901v4.998h-1.778v-5.403c0-.774-.135-1.331-.405-1.672-.258-.352-.68-.528-1.267-.528-.68 0-1.214.235-1.602.704-.387.47-.58 1.103-.58 1.901v4.998h-1.778Zm19.02.159c-.786 0-1.472-.182-2.059-.546-.587-.363-1.044-.891-1.373-1.584-.317-.692-.475-1.513-.475-2.464 0-.962.158-1.783.475-2.464.329-.68.786-1.202 1.373-1.566.587-.376 1.273-.563 2.059-.563.775 0 1.449.193 2.024.58a2.75 2.75 0 0 1 1.144 1.584h-.193l.176-2.006h1.724l-.105 1.091c-.024.352-.035.698-.035 1.039v6.74h-1.778v-1.971h.194a2.729 2.729 0 0 1-1.162 1.567c-.575.375-1.238.563-1.989.563Zm.44-1.391c.763 0 1.373-.269 1.831-.809.469-.54.704-1.338.704-2.394s-.235-1.848-.704-2.376c-.458-.539-1.068-.809-1.831-.809-.774 0-1.396.27-1.865.809-.458.528-.687 1.32-.687 2.376 0 1.056.229 1.854.687 2.394.457.54 1.079.809 1.865.809Zm10.338 1.391c-.962 0-1.69-.258-2.182-.775-.493-.528-.74-1.314-.74-2.358v-4.523h-1.724v-1.373h1.724v-2.341l1.778-.475v2.816h2.464v1.373h-2.464v4.365c0 .657.117 1.126.352 1.408.235.281.575.422 1.021.422.223 0 .416-.018.581-.053a3.72 3.72 0 0 0 .475-.158v1.443c-.176.07-.381.123-.616.158a3.418 3.418 0 0 1-.669.071Zm2.944-.159v-8.87h1.778v8.87h-1.778Zm-.141-10.718v-1.848h2.06v1.848h-2.06Zm7.569 10.877c-.739 0-1.42-.094-2.042-.282-.622-.187-1.138-.451-1.549-.792l.546-1.214c.434.328.915.575 1.443.739a5.43 5.43 0 0 0 1.619.246c.646 0 1.133-.111 1.461-.334.329-.235.493-.551.493-.95a.945.945 0 0 0-.317-.74c-.199-.187-.534-.328-1.003-.422l-1.69-.334c-.75-.165-1.32-.446-1.707-.845-.387-.399-.581-.909-.581-1.531 0-.528.141-.998.423-1.408.293-.411.704-.734 1.232-.968.54-.235 1.167-.352 1.883-.352.657 0 1.267.094 1.83.281.564.188 1.033.458 1.408.81l-.563 1.179a3.99 3.99 0 0 0-1.232-.704 3.842 3.842 0 0 0-1.39-.264c-.657 0-1.144.123-1.461.37a1.167 1.167 0 0 0-.475.968c0 .305.094.557.281.756.2.188.511.335.933.44l1.69.335c.798.164 1.396.434 1.795.809.399.376.598.88.598 1.514 0 .552-.152 1.033-.457 1.443-.305.411-.728.722-1.267.933-.54.211-1.174.317-1.901.317Zm9.117 0c-.786 0-1.472-.182-2.059-.546-.586-.363-1.044-.891-1.373-1.584-.316-.692-.475-1.513-.475-2.464 0-.962.159-1.783.475-2.464.329-.68.787-1.202 1.373-1.566.587-.376 1.273-.563 2.059-.563.775 0 1.45.193 2.024.58a2.75 2.75 0 0 1 1.144 1.584h-.193l.176-2.006h1.725l-.106 1.091c-.023.352-.035.698-.035 1.039v6.74h-1.778v-1.971h.194a2.729 2.729 0 0 1-1.162 1.567c-.575.375-1.238.563-1.989.563Zm.44-1.391c.763 0 1.373-.269 1.831-.809.469-.54.704-1.338.704-2.394s-.235-1.848-.704-2.376c-.458-.539-1.068-.809-1.831-.809-.774 0-1.396.27-1.865.809-.458.528-.687 1.32-.687 2.376 0 1.056.229 1.854.687 2.394.457.54 1.079.809 1.865.809Zm10.338 1.391c-.962 0-1.689-.258-2.182-.775-.493-.528-.739-1.314-.739-2.358v-4.523h-1.725v-1.373h1.725v-2.341l1.777-.475v2.816h2.464v1.373h-2.464v4.365c0 .657.118 1.126.352 1.408.235.281.575.422 1.021.422.223 0 .417-.018.581-.053a3.72 3.72 0 0 0 .475-.158v1.443c-.176.07-.381.123-.616.158a3.418 3.418 0 0 1-.669.071Zm2.944-.159v-8.87h1.778v8.87h-1.778Zm-.14-10.718v-1.848h2.059v1.848h-2.059Zm8.325 10.877c-.88 0-1.643-.182-2.288-.546a3.819 3.819 0 0 1-1.496-1.584c-.352-.692-.528-1.513-.528-2.464 0-.95.176-1.766.528-2.446a3.692 3.692 0 0 1 1.496-1.584c.645-.376 1.408-.563 2.288-.563.88 0 1.643.187 2.288.563a3.66 3.66 0 0 1 1.513 1.584c.364.68.546 1.496.546 2.446 0 .951-.182 1.772-.546 2.464a3.784 3.784 0 0 1-1.513 1.584c-.645.364-1.408.546-2.288.546Zm0-1.391c.774 0 1.39-.269 1.848-.809.457-.54.686-1.338.686-2.394s-.229-1.848-.686-2.376c-.458-.539-1.074-.809-1.848-.809-.763 0-1.373.27-1.831.809-.457.528-.686 1.32-.686 2.376 0 1.056.223 1.854.669 2.394.457.54 1.073.809 1.848.809Zm6.425 1.232v-6.74c0-.341-.018-.687-.053-1.039a33.615 33.615 0 0 0-.088-1.091h1.725l.158 1.866h-.211c.27-.657.686-1.156 1.25-1.496.563-.352 1.214-.528 1.953-.528 1.044 0 1.831.287 2.359.862.539.575.809 1.467.809 2.675v5.491h-1.777v-5.385c0-.786-.159-1.349-.476-1.69-.305-.352-.774-.528-1.408-.528-.751 0-1.349.235-1.795.704-.446.458-.669 1.08-.669 1.866v5.033h-1.777Zm-106.157 21.159c-1.432 0-2.558-.405-3.379-1.215-.822-.809-1.232-1.93-1.232-3.361 0-.927.176-1.737.528-2.429a3.947 3.947 0 0 1 1.496-1.602c.645-.387 1.39-.58 2.235-.58.833 0 1.531.176 2.094.528.563.352.992.85 1.285 1.496.293.633.44 1.384.44 2.252v.564h-6.688v-1.021h5.474l-.3.229c0-.88-.199-1.561-.598-2.042-.387-.493-.95-.739-1.69-.739-.821 0-1.455.287-1.9.862-.446.563-.669 1.344-.669 2.341v.176c0 1.044.252 1.83.757 2.358.516.528 1.243.792 2.182.792.516 0 .997-.07 1.443-.211a4.038 4.038 0 0 0 1.303-.739l.58 1.214c-.41.364-.909.646-1.496.845a6.07 6.07 0 0 1-1.865.282Zm8.939 0c-.962 0-1.689-.258-2.182-.775-.493-.528-.739-1.314-.739-2.358v-4.523h-1.725v-1.373h1.725v-2.341l1.777-.475v2.816h2.464v1.373h-2.464v4.365c0 .657.118 1.126.352 1.408.235.281.575.422 1.021.422.223 0 .417-.018.581-.053a3.72 3.72 0 0 0 .475-.158v1.443c-.176.07-.381.123-.616.158a3.418 3.418 0 0 1-.669.071Zm7.637 3.643v-10.542c0-.341-.018-.687-.053-1.039a36.693 36.693 0 0 0-.088-1.091h1.725l.176 2.006h-.194a2.779 2.779 0 0 1 1.126-1.584c.575-.387 1.256-.58 2.042-.58.786 0 1.472.187 2.059.563.587.364 1.039.886 1.355 1.566.329.681.493 1.502.493 2.464 0 .951-.164 1.772-.493 2.464-.316.693-.768 1.221-1.355 1.584-.587.364-1.273.546-2.059.546-.774 0-1.449-.188-2.024-.563a2.771 2.771 0 0 1-1.126-1.567h.193v5.773h-1.777Zm4.294-5.034c.774 0 1.39-.269 1.848-.809.469-.54.704-1.338.704-2.394s-.235-1.848-.704-2.376c-.458-.539-1.074-.809-1.848-.809s-1.396.27-1.866.809c-.457.528-.686 1.32-.686 2.376 0 1.056.229 1.854.686 2.394.47.54 1.092.809 1.866.809Zm6.395 1.232v-6.67c0-.364-.011-.727-.035-1.091a17.363 17.363 0 0 0-.07-1.109h1.725l.193 2.288h-.281c.117-.551.316-1.009.598-1.373a2.62 2.62 0 0 1 1.021-.809c.41-.176.839-.264 1.285-.264.187 0 .346.011.475.035.129.012.258.035.387.07l-.018 1.584a1.783 1.783 0 0 0-.528-.141 3.34 3.34 0 0 0-.528-.035c-.516 0-.956.118-1.32.352a2.16 2.16 0 0 0-.827.915 2.826 2.826 0 0 0-.281 1.25v4.998h-1.796Zm10.65.159c-1.431 0-2.557-.405-3.379-1.215-.821-.809-1.232-1.93-1.232-3.361 0-.927.176-1.737.528-2.429a3.96 3.96 0 0 1 1.496-1.602c.646-.387 1.391-.58 2.235-.58.833 0 1.532.176 2.095.528.563.352.991.85 1.285 1.496.293.633.44 1.384.44 2.252v.564h-6.688v-1.021h5.473l-.299.229c0-.88-.199-1.561-.598-2.042-.388-.493-.951-.739-1.69-.739-.821 0-1.455.287-1.901.862-.446.563-.669 1.344-.669 2.341v.176c0 1.044.253 1.83.757 2.358.516.528 1.244.792 2.183.792.516 0 .997-.07 1.443-.211a4.034 4.034 0 0 0 1.302-.739l.581 1.214a4.313 4.313 0 0 1-1.496.845 6.081 6.081 0 0 1-1.866.282Zm-.968-9.891 1.813-3.556h1.813l-2.394 3.556h-1.232Zm5.437 13.622c-.188 0-.405-.018-.651-.053a2.524 2.524 0 0 1-.669-.176v-1.443c.153.047.323.088.51.123.176.047.347.071.511.071.457 0 .804-.147 1.038-.44.247-.282.37-.751.37-1.408v-9.434h1.777v9.557c0 1.056-.234 1.854-.704 2.393-.469.54-1.196.81-2.182.81Zm.95-14.608v-1.848h2.077v1.848h-2.077Zm7.622 10.877c-1.068 0-1.872-.288-2.412-.863-.528-.586-.792-1.484-.792-2.692v-5.474h1.778v5.438c0 .74.153 1.285.458 1.637.305.352.768.528 1.39.528.704 0 1.273-.234 1.707-.704.434-.469.651-1.091.651-1.865v-5.034h1.778v8.87h-1.725v-1.9h.229c-.246.657-.639 1.167-1.179 1.531-.54.352-1.168.528-1.883.528Zm11.157 3.784a7.916 7.916 0 0 1-2.182-.282 5.557 5.557 0 0 1-1.743-.845l.44-1.302c.364.246.722.44 1.074.581.352.152.721.264 1.109.334.387.071.786.106 1.196.106.845 0 1.479-.217 1.901-.651.434-.423.651-1.039.651-1.848v-2.376h.176a2.722 2.722 0 0 1-1.161 1.566c-.575.376-1.244.563-2.007.563-.809 0-1.513-.176-2.112-.528a3.7 3.7 0 0 1-1.372-1.531c-.317-.669-.476-1.455-.476-2.358 0-.904.159-1.684.476-2.341.328-.657.786-1.162 1.372-1.514.599-.363 1.303-.545 2.112-.545.775 0 1.444.193 2.007.58.575.376.956.892 1.144 1.549l-.159-.141.159-1.83h1.725a16.839 16.839 0 0 0-.141 2.13v6.564c0 1.338-.358 2.359-1.074 3.063-.704.704-1.742 1.056-3.115 1.056Zm-.123-5.544c.774 0 1.39-.264 1.848-.792.469-.528.704-1.273.704-2.235s-.235-1.702-.704-2.218c-.458-.516-1.074-.774-1.848-.774-.798 0-1.432.258-1.901.774-.458.516-.686 1.256-.686 2.218s.228 1.707.686 2.235c.469.528 1.103.792 1.901.792Zm11.005 1.76c-1.431 0-2.558-.405-3.379-1.215-.821-.809-1.232-1.93-1.232-3.361 0-.927.176-1.737.528-2.429a3.954 3.954 0 0 1 1.496-1.602c.645-.387 1.39-.58 2.235-.58.833 0 1.531.176 2.095.528.563.352.991.85 1.284 1.496.294.633.44 1.384.44 2.252v.564h-6.688v-1.021h5.474l-.299.229c0-.88-.2-1.561-.599-2.042-.387-.493-.95-.739-1.689-.739-.822 0-1.455.287-1.901.862-.446.563-.669 1.344-.669 2.341v.176c0 1.044.252 1.83.757 2.358.516.528 1.244.792 2.182.792.517 0 .998-.07 1.444-.211a4.044 4.044 0 0 0 1.302-.739l.581 1.214c-.411.364-.91.646-1.496.845a6.081 6.081 0 0 1-1.866.282Zm-.968-9.891 1.813-3.556h1.813l-2.394 3.556h-1.232Zm9.52 9.891c-.739 0-1.42-.094-2.042-.282-.622-.187-1.138-.451-1.548-.792l.545-1.214c.434.328.915.575 1.443.739a5.43 5.43 0 0 0 1.62.246c.645 0 1.132-.111 1.46-.334.329-.235.493-.551.493-.95a.941.941 0 0 0-.317-.74c-.199-.187-.534-.328-1.003-.422l-1.689-.334c-.751-.165-1.32-.446-1.708-.845-.387-.399-.58-.909-.58-1.531 0-.528.14-.998.422-1.408.293-.411.704-.734 1.232-.968.54-.235 1.167-.352 1.883-.352.657 0 1.267.094 1.831.281.563.188 1.032.458 1.408.81l-.564 1.179a3.99 3.99 0 0 0-1.232-.704 3.842 3.842 0 0 0-1.39-.264c-.657 0-1.144.123-1.461.37a1.167 1.167 0 0 0-.475.968c0 .305.094.557.282.756.199.188.51.335.932.44l1.69.335c.798.164 1.396.434 1.795.809.399.376.599.88.599 1.514 0 .552-.153 1.033-.458 1.443-.305.411-.728.722-1.267.933-.54.211-1.174.317-1.901.317ZM427.394 14.363V1.955h1.83v10.842h6.09v1.566h-7.92Zm9.552 0v-8.87h1.778v8.87h-1.778Zm-.14-10.718V1.797h2.059v1.848h-2.059Zm8.624 10.877c-1.431 0-2.558-.405-3.379-1.215-.821-.81-1.232-1.93-1.232-3.361 0-.927.176-1.737.528-2.43a3.948 3.948 0 0 1 1.496-1.6c.645-.388 1.39-.582 2.235-.582.833 0 1.531.176 2.094.528.564.352.992.851 1.285 1.496.294.634.44 1.385.44 2.253v.563h-6.688v-1.02h5.474l-.299.228c0-.88-.2-1.56-.599-2.041-.387-.493-.95-.74-1.689-.74-.822 0-1.455.288-1.901.863-.446.563-.669 1.344-.669 2.34v.177c0 1.044.252 1.83.757 2.358.516.528 1.244.792 2.182.792.517 0 .998-.07 1.443-.21a4.046 4.046 0 0 0 1.303-.74l.581 1.214c-.411.364-.91.646-1.496.845a6.09 6.09 0 0 1-1.866.282Zm8.657 0c-1.067 0-1.871-.288-2.411-.863-.528-.586-.792-1.484-.792-2.693V5.494h1.778v5.438c0 .74.152 1.285.457 1.637.306.352.769.528 1.391.528.704 0 1.273-.235 1.707-.704.434-.47.651-1.091.651-1.865V5.493h1.778v8.87h-1.725v-1.9h.229c-.247.657-.64 1.167-1.179 1.53-.54.353-1.168.529-1.884.529Zm15.252 0c-.775 0-1.461-.182-2.06-.546-.586-.364-1.044-.892-1.372-1.584-.317-.692-.476-1.513-.476-2.464 0-.962.159-1.783.476-2.464.328-.68.786-1.203 1.372-1.566.599-.376 1.285-.564 2.06-.564.762 0 1.431.194 2.006.581.587.376.974.892 1.162 1.55h-.212V1.41h1.778v12.953h-1.76v-2.006h.211a2.83 2.83 0 0 1-1.161 1.584c-.575.387-1.25.58-2.024.58Zm.44-1.39c.762 0 1.378-.27 1.848-.81.469-.54.704-1.338.704-2.394s-.235-1.848-.704-2.376c-.47-.54-1.086-.81-1.848-.81-.775 0-1.397.27-1.866.81-.458.528-.686 1.32-.686 2.376 0 1.056.228 1.854.686 2.394.469.54 1.091.81 1.866.81Zm10.989 1.39c-1.432 0-2.558-.405-3.38-1.215-.821-.81-1.232-1.93-1.232-3.361 0-.927.176-1.737.528-2.43a3.955 3.955 0 0 1 1.496-1.6c.646-.388 1.391-.582 2.236-.582.833 0 1.531.176 2.094.528.563.352.991.851 1.285 1.496.293.634.44 1.385.44 2.253v.563h-6.688v-1.02h5.473l-.299.228c0-.88-.199-1.56-.598-2.041-.387-.493-.951-.74-1.69-.74-.821 0-1.455.288-1.901.863-.446.563-.668 1.344-.668 2.34v.177c0 1.044.252 1.83.756 2.358.517.528 1.244.792 2.183.792.516 0 .997-.07 1.443-.21a4.032 4.032 0 0 0 1.302-.74l.581 1.214a4.326 4.326 0 0 1-1.496.845 6.084 6.084 0 0 1-1.865.282Zm10.164-.159v-6.67c0-.364-.012-.728-.036-1.091a16.667 16.667 0 0 0-.07-1.11h1.725l.193 2.289h-.281c.117-.552.317-1.01.598-1.373a2.616 2.616 0 0 1 1.021-.81 3.23 3.23 0 0 1 1.76-.228c.129.011.258.035.387.07l-.017 1.584c-.2-.082-.376-.129-.528-.14a3.299 3.299 0 0 0-.528-.036c-.517 0-.957.117-1.32.352-.364.223-.64.528-.828.915a2.836 2.836 0 0 0-.281 1.25v4.998h-1.795Zm10.65.159c-1.432 0-2.558-.405-3.38-1.215-.821-.81-1.232-1.93-1.232-3.361 0-.927.176-1.737.528-2.43a3.955 3.955 0 0 1 1.496-1.6c.646-.388 1.391-.582 2.236-.582.833 0 1.531.176 2.094.528.563.352.991.851 1.285 1.496.293.634.44 1.385.44 2.253v.563h-6.688v-1.02h5.473l-.299.228c0-.88-.199-1.56-.598-2.041-.387-.493-.951-.74-1.69-.74-.821 0-1.455.288-1.901.863-.445.563-.668 1.344-.668 2.34v.177c0 1.044.252 1.83.756 2.358.517.528 1.244.792 2.183.792.516 0 .997-.07 1.443-.21a4.032 4.032 0 0 0 1.302-.74l.581 1.214c-.41.364-.909.646-1.496.845a6.08 6.08 0 0 1-1.865.282Zm-.968-9.892 1.812-3.555h1.813l-2.393 3.555h-1.232Zm9.519 9.892a7.038 7.038 0 0 1-2.041-.282c-.622-.188-1.138-.452-1.549-.792l.546-1.214c.434.328.915.575 1.443.739a5.423 5.423 0 0 0 1.619.246c.645 0 1.132-.111 1.461-.334a1.11 1.11 0 0 0 .493-.95.942.942 0 0 0-.317-.74c-.2-.188-.534-.328-1.003-.422l-1.69-.335c-.751-.164-1.32-.445-1.707-.844-.387-.4-.581-.91-.581-1.532 0-.528.141-.997.422-1.408.294-.41.704-.733 1.232-.968.54-.234 1.168-.352 1.884-.352.657 0 1.267.094 1.83.282.563.188 1.033.458 1.408.81l-.563 1.179a4.017 4.017 0 0 0-1.232-.704 3.847 3.847 0 0 0-1.391-.264c-.657 0-1.144.123-1.46.37-.317.246-.476.569-.476.967 0 .306.094.558.282.757.199.188.51.335.933.44l1.689.335c.798.164 1.397.434 1.796.81.399.375.598.88.598 1.513 0 .551-.153 1.032-.458 1.443-.305.41-.727.722-1.267.933-.54.211-1.173.317-1.901.317Zm5.721-.159v-8.87h1.778v8.87h-1.778Zm-.141-10.718V1.797h2.06v1.848h-2.06Zm7.921 10.877c-.775 0-1.461-.182-2.059-.546-.587-.364-1.045-.892-1.373-1.584-.317-.692-.475-1.513-.475-2.464 0-.962.158-1.783.475-2.464.328-.68.786-1.203 1.373-1.566.598-.376 1.284-.564 2.059-.564.763 0 1.431.194 2.006.581.587.376.974.892 1.162 1.55h-.211V1.41h1.777v12.953h-1.76v-2.006h.211a2.825 2.825 0 0 1-1.161 1.584c-.575.387-1.25.58-2.024.58Zm.44-1.39c.763 0 1.379-.27 1.848-.81.469-.54.704-1.338.704-2.394s-.235-1.848-.704-2.376c-.469-.54-1.085-.81-1.848-.81-.775 0-1.396.27-1.866.81-.457.528-.686 1.32-.686 2.376 0 1.056.229 1.854.686 2.394.47.54 1.091.81 1.866.81Zm10.989 1.39c-1.432 0-2.558-.405-3.379-1.215-.822-.81-1.232-1.93-1.232-3.361 0-.927.176-1.737.528-2.43a3.941 3.941 0 0 1 1.496-1.6c.645-.388 1.39-.582 2.235-.582.833 0 1.531.176 2.094.528.563.352.992.851 1.285 1.496.293.634.44 1.385.44 2.253v.563h-6.688v-1.02h5.474l-.3.228c0-.88-.199-1.56-.598-2.041-.387-.493-.95-.74-1.69-.74-.821 0-1.454.288-1.9.863-.446.563-.669 1.344-.669 2.34v.177c0 1.044.252 1.83.757 2.358.516.528 1.243.792 2.182.792.516 0 .997-.07 1.443-.21a4.046 4.046 0 0 0 1.303-.74l.58 1.214c-.41.364-.909.646-1.496.845a6.08 6.08 0 0 1-1.865.282Zm5.507-.159v-6.74c0-.34-.018-.687-.053-1.039a33.4 33.4 0 0 0-.088-1.091h1.725l.158 1.865h-.211c.27-.657.686-1.155 1.25-1.496.563-.352 1.214-.528 1.953-.528 1.045 0 1.831.288 2.359.863.539.575.809 1.467.809 2.675v5.491h-1.777V8.978c0-.786-.159-1.35-.476-1.69-.305-.352-.774-.528-1.408-.528-.75 0-1.349.235-1.795.704-.446.458-.669 1.08-.669 1.866v5.033h-1.777Zm14.322.159c-.891 0-1.672-.182-2.341-.546a3.88 3.88 0 0 1-1.531-1.602c-.352-.704-.528-1.537-.528-2.499 0-.95.182-1.766.546-2.446a3.68 3.68 0 0 1 1.531-1.549c.657-.364 1.432-.546 2.323-.546.575 0 1.133.1 1.672.3.54.187.986.457 1.338.81l-.581 1.249a3.174 3.174 0 0 0-1.109-.704 3.208 3.208 0 0 0-1.197-.247c-.844 0-1.507.27-1.988.81-.481.54-.722 1.32-.722 2.34 0 1.033.241 1.825.722 2.377.481.551 1.144.827 1.988.827.376 0 .769-.07 1.18-.211.41-.153.786-.393 1.126-.722l.581 1.25c-.364.352-.821.628-1.373.827a4.952 4.952 0 0 1-1.637.282Zm8.822 0c-1.431 0-2.557-.405-3.379-1.215-.821-.81-1.232-1.93-1.232-3.361 0-.927.176-1.737.528-2.43a3.955 3.955 0 0 1 1.496-1.6c.646-.388 1.391-.582 2.235-.582.834 0 1.532.176 2.095.528.563.352.991.851 1.285 1.496.293.634.44 1.385.44 2.253v.563h-6.688v-1.02h5.473l-.299.228c0-.88-.199-1.56-.598-2.041-.388-.493-.951-.74-1.69-.74-.821 0-1.455.288-1.901.863-.446.563-.669 1.344-.669 2.34v.177c0 1.044.253 1.83.757 2.358.517.528 1.244.792 2.183.792.516 0 .997-.07 1.443-.21a4.042 4.042 0 0 0 1.302-.74l.581 1.214a4.326 4.326 0 0 1-1.496.845 6.086 6.086 0 0 1-1.866.282Z"/>
    <path stroke="var(--fl-fgColor, #222)" stroke-dasharray="17 17" stroke-width="3.4" d="m388.947 142.969-80.335 13.251-56.434 47.041-86.311 117.936 94.278 107.334h161.334l71.04-122.573 40.5-142.45-144.072-20.539Z"/>
  </svg>