<svg xmlns="http://www.w3.org/2000/svg" width="295" height="224" fill="none" viewBox="0 0 295 224">
    <g opacity=".5">
      <circle cx="143.06" cy="106.956" r="95.123" fill="var(--fl-bgColor, #9E9E9C)" stroke="var(--fl-fgColor, var(--fl-fgColor, #000))" stroke-dasharray="1.41 1.41" stroke-width=".707"/>
      <circle cx="143.183" cy="107.075" r="72.387" fill="var(--fl-bgColor, #D8D8D8)" stroke="var(--fl-fgColor, var(--fl-fgColor, #000))" stroke-dasharray="1.41 1.41" stroke-width=".707"/>
      <circle cx="143.182" cy="107.077" r="44.996" fill="var(--fl-bgColor, #FCFCFC)" stroke="var(--fl-fgColor, var(--fl-fgColor, #000))" stroke-dasharray="1.41 1.41" stroke-width=".707"/>
    </g>
    <path stroke="var(--fl-fgColor, #555)" stroke-dasharray="1.41 1.41" stroke-width=".707" d="M238.183 107.651H48.644M144.059 201.364V11.825M75.704 173.829 209.909 39.624M76.45 39.868l133.713 133.713"/>
    <path fill="var(--fl-bgColor, #E8B91C)" fill-opacity=".53" stroke="var(--fl-fgColor, #95760E)" stroke-width="1.414" d="m103.361 89.78-.113.093-.067.129L82.043 130.6l-3.65-46.911 45.577-10.712-20.609 16.803ZM125.527 145.044l.082.022.084.003 32.372 1.04-42.376 22.541-31.654-35.11 41.492 11.504Zm54.662-53.066-.036-.108-13.437-40.666-.258-.782-.734.374-33.098 16.86L175.56 27.13l27.968 54.905v50.682l-40.735 11.46 17.226-20.153.17-.198V91.978Z"/>
    <path fill="var(--fl-bgColor, #7BD383)" fill-opacity=".51" stroke="var(--fl-fgColor, #2A842D)" stroke-width="1.414" d="M180.19 91.33v33.027l-19.682 21.831-35.667-1.398-44.043-12.122 22.86-43.295 22.349-18.075 40.44-20.98 13.743 41.011Z"/>
    <circle cx="82.591" cy="132.053" r="4.243" fill="var(--fl-fgColor, #2A842D)"/>
    <circle cx="103.808" cy="89.619" r="4.243" fill="var(--fl-fgColor, #2A842D)"/>
    <circle cx="128.562" cy="70.526" r="4.243" fill="var(--fl-fgColor, #2A842D)"/>
    <circle cx="168.813" cy="48.957" r="3.89" fill="var(--fl-fgColor, #2A842D)"/>
    <circle cx="181.897" cy="92.451" r="4.243" fill="var(--fl-fgColor, #2A842D)"/>
    <circle cx="181.897" cy="124.276" r="4.243" fill="var(--fl-fgColor, #2A842D)"/>
    <circle cx="204.529" cy="132.76" r="3.536" fill="var(--fl-bgColor, #F6D872)" stroke="var(--fl-fgColor, #95760E)" stroke-width="1.414"/>
    <circle cx="204.529" cy="81.842" r="3.536" fill="var(--fl-bgColor, #F6D872)" stroke="var(--fl-fgColor, #95760E)" stroke-width="1.414"/>
    <circle cx="176.946" cy="26.678" r="3.536" fill="var(--fl-bgColor, #F6D872)" stroke="var(--fl-fgColor, #95760E)" stroke-width="1.414"/>
    <circle cx="79.054" cy="83.959" r="3.536" fill="var(--fl-bgColor, #F6D872)" stroke="var(--fl-fgColor, #95760E)" stroke-width="1.414"/>
    <circle cx="115.124" cy="168.83" r="3.536" fill="var(--fl-bgColor, #F6D872)" stroke="var(--fl-fgColor, #95760E)" stroke-width="1.414"/>
    <circle cx="162.094" cy="145.494" r="4.243" fill="var(--fl-fgColor, #2A842D)"/>
    <circle cx="125.025" cy="144.076" r="4.243" fill="var(--fl-fgColor, #2A842D)"/>
    <path fill="var(--fl-fgColor, #000)" d="M38.825 5.454c-.415 0-.79-.052-1.128-.154a2.773 2.773 0 0 1-.878-.454l.256-.6c.166.127.337.232.513.315.18.083.37.146.57.19.206.039.428.058.667.058.41 0 .71-.073.9-.22a.689.689 0 0 0 .293-.577c0-.205-.069-.364-.205-.476-.132-.112-.366-.203-.703-.271l-.798-.161c-.473-.098-.827-.256-1.061-.476-.23-.224-.344-.53-.344-.915 0-.312.083-.586.249-.82.166-.234.395-.415.688-.541.297-.127.644-.19 1.04-.19.365 0 .702.053 1.01.16.307.103.566.256.775.461l-.249.579c-.22-.19-.453-.33-.702-.418a2.42 2.42 0 0 0-.85-.139c-.375 0-.67.078-.885.235a.752.752 0 0 0-.315.636c0 .215.066.384.198.506.136.122.36.214.673.278l.798.153c.493.103.856.261 1.09.476.235.21.352.5.352.871 0 .298-.08.56-.242.784-.156.224-.38.4-.673.527-.293.122-.64.183-1.04.183Zm4.237 0c-.4 0-.703-.108-.908-.322-.205-.22-.307-.547-.307-.981V2.269h-.717V1.7h.717V.724l.74-.198v1.171h1.024v.571h-1.025v1.816c0 .273.05.468.147.585.097.117.239.176.424.176.093 0 .174-.007.242-.022.073-.02.139-.041.197-.066v.6c-.073.03-.158.052-.256.066-.097.02-.19.03-.278.03Zm2.637 0c-.327 0-.612-.076-.856-.227a1.516 1.516 0 0 1-.571-.66c-.132-.287-.198-.629-.198-1.024 0-.4.066-.742.198-1.025.137-.283.327-.5.57-.651.245-.156.53-.234.857-.234.322 0 .603.08.842.241.24.161.398.38.476.659h-.08l.073-.835h.717l-.044.454c-.01.147-.015.29-.015.432v2.804h-.739v-.82h.08c-.078.273-.239.49-.483.651-.239.156-.514.235-.827.235Zm.183-.579a.948.948 0 0 0 .762-.336c.195-.225.292-.557.292-.996 0-.44-.097-.769-.292-.988a.948.948 0 0 0-.762-.337c-.322 0-.58.112-.776.337-.19.22-.285.549-.285.988 0 .44.095.771.285.996.19.224.45.336.776.336Zm4.3.579c-.4 0-.703-.108-.908-.322-.205-.22-.307-.547-.307-.981V2.269h-.718V1.7h.718V.724l.74-.198v1.171h1.024v.571h-1.025v1.816c0 .273.049.468.146.585.098.117.24.176.425.176.093 0 .173-.007.242-.022.073-.02.139-.041.197-.066v.6c-.073.03-.158.052-.256.066-.098.02-.19.03-.278.03Zm2.535 0c-.444 0-.779-.12-1.003-.36-.22-.243-.33-.616-.33-1.12V1.699h.74V3.96c0 .308.063.535.19.681.127.146.32.22.578.22.293 0 .53-.098.71-.293.181-.195.271-.454.271-.776V1.698h.74v3.69h-.718v-.79h.095a1.29 1.29 0 0 1-.49.636c-.224.146-.486.22-.783.22Zm4.413 0c-.4 0-.703-.108-.908-.322-.204-.22-.307-.547-.307-.981V2.269h-.717V1.7h.717V.724l.74-.198v1.171h1.024v.571h-1.025v1.816c0 .273.05.468.147.585.097.117.239.176.424.176.093 0 .174-.007.242-.022.073-.02.139-.041.198-.066v.6c-.074.03-.159.052-.257.066-.097.02-.19.03-.278.03Zm4.589 0c-.322 0-.608-.076-.856-.227a1.515 1.515 0 0 1-.571-.66c-.132-.287-.198-.629-.198-1.024 0-.4.066-.742.198-1.025.136-.283.327-.5.57-.651.25-.156.535-.234.857-.234.317 0 .595.08.834.241.245.156.406.371.484.644h-.088V0h.74v5.388h-.733v-.835h.088a1.176 1.176 0 0 1-.483.659 1.47 1.47 0 0 1-.842.242Zm.183-.579a.97.97 0 0 0 .769-.336c.195-.225.292-.557.292-.996 0-.44-.097-.769-.292-.988a.97.97 0 0 0-.769-.337c-.322 0-.58.112-.776.337-.19.22-.285.549-.285.988 0 .44.095.771.285.996.195.224.454.336.776.336Zm3.136-2.884-.322-.249a1.28 1.28 0 0 0 .285-.41 1.04 1.04 0 0 0 .08-.395l.198.154h-.615V.227h.871V.82c0 .22-.036.425-.11.615-.072.185-.202.37-.387.556Zm1.466 3.397v-3.69h.74v3.69h-.74ZM66.445.93V.16h.857V.93h-.857Zm1.882 4.458V2.584c0-.141-.007-.285-.022-.432-.01-.151-.022-.302-.037-.454h.718l.066.776h-.088a1.3 1.3 0 0 1 .468-.622c.215-.146.471-.22.769-.22.302 0 .549.074.739.22.195.142.33.361.403.659h-.118c.098-.268.264-.48.498-.637.234-.16.505-.241.813-.241.41 0 .717.12.922.358.205.24.308.61.308 1.113v2.284h-.74V3.14c0-.322-.056-.553-.168-.695-.108-.146-.283-.22-.527-.22-.283 0-.508.098-.674.293-.165.195-.248.459-.248.79v2.08h-.74V3.14c0-.322-.056-.553-.168-.695-.108-.146-.283-.22-.527-.22-.283 0-.505.098-.666.293-.161.195-.242.459-.242.79v2.08h-.74Zm6.498 0V2.584a4.35 4.35 0 0 0-.022-.432c-.01-.151-.022-.302-.037-.454h.718l.065.776h-.087c.102-.268.258-.475.468-.622.215-.146.471-.22.769-.22.302 0 .549.074.739.22.195.142.33.361.403.659h-.118c.098-.268.264-.48.498-.637a1.4 1.4 0 0 1 .813-.241c.41 0 .717.12.922.358.205.24.307.61.307 1.113v2.284h-.739V3.14c0-.322-.056-.553-.168-.695-.108-.146-.283-.22-.527-.22-.283 0-.508.098-.674.293-.166.195-.249.459-.249.79v2.08h-.739V3.14c0-.322-.056-.553-.168-.695-.108-.146-.283-.22-.527-.22-.283 0-.505.098-.666.293-.161.195-.242.459-.242.79v2.08h-.74Zm6.498 0v-3.69h.739v3.69h-.74ZM81.264.93V.16h.857V.93h-.857Zm3.543 6.097c-.332 0-.634-.039-.907-.117a2.325 2.325 0 0 1-.725-.351l.183-.542c.151.103.3.183.446.242.147.063.3.11.462.139.16.03.326.044.497.044.352 0 .615-.09.79-.271.181-.176.272-.432.272-.769v-.988h.073c-.078.273-.24.49-.483.652-.24.156-.518.234-.835.234-.337 0-.63-.073-.878-.22a1.54 1.54 0 0 1-.571-.637 2.27 2.27 0 0 1-.198-.98c0-.376.066-.7.198-.974.136-.273.327-.483.57-.63.25-.15.543-.226.88-.226.321 0 .6.08.834.241.239.156.397.371.475.644l-.065-.058.066-.762h.717a7.107 7.107 0 0 0-.059.886v2.73c0 .557-.149.981-.446 1.274-.293.293-.725.44-1.296.44Zm-.051-2.305c.322 0 .578-.11.769-.33.195-.22.292-.53.292-.93s-.097-.707-.292-.922c-.19-.215-.447-.322-.77-.322-.33 0-.594.107-.79.322-.19.215-.285.522-.285.923 0 .4.095.71.285.93.195.219.46.329.79.329Zm2.857.666V2.613a7.09 7.09 0 0 0-.015-.453 7.126 7.126 0 0 0-.029-.462h.717l.08.952h-.116c.049-.23.132-.42.249-.57.117-.152.258-.264.424-.338a1.343 1.343 0 0 1 .732-.095.929.929 0 0 1 .161.03l-.007.658a.738.738 0 0 0-.22-.058 1.37 1.37 0 0 0-.22-.015.991.991 0 0 0-.548.146.895.895 0 0 0-.344.381 1.175 1.175 0 0 0-.117.52v2.079h-.747Zm4.15.066c-.326 0-.612-.076-.856-.227a1.515 1.515 0 0 1-.57-.66c-.132-.287-.198-.629-.198-1.024 0-.4.066-.742.198-1.025.136-.283.326-.5.57-.651.244-.156.53-.234.857-.234.322 0 .603.08.842.241.239.161.397.38.476.659H93l.073-.835h.718l-.044.454c-.01.147-.015.29-.015.432v2.804h-.74v-.82h.081c-.078.273-.239.49-.483.651-.24.156-.515.235-.827.235Zm.184-.579c.317 0 .57-.112.761-.336.195-.225.293-.557.293-.996 0-.44-.098-.769-.293-.988a.948.948 0 0 0-.761-.337c-.322 0-.58.112-.776.337-.19.22-.286.549-.286.988 0 .44.096.771.286.996.19.224.449.336.776.336Zm4.3.579c-.4 0-.703-.108-.908-.322-.205-.22-.308-.547-.308-.981V2.269h-.717V1.7h.717V.724l.74-.198v1.171h1.025v.571H95.77v1.816c0 .273.049.468.146.585.098.117.24.176.425.176.092 0 .173-.007.241-.022.073-.02.14-.041.198-.066v.6c-.073.03-.159.052-.256.066-.098.02-.19.03-.279.03Zm1.224-.066v-3.69h.74v3.69h-.74ZM97.412.93V.16h.857V.93h-.857Zm3.463 4.524c-.366 0-.683-.076-.952-.227a1.59 1.59 0 0 1-.622-.66c-.146-.287-.22-.629-.22-1.024s.074-.734.22-1.017c.147-.288.354-.508.622-.66a1.86 1.86 0 0 1 .952-.233c.366 0 .683.078.952.234.273.151.483.37.629.659.151.283.227.622.227 1.017 0 .395-.076.737-.227 1.025a1.575 1.575 0 0 1-.629.659 1.91 1.91 0 0 1-.952.227Zm0-.579c.322 0 .578-.112.769-.336.19-.225.285-.557.285-.996 0-.44-.095-.769-.285-.988-.191-.225-.447-.337-.769-.337-.317 0-.571.112-.761.337-.19.22-.286.549-.286.988 0 .44.093.771.278.996.191.224.447.336.769.336Zm2.672.513V2.584c0-.141-.007-.285-.022-.432-.01-.151-.022-.302-.036-.454h.717l.066.776h-.088c.112-.273.285-.48.52-.622a1.5 1.5 0 0 1 .812-.22c.435 0 .761.12.981.36.225.238.337.61.337 1.112v2.284h-.74v-2.24c0-.327-.065-.561-.197-.703-.127-.146-.322-.22-.586-.22-.312 0-.561.098-.746.293-.186.19-.279.45-.279.776v2.094h-.739ZM8.794 64.087v-5.16h.761v4.508h2.533v.652H8.794Zm5.386.066c-.328 0-.613-.076-.857-.227a1.516 1.516 0 0 1-.57-.659c-.133-.288-.199-.63-.199-1.025 0-.4.066-.741.198-1.024.137-.284.327-.5.571-.652.244-.156.53-.234.857-.234.322 0 .602.08.841.241.24.161.398.381.476.66h-.08l.073-.835h.717l-.044.453c-.01.147-.014.29-.014.432v2.804h-.74v-.82h.08c-.077.273-.238.49-.482.652-.24.156-.515.234-.827.234Zm.183-.579c.317 0 .57-.112.76-.336.196-.225.294-.556.294-.996 0-.439-.098-.768-.293-.988a.948.948 0 0 0-.761-.337c-.323 0-.581.113-.776.337-.19.22-.286.55-.286.988 0 .44.095.771.286.996.19.224.449.337.776.337Zm2.864.513v-2.804a4.35 4.35 0 0 0-.022-.431c-.01-.152-.022-.303-.036-.454h.717l.066.776h-.088c.112-.274.286-.481.52-.623a1.5 1.5 0 0 1 .812-.22c.435 0 .762.12.981.36.225.239.337.61.337 1.112v2.284h-.74v-2.24c0-.327-.065-.561-.197-.703-.127-.146-.322-.22-.586-.22-.312 0-.56.098-.746.294-.186.19-.278.448-.278.775v2.094h-.74Zm6.001 1.64c-.332 0-.634-.04-.908-.118a2.325 2.325 0 0 1-.724-.35l.183-.543c.151.103.3.183.446.242.147.063.3.11.461.14.161.028.327.043.498.043.351 0 .615-.09.79-.27.181-.176.272-.433.272-.77v-.988h.073c-.078.274-.24.49-.483.652a1.49 1.49 0 0 1-.835.234 1.7 1.7 0 0 1-.878-.22 1.54 1.54 0 0 1-.571-.636 2.27 2.27 0 0 1-.198-.981c0-.376.066-.7.198-.974.136-.273.327-.483.57-.63.25-.15.542-.226.88-.226.321 0 .6.08.834.241.239.157.397.371.475.645l-.065-.06.065-.76h.718a7.108 7.108 0 0 0-.059.885v2.73c0 .557-.149.982-.446 1.274-.293.293-.725.44-1.296.44Zm-.051-2.306c.322 0 .578-.11.768-.33.196-.22.293-.53.293-.93s-.097-.707-.293-.922c-.19-.214-.446-.322-.768-.322-.332 0-.596.108-.79.322-.191.215-.286.523-.286.923s.095.71.285.93c.195.219.459.329.79.329Zm4.182.732c-.444 0-.779-.12-1.003-.359-.22-.244-.33-.617-.33-1.12v-2.276h.74v2.261c0 .308.063.535.19.681.127.147.32.22.579.22.292 0 .529-.098.71-.293.18-.195.27-.454.27-.776v-2.093h.74v3.689h-.718v-.79h.096a1.29 1.29 0 0 1-.491.636c-.224.147-.485.22-.783.22Zm4.684 0c-.595 0-1.064-.169-1.405-.505-.342-.337-.513-.803-.513-1.398 0-.386.073-.723.22-1.01.151-.288.359-.51.622-.667.268-.16.578-.241.93-.241.346 0 .637.073.87.22.235.146.413.353.535.622.122.263.183.575.183.937v.234h-2.781v-.425h2.276l-.124.095c0-.366-.083-.649-.25-.849-.16-.205-.395-.307-.702-.307-.341 0-.605.12-.79.358-.186.235-.279.56-.279.974v.073c0 .435.105.761.315.981.215.22.517.33.908.33.215 0 .415-.03.6-.088.19-.064.37-.166.542-.308l.241.505c-.17.152-.378.269-.622.352a2.53 2.53 0 0 1-.776.117ZM0 145.196v-5.16h3.382v.607H.739v1.625h2.474v.615H.74v1.698h2.643v.615H0Zm1.537-5.6.864-1.266h.798l-1.12 1.266h-.542Zm3.741 5.6-1.581-3.689h.79l1.245 3.082H5.52l1.266-3.082h.754l-1.589 3.689h-.673Zm4.49.066c-.596 0-1.064-.168-1.406-.505-.342-.337-.512-.803-.512-1.398a2.2 2.2 0 0 1 .22-1.01 1.64 1.64 0 0 1 .621-.666c.269-.161.579-.242.93-.242.347 0 .637.073.871.22.234.146.412.354.534.622.123.263.184.576.184.937v.234H8.428v-.424h2.276l-.124.095c0-.366-.083-.649-.249-.849-.16-.205-.395-.308-.703-.308-.341 0-.605.12-.79.359-.186.234-.278.559-.278.973v.074c0 .434.105.761.314.98.215.22.518.33.908.33.215 0 .415-.029.6-.088.19-.063.371-.166.542-.307l.242.505c-.171.151-.379.268-.623.351a2.533 2.533 0 0 1-.776.117Zm-.403-4.114.754-1.478h.754l-.996 1.478h-.512Zm2.693 4.048v-2.803a4.31 4.31 0 0 0-.022-.432c-.01-.151-.022-.303-.037-.454h.718l.066.776h-.088c.112-.273.285-.481.52-.622.234-.147.505-.22.812-.22.434 0 .761.12.98.359.225.239.338.61.338 1.112v2.284h-.74v-2.24c0-.327-.066-.561-.197-.702-.127-.147-.322-.22-.586-.22-.312 0-.561.098-.747.293-.185.19-.278.449-.278.776v2.093h-.74Zm6.044.066c-.595 0-1.063-.168-1.405-.505-.341-.337-.512-.803-.512-1.398a2.2 2.2 0 0 1 .22-1.01 1.64 1.64 0 0 1 .621-.666c.269-.161.579-.242.93-.242.347 0 .637.073.871.22.234.146.413.354.535.622.122.263.183.576.183.937v.234h-2.782v-.424h2.276l-.124.095c0-.366-.083-.649-.249-.849-.16-.205-.395-.308-.703-.308-.341 0-.605.12-.79.359-.185.234-.278.559-.278.973v.074c0 .434.105.761.314.98.215.22.518.33.908.33.215 0 .415-.029.6-.088.19-.063.371-.166.542-.307l.242.505c-.171.151-.379.268-.623.351a2.534 2.534 0 0 1-.776.117Zm2.291-.066v-2.803a4.34 4.34 0 0 0-.022-.432c-.01-.151-.022-.303-.037-.454h.718l.066.776h-.088c.102-.268.258-.476.468-.622.215-.147.471-.22.769-.22.302 0 .549.073.74.22.194.141.329.361.402.659h-.117c.097-.269.263-.481.497-.637a1.4 1.4 0 0 1 .813-.242c.41 0 .717.12.922.359.205.239.308.61.308 1.112v2.284h-.74v-2.247c0-.322-.056-.554-.168-.695-.107-.147-.283-.22-.527-.22-.283 0-.507.098-.673.293-.166.195-.25.459-.25.79v2.079h-.739v-2.247c0-.322-.056-.554-.168-.695-.107-.147-.283-.22-.527-.22-.283 0-.505.098-.666.293-.161.195-.242.459-.242.79v2.079h-.739Zm8.203.066c-.595 0-1.063-.168-1.405-.505-.342-.337-.512-.803-.512-1.398a2.2 2.2 0 0 1 .22-1.01 1.64 1.64 0 0 1 .621-.666c.269-.161.579-.242.93-.242.347 0 .637.073.871.22.234.146.412.354.534.622.122.263.183.576.183.937v.234h-2.781v-.424h2.276l-.124.095c0-.366-.083-.649-.249-.849-.16-.205-.395-.308-.703-.308-.341 0-.605.12-.79.359-.186.234-.278.559-.278.973v.074c0 .434.105.761.314.98.215.22.518.33.908.33.215 0 .415-.029.6-.088.19-.063.371-.166.542-.307l.242.505c-.171.151-.379.268-.623.351a2.533 2.533 0 0 1-.776.117Zm2.29-.066v-2.803a4.31 4.31 0 0 0-.021-.432c-.01-.151-.022-.303-.037-.454h.718l.066.776h-.088c.112-.273.285-.481.52-.622.234-.147.505-.22.812-.22.434 0 .761.12.98.359.225.239.338.61.338 1.112v2.284h-.74v-2.24c0-.327-.066-.561-.197-.702-.127-.147-.323-.22-.586-.22-.312 0-.561.098-.747.293-.185.19-.278.449-.278.776v2.093h-.74Zm5.775.066c-.4 0-.703-.107-.908-.322-.205-.22-.307-.546-.307-.981v-1.881h-.718v-.571h.718v-.974l.739-.197v1.171h1.025v.571h-1.025v1.815c0 .274.049.469.146.586.098.117.24.176.425.176.093 0 .173-.008.241-.022.074-.02.14-.042.198-.066v.6a1.188 1.188 0 0 1-.256.066 1.46 1.46 0 0 1-.278.029Zm2.49 0c-.307 0-.59-.039-.849-.117a1.829 1.829 0 0 1-.644-.329l.227-.505c.18.136.38.239.6.307.22.068.444.102.674.102.268 0 .47-.046.607-.139a.46.46 0 0 0 .205-.395.39.39 0 0 0-.131-.307c-.083-.078-.222-.137-.418-.176l-.702-.139c-.313-.068-.55-.186-.71-.351a.878.878 0 0 1-.242-.637c0-.22.059-.415.176-.586.122-.171.293-.305.512-.402.225-.098.486-.147.783-.147.274 0 .527.039.762.117.234.078.43.191.585.337l-.234.49a1.674 1.674 0 0 0-.512-.292 1.582 1.582 0 0 0-.579-.11c-.273 0-.475.051-.607.154a.484.484 0 0 0-.198.402c0 .127.04.232.117.315.083.078.213.139.388.183l.703.139c.332.068.58.181.747.337.166.156.248.366.248.629 0 .23-.063.43-.19.6a1.16 1.16 0 0 1-.527.388 2.16 2.16 0 0 1-.79.132Zm-28.923 8.934v-3.689h.74v3.689h-.74Zm-.059-4.458v-.768h.857v.768h-.857Zm1.882 4.458v-2.803a4.34 4.34 0 0 0-.022-.432c-.01-.151-.022-.303-.037-.454h.717l.066.776h-.087c.102-.268.258-.476.468-.622.215-.147.471-.22.769-.22.302 0 .549.073.739.22.195.141.33.361.403.659h-.117c.097-.269.263-.481.497-.637a1.4 1.4 0 0 1 .813-.242c.41 0 .717.12.922.359.205.239.308.61.308 1.112v2.284h-.74v-2.247c0-.322-.056-.554-.168-.695-.108-.147-.283-.22-.527-.22-.283 0-.508.098-.674.293-.166.195-.248.459-.248.79v2.079h-.74v-2.247c0-.322-.056-.554-.168-.695-.108-.147-.283-.22-.527-.22-.283 0-.505.098-.666.293-.161.195-.242.459-.242.79v2.079h-.74Zm6.498 1.581v-4.384a4.34 4.34 0 0 0-.022-.432c-.01-.151-.022-.303-.037-.454h.718l.073.834h-.08c.077-.278.233-.497.468-.658.239-.161.522-.242.849-.242.327 0 .612.078.856.234.244.152.432.369.564.652.137.283.205.624.205 1.025 0 .395-.069.737-.205 1.024-.132.288-.32.508-.564.659-.244.152-.53.227-.856.227-.322 0-.603-.078-.842-.234a1.15 1.15 0 0 1-.468-.652h.08v2.401h-.74Zm1.786-2.093c.322 0 .578-.112.768-.337.195-.224.293-.556.293-.995 0-.44-.098-.769-.293-.989-.19-.224-.446-.336-.768-.336s-.581.112-.776.336c-.19.22-.286.549-.286.989 0 .439.096.771.286.995.195.225.454.337.776.337Zm2.66.512v-2.774c0-.151-.005-.303-.015-.454a7.046 7.046 0 0 0-.03-.461h.718l.08.952h-.117c.05-.23.132-.42.25-.571.116-.152.258-.264.424-.337a1.347 1.347 0 0 1 .732-.095.91.91 0 0 1 .161.029l-.007.659a.75.75 0 0 0-.22-.059 1.477 1.477 0 0 0-.22-.014.987.987 0 0 0-.549.146.898.898 0 0 0-.344.381 1.173 1.173 0 0 0-.117.519v2.079h-.746Zm4.43.066c-.596 0-1.065-.168-1.406-.505-.342-.337-.513-.803-.513-1.398a2.2 2.2 0 0 1 .22-1.01 1.64 1.64 0 0 1 .622-.666c.268-.161.578-.242.93-.242.346 0 .637.073.87.22.235.146.413.354.535.622.122.263.183.576.183.937v.234h-2.781v-.424h2.276l-.124.095c0-.366-.083-.649-.25-.849-.16-.205-.394-.308-.702-.308-.342 0-.605.12-.79.359-.186.234-.279.559-.279.973v.074c0 .434.105.761.315.98.215.22.517.33.908.33.215 0 .415-.029.6-.088.19-.063.37-.166.542-.307l.241.505c-.17.151-.378.268-.622.351a2.533 2.533 0 0 1-.776.117Zm-.404-4.114.755-1.478h.753l-.995 1.478h-.512Zm3.727 4.048-1.581-3.689h.79l1.245 3.082h-.213l1.267-3.082h.754l-1.589 3.689h-.673Zm4.158.066c-.444 0-.778-.119-1.002-.359-.22-.244-.33-.617-.33-1.119v-2.277h.74v2.262c0 .307.063.534.19.681.127.146.32.219.578.219.293 0 .53-.097.71-.293.18-.195.271-.453.271-.775v-2.094h.74v3.689h-.718v-.79h.095a1.296 1.296 0 0 1-.49.637 1.404 1.404 0 0 1-.784.219Zm4.246 0c-.308 0-.59-.039-.85-.117a1.829 1.829 0 0 1-.644-.329l.227-.505c.18.136.38.239.6.307.22.068.444.102.674.102.268 0 .47-.046.607-.139a.46.46 0 0 0 .205-.395.39.39 0 0 0-.131-.307c-.083-.078-.222-.137-.418-.176l-.702-.139c-.313-.068-.55-.186-.71-.351a.878.878 0 0 1-.242-.637c0-.22.059-.415.176-.586.122-.171.293-.305.512-.402.225-.098.486-.147.783-.147.274 0 .527.039.762.117.234.078.43.191.585.337l-.234.49a1.674 1.674 0 0 0-.512-.292 1.582 1.582 0 0 0-.579-.11c-.273 0-.475.051-.607.154a.484.484 0 0 0-.198.402c0 .127.04.232.117.315.083.078.213.139.388.183l.703.139c.332.068.58.181.747.337.166.156.248.366.248.629 0 .23-.063.43-.19.6a1.16 1.16 0 0 1-.527.388 2.16 2.16 0 0 1-.79.132ZM40.273 212.606v-5.16h.666l1.99 4.487h-.219l1.991-4.487h.66v5.16h-.689v-4.128h.242l-1.86 4.128h-.476l-1.859-4.128h.25v4.128h-.696Zm7.958.066c-.595 0-1.063-.168-1.405-.505-.342-.336-.512-.803-.512-1.398 0-.385.073-.722.22-1.01a1.64 1.64 0 0 1 .621-.666c.269-.161.579-.242.93-.242.346 0 .637.073.871.22.234.146.412.354.534.622.122.264.183.576.183.937v.234h-2.781v-.424h2.276l-.124.095c0-.366-.083-.649-.249-.849-.16-.205-.395-.308-.703-.308-.341 0-.605.12-.79.359-.186.234-.278.559-.278.974v.073c0 .434.105.761.314.981.215.219.518.329.908.329.215 0 .415-.029.6-.088.19-.063.371-.166.542-.307l.242.505c-.171.151-.379.268-.623.351a2.533 2.533 0 0 1-.776.117Zm3.557 0a2.93 2.93 0 0 1-.849-.117 1.83 1.83 0 0 1-.644-.329l.227-.505c.18.136.38.239.6.307.22.068.444.103.673.103.269 0 .471-.047.608-.139a.463.463 0 0 0 .205-.396.39.39 0 0 0-.132-.307c-.083-.078-.222-.137-.417-.176l-.703-.139c-.312-.068-.549-.185-.71-.351a.877.877 0 0 1-.241-.637c0-.22.058-.415.175-.586.122-.171.293-.305.513-.402.224-.098.485-.147.783-.147.273 0 .527.039.761.117.235.078.43.191.586.337l-.234.491a1.659 1.659 0 0 0-.513-.293 1.604 1.604 0 0 0-.578-.11c-.273 0-.476.051-.608.154a.484.484 0 0 0-.197.402c0 .127.039.232.117.315.083.078.212.139.388.183l.703.139c.331.068.58.181.746.337.166.156.25.366.25.629a.98.98 0 0 1-.191.601c-.127.17-.303.3-.527.388a2.182 2.182 0 0 1-.79.131Zm3.69 0c-.444 0-.779-.119-1.003-.358-.22-.244-.33-.618-.33-1.12v-2.277h.74v2.262c0 .307.063.534.19.681.127.146.32.219.578.219.293 0 .53-.097.71-.292.181-.196.271-.454.271-.776v-2.094h.74v3.689h-.718v-.79h.096a1.294 1.294 0 0 1-.49.637 1.404 1.404 0 0 1-.784.219Zm2.964-.066v-2.774a7.12 7.12 0 0 0-.015-.454 7.116 7.116 0 0 0-.029-.461h.717l.081.952h-.117c.049-.23.132-.42.249-.571.117-.151.258-.264.424-.337a1.346 1.346 0 0 1 .732-.095c.054.005.108.015.161.029l-.007.659a.75.75 0 0 0-.22-.059 1.477 1.477 0 0 0-.22-.014.996.996 0 0 0-.548.146.897.897 0 0 0-.344.381 1.175 1.175 0 0 0-.117.52v2.078h-.747Zm4.43.066c-.596 0-1.064-.168-1.406-.505-.342-.336-.512-.803-.512-1.398 0-.385.073-.722.22-1.01a1.64 1.64 0 0 1 .621-.666c.269-.161.579-.242.93-.242.346 0 .637.073.871.22.234.146.413.354.535.622.121.264.183.576.183.937v.234h-2.782v-.424h2.276l-.124.095c0-.366-.083-.649-.249-.849-.16-.205-.395-.308-.703-.308-.341 0-.605.12-.79.359-.186.234-.278.559-.278.974v.073c0 .434.105.761.314.981.215.219.518.329.908.329.215 0 .415-.029.6-.088.19-.063.371-.166.542-.307l.242.505c-.171.151-.379.268-.623.351a2.533 2.533 0 0 1-.776.117Zm3.556 0a2.93 2.93 0 0 1-.849-.117 1.83 1.83 0 0 1-.644-.329l.227-.505c.18.136.38.239.6.307.22.068.444.103.674.103.268 0 .47-.047.607-.139a.463.463 0 0 0 .205-.396.39.39 0 0 0-.132-.307c-.083-.078-.222-.137-.417-.176l-.703-.139c-.312-.068-.549-.185-.71-.351a.877.877 0 0 1-.241-.637c0-.22.058-.415.175-.586.122-.171.293-.305.513-.402.224-.098.485-.147.783-.147.273 0 .527.039.761.117.235.078.43.191.586.337l-.234.491a1.659 1.659 0 0 0-.513-.293 1.604 1.604 0 0 0-.578-.11c-.273 0-.476.051-.608.154a.484.484 0 0 0-.197.402c0 .127.039.232.117.315.083.078.212.139.388.183l.703.139c.331.068.58.181.746.337.166.156.25.366.25.629a.98.98 0 0 1-.191.601c-.127.17-.303.3-.527.388a2.182 2.182 0 0 1-.79.131Zm5.744 0a1.61 1.61 0 0 1-.857-.227 1.511 1.511 0 0 1-.57-.658c-.132-.288-.198-.63-.198-1.025 0-.4.066-.742.198-1.025a1.52 1.52 0 0 1 1.427-.886c.317 0 .595.081.834.242.244.156.405.371.484.644h-.088v-2.518h.739v5.387h-.732v-.834h.088a1.177 1.177 0 0 1-.483.659c-.24.161-.52.241-.842.241Zm.183-.578a.968.968 0 0 0 .769-.337c.195-.224.292-.556.292-.995 0-.439-.097-.769-.292-.988a.968.968 0 0 0-.77-.337c-.321 0-.58.112-.775.337-.19.219-.285.549-.285.988 0 .439.095.771.285.995.195.225.454.337.776.337Zm3.136-2.884-.323-.249c.142-.146.237-.283.286-.41a1.04 1.04 0 0 0 .08-.395l.198.154h-.615v-.864h.871v.593c0 .219-.036.424-.11.615a1.674 1.674 0 0 1-.387.556Zm2.879 3.462c-.327 0-.613-.075-.857-.227a1.511 1.511 0 0 1-.57-.658c-.133-.288-.198-.63-.198-1.025 0-.4.065-.742.197-1.025a1.52 1.52 0 0 1 1.428-.886c.322 0 .602.081.841.242.24.161.398.38.476.659h-.08l.073-.835h.717l-.044.454a6.45 6.45 0 0 0-.014.432v2.803h-.74v-.819h.08c-.077.273-.238.49-.482.651a1.48 1.48 0 0 1-.827.234Zm.183-.578c.317 0 .57-.112.76-.337.196-.224.294-.556.294-.995 0-.439-.098-.769-.293-.988-.19-.225-.444-.337-.761-.337-.322 0-.581.112-.776.337-.19.219-.286.549-.286.988 0 .439.095.771.286.995.19.225.449.337.776.337Zm4.277.578a1.61 1.61 0 0 1-.856-.227 1.511 1.511 0 0 1-.571-.658c-.132-.288-.198-.63-.198-1.025 0-.4.066-.742.198-1.025a1.52 1.52 0 0 1 1.427-.886c.317 0 .596.081.835.242.244.156.405.371.483.644h-.088v-2.518h.74v5.387h-.733v-.834h.088a1.177 1.177 0 0 1-.483.659 1.47 1.47 0 0 1-.842.241Zm.183-.578a.968.968 0 0 0 .769-.337c.195-.224.293-.556.293-.995 0-.439-.098-.769-.293-.988a.968.968 0 0 0-.769-.337c-.322 0-.58.112-.776.337-.19.219-.285.549-.285.988 0 .439.095.771.285.995.196.225.454.337.776.337Zm4.278.578c-.327 0-.613-.075-.857-.227a1.511 1.511 0 0 1-.57-.658c-.132-.288-.198-.63-.198-1.025 0-.4.066-.742.197-1.025a1.52 1.52 0 0 1 1.428-.886c.322 0 .603.081.842.242.239.161.397.38.475.659h-.08l.073-.835h.717l-.043.454c-.01.146-.015.29-.015.432v2.803h-.74v-.819h.081c-.078.273-.239.49-.483.651a1.48 1.48 0 0 1-.827.234Zm.183-.578c.317 0 .57-.112.761-.337.195-.224.293-.556.293-.995 0-.439-.098-.769-.293-.988-.19-.225-.444-.337-.761-.337-.322 0-.58.112-.776.337-.19.219-.286.549-.286.988 0 .439.096.771.286.995.19.225.449.337.776.337Zm2.865 2.094v-4.385a4.34 4.34 0 0 0-.022-.432c-.01-.151-.022-.303-.037-.454h.718l.073.835h-.08a1.15 1.15 0 0 1 .468-.659c.239-.161.522-.242.849-.242.327 0 .612.078.856.235.244.151.432.368.564.651.137.283.205.625.205 1.025 0 .395-.069.737-.205 1.025-.132.288-.32.507-.564.658-.244.152-.53.227-.856.227-.322 0-.603-.078-.842-.234a1.152 1.152 0 0 1-.468-.651h.08v2.401h-.74Zm1.786-2.094c.322 0 .578-.112.768-.337.195-.224.293-.556.293-.995 0-.439-.098-.769-.293-.988-.19-.225-.446-.337-.768-.337s-.581.112-.776.337c-.19.219-.286.549-.286.988 0 .439.096.771.286.995.195.225.454.337.776.337Zm4.073.578c-.4 0-.702-.107-.907-.322-.205-.219-.308-.546-.308-.981v-1.881h-.717v-.571h.717v-.973l.74-.198v1.171h1.024v.571h-1.025v1.815c0 .274.05.469.147.586.097.117.239.176.424.176.093 0 .174-.008.242-.022.073-.02.14-.042.198-.066v.6a1.188 1.188 0 0 1-.257.066c-.097.02-.19.029-.278.029Zm2.638 0c-.327 0-.613-.075-.857-.227a1.512 1.512 0 0 1-.57-.658c-.133-.288-.199-.63-.199-1.025 0-.4.066-.742.198-1.025a1.52 1.52 0 0 1 1.427-.886c.323 0 .603.081.842.242.24.161.398.38.476.659h-.08l.073-.835h.717l-.044.454c-.01.146-.014.29-.014.432v2.803h-.74v-.819h.081c-.078.273-.24.49-.483.651a1.48 1.48 0 0 1-.828.234Zm.183-.578c.317 0 .57-.112.76-.337.196-.224.294-.556.294-.995 0-.439-.098-.769-.293-.988-.19-.225-.444-.337-.761-.337-.323 0-.581.112-.776.337-.19.219-.286.549-.286.988 0 .439.095.771.286.995.19.225.449.337.776.337Zm4.299.578c-.4 0-.703-.107-.908-.322-.205-.219-.307-.546-.307-.981v-1.881h-.717v-.571h.717v-.973l.739-.198v1.171h1.025v.571h-1.025v1.815c0 .274.049.469.147.586.097.117.239.176.424.176.093 0 .174-.008.242-.022a1.68 1.68 0 0 0 .197-.066v.6a1.176 1.176 0 0 1-.256.066c-.097.02-.19.029-.278.029Zm1.225-.066v-3.689h.739v3.689h-.739Zm-.059-4.457v-.769h.856v.769h-.856Zm3.463 4.523c-.366 0-.684-.075-.952-.227a1.587 1.587 0 0 1-.622-.658c-.147-.288-.22-.63-.22-1.025 0-.395.073-.735.22-1.018a1.53 1.53 0 0 1 .622-.658c.268-.157.586-.235.952-.235s.683.078.951.235c.273.151.483.37.63.658.151.283.227.623.227 1.018s-.076.737-.227 1.025a1.58 1.58 0 0 1-.63.658 1.896 1.896 0 0 1-.951.227Zm0-.578c.322 0 .578-.112.768-.337.191-.224.286-.556.286-.995 0-.439-.095-.769-.286-.988-.19-.225-.446-.337-.768-.337-.318 0-.571.112-.762.337-.19.219-.285.549-.285.988 0 .439.093.771.278.995.19.225.447.337.769.337Zm2.672.512v-2.803c0-.142-.008-.286-.022-.432a13.88 13.88 0 0 0-.037-.454h.718l.065.776h-.087a1.26 1.26 0 0 1 .519-.622c.235-.147.505-.22.813-.22.434 0 .761.12.981.359.224.239.336.61.336 1.113v2.283h-.739v-2.239c0-.327-.066-.562-.197-.703-.127-.147-.323-.22-.586-.22-.312 0-.561.098-.747.293-.185.19-.278.449-.278.776v2.093h-.739Zm-27.096 9.066c-.595 0-1.063-.168-1.405-.505-.342-.336-.512-.803-.512-1.398 0-.385.073-.722.22-1.01a1.64 1.64 0 0 1 .621-.666c.269-.161.578-.242.93-.242.346 0 .637.073.871.22.234.146.412.354.534.622.122.264.183.576.183.937v.234h-2.781v-.424h2.276l-.124.095c0-.366-.083-.649-.25-.849-.16-.205-.394-.308-.702-.308-.341 0-.605.12-.79.359-.186.234-.278.559-.278.974v.073c0 .434.104.761.314.981.215.219.517.329.908.329.215 0 .415-.029.6-.088.19-.063.371-.166.542-.307l.241.505c-.17.151-.378.268-.622.351a2.533 2.533 0 0 1-.776.117Zm2.29-.066v-2.803a4.31 4.31 0 0 0-.021-.432c-.01-.151-.022-.303-.037-.454h.718l.065.776h-.087c.112-.273.285-.481.52-.622.233-.147.504-.22.812-.22.434 0 .761.12.98.359.225.239.337.61.337 1.113v2.283h-.739v-2.239c0-.327-.066-.562-.198-.703-.126-.147-.322-.22-.585-.22-.313 0-.561.098-.747.293-.185.19-.278.449-.278.776v2.093h-.74Zm7.997.066c-.596 0-1.064-.168-1.406-.505-.341-.336-.512-.803-.512-1.398 0-.385.073-.722.22-1.01a1.64 1.64 0 0 1 .622-.666c.268-.161.578-.242.93-.242.346 0 .636.073.87.22.235.146.413.354.535.622.122.264.183.576.183.937v.234H92.47v-.424h2.277l-.125.095c0-.366-.082-.649-.248-.849-.161-.205-.396-.308-.703-.308-.342 0-.605.12-.79.359-.186.234-.279.559-.279.974v.073c0 .434.105.761.315.981.215.219.517.329.907.329.215 0 .415-.029.6-.088.191-.063.372-.166.542-.307l.242.505c-.17.151-.378.268-.622.351a2.533 2.533 0 0 1-.776.117Zm2.29-.066v-2.803a4.31 4.31 0 0 0-.022-.432c-.01-.151-.022-.303-.036-.454h.717l.066.776h-.088c.103-.268.259-.476.469-.622.214-.147.47-.22.768-.22.303 0 .55.073.74.22.195.141.329.361.402.659H99c.098-.269.264-.481.498-.637a1.4 1.4 0 0 1 .812-.242c.41 0 .718.12.923.359.205.239.307.61.307 1.113v2.283h-.739v-2.247c0-.322-.056-.554-.169-.695-.107-.147-.283-.22-.527-.22-.283 0-.507.098-.673.293-.166.195-.249.459-.249.791v2.078h-.74v-2.247c0-.322-.055-.554-.168-.695-.107-.147-.283-.22-.527-.22-.283 0-.505.098-.666.293-.16.195-.241.459-.241.791v2.078h-.74Zm6.498 1.582v-4.385c0-.142-.007-.286-.022-.432a13.872 13.872 0 0 0-.036-.454h.717l.073.835h-.08a1.15 1.15 0 0 1 .468-.659c.239-.161.522-.242.849-.242.327 0 .613.078.857.235.244.151.432.368.563.651.137.283.205.625.205 1.025 0 .395-.068.737-.205 1.025a1.46 1.46 0 0 1-.563.658c-.244.152-.53.227-.857.227-.322 0-.602-.078-.841-.234a1.149 1.149 0 0 1-.469-.651h.081v2.401h-.74Zm1.786-2.094c.322 0 .579-.112.769-.337.195-.224.293-.556.293-.995 0-.439-.098-.769-.293-.988-.19-.225-.447-.337-.769-.337s-.58.112-.776.337c-.19.219-.285.549-.285.988 0 .439.095.771.285.995.196.225.454.337.776.337Zm2.675.512v-5.387h.739v5.387h-.739Zm3.404.066c-.366 0-.683-.075-.952-.227a1.587 1.587 0 0 1-.622-.658c-.146-.288-.22-.63-.22-1.025 0-.395.074-.735.22-1.018a1.53 1.53 0 0 1 .622-.658c.269-.157.586-.235.952-.235s.683.078.951.235c.274.151.484.37.63.658.151.283.227.623.227 1.018s-.076.737-.227 1.025a1.568 1.568 0 0 1-.63.658 1.896 1.896 0 0 1-.951.227Zm0-.578c.322 0 .578-.112.768-.337.191-.224.286-.556.286-.995 0-.439-.095-.769-.286-.988-.19-.225-.446-.337-.768-.337-.317 0-.571.112-.761.337-.191.219-.286.549-.286.988 0 .439.093.771.278.995.191.225.447.337.769.337Zm2.672.512v-3.689h.739v3.689h-.739Zm-.059-4.457v-.769h.857v.769h-.857ZM176.338 217.625c-.527 0-.976-.107-1.347-.322a2.149 2.149 0 0 1-.857-.915c-.195-.4-.292-.871-.292-1.412 0-.542.097-1.011.292-1.406.2-.395.486-.7.857-.915.371-.215.82-.322 1.347-.322.366 0 .693.054.981.161.287.107.539.264.754.469l-.264.607a2.464 2.464 0 0 0-.688-.432 2.061 2.061 0 0 0-.769-.131c-.556 0-.981.17-1.273.512-.293.342-.44.827-.44 1.457 0 .629.147 1.117.44 1.464.292.341.717.512 1.273.512.293 0 .549-.044.769-.132.224-.088.454-.234.688-.439l.264.608a2.283 2.283 0 0 1-.754.475 2.78 2.78 0 0 1-.981.161Zm3.948 0c-.366 0-.683-.075-.951-.226a1.597 1.597 0 0 1-.623-.659c-.146-.288-.219-.63-.219-1.025 0-.395.073-.735.219-1.018.147-.287.354-.507.623-.658.268-.157.585-.235.951-.235s.683.078.952.235c.273.151.483.371.629.658.152.283.227.623.227 1.018s-.075.737-.227 1.025a1.58 1.58 0 0 1-.629.659 1.913 1.913 0 0 1-.952.226Zm0-.578c.322 0 .578-.112.769-.337.19-.224.285-.556.285-.995 0-.439-.095-.769-.285-.988-.191-.225-.447-.337-.769-.337-.317 0-.571.112-.761.337-.19.219-.286.549-.286.988 0 .439.093.771.279.995.19.225.446.337.768.337Zm3.983.578c-.444 0-.779-.119-1.003-.358-.22-.244-.33-.618-.33-1.12v-2.277h.74v2.262c0 .308.063.535.19.681.127.146.32.22.578.22.293 0 .53-.098.71-.293.181-.195.271-.454.271-.776v-2.094h.74v3.69h-.718v-.791h.095a1.29 1.29 0 0 1-.49.637 1.406 1.406 0 0 1-.783.219Zm-.849-4.121.805-1.478h.673l.805 1.478h-.49l-.652-1.025-.651 1.025h-.49Zm5.262 4.121c-.4 0-.703-.107-.908-.322-.204-.219-.307-.546-.307-.981v-1.881h-.717v-.571h.717v-.973l.739-.198v1.171h1.025v.571h-1.025v1.816c0 .273.049.468.147.585.097.117.239.176.424.176.093 0 .174-.007.242-.022.073-.02.139-.042.198-.066v.6c-.074.03-.159.052-.257.066-.097.02-.19.029-.278.029Zm4.589 0c-.322 0-.608-.075-.856-.226a1.516 1.516 0 0 1-.571-.659c-.132-.288-.198-.63-.198-1.025 0-.4.066-.742.198-1.025.136-.283.327-.5.571-.651.248-.157.534-.235.856-.235.317 0 .595.081.834.242.244.156.405.371.484.644h-.088v-2.518h.739v5.388h-.732v-.835h.088a1.178 1.178 0 0 1-.483.659c-.239.161-.52.241-.842.241Zm.183-.578a.97.97 0 0 0 .769-.337c.195-.224.292-.556.292-.995 0-.439-.097-.769-.292-.988a.97.97 0 0 0-.769-.337c-.322 0-.581.112-.776.337-.19.219-.285.549-.285.988 0 .439.095.771.285.995.195.225.454.337.776.337Zm4.57.578c-.595 0-1.063-.168-1.405-.505-.342-.336-.512-.802-.512-1.398 0-.385.073-.722.219-1.01.151-.288.359-.51.622-.666.269-.161.579-.242.93-.242.346 0 .637.074.871.22.234.146.412.354.534.622.122.264.183.576.183.937v.234h-2.781v-.424h2.276l-.124.095c0-.366-.083-.649-.249-.849-.161-.205-.395-.308-.703-.308-.341 0-.605.12-.79.359-.186.234-.278.559-.278.974v.073c0 .434.104.761.314.981.215.219.518.329.908.329.215 0 .415-.029.6-.088.191-.063.371-.166.542-.307l.241.505c-.17.151-.378.268-.622.351a2.53 2.53 0 0 1-.776.117Zm4.242-.065v-5.388h.74v5.388h-.74Zm3.236.065c-.327 0-.613-.075-.857-.226a1.514 1.514 0 0 1-.57-.659c-.132-.288-.198-.63-.198-1.025 0-.4.066-.742.198-1.025.136-.283.326-.5.57-.651a1.55 1.55 0 0 1 .857-.235c.322 0 .603.081.842.242.239.161.397.381.476.659h-.081l.073-.835h.718l-.044.454c-.01.147-.015.29-.015.432v2.804h-.739v-.82h.08c-.078.273-.239.49-.483.651a1.48 1.48 0 0 1-.827.234Zm.183-.578c.317 0 .571-.112.761-.337.195-.224.293-.556.293-.995 0-.439-.098-.769-.293-.988-.19-.225-.444-.337-.761-.337-.322 0-.581.112-.776.337-.19.219-.285.549-.285.988 0 .439.095.771.285.995.19.225.449.337.776.337Zm5.9.513-1.581-3.69h.79l1.245 3.082h-.213l1.267-3.082h.754l-1.589 3.69h-.673Zm2.848 0v-3.69h.739v3.69h-.739Zm-.059-4.458v-.769h.857v.769h-.857Zm3.587 4.523c-.595 0-1.063-.168-1.405-.505-.342-.336-.512-.802-.512-1.398 0-.385.073-.722.219-1.01.151-.288.359-.51.622-.666.269-.161.579-.242.93-.242.346 0 .637.074.871.22.234.146.412.354.534.622.122.264.183.576.183.937v.234h-2.781v-.424h2.276l-.124.095c0-.366-.083-.649-.249-.849-.161-.205-.395-.308-.703-.308-.341 0-.605.12-.79.359-.186.234-.278.559-.278.974v.073c0 .434.104.761.314.981.215.219.518.329.908.329.215 0 .415-.029.6-.088.191-.063.371-.166.542-.307l.241.505c-.17.151-.378.268-.622.351a2.53 2.53 0 0 1-.776.117ZM256.764 145.419v-5.161h2.188c.552 0 .974.135 1.267.403.298.263.446.629.446 1.098 0 .468-.148.837-.446 1.105-.293.269-.715.403-1.267.403h-1.427v2.152h-.761Zm.761-2.76h1.347c.346 0 .608-.078.783-.234.176-.156.264-.378.264-.666 0-.283-.088-.503-.264-.659-.175-.156-.437-.234-.783-.234h-1.347v1.793Zm5.401 2.826a1.91 1.91 0 0 1-.952-.227 1.59 1.59 0 0 1-.622-.659c-.147-.288-.22-.629-.22-1.025 0-.395.073-.734.22-1.017.146-.288.354-.508.622-.659.268-.156.586-.234.952-.234s.683.078.951.234c.273.151.483.371.63.659.151.283.227.622.227 1.017 0 .396-.076.737-.227 1.025a1.583 1.583 0 0 1-.63.659 1.906 1.906 0 0 1-.951.227Zm0-.578c.322 0 .578-.113.768-.337.19-.225.286-.556.286-.996 0-.439-.096-.768-.286-.988-.19-.224-.446-.337-.768-.337a.95.95 0 0 0-.762.337c-.19.22-.285.549-.285.988 0 .44.092.771.278.996.19.224.446.337.769.337Zm2.672.512v-5.388h.739v5.388h-.739Zm1.823 0v-3.689h.739v3.689h-.739Zm-.059-4.458v-.769h.856v.769h-.856Zm3.316 4.524c-.4 0-.703-.108-.908-.322-.204-.22-.307-.547-.307-.981v-1.881h-.717v-.571h.717v-.974l.739-.198v1.172h1.025v.571h-1.025v1.815c0 .273.049.468.147.586.097.117.239.175.424.175.093 0 .174-.007.242-.022.073-.019.139-.041.198-.066v.601a1.202 1.202 0 0 1-.257.066c-.097.019-.19.029-.278.029Zm1.225-.066v-3.689h.739v3.689h-.739Zm-.059-4.458v-.769h.857v.769h-.857Zm4.524 6.039v-2.401h.081a1.14 1.14 0 0 1-.484.652 1.477 1.477 0 0 1-.827.234c-.327 0-.612-.076-.856-.227a1.517 1.517 0 0 1-.571-.659c-.132-.288-.198-.629-.198-1.025 0-.4.066-.741.198-1.024a1.52 1.52 0 0 1 .571-.652c.244-.156.529-.234.856-.234.322 0 .603.08.842.241.239.161.398.381.476.659h-.081l.074-.834h.717l-.044.454c-.01.146-.015.29-.015.431V147h-.739Zm-1.047-2.093a.952.952 0 0 0 .762-.337c.195-.225.292-.556.292-.996 0-.439-.097-.768-.292-.988a.952.952 0 0 0-.762-.337.98.98 0 0 0-.776.337c-.19.22-.285.549-.285.988 0 .44.095.771.285.996.191.224.449.337.776.337Zm4.175.578c-.444 0-.778-.12-1.002-.359-.22-.244-.33-.617-.33-1.12v-2.276h.739v2.262c0 .307.064.534.191.68.127.147.319.22.578.22.293 0 .53-.098.71-.293.181-.195.271-.454.271-.776v-2.093h.739v3.689h-.717v-.791h.095a1.286 1.286 0 0 1-.49.637 1.4 1.4 0 0 1-.784.22Zm4.685 0c-.596 0-1.064-.169-1.406-.505-.341-.337-.512-.803-.512-1.398 0-.386.073-.723.22-1.011.151-.287.358-.509.622-.666a1.77 1.77 0 0 1 .929-.241c.347 0 .637.073.871.219.235.147.413.354.535.623.122.263.183.575.183.937v.234h-2.782v-.425h2.277l-.125.095c0-.366-.083-.649-.249-.849-.161-.205-.395-.307-.702-.307-.342 0-.605.119-.791.359-.185.234-.278.558-.278.973v.073c0 .435.105.762.315.981.214.22.517.33.907.33.215 0 .415-.03.601-.088.19-.064.371-.166.541-.308l.242.505a1.79 1.79 0 0 1-.622.352 2.535 2.535 0 0 1-.776.117Zm3.557 0c-.308 0-.591-.039-.85-.117a1.82 1.82 0 0 1-.644-.33l.227-.505c.181.137.381.239.6.308.22.068.444.102.674.102.268 0 .471-.046.607-.139a.46.46 0 0 0 .205-.395.395.395 0 0 0-.131-.308c-.083-.078-.222-.136-.418-.175l-.702-.139c-.313-.069-.549-.186-.71-.352a.877.877 0 0 1-.242-.637c0-.219.059-.414.176-.585.122-.171.293-.305.512-.403.225-.097.486-.146.783-.146a2.4 2.4 0 0 1 .762.117c.234.078.429.19.585.337l-.234.49a1.677 1.677 0 0 0-.512-.293 1.607 1.607 0 0 0-.579-.11c-.273 0-.475.052-.607.154a.487.487 0 0 0-.198.403c0 .127.039.232.117.315.083.078.213.139.388.183l.703.139c.332.068.581.18.747.336.165.157.248.366.248.63a.978.978 0 0 1-.19.6c-.127.171-.302.3-.527.388a2.157 2.157 0 0 1-.79.132Zm-29.627 9a1.62 1.62 0 0 1-.857-.227 1.517 1.517 0 0 1-.571-.659c-.131-.288-.197-.629-.197-1.025 0-.4.066-.741.197-1.024a1.52 1.52 0 0 1 .571-.652 1.58 1.58 0 0 1 .857-.234c.317 0 .595.08.834.241.244.157.405.371.483.645h-.088v-2.519h.74v5.388h-.732v-.835h.088a1.172 1.172 0 0 1-.484.659 1.469 1.469 0 0 1-.841.242Zm.183-.578a.97.97 0 0 0 .768-.337c.195-.225.293-.556.293-.996 0-.439-.098-.768-.293-.988a.97.97 0 0 0-.768-.337.98.98 0 0 0-.776.337c-.191.22-.286.549-.286.988 0 .44.095.771.286.996a.98.98 0 0 0 .776.337Zm3.135-2.885-.322-.248c.142-.147.237-.283.286-.41.053-.132.08-.264.08-.396l.198.154h-.615v-.864h.871v.593c0 .22-.036.425-.11.615a1.653 1.653 0 0 1-.388.556Zm2.879 3.463c-.327 0-.612-.076-.856-.227a1.517 1.517 0 0 1-.571-.659c-.132-.288-.198-.629-.198-1.025 0-.4.066-.741.198-1.024a1.52 1.52 0 0 1 .571-.652c.244-.156.529-.234.856-.234.322 0 .603.08.842.241.239.161.398.381.476.659h-.081l.074-.834h.717l-.044.454c-.01.146-.015.29-.015.431v2.804h-.739v-.82h.081a1.134 1.134 0 0 1-.483.652c-.24.156-.515.234-.828.234Zm.183-.578a.95.95 0 0 0 .762-.337c.195-.225.292-.556.292-.996 0-.439-.097-.768-.292-.988a.95.95 0 0 0-.762-.337.98.98 0 0 0-.776.337c-.19.22-.285.549-.285.988 0 .44.095.771.285.996.191.224.449.337.776.337Zm2.865.512v-3.689h.74v3.689h-.74Zm-.058-4.458v-.769h.856v.769h-.856Zm3.294 4.524a1.62 1.62 0 0 1-.857-.227 1.517 1.517 0 0 1-.571-.659c-.131-.288-.197-.629-.197-1.025 0-.4.066-.741.197-1.024a1.52 1.52 0 0 1 .571-.652 1.58 1.58 0 0 1 .857-.234c.317 0 .595.08.834.241.244.157.405.371.483.645h-.087v-2.519h.739v5.388h-.732v-.835h.088a1.174 1.174 0 0 1-.483.659c-.239.161-.52.242-.842.242Zm.183-.578a.97.97 0 0 0 .768-.337c.196-.225.293-.556.293-.996 0-.439-.097-.768-.293-.988a.97.97 0 0 0-.768-.337.98.98 0 0 0-.776.337c-.19.22-.286.549-.286.988 0 .44.096.771.286.996a.98.98 0 0 0 .776.337Zm4.57.578c-.595 0-1.064-.169-1.405-.505-.342-.337-.513-.803-.513-1.398 0-.386.074-.723.22-1.011.151-.287.359-.509.622-.666.269-.161.579-.241.93-.241.346 0 .637.073.871.219.234.147.412.354.534.623.122.263.183.575.183.937v.234h-2.781v-.425h2.276l-.124.095c0-.366-.083-.649-.249-.849-.161-.205-.395-.307-.703-.307-.341 0-.605.119-.79.359-.186.234-.279.558-.279.973v.073c0 .435.105.762.315.981.215.22.518.33.908.33.215 0 .415-.03.6-.088.19-.064.371-.166.542-.308l.241.505a1.78 1.78 0 0 1-.622.352 2.53 2.53 0 0 1-.776.117Zm-17.381 9c-.307 0-.59-.039-.849-.117a1.82 1.82 0 0 1-.644-.33l.227-.505c.18.137.381.239.6.308.22.068.444.102.674.102.268 0 .471-.046.607-.139a.46.46 0 0 0 .205-.395.392.392 0 0 0-.132-.308c-.083-.078-.222-.136-.417-.175l-.703-.139c-.312-.069-.549-.186-.71-.352a.876.876 0 0 1-.241-.637c0-.219.058-.414.175-.585.122-.171.293-.305.513-.403.224-.097.485-.146.783-.146.273 0 .527.039.761.117.235.078.43.19.586.337l-.234.49a1.682 1.682 0 0 0-.513-.293 1.602 1.602 0 0 0-.578-.11c-.273 0-.476.052-.607.154a.487.487 0 0 0-.198.403c0 .127.039.232.117.315.083.078.212.139.388.183l.703.139c.332.068.58.18.746.336.166.157.249.366.249.63a.978.978 0 0 1-.19.6 1.17 1.17 0 0 1-.527.388 2.163 2.163 0 0 1-.791.132Zm3.961 0c-.366 0-.683-.076-.952-.227a1.59 1.59 0 0 1-.622-.659c-.146-.288-.22-.629-.22-1.025 0-.395.074-.734.22-1.017.146-.288.354-.508.622-.659.269-.156.586-.234.952-.234s.683.078.951.234c.274.151.483.371.63.659.151.283.227.622.227 1.017 0 .396-.076.737-.227 1.025a1.577 1.577 0 0 1-.63.659 1.906 1.906 0 0 1-.951.227Zm0-.578c.322 0 .578-.113.768-.337.191-.225.286-.556.286-.996 0-.439-.095-.768-.286-.988-.19-.224-.446-.337-.768-.337a.952.952 0 0 0-.762.337c-.19.22-.285.549-.285.988 0 .44.093.771.278.996.19.224.447.337.769.337Zm4.29.578a2.01 2.01 0 0 1-.974-.227 1.618 1.618 0 0 1-.637-.666c-.146-.293-.219-.639-.219-1.04 0-.395.075-.734.227-1.017.151-.283.363-.498.636-.644.274-.152.596-.227.967-.227.239 0 .471.041.695.124.225.078.41.191.556.337l-.241.52a1.324 1.324 0 0 0-.461-.293 1.346 1.346 0 0 0-.498-.103c-.351 0-.627.113-.827.337-.2.225-.3.549-.3.974 0 .429.1.759.3.988.2.229.476.344.827.344a1.34 1.34 0 0 0 .959-.388l.241.52a1.579 1.579 0 0 1-.571.344 2.056 2.056 0 0 1-.68.117Zm2.035-.066v-3.689h.739v3.689h-.739Zm-.059-4.458v-.769h.857v.769h-.857Zm3.294 4.524c-.327 0-.612-.076-.856-.227a1.517 1.517 0 0 1-.571-.659c-.132-.288-.198-.629-.198-1.025 0-.4.066-.741.198-1.024a1.52 1.52 0 0 1 .571-.652c.244-.156.529-.234.856-.234.322 0 .603.08.842.241.239.161.398.381.476.659h-.081l.074-.834h.717l-.044.454c-.01.146-.015.29-.015.431v2.804h-.739v-.82h.081a1.134 1.134 0 0 1-.483.652c-.24.156-.515.234-.828.234Zm.183-.578a.95.95 0 0 0 .762-.337c.195-.225.292-.556.292-.996 0-.439-.097-.768-.292-.988a.95.95 0 0 0-.762-.337.98.98 0 0 0-.776.337c-.19.22-.285.549-.285.988 0 .44.095.771.285.996.191.224.449.337.776.337Zm2.865.512v-5.388h.74v5.388h-.74Zm3.529.066c-.596 0-1.064-.169-1.406-.505-.341-.337-.512-.803-.512-1.398 0-.386.073-.723.219-1.011.152-.287.359-.509.623-.666a1.77 1.77 0 0 1 .929-.241c.347 0 .637.073.871.219.235.147.413.354.535.623.122.263.183.575.183.937v.234h-2.782v-.425h2.277l-.125.095c0-.366-.083-.649-.249-.849-.161-.205-.395-.307-.702-.307-.342 0-.606.119-.791.359-.185.234-.278.558-.278.973v.073c0 .435.105.762.315.981.214.22.517.33.907.33.215 0 .415-.03.601-.088.19-.064.37-.166.541-.308l.242.505a1.79 1.79 0 0 1-.622.352 2.535 2.535 0 0 1-.776.117ZM257.091 47.18c-.414 0-.79-.051-1.127-.154a2.768 2.768 0 0 1-.878-.453l.256-.6c.166.126.337.231.512.314.181.083.371.147.571.19.205.04.427.059.666.059.41 0 .71-.073.901-.22a.69.69 0 0 0 .293-.578.583.583 0 0 0-.205-.476c-.132-.112-.366-.202-.703-.27l-.798-.162c-.473-.097-.827-.256-1.061-.475-.23-.225-.344-.53-.344-.915 0-.313.083-.586.248-.82a1.6 1.6 0 0 1 .689-.542 2.63 2.63 0 0 1 1.039-.19c.366 0 .703.053 1.01.16.308.103.566.257.776.462l-.249.578a2.172 2.172 0 0 0-.703-.417 2.414 2.414 0 0 0-.849-.14c-.375 0-.671.079-.885.235a.751.751 0 0 0-.315.637c0 .215.066.383.197.505.137.122.362.215.674.278l.798.154c.493.102.856.261 1.09.476.235.21.352.5.352.87 0 .298-.081.56-.242.784-.156.225-.38.4-.673.527a2.693 2.693 0 0 1-1.04.183Zm4.238 0c-.4 0-.703-.107-.908-.322-.205-.22-.307-.546-.307-.98v-1.882h-.718v-.571h.718v-.974l.739-.197v1.171h1.025v.57h-1.025v1.816c0 .274.049.469.146.586.098.117.24.176.425.176.093 0 .173-.008.242-.022.073-.02.139-.042.197-.066v.6c-.073.03-.158.051-.256.066-.098.02-.19.03-.278.03Zm1.224-.066v-3.689h.74v3.69h-.74Zm-.058-4.458v-.768h.856v.768h-.856Zm3.543 6.098c-.332 0-.635-.04-.908-.117a2.336 2.336 0 0 1-.725-.352l.183-.541c.152.102.301.183.447.241.146.064.3.11.461.14.161.029.327.043.498.043.351 0 .615-.09.79-.27.181-.176.271-.432.271-.77v-.987h.074c-.079.273-.24.49-.484.651a1.49 1.49 0 0 1-.834.234c-.337 0-.63-.073-.878-.22a1.537 1.537 0 0 1-.571-.636 2.267 2.267 0 0 1-.198-.98c0-.377.066-.701.198-.974.136-.274.327-.484.571-.63.248-.151.541-.227.878-.227.322 0 .6.08.834.242.24.156.398.37.476.644l-.066-.059.066-.761h.718a6.33 6.33 0 0 0-.044.454c-.01.146-.015.29-.015.432v2.73c0 .556-.149.98-.447 1.274-.292.293-.724.439-1.295.439Zm-.051-2.306c.322 0 .578-.11.768-.33.195-.219.293-.529.293-.929s-.098-.708-.293-.922c-.19-.215-.446-.322-.768-.322-.332 0-.596.107-.791.322-.19.214-.285.522-.285.922s.095.71.285.93c.195.22.459.33.791.33Zm2.871.666v-2.803c0-.142-.007-.286-.022-.432a13.86 13.86 0 0 0-.036-.454h.717l.066.776h-.088c.103-.269.259-.476.469-.622a1.33 1.33 0 0 1 .768-.22c.303 0 .549.073.74.22.195.141.329.36.402.658h-.117c.098-.268.264-.48.498-.636.234-.161.505-.242.812-.242.41 0 .718.12.923.359.205.239.307.61.307 1.112v2.284h-.739v-2.247c0-.322-.056-.554-.169-.695-.107-.147-.283-.22-.527-.22-.283 0-.507.098-.673.293-.166.195-.249.459-.249.79v2.08h-.739v-2.248c0-.322-.056-.554-.169-.695-.107-.147-.283-.22-.527-.22-.283 0-.505.098-.666.293-.161.195-.241.459-.241.79v2.08h-.74Zm7.911.066a1.59 1.59 0 0 1-.856-.227 1.512 1.512 0 0 1-.571-.659c-.132-.287-.198-.63-.198-1.024 0-.4.066-.742.198-1.025a1.52 1.52 0 0 1 1.427-.886c.322 0 .603.08.842.242.239.16.397.38.476.659h-.081l.073-.835h.718l-.044.454c-.01.146-.015.29-.015.432v2.803h-.739v-.82h.08c-.078.274-.239.49-.483.652a1.478 1.478 0 0 1-.827.234Zm.183-.578a.947.947 0 0 0 .761-.337c.195-.224.293-.556.293-.995 0-.44-.098-.769-.293-.989-.19-.224-.444-.336-.761-.336-.322 0-.581.112-.776.336-.19.22-.285.55-.285.989 0 .439.095.77.285.995.19.225.449.337.776.337Zm4.3.578c-.401 0-.703-.107-.908-.322-.205-.22-.308-.546-.308-.98v-1.882h-.717v-.571h.717v-.974l.74-.197v1.171h1.025v.57h-1.025v1.816c0 .274.049.469.146.586.098.117.239.176.425.176.092 0 .173-.008.241-.022a1.6 1.6 0 0 0 .198-.066v.6c-.073.03-.159.051-.256.066a1.43 1.43 0 0 1-.278.03Zm1.224-.066v-3.689h.739v3.69h-.739Zm-.059-4.458v-.768h.857v.768h-.857Zm3.148 4.524a2.93 2.93 0 0 1-.849-.117 1.82 1.82 0 0 1-.644-.33l.227-.505c.18.137.381.24.6.308.22.068.444.102.674.102.268 0 .47-.046.607-.139a.46.46 0 0 0 .205-.395.391.391 0 0 0-.132-.307c-.083-.078-.222-.137-.417-.176l-.703-.14c-.312-.067-.549-.184-.71-.35a.876.876 0 0 1-.241-.637c0-.22.058-.415.175-.586.122-.17.293-.305.513-.403.224-.097.485-.146.783-.146.273 0 .527.04.761.117.235.078.43.19.586.337l-.234.49a1.67 1.67 0 0 0-.513-.292 1.597 1.597 0 0 0-.578-.11c-.273 0-.476.051-.608.153a.487.487 0 0 0-.197.403c0 .127.039.232.117.315.083.078.212.139.388.183l.703.139c.331.068.58.18.746.337.166.156.249.366.249.63 0 .228-.063.429-.19.6-.127.17-.303.3-.527.387a2.167 2.167 0 0 1-.791.132Zm3.792 0a1.59 1.59 0 0 1-.856-.227 1.518 1.518 0 0 1-.571-.659c-.132-.287-.198-.63-.198-1.024 0-.4.066-.742.198-1.025.137-.283.327-.5.571-.652.244-.156.529-.234.856-.234.322 0 .603.08.842.242.239.16.398.38.476.659h-.081l.074-.835h.717l-.044.454c-.01.146-.015.29-.015.432v2.803h-.739v-.82h.081c-.078.274-.239.49-.483.652-.24.156-.515.234-.828.234Zm.183-.578a.95.95 0 0 0 .762-.337c.195-.224.292-.556.292-.995 0-.44-.097-.769-.292-.989a.949.949 0 0 0-.762-.336.979.979 0 0 0-.776.336c-.19.22-.285.55-.285.989 0 .439.095.77.285.995.191.225.449.337.776.337Zm4.3.578c-.4 0-.703-.107-.908-.322-.205-.22-.307-.546-.307-.98v-1.882h-.718v-.571h.718v-.974l.739-.197v1.171h1.025v.57h-1.025v1.816c0 .274.049.469.147.586.097.117.239.176.424.176.093 0 .173-.008.242-.022.073-.02.139-.042.197-.066v.6c-.073.03-.158.051-.256.066-.098.02-.19.03-.278.03Zm-38.557 8.934v-3.689h.74v3.69h-.74Zm-.058-4.458v-.768h.856v.768h-.856Zm3.462 4.524c-.366 0-.683-.075-.951-.227a1.582 1.582 0 0 1-.622-.659c-.147-.287-.22-.63-.22-1.024 0-.396.073-.735.22-1.018.146-.288.353-.507.622-.659.268-.156.585-.234.951-.234s.684.078.952.234c.273.152.483.371.629.66.152.282.227.621.227 1.017 0 .395-.075.736-.227 1.024a1.574 1.574 0 0 1-.629.66 1.907 1.907 0 0 1-.952.226Zm0-.578c.322 0 .579-.112.769-.337.19-.224.285-.556.285-.995 0-.44-.095-.769-.285-.989-.19-.224-.447-.336-.769-.336-.317 0-.571.112-.761.336-.19.22-.285.55-.285.989 0 .439.092.77.278.995.19.225.446.337.768.337Zm2.673.512v-2.803c0-.142-.008-.286-.022-.432-.01-.151-.022-.303-.037-.454h.717l.066.776h-.088c.113-.273.286-.48.52-.622a1.5 1.5 0 0 1 .813-.22c.434 0 .761.12.981.359.224.239.336.61.336 1.112v2.284h-.739v-2.24c0-.327-.066-.56-.198-.702-.127-.147-.322-.22-.585-.22-.313 0-.562.098-.747.293-.185.19-.278.449-.278.776v2.093h-.739Zm7.996.066c-.596 0-1.064-.168-1.406-.505-.341-.337-.512-.803-.512-1.398 0-.386.073-.722.219-1.01.152-.288.359-.51.623-.666.268-.161.578-.242.929-.242.347 0 .637.073.871.22.235.146.413.353.535.622.122.263.183.576.183.937v.234h-2.782v-.425h2.277l-.125.096c0-.366-.083-.65-.249-.85-.161-.204-.395-.307-.702-.307-.342 0-.605.12-.791.359-.185.234-.278.559-.278.973v.074c0 .434.105.76.315.98.214.22.517.33.907.33.215 0 .415-.03.601-.088.19-.063.37-.166.541-.307l.242.505a1.8 1.8 0 0 1-.622.351 2.532 2.532 0 0 1-.776.117Zm3.718 0c-.4 0-.703-.107-.908-.322-.205-.22-.307-.546-.307-.98v-1.882h-.718v-.571h.718v-.974l.739-.197v1.171h1.025v.57h-1.025v1.816c0 .274.049.469.146.586.098.117.239.176.425.176.093 0 .173-.008.241-.022.074-.02.14-.042.198-.066v.6c-.073.03-.159.051-.256.066-.098.02-.19.03-.278.03Zm-17.791 10.515v-4.384c0-.142-.007-.286-.022-.432a13.86 13.86 0 0 0-.036-.454h.717l.073.835h-.08c.078-.279.234-.498.468-.66.239-.16.522-.24.849-.24.327 0 .613.077.857.233.244.152.432.369.564.652.136.283.204.625.204 1.025 0 .395-.068.736-.204 1.024-.132.288-.32.508-.564.66-.244.15-.53.226-.857.226-.322 0-.602-.078-.841-.234a1.149 1.149 0 0 1-.469-.652h.081v2.401h-.74Zm1.786-2.093c.323 0 .579-.112.769-.337.195-.224.293-.556.293-.995 0-.44-.098-.769-.293-.989-.19-.224-.446-.336-.769-.336-.322 0-.58.112-.775.336-.191.22-.286.55-.286.989 0 .439.095.77.286.995.195.225.453.337.775.337Zm2.66.512V62.34c0-.151-.005-.303-.014-.454a6.918 6.918 0 0 0-.03-.461h.718l.08.952h-.117c.049-.23.132-.42.249-.571.117-.152.259-.264.425-.337a1.34 1.34 0 0 1 .732-.095.955.955 0 0 1 .161.029l-.008.659a.739.739 0 0 0-.219-.059 1.373 1.373 0 0 0-.22-.014.99.99 0 0 0-.549.146.896.896 0 0 0-.344.38 1.176 1.176 0 0 0-.117.52v2.08h-.747Zm4.43.066c-.596 0-1.064-.168-1.406-.505-.341-.337-.512-.803-.512-1.398 0-.386.073-.722.22-1.01.151-.288.358-.51.622-.666.268-.161.578-.242.929-.242.347 0 .637.073.872.22.234.146.412.353.534.622.122.263.183.576.183.937v.234h-2.782v-.425h2.277l-.125.096c0-.366-.083-.65-.249-.85-.161-.204-.395-.307-.702-.307-.342 0-.605.12-.791.359-.185.234-.278.559-.278.973v.074c0 .434.105.76.315.98.215.22.517.33.907.33.215 0 .415-.03.601-.088.19-.063.371-.166.541-.307l.242.505a1.8 1.8 0 0 1-.622.351 2.532 2.532 0 0 1-.776.117Zm-.403-4.114.754-1.478h.754l-.995 1.478h-.513Zm2.261 5.666c-.078 0-.168-.007-.27-.022a1.045 1.045 0 0 1-.279-.073v-.6c.064.02.135.036.213.05.073.02.144.03.212.03.19 0 .334-.06.432-.183.102-.117.154-.312.154-.585v-3.924h.739V65.4c0 .439-.098.77-.293.995-.195.225-.498.337-.908.337Zm.396-6.076v-.768h.863v.768h-.863Zm3.169 4.524c-.444 0-.778-.12-1.002-.359-.22-.243-.33-.617-.33-1.12v-2.276h.739v2.262c0 .307.064.534.191.68.127.147.319.22.578.22.293 0 .53-.097.71-.293.181-.195.271-.453.271-.775v-2.094h.739v3.69h-.717v-.791h.095a1.289 1.289 0 0 1-.49.636c-.225.147-.486.22-.784.22Zm4.641 1.574c-.332 0-.635-.04-.908-.117a2.336 2.336 0 0 1-.725-.352l.183-.541c.152.102.301.183.447.241.146.064.3.11.461.14.161.029.327.043.498.043.351 0 .615-.09.79-.27.181-.176.271-.432.271-.77v-.987h.073c-.078.273-.239.49-.483.651a1.49 1.49 0 0 1-.834.234c-.337 0-.63-.073-.879-.22a1.534 1.534 0 0 1-.57-.636 2.267 2.267 0 0 1-.198-.98c0-.377.066-.701.198-.974.136-.274.326-.484.57-.63a1.66 1.66 0 0 1 .879-.227c.322 0 .6.08.834.242.239.156.398.37.476.644l-.066-.059.066-.761h.718a6.33 6.33 0 0 0-.044.454c-.01.146-.015.29-.015.432v2.73c0 .556-.149.98-.447 1.274-.292.293-.724.439-1.295.439Zm-.051-2.306c.322 0 .578-.11.768-.33.195-.219.293-.529.293-.929s-.098-.708-.293-.922c-.19-.215-.446-.322-.768-.322-.332 0-.596.107-.791.322-.19.214-.285.522-.285.922s.095.71.285.93c.195.22.459.33.791.33Zm4.577.732c-.596 0-1.064-.168-1.406-.505-.341-.337-.512-.803-.512-1.398 0-.386.073-.722.22-1.01.151-.288.358-.51.622-.666.268-.161.578-.242.929-.242.347 0 .637.073.871.22.235.146.413.353.535.622.122.263.183.576.183.937v.234h-2.782v-.425h2.277l-.125.096c0-.366-.083-.65-.249-.85-.161-.204-.395-.307-.702-.307-.342 0-.605.12-.791.359-.185.234-.278.559-.278.973v.074c0 .434.105.76.315.98.214.22.517.33.907.33.215 0 .415-.03.601-.088.19-.063.371-.166.541-.307l.242.505a1.8 1.8 0 0 1-.622.351 2.532 2.532 0 0 1-.776.117Zm-.403-4.114.754-1.478h.754l-.995 1.478h-.513Zm3.96 4.114c-.308 0-.591-.039-.85-.117a1.83 1.83 0 0 1-.644-.33l.227-.505c.181.137.381.24.6.308.22.068.445.102.674.102.268 0 .471-.046.607-.139a.46.46 0 0 0 .205-.395.394.394 0 0 0-.131-.307c-.083-.078-.222-.137-.418-.176l-.702-.14c-.313-.067-.549-.184-.71-.35a.877.877 0 0 1-.242-.637c0-.22.059-.415.176-.586.122-.17.293-.305.512-.403.225-.097.486-.146.783-.146.274 0 .527.04.762.117.234.078.429.19.585.337l-.234.49a1.664 1.664 0 0 0-.512-.292 1.603 1.603 0 0 0-.579-.11c-.273 0-.475.051-.607.153a.486.486 0 0 0-.198.403c0 .127.039.232.117.315.083.078.213.139.388.183l.703.139c.332.068.581.18.747.337.166.156.248.366.248.63 0 .228-.063.429-.19.6-.127.17-.302.3-.527.387a2.162 2.162 0 0 1-.79.132ZM174.017 6.095V.935h.762v4.508h2.532v.652h-3.294Zm3.973 0v-3.69h.74v3.69h-.74Zm-.058-4.458V.868h.856v.769h-.856Zm3.587 4.524c-.596 0-1.064-.169-1.406-.505-.341-.337-.512-.803-.512-1.399 0-.385.073-.722.219-1.01.152-.288.359-.51.623-.666a1.77 1.77 0 0 1 .929-.241c.347 0 .637.073.871.22.235.146.413.353.535.621.122.264.183.576.183.937v.235h-2.782v-.425h2.277l-.125.095c0-.366-.083-.649-.249-.849-.161-.205-.395-.307-.702-.307-.342 0-.606.12-.791.358-.185.235-.278.559-.278.974v.073c0 .434.105.761.315.98.214.22.517.33.907.33.215 0 .415-.029.601-.088.19-.063.37-.165.541-.307l.242.505a1.8 1.8 0 0 1-.622.351 2.533 2.533 0 0 1-.776.118Zm3.6 0c-.444 0-.778-.12-1.003-.36-.219-.243-.329-.616-.329-1.119V2.405h.739v2.262c0 .308.064.535.191.681.127.146.319.22.578.22a.922.922 0 0 0 .71-.293c.181-.195.271-.454.271-.776V2.405h.739v3.69h-.717v-.79h.095a1.29 1.29 0 0 1-.49.636c-.225.146-.486.22-.784.22Zm6.343 0c-.322 0-.607-.076-.856-.227a1.518 1.518 0 0 1-.571-.66c-.132-.287-.198-.629-.198-1.024 0-.4.066-.742.198-1.025.137-.283.327-.5.571-.651.249-.156.534-.234.856-.234.318 0 .596.08.835.241.244.156.405.371.483.644h-.088V.707h.739v5.388h-.732V5.26h.088a1.177 1.177 0 0 1-.483.66c-.239.16-.52.24-.842.24Zm.183-.579a.969.969 0 0 0 .769-.336c.195-.225.293-.557.293-.996 0-.44-.098-.769-.293-.988a.969.969 0 0 0-.769-.337.979.979 0 0 0-.776.337c-.19.22-.285.549-.285.988 0 .44.095.771.285.996a.979.979 0 0 0 .776.336Zm4.571.579c-.596 0-1.064-.169-1.406-.505-.341-.337-.512-.803-.512-1.399 0-.385.073-.722.22-1.01.151-.288.358-.51.622-.666a1.77 1.77 0 0 1 .929-.241c.347 0 .637.073.871.22.235.146.413.353.535.621.122.264.183.576.183.937v.235h-2.782v-.425h2.277l-.125.095c0-.366-.083-.649-.249-.849-.161-.205-.395-.307-.702-.307-.342 0-.605.12-.791.358-.185.235-.278.559-.278.974v.073c0 .434.105.761.315.98.214.22.517.33.907.33.215 0 .415-.029.601-.088.19-.063.371-.165.541-.307l.242.505a1.8 1.8 0 0 1-.622.351 2.533 2.533 0 0 1-.776.118Zm4.227-.066V3.32c0-.15-.005-.302-.015-.453a6.309 6.309 0 0 0-.029-.462h.718l.08.952h-.117c.049-.23.132-.42.249-.57.117-.152.258-.264.424-.338a1.345 1.345 0 0 1 .732-.095.914.914 0 0 1 .161.03l-.007.658a.74.74 0 0 0-.219-.058 1.379 1.379 0 0 0-.22-.015.99.99 0 0 0-.549.146.896.896 0 0 0-.344.381 1.177 1.177 0 0 0-.117.52v2.079h-.747Zm4.43.066c-.596 0-1.064-.169-1.406-.505-.341-.337-.512-.803-.512-1.399 0-.385.073-.722.219-1.01.152-.288.359-.51.623-.666a1.77 1.77 0 0 1 .929-.241c.347 0 .637.073.871.22.234.146.413.353.535.621.122.264.183.576.183.937v.235h-2.782v-.425h2.277l-.125.095c0-.366-.083-.649-.249-.849-.161-.205-.395-.307-.703-.307-.341 0-.605.12-.79.358-.186.235-.278.559-.278.974v.073c0 .434.105.761.315.98.214.22.517.33.907.33.215 0 .415-.029.6-.088.191-.063.371-.165.542-.307l.242.505a1.804 1.804 0 0 1-.623.351 2.526 2.526 0 0 1-.775.118Zm-.403-4.114.754-1.479h.754l-.996 1.479h-.512Zm3.959 4.114a2.93 2.93 0 0 1-.849-.118 1.828 1.828 0 0 1-.644-.329l.227-.505c.181.137.381.24.6.307.22.069.444.103.674.103.268 0 .471-.046.607-.14a.46.46 0 0 0 .205-.394.391.391 0 0 0-.132-.308c-.083-.078-.222-.137-.417-.176l-.703-.139c-.312-.068-.549-.185-.71-.351a.876.876 0 0 1-.241-.637c0-.22.058-.415.176-.585.122-.171.292-.305.512-.403a1.95 1.95 0 0 1 .783-.146c.273 0 .527.039.761.117.235.078.43.19.586.336l-.234.49a1.658 1.658 0 0 0-.513-.292 1.597 1.597 0 0 0-.578-.11c-.273 0-.476.051-.607.154a.486.486 0 0 0-.198.403c0 .126.039.231.117.314.083.078.212.14.388.183l.703.14c.332.068.58.18.746.336.166.156.249.366.249.63 0 .229-.063.43-.19.6-.127.17-.303.3-.527.388a2.166 2.166 0 0 1-.791.132Zm2.38-.066v-3.69h.739v3.69h-.739Zm-.059-4.458V.868h.857v.769h-.857Zm3.294 4.524c-.322 0-.607-.076-.856-.227a1.518 1.518 0 0 1-.571-.66c-.132-.287-.198-.629-.198-1.024 0-.4.066-.742.198-1.025.137-.283.327-.5.571-.651.249-.156.534-.234.856-.234.318 0 .596.08.835.241.244.156.405.371.483.644h-.088V.707h.739v5.388h-.732V5.26h.088a1.177 1.177 0 0 1-.483.66c-.239.16-.52.24-.842.24Zm.183-.579a.969.969 0 0 0 .769-.336c.195-.225.293-.557.293-.996 0-.44-.098-.769-.293-.988a.969.969 0 0 0-.769-.337.979.979 0 0 0-.776.337c-.19.22-.285.549-.285.988 0 .44.095.771.285.996a.979.979 0 0 0 .776.336Zm4.571.579c-.596 0-1.064-.169-1.406-.505-.341-.337-.512-.803-.512-1.399 0-.385.073-.722.219-1.01.152-.288.359-.51.623-.666a1.77 1.77 0 0 1 .929-.241c.347 0 .637.073.871.22.235.146.413.353.535.621.122.264.183.576.183.937v.235h-2.782v-.425h2.277l-.125.095c0-.366-.083-.649-.249-.849-.161-.205-.395-.307-.702-.307-.342 0-.605.12-.791.358-.185.235-.278.559-.278.974v.073c0 .434.105.761.315.98.214.22.517.33.907.33.215 0 .415-.029.601-.088.19-.063.37-.165.541-.307l.242.505a1.8 1.8 0 0 1-.622.351 2.533 2.533 0 0 1-.776.118Zm2.29-.066V3.29c0-.141-.007-.285-.022-.432-.01-.151-.022-.302-.036-.454h.717l.066.776h-.088c.112-.273.285-.48.52-.622a1.5 1.5 0 0 1 .812-.22c.435 0 .762.12.981.36.225.238.337.61.337 1.112v2.284h-.739v-2.24c0-.327-.066-.561-.198-.703-.127-.146-.322-.22-.586-.22-.312 0-.561.098-.746.293-.186.19-.279.45-.279.776v2.094h-.739Zm5.957.066a2.01 2.01 0 0 1-.974-.227 1.611 1.611 0 0 1-.636-.666c-.147-.293-.22-.64-.22-1.04 0-.395.076-.734.227-1.017.151-.283.363-.498.637-.645.273-.15.595-.226.966-.226.239 0 .471.041.695.124.225.078.41.19.557.337l-.242.52a1.324 1.324 0 0 0-.461-.293 1.338 1.338 0 0 0-.498-.103c-.351 0-.627.112-.827.337-.2.224-.3.549-.3.973 0 .43.1.76.3.989.2.229.476.344.827.344.156 0 .32-.03.491-.088.17-.064.327-.164.468-.3l.242.52a1.59 1.59 0 0 1-.571.343 2.065 2.065 0 0 1-.681.118Zm3.669 0c-.595 0-1.064-.169-1.405-.505-.342-.337-.513-.803-.513-1.399 0-.385.074-.722.22-1.01.151-.288.359-.51.622-.666.269-.16.578-.241.93-.241.346 0 .637.073.871.22.234.146.412.353.534.621.122.264.183.576.183.937v.235h-2.781v-.425h2.276l-.124.095c0-.366-.083-.649-.249-.849-.161-.205-.395-.307-.703-.307-.342 0-.605.12-.79.358-.186.235-.279.559-.279.974v.073c0 .434.105.761.315.98.215.22.517.33.908.33.215 0 .415-.029.6-.088.19-.063.371-.165.542-.307l.241.505a1.8 1.8 0 0 1-.622.351 2.533 2.533 0 0 1-.776.118Z"/>
    <path stroke="var(--fl-fgColor, #000)" stroke-dasharray="7.07 7.07" stroke-width="1.414" d="m161.972 65.575-33.426 5.514-23.481 19.573-35.911 49.069 39.226 44.66h67.127l29.559-51 16.85-59.27-59.944-8.546Z"/>
  </svg>