<svg xmlns="http://www.w3.org/2000/svg" width="1072" height="737" fill="none" viewBox="0 0 1072 737">
    <circle fill="var(--fi-wheel-dark, #e8b91c)" stroke="var(--fi-wheel-border, #4a4021)" cx="520.21" cy="366.55" r="329.365" stroke-dasharray="2 2" />
    <circle fill="var(--fi-wheel-medium, #f6d872)" stroke="var(--fi-wheel-border, #4a4021)" cx="520.636" cy="366.977" r="250.522" stroke-dasharray="2 2" />
    <circle fill="var(--fi-wheel-light, #f9eec6)" stroke="var(--fi-wheel-border, #4a4021)" cx="520.636" cy="366.976" r="156.761" stroke-dasharray="2 2" />
    <path fill="var(--fi-wheel-arrow, #a93031)" d="M521.882.293a1 1 0 0 0-1.414 0l-6.364 6.364a1 1 0 1 0 1.414 1.414l5.657-5.657 5.657 5.657a1 1 0 1 0 1.414-1.414zm-1.414 328.414a1 1 0 0 0 1.414 0l6.364-6.364a.999.999 0 1 0-1.414-1.414l-5.657 5.657-5.657-5.657a.999.999 0 1 0-1.414 1.414zM521.175 1h-1v327h2V1z" />
    <path stroke="var(--fi-wheel-slice-outline, #997d1e)" stroke-dasharray="2 2" d="M850.175 366.5h-659M520.675 696V37M287.149 598.995 752.54 133.604M288.707 134.454l463.687 463.687" />
    <path fill="var(--fi-wheel-label-background, #f6f5f2)" stroke="var(--fl-fgColor, transparent)" d="M475.175 62h91v43h-91z" />
    <path fill="var(--fi-wheel-content-emphasis, #a93031)" d="M493.63 79.5V67.092h1.831V79.5zm4.586 0v-6.74q0-.511-.053-1.04a36 36 0 0 0-.088-1.09h1.725l.158 1.865h-.211q.37-.968 1.126-1.496.774-.528 1.848-.528 1.091 0 1.778.528.704.51.968 1.584h-.282a3.05 3.05 0 0 1 1.197-1.531q.844-.58 1.954-.58 1.478 0 2.217.862t.739 2.675V79.5h-1.777v-5.403q0-1.162-.405-1.672-.388-.528-1.267-.528-1.022 0-1.619.704-.599.705-.599 1.9V79.5h-1.777v-5.403q0-1.162-.405-1.672-.387-.528-1.267-.528-1.021 0-1.602.704-.58.705-.581 1.9V79.5zm15.623 3.802V72.759q0-.51-.053-1.038a33 33 0 0 0-.088-1.091h1.725l.176 2.006h-.194a2.78 2.78 0 0 1 1.127-1.584q.862-.58 2.041-.58 1.18 0 2.06.562.88.546 1.355 1.567.492 1.02.493 2.464 0 1.425-.493 2.464-.476 1.038-1.355 1.584-.88.546-2.06.545-1.161 0-2.024-.563a2.77 2.77 0 0 1-1.126-1.566h.194v5.773zm4.294-5.034q1.163 0 1.848-.81.705-.81.704-2.393 0-1.584-.704-2.376-.685-.81-1.848-.81-1.161 0-1.865.81-.687.792-.687 2.376t.687 2.393q.704.81 1.865.81m9.828 1.39q-1.18 0-2.059-.545-.88-.546-1.373-1.584-.475-1.038-.475-2.464 0-1.444.475-2.464.492-1.02 1.373-1.567.88-.563 2.059-.563 1.161 0 2.024.581.862.58 1.144 1.584h-.194l.176-2.006h1.725l-.106 1.09a16 16 0 0 0-.035 1.04v6.74h-1.777v-1.971h.193a2.73 2.73 0 0 1-1.161 1.566q-.863.564-1.989.563m.44-1.39q1.144 0 1.83-.81.705-.81.704-2.393 0-1.584-.704-2.376-.686-.81-1.83-.81-1.162 0-1.866.81-.686.792-.686 2.376t.686 2.393q.687.81 1.866.81m10.778 1.39q-1.338 0-2.341-.545a3.87 3.87 0 0 1-1.531-1.602q-.528-1.056-.528-2.499 0-1.425.545-2.446a3.7 3.7 0 0 1 1.531-1.55q.986-.545 2.324-.545.862 0 1.672.3.809.28 1.337.809l-.581 1.25a3.2 3.2 0 0 0-1.108-.704 3.2 3.2 0 0 0-1.197-.247q-1.268 0-1.989.81t-.722 2.34q0 1.55.722 2.377.721.827 1.989.827.562 0 1.179-.211a3.2 3.2 0 0 0 1.126-.722l.581 1.25q-.546.528-1.373.827a5 5 0 0 1-1.636.281m8.36 0q-1.444 0-2.183-.774-.74-.792-.739-2.358v-4.524h-1.725V70.63h1.725v-2.341l1.778-.475v2.816h2.464v1.372h-2.464v4.365q0 .986.352 1.408.352.423 1.02.423.335 0 .581-.053.265-.07.475-.159v1.444q-.264.105-.616.158-.351.07-.668.07M486.485 100.5v-6.74q0-.511-.053-1.04a33 33 0 0 0-.088-1.09h1.725l.158 1.865h-.211q.37-.968 1.127-1.496.774-.528 1.848-.528 1.091 0 1.777.528.704.51.968 1.584h-.281a3.04 3.04 0 0 1 1.196-1.531q.846-.58 1.954-.58 1.479 0 2.218.862t.739 2.675v5.491h-1.778v-5.403q0-1.162-.405-1.672-.387-.528-1.267-.528-1.02 0-1.619.704-.598.705-.598 1.9v4.999h-1.778v-5.403q0-1.162-.405-1.672-.387-.528-1.267-.528-1.02 0-1.602.704-.58.705-.58 1.9v4.999zm19.02.158q-1.179 0-2.059-.545-.88-.546-1.373-1.584-.475-1.038-.475-2.464 0-1.444.475-2.464.493-1.02 1.373-1.567.88-.563 2.059-.563 1.162 0 2.024.581.863.58 1.144 1.584h-.193l.176-2.006h1.725l-.106 1.09q-.036.529-.035 1.04v6.74h-1.778v-1.971h.194a2.72 2.72 0 0 1-1.162 1.566q-.863.564-1.989.563m.44-1.39q1.144 0 1.831-.81.704-.81.704-2.393 0-1.584-.704-2.376-.687-.81-1.831-.81-1.161 0-1.865.81-.687.792-.687 2.376t.687 2.393q.686.81 1.865.81m5.621 1.232 4.031-4.998v.844l-3.819-4.716h2.129l2.693 3.467h-.634l2.693-3.467h2.112l-3.784 4.699v-.81L521 100.5h-2.13l-2.904-3.714h.634l-2.922 3.714zm10.789 0v-8.87h1.778v8.87zm-.14-10.718v-1.848h2.059v1.848zm4.523 10.718v-6.74q0-.511-.053-1.04a31 31 0 0 0-.088-1.09h1.725l.159 1.865h-.212q.37-.968 1.127-1.496.774-.528 1.848-.528 1.091 0 1.777.528.705.51.968 1.584h-.281a3.04 3.04 0 0 1 1.197-1.531q.845-.58 1.953-.58 1.479 0 2.218.862.74.862.739 2.675v5.491h-1.778v-5.403q0-1.162-.404-1.672-.388-.528-1.268-.528-1.02 0-1.619.704-.598.705-.598 1.9v4.999h-1.778v-5.403q0-1.162-.405-1.672-.387-.528-1.267-.528-1.02 0-1.601.704-.582.705-.581 1.9v4.999zm19.02.158q-1.179 0-2.059-.545-.88-.546-1.373-1.584-.475-1.038-.475-2.464 0-1.444.475-2.464.494-1.02 1.373-1.567.88-.563 2.059-.563 1.163 0 2.024.581.863.58 1.144 1.584h-.193l.176-2.006h1.725l-.106 1.09a16 16 0 0 0-.035 1.04v6.74h-1.778v-1.971h.194a2.72 2.72 0 0 1-1.162 1.566q-.863.564-1.989.563m.44-1.39q1.144 0 1.831-.81.704-.81.704-2.393 0-1.584-.704-2.376-.687-.81-1.831-.81-1.161 0-1.865.81-.687.792-.687 2.376t.687 2.393 1.865.81m6.889 1.232V87.546h1.777V100.5z" />
    <path fill="var(--fi-wheel-label-background, #f6f5f2)" stroke="var(--fl-fgColor, transparent)" d="M475.175 342h91v43h-91z" />
    <path fill="var(--fi-wheel-content-emphasis, #a93031)" d="M493.63 359.5v-12.408h1.831V359.5zm4.586 0v-6.741q0-.51-.053-1.038a36 36 0 0 0-.088-1.091h1.725l.158 1.865h-.211q.37-.968 1.126-1.496.774-.528 1.848-.528 1.091 0 1.778.528.704.51.968 1.584h-.282a3.04 3.04 0 0 1 1.197-1.531q.844-.58 1.954-.581 1.478 0 2.217.863.74.862.739 2.675v5.491h-1.777v-5.403q0-1.162-.405-1.672-.388-.528-1.267-.528-1.022 0-1.619.704-.599.704-.599 1.901v4.998h-1.777v-5.403q0-1.162-.405-1.672-.387-.528-1.267-.528-1.021 0-1.602.704-.58.704-.581 1.901v4.998zm15.623 3.802v-10.543q0-.51-.053-1.038a33 33 0 0 0-.088-1.091h1.725l.176 2.006h-.194a2.77 2.77 0 0 1 1.127-1.584q.862-.58 2.041-.581 1.18 0 2.06.563.88.546 1.355 1.567.492 1.02.493 2.464 0 1.425-.493 2.464-.476 1.038-1.355 1.584-.88.546-2.06.545-1.161 0-2.024-.563a2.77 2.77 0 0 1-1.126-1.566h.194v5.773zm4.294-5.034q1.163 0 1.848-.81.705-.809.704-2.393 0-1.584-.704-2.376-.685-.81-1.848-.81-1.161 0-1.865.81-.687.792-.687 2.376t.687 2.393q.704.81 1.865.81m9.828 1.39q-1.18 0-2.059-.545-.88-.546-1.373-1.584-.475-1.038-.475-2.464 0-1.444.475-2.464.492-1.021 1.373-1.567.88-.563 2.059-.563 1.161 0 2.024.581.862.58 1.144 1.584h-.194l.176-2.006h1.725l-.106 1.091q-.035.528-.035 1.038v6.741h-1.777v-1.971h.193a2.73 2.73 0 0 1-1.161 1.566q-.863.563-1.989.563m.44-1.39q1.144 0 1.83-.81.705-.809.704-2.393 0-1.584-.704-2.376-.686-.81-1.83-.81-1.162 0-1.866.81-.686.792-.686 2.376t.686 2.393q.687.81 1.866.81m10.778 1.39q-1.338 0-2.341-.545a3.9 3.9 0 0 1-1.531-1.602q-.528-1.056-.528-2.499 0-1.425.545-2.446a3.68 3.68 0 0 1 1.531-1.549q.986-.546 2.324-.546.862 0 1.672.299.809.282 1.337.81l-.581 1.25a3.2 3.2 0 0 0-1.108-.704 3.2 3.2 0 0 0-1.197-.247q-1.268 0-1.989.81t-.722 2.341q0 1.548.722 2.376.721.827 1.989.827.562 0 1.179-.211a3.2 3.2 0 0 0 1.126-.722l.581 1.25q-.546.527-1.373.827a5 5 0 0 1-1.636.281m8.36 0q-1.444 0-2.183-.774-.74-.792-.739-2.358v-4.524h-1.725v-1.372h1.725v-2.341l1.778-.475v2.816h2.464v1.372h-2.464v4.365q0 .986.352 1.408.352.423 1.02.423.335 0 .581-.053.265-.07.475-.159v1.444q-.264.105-.616.158-.351.07-.668.07M489.201 380.5v-6.741q0-.51-.053-1.038a36 36 0 0 0-.088-1.091h1.725l.158 1.865h-.211q.37-.968 1.126-1.496.776-.528 1.848-.528 1.091 0 1.778.528.704.51.968 1.584h-.282a3.04 3.04 0 0 1 1.197-1.531q.845-.58 1.954-.581 1.478 0 2.217.863.74.862.74 2.675v5.491H500.5v-5.403q0-1.162-.405-1.672-.387-.528-1.267-.528-1.021 0-1.619.704t-.599 1.901v4.998h-1.777v-5.403q0-1.162-.405-1.672-.388-.528-1.267-.528-1.021 0-1.602.704-.58.704-.581 1.901v4.998zm15.623 0v-8.87h1.778v8.87zm-.141-10.718v-1.848h2.06v1.848zm4.524 10.718v-6.741q0-.51-.053-1.038a33 33 0 0 0-.088-1.091h1.725l.158 1.865h-.211q.405-.986 1.25-1.496.844-.528 1.953-.528 1.567 0 2.359.863.81.862.809 2.675v5.491h-1.777v-5.386q0-1.179-.475-1.689-.458-.528-1.408-.528-1.127 0-1.796.704-.668.686-.668 1.865v5.034zm10.433 0v-8.87h1.777v8.87zm-.141-10.718v-1.848h2.059v1.848zm4.524 10.718v-6.741q0-.51-.053-1.038a36 36 0 0 0-.088-1.091h1.725l.158 1.865h-.211q.37-.968 1.126-1.496.774-.528 1.848-.528 1.091 0 1.778.528.704.51.968 1.584h-.282a3.04 3.04 0 0 1 1.197-1.531q.844-.58 1.954-.581 1.477 0 2.217.863.74.862.739 2.675v5.491h-1.777v-5.403q0-1.162-.405-1.672-.388-.528-1.267-.528-1.021 0-1.619.704t-.599 1.901v4.998h-1.777v-5.403q0-1.162-.405-1.672-.388-.528-1.267-.528-1.022 0-1.602.704t-.581 1.901v4.998zm19.02.158q-1.18 0-2.059-.545-.88-.546-1.373-1.584-.475-1.038-.475-2.464 0-1.444.475-2.464.492-1.021 1.373-1.567.88-.563 2.059-.563 1.161 0 2.024.581.862.58 1.144 1.584h-.194l.176-2.006h1.725l-.106 1.091q-.035.528-.035 1.038v6.741H546v-1.971h.193a2.73 2.73 0 0 1-1.161 1.566q-.863.563-1.989.563m.44-1.39q1.144 0 1.83-.81.705-.809.704-2.393 0-1.584-.704-2.376-.686-.81-1.83-.81-1.162 0-1.866.81-.686.792-.686 2.376t.686 2.393q.687.81 1.866.81m6.888 1.232v-12.954h1.778V380.5z" />
    <path fill="var(--fi-wheel-content, #161616)" d="M876.485 474v-12.408h5.262q1.989 0 3.045.968 1.074.951 1.074 2.64t-1.074 2.658q-1.056.968-3.045.968h-3.432V474zm1.83-6.635h3.239q1.25 0 1.883-.563.634-.564.634-1.602 0-1.022-.634-1.584-.633-.563-1.883-.563h-3.239zm12.985 6.793q-1.32 0-2.288-.545a3.83 3.83 0 0 1-1.496-1.584q-.528-1.038-.528-2.464t.528-2.447a3.7 3.7 0 0 1 1.496-1.584q.968-.563 2.288-.563t2.288.563a3.66 3.66 0 0 1 1.514 1.584q.545 1.021.545 2.447 0 1.425-.545 2.464a3.8 3.8 0 0 1-1.514 1.584q-.968.546-2.288.545m0-1.39q1.163 0 1.848-.81.687-.809.687-2.393t-.687-2.376q-.685-.81-1.848-.81-1.144 0-1.83.81-.687.792-.687 2.376t.669 2.393q.687.81 1.848.81m6.425 1.232v-12.954h1.778V474zm4.383 0v-8.87h1.777V474zm-.141-10.718v-1.848h2.059v1.848zm7.973 10.876q-1.443 0-2.182-.774-.74-.792-.739-2.358v-4.524h-1.725v-1.372h1.725v-2.341l1.777-.475v2.816h2.464v1.372h-2.464v4.365q0 .986.352 1.408.352.423 1.021.423.335 0 .581-.053.264-.07.475-.159v1.444q-.264.105-.616.158-.352.07-.669.07m2.944-.158v-8.87h1.778V474zm-.14-10.718v-1.848h2.059v1.848zm10.877 14.52v-5.773h.193a2.72 2.72 0 0 1-1.161 1.566q-.863.563-1.989.563-1.179 0-2.059-.545-.88-.546-1.373-1.584-.475-1.038-.475-2.464 0-1.444.475-2.464.493-1.021 1.373-1.567.88-.563 2.059-.563 1.161 0 2.024.581.862.58 1.144 1.584h-.194l.176-2.006h1.725l-.105 1.091a15 15 0 0 0-.036 1.038v10.543zm-2.517-5.034q1.145 0 1.83-.81.705-.809.704-2.393 0-1.584-.704-2.376-.686-.81-1.83-.81-1.161 0-1.866.81-.686.792-.686 2.376t.686 2.393 1.866.81m10.039 1.39q-1.602 0-2.412-.862-.792-.88-.792-2.693v-5.473h1.778v5.438q0 1.109.458 1.637.457.528 1.39.528 1.056 0 1.707-.704t.651-1.866v-5.033h1.778V474h-1.725v-1.901h.229q-.369.986-1.179 1.531-.81.528-1.883.528m11.263 0q-2.148 0-3.38-1.214t-1.232-3.362q0-1.39.528-2.428a3.95 3.95 0 0 1 1.496-1.602q.969-.58 2.236-.581 1.25 0 2.094.528t1.285 1.496q.44.951.44 2.253v.563h-6.688v-1.021h5.473l-.299.229q0-1.32-.598-2.041-.581-.74-1.69-.74-1.232 0-1.901.863-.669.844-.668 2.341v.176q0 1.566.756 2.358.775.792 2.183.792.774 0 1.443-.211a4 4 0 0 0 1.302-.739l.581 1.214a4.3 4.3 0 0 1-1.496.845 6 6 0 0 1-1.865.281m8.551 0a7 7 0 0 1-2.041-.281q-.933-.282-1.549-.792l.546-1.215q.651.493 1.443.74a5.4 5.4 0 0 0 1.619.246q.967 0 1.461-.334.492-.353.493-.951a.94.94 0 0 0-.317-.739q-.3-.282-1.003-.422l-1.69-.335q-1.127-.246-1.707-.845-.58-.598-.581-1.531 0-.792.422-1.408.44-.615 1.232-.968.81-.351 1.884-.352.986 0 1.83.282t1.408.809l-.563 1.18a4 4 0 0 0-1.232-.704 3.9 3.9 0 0 0-1.391-.264q-.986 0-1.46.369a1.17 1.17 0 0 0-.476.968q0 .458.282.757.298.281.933.44l1.689.334q1.197.248 1.796.81.598.563.598 1.514 0 .826-.458 1.443-.457.615-1.267.933-.81.316-1.901.316m13.81 0q-1.161 0-2.059-.545-.88-.546-1.373-1.584-.475-1.038-.475-2.464 0-1.444.475-2.464.493-1.021 1.373-1.567.897-.563 2.059-.563 1.145 0 2.007.581.879.563 1.161 1.549h-.211v-6.055h1.778V474h-1.76v-2.006h.211a2.84 2.84 0 0 1-1.162 1.584q-.862.58-2.024.58m.44-1.39q1.144 0 1.848-.81.704-.809.704-2.393t-.704-2.376q-.703-.81-1.848-.81-1.161 0-1.865.81-.687.792-.687 2.376t.687 2.393q.704.81 1.865.81m7.54-6.934-.775-.599q.51-.528.687-.985.193-.476.193-.951l.475.37h-1.478v-2.077h2.094v1.426q0 .791-.264 1.478-.264.669-.932 1.338m6.922 8.324q-1.18 0-2.059-.545-.88-.546-1.373-1.584-.475-1.038-.475-2.464 0-1.444.475-2.464.492-1.021 1.373-1.567.88-.563 2.059-.563 1.161 0 2.024.581.862.58 1.144 1.584h-.194l.176-2.006h1.725l-.106 1.091q-.035.528-.035 1.038V474h-1.777v-1.971h.193a2.73 2.73 0 0 1-1.161 1.566q-.863.563-1.989.563m.44-1.39q1.144 0 1.83-.81.704-.809.704-2.393t-.704-2.376q-.686-.81-1.83-.81-1.162 0-1.866.81-.686.792-.686 2.376t.686 2.393 1.866.81m6.888 1.232v-8.87h1.778V474zm-.141-10.718v-1.848h2.059v1.848zm7.921 10.876q-1.162 0-2.06-.545-.88-.546-1.372-1.584-.476-1.038-.476-2.464 0-1.444.476-2.464.493-1.021 1.372-1.567.898-.563 2.06-.563 1.143 0 2.006.581a2.65 2.65 0 0 1 1.162 1.549h-.212v-6.055h1.778V474h-1.76v-2.006h.211a2.84 2.84 0 0 1-1.161 1.584q-.863.58-2.024.58m.44-1.39q1.143 0 1.848-.81.704-.809.704-2.393t-.704-2.376q-.705-.81-1.848-.81-1.163 0-1.866.81-.687.792-.686 2.376 0 1.584.686 2.393.703.81 1.866.81m10.993 1.39c-1.44 0-2.56-.404-3.38-1.214s-1.24-1.93-1.24-3.362c0-.927.18-1.736.53-2.428.37-.693.86-1.227 1.5-1.602.64-.387 1.39-.581 2.23-.581s1.53.176 2.1.528c.56.352.99.851 1.28 1.496.3.634.44 1.385.44 2.253v.563h-6.69v-1.021h5.48l-.3.229q0-1.32-.6-2.041c-.39-.493-.95-.74-1.69-.74-.82 0-1.45.288-1.9.863-.45.563-.67 1.343-.67 2.341v.176c0 1.044.25 1.83.76 2.358s1.24.792 2.18.792q.78 0 1.44-.211c.46-.153.9-.399 1.31-.739l.58 1.214q-.615.546-1.5.845-.885.281-1.86.281m13.24 0q-1.11 0-2.04-.281c-.62-.188-1.14-.452-1.55-.792l.54-1.215c.44.329.92.575 1.45.74a5.5 5.5 0 0 0 1.62.246c.64 0 1.13-.111 1.46-.334.33-.235.49-.552.49-.951 0-.305-.1-.551-.32-.739-.2-.188-.53-.329-1-.422l-1.69-.335q-1.125-.246-1.71-.845c-.38-.399-.58-.909-.58-1.531 0-.528.14-.997.43-1.408q.435-.615 1.23-.968c.54-.234 1.17-.352 1.88-.352q.99 0 1.83.282t1.41.809l-.56 1.18c-.37-.305-.78-.54-1.24-.704a3.8 3.8 0 0 0-1.39-.264c-.65 0-1.14.123-1.46.369-.31.247-.47.569-.47.968 0 .305.09.558.28.757q.3.281.93.44l1.69.334q1.2.248 1.8.81t.6 1.514a2.4 2.4 0 0 1-.46 1.443c-.31.41-.73.721-1.27.933-.54.211-1.17.316-1.9.316m9.52 0c-.88 0-1.64-.181-2.29-.545a3.84 3.84 0 0 1-1.49-1.584c-.35-.692-.53-1.514-.53-2.464 0-.951.18-1.766.53-2.447.35-.692.85-1.22 1.49-1.584.65-.375 1.41-.563 2.29-.563s1.64.188 2.29.563c.66.364 1.16.892 1.51 1.584.37.681.55 1.496.55 2.447 0 .95-.18 1.772-.55 2.464-.35.68-.85 1.208-1.51 1.584-.65.364-1.41.545-2.29.545m0-1.39c.78 0 1.39-.27 1.85-.81q.69-.809.69-2.393t-.69-2.376c-.46-.54-1.07-.81-1.85-.81q-1.14 0-1.83.81c-.46.528-.68 1.32-.68 2.376q0 1.584.66 2.393c.46.54 1.08.81 1.85.81m10.32 1.39q-1.35 0-2.34-.545a3.93 3.93 0 0 1-1.54-1.602c-.35-.704-.52-1.537-.52-2.499q0-1.425.54-2.446.555-1.021 1.53-1.549c.66-.364 1.43-.546 2.33-.546.57 0 1.13.1 1.67.299.54.188.98.458 1.34.81l-.58 1.25q-.495-.476-1.11-.704a3.2 3.2 0 0 0-1.2-.247c-.85 0-1.51.27-1.99.81q-.72.81-.72 2.341 0 1.548.72 2.376c.48.551 1.14.827 1.99.827.38 0 .77-.071 1.18-.211.41-.153.79-.393 1.13-.722l.58 1.25q-.555.527-1.38.827c-.54.188-1.08.281-1.63.281m4.89-.158v-8.87h1.78V474zm-.14-10.718v-1.848h2.06v1.848zm7.92 10.876c-.79 0-1.47-.181-2.06-.545s-1.04-.892-1.37-1.584q-.48-1.038-.48-2.464 0-1.444.48-2.464c.33-.681.78-1.203 1.37-1.567.59-.375 1.27-.563 2.06-.563.77 0 1.45.194 2.02.581.58.387.96.915 1.15 1.584h-.2l.18-2.006h1.72c-.03.363-.07.727-.1 1.091-.02.352-.04.698-.04 1.038V474h-1.77v-1.971h.19a2.76 2.76 0 0 1-1.16 1.566c-.58.376-1.24.563-1.99.563m.44-1.39q1.14 0 1.83-.81c.47-.539.7-1.337.7-2.393s-.23-1.848-.7-2.376q-.69-.81-1.83-.81c-.78 0-1.4.27-1.87.81-.45.528-.68 1.32-.68 2.376s.23 1.854.68 2.393c.46.54 1.08.81 1.87.81m6.89 1.232v-12.954h1.78V474zm8.48.158c-1.43 0-2.56-.404-3.38-1.214q-1.23-1.214-1.23-3.362c0-.927.18-1.736.53-2.428.36-.693.86-1.227 1.49-1.602.65-.387 1.39-.581 2.24-.581.83 0 1.53.176 2.09.528a3.3 3.3 0 0 1 1.29 1.496c.29.634.44 1.385.44 2.253v.563h-6.69v-1.021h5.47l-.3.229c0-.88-.19-1.56-.59-2.041-.39-.493-.95-.74-1.69-.74-.82 0-1.46.288-1.9.863-.45.563-.67 1.343-.67 2.341v.176q0 1.566.75 2.358.78.792 2.19.792.765 0 1.44-.211c.46-.153.89-.399 1.3-.739l.58 1.214c-.41.364-.91.645-1.49.845-.59.188-1.21.281-1.87.281" />
    <path fill="var(--fi-wheel-content-emphasis, #a93031)" d="M671.717 733.158q-1.902 0-3.239-.774a5.2 5.2 0 0 1-2.059-2.2q-.704-1.443-.704-3.397t.704-3.379a5.2 5.2 0 0 1 2.059-2.2q1.337-.774 3.239-.774 1.32 0 2.358.387a5.25 5.25 0 0 1 1.813 1.126l-.634 1.461q-.844-.721-1.654-1.038-.792-.317-1.848-.317-2.007 0-3.063 1.232t-1.056 3.502 1.056 3.52q1.056 1.233 3.063 1.232 1.056 0 1.848-.317.81-.317 1.654-1.056l.634 1.461a5.5 5.5 0 0 1-1.813 1.144q-1.038.387-2.358.387m9.493 0q-1.32 0-2.288-.545a3.83 3.83 0 0 1-1.496-1.584q-.528-1.038-.528-2.464t.528-2.447a3.7 3.7 0 0 1 1.496-1.584q.968-.563 2.288-.563t2.288.563a3.66 3.66 0 0 1 1.514 1.584q.546 1.021.546 2.447t-.546 2.464a3.8 3.8 0 0 1-1.514 1.584q-.968.546-2.288.545m0-1.39q1.162 0 1.848-.81.687-.809.687-2.393t-.687-2.376q-.686-.81-1.848-.81-1.143 0-1.83.81-.687.792-.686 2.376 0 1.584.668 2.393.687.81 1.848.81m9.576 1.39q-1.602 0-2.412-.862-.792-.88-.792-2.693v-5.473h1.778v5.438q0 1.109.458 1.637.457.528 1.39.528 1.056 0 1.707-.704t.651-1.866v-5.033h1.778V733h-1.725v-1.901h.229q-.369.986-1.179 1.531-.81.528-1.883.528m-2.042-9.908 1.936-3.556h1.619l1.936 3.556h-1.179l-1.566-2.464-1.567 2.464zm12.653 9.908q-1.443 0-2.182-.774-.74-.792-.739-2.358v-4.524h-1.725v-1.372h1.725v-2.341l1.777-.475v2.816h2.464v1.372h-2.464v4.365q0 .986.352 1.408.352.423 1.021.423.335 0 .581-.053.264-.07.475-.159v1.444q-.264.105-.616.158-.352.07-.669.07m11.034 0q-1.162 0-2.06-.545-.88-.546-1.372-1.584-.476-1.038-.476-2.464 0-1.443.476-2.464.492-1.021 1.372-1.567.898-.563 2.06-.563 1.143 0 2.006.581a2.65 2.65 0 0 1 1.162 1.549h-.212v-6.055h1.778V733h-1.76v-2.006h.211a2.84 2.84 0 0 1-1.161 1.584q-.863.58-2.024.58m.44-1.39q1.143 0 1.848-.81.704-.809.704-2.393t-.704-2.376q-.705-.81-1.848-.81-1.163 0-1.866.81-.687.792-.686 2.376 0 1.584.686 2.393.703.81 1.866.81m10.989 1.39q-2.148 0-3.38-1.214t-1.232-3.362q0-1.39.528-2.428a3.95 3.95 0 0 1 1.496-1.602q.969-.58 2.236-.581 1.25 0 2.094.528t1.285 1.496q.44.951.44 2.253v.563h-6.688v-1.021h5.473l-.299.229q0-1.32-.598-2.041-.581-.74-1.69-.74-1.232 0-1.901.863-.668.844-.668 2.341v.176q0 1.566.756 2.358.775.792 2.183.792.774 0 1.443-.211a4 4 0 0 0 1.302-.739l.581 1.214a4.3 4.3 0 0 1-1.496.845 6 6 0 0 1-1.865.281m10.199-.158v-12.954h1.777V733zm7.779.158q-1.179 0-2.059-.545-.88-.546-1.373-1.584-.475-1.038-.475-2.464 0-1.443.475-2.464.493-1.021 1.373-1.567.88-.563 2.059-.563 1.162 0 2.024.581.863.58 1.144 1.584h-.193l.176-2.006h1.725l-.106 1.091a15 15 0 0 0-.035 1.038V733h-1.778v-1.971h.194a2.72 2.72 0 0 1-1.162 1.566q-.863.563-1.989.563m.44-1.39q1.144 0 1.831-.81.704-.809.704-2.393t-.704-2.376q-.687-.81-1.831-.81-1.161 0-1.865.81-.687.792-.687 2.376t.687 2.393q.686.81 1.865.81M756.464 733l-3.802-8.87h1.901l2.992 7.409h-.511l3.045-7.409h1.813l-3.819 8.87zm6.848 0v-8.87h1.777V733zm-.141-10.718v-1.848h2.059v1.848zm8.624 10.876q-2.146 0-3.379-1.214-1.232-1.214-1.232-3.362 0-1.39.528-2.428a3.95 3.95 0 0 1 1.496-1.602q.969-.58 2.235-.581 1.25 0 2.095.528.844.528 1.285 1.496.44.951.44 2.253v.563h-6.688v-1.021h5.473l-.299.229q0-1.32-.598-2.041-.582-.74-1.69-.74-1.232 0-1.901.863-.669.844-.669 2.341v.176q0 1.566.757 2.358.775.792 2.183.792.774 0 1.443-.211a4 4 0 0 0 1.302-.739l.581 1.214a4.3 4.3 0 0 1-1.496.845 6 6 0 0 1-1.866.281" />
    <path fill="var(--fi-wheel-content, #161616)" d="M855.774 219.158q-1.496 0-2.711-.369a6.7 6.7 0 0 1-2.112-1.091l.616-1.444q.599.458 1.232.757.652.3 1.373.458a8.6 8.6 0 0 0 1.602.141q1.478 0 2.165-.528.704-.528.704-1.391 0-.74-.493-1.144-.475-.405-1.69-.651l-1.918-.387q-1.707-.352-2.552-1.144-.828-.81-.827-2.2 0-1.126.598-1.971t1.654-1.303q1.074-.457 2.5-.457 1.32 0 2.428.387 1.11.37 1.866 1.109l-.598 1.39a5.2 5.2 0 0 0-1.69-1.003q-.897-.335-2.042-.335-1.355 0-2.129.564-.757.562-.757 1.531 0 .774.475 1.214.493.44 1.619.669l1.919.37q1.778.369 2.622 1.144.845.756.845 2.094 0 1.073-.581 1.883-.563.81-1.619 1.267-1.056.44-2.499.44m10.188 0q-1.443 0-2.182-.774-.74-.792-.739-2.358v-4.524h-1.725v-1.372h1.725v-2.341l1.777-.475v2.816h2.464v1.372h-2.464v4.365q0 .986.352 1.408.352.423 1.021.423.335 0 .581-.053.264-.07.475-.159v1.444q-.264.105-.616.158-.352.07-.669.07m2.944-.158v-8.87h1.778V219zm-.14-10.718v-1.848h2.059v1.848zm8.518 14.66a8 8 0 0 1-2.182-.281 5.6 5.6 0 0 1-1.742-.845l.44-1.302q.545.37 1.073.58.528.229 1.109.335.58.105 1.197.105 1.267 0 1.901-.651.651-.633.651-1.848v-2.376h.176a2.73 2.73 0 0 1-1.162 1.567q-.863.563-2.006.563-1.215 0-2.112-.528a3.7 3.7 0 0 1-1.373-1.531q-.475-1.003-.475-2.359 0-1.355.475-2.341.492-.985 1.373-1.513.897-.546 2.112-.546 1.161 0 2.006.581.862.563 1.144 1.549l-.158-.141.158-1.83h1.725a17 17 0 0 0-.141 2.129v6.565q0 2.006-1.073 3.062-1.056 1.056-3.116 1.056m-.123-5.544q1.163 0 1.848-.792.704-.792.704-2.235t-.704-2.217q-.686-.775-1.848-.775-1.197 0-1.901.775-.686.774-.686 2.217t.686 2.235q.705.792 1.901.792m6.905 1.602v-6.741q0-.51-.053-1.038a36 36 0 0 0-.088-1.091h1.725l.158 1.865h-.211q.37-.968 1.126-1.496.776-.528 1.848-.528 1.091 0 1.778.528.704.51.968 1.584h-.282a3.04 3.04 0 0 1 1.197-1.531q.844-.58 1.954-.581 1.478 0 2.217.863.74.862.739 2.675V219h-1.777v-5.403q0-1.162-.405-1.672-.387-.528-1.267-.528-1.021 0-1.619.704t-.599 1.901V219h-1.777v-5.403q0-1.162-.405-1.672-.388-.528-1.267-.528-1.021 0-1.602.704-.58.704-.581 1.901V219zm19.02.158q-1.18 0-2.059-.545-.88-.546-1.373-1.584-.475-1.038-.475-2.464 0-1.443.475-2.464.492-1.021 1.373-1.567.88-.563 2.059-.563 1.161 0 2.024.581.862.58 1.144 1.584h-.194l.176-2.006h1.725l-.105 1.091a15 15 0 0 0-.036 1.038V219h-1.777v-1.971h.193a2.72 2.72 0 0 1-1.161 1.566q-.863.563-1.989.563m.44-1.39q1.145 0 1.83-.81.705-.809.704-2.393 0-1.584-.704-2.376-.685-.81-1.83-.81-1.161 0-1.866.81-.686.792-.686 2.376t.686 2.393q.687.81 1.866.81m10.338 1.39q-1.443 0-2.183-.774-.739-.792-.739-2.358v-4.524h-1.725v-1.372h1.725v-2.341l1.778-.475v2.816h2.464v1.372h-2.464v4.365q0 .986.352 1.408.352.423 1.021.423.334 0 .58-.053.264-.07.476-.159v1.444a2.8 2.8 0 0 1-.616.158q-.352.07-.669.07m2.944-.158v-8.87h1.777V219zm-.141-10.718v-1.848h2.059v1.848zm7.568 10.876a7 7 0 0 1-2.041-.281q-.933-.282-1.549-.792l.546-1.215q.651.493 1.443.74a5.4 5.4 0 0 0 1.619.246q.967 0 1.461-.334.492-.353.493-.951a.94.94 0 0 0-.317-.739q-.3-.282-1.003-.422l-1.69-.335q-1.126-.246-1.707-.845-.58-.598-.581-1.531 0-.792.422-1.408.44-.615 1.232-.968.81-.351 1.884-.352.986 0 1.83.282t1.408.809l-.563 1.18a4 4 0 0 0-1.232-.704 3.9 3.9 0 0 0-1.391-.264q-.986 0-1.46.369a1.17 1.17 0 0 0-.476.968q0 .458.282.757.3.281.933.44l1.689.334q1.197.248 1.796.81.598.563.598 1.514 0 .826-.457 1.443-.458.615-1.268.933-.809.316-1.901.316m9.118 0q-1.179 0-2.059-.545-.88-.546-1.373-1.584-.475-1.038-.475-2.464 0-1.443.475-2.464.493-1.021 1.373-1.567.88-.563 2.059-.563 1.162 0 2.024.581.862.58 1.144 1.584h-.193l.176-2.006h1.724l-.105 1.091a15 15 0 0 0-.035 1.038V219h-1.778v-1.971h.194a2.72 2.72 0 0 1-1.162 1.566q-.863.563-1.989.563m.44-1.39q1.144 0 1.831-.81.704-.809.704-2.393t-.704-2.376q-.687-.81-1.831-.81-1.161 0-1.865.81-.687.792-.687 2.376t.687 2.393q.686.81 1.865.81m10.338 1.39q-1.443 0-2.182-.774-.74-.792-.74-2.358v-4.524h-1.724v-1.372h1.724v-2.341l1.778-.475v2.816h2.464v1.372h-2.464v4.365q0 .986.352 1.408.352.423 1.021.423.334 0 .581-.053.264-.07.475-.159v1.444a2.8 2.8 0 0 1-.616.158q-.352.07-.669.07m2.944-.158v-8.87h1.778V219zm-.141-10.718v-1.848h2.059v1.848zm8.325 10.876q-1.32 0-2.288-.545a3.83 3.83 0 0 1-1.496-1.584q-.528-1.038-.528-2.464t.528-2.447a3.7 3.7 0 0 1 1.496-1.584q.968-.563 2.288-.563t2.288.563a3.66 3.66 0 0 1 1.514 1.584q.546 1.021.546 2.447 0 1.425-.546 2.464a3.8 3.8 0 0 1-1.514 1.584q-.968.546-2.288.545m0-1.39q1.162 0 1.848-.81.687-.809.687-2.393t-.687-2.376q-.686-.81-1.848-.81-1.143 0-1.83.81-.687.792-.686 2.376 0 1.584.668 2.393.687.81 1.848.81m6.425 1.232v-6.741q0-.51-.052-1.038a36 36 0 0 0-.088-1.091h1.724l.159 1.865h-.211q.405-.986 1.249-1.496.845-.528 1.954-.528 1.566 0 2.358.863.81.862.81 2.675V219h-1.778v-5.386q0-1.179-.475-1.689-.457-.528-1.408-.528-1.126 0-1.795.704-.669.686-.669 1.865V219zm19.226.158q-2.147 0-3.379-1.214-1.232-1.215-1.232-3.362 0-1.39.528-2.428.546-1.04 1.496-1.602.968-.58 2.235-.581 1.25 0 2.095.528.844.528 1.284 1.496.44.951.44 2.253v.563h-6.688v-1.021h5.474l-.299.229q0-1.32-.599-2.041-.58-.74-1.689-.74-1.232 0-1.901.863-.669.844-.669 2.341v.176q0 1.566.757 2.358.774.792 2.182.792.775 0 1.444-.211a4.1 4.1 0 0 0 1.302-.739l.581 1.214a4.3 4.3 0 0 1-1.496.845 6.1 6.1 0 0 1-1.866.281m8.94 0q-1.443 0-2.183-.774-.74-.792-.739-2.358v-4.524h-1.725v-1.372h1.725v-2.341l1.778-.475v2.816h2.464v1.372h-2.464v4.365q0 .986.352 1.408.352.423 1.02.423.335 0 .581-.053.264-.07.475-.159v1.444q-.264.105-.616.158-.351.07-.668.07m7.636 3.644v-10.543q0-.51-.053-1.038a33 33 0 0 0-.088-1.091h1.725l.176 2.006h-.194a2.77 2.77 0 0 1 1.128-1.584q.855-.58 2.04-.581c.79 0 1.47.188 2.06.563q.885.546 1.35 1.567c.33.68.5 1.502.5 2.464 0 .95-.17 1.772-.5 2.464q-.465 1.038-1.35 1.584c-.59.364-1.27.545-2.06.545-.77 0-1.45-.187-2.02-.563a2.76 2.76 0 0 1-1.13-1.566h.194v5.773zm4.294-5.034c.77 0 1.39-.27 1.85-.81.47-.539.7-1.337.7-2.393s-.23-1.848-.7-2.376c-.46-.54-1.08-.81-1.85-.81s-1.4.27-1.865.81q-.687.792-.687 2.376t.687 2.393c.465.54 1.095.81 1.865.81m6.4 1.232v-6.67c0-.364-.02-.728-.04-1.092a13 13 0 0 0-.07-1.108h1.73l.19 2.288h-.28q.165-.827.6-1.373a2.6 2.6 0 0 1 1.02-.81c.41-.176.84-.264 1.28-.264q.285 0 .48.035c.13.012.25.036.38.071l-.01 1.584c-.2-.082-.38-.129-.53-.141a3.4 3.4 0 0 0-.53-.035q-.78 0-1.32.352c-.36.223-.64.528-.83.915s-.28.804-.28 1.25V219zm10.65.158c-1.44 0-2.56-.404-3.38-1.214s-1.24-1.93-1.24-3.362c0-.927.18-1.736.53-2.428q.555-1.04 1.5-1.602c.64-.387 1.39-.581 2.23-.581q1.26 0 2.1.528c.56.352.99.851 1.28 1.496.3.634.44 1.385.44 2.253v.563h-6.68v-1.021h5.47l-.3.229q0-1.32-.6-2.041c-.39-.493-.95-.74-1.69-.74-.82 0-1.45.288-1.9.863-.45.563-.67 1.343-.67 2.341v.176c0 1.044.25 1.83.76 2.358s1.24.792 2.18.792q.78 0 1.44-.211c.46-.153.9-.399 1.31-.739l.58 1.214q-.615.546-1.5.845-.885.281-1.86.281m-.97-9.891 1.81-3.555h1.81l-2.39 3.555zm5.43 13.623c-.18 0-.4-.018-.65-.053a2.6 2.6 0 0 1-.67-.176v-1.443q.24.07.51.123c.18.047.35.07.52.07.45 0 .8-.146 1.03-.44.25-.281.37-.751.37-1.408v-9.433h1.78v9.556c0 1.056-.23 1.854-.7 2.394q-.705.81-2.19.81m.95-14.608v-1.848h2.08v1.848zm7.63 10.876c-1.07 0-1.88-.287-2.42-.862-.52-.587-.79-1.484-.79-2.693v-5.473h1.78v5.438c0 .739.15 1.285.46 1.637.3.352.77.528 1.39.528q1.05 0 1.71-.704c.43-.47.65-1.091.65-1.866v-5.033h1.77V219h-1.72v-1.901h.23c-.25.657-.64 1.168-1.18 1.531-.54.352-1.17.528-1.88.528m11.15 3.784c-.79 0-1.52-.093-2.18-.281a5.6 5.6 0 0 1-1.74-.845l.44-1.302c.36.246.72.44 1.07.58q.525.229 1.11.335.585.105 1.2.105c.84 0 1.48-.217 1.9-.651.43-.422.65-1.038.65-1.848v-2.376h.18a2.74 2.74 0 0 1-1.17 1.567c-.57.375-1.24.563-2 .563-.81 0-1.52-.176-2.11-.528a3.7 3.7 0 0 1-1.38-1.531c-.31-.669-.47-1.455-.47-2.359s.16-1.684.47-2.341q.495-.985 1.38-1.513c.59-.364 1.3-.546 2.11-.546.77 0 1.44.194 2 .581.58.375.96.892 1.15 1.549l-.16-.141.16-1.83h1.72a20 20 0 0 0-.1 1.091c-.03.352-.04.698-.04 1.038v6.565c0 1.338-.36 2.358-1.07 3.062s-1.74 1.056-3.12 1.056m-.12-5.544c.77 0 1.39-.264 1.85-.792.47-.528.7-1.273.7-2.235s-.23-1.701-.7-2.217c-.46-.517-1.08-.775-1.85-.775-.8 0-1.43.258-1.9.775q-.69.774-.69 2.217t.69 2.235c.47.528 1.1.792 1.9.792m11.01 1.76c-1.44 0-2.56-.404-3.38-1.214s-1.24-1.93-1.24-3.362c0-.927.18-1.736.53-2.428.37-.693.86-1.227 1.5-1.602.64-.387 1.39-.581 2.23-.581s1.53.176 2.1.528c.56.352.99.851 1.28 1.496.3.634.44 1.385.44 2.253v.563h-6.69v-1.021h5.48l-.3.229q0-1.32-.6-2.041c-.39-.493-.95-.74-1.69-.74-.82 0-1.45.288-1.9.863-.45.563-.67 1.343-.67 2.341v.176c0 1.044.25 1.83.76 2.358s1.24.792 2.18.792q.78 0 1.44-.211c.46-.153.9-.399 1.31-.739l.58 1.214q-.615.546-1.5.845-.885.281-1.86.281m-.97-9.891 1.81-3.555h1.81l-2.39 3.555zm9.52 9.891q-1.11 0-2.04-.281c-.63-.188-1.14-.452-1.55-.792l.54-1.215c.44.329.92.575 1.45.74q.78.246 1.62.246c.64 0 1.13-.111 1.46-.334.32-.235.49-.552.49-.951a.95.95 0 0 0-.32-.739c-.2-.188-.53-.329-1-.422l-1.69-.335q-1.125-.246-1.71-.845c-.39-.399-.58-.909-.58-1.531q0-.792.42-1.408c.3-.41.71-.733 1.24-.968.54-.234 1.16-.352 1.88-.352q.99 0 1.83.282t1.41.809l-.57 1.18q-.54-.458-1.23-.704a3.9 3.9 0 0 0-1.39-.264c-.66 0-1.14.123-1.46.369-.32.247-.47.569-.47.968 0 .305.09.558.28.757q.3.281.93.44l1.69.334c.8.165 1.4.435 1.79.81q.6.563.6 1.514 0 .826-.45 1.443c-.31.41-.73.721-1.27.933-.54.211-1.18.316-1.9.316M192.418 733v-12.408h1.602l4.787 10.789h-.528l4.787-10.789h1.584V733h-1.654v-9.926h.581L199.106 733h-1.144l-4.47-9.926h.598V733zm19.136.158q-2.147 0-3.379-1.214t-1.232-3.362q0-1.39.528-2.428.546-1.04 1.496-1.602.968-.58 2.235-.581 1.25 0 2.094.528.846.528 1.285 1.496.44.951.44 2.253v.563h-6.688v-1.021h5.474l-.299.229q0-1.32-.599-2.041-.58-.74-1.689-.74-1.233 0-1.901.863-.669.844-.669 2.341v.176q0 1.566.757 2.358.774.792 2.182.792.775 0 1.443-.211a4.1 4.1 0 0 0 1.303-.739l.581 1.214q-.617.545-1.496.845a6.1 6.1 0 0 1-1.866.281m8.552 0q-1.109 0-2.042-.281t-1.549-.792l.546-1.215q.651.493 1.443.74a5.4 5.4 0 0 0 1.619.246q.969 0 1.461-.334a1.11 1.11 0 0 0 .493-.951.94.94 0 0 0-.317-.739q-.299-.282-1.003-.422l-1.69-.335q-1.127-.246-1.707-.845-.58-.598-.581-1.531 0-.792.423-1.408.44-.615 1.232-.968.81-.351 1.883-.352.985 0 1.83.282t1.408.809l-.563 1.18a4 4 0 0 0-1.232-.704 3.8 3.8 0 0 0-1.39-.264q-.986 0-1.461.369a1.17 1.17 0 0 0-.475.968q0 .458.281.757.3.281.933.44l1.69.334q1.197.247 1.795.81t.598 1.514q0 .827-.457 1.443-.458.615-1.267.933-.81.316-1.901.316m8.871 0q-1.602 0-2.411-.862-.792-.88-.792-2.693v-5.473h1.777v5.438q0 1.109.458 1.637t1.39.528q1.056 0 1.708-.704t.651-1.866v-5.033h1.777V733h-1.724v-1.901h.228q-.369.986-1.179 1.531-.81.528-1.883.528m7.127-.158v-6.67q0-.546-.035-1.092a17 17 0 0 0-.071-1.108h1.725l.194 2.288h-.282q.176-.828.599-1.373a2.6 2.6 0 0 1 1.02-.81 3.23 3.23 0 0 1 1.76-.229q.193.018.388.071l-.018 1.584a1.8 1.8 0 0 0-.528-.141 3.4 3.4 0 0 0-.528-.035q-.774 0-1.32.352-.546.335-.827.915a2.8 2.8 0 0 0-.282 1.25V733zm10.65.158q-2.147 0-3.379-1.214t-1.232-3.362q0-1.39.528-2.428.546-1.04 1.496-1.602.967-.58 2.235-.581 1.25 0 2.094.528.846.528 1.285 1.496.44.951.44 2.253v.563h-6.688v-1.021h5.474l-.299.229q0-1.32-.599-2.041-.58-.74-1.689-.74-1.232 0-1.901.863-.669.844-.669 2.341v.176q0 1.566.757 2.358.774.792 2.182.792.775 0 1.443-.211a4.1 4.1 0 0 0 1.303-.739l.581 1.214q-.617.545-1.496.845a6.1 6.1 0 0 1-1.866.281m8.552 0q-1.109 0-2.042-.281t-1.549-.792l.546-1.215q.651.493 1.443.74a5.4 5.4 0 0 0 1.619.246q.969 0 1.461-.334a1.11 1.11 0 0 0 .493-.951.94.94 0 0 0-.317-.739q-.299-.282-1.003-.422l-1.69-.335q-1.126-.246-1.707-.845-.58-.598-.581-1.531 0-.792.423-1.408.44-.615 1.232-.968.81-.351 1.883-.352.985 0 1.83.282t1.408.809l-.563 1.18a4 4 0 0 0-1.232-.704 3.8 3.8 0 0 0-1.39-.264q-.986 0-1.461.369a1.17 1.17 0 0 0-.475.968q0 .458.281.757.3.281.933.44l1.69.334q1.197.247 1.795.81t.598 1.514q0 .827-.457 1.443-.458.615-1.267.933-.81.316-1.901.316m13.81 0q-1.162 0-2.06-.545-.88-.546-1.372-1.584-.476-1.038-.476-2.464 0-1.443.476-2.464.493-1.021 1.372-1.567.898-.563 2.06-.563 1.143 0 2.006.581a2.65 2.65 0 0 1 1.162 1.549h-.212v-6.055h1.778V733h-1.76v-2.006h.211a2.83 2.83 0 0 1-1.161 1.584q-.863.58-2.024.58m.44-1.39q1.143 0 1.848-.81.704-.809.704-2.393t-.704-2.376q-.705-.81-1.848-.81-1.162 0-1.866.81-.687.792-.686 2.376 0 1.584.686 2.393.704.81 1.866.81m7.539-6.934-.774-.599q.51-.528.686-.985.194-.476.194-.951l.475.37h-1.479v-2.077h2.095v1.426q0 .791-.264 1.478-.264.669-.933 1.338m6.922 8.324q-1.179 0-2.059-.545-.88-.546-1.373-1.584-.475-1.038-.475-2.464 0-1.443.475-2.464.493-1.021 1.373-1.567.88-.563 2.059-.563 1.162 0 2.024.581.862.58 1.144 1.584h-.193l.176-2.006h1.724l-.105 1.091a15 15 0 0 0-.035 1.038V733h-1.778v-1.971h.194a2.72 2.72 0 0 1-1.162 1.566q-.863.563-1.989.563m.44-1.39q1.144 0 1.831-.81.704-.809.704-2.393t-.704-2.376q-.687-.81-1.831-.81-1.161 0-1.865.81-.687.792-.687 2.376t.687 2.393q.686.81 1.865.81m10.285 1.39q-1.161 0-2.059-.545-.88-.546-1.373-1.584-.475-1.038-.475-2.464 0-1.443.475-2.464.493-1.021 1.373-1.567.898-.563 2.059-.563 1.144 0 2.007.581.879.563 1.161 1.549h-.211v-6.055h1.778V733h-1.76v-2.006h.211a2.84 2.84 0 0 1-1.162 1.584q-.862.58-2.024.58m.44-1.39q1.144 0 1.848-.81.705-.809.704-2.393 0-1.584-.704-2.376-.703-.81-1.848-.81-1.161 0-1.865.81-.687.792-.687 2.376t.687 2.393q.704.81 1.865.81m10.285 1.39q-1.179 0-2.059-.545-.88-.546-1.373-1.584-.475-1.038-.475-2.464 0-1.443.475-2.464.493-1.021 1.373-1.567.88-.563 2.059-.563 1.162 0 2.024.581.862.58 1.144 1.584h-.193l.176-2.006h1.724l-.105 1.091a15 15 0 0 0-.035 1.038V733h-1.778v-1.971h.194a2.72 2.72 0 0 1-1.162 1.566q-.863.563-1.989.563m.44-1.39q1.144 0 1.831-.81.704-.809.704-2.393t-.704-2.376q-.687-.81-1.831-.81-1.161 0-1.865.81-.687.792-.687 2.376t.687 2.393q.686.81 1.865.81m6.888 5.034v-10.543q0-.51-.052-1.038a36 36 0 0 0-.088-1.091h1.724l.176 2.006h-.193a2.77 2.77 0 0 1 1.126-1.584q.863-.58 2.042-.581 1.179 0 2.059.563.88.546 1.355 1.567.493 1.02.493 2.464 0 1.426-.493 2.464-.475 1.038-1.355 1.584t-2.059.545q-1.162 0-2.024-.563a2.77 2.77 0 0 1-1.127-1.566h.194v5.773zm4.295-5.034q1.161 0 1.848-.81.704-.809.704-2.393t-.704-2.376q-.687-.81-1.848-.81t-1.866.81q-.686.792-.686 2.376t.686 2.393q.704.81 1.866.81m9.794 1.39q-1.443 0-2.182-.774-.74-.792-.74-2.358v-4.524h-1.724v-1.372h1.724v-2.341l1.778-.475v2.816h2.464v1.372h-2.464v4.365q0 .986.352 1.408.352.423 1.021.423.334 0 .581-.053.264-.07.475-.159v1.444q-.264.105-.616.158-.353.07-.669.07m6.341 0q-1.18 0-2.059-.545-.88-.546-1.373-1.584-.475-1.038-.475-2.464 0-1.443.475-2.464.493-1.021 1.373-1.567.88-.563 2.059-.563 1.161 0 2.024.581.862.58 1.144 1.584h-.194l.176-2.006h1.725l-.105 1.091a15 15 0 0 0-.036 1.038V733h-1.777v-1.971h.193a2.72 2.72 0 0 1-1.161 1.566q-.863.563-1.989.563m.44-1.39q1.144 0 1.83-.81.704-.809.704-2.393t-.704-2.376q-.686-.81-1.83-.81-1.161 0-1.866.81-.686.792-.686 2.376t.686 2.393q.687.81 1.866.81m10.338 1.39q-1.443 0-2.183-.774-.738-.792-.739-2.358v-4.524h-1.725v-1.372h1.725v-2.341l1.778-.475v2.816h2.464v1.372h-2.464v4.365q0 .986.352 1.408.351.423 1.021.423.334 0 .58-.053.264-.07.476-.159v1.444a2.8 2.8 0 0 1-.616.158q-.352.07-.669.07m2.944-.158v-8.87h1.778V733zm-.141-10.718v-1.848h2.059v1.848zm8.325 10.876q-1.32 0-2.288-.545a3.83 3.83 0 0 1-1.496-1.584q-.528-1.038-.528-2.464t.528-2.447a3.7 3.7 0 0 1 1.496-1.584q.969-.563 2.288-.563 1.32 0 2.288.563a3.66 3.66 0 0 1 1.514 1.584q.546 1.021.546 2.447t-.546 2.464a3.8 3.8 0 0 1-1.514 1.584q-.968.546-2.288.545m0-1.39q1.163 0 1.848-.81.687-.809.687-2.393t-.687-2.376q-.685-.81-1.848-.81-1.143 0-1.83.81-.686.792-.686 2.376t.668 2.393q.687.81 1.848.81m6.425 1.232v-6.741q0-.51-.052-1.038a36 36 0 0 0-.088-1.091h1.724l.159 1.865h-.211q.404-.986 1.249-1.496.845-.528 1.954-.528 1.566 0 2.358.863.81.862.81 2.675V733h-1.778v-5.386q0-1.179-.475-1.689-.457-.528-1.408-.528-1.126 0-1.795.704-.669.686-.669 1.865V733zm19.226.158q-2.147 0-3.379-1.214t-1.232-3.362q0-1.39.528-2.428.545-1.04 1.496-1.602.967-.58 2.235-.581 1.25 0 2.095.528.844.528 1.284 1.496.44.951.44 2.253v.563h-6.688v-1.021h5.474l-.299.229q0-1.32-.599-2.041-.58-.74-1.689-.74-1.232 0-1.901.863-.669.844-.669 2.341v.176q0 1.566.757 2.358.775.792 2.182.792.775 0 1.444-.211a4.1 4.1 0 0 0 1.302-.739l.581 1.214q-.617.545-1.496.845a6.1 6.1 0 0 1-1.866.281m5.507-.158v-6.741q0-.51-.053-1.038a31 31 0 0 0-.088-1.091h1.725l.159 1.865h-.212q.405-.986 1.25-1.496.844-.528 1.954-.528 1.566 0 2.358.863.81.862.81 2.675V733h-1.778v-5.386q0-1.179-.475-1.689-.458-.528-1.408-.528-1.127 0-1.795.704-.669.686-.669 1.865V733zm19.226.158q-2.148 0-3.379-1.214-1.233-1.214-1.232-3.362 0-1.39.528-2.428a3.94 3.94 0 0 1 1.496-1.602q.967-.58 2.235-.581 1.25 0 2.094.528.846.528 1.285 1.496.44.951.44 2.253v.563h-6.688v-1.021h5.474l-.299.229q0-1.32-.599-2.041-.58-.74-1.689-.74-1.233 0-1.901.863-.669.844-.669 2.341v.176q0 1.566.757 2.358.774.792 2.182.792.774 0 1.443-.211a4.1 4.1 0 0 0 1.303-.739l.581 1.214q-.617.545-1.496.845a6.1 6.1 0 0 1-1.866.281m5.507-.158v-6.741q0-.51-.053-1.038a33 33 0 0 0-.088-1.091h1.725l.158 1.865h-.211q.37-.968 1.127-1.496.774-.528 1.848-.528 1.091 0 1.777.528.704.51.968 1.584h-.281a3.04 3.04 0 0 1 1.196-1.531q.846-.58 1.954-.581 1.479 0 2.218.863.739.862.739 2.675V733h-1.778v-5.403q0-1.162-.405-1.672-.387-.528-1.267-.528-1.02 0-1.619.704-.598.704-.598 1.901V733h-1.778v-5.403q0-1.162-.405-1.672-.387-.528-1.267-.528-1.02 0-1.602.704-.58.704-.58 1.901V733zm15.623 3.802v-10.543q0-.51-.052-1.038a36 36 0 0 0-.088-1.091h1.724l.176 2.006h-.193a2.77 2.77 0 0 1 1.126-1.584q.863-.58 2.042-.581 1.179 0 2.059.563.88.546 1.355 1.567.493 1.02.493 2.464 0 1.426-.493 2.464-.475 1.038-1.355 1.584t-2.059.545q-1.162 0-2.024-.563a2.77 2.77 0 0 1-1.127-1.566h.194v5.773zm4.295-5.034q1.161 0 1.848-.81.704-.809.704-2.393t-.704-2.376q-.687-.81-1.848-.81t-1.866.81q-.686.792-.686 2.376t.686 2.393q.704.81 1.866.81m6.43 1.232v-12.954h1.778V733zm8.185.158q-1.32 0-2.288-.545a3.83 3.83 0 0 1-1.496-1.584q-.528-1.038-.528-2.464t.528-2.447q.527-1.038 1.496-1.584.968-.563 2.288-.563t2.288.563a3.66 3.66 0 0 1 1.513 1.584q.546 1.021.546 2.447t-.546 2.464a3.8 3.8 0 0 1-1.513 1.584q-.969.546-2.288.545m0-1.39q1.161 0 1.848-.81.686-.809.686-2.393t-.686-2.376q-.687-.81-1.848-.81-1.144 0-1.831.81-.686.792-.686 2.376t.669 2.393q.685.81 1.848.81M451.98 733v-8.87h1.777V733zm-.141-10.718v-1.848h2.059v1.848zM1.476 474v-12.408h8.13v1.461H3.254v3.907h5.949v1.478H3.253v4.084h6.354V474zm3.696-13.464 2.076-3.045h1.919l-2.693 3.045zM14.166 474l-3.802-8.87h1.901l2.992 7.409h-.51l3.044-7.409h1.813L15.785 474zm10.794.158q-2.147 0-3.379-1.214t-1.232-3.362q0-1.39.528-2.428a3.94 3.94 0 0 1 1.496-1.602q.967-.58 2.235-.581 1.25 0 2.095.528.844.528 1.284 1.496.44.951.44 2.253v.563H21.74v-1.021h5.474l-.3.229q0-1.32-.598-2.041-.58-.74-1.69-.74-1.23 0-1.9.863-.669.844-.669 2.341v.176q0 1.566.757 2.358.774.792 2.182.792.775 0 1.444-.211a4 4 0 0 0 1.302-.739l.58 1.214q-.616.546-1.495.845a6 6 0 0 1-1.866.281m-.968-9.891 1.813-3.555h1.813l-2.394 3.555zM30.467 474v-6.741q0-.51-.053-1.038a34 34 0 0 0-.088-1.091h1.725l.159 1.865h-.212q.405-.986 1.25-1.496.844-.528 1.954-.528 1.566 0 2.358.863.81.862.81 2.675V474h-1.778v-5.386q0-1.179-.475-1.689-.458-.528-1.408-.528-1.127 0-1.795.704-.67.686-.67 1.865V474zm14.534.158q-2.148 0-3.38-1.214-1.23-1.214-1.231-3.362 0-1.39.528-2.428a3.94 3.94 0 0 1 1.496-1.602q.968-.58 2.235-.581 1.25 0 2.094.528.845.528 1.285 1.496.44.951.44 2.253v.563H41.78v-1.021h5.474l-.3.229q0-1.32-.598-2.041-.58-.74-1.69-.74-1.23 0-1.9.863-.67.844-.67 2.341v.176q0 1.566.758 2.358.774.792 2.182.792.774 0 1.443-.211a4 4 0 0 0 1.303-.739l.58 1.214a4.3 4.3 0 0 1-1.495.845 6 6 0 0 1-1.866.281m5.507-.158v-6.741q0-.51-.053-1.038a34 34 0 0 0-.088-1.091h1.725l.158 1.865h-.21q.367-.968 1.126-1.496.774-.528 1.848-.528 1.091 0 1.777.528.704.51.968 1.584h-.282a3.04 3.04 0 0 1 1.197-1.531q.845-.58 1.954-.581 1.479 0 2.218.863.739.862.739 2.675V474h-1.778v-5.403q0-1.162-.405-1.672-.387-.528-1.267-.528-1.02 0-1.62.704-.597.704-.598 1.901V474H56.14v-5.403q0-1.162-.405-1.672-.387-.528-1.267-.528-1.02 0-1.602.704-.58.704-.58 1.901V474zm19.724.158q-2.147 0-3.38-1.214-1.23-1.214-1.231-3.362 0-1.39.528-2.428a3.94 3.94 0 0 1 1.496-1.602q.968-.58 2.235-.581 1.25 0 2.095.528.844.528 1.284 1.496.44.951.44 2.253v.563h-6.688v-1.021h5.474l-.3.229q0-1.32-.598-2.041-.58-.74-1.69-.74-1.23 0-1.9.863-.669.844-.669 2.341v.176q0 1.566.757 2.358.775.792 2.182.792.775 0 1.444-.211a4 4 0 0 0 1.302-.739l.58 1.214a4.3 4.3 0 0 1-1.495.845 6 6 0 0 1-1.866.281M75.74 474v-6.741q0-.51-.053-1.038a34 34 0 0 0-.088-1.091h1.725l.159 1.865h-.212q.405-.986 1.25-1.496.844-.528 1.954-.528 1.566 0 2.358.863.81.862.81 2.675V474h-1.778v-5.386q0-1.179-.475-1.689-.458-.528-1.408-.528-1.127 0-1.795.704-.67.686-.67 1.865V474zm13.882.158q-1.444 0-2.182-.774-.74-.792-.74-2.358v-4.524h-1.724v-1.372H86.7v-2.341l1.778-.475v2.816h2.464v1.372h-2.464v4.365q0 .986.352 1.408.352.423 1.02.423.335 0 .581-.053.264-.07.475-.159v1.444a2.8 2.8 0 0 1-.616.158q-.351.07-.669.07m5.99 0a7 7 0 0 1-2.042-.281q-.933-.282-1.549-.792l.546-1.215a4.7 4.7 0 0 0 1.443.74 5.4 5.4 0 0 0 1.62.246q.966 0 1.46-.334a1.11 1.11 0 0 0 .493-.951.94.94 0 0 0-.317-.739q-.3-.282-1.003-.422l-1.69-.335q-1.126-.246-1.707-.845-.58-.598-.58-1.531 0-.792.422-1.408.44-.615 1.232-.968.81-.351 1.883-.352.985 0 1.83.282t1.408.809l-.563 1.18a4 4 0 0 0-1.232-.704 3.9 3.9 0 0 0-1.39-.264q-.986 0-1.461.369a1.17 1.17 0 0 0-.475.968q0 .458.281.757.3.281.933.44l1.69.334q1.196.248 1.795.81.598.563.598 1.514 0 .826-.458 1.443-.457.615-1.267.933-.81.316-1.9.316m10.412-.158v-8.87h1.778V474zm-.14-10.718v-1.848h2.059v1.848zM110.406 474v-6.741q0-.51-.052-1.038a36 36 0 0 0-.088-1.091h1.724l.159 1.865h-.211q.369-.968 1.126-1.496.774-.528 1.848-.528 1.09 0 1.778.528.704.51.968 1.584h-.282a3.04 3.04 0 0 1 1.197-1.531q.845-.58 1.953-.581 1.479 0 2.218.863.74.862.739 2.675V474h-1.777v-5.403q0-1.162-.405-1.672-.387-.528-1.267-.528-1.021 0-1.62.704-.598.704-.598 1.901V474h-1.778v-5.403q0-1.162-.404-1.672-.388-.528-1.268-.528-1.02 0-1.601.704-.58.704-.581 1.901V474zm15.624 3.802v-10.543q0-.51-.053-1.038a36 36 0 0 0-.088-1.091h1.725l.176 2.006h-.194a2.77 2.77 0 0 1 1.127-1.584q.862-.58 2.041-.581 1.18 0 2.059.563.88.546 1.356 1.567.492 1.02.492 2.464 0 1.425-.492 2.464-.475 1.038-1.356 1.584-.88.546-2.059.545-1.161 0-2.024-.563a2.77 2.77 0 0 1-1.126-1.566h.193v5.773zm4.294-5.034q1.162 0 1.848-.81.704-.809.704-2.393t-.704-2.376q-.686-.81-1.848-.81t-1.865.81q-.687.792-.687 2.376t.687 2.393q.704.81 1.865.81M136.72 474v-6.67q0-.546-.036-1.092a17 17 0 0 0-.07-1.108h1.725l.193 2.288h-.281q.176-.828.598-1.373a2.6 2.6 0 0 1 1.021-.81 3.23 3.23 0 0 1 1.76-.229q.193.018.387.071l-.017 1.584a1.8 1.8 0 0 0-.528-.141 3.4 3.4 0 0 0-.528-.035q-.775 0-1.32.352-.546.335-.828.915a2.8 2.8 0 0 0-.281 1.25V474zm10.65.158q-2.147 0-3.38-1.214-1.232-1.214-1.232-3.362 0-1.39.528-2.428a3.95 3.95 0 0 1 1.496-1.602q.969-.58 2.236-.581 1.25 0 2.094.528t1.285 1.496q.44.951.44 2.253v.563h-6.688v-1.021h5.473l-.299.229q0-1.32-.598-2.041-.581-.74-1.69-.74-1.232 0-1.901.863-.668.844-.668 2.341v.176q0 1.566.756 2.358.775.792 2.183.792.774 0 1.443-.211a4 4 0 0 0 1.302-.739l.581 1.214a4.3 4.3 0 0 1-1.496.845 6 6 0 0 1-1.865.281m-.968-9.891 1.812-3.555h1.813l-2.393 3.555zm8.959 9.733-3.801-8.87h1.9l2.992 7.409h-.51l3.045-7.409h1.813l-3.82 8.87zm9.999.158q-1.602 0-2.411-.862-.792-.88-.792-2.693v-5.473h1.777v5.438q0 1.109.458 1.637.457.528 1.39.528 1.056 0 1.707-.704.652-.704.652-1.866v-5.033h1.777V474h-1.725v-1.901h.229q-.369.986-1.179 1.531-.81.528-1.883.528m10.207 0q-1.109 0-2.042-.281t-1.549-.792l.546-1.215q.651.493 1.443.74a5.4 5.4 0 0 0 1.619.246q.969 0 1.461-.334a1.11 1.11 0 0 0 .493-.951.94.94 0 0 0-.317-.739q-.299-.282-1.003-.422l-1.69-.335q-1.127-.246-1.707-.845-.58-.598-.581-1.531 0-.792.423-1.408.44-.615 1.232-.968.809-.351 1.883-.352.986 0 1.83.282.846.281 1.408.809l-.563 1.18a4 4 0 0 0-1.232-.704 3.8 3.8 0 0 0-1.39-.264q-.986 0-1.461.369a1.17 1.17 0 0 0-.475.968q0 .458.281.757.3.281.933.44l1.69.334q1.197.248 1.795.81t.598 1.514q0 .826-.457 1.443-.458.615-1.267.933-.81.316-1.901.316" />
    <path fill="var(--fi-wheel-content-emphasis, #a93031)" d="M706.468 31V18.592h1.83v10.842h6.09V31zm9.552 0v-8.87h1.778V31zm-.14-10.718v-1.848h2.059v1.848zm8.624 10.876q-2.147 0-3.379-1.214t-1.232-3.362q0-1.39.528-2.428a3.95 3.95 0 0 1 1.496-1.602q.968-.58 2.235-.58 1.25 0 2.094.527.846.527 1.285 1.496.44.951.44 2.253v.563h-6.688v-1.02h5.474l-.299.228q0-1.32-.599-2.041-.58-.74-1.689-.74-1.233 0-1.901.863-.669.845-.669 2.34v.177q0 1.566.757 2.358.774.792 2.182.792.775 0 1.443-.211a4 4 0 0 0 1.303-.74l.581 1.215q-.617.546-1.496.845a6.1 6.1 0 0 1-1.866.281m8.657 0q-1.6 0-2.411-.862-.792-.88-.792-2.693V22.13h1.778v5.438q0 1.11.457 1.637.458.528 1.391.528 1.056 0 1.707-.704t.651-1.866V22.13h1.778V31h-1.725v-1.9h.229q-.37.985-1.179 1.53-.81.528-1.884.528m15.251 0q-1.16 0-2.059-.545-.88-.546-1.373-1.584-.475-1.039-.475-2.464 0-1.444.475-2.464.494-1.02 1.373-1.567.898-.563 2.059-.563 1.145 0 2.007.581.88.563 1.161 1.549h-.211v-6.055h1.778V31h-1.76v-2.006h.211a2.83 2.83 0 0 1-1.162 1.584q-.861.58-2.024.58m.44-1.39q1.145 0 1.848-.81.705-.81.704-2.393 0-1.584-.704-2.376-.703-.81-1.848-.81-1.161 0-1.865.81-.687.792-.687 2.376t.687 2.393q.704.81 1.865.81m10.989 1.39q-2.146 0-3.379-1.214-1.232-1.214-1.232-3.362 0-1.39.528-2.428a3.96 3.96 0 0 1 1.496-1.602q.969-.58 2.235-.58 1.25 0 2.095.527.844.527 1.285 1.496.44.951.44 2.253v.563h-6.688v-1.02h5.473l-.299.228q0-1.32-.598-2.041-.582-.74-1.69-.74-1.232 0-1.901.863-.669.845-.669 2.34v.177q0 1.566.757 2.358.775.792 2.183.792.774 0 1.443-.211a4 4 0 0 0 1.302-.74l.581 1.215a4.3 4.3 0 0 1-1.496.845 6.1 6.1 0 0 1-1.866.281M770.005 31v-6.67q0-.546-.035-1.092a17 17 0 0 0-.07-1.108h1.725l.193 2.288h-.281q.175-.828.598-1.373a2.6 2.6 0 0 1 1.021-.81 3.23 3.23 0 0 1 1.76-.229q.194.019.387.07l-.018 1.585a1.8 1.8 0 0 0-.528-.141 3 3 0 0 0-.528-.035q-.774 0-1.32.352a2.16 2.16 0 0 0-.827.915 2.8 2.8 0 0 0-.281 1.25V31zm10.651.158q-2.148 0-3.38-1.214t-1.232-3.362q0-1.39.528-2.428a3.96 3.96 0 0 1 1.496-1.602q.969-.58 2.236-.58 1.25 0 2.094.527t1.285 1.496q.44.951.44 2.253v.563h-6.688v-1.02h5.473l-.299.228q0-1.32-.598-2.041-.581-.74-1.69-.74-1.232 0-1.901.863-.669.845-.668 2.34v.177q0 1.566.756 2.358.775.792 2.183.792.774 0 1.443-.211a4 4 0 0 0 1.302-.74l.581 1.215a4.3 4.3 0 0 1-1.496.845 6.1 6.1 0 0 1-1.865.281m-.968-9.89 1.812-3.556h1.813l-2.393 3.555zm9.519 9.89a7 7 0 0 1-2.041-.281q-.933-.282-1.549-.792l.546-1.215q.651.493 1.443.74a5.4 5.4 0 0 0 1.619.246q.967 0 1.461-.334a1.11 1.11 0 0 0 .493-.95.94.94 0 0 0-.317-.74q-.3-.282-1.003-.422l-1.69-.335q-1.127-.246-1.707-.845t-.581-1.53q0-.793.422-1.409.44-.615 1.232-.968.81-.352 1.884-.352.986 0 1.83.282t1.408.81l-.563 1.179a4 4 0 0 0-1.232-.704 3.9 3.9 0 0 0-1.391-.264q-.986 0-1.46.37-.476.369-.476.967 0 .458.282.757.298.281.933.44l1.689.334q1.197.247 1.796.81.598.563.598 1.514 0 .826-.458 1.443-.457.615-1.267.933-.81.315-1.901.316m5.721-.158v-8.87h1.778V31zm-.141-10.718v-1.848h2.06v1.848zm7.921 10.876q-1.162 0-2.059-.545-.88-.546-1.373-1.584-.475-1.039-.475-2.464 0-1.444.475-2.464.492-1.02 1.373-1.567.897-.563 2.059-.563 1.143 0 2.006.581.88.563 1.162 1.549h-.211v-6.055h1.777V31h-1.76v-2.006h.211a2.83 2.83 0 0 1-1.161 1.584q-.863.58-2.024.58m.44-1.39q1.143 0 1.848-.81.704-.81.704-2.393 0-1.584-.704-2.376-.705-.81-1.848-.81-1.162 0-1.866.81-.686.792-.686 2.376t.686 2.393q.704.81 1.866.81m10.989 1.39q-2.148 0-3.379-1.214-1.232-1.214-1.232-3.362 0-1.39.528-2.428a3.94 3.94 0 0 1 1.496-1.602q.967-.58 2.235-.58 1.25 0 2.094.527.845.527 1.285 1.496.44.951.44 2.253v.563h-6.688v-1.02h5.474l-.3.228q0-1.32-.598-2.041-.58-.74-1.69-.74-1.232 0-1.9.863-.669.845-.669 2.34v.177q0 1.566.757 2.358.774.792 2.182.792.774 0 1.443-.211a4 4 0 0 0 1.303-.74l.58 1.215q-.615.546-1.496.845a6 6 0 0 1-1.865.281m5.507-.158v-6.74q0-.511-.053-1.04a33 33 0 0 0-.088-1.09h1.725l.158 1.865h-.211q.405-.985 1.25-1.496.845-.528 1.953-.528 1.567 0 2.359.863.809.862.809 2.675V31h-1.777v-5.386q0-1.179-.476-1.69-.457-.527-1.408-.527-1.126 0-1.795.704-.669.686-.669 1.865V31zm14.322.158q-1.338 0-2.341-.545a3.9 3.9 0 0 1-1.531-1.602q-.528-1.056-.528-2.499 0-1.425.546-2.446a3.7 3.7 0 0 1 1.531-1.55q.985-.545 2.323-.545.862 0 1.672.3.81.28 1.338.809l-.581 1.25a3.2 3.2 0 0 0-1.109-.704 3.2 3.2 0 0 0-1.197-.247q-1.266 0-1.988.81t-.722 2.34q0 1.55.722 2.377t1.988.827q.564 0 1.18-.211a3.2 3.2 0 0 0 1.126-.722l.581 1.25q-.546.527-1.373.827a5 5 0 0 1-1.637.281m8.822 0q-2.146 0-3.379-1.214-1.232-1.214-1.232-3.362 0-1.39.528-2.428a3.96 3.96 0 0 1 1.496-1.602q.969-.58 2.235-.58 1.25 0 2.095.527.844.527 1.285 1.496.44.951.44 2.253v.563h-6.688v-1.02h5.473l-.299.228q0-1.32-.598-2.041-.582-.74-1.69-.74-1.232 0-1.901.863-.669.845-.669 2.34v.177q0 1.566.757 2.358.774.792 2.183.792.774 0 1.443-.211a4 4 0 0 0 1.302-.74l.581 1.215a4.3 4.3 0 0 1-1.496.845 6.1 6.1 0 0 1-1.866.281" />
    <path fill="var(--fi-wheel-content, #161616)" d="M173.951 31.158q-1.496 0-2.71-.37a6.7 6.7 0 0 1-2.112-1.09l.616-1.444q.598.458 1.232.757.651.3 1.373.458a8.6 8.6 0 0 0 1.601.14q1.478 0 2.165-.527.704-.529.704-1.39 0-.74-.493-1.145-.476-.405-1.689-.651l-1.919-.387q-1.707-.352-2.552-1.144-.827-.81-.827-2.2 0-1.126.598-1.971.599-.846 1.655-1.303 1.074-.457 2.499-.457 1.32 0 2.429.387 1.109.37 1.865 1.109l-.598 1.39a5.2 5.2 0 0 0-1.69-1.003q-.897-.335-2.041-.335-1.356 0-2.13.564-.756.563-.757 1.53 0 .776.476 1.215.492.44 1.619.669l1.918.37q1.777.369 2.623 1.144.844.756.844 2.094 0 1.073-.58 1.883-.564.81-1.62 1.267-1.056.44-2.499.44m10.189 0q-1.444 0-2.183-.774-.74-.792-.739-2.358v-4.524h-1.725V22.13h1.725v-2.341l1.778-.475v2.816h2.464v1.372h-2.464v4.365q0 .986.352 1.408.351.423 1.02.423.335 0 .581-.053.264-.07.475-.159v1.444q-.264.105-.616.158-.351.07-.668.07m6.34 0q-1.179 0-2.059-.545-.88-.546-1.373-1.584-.474-1.039-.475-2.464 0-1.444.475-2.464.494-1.02 1.373-1.567.88-.563 2.059-.563 1.163 0 2.024.581.863.58 1.144 1.584h-.193l.176-2.006h1.725l-.106 1.09a16 16 0 0 0-.035 1.04V31h-1.778v-1.971h.194a2.73 2.73 0 0 1-1.162 1.566q-.863.564-1.989.563m.44-1.39q1.144 0 1.831-.81.704-.81.704-2.393 0-1.584-.704-2.376-.687-.81-1.831-.81-1.161 0-1.865.81-.687.792-.687 2.376t.687 2.393q.686.81 1.865.81m10.338 1.39q-1.443 0-2.182-.774-.74-.792-.739-2.358v-4.524h-1.725V22.13h1.725v-2.341l1.777-.475v2.816h2.464v1.372h-2.464v4.365q0 .986.352 1.408.352.423 1.021.423.335 0 .581-.053.264-.07.475-.159v1.444q-.264.105-.616.158-.353.07-.669.07m6.095 0q-1.602 0-2.411-.862-.792-.88-.792-2.693V22.13h1.777v5.438q0 1.11.458 1.637.457.528 1.39.528 1.056 0 1.707-.704.652-.704.652-1.866V22.13h1.777V31h-1.725v-1.9h.229q-.369.985-1.179 1.53-.81.528-1.883.528m10.612 0q-1.444 0-2.183-.774-.74-.792-.739-2.358v-4.524h-1.725V22.13h1.725v-2.341l1.778-.475v2.816h2.464v1.372h-2.464v4.365q0 .986.352 1.408.351.423 1.02.423.335 0 .581-.053.264-.07.475-.159v1.444q-.264.105-.616.158-.351.07-.668.07m11.033 0q-1.162 0-2.06-.545-.88-.546-1.372-1.584-.476-1.039-.476-2.464 0-1.444.476-2.464.493-1.02 1.372-1.567.898-.563 2.06-.563 1.143 0 2.006.581.88.563 1.162 1.549h-.212v-6.055h1.778V31h-1.76v-2.006h.211a2.83 2.83 0 0 1-1.161 1.584q-.863.58-2.024.58m.44-1.39q1.143 0 1.848-.81.704-.81.704-2.393 0-1.584-.704-2.376-.705-.81-1.848-.81-1.162 0-1.866.81-.686.792-.686 2.376t.686 2.393q.704.81 1.866.81m7.539-6.934-.774-.599q.51-.528.686-.985.194-.476.194-.95l.475.369h-1.479v-2.077h2.095v1.426q0 .791-.264 1.478-.264.669-.933 1.338M240.502 31v-8.87h1.778V31zm-.14-10.718v-1.848h2.059v1.848zM244.885 31v-6.74q0-.511-.053-1.04a31 31 0 0 0-.088-1.09h1.725l.159 1.865h-.212q.37-.968 1.127-1.496.774-.528 1.848-.528 1.091 0 1.777.528.704.51.968 1.584h-.281a3.04 3.04 0 0 1 1.197-1.531q.844-.58 1.953-.58 1.479 0 2.218.862.74.862.739 2.675V31h-1.778v-5.403q0-1.162-.404-1.672-.388-.528-1.268-.528-1.02 0-1.619.704-.598.705-.598 1.9V31h-1.778v-5.403q0-1.162-.405-1.672-.387-.528-1.267-.528-1.02 0-1.601.704-.582.705-.581 1.9V31zm15.624 0v-6.74q0-.511-.053-1.04a36 36 0 0 0-.088-1.09h1.725l.158 1.865h-.211q.37-.968 1.126-1.496.776-.528 1.848-.528 1.091 0 1.778.528.704.51.968 1.584h-.282a3.05 3.05 0 0 1 1.197-1.531q.844-.58 1.954-.58 1.477 0 2.217.862t.739 2.675V31h-1.777v-5.403q0-1.162-.405-1.672-.387-.528-1.267-.528-1.021 0-1.619.704-.599.705-.599 1.9V31h-1.777v-5.403q0-1.162-.405-1.672-.388-.528-1.267-.528-1.022 0-1.602.704-.58.705-.581 1.9V31zm15.623 0v-8.87h1.778V31zm-.141-10.718v-1.848h2.06v1.848zm8.519 14.66a8 8 0 0 1-2.182-.281 5.6 5.6 0 0 1-1.743-.845l.44-1.302q.546.37 1.074.58.528.229 1.109.335.58.105 1.197.105 1.266 0 1.9-.65.651-.635.652-1.849V28.66h.176a2.73 2.73 0 0 1-1.162 1.567q-.863.563-2.006.563-1.215 0-2.112-.528a3.7 3.7 0 0 1-1.373-1.531q-.475-1.004-.475-2.359t.475-2.34q.492-.987 1.373-1.514.897-.546 2.112-.546 1.161 0 2.006.581.862.563 1.144 1.549l-.158-.141.158-1.83h1.725a18 18 0 0 0-.141 2.13v6.564q0 2.006-1.074 3.062-1.056 1.056-3.115 1.056m-.123-5.544q1.161 0 1.848-.792.704-.792.704-2.235t-.704-2.217q-.687-.775-1.848-.775-1.197 0-1.901.775-.686.774-.686 2.217t.686 2.235q.704.792 1.901.792M291.256 31v-6.67q0-.546-.035-1.092a17 17 0 0 0-.07-1.108h1.724l.194 2.288h-.282q.176-.828.599-1.373a2.6 2.6 0 0 1 1.021-.81q.616-.264 1.284-.264.282 0 .476.035.194.019.387.07l-.018 1.585a1.8 1.8 0 0 0-.528-.141 3.3 3.3 0 0 0-.528-.035q-.774 0-1.32.352a2.16 2.16 0 0 0-.827.915 2.8 2.8 0 0 0-.282 1.25V31zm9.981.158q-1.18 0-2.059-.545-.88-.546-1.373-1.584-.475-1.039-.475-2.464 0-1.444.475-2.464.492-1.02 1.373-1.567.88-.563 2.059-.563 1.161 0 2.024.581.862.58 1.144 1.584h-.194l.176-2.006h1.725l-.106 1.09a16 16 0 0 0-.035 1.04V31h-1.777v-1.971h.193a2.73 2.73 0 0 1-1.161 1.566q-.863.564-1.989.563m.44-1.39q1.144 0 1.83-.81.704-.81.704-2.393 0-1.584-.704-2.376-.686-.81-1.83-.81-1.162 0-1.866.81-.686.792-.686 2.376t.686 2.393q.687.81 1.866.81m10.338 1.39q-1.444 0-2.183-.774-.74-.792-.739-2.358v-4.524h-1.725V22.13h1.725v-2.341l1.778-.475v2.816h2.464v1.372h-2.464v4.365q0 .986.352 1.408.351.423 1.02.423.335 0 .581-.053.264-.07.475-.159v1.444q-.264.105-.616.158-.351.07-.668.07m2.944-.158v-8.87h1.777V31zm-.141-10.718v-1.848h2.059v1.848zm8.325 10.876q-1.32 0-2.288-.545a3.83 3.83 0 0 1-1.496-1.584q-.528-1.039-.528-2.464t.528-2.447a3.7 3.7 0 0 1 1.496-1.584q.968-.563 2.288-.563t2.288.563a3.66 3.66 0 0 1 1.514 1.584q.545 1.02.545 2.447 0 1.425-.545 2.464a3.8 3.8 0 0 1-1.514 1.584q-.968.546-2.288.545m0-1.39q1.161 0 1.848-.81t.686-2.393-.686-2.376q-.687-.81-1.848-.81-1.144 0-1.83.81-.687.792-.687 2.376t.669 2.393q.687.81 1.848.81M329.568 31v-6.74q0-.511-.053-1.04a33 33 0 0 0-.088-1.09h1.725l.158 1.865h-.211q.405-.985 1.25-1.496.844-.528 1.953-.528 1.567 0 2.359.863.81.862.809 2.675V31h-1.777v-5.386q0-1.179-.475-1.69-.458-.527-1.408-.527-1.127 0-1.796.704-.668.686-.668 1.865V31z" />
    <path fill="var(--fi-wheel-content-emphasis, #a93031)" d="M80.678 236v-12.408h1.83v10.842h6.09V236zm12.95.158q-1.18 0-2.06-.545-.88-.546-1.373-1.584-.475-1.038-.475-2.464 0-1.443.475-2.464.494-1.021 1.373-1.567.88-.563 2.06-.563 1.16 0 2.023.581.863.58 1.144 1.584h-.193l.176-2.006h1.724l-.105 1.091a16 16 0 0 0-.035 1.038V236h-1.778v-1.971h.194a2.72 2.72 0 0 1-1.162 1.566q-.863.563-1.989.563m.44-1.39q1.143 0 1.83-.81.704-.809.704-2.393t-.704-2.376q-.687-.81-1.83-.81-1.163 0-1.866.81-.687.792-.687 2.376t.687 2.393q.686.81 1.865.81m6.888 1.232v-6.741q0-.51-.053-1.038a36 36 0 0 0-.088-1.091h1.725l.158 1.865h-.211q.405-.986 1.249-1.496.846-.528 1.954-.528 1.566 0 2.358.863.81.862.81 2.675V236h-1.778v-5.386q0-1.179-.475-1.689-.457-.528-1.408-.528-1.126 0-1.795.704-.669.686-.669 1.865V236zm14.428 3.942a8 8 0 0 1-2.183-.281 5.6 5.6 0 0 1-1.742-.845l.44-1.302q.545.37 1.073.58.528.229 1.109.335.58.105 1.197.105 1.267 0 1.901-.651.651-.633.651-1.848v-2.376h.176a2.73 2.73 0 0 1-1.162 1.567q-.862.563-2.006.563-1.215 0-2.112-.528a3.7 3.7 0 0 1-1.373-1.531q-.475-1.003-.475-2.359 0-1.355.475-2.341.493-.985 1.373-1.513.897-.546 2.112-.546 1.161 0 2.006.581.863.563 1.144 1.549l-.158-.141.158-1.83h1.725a17 17 0 0 0-.105 1.091 15 15 0 0 0-.036 1.038v6.565q0 2.006-1.073 3.062-1.056 1.056-3.115 1.056m-.124-5.544q1.163 0 1.848-.792.704-.792.704-2.235t-.704-2.217q-.685-.775-1.848-.775-1.197 0-1.9.775-.687.774-.687 2.217t.687 2.235q.703.792 1.9.792m10.055 1.76q-1.6 0-2.411-.862-.792-.88-.792-2.693v-5.473h1.778v5.438q0 1.109.457 1.637.458.528 1.391.528 1.056 0 1.707-.704t.651-1.866v-5.033h1.778V236h-1.725v-1.901h.229q-.37.986-1.179 1.531-.81.528-1.884.528m11.263 0q-2.147 0-3.379-1.214-1.232-1.215-1.232-3.362 0-1.39.528-2.428.546-1.04 1.496-1.602.968-.58 2.235-.581 1.25 0 2.095.528.844.528 1.284 1.496.44.951.44 2.253v.563h-6.688v-1.021h5.474l-.299.229q0-1.32-.599-2.041-.58-.74-1.689-.74-1.233 0-1.901.863-.669.844-.669 2.341v.176q0 1.566.757 2.358.774.792 2.182.792.775 0 1.444-.211a4.1 4.1 0 0 0 1.302-.739l.581 1.214q-.617.546-1.496.845a6.1 6.1 0 0 1-1.866.281" />
    <path stroke="var(--fi-wheel-dashed-line, #161616)" stroke-dasharray="12 12" stroke-width="2" d="M634.534 99.715 489.837 284.463H332.22l90.436 117.566 52.969 54.262 158.909 176.996 73.641-176.996-93.02-118.859z" />
</svg>