<svg xmlns="http://www.w3.org/2000/svg" width="1070" height="729" fill="none" viewBox="0 0 1070 729"><circle cx="534.538" cy="366.55" r="329.365" fill="var(--fl-bgColor, #e8b91c)" stroke="var(--fl-fgColor, #4a4021)" stroke-dasharray="2 2"/><circle cx="534.964" cy="366.977" r="250.522" fill="var(--fl-bgColor, #f6d872)" stroke="var(--fl-fgColor, #4a4021)" stroke-dasharray="2 2"/><circle cx="534.964" cy="366.976" r="156.761" fill="var(--fl-bgColor, #f9eec6)" stroke="var(--fl-fgColor, #4a4021)" stroke-dasharray="2 2"/><path fill="var(--fl-fgColor, #a93031)" d="M536.21.293a1 1 0 0 0-1.415 0l-6.364 6.364a1.001 1.001 0 0 0 1.415 1.414l5.656-5.657 5.657 5.657a1.001 1.001 0 0 0 1.415-1.414zm-1.415 328.414a1 1 0 0 0 1.415 0l6.364-6.364a1 1 0 0 0-1.415-1.414l-5.657 5.657-5.656-5.657a1 1 0 1 0-1.415 1.414zM535.502 1h-1v327h2V1z"/><path stroke="var(--fl-fbgColor, #997d1e)" stroke-dasharray="2 2" d="M864.502 366.5h-659M535.002 696V37M301.476 598.995l465.391-465.391M303.035 134.454l463.686 463.687"/><path fill="var(--fl-bgColor, #f6f5f2)" stroke="var(--fl-fgColor, transparent)" d="M489.502 62h91v43h-91z"/><path fill="var(--fl-fgColor, #a93031)" d="M507.958 79.5V67.092h1.83V79.5zm4.585 0v-6.74q0-.511-.053-1.04a31 31 0 0 0-.088-1.09h1.725l.159 1.865h-.212q.37-.968 1.127-1.496.774-.528 1.848-.528 1.091 0 1.777.528.705.51.968 1.584h-.281a3.04 3.04 0 0 1 1.197-1.531q.845-.58 1.953-.58 1.479 0 2.218.862.74.862.739 2.675V79.5h-1.778v-5.403q0-1.162-.404-1.672-.388-.528-1.268-.528-1.02 0-1.619.704-.598.705-.598 1.9V79.5h-1.778v-5.403q0-1.162-.405-1.672-.387-.528-1.267-.528-1.02 0-1.601.704-.582.705-.581 1.9V79.5zm15.624 3.802V72.759q0-.51-.053-1.038a36 36 0 0 0-.088-1.091h1.725l.176 2.006h-.194a2.77 2.77 0 0 1 1.126-1.584q.863-.58 2.042-.58t2.059.562q.88.546 1.355 1.567.493 1.02.493 2.464 0 1.425-.493 2.464-.474 1.038-1.355 1.584-.88.546-2.059.545-1.161 0-2.024-.563a2.77 2.77 0 0 1-1.126-1.566h.193v5.773zm4.294-5.034q1.161 0 1.848-.81.704-.81.704-2.393 0-1.584-.704-2.376-.687-.81-1.848-.81t-1.866.81q-.686.792-.686 2.376t.686 2.393q.705.81 1.866.81m9.827 1.39q-1.179 0-2.059-.545-.88-.546-1.373-1.584-.475-1.038-.475-2.464 0-1.444.475-2.464.493-1.02 1.373-1.567.88-.563 2.059-.563 1.162 0 2.024.581.863.58 1.144 1.584h-.193l.176-2.006h1.725l-.106 1.09q-.036.529-.035 1.04v6.74h-1.778v-1.971h.194a2.73 2.73 0 0 1-1.162 1.566q-.863.564-1.989.563m.44-1.39q1.144 0 1.831-.81.704-.81.704-2.393 0-1.584-.704-2.376-.687-.81-1.831-.81-1.161 0-1.865.81-.687.792-.687 2.376t.687 2.393 1.865.81m10.778 1.39q-1.338 0-2.341-.545a3.9 3.9 0 0 1-1.531-1.602q-.528-1.056-.528-2.499 0-1.425.546-2.446a3.68 3.68 0 0 1 1.531-1.55q.985-.545 2.323-.545.862 0 1.672.3.81.28 1.338.809l-.581 1.25a3.2 3.2 0 0 0-1.109-.704 3.2 3.2 0 0 0-1.197-.247q-1.266 0-1.988.81t-.722 2.34q0 1.55.722 2.377t1.988.827q.564 0 1.18-.211a3.2 3.2 0 0 0 1.126-.722l.581 1.25q-.546.528-1.373.827a5 5 0 0 1-1.637.281m8.36 0q-1.443 0-2.182-.774-.74-.792-.739-2.358v-4.524h-1.725V70.63h1.725v-2.341l1.777-.475v2.816h2.464v1.372h-2.464v4.365q0 .986.352 1.408.352.423 1.021.423.334 0 .581-.053.264-.07.475-.159v1.444q-.264.105-.616.158-.353.07-.669.07M500.813 100.5v-6.74q0-.511-.053-1.04a36 36 0 0 0-.088-1.09h1.725l.158 1.865h-.211q.37-.968 1.126-1.496.775-.528 1.848-.528 1.091 0 1.778.528.704.51.968 1.584h-.282a3.05 3.05 0 0 1 1.197-1.531q.844-.58 1.954-.58 1.477 0 2.217.862t.739 2.675v5.491h-1.777v-5.403q0-1.162-.405-1.672-.387-.528-1.267-.528-1.021 0-1.619.704-.599.705-.599 1.9v4.999h-1.777v-5.403q0-1.162-.405-1.672-.387-.528-1.267-.528-1.021 0-1.602.704-.58.705-.581 1.9v4.999zm19.02.158q-1.18 0-2.059-.545-.88-.546-1.373-1.584-.475-1.038-.475-2.464 0-1.444.475-2.464.492-1.02 1.373-1.567.88-.563 2.059-.563 1.161 0 2.024.581.862.58 1.144 1.584h-.194l.176-2.006h1.725l-.106 1.09a16 16 0 0 0-.035 1.04v6.74h-1.777v-1.971h.193a2.72 2.72 0 0 1-1.161 1.566q-.863.564-1.989.563m.44-1.39q1.144 0 1.83-.81.705-.81.704-2.393 0-1.584-.704-2.376-.685-.81-1.83-.81-1.162 0-1.866.81-.686.792-.686 2.376t.686 2.393 1.866.81m5.621 1.232 4.03-4.998v.844l-3.819-4.716h2.13l2.692 3.467h-.633l2.693-3.467h2.112l-3.784 4.699v-.81l4.012 4.981h-2.129l-2.904-3.714h.633l-2.921 3.714zm10.789 0v-8.87h1.778v8.87zm-.141-10.718v-1.848h2.059v1.848zm4.524 10.718v-6.74q0-.511-.053-1.04a33 33 0 0 0-.088-1.09h1.725l.158 1.865h-.211q.37-.968 1.126-1.496.776-.528 1.848-.528 1.091 0 1.778.528.704.51.968 1.584h-.282a3.05 3.05 0 0 1 1.197-1.531q.845-.58 1.954-.58 1.478 0 2.217.862t.74 2.675v5.491h-1.778v-5.403q0-1.162-.405-1.672-.387-.528-1.267-.528-1.021 0-1.619.704-.599.705-.599 1.9v4.999h-1.777v-5.403q0-1.162-.405-1.672-.388-.528-1.267-.528-1.021 0-1.602.704-.58.705-.581 1.9v4.999zm19.02.158q-1.18 0-2.059-.545-.88-.546-1.373-1.584-.475-1.038-.475-2.464 0-1.444.475-2.464.493-1.02 1.373-1.567.88-.563 2.059-.563 1.161 0 2.024.581.862.58 1.144 1.584h-.194l.176-2.006h1.725l-.105 1.09q-.036.529-.036 1.04v6.74h-1.777v-1.971h.193a2.72 2.72 0 0 1-1.161 1.566q-.863.564-1.989.563m.44-1.39q1.144 0 1.83-.81.705-.81.704-2.393 0-1.584-.704-2.376-.686-.81-1.83-.81-1.161 0-1.866.81-.686.792-.686 2.376t.686 2.393q.687.81 1.866.81m6.888 1.232V87.546h1.778V100.5z"/><path fill="var(--fl-bgColor, #f6f5f2)" stroke="var(--fl-fgColor, transparent)" d="M489.502 342h91v43h-91z"/><path fill="var(--fl-fgColor, #a93031)" d="M507.958 359.5v-12.408h1.83V359.5zm4.585 0v-6.741q0-.51-.053-1.038a31 31 0 0 0-.088-1.091h1.725l.159 1.865h-.212q.37-.968 1.127-1.496.774-.528 1.848-.528 1.091 0 1.777.528.705.51.968 1.584h-.281a3.03 3.03 0 0 1 1.197-1.531q.845-.58 1.953-.581 1.479 0 2.218.863.74.862.739 2.675v5.491h-1.778v-5.403q0-1.162-.404-1.672-.388-.528-1.268-.528-1.02 0-1.619.704-.598.704-.598 1.901v4.998h-1.778v-5.403q0-1.162-.405-1.672-.387-.528-1.267-.528-1.02 0-1.601.704-.582.704-.581 1.901v4.998zm15.624 3.802v-10.543q0-.51-.053-1.038a36 36 0 0 0-.088-1.091h1.725l.176 2.006h-.194a2.77 2.77 0 0 1 1.126-1.584q.863-.58 2.042-.581 1.179 0 2.059.563.88.546 1.355 1.567.493 1.02.493 2.464 0 1.425-.493 2.464-.474 1.038-1.355 1.584-.88.546-2.059.545-1.161 0-2.024-.563a2.77 2.77 0 0 1-1.126-1.566h.193v5.773zm4.294-5.034q1.161 0 1.848-.81.704-.809.704-2.393t-.704-2.376q-.687-.81-1.848-.81t-1.866.81q-.686.792-.686 2.376t.686 2.393q.705.81 1.866.81m9.827 1.39q-1.179 0-2.059-.545-.88-.546-1.373-1.584-.475-1.038-.475-2.464 0-1.444.475-2.464.493-1.021 1.373-1.567.88-.563 2.059-.563 1.162 0 2.024.581.863.58 1.144 1.584h-.193l.176-2.006h1.725l-.106 1.091a15 15 0 0 0-.035 1.038v6.741h-1.778v-1.971h.194a2.72 2.72 0 0 1-1.162 1.566q-.863.563-1.989.563m.44-1.39q1.144 0 1.831-.81.704-.809.704-2.393t-.704-2.376q-.687-.81-1.831-.81-1.161 0-1.865.81-.687.792-.687 2.376t.687 2.393 1.865.81m10.778 1.39q-1.338 0-2.341-.545a3.9 3.9 0 0 1-1.531-1.602q-.528-1.056-.528-2.499 0-1.425.546-2.446a3.67 3.67 0 0 1 1.531-1.549q.985-.546 2.323-.546.862 0 1.672.299.81.282 1.338.81l-.581 1.25a3.2 3.2 0 0 0-1.109-.704 3.2 3.2 0 0 0-1.197-.247q-1.266 0-1.988.81t-.722 2.341q0 1.548.722 2.376t1.988.827q.564 0 1.18-.211a3.2 3.2 0 0 0 1.126-.722l.581 1.25q-.546.527-1.373.827a5 5 0 0 1-1.637.281m8.36 0q-1.443 0-2.182-.774-.74-.792-.739-2.358v-4.524h-1.725v-1.372h1.725v-2.341l1.777-.475v2.816h2.464v1.372h-2.464v4.365q0 .986.352 1.408.352.423 1.021.423.334 0 .581-.053.264-.07.475-.159v1.444q-.264.105-.616.158-.353.07-.669.07M503.528 380.5v-6.741q0-.51-.053-1.038a31 31 0 0 0-.088-1.091h1.725l.159 1.865h-.212q.37-.968 1.127-1.496.774-.528 1.848-.528 1.091 0 1.777.528.704.51.968 1.584h-.281a3.04 3.04 0 0 1 1.197-1.531q.844-.58 1.953-.581 1.479 0 2.218.863.74.862.739 2.675v5.491h-1.778v-5.403q0-1.162-.404-1.672-.387-.528-1.268-.528-1.02 0-1.619.704-.598.704-.598 1.901v4.998h-1.778v-5.403q0-1.162-.405-1.672-.387-.528-1.267-.528-1.02 0-1.601.704-.582.704-.581 1.901v4.998zm15.624 0v-8.87h1.777v8.87zm-.141-10.718v-1.848h2.059v1.848zm4.524 10.718v-6.741q0-.51-.053-1.038a36 36 0 0 0-.088-1.091h1.725l.158 1.865h-.211q.405-.986 1.249-1.496.846-.528 1.954-.528 1.566 0 2.358.863.81.862.81 2.675v5.491h-1.778v-5.386q0-1.179-.475-1.689-.457-.528-1.408-.528-1.126 0-1.795.704-.669.686-.669 1.865v5.034zm10.432 0v-8.87h1.778v8.87zm-.14-10.718v-1.848h2.059v1.848zm4.523 10.718v-6.741q0-.51-.053-1.038a31 31 0 0 0-.088-1.091h1.725l.159 1.865h-.212q.37-.968 1.127-1.496.774-.528 1.848-.528 1.091 0 1.777.528.705.51.968 1.584h-.281a3.03 3.03 0 0 1 1.197-1.531q.845-.58 1.953-.581 1.479 0 2.218.863.74.862.739 2.675v5.491h-1.778v-5.403q0-1.162-.404-1.672-.388-.528-1.268-.528-1.02 0-1.619.704-.598.704-.598 1.901v4.998h-1.778v-5.403q0-1.162-.405-1.672-.387-.528-1.267-.528-1.02 0-1.601.704-.582.704-.581 1.901v4.998zm19.02.158q-1.179 0-2.059-.545-.88-.546-1.373-1.584-.475-1.038-.475-2.464 0-1.444.475-2.464.494-1.021 1.373-1.567.88-.563 2.059-.563 1.162 0 2.024.581.863.58 1.144 1.584h-.193l.176-2.006h1.725l-.106 1.091q-.035.528-.035 1.038v6.741h-1.778v-1.971h.194a2.72 2.72 0 0 1-1.162 1.566q-.863.563-1.989.563m.44-1.39q1.144 0 1.831-.81.704-.809.704-2.393t-.704-2.376q-.687-.81-1.831-.81-1.161 0-1.865.81-.687.792-.687 2.376t.687 2.393 1.865.81m6.889 1.232v-12.954h1.777V380.5z"/><path stroke="var(--fl-fgColor, #000)" stroke-dasharray="12 12" stroke-width="2" d="M575.404 287.317 501.689 221.5l-230.36 22.378v244.84l230.36-19.745 130.318 101.359 19.745-147.431 85.563-135.584z"/><path fill="var(--fl-fgColor, #222)" d="M875.009 465.477v-12.408h5.263q1.989 0 3.045.968 1.073.95 1.073 2.64t-1.073 2.657q-1.056.968-3.045.968h-3.432v5.175zm1.831-6.636h3.238q1.25 0 1.883-.563.634-.563.634-1.601 0-1.022-.634-1.584-.633-.564-1.883-.564h-3.238zm12.985 6.794q-1.32 0-2.288-.546a3.8 3.8 0 0 1-1.496-1.584q-.528-1.038-.528-2.464t.528-2.446q.528-1.038 1.496-1.584.968-.563 2.288-.563t2.288.563a3.66 3.66 0 0 1 1.513 1.584q.546 1.02.546 2.446t-.546 2.464a3.8 3.8 0 0 1-1.513 1.584q-.968.546-2.288.546m0-1.39q1.161 0 1.848-.81.686-.81.686-2.394t-.686-2.376q-.687-.809-1.848-.809-1.144 0-1.831.809-.686.792-.686 2.376t.669 2.394q.685.81 1.848.81m6.424 1.232v-12.954h1.778v12.954zm4.383 0v-8.871h1.778v8.871zm-.141-10.719v-1.848h2.06v1.848zm7.974 10.877q-1.443 0-2.183-.774-.74-.793-.739-2.359v-4.523h-1.725v-1.373h1.725v-2.341l1.778-.475v2.816h2.464v1.373h-2.464v4.365q0 .985.352 1.408t1.02.422q.335 0 .581-.053.265-.07.475-.158v1.443a2.8 2.8 0 0 1-.616.159q-.351.07-.668.07m2.944-.158v-8.871h1.777v8.871zm-.141-10.719v-1.848h2.059v1.848zm10.877 14.52v-5.773h.194a2.73 2.73 0 0 1-1.162 1.567q-.863.563-1.989.563-1.179 0-2.059-.546-.88-.545-1.373-1.584-.475-1.038-.475-2.464 0-1.443.475-2.464.494-1.02 1.373-1.566.88-.563 2.059-.563 1.163 0 2.024.581.863.58 1.144 1.584h-.193l.176-2.007h1.725l-.106 1.091q-.035.528-.035 1.039v10.542zm-2.517-5.033q1.144 0 1.831-.81.704-.81.704-2.394t-.704-2.376q-.687-.809-1.831-.809-1.161 0-1.865.809-.687.792-.687 2.376t.687 2.394 1.865.81m10.039 1.39q-1.602 0-2.411-.862-.792-.88-.792-2.693v-5.474h1.777v5.439q0 1.108.458 1.636t1.39.528q1.056 0 1.708-.704t.651-1.865v-5.034h1.777v8.871h-1.724v-1.901h.228q-.369.985-1.179 1.531-.809.528-1.883.528m11.263 0q-2.148 0-3.379-1.214-1.232-1.215-1.232-3.362 0-1.39.528-2.429a3.94 3.94 0 0 1 1.496-1.601q.967-.582 2.235-.581 1.25 0 2.094.528.846.528 1.285 1.496.44.95.44 2.253v.563h-6.688v-1.021h5.474l-.299.229q0-1.32-.599-2.042-.58-.74-1.689-.739-1.233 0-1.901.862-.669.846-.669 2.341v.176q0 1.567.757 2.359.774.792 2.182.792.774 0 1.443-.212a4 4 0 0 0 1.303-.739l.581 1.215q-.617.545-1.496.844a6.1 6.1 0 0 1-1.866.282m8.552 0q-1.109 0-2.042-.282-.933-.28-1.549-.792l.546-1.214q.651.492 1.443.739a5.4 5.4 0 0 0 1.619.247q.969 0 1.461-.335.493-.352.493-.95a.94.94 0 0 0-.317-.739q-.299-.282-1.003-.423l-1.69-.334q-1.127-.247-1.707-.845t-.581-1.531q0-.792.423-1.408.44-.617 1.232-.968.81-.352 1.883-.352.986 0 1.83.281.846.282 1.408.81l-.563 1.179a4 4 0 0 0-1.232-.704 3.8 3.8 0 0 0-1.39-.264q-.986 0-1.461.37a1.17 1.17 0 0 0-.475.968q0 .457.281.757.3.28.933.44l1.69.334q1.197.246 1.795.81.598.563.598 1.513 0 .828-.457 1.443-.458.616-1.267.933-.81.317-1.901.317m13.81 0q-1.162 0-2.06-.546-.88-.545-1.372-1.584-.476-1.038-.476-2.464 0-1.443.476-2.464.492-1.02 1.372-1.566.898-.563 2.06-.563 1.143 0 2.006.581.88.563 1.162 1.548h-.212v-6.054h1.778v12.954h-1.76v-2.007h.211a2.82 2.82 0 0 1-1.161 1.584q-.863.58-2.024.581m.44-1.39q1.143 0 1.848-.81.704-.81.704-2.394t-.704-2.376q-.705-.809-1.848-.809-1.163 0-1.866.809-.686.792-.686 2.376t.686 2.394q.704.81 1.866.81m7.539-6.935-.774-.598q.51-.528.686-.986.194-.475.194-.95l.475.369h-1.479v-2.076h2.095v1.425q0 .792-.264 1.479-.264.668-.933 1.337m6.922 8.325q-1.179 0-2.059-.546-.88-.545-1.373-1.584-.475-1.038-.475-2.464 0-1.443.475-2.464.493-1.02 1.373-1.566.88-.563 2.059-.563 1.162 0 2.024.581.862.58 1.144 1.584h-.193l.176-2.007h1.724l-.105 1.091q-.035.528-.035 1.039v6.741h-1.778v-1.972h.194a2.73 2.73 0 0 1-1.162 1.567q-.863.563-1.989.563m.44-1.39q1.144 0 1.831-.81.704-.81.704-2.394t-.704-2.376q-.687-.809-1.831-.809-1.161 0-1.865.809-.687.792-.687 2.376t.687 2.394 1.865.81m6.888 1.232v-8.871h1.778v8.871zm-.14-10.719v-1.848h2.059v1.848zm7.92 10.877q-1.162 0-2.059-.546-.88-.545-1.373-1.584-.475-1.038-.475-2.464 0-1.443.475-2.464.492-1.02 1.373-1.566.897-.563 2.059-.563 1.144 0 2.006.581.88.563 1.162 1.548h-.211v-6.054h1.777v12.954h-1.76v-2.007h.212a2.83 2.83 0 0 1-1.162 1.584q-.863.58-2.024.581m.44-1.39q1.145 0 1.848-.81t.704-2.394-.704-2.376q-.703-.809-1.848-.809-1.161 0-1.866.809-.686.792-.686 2.376t.686 2.394q.705.81 1.866.81m10.989 1.39c-1.43 0-2.56-.405-3.38-1.214q-1.23-1.215-1.23-3.362c0-.927.17-1.737.53-2.429s.86-1.226 1.49-1.601c.65-.388 1.39-.581 2.24-.581.83 0 1.53.176 2.09.528.57.352.99.85 1.29 1.496.29.633.44 1.384.44 2.253v.563h-6.69v-1.021h5.47l-.3.229c0-.88-.2-1.561-.59-2.042-.39-.493-.96-.739-1.69-.739-.83 0-1.46.287-1.91.862q-.66.846-.66 2.341v.176q0 1.567.75 2.359.78.792 2.19.792.765 0 1.44-.212c.46-.152.89-.399 1.3-.739l.58 1.215c-.41.363-.91.645-1.49.844-.59.188-1.21.282-1.87.282m13.24 0q-1.11 0-2.04-.282c-.62-.187-1.14-.451-1.55-.792l.55-1.214q.645.492 1.44.739.795.246 1.62.247c.65 0 1.13-.112 1.46-.335.33-.235.5-.551.5-.95a.95.95 0 0 0-.32-.739c-.2-.188-.54-.329-1-.423l-1.69-.334c-.76-.165-1.32-.446-1.71-.845s-.58-.909-.58-1.531q0-.792.42-1.408.435-.617 1.23-.968.81-.352 1.89-.352.975 0 1.83.281c.56.188 1.03.458 1.4.81l-.56 1.179q-.54-.458-1.23-.704a3.9 3.9 0 0 0-1.39-.264c-.66 0-1.15.123-1.46.37q-.48.37-.48.968c0 .305.1.557.28.757.2.187.51.334.94.44l1.69.334c.79.164 1.39.434 1.79.81q.6.563.6 1.513c0 .552-.15 1.033-.46 1.443-.3.411-.73.722-1.27.933-.53.211-1.17.317-1.9.317m9.53 0c-.88 0-1.65-.182-2.29-.546a3.8 3.8 0 0 1-1.5-1.584c-.35-.692-.53-1.513-.53-2.464 0-.95.18-1.766.53-2.446a3.66 3.66 0 0 1 1.5-1.584c.64-.376 1.41-.563 2.29-.563q1.32 0 2.28.563c.66.364 1.17.892 1.52 1.584q.54 1.02.54 2.446t-.54 2.464a3.77 3.77 0 0 1-1.52 1.584q-.96.546-2.28.546m0-1.39c.77 0 1.39-.27 1.84-.81q.69-.81.69-2.394t-.69-2.376c-.45-.539-1.07-.809-1.84-.809q-1.155 0-1.83.809-.69.792-.69 2.376c0 1.056.22 1.854.67 2.394.46.54 1.07.81 1.85.81m10.31 1.39q-1.335 0-2.34-.546a3.83 3.83 0 0 1-1.53-1.601c-.35-.704-.53-1.537-.53-2.499 0-.951.18-1.766.55-2.447q.54-1.02 1.53-1.549c.65-.363 1.43-.545 2.32-.545.58 0 1.13.099 1.67.299.54.188.99.458 1.34.81l-.58 1.249a3.2 3.2 0 0 0-1.11-.704 3.2 3.2 0 0 0-1.2-.246q-1.26 0-1.98.809c-.49.54-.73 1.32-.73 2.341 0 1.033.24 1.825.73 2.376q.72.827 1.98.827c.38 0 .77-.07 1.18-.211.41-.152.79-.393 1.13-.721l.58 1.249c-.36.352-.82.628-1.37.827-.54.188-1.09.282-1.64.282m4.89-.158v-8.871h1.78v8.871zm-.14-10.719v-1.848h2.06v1.848zm7.92 10.877c-.78 0-1.47-.182-2.06-.546-.58-.363-1.04-.891-1.37-1.584-.32-.692-.47-1.513-.47-2.464 0-.962.15-1.783.47-2.464.33-.68.79-1.202 1.37-1.566.59-.376 1.28-.563 2.06-.563s1.45.193 2.03.581q.855.58 1.14 1.584h-.19l.17-2.007h1.73c-.04.364-.07.728-.11 1.091q-.03.528-.03 1.039v6.741h-1.78v-1.972h.19c-.18.657-.57 1.18-1.16 1.567-.57.375-1.24.563-1.99.563m.44-1.39q1.155 0 1.83-.81c.47-.54.71-1.338.71-2.394s-.24-1.848-.71-2.376q-.675-.809-1.83-.809t-1.86.809q-.69.792-.69 2.376t.69 2.394 1.86.81m6.89 1.232v-12.954h1.78v12.954zm8.49.158c-1.44 0-2.56-.405-3.38-1.214-.82-.81-1.24-1.931-1.24-3.362 0-.927.18-1.737.53-2.429.37-.692.86-1.226 1.5-1.601.64-.388 1.39-.581 2.23-.581s1.53.176 2.1.528c.56.352.99.85 1.28 1.496.3.633.44 1.384.44 2.253v.563h-6.69v-1.021h5.48l-.3.229q0-1.32-.6-2.042c-.39-.493-.95-.739-1.69-.739-.82 0-1.45.287-1.9.862-.45.564-.67 1.344-.67 2.341v.176c0 1.044.25 1.831.76 2.359s1.24.792 2.18.792q.78 0 1.44-.212c.46-.152.9-.399 1.31-.739l.58 1.215a4.3 4.3 0 0 1-1.5.844 6.1 6.1 0 0 1-1.86.282"/><path fill="var(--fl-fgColor, #a93031)" d="M670.241 724.635q-1.9 0-3.239-.774a5.2 5.2 0 0 1-2.059-2.2q-.704-1.444-.704-3.397 0-1.954.704-3.379a5.2 5.2 0 0 1 2.059-2.2q1.338-.775 3.239-.775 1.32 0 2.358.387a5.25 5.25 0 0 1 1.813 1.127l-.634 1.461q-.844-.723-1.654-1.039-.792-.317-1.848-.317-2.006 0-3.062 1.232t-1.056 3.503q0 2.27 1.056 3.52 1.056 1.232 3.062 1.232 1.056 0 1.848-.317.81-.317 1.654-1.056l.634 1.461a5.5 5.5 0 0 1-1.813 1.144q-1.038.387-2.358.387m9.494 0q-1.32 0-2.288-.546a3.8 3.8 0 0 1-1.496-1.584q-.528-1.038-.528-2.464t.528-2.446q.528-1.038 1.496-1.584.968-.563 2.288-.563t2.288.563a3.66 3.66 0 0 1 1.513 1.584q.546 1.02.546 2.446t-.546 2.464a3.8 3.8 0 0 1-1.513 1.584q-.968.546-2.288.546m0-1.39q1.161 0 1.848-.81.686-.81.686-2.394t-.686-2.376q-.687-.809-1.848-.809-1.144 0-1.831.809-.686.792-.686 2.376t.669 2.394q.685.81 1.848.81m9.575 1.39q-1.602 0-2.411-.862-.792-.88-.792-2.693v-5.474h1.777v5.439q0 1.108.458 1.636.457.528 1.39.528 1.056 0 1.707-.704.652-.704.652-1.865v-5.034h1.777v8.871h-1.725v-1.901h.229q-.369.985-1.179 1.531-.81.528-1.883.528m-2.042-9.909 1.936-3.555h1.619l1.936 3.555h-1.179l-1.566-2.464-1.567 2.464zm12.654 9.909q-1.444 0-2.183-.774-.74-.793-.739-2.359v-4.523h-1.725v-1.373H697v-2.341l1.778-.475v2.816h2.464v1.373h-2.464v4.365q0 .985.352 1.408t1.02.422q.335 0 .581-.053.264-.07.475-.158v1.443a2.8 2.8 0 0 1-.616.159q-.351.07-.668.07m11.033 0q-1.162 0-2.059-.546-.88-.545-1.373-1.584-.475-1.038-.475-2.464 0-1.443.475-2.464.492-1.02 1.373-1.566.897-.563 2.059-.563 1.143 0 2.006.581.88.563 1.162 1.548h-.211v-6.054h1.777v12.954h-1.76v-2.007h.211a2.82 2.82 0 0 1-1.161 1.584q-.863.58-2.024.581m.44-1.39q1.143 0 1.848-.81.704-.81.704-2.394t-.704-2.376q-.705-.809-1.848-.809-1.163 0-1.866.809-.686.792-.686 2.376t.686 2.394q.704.81 1.866.81m10.989 1.39q-2.148 0-3.379-1.214-1.233-1.215-1.232-3.362 0-1.39.528-2.429a3.94 3.94 0 0 1 1.496-1.601q.967-.582 2.235-.581 1.25 0 2.094.528.845.528 1.285 1.496.44.95.44 2.253v.563h-6.688v-1.021h5.474l-.3.229q0-1.32-.598-2.042-.58-.74-1.69-.739-1.232 0-1.9.862-.669.846-.669 2.341v.176q0 1.567.757 2.359.774.792 2.182.792.774 0 1.443-.212a4 4 0 0 0 1.303-.739l.58 1.215q-.615.545-1.496.844a6 6 0 0 1-1.865.282m10.199-.158v-12.954h1.778v12.954zm7.78.158q-1.18 0-2.06-.546-.88-.545-1.372-1.584-.476-1.038-.476-2.464 0-1.443.476-2.464.492-1.02 1.372-1.566.88-.563 2.06-.563 1.161 0 2.024.581.861.58 1.144 1.584h-.194l.176-2.007h1.725l-.106 1.091q-.035.528-.035 1.039v6.741h-1.778v-1.972h.194a2.73 2.73 0 0 1-1.162 1.567q-.863.563-1.988.563m.44-1.39q1.143 0 1.83-.81.704-.81.704-2.394t-.704-2.376q-.687-.809-1.83-.809-1.163 0-1.866.809-.687.792-.686 2.376 0 1.584.686 2.394t1.866.81m14.185 1.232-3.802-8.871h1.901l2.992 7.41h-.51l3.044-7.41h1.813l-3.819 8.871zm6.848 0v-8.871h1.778v8.871zm-.141-10.719v-1.848h2.059v1.848zm8.625 10.877q-2.148 0-3.38-1.214-1.232-1.215-1.232-3.362 0-1.39.528-2.429a3.95 3.95 0 0 1 1.496-1.601q.969-.582 2.236-.581 1.25 0 2.094.528.845.528 1.285 1.496.44.95.44 2.253v.563h-6.688v-1.021h5.473l-.299.229q0-1.32-.598-2.042-.581-.74-1.69-.739-1.232 0-1.901.862-.668.846-.668 2.341v.176q0 1.567.756 2.359.775.792 2.183.792.774 0 1.443-.212a4 4 0 0 0 1.302-.739l.581 1.215q-.615.545-1.496.844a6 6 0 0 1-1.865.282M854.298 210.635q-1.496 0-2.71-.37a6.7 6.7 0 0 1-2.112-1.091l.616-1.443q.598.457 1.232.757.651.299 1.373.457a8.5 8.5 0 0 0 1.601.141q1.478 0 2.165-.528.704-.528.704-1.39 0-.74-.493-1.144-.476-.405-1.689-.651l-1.919-.388q-1.707-.352-2.552-1.144-.827-.809-.827-2.2 0-1.126.598-1.971.599-.845 1.655-1.302 1.074-.458 2.499-.458 1.32 0 2.429.387 1.109.37 1.865 1.109l-.598 1.391a5.2 5.2 0 0 0-1.69-1.004q-.898-.334-2.041-.334-1.356 0-2.13.563-.756.564-.757 1.531 0 .775.476 1.215.492.44 1.619.669l1.918.369q1.777.37 2.623 1.144.844.757.844 2.095 0 1.073-.58 1.883-.564.809-1.62 1.267-1.056.44-2.499.44m10.189 0q-1.444 0-2.183-.774-.74-.792-.739-2.359v-4.523h-1.725v-1.373h1.725v-2.341l1.778-.475v2.816h2.464v1.373h-2.464v4.365q0 .985.352 1.408t1.02.422q.335 0 .581-.053.264-.07.475-.158v1.443a2.8 2.8 0 0 1-.616.159q-.351.07-.668.07m2.944-.158v-8.871h1.777v8.871zm-.141-10.719v-1.848h2.059v1.848zm8.519 14.661a8 8 0 0 1-2.183-.282 5.6 5.6 0 0 1-1.742-.844l.44-1.303q.546.37 1.074.581.528.228 1.108.334a6.6 6.6 0 0 0 1.197.106q1.268 0 1.901-.651.651-.635.651-1.848v-2.376h.176a2.73 2.73 0 0 1-1.161 1.566q-.862.564-2.007.563-1.213 0-2.112-.528a3.7 3.7 0 0 1-1.373-1.531q-.475-1.004-.475-2.358 0-1.356.475-2.341.493-.986 1.373-1.514.899-.545 2.112-.545 1.162 0 2.007.581.861.563 1.144 1.548l-.159-.14.159-1.831h1.724a17 17 0 0 0-.14 2.13v6.565q0 2.006-1.074 3.062-1.056 1.056-3.115 1.056m-.123-5.544q1.161 0 1.848-.792.704-.792.704-2.235t-.704-2.218q-.687-.774-1.848-.774-1.197 0-1.901.774-.687.775-.687 2.218t.687 2.235q.704.792 1.901.792m6.904 1.602v-6.741q0-.511-.053-1.039a34 34 0 0 0-.088-1.091h1.725l.158 1.866h-.211q.37-.968 1.127-1.496.774-.528 1.848-.528 1.091 0 1.777.528.705.51.968 1.584h-.281a3.03 3.03 0 0 1 1.196-1.531q.846-.581 1.954-.581 1.479 0 2.218.862.739.863.739 2.675v5.492h-1.778v-5.404q0-1.16-.405-1.672-.387-.528-1.267-.528-1.02 0-1.619.704-.598.704-.598 1.901v4.999h-1.778v-5.404q0-1.16-.405-1.672-.387-.528-1.267-.528-1.02 0-1.602.704-.58.704-.58 1.901v4.999zm19.02.158q-1.179 0-2.059-.546-.88-.544-1.373-1.584-.475-1.038-.475-2.464 0-1.443.475-2.464.493-1.02 1.373-1.566.88-.563 2.059-.563 1.162 0 2.024.581.863.58 1.144 1.584h-.193l.176-2.007h1.725l-.106 1.091q-.036.528-.035 1.039v6.741h-1.778v-1.972h.194a2.73 2.73 0 0 1-1.162 1.567q-.863.563-1.989.563m.44-1.39q1.144 0 1.831-.81.704-.81.704-2.394t-.704-2.376q-.687-.809-1.831-.809-1.161 0-1.865.809-.687.792-.687 2.376t.687 2.394 1.865.81m10.338 1.39q-1.443 0-2.182-.774-.74-.792-.739-2.359v-4.523h-1.725v-1.373h1.725v-2.341l1.777-.475v2.816h2.464v1.373h-2.464v4.365q0 .985.352 1.408t1.021.422q.334 0 .581-.053a4 4 0 0 0 .475-.158v1.443a2.8 2.8 0 0 1-.616.159q-.352.07-.669.07m2.944-.158v-8.871h1.778v8.871zm-.141-10.719v-1.848h2.06v1.848zm7.569 10.877q-1.109 0-2.042-.282-.933-.28-1.549-.792l.546-1.214q.651.493 1.443.739a5.4 5.4 0 0 0 1.619.247q.969 0 1.461-.335.493-.352.493-.95a.94.94 0 0 0-.317-.739q-.299-.282-1.003-.423l-1.69-.334q-1.126-.247-1.707-.845-.58-.598-.581-1.531 0-.793.423-1.408.44-.617 1.232-.968.81-.352 1.883-.352.986 0 1.83.281.846.282 1.408.81l-.563 1.179a4 4 0 0 0-1.232-.704 3.8 3.8 0 0 0-1.39-.264q-.986 0-1.461.37a1.17 1.17 0 0 0-.475.968q0 .457.281.757.3.28.933.44l1.69.334q1.197.246 1.795.81.598.563.598 1.513 0 .828-.457 1.443-.458.617-1.267.933-.81.317-1.901.317m9.118 0q-1.18 0-2.06-.546-.88-.544-1.372-1.584-.476-1.038-.476-2.464 0-1.443.476-2.464.492-1.02 1.372-1.566.88-.563 2.06-.563 1.161 0 2.024.581.861.58 1.144 1.584h-.194l.176-2.007h1.725l-.106 1.091q-.035.528-.035 1.039v6.741h-1.778v-1.972h.194a2.73 2.73 0 0 1-1.162 1.567q-.863.563-1.988.563m.44-1.39q1.143 0 1.83-.81.704-.81.704-2.394t-.704-2.376q-.687-.809-1.83-.809-1.163 0-1.866.809-.687.792-.686 2.376 0 1.584.686 2.394t1.866.81m10.337 1.39q-1.443 0-2.182-.774-.74-.792-.739-2.359v-4.523h-1.725v-1.373h1.725v-2.341l1.777-.475v2.816h2.464v1.373h-2.464v4.365q0 .985.352 1.408t1.021.422q.335 0 .581-.053a4 4 0 0 0 .475-.158v1.443a2.8 2.8 0 0 1-.616.159q-.352.07-.669.07m2.944-.158v-8.871h1.778v8.871zm-.14-10.719v-1.848h2.059v1.848zm8.325 10.877q-1.32 0-2.288-.546a3.8 3.8 0 0 1-1.496-1.584q-.528-1.038-.528-2.464t.528-2.446a3.7 3.7 0 0 1 1.496-1.584q.968-.563 2.288-.563t2.288.563a3.66 3.66 0 0 1 1.513 1.584q.546 1.02.546 2.446t-.546 2.464a3.8 3.8 0 0 1-1.513 1.584q-.968.546-2.288.546m0-1.39q1.161 0 1.848-.81.686-.81.686-2.394t-.686-2.376q-.687-.809-1.848-.809-1.144 0-1.831.809-.686.792-.686 2.376t.669 2.394q.685.81 1.848.81m6.425 1.232v-6.741q0-.511-.053-1.039a34 34 0 0 0-.088-1.091h1.725l.158 1.866h-.211q.404-.986 1.25-1.496.845-.528 1.953-.528 1.567 0 2.359.862.809.863.809 2.675v5.492h-1.777v-5.386q0-1.179-.476-1.69-.457-.528-1.408-.528-1.126 0-1.795.704-.669.687-.669 1.866v5.034zm19.226.158q-2.147 0-3.38-1.214-1.232-1.215-1.232-3.362 0-1.39.528-2.429a3.95 3.95 0 0 1 1.496-1.601q.969-.581 2.236-.581 1.25 0 2.094.528.845.528 1.285 1.496.44.95.44 2.253v.563h-6.688v-1.021h5.473l-.299.229q0-1.32-.598-2.042-.581-.74-1.69-.739-1.232 0-1.901.862-.668.846-.668 2.341v.176q0 1.567.756 2.359.775.792 2.183.792.774 0 1.443-.212a4 4 0 0 0 1.302-.739l.581 1.215q-.615.545-1.496.844a6 6 0 0 1-1.865.282m8.939 0q-1.444 0-2.182-.774-.74-.792-.74-2.359v-4.523h-1.724v-1.373h1.724v-2.341l1.778-.475v2.816h2.464v1.373h-2.464v4.365q0 .985.352 1.408t1.021.422q.334 0 .581-.053a4 4 0 0 0 .475-.158v1.443a2.8 2.8 0 0 1-.616.159q-.353.07-.669.07m7.636 3.643v-10.542q0-.511-.052-1.039a37 37 0 0 0-.088-1.091h1.724l.176 2.007h-.193a2.77 2.77 0 0 1 1.126-1.584q.864-.581 2.037-.581c.79 0 1.48.187 2.06.563.59.364 1.04.886 1.36 1.566.33.681.49 1.502.49 2.464 0 .951-.16 1.772-.49 2.464-.32.693-.77 1.221-1.36 1.584-.58.364-1.27.546-2.06.546q-1.156 0-2.019-.563a2.77 2.77 0 0 1-1.127-1.567h.194v5.773zm4.29-5.033c.78 0 1.4-.27 1.85-.81.47-.54.71-1.338.71-2.394s-.24-1.848-.71-2.376c-.45-.539-1.07-.809-1.85-.809q-1.155 0-1.861.809-.686.792-.686 2.376t.686 2.394q.706.81 1.861.81m6.4 1.232v-6.671q0-.546-.03-1.091c-.02-.376-.04-.745-.08-1.109h1.73l.19 2.288h-.28q.18-.827.6-1.373.42-.545 1.02-.809.615-.264 1.29-.264c.18 0 .34.011.47.035q.195.018.39.07l-.02 1.584c-.2-.082-.38-.129-.53-.14a3 3 0 0 0-.53-.036q-.765 0-1.32.352a2.1 2.1 0 0 0-.82.916c-.19.387-.28.803-.28 1.249v4.999zm10.65.158c-1.43 0-2.56-.405-3.38-1.214q-1.23-1.215-1.23-3.362c0-.927.18-1.737.53-2.429.36-.692.86-1.226 1.49-1.601.65-.388 1.39-.581 2.24-.581.83 0 1.53.176 2.09.528.57.352.99.85 1.29 1.496.29.633.44 1.384.44 2.253v.563h-6.69v-1.021h5.47l-.3.229c0-.88-.2-1.561-.59-2.042-.39-.493-.95-.739-1.69-.739-.83 0-1.46.287-1.9.862-.45.564-.67 1.344-.67 2.341v.176q0 1.567.75 2.359.78.792 2.19.792.765 0 1.44-.212c.46-.152.89-.399 1.3-.739l.58 1.215c-.41.363-.91.645-1.49.844-.59.188-1.21.282-1.87.282m-.97-9.891 1.82-3.555h1.81l-2.4 3.555zm5.44 13.622c-.19 0-.41-.017-.65-.053a2.5 2.5 0 0 1-.67-.176v-1.443q.225.07.51.123.27.07.51.071c.46 0 .8-.147 1.04-.44.24-.282.37-.751.37-1.408v-9.434h1.78v9.557c0 1.056-.24 1.854-.71 2.394-.47.539-1.2.809-2.18.809m.95-14.608v-1.848h2.08v1.848zm7.62 10.877c-1.07 0-1.87-.288-2.41-.862-.53-.587-.79-1.485-.79-2.693v-5.474h1.77v5.439c0 .739.16 1.284.46 1.636.31.352.77.528 1.39.528q1.065 0 1.71-.704c.43-.469.65-1.091.65-1.865v-5.034h1.78v8.871h-1.73v-1.901h.23a3.07 3.07 0 0 1-1.18 1.531c-.54.352-1.16.528-1.88.528m11.16 3.784c-.8 0-1.53-.094-2.18-.282a5.6 5.6 0 0 1-1.75-.844l.44-1.303c.37.247.72.44 1.08.581q.525.228 1.11.334c.38.071.78.106 1.19.106.85 0 1.48-.217 1.9-.651.44-.423.65-1.039.65-1.848v-2.376h.18a2.72 2.72 0 0 1-1.16 1.566q-.87.564-2.01.563c-.81 0-1.51-.176-2.11-.528-.59-.363-1.04-.874-1.37-1.531q-.48-1.004-.48-2.358 0-1.356.48-2.341c.33-.657.78-1.162 1.37-1.514.6-.363 1.3-.545 2.11-.545q1.17 0 2.01.581.855.563 1.14 1.548l-.16-.14.16-1.831h1.73c-.05.364-.08.728-.11 1.091q-.03.528-.03 1.039v6.565q0 2.006-1.08 3.062c-.7.704-1.74 1.056-3.11 1.056m-.13-5.544c.78 0 1.4-.264 1.85-.792.47-.528.71-1.273.71-2.235s-.24-1.702-.71-2.218c-.45-.516-1.07-.774-1.85-.774-.79 0-1.43.258-1.9.774-.45.516-.68 1.256-.68 2.218s.23 1.707.68 2.235c.47.528 1.11.792 1.9.792m11.01 1.76c-1.43 0-2.56-.405-3.38-1.214q-1.23-1.215-1.23-3.362c0-.927.17-1.737.53-2.429s.86-1.226 1.49-1.601c.65-.388 1.39-.581 2.24-.581.83 0 1.53.176 2.09.528.57.352.99.85 1.29 1.496.29.633.44 1.384.44 2.253v.563h-6.69v-1.021h5.47l-.3.229c0-.88-.2-1.561-.59-2.042-.39-.493-.96-.739-1.69-.739-.83 0-1.46.287-1.91.862q-.66.846-.66 2.341v.176q0 1.567.75 2.359.78.792 2.19.792.765 0 1.44-.212c.46-.152.89-.399 1.3-.739l.58 1.215c-.41.363-.91.645-1.49.844-.59.188-1.21.282-1.87.282m-.97-9.891 1.81-3.555h1.82l-2.4 3.555zm9.52 9.891q-1.11 0-2.04-.282c-.62-.187-1.14-.451-1.55-.792l.55-1.214q.645.493 1.44.739t1.62.247c.64 0 1.13-.112 1.46-.335.33-.235.49-.551.49-.95 0-.305-.1-.552-.31-.739-.2-.188-.54-.329-1.01-.423l-1.69-.334c-.75-.165-1.32-.446-1.7-.845-.39-.399-.58-.909-.58-1.531q0-.793.42-1.408.435-.617 1.23-.968c.54-.235 1.17-.352 1.88-.352q.99 0 1.83.281.855.282 1.41.81l-.56 1.179a4.2 4.2 0 0 0-1.23-.704 3.9 3.9 0 0 0-1.39-.264c-.66 0-1.15.123-1.46.37q-.48.37-.48.968c0 .305.09.557.28.757q.3.28.93.44l1.69.334q1.2.246 1.8.81.6.563.6 1.513c0 .552-.16 1.033-.46 1.443-.31.411-.73.722-1.27.933s-1.17.317-1.9.317"/><path fill="var(--fl-fgColor, #222)" d="M190.943 724.477v-12.408h1.601l4.787 10.788h-.528l4.788-10.788h1.584v12.408h-1.655v-9.927h.581l-4.47 9.927h-1.144l-4.471-9.927h.599v9.927zm19.135.158q-2.146 0-3.379-1.214-1.232-1.215-1.232-3.362 0-1.39.528-2.429a3.95 3.95 0 0 1 1.496-1.601q.969-.582 2.235-.581 1.25 0 2.095.528.844.528 1.285 1.496.44.95.44 2.253v.563h-6.688v-1.021h5.473l-.299.229q0-1.32-.598-2.042-.582-.74-1.69-.739-1.232 0-1.901.862-.669.846-.669 2.341v.176q0 1.567.757 2.359.774.792 2.183.792.774 0 1.443-.212a4 4 0 0 0 1.302-.739l.581 1.215a4.3 4.3 0 0 1-1.496.844 6.1 6.1 0 0 1-1.866.282m8.552 0q-1.109 0-2.041-.282-.934-.28-1.549-.792l.545-1.214q.652.492 1.444.739a5.4 5.4 0 0 0 1.619.247q.968 0 1.461-.335a1.11 1.11 0 0 0 .492-.95.94.94 0 0 0-.316-.739q-.3-.282-1.004-.423l-1.689-.334q-1.126-.247-1.707-.845t-.581-1.531q0-.793.422-1.408.44-.617 1.232-.968.81-.352 1.883-.352.986 0 1.831.281.844.282 1.408.81l-.563 1.179a4 4 0 0 0-1.232-.704 3.9 3.9 0 0 0-1.391-.264q-.986 0-1.461.37a1.17 1.17 0 0 0-.475.968q0 .457.282.757.298.28.933.44l1.689.334q1.197.246 1.795.81.599.563.599 1.513 0 .828-.458 1.443-.457.616-1.267.933t-1.901.317m8.871 0q-1.6 0-2.411-.862-.792-.88-.792-2.693v-5.474h1.778v5.439q0 1.108.457 1.636.458.528 1.391.528 1.056 0 1.707-.704t.651-1.865v-5.034h1.778v8.871h-1.725v-1.901h.229q-.37.985-1.179 1.531-.81.528-1.884.528m7.127-.158v-6.671q0-.546-.035-1.091a17 17 0 0 0-.07-1.109h1.725l.193 2.288h-.281q.175-.827.598-1.373a2.6 2.6 0 0 1 1.021-.809q.616-.264 1.285-.264.281 0 .475.035.193.018.387.07l-.018 1.584a1.8 1.8 0 0 0-.528-.14 3 3 0 0 0-.528-.036q-.774 0-1.32.352a2.16 2.16 0 0 0-.827.916 2.8 2.8 0 0 0-.281 1.249v4.999zm10.65.158q-2.146 0-3.379-1.214-1.232-1.215-1.232-3.362 0-1.39.528-2.429a3.95 3.95 0 0 1 1.496-1.601q.969-.582 2.235-.581 1.25 0 2.095.528.844.528 1.285 1.496.44.95.44 2.253v.563h-6.688v-1.021h5.473l-.299.229q0-1.32-.598-2.042-.582-.74-1.69-.739-1.232 0-1.901.862-.669.846-.669 2.341v.176q0 1.567.757 2.359.774.792 2.183.792.774 0 1.443-.212a4 4 0 0 0 1.302-.739l.581 1.215a4.3 4.3 0 0 1-1.496.844 6.1 6.1 0 0 1-1.866.282m8.552 0q-1.109 0-2.041-.282-.934-.28-1.549-.792l.545-1.214q.652.492 1.444.739a5.4 5.4 0 0 0 1.619.247q.968 0 1.461-.335a1.11 1.11 0 0 0 .492-.95.94.94 0 0 0-.316-.739q-.3-.282-1.004-.423l-1.689-.334q-1.126-.247-1.707-.845t-.581-1.531q0-.793.422-1.408.44-.617 1.232-.968.81-.352 1.883-.352.986 0 1.831.281.844.282 1.408.81l-.563 1.179a4 4 0 0 0-1.232-.704 3.9 3.9 0 0 0-1.391-.264q-.986 0-1.461.37a1.17 1.17 0 0 0-.475.968q0 .457.282.757.298.28.933.44l1.689.334q1.197.246 1.795.81.599.563.599 1.513 0 .828-.458 1.443-.457.616-1.267.933t-1.901.317m13.81 0q-1.162 0-2.059-.546-.88-.545-1.373-1.584-.475-1.038-.475-2.464 0-1.443.475-2.464.493-1.02 1.373-1.566.898-.563 2.059-.563 1.144 0 2.006.581.88.563 1.162 1.548h-.211v-6.054h1.777v12.954h-1.76v-2.007h.212a2.83 2.83 0 0 1-1.162 1.584q-.863.58-2.024.581m.44-1.39q1.144 0 1.848-.81t.704-2.394-.704-2.376q-.703-.809-1.848-.809-1.161 0-1.866.809-.686.792-.686 2.376t.686 2.394q.705.81 1.866.81m7.539-6.935-.774-.598q.51-.528.686-.986.194-.475.194-.95l.475.369h-1.478v-2.076h2.094v1.425q0 .792-.264 1.479-.264.668-.933 1.337m6.923 8.325q-1.18 0-2.06-.546-.88-.545-1.372-1.584-.476-1.038-.476-2.464 0-1.443.476-2.464.493-1.02 1.372-1.566.88-.563 2.06-.563 1.161 0 2.024.581.862.58 1.144 1.584h-.194l.176-2.007h1.725l-.106 1.091q-.035.528-.035 1.039v6.741h-1.778v-1.972h.194a2.73 2.73 0 0 1-1.162 1.567q-.862.563-1.988.563m.44-1.39q1.143 0 1.83-.81.704-.81.704-2.394t-.704-2.376q-.687-.809-1.83-.809-1.162 0-1.866.809-.687.792-.686 2.376 0 1.584.686 2.394t1.866.81m10.285 1.39q-1.162 0-2.06-.546-.88-.545-1.372-1.584-.476-1.038-.476-2.464 0-1.443.476-2.464.492-1.02 1.372-1.566.898-.563 2.06-.563 1.143 0 2.006.581.88.563 1.162 1.548h-.212v-6.054h1.778v12.954h-1.76v-2.007h.211a2.82 2.82 0 0 1-1.161 1.584q-.863.58-2.024.581m.44-1.39q1.143 0 1.848-.81.704-.81.704-2.394t-.704-2.376q-.705-.809-1.848-.809-1.162 0-1.866.809-.687.792-.686 2.376 0 1.584.686 2.394.704.81 1.866.81m10.285 1.39q-1.18 0-2.06-.546-.88-.545-1.372-1.584-.476-1.038-.476-2.464 0-1.443.476-2.464.493-1.02 1.372-1.566.88-.563 2.06-.563 1.161 0 2.024.581.862.58 1.144 1.584h-.194l.176-2.007h1.725l-.106 1.091q-.035.528-.035 1.039v6.741h-1.778v-1.972h.194a2.73 2.73 0 0 1-1.162 1.567q-.862.563-1.988.563m.44-1.39q1.143 0 1.83-.81.704-.81.704-2.394t-.704-2.376q-.687-.809-1.83-.809-1.163 0-1.866.809-.687.792-.686 2.376 0 1.584.686 2.394t1.866.81m6.888 5.033v-10.542q0-.511-.053-1.039a34 34 0 0 0-.088-1.091h1.725l.176 2.007h-.194a2.77 2.77 0 0 1 1.127-1.584q.862-.582 2.041-.581 1.18 0 2.059.563.88.546 1.356 1.566.492 1.021.492 2.464 0 1.426-.492 2.464-.476 1.04-1.356 1.584-.88.546-2.059.546-1.161 0-2.024-.563a2.77 2.77 0 0 1-1.126-1.567h.193v5.773zm4.294-5.033q1.162 0 1.848-.81.705-.81.704-2.394 0-1.584-.704-2.376-.685-.809-1.848-.809-1.161 0-1.865.809-.687.792-.687 2.376t.687 2.394q.704.81 1.865.81m9.794 1.39q-1.443 0-2.182-.774-.74-.793-.739-2.359v-4.523h-1.725v-1.373h1.725v-2.341l1.777-.475v2.816h2.464v1.373h-2.464v4.365q0 .985.352 1.408t1.021.422q.335 0 .581-.053a4 4 0 0 0 .475-.158v1.443a2.8 2.8 0 0 1-.616.159q-.351.07-.669.07m6.341 0q-1.179 0-2.059-.546-.88-.545-1.373-1.584-.474-1.038-.475-2.464 0-1.443.475-2.464.494-1.02 1.373-1.566.88-.563 2.059-.563 1.162 0 2.024.581.863.58 1.144 1.584h-.193l.176-2.007h1.725l-.106 1.091q-.035.528-.035 1.039v6.741h-1.778v-1.972h.194a2.73 2.73 0 0 1-1.162 1.567q-.863.563-1.989.563m.44-1.39q1.144 0 1.831-.81.704-.81.704-2.394t-.704-2.376q-.687-.809-1.831-.809-1.161 0-1.865.809-.687.792-.687 2.376t.687 2.394q.686.81 1.865.81m10.338 1.39q-1.443 0-2.182-.774-.74-.793-.739-2.359v-4.523h-1.725v-1.373h1.725v-2.341l1.777-.475v2.816h2.464v1.373h-2.464v4.365q0 .985.352 1.408t1.021.422q.335 0 .581-.053a4 4 0 0 0 .475-.158v1.443a2.8 2.8 0 0 1-.616.159q-.353.07-.669.07m2.944-.158v-8.871h1.778v8.871zm-.14-10.719v-1.848h2.059v1.848zm8.325 10.877q-1.32 0-2.288-.546a3.8 3.8 0 0 1-1.496-1.584q-.528-1.038-.528-2.464t.528-2.446q.528-1.038 1.496-1.584.968-.563 2.288-.563t2.288.563a3.66 3.66 0 0 1 1.513 1.584q.546 1.02.546 2.446t-.546 2.464a3.8 3.8 0 0 1-1.513 1.584q-.969.546-2.288.546m0-1.39q1.161 0 1.848-.81.686-.81.686-2.394t-.686-2.376q-.687-.809-1.848-.809-1.144 0-1.831.809-.686.792-.686 2.376t.669 2.394q.686.81 1.848.81m6.425 1.232v-6.741q0-.511-.053-1.039a37 37 0 0 0-.088-1.091h1.725l.158 1.866h-.211q.404-.986 1.25-1.496.844-.528 1.953-.528 1.567 0 2.359.862.809.863.809 2.675v5.492h-1.777v-5.386q0-1.179-.476-1.69-.457-.528-1.408-.528-1.126 0-1.795.704-.669.687-.669 1.866v5.034zm19.226.158q-2.148 0-3.38-1.214-1.232-1.215-1.232-3.362 0-1.39.528-2.429a3.95 3.95 0 0 1 1.496-1.601q.969-.582 2.236-.581 1.25 0 2.094.528t1.285 1.496q.44.95.44 2.253v.563h-6.688v-1.021h5.473l-.299.229q0-1.32-.598-2.042-.581-.74-1.69-.739-1.232 0-1.901.862-.668.846-.668 2.341v.176q0 1.567.756 2.359.775.792 2.183.792.774 0 1.443-.212a4 4 0 0 0 1.302-.739l.581 1.215a4.3 4.3 0 0 1-1.496.844 6 6 0 0 1-1.865.282m5.507-.158v-6.741q0-.511-.053-1.039a37 37 0 0 0-.088-1.091h1.725l.158 1.866h-.211q.405-.986 1.249-1.496.846-.528 1.954-.528 1.566 0 2.358.862.81.863.81 2.675v5.492h-1.778v-5.386q0-1.179-.475-1.69-.457-.528-1.408-.528-1.126 0-1.795.704-.669.687-.669 1.866v5.034zm19.225.158q-2.147 0-3.379-1.214-1.232-1.215-1.232-3.362 0-1.39.528-2.429a3.95 3.95 0 0 1 1.496-1.601q.968-.582 2.235-.581 1.25 0 2.095.528.844.528 1.285 1.496.44.95.44 2.253v.563h-6.688v-1.021h5.473l-.299.229q0-1.32-.598-2.042-.582-.74-1.69-.739-1.232 0-1.901.862-.669.846-.669 2.341v.176q0 1.567.757 2.359.774.792 2.183.792.774 0 1.443-.212a4 4 0 0 0 1.302-.739l.581 1.215a4.3 4.3 0 0 1-1.496.844 6.1 6.1 0 0 1-1.866.282m5.507-.158v-6.741q0-.511-.052-1.039a37 37 0 0 0-.088-1.091h1.724l.159 1.866h-.211q.369-.968 1.126-1.496.774-.528 1.848-.528 1.09 0 1.778.528.704.51.968 1.584h-.282a3.04 3.04 0 0 1 1.197-1.531q.844-.582 1.953-.581 1.479 0 2.218.862.74.863.739 2.675v5.492h-1.777v-5.404q0-1.16-.405-1.672-.387-.528-1.267-.528-1.021 0-1.62.704-.598.705-.598 1.901v4.999h-1.778v-5.404q0-1.16-.404-1.672-.388-.528-1.268-.528-1.02 0-1.601.704-.58.705-.581 1.901v4.999zm15.624 3.801v-10.542q0-.511-.053-1.039a34 34 0 0 0-.088-1.091h1.725l.176 2.007h-.194a2.77 2.77 0 0 1 1.127-1.584q.862-.582 2.041-.581 1.18 0 2.059.563.88.546 1.356 1.566.492 1.021.492 2.464 0 1.426-.492 2.464-.475 1.04-1.356 1.584-.88.546-2.059.546-1.161 0-2.024-.563a2.77 2.77 0 0 1-1.126-1.567h.193v5.773zm4.294-5.033q1.162 0 1.848-.81.704-.81.704-2.394t-.704-2.376q-.685-.809-1.848-.809-1.161 0-1.865.809-.687.792-.687 2.376t.687 2.394q.704.81 1.865.81m6.431 1.232v-12.954h1.777v12.954zm8.184.158q-1.32 0-2.288-.546a3.8 3.8 0 0 1-1.496-1.584q-.528-1.038-.528-2.464t.528-2.446a3.7 3.7 0 0 1 1.496-1.584q.969-.563 2.288-.563 1.32 0 2.288.563a3.66 3.66 0 0 1 1.514 1.584q.546 1.02.545 2.446 0 1.426-.545 2.464a3.8 3.8 0 0 1-1.514 1.584q-.968.546-2.288.546m0-1.39q1.162 0 1.848-.81t.687-2.394-.687-2.376q-.685-.809-1.848-.809-1.144 0-1.83.809-.687.792-.687 2.376t.669 2.394q.687.81 1.848.81m6.425 1.232v-8.871h1.778v8.871zm-.141-10.719v-1.848h2.06v1.848z"/><path fill="var(--fl-fgColor, #a93031)" d="M0 465.477v-12.408h8.131v1.46H1.778v3.908h5.948v1.478H1.778v4.083H8.13v1.479zm3.696-13.464 2.077-3.045H7.69l-2.693 3.045zm8.994 13.464-3.801-8.871h1.9l2.992 7.41h-.51l3.045-7.41h1.813l-3.82 8.871zm10.795.158q-2.147 0-3.38-1.214-1.231-1.215-1.232-3.362 0-1.39.528-2.429a3.95 3.95 0 0 1 1.496-1.601q.968-.582 2.236-.581 1.249 0 2.094.528t1.285 1.496q.44.95.44 2.253v.563h-6.688v-1.021h5.473l-.299.229q0-1.32-.598-2.042-.58-.74-1.69-.739-1.232 0-1.9.862-.67.846-.67 2.341v.176q0 1.567.757 2.359.775.792 2.183.792.774 0 1.443-.212a4 4 0 0 0 1.302-.739l.581 1.215q-.616.545-1.496.844a6 6 0 0 1-1.865.282m-.968-9.891 1.812-3.555h1.813l-2.393 3.555zm6.475 9.733v-6.741q0-.511-.053-1.039a35 35 0 0 0-.088-1.091h1.725l.158 1.866h-.211q.404-.986 1.25-1.496.844-.528 1.953-.528 1.566 0 2.358.862.81.863.81 2.675v5.492h-1.777v-5.386q0-1.179-.476-1.69-.457-.528-1.408-.528-1.126 0-1.795.704-.669.687-.669 1.866v5.034zm14.533.158q-2.147 0-3.379-1.214-1.232-1.215-1.232-3.362 0-1.39.528-2.429a3.95 3.95 0 0 1 1.496-1.601q.968-.582 2.235-.581 1.25 0 2.095.528.844.528 1.285 1.496.44.95.44 2.253v.563h-6.689v-1.021h5.474l-.3.229q0-1.32-.598-2.042-.58-.74-1.69-.739-1.23 0-1.9.862-.669.846-.669 2.341v.176q0 1.567.757 2.359.774.792 2.182.792.775 0 1.444-.212a4 4 0 0 0 1.302-.739l.58 1.215q-.615.545-1.495.844a6 6 0 0 1-1.866.282m5.507-.158v-6.741q0-.511-.052-1.039a35 35 0 0 0-.088-1.091h1.724l.159 1.866h-.212q.37-.969 1.127-1.496.774-.528 1.848-.528 1.09 0 1.778.528.703.51.967 1.584h-.281a3.04 3.04 0 0 1 1.197-1.531q.844-.582 1.953-.581 1.479 0 2.218.862.74.863.74 2.675v5.492H60.33v-5.404q0-1.16-.404-1.672-.387-.528-1.267-.528-1.02 0-1.62.704-.598.704-.598 1.901v4.999h-1.778v-5.404q0-1.16-.404-1.672-.388-.528-1.268-.528-1.02 0-1.601.704-.58.704-.581 1.901v4.999zm19.725.158q-2.148 0-3.38-1.214-1.232-1.215-1.232-3.362 0-1.39.528-2.429a3.95 3.95 0 0 1 1.496-1.601q.968-.582 2.236-.581 1.249 0 2.094.528t1.285 1.496q.44.95.44 2.253v.563h-6.688v-1.021h5.473l-.299.229q0-1.32-.598-2.042-.58-.74-1.69-.739-1.232 0-1.9.862-.67.846-.67 2.341v.176q0 1.567.757 2.359.775.792 2.183.792.774 0 1.443-.212a4 4 0 0 0 1.302-.739l.581 1.215q-.616.545-1.496.844a6 6 0 0 1-1.865.282m5.506-.158v-6.741q0-.511-.052-1.039a34 34 0 0 0-.088-1.091h1.724l.159 1.866h-.211q.404-.986 1.25-1.496.844-.528 1.953-.528 1.566 0 2.358.862.81.863.81 2.675v5.492h-1.778v-5.386q0-1.179-.475-1.69-.457-.528-1.408-.528-1.126 0-1.795.704-.669.687-.669 1.866v5.034zm13.883.158q-1.443 0-2.183-.774-.739-.793-.739-2.359v-4.523H83.5v-1.373h1.725v-2.341l1.778-.475v2.816h2.464v1.373h-2.464v4.365q0 .985.352 1.408.353.422 1.02.422.335 0 .582-.053.263-.07.475-.158v1.443a2.8 2.8 0 0 1-.616.159q-.352.07-.67.07m5.989 0a7 7 0 0 1-2.042-.282q-.933-.28-1.549-.792l.546-1.214q.651.492 1.443.739a5.4 5.4 0 0 0 1.62.247q.968 0 1.46-.335.493-.352.493-.95a.94.94 0 0 0-.317-.739q-.3-.282-1.003-.423l-1.69-.334q-1.126-.247-1.707-.845-.58-.598-.58-1.531 0-.792.422-1.408.44-.617 1.232-.968.81-.352 1.883-.352.985 0 1.83.281t1.409.81l-.564 1.179a4 4 0 0 0-1.232-.704 3.9 3.9 0 0 0-1.39-.264q-.986 0-1.46.37a1.17 1.17 0 0 0-.476.968q0 .457.282.757.299.28.932.44l1.69.334q1.197.246 1.795.81.598.563.598 1.513 0 .828-.457 1.443-.458.616-1.267.933-.81.317-1.901.317m10.413-.158v-8.871h1.778v8.871zm-.141-10.719v-1.848h2.059v1.848zm4.524 10.719v-6.741q0-.511-.053-1.039a37 37 0 0 0-.088-1.091h1.725l.158 1.866h-.211q.37-.969 1.126-1.496.775-.528 1.848-.528 1.091 0 1.778.528.704.51.968 1.584h-.282a3.04 3.04 0 0 1 1.197-1.531q.845-.582 1.954-.581 1.478 0 2.217.862.74.863.74 2.675v5.492h-1.778v-5.404q0-1.16-.405-1.672-.387-.528-1.267-.528-1.021 0-1.619.704t-.599 1.901v4.999h-1.777v-5.404q0-1.16-.405-1.672-.387-.528-1.267-.528-1.022 0-1.602.704t-.581 1.901v4.999zm15.623 3.801v-10.542a10 10 0 0 0-.053-1.039 31 31 0 0 0-.088-1.091h1.725l.176 2.007h-.193a2.77 2.77 0 0 1 1.126-1.584q.862-.582 2.042-.581 1.179 0 2.059.563.88.546 1.355 1.566.492 1.021.493 2.464 0 1.426-.493 2.464-.476 1.04-1.355 1.584-.88.546-2.059.546-1.163 0-2.024-.563a2.77 2.77 0 0 1-1.127-1.567h.194v5.773zm4.295-5.033q1.161 0 1.848-.81.704-.81.704-2.394t-.704-2.376q-.687-.809-1.848-.809-1.163 0-1.866.809-.686.792-.686 2.376t.686 2.394q.703.81 1.866.81m6.395 1.232v-6.671q0-.545-.035-1.091a17 17 0 0 0-.071-1.109h1.725l.194 2.288h-.282q.176-.827.599-1.373a2.6 2.6 0 0 1 1.02-.809 3.2 3.2 0 0 1 1.285-.264q.282 0 .475.035.193.018.388.07l-.018 1.584a1.8 1.8 0 0 0-.528-.14 3 3 0 0 0-.528-.036q-.774 0-1.32.352-.546.334-.827.916a2.8 2.8 0 0 0-.282 1.249v4.999zm10.65.158q-2.147 0-3.379-1.214-1.233-1.215-1.232-3.362 0-1.39.528-2.429.546-1.038 1.496-1.601.967-.582 2.235-.581 1.25 0 2.094.528.846.528 1.285 1.496.44.95.44 2.253v.563h-6.688v-1.021h5.474l-.299.229q0-1.32-.599-2.042-.58-.74-1.689-.739-1.233 0-1.901.862-.669.846-.669 2.341v.176q0 1.567.757 2.359.774.792 2.182.792.775 0 1.443-.212a4 4 0 0 0 1.303-.739l.581 1.215q-.617.545-1.496.844a6.1 6.1 0 0 1-1.866.282m-.968-9.891 1.813-3.555h1.813l-2.394 3.555zm8.96 9.733-3.802-8.871h1.901l2.992 7.41h-.511l3.045-7.41h1.813l-3.819 8.871zm9.998.158q-1.6 0-2.411-.862-.792-.88-.792-2.693v-5.474h1.778v5.439q0 1.108.457 1.636.458.528 1.391.528 1.056 0 1.707-.704t.651-1.865v-5.034h1.778v8.871h-1.725v-1.901h.229q-.37.985-1.18 1.531-.809.528-1.883.528m10.207 0q-1.109 0-2.041-.282-.934-.28-1.549-.792l.545-1.214a4.7 4.7 0 0 0 1.444.739 5.4 5.4 0 0 0 1.619.247q.968 0 1.461-.335a1.11 1.11 0 0 0 .492-.95.94.94 0 0 0-.316-.739q-.3-.282-1.004-.423l-1.689-.334q-1.126-.247-1.707-.845t-.581-1.531q0-.792.422-1.408.44-.617 1.232-.968.81-.352 1.883-.352.986 0 1.831.281.844.282 1.408.81l-.563 1.179a4 4 0 0 0-1.232-.704 3.9 3.9 0 0 0-1.391-.264q-.986 0-1.461.37a1.17 1.17 0 0 0-.475.968q0 .457.282.757.298.28.933.44l1.689.334q1.197.246 1.795.81.599.563.599 1.513 0 .828-.458 1.443-.457.616-1.267.933t-1.901.317"/><path fill="var(--fl-fgColor, #222)" d="M704.992 22.477V10.069h1.831V20.91h6.089v1.567zm9.553 0v-8.87h1.777v8.87zm-.141-10.719V9.91h2.059v1.848zm8.624 10.877q-2.146 0-3.379-1.214-1.232-1.215-1.232-3.362 0-1.39.528-2.429a3.95 3.95 0 0 1 1.496-1.601q.969-.581 2.235-.581 1.25 0 2.095.528.844.527 1.285 1.496.44.95.44 2.253v.563h-6.688v-1.021h5.473l-.299.229q0-1.32-.598-2.042-.582-.74-1.69-.739-1.232 0-1.901.862-.669.846-.669 2.341v.176q0 1.566.757 2.359.774.792 2.183.792.774 0 1.443-.212a4 4 0 0 0 1.302-.739l.581 1.215a4.3 4.3 0 0 1-1.496.844 6.1 6.1 0 0 1-1.866.282m8.658 0q-1.602 0-2.411-.862-.792-.88-.792-2.693v-5.474h1.777v5.439q0 1.108.458 1.636.457.528 1.39.528 1.056 0 1.707-.704.652-.703.652-1.865v-5.034h1.777v8.87h-1.725v-1.9h.229q-.369.985-1.179 1.531-.81.528-1.883.528m15.251 0q-1.162 0-2.059-.546-.88-.544-1.373-1.584-.475-1.038-.475-2.464 0-1.443.475-2.464.492-1.02 1.373-1.566.897-.563 2.059-.563 1.144 0 2.006.58.88.563 1.162 1.55h-.211V9.522h1.777v12.954h-1.76V20.47h.211a2.83 2.83 0 0 1-1.161 1.584q-.863.58-2.024.581m.44-1.39q1.145 0 1.848-.81t.704-2.394-.704-2.376q-.703-.81-1.848-.81-1.162 0-1.866.81-.686.792-.686 2.376t.686 2.394q.704.81 1.866.81m10.989 1.39q-2.148 0-3.379-1.214-1.233-1.215-1.232-3.362 0-1.39.528-2.429a3.94 3.94 0 0 1 1.496-1.601q.967-.581 2.235-.581 1.25 0 2.094.528.845.527 1.285 1.496.44.95.44 2.253v.563h-6.688v-1.021h5.474l-.3.229q0-1.32-.598-2.042-.58-.74-1.69-.739-1.231 0-1.9.862-.669.846-.669 2.341v.176q0 1.566.757 2.359.774.792 2.182.792.774 0 1.443-.212a4 4 0 0 0 1.303-.739l.58 1.215q-.615.545-1.496.844a6 6 0 0 1-1.865.282m10.164-.158v-6.67q0-.547-.035-1.092a17 17 0 0 0-.071-1.109h1.725l.194 2.288h-.282q.176-.827.598-1.373a2.6 2.6 0 0 1 1.021-.81 3.23 3.23 0 0 1 1.76-.228q.194.018.387.07l-.017 1.584q-.3-.123-.528-.14a3.3 3.3 0 0 0-.528-.036q-.774 0-1.32.352-.546.334-.827.916a2.8 2.8 0 0 0-.282 1.25v4.998zm10.65.158q-2.148 0-3.379-1.214-1.232-1.215-1.232-3.362 0-1.39.528-2.429a3.94 3.94 0 0 1 1.496-1.601q.967-.581 2.235-.581 1.25 0 2.094.528.846.527 1.285 1.496.44.95.44 2.253v.563h-6.688v-1.021h5.474l-.299.229q0-1.32-.599-2.042-.58-.74-1.689-.739-1.233 0-1.901.862-.669.846-.669 2.341v.176q0 1.566.757 2.359.774.792 2.182.792.774 0 1.443-.212a4 4 0 0 0 1.303-.739l.581 1.215q-.617.545-1.496.844a6.1 6.1 0 0 1-1.866.282m-.968-9.891 1.813-3.555h1.813l-2.394 3.555zm9.52 9.891q-1.109 0-2.042-.282-.933-.28-1.549-.792l.546-1.214q.651.492 1.443.74a5.4 5.4 0 0 0 1.619.246q.969 0 1.461-.335.493-.352.493-.95a.94.94 0 0 0-.317-.74q-.299-.28-1.003-.422l-1.69-.334q-1.127-.247-1.707-.845-.58-.599-.581-1.531 0-.793.423-1.408.44-.616 1.232-.968.81-.352 1.883-.352a5.8 5.8 0 0 1 1.83.281q.846.282 1.408.81l-.563 1.18a4 4 0 0 0-1.232-.705 3.8 3.8 0 0 0-1.39-.264q-.986 0-1.461.37a1.17 1.17 0 0 0-.475.968q0 .457.281.757.3.28.933.44l1.69.334q1.197.246 1.795.81.598.563.598 1.513 0 .828-.457 1.443-.458.617-1.267.933-.81.317-1.901.317m5.721-.158v-8.87h1.777v8.87zm-.141-10.719V9.91h2.059v1.848zm7.92 10.877q-1.161 0-2.059-.546-.88-.544-1.373-1.584-.475-1.038-.475-2.464 0-1.443.475-2.464.493-1.02 1.373-1.566.898-.563 2.059-.563 1.145 0 2.007.58.879.563 1.161 1.55h-.211V9.522h1.778v12.954h-1.76V20.47h.211a2.83 2.83 0 0 1-1.162 1.584q-.862.58-2.024.581m.44-1.39q1.145 0 1.848-.81.705-.81.704-2.394 0-1.584-.704-2.376-.704-.81-1.848-.81-1.161 0-1.865.81-.687.792-.687 2.376t.687 2.394q.704.81 1.865.81m10.989 1.39q-2.147 0-3.379-1.214-1.232-1.215-1.232-3.362 0-1.39.528-2.429.545-1.038 1.496-1.601.967-.581 2.235-.581 1.25 0 2.095.528.844.527 1.284 1.496.44.95.44 2.253v.563h-6.688v-1.021h5.474l-.299.229q0-1.32-.599-2.042-.58-.74-1.689-.739-1.233 0-1.901.862-.669.846-.669 2.341v.176q0 1.566.757 2.359.775.792 2.182.792.775 0 1.444-.212a4 4 0 0 0 1.302-.739l.581 1.215q-.617.545-1.496.844a6.1 6.1 0 0 1-1.866.282m5.507-.158v-6.741q0-.51-.053-1.039a31 31 0 0 0-.088-1.09h1.725l.159 1.865h-.212q.405-.986 1.25-1.496.844-.528 1.954-.528 1.566 0 2.358.862.81.863.81 2.675v5.492h-1.778V17.09q0-1.18-.475-1.69-.458-.528-1.408-.528-1.127 0-1.795.704-.669.687-.669 1.866v5.034zm14.323.158q-1.338 0-2.341-.546a3.87 3.87 0 0 1-1.531-1.601q-.528-1.056-.528-2.5 0-1.425.545-2.446a3.7 3.7 0 0 1 1.531-1.549q.986-.545 2.324-.545.862 0 1.672.299.809.282 1.337.81l-.581 1.25a3.2 3.2 0 0 0-1.108-.705 3.2 3.2 0 0 0-1.197-.246q-1.268 0-1.989.81t-.722 2.34q0 1.55.722 2.376.721.828 1.989.827.563 0 1.179-.21a3.2 3.2 0 0 0 1.126-.722l.581 1.25q-.546.527-1.373.826a5 5 0 0 1-1.636.282m8.822 0q-2.148 0-3.379-1.214-1.233-1.215-1.232-3.362 0-1.39.528-2.429a3.94 3.94 0 0 1 1.496-1.601q.967-.581 2.235-.581 1.25 0 2.094.528.845.527 1.285 1.496.44.95.44 2.253v.563h-6.688v-1.021h5.474l-.3.229q0-1.32-.598-2.042-.58-.74-1.69-.739-1.232 0-1.9.862-.669.846-.669 2.341v.176q0 1.566.757 2.359.774.792 2.182.792.774 0 1.443-.212a4 4 0 0 0 1.303-.739l.58 1.215q-.615.545-1.496.844a6 6 0 0 1-1.865.282M172.476 22.635q-1.497 0-2.711-.37a6.7 6.7 0 0 1-2.112-1.09l.616-1.444q.599.457 1.232.757.651.3 1.373.457.74.141 1.602.141 1.478 0 2.164-.528.704-.528.704-1.39 0-.74-.492-1.144-.475-.405-1.69-.651l-1.918-.388q-1.708-.352-2.552-1.144-.828-.81-.828-2.2 0-1.126.599-1.97.598-.846 1.654-1.303 1.074-.458 2.499-.458 1.32 0 2.429.387 1.109.37 1.866 1.11l-.599 1.39a5.2 5.2 0 0 0-1.689-1.004q-.898-.334-2.042-.334-1.355 0-2.129.563-.757.564-.757 1.531 0 .775.475 1.215.493.44 1.619.669l1.919.37q1.778.369 2.622 1.143.845.757.845 2.095 0 1.073-.581 1.883-.563.81-1.619 1.267-1.056.44-2.499.44m10.188 0q-1.443 0-2.182-.774-.74-.793-.74-2.359V14.98h-1.724v-1.373h1.724v-2.34l1.778-.476v2.816h2.464v1.373h-2.464v4.365q0 .985.352 1.408t1.021.422q.334 0 .581-.053.264-.07.475-.158v1.443q-.264.105-.616.159-.352.07-.669.07m6.341 0q-1.18 0-2.059-.546-.88-.544-1.373-1.584-.475-1.038-.475-2.464 0-1.443.475-2.464.492-1.02 1.373-1.566.88-.563 2.059-.563 1.161 0 2.024.58.862.582 1.144 1.585h-.194l.176-2.007h1.725l-.106 1.091a16 16 0 0 0-.035 1.039v6.74h-1.777v-1.97h.193a2.72 2.72 0 0 1-1.161 1.566q-.862.563-1.989.563m.44-1.39q1.144 0 1.83-.81.704-.81.704-2.394t-.704-2.376q-.685-.81-1.83-.81-1.162 0-1.866.81-.686.792-.686 2.376t.686 2.394q.687.81 1.866.81m10.338 1.39q-1.443 0-2.183-.774-.74-.793-.739-2.359V14.98h-1.725v-1.373h1.725v-2.34l1.778-.476v2.816h2.464v1.373h-2.464v4.365q0 .985.352 1.408t1.02.422q.335 0 .581-.053.264-.07.475-.158v1.443q-.264.105-.616.159-.351.07-.668.07m6.094 0q-1.601 0-2.411-.862-.792-.88-.792-2.693v-5.474h1.778v5.439q0 1.108.457 1.636.458.528 1.391.528 1.056 0 1.707-.704.651-.703.651-1.865v-5.034h1.778v8.87h-1.725v-1.9h.229q-.37.985-1.18 1.531-.809.528-1.883.528m10.612 0q-1.444 0-2.182-.774-.74-.793-.74-2.359V14.98h-1.724v-1.373h1.724v-2.34l1.778-.476v2.816h2.464v1.373h-2.464v4.365q0 .985.352 1.408t1.021.422q.334 0 .581-.053.264-.07.475-.158v1.443q-.264.105-.616.159-.353.07-.669.07m11.033 0q-1.161 0-2.059-.546-.88-.544-1.373-1.584-.475-1.038-.475-2.464 0-1.443.475-2.464.493-1.02 1.373-1.566.898-.563 2.059-.563 1.145 0 2.006.58.88.563 1.162 1.55h-.211V9.522h1.777v12.954h-1.76V20.47h.212a2.83 2.83 0 0 1-1.162 1.584q-.863.58-2.024.581m.44-1.39q1.144 0 1.848-.81t.704-2.394-.704-2.376q-.704-.81-1.848-.81-1.161 0-1.866.81-.686.792-.686 2.376t.686 2.394q.705.81 1.866.81m7.539-6.935-.774-.598q.51-.527.686-.986.195-.475.194-.95l.475.37h-1.478v-2.077h2.094v1.425q0 .792-.264 1.479-.264.668-.933 1.337m3.526 8.167v-8.87h1.777v8.87zm-.141-10.719V9.91h2.059v1.848zm4.524 10.719v-6.741q0-.51-.053-1.039a36 36 0 0 0-.088-1.09h1.725l.158 1.865h-.211q.37-.969 1.126-1.496.774-.528 1.848-.528 1.091 0 1.778.528.704.51.968 1.584h-.282a3.04 3.04 0 0 1 1.197-1.531q.844-.581 1.954-.581 1.477 0 2.217.862.74.863.739 2.675v5.492h-1.777v-5.404q0-1.16-.405-1.672-.388-.528-1.267-.528-1.021 0-1.619.704t-.599 1.901v4.999h-1.777v-5.404q0-1.16-.405-1.672-.388-.528-1.267-.528-1.022 0-1.602.704t-.581 1.901v4.999zm15.623 0v-6.741q0-.51-.053-1.039a33 33 0 0 0-.088-1.09h1.725l.158 1.865h-.211q.37-.969 1.127-1.496.774-.528 1.848-.528 1.091 0 1.777.528.704.51.968 1.584h-.281a3.04 3.04 0 0 1 1.196-1.531q.846-.581 1.954-.581 1.479 0 2.218.862.739.863.739 2.675v5.492h-1.778v-5.404q0-1.16-.405-1.672-.387-.528-1.267-.528-1.02 0-1.619.704-.598.704-.598 1.901v4.999h-1.778v-5.404q0-1.16-.405-1.672-.387-.528-1.267-.528-1.02 0-1.602.704-.58.704-.58 1.901v4.999zm15.624 0v-8.87h1.777v8.87zm-.141-10.719V9.91h2.059v1.848zm8.519 14.661a8 8 0 0 1-2.183-.282 5.6 5.6 0 0 1-1.742-.844l.44-1.303q.545.37 1.073.581.528.229 1.109.334.58.105 1.197.106 1.267 0 1.901-.651.651-.634.651-1.848v-2.376h.176a2.73 2.73 0 0 1-1.162 1.566q-.862.564-2.006.563-1.215 0-2.112-.528a3.7 3.7 0 0 1-1.373-1.53q-.475-1.005-.475-2.36t.475-2.34q.493-.986 1.373-1.514.897-.545 2.112-.545 1.161 0 2.006.58.863.563 1.144 1.55l-.158-.141.158-1.83h1.725q-.07.545-.105 1.09-.036.528-.036 1.039V22.3q0 2.006-1.073 3.062-1.056 1.056-3.115 1.056m-.124-5.544q1.162 0 1.848-.792.705-.792.704-2.235 0-1.444-.704-2.218-.685-.774-1.848-.774-1.197 0-1.9.774-.687.774-.687 2.218t.687 2.235q.703.792 1.9.792m6.87 1.602v-6.67q0-.547-.036-1.092a17 17 0 0 0-.07-1.109h1.725l.193 2.288h-.281q.176-.827.598-1.373a2.6 2.6 0 0 1 1.021-.81 3.23 3.23 0 0 1 1.76-.228q.194.018.387.07l-.017 1.584q-.3-.123-.528-.14a3.3 3.3 0 0 0-.528-.036q-.775 0-1.32.352-.546.334-.828.916a2.8 2.8 0 0 0-.281 1.25v4.998zm9.98.158q-1.179 0-2.059-.546-.88-.544-1.373-1.584-.475-1.038-.475-2.464 0-1.443.475-2.464.493-1.02 1.373-1.566.88-.563 2.059-.563 1.162 0 2.024.58.862.582 1.144 1.585h-.193l.176-2.007h1.724l-.105 1.091q-.036.528-.035 1.039v6.74h-1.778v-1.97h.194a2.73 2.73 0 0 1-1.162 1.566q-.862.563-1.989.563m.44-1.39q1.144 0 1.831-.81.704-.81.704-2.394t-.704-2.376q-.687-.81-1.831-.81-1.161 0-1.865.81-.687.792-.687 2.376t.687 2.394q.686.81 1.865.81m10.338 1.39q-1.443 0-2.182-.774-.74-.793-.74-2.359V14.98h-1.724v-1.373h1.724v-2.34l1.778-.476v2.816h2.464v1.373h-2.464v4.365q0 .985.352 1.408t1.021.422q.334 0 .581-.053.264-.07.475-.158v1.443q-.264.105-.616.159-.353.07-.669.07m2.944-.158v-8.87h1.778v8.87zm-.141-10.719V9.91h2.059v1.848zm8.325 10.877q-1.32 0-2.288-.546a3.83 3.83 0 0 1-1.496-1.584q-.528-1.038-.528-2.464t.528-2.446a3.7 3.7 0 0 1 1.496-1.584q.969-.563 2.288-.563 1.32 0 2.288.563a3.65 3.65 0 0 1 1.514 1.584q.546 1.02.546 2.446 0 1.425-.546 2.464a3.8 3.8 0 0 1-1.514 1.584q-.968.546-2.288.546m0-1.39q1.162 0 1.848-.81t.687-2.394-.687-2.376q-.685-.81-1.848-.81-1.143 0-1.83.81-.687.792-.686 2.376 0 1.584.668 2.394.687.81 1.848.81m6.425 1.232v-6.741q0-.51-.052-1.039a36 36 0 0 0-.088-1.09h1.724l.159 1.865h-.211q.405-.986 1.249-1.496.845-.528 1.954-.528 1.566 0 2.358.862.81.863.81 2.675v5.492h-1.778V17.09q0-1.18-.475-1.69-.457-.528-1.408-.528-1.126 0-1.795.704-.669.687-.669 1.866v5.034z"/><path fill="var(--fl-fgColor, #a93031)" d="M79.202 227.477v-12.408h1.83v10.841h6.09v1.567zm12.95.158q-1.18 0-2.06-.546-.88-.544-1.372-1.584-.475-1.038-.475-2.464 0-1.443.475-2.464.492-1.02 1.373-1.566.88-.563 2.059-.563 1.161 0 2.024.581.862.58 1.144 1.584h-.194l.176-2.007h1.725l-.106 1.091q-.035.528-.035 1.039v6.741H95.11v-1.972h.193a2.73 2.73 0 0 1-1.162 1.567q-.861.563-1.988.563m.44-1.39q1.144 0 1.83-.81.704-.81.704-2.394t-.704-2.376q-.686-.809-1.83-.809-1.163 0-1.866.809-.686.792-.686 2.376t.686 2.394 1.866.81m6.888 1.232v-6.741q0-.511-.053-1.039a34 34 0 0 0-.088-1.091h1.725l.158 1.866h-.211q.405-.986 1.25-1.496.844-.528 1.953-.528 1.567 0 2.359.862.809.863.809 2.675v5.492h-1.777v-5.386q0-1.179-.475-1.69-.459-.528-1.408-.528-1.127 0-1.796.704-.668.687-.668 1.866v5.034zm14.428 3.942a8 8 0 0 1-2.182-.282 5.6 5.6 0 0 1-1.743-.844l.44-1.303q.546.37 1.074.581.528.228 1.109.334.58.106 1.196.106 1.268 0 1.901-.651.651-.635.651-1.848v-2.376h.176a2.72 2.72 0 0 1-1.161 1.566q-.862.564-2.007.563-1.214 0-2.112-.528a3.7 3.7 0 0 1-1.372-1.531q-.476-1.004-.476-2.358 0-1.356.476-2.341.493-.986 1.372-1.514.899-.545 2.112-.545 1.163 0 2.007.581.862.563 1.144 1.548l-.159-.14.159-1.831h1.725a17 17 0 0 0-.141 2.13v6.565q0 2.006-1.074 3.062-1.056 1.056-3.115 1.056m-.123-5.544q1.161 0 1.848-.792.704-.792.704-2.235t-.704-2.218q-.687-.774-1.848-.774-1.197 0-1.901.774-.686.775-.686 2.218t.686 2.235q.704.792 1.901.792m10.055 1.76q-1.602 0-2.411-.862-.792-.88-.792-2.693v-5.474h1.777v5.439q0 1.108.458 1.636.457.528 1.39.528 1.056 0 1.707-.704t.652-1.865v-5.034h1.777v8.871h-1.725v-1.901h.229q-.369.985-1.179 1.531-.81.528-1.883.528m11.263 0q-2.147 0-3.38-1.214-1.232-1.215-1.232-3.362 0-1.39.528-2.429a3.95 3.95 0 0 1 1.496-1.601q.969-.581 2.236-.581 1.25 0 2.094.528t1.285 1.496q.44.95.44 2.253v.563h-6.688v-1.021h5.473l-.299.229q0-1.32-.598-2.042-.581-.74-1.69-.739-1.232 0-1.901.862-.668.846-.668 2.341v.176q0 1.567.756 2.359.775.792 2.183.792.774 0 1.443-.212a4 4 0 0 0 1.302-.739l.581 1.215q-.615.545-1.496.844a6 6 0 0 1-1.865.282"/></svg>