<svg xmlns="http://www.w3.org/2000/svg" width="409" height="308" fill="none" viewBox="0 0 409 308">
    <circle cx="205.685" cy="145.16" r="130.097" fill="#E8B91C" stroke="#4A4021" stroke-dasharray="2 2"/>
    <circle cx="205.853" cy="145.329" r="99.002" fill="#F6D872" stroke="#4A4021" stroke-dasharray="2 2"/>
    <circle cx="205.853" cy="145.328" r="61.523" fill="#F9EEC6" stroke="#4A4021" stroke-dasharray="2 2"/>
    <path fill="#A93031" d="M206.707.293a1 1 0 0 0-1.414 0l-6.364 6.364a1 1 0 1 0 1.414 1.414L206 2.414l5.657 5.657a1 1 0 1 0 1.414-1.414L206.707.293Zm-1.414 130.414a.999.999 0 0 0 1.414 0l6.364-6.364a.999.999 0 1 0-1.414-1.414L206 128.586l-5.657-5.657a.999.999 0 1 0-1.414 1.414l6.364 6.364ZM206 1h-1v129h2V1h-1Z"/>
    <path stroke="#997D1E" stroke-dasharray="2 2" d="M336 145.5H76M205.5 275V15M113.553 236.621 297.101 53.073M114.596 53.409l182.876 182.876"/>
    <path fill="#A93031" d="M347.445 190.12c-.68 0-1.308-.084-1.884-.252a4.81 4.81 0 0 1-1.464-.72l.48-1.212c.272.192.556.356.852.492.296.128.612.228.948.3.336.064.692.096 1.068.096.632 0 1.088-.104 1.368-.312a.97.97 0 0 0 .42-.816c0-.296-.096-.52-.288-.672-.192-.16-.536-.292-1.032-.396l-1.356-.276c-.776-.16-1.356-.428-1.74-.804-.384-.376-.576-.88-.576-1.512 0-.528.14-.988.42-1.38.28-.392.672-.696 1.176-.912.504-.216 1.092-.324 1.764-.324a5.1 5.1 0 0 1 1.668.264c.512.168.94.412 1.284.732l-.48 1.152c-.344-.288-.72-.5-1.128-.636a4.09 4.09 0 0 0-1.368-.216c-.568 0-1.012.112-1.332.336a1.034 1.034 0 0 0-.468.9c0 .296.096.532.288.708.2.176.536.312 1.008.408l1.344.264c.8.16 1.392.424 1.776.792.384.36.576.848.576 1.464 0 .504-.136.948-.408 1.332-.272.376-.656.672-1.152.888-.496.208-1.084.312-1.764.312Zm7.398 0c-.624 0-1.164-.128-1.62-.384a2.7 2.7 0 0 1-1.068-1.092c-.248-.472-.372-1.032-.372-1.68 0-.648.124-1.204.372-1.668a2.7 2.7 0 0 1 1.068-1.092c.456-.256.996-.384 1.62-.384.624 0 1.164.128 1.62.384.464.256.82.62 1.068 1.092.256.464.384 1.02.384 1.668 0 .648-.128 1.208-.384 1.68a2.603 2.603 0 0 1-1.068 1.092c-.456.256-.996.384-1.62.384Zm0-1.152c.472 0 .848-.164 1.128-.492.28-.336.42-.84.42-1.512s-.14-1.172-.42-1.5c-.28-.328-.656-.492-1.128-.492-.472 0-.848.164-1.128.492-.28.328-.42.828-.42 1.5s.14 1.176.42 1.512c.28.328.656.492 1.128.492Zm7.15 1.152c-.624 0-1.172-.128-1.644-.384a2.68 2.68 0 0 1-1.08-1.092c-.256-.48-.384-1.048-.384-1.704 0-.656.128-1.216.384-1.68.264-.464.628-.82 1.092-1.068.464-.248 1.008-.372 1.632-.372.4 0 .788.064 1.164.192.384.12.696.296.936.528l-.456 1.044c-.216-.2-.46-.348-.732-.444a2.118 2.118 0 0 0-.78-.156c-.536 0-.956.168-1.26.504-.296.336-.444.824-.444 1.464s.148 1.132.444 1.476c.304.344.724.516 1.26.516.248 0 .504-.048.768-.144.272-.096.52-.244.744-.444l.456 1.032a2.54 2.54 0 0 1-.948.54c-.376.128-.76.192-1.152.192Zm3.262-.12v-6.06h1.5V190h-1.5Zm-.084-7.2v-1.464h1.668v1.464h-1.668Zm5.553 7.32c-.528 0-.992-.124-1.392-.372-.4-.256-.712-.62-.936-1.092-.224-.472-.336-1.036-.336-1.692 0-.656.112-1.216.336-1.68.224-.472.536-.832.936-1.08.4-.256.864-.384 1.392-.384.512 0 .96.128 1.344.384.392.248.652.584.78 1.008h-.132l.132-1.272h1.44l-.072.756a12.12 12.12 0 0 0-.024.756V190h-1.488l-.012-1.248h.144a1.77 1.77 0 0 1-.78.996 2.439 2.439 0 0 1-1.332.372Zm.42-1.152c.472 0 .852-.164 1.14-.492.288-.336.432-.84.432-1.512s-.144-1.172-.432-1.5c-.288-.328-.668-.492-1.14-.492-.472 0-.852.164-1.14.492-.288.328-.432.828-.432 1.5s.14 1.176.42 1.512c.288.328.672.492 1.152.492Zm4.682 1.032v-8.832h1.5V190h-1.5Zm8.762.12c-.528 0-.992-.124-1.392-.372-.4-.256-.712-.62-.936-1.092-.224-.472-.336-1.036-.336-1.692 0-.656.112-1.216.336-1.68.224-.472.536-.832.936-1.08.4-.256.864-.384 1.392-.384.512 0 .96.128 1.344.384.392.248.652.584.78 1.008h-.132l.132-1.272h1.44l-.072.756a12.12 12.12 0 0 0-.024.756V190h-1.488l-.012-1.248h.144a1.77 1.77 0 0 1-.78.996 2.439 2.439 0 0 1-1.332.372Zm.42-1.152c.472 0 .852-.164 1.14-.492.288-.336.432-.84.432-1.512s-.144-1.172-.432-1.5c-.288-.328-.668-.492-1.14-.492-.472 0-.852.164-1.14.492-.288.328-.432.828-.432 1.5s.14 1.176.42 1.512c.288.328.672.492 1.152.492Zm4.681 1.032v-6.06h1.5V190h-1.5Zm-.084-7.2v-1.464h1.668v1.464h-1.668Zm5.565 7.32c-.528 0-.996-.124-1.404-.372-.4-.256-.712-.62-.936-1.092-.224-.472-.336-1.036-.336-1.692 0-.656.112-1.216.336-1.68.224-.472.536-.832.936-1.08a2.586 2.586 0 0 1 1.404-.384 2.4 2.4 0 0 1 1.332.372c.392.24.652.568.78.984h-.156v-4.008h1.5V190h-1.476v-1.284h.144a1.82 1.82 0 0 1-.78 1.032c-.384.248-.832.372-1.344.372Zm.42-1.152c.472 0 .852-.164 1.14-.492.288-.336.432-.84.432-1.512s-.144-1.172-.432-1.5c-.288-.328-.668-.492-1.14-.492-.472 0-.856.164-1.152.492-.288.328-.432.828-.432 1.5s.144 1.176.432 1.512c.296.328.68.492 1.152.492Zm-44.555 18.624v-7.14a12.12 12.12 0 0 0-.096-1.512h1.452l.132 1.272h-.132c.12-.424.372-.76.756-1.008a2.424 2.424 0 0 1 1.356-.384c.536 0 1.004.128 1.404.384.4.248.712.608.936 1.08.224.464.336 1.024.336 1.68 0 .656-.112 1.22-.336 1.692a2.564 2.564 0 0 1-.936 1.092c-.4.248-.868.372-1.404.372a2.4 2.4 0 0 1-1.332-.372 1.784 1.784 0 0 1-.768-.996h.132v3.84h-1.5Zm3.048-3.624c.48 0 .864-.164 1.152-.492.288-.336.432-.84.432-1.512s-.144-1.172-.432-1.5c-.288-.328-.672-.492-1.152-.492-.472 0-.852.164-1.14.492-.288.328-.432.828-.432 1.5s.144 1.176.432 1.512c.288.328.668.492 1.14.492Zm7.129 1.152c-.624 0-1.164-.128-1.62-.384a2.7 2.7 0 0 1-1.068-1.092c-.248-.472-.372-1.032-.372-1.68 0-.648.124-1.204.372-1.668a2.7 2.7 0 0 1 1.068-1.092c.456-.256.996-.384 1.62-.384.624 0 1.164.128 1.62.384.464.256.82.62 1.068 1.092.256.464.384 1.02.384 1.668 0 .648-.128 1.208-.384 1.68a2.603 2.603 0 0 1-1.068 1.092c-.456.256-.996.384-1.62.384Zm0-1.152c.472 0 .848-.164 1.128-.492.28-.336.42-.84.42-1.512s-.14-1.172-.42-1.5c-.28-.328-.656-.492-1.128-.492-.472 0-.848.164-1.128.492-.28.328-.42.828-.42 1.5s.14 1.176.42 1.512c.28.328.656.492 1.128.492Zm4.366 1.032v-8.832h1.5V205h-1.5Zm3.129 0v-6.06h1.5V205h-1.5Zm-.084-7.2v-1.464h1.668v1.464h-1.668Zm5.997 7.32c-.624 0-1.172-.128-1.644-.384a2.68 2.68 0 0 1-1.08-1.092c-.256-.48-.384-1.048-.384-1.704 0-.656.128-1.216.384-1.68.264-.464.628-.82 1.092-1.068.464-.248 1.008-.372 1.632-.372.4 0 .788.064 1.164.192.384.12.696.296.936.528l-.456 1.044c-.216-.2-.46-.348-.732-.444a2.118 2.118 0 0 0-.78-.156c-.536 0-.956.168-1.26.504-.296.336-.444.824-.444 1.464s.148 1.132.444 1.476c.304.344.724.516 1.26.516.248 0 .504-.048.768-.144.272-.096.52-.244.744-.444l.456 1.032a2.54 2.54 0 0 1-.948.54c-.376.128-.76.192-1.152.192Zm3.262-.12v-6.06h1.5V205h-1.5Zm-.084-7.2v-1.464h1.668v1.464h-1.668Zm6.141 7.32c-1.016 0-1.812-.28-2.388-.84-.576-.56-.864-1.328-.864-2.304 0-.632.124-1.184.372-1.656a2.75 2.75 0 0 1 1.032-1.104c.448-.264.968-.396 1.56-.396.584 0 1.072.124 1.464.372.392.248.688.596.888 1.044.208.448.312.972.312 1.572v.396h-4.416v-.792h3.348l-.204.168c0-.56-.12-.988-.36-1.284-.232-.296-.572-.444-1.02-.444-.496 0-.88.176-1.152.528-.264.352-.396.844-.396 1.476v.156c0 .656.16 1.148.48 1.476.328.32.788.48 1.38.48.344 0 .664-.044.96-.132.304-.096.592-.248.864-.456l.444 1.008a3.162 3.162 0 0 1-1.032.54c-.4.128-.824.192-1.272.192Zm5.807 0c-.52 0-1-.06-1.44-.18a3.387 3.387 0 0 1-1.092-.528l.42-1.008a3.814 3.814 0 0 0 2.124.648c.4 0 .696-.068.888-.204.2-.136.3-.32.3-.552a.526.526 0 0 0-.192-.432c-.12-.112-.316-.196-.588-.252l-1.2-.228c-.512-.112-.904-.304-1.176-.576-.264-.272-.396-.628-.396-1.068 0-.376.1-.708.3-.996.208-.288.5-.512.876-.672.384-.168.832-.252 1.344-.252.448 0 .868.06 1.26.18.4.12.736.3 1.008.54l-.432.972a2.838 2.838 0 0 0-.852-.468 2.824 2.824 0 0 0-.936-.168c-.416 0-.72.076-.912.228a.673.673 0 0 0-.288.564c0 .176.056.324.168.444.12.112.304.196.552.252l1.2.228c.536.104.94.288 1.212.552.28.256.42.608.42 1.056 0 .4-.108.744-.324 1.032a2.023 2.023 0 0 1-.9.66c-.384.152-.832.228-1.344.228Z"/>
    <path fill="#222" d="M270.215 299.108c-.848 0-1.568-.176-2.16-.528a3.505 3.505 0 0 1-1.368-1.5c-.312-.648-.468-1.42-.468-2.316 0-.896.156-1.664.468-2.304a3.505 3.505 0 0 1 1.368-1.5c.592-.352 1.312-.528 2.16-.528.6 0 1.136.092 1.608.276.472.184.884.452 1.236.804l-.372.792c-.384-.336-.764-.58-1.14-.732-.376-.16-.816-.24-1.32-.24-.968 0-1.704.3-2.208.9-.504.6-.756 1.444-.756 2.532s.252 1.936.756 2.544c.504.6 1.24.9 2.208.9.504 0 .944-.076 1.32-.228.376-.16.756-.412 1.14-.756l.372.804a3.794 3.794 0 0 1-1.236.804c-.472.184-1.008.276-1.608.276Zm6.461 0c-.576 0-1.08-.124-1.512-.372a2.576 2.576 0 0 1-.984-1.08c-.232-.472-.348-1.028-.348-1.668 0-.648.116-1.204.348-1.668.232-.464.56-.82.984-1.068.432-.256.936-.384 1.512-.384.584 0 1.088.128 1.512.384.432.248.764.604.996 1.068.24.464.36 1.02.36 1.668 0 .64-.12 1.196-.36 1.668a2.552 2.552 0 0 1-.996 1.08c-.424.248-.928.372-1.512.372Zm0-.792c.576 0 1.032-.196 1.368-.588.336-.4.504-.98.504-1.74 0-.768-.172-1.348-.516-1.74-.336-.4-.788-.6-1.356-.6-.568 0-1.02.2-1.356.6-.336.392-.504.972-.504 1.74 0 .76.168 1.34.504 1.74.336.392.788.588 1.356.588Zm6.387.792c-.48 0-.928-.064-1.344-.192a2.9 2.9 0 0 1-1.032-.564l.336-.684c.296.232.616.404.96.516a3.58 3.58 0 0 0 1.092.168c.48 0 .84-.084 1.08-.252a.837.837 0 0 0 .372-.72.687.687 0 0 0-.24-.552c-.152-.144-.404-.256-.756-.336l-1.116-.228c-.512-.112-.896-.3-1.152-.564-.256-.272-.384-.616-.384-1.032 0-.352.092-.66.276-.924.184-.272.452-.484.804-.636.352-.16.764-.24 1.236-.24.44 0 .844.068 1.212.204.376.128.688.316.936.564l-.348.672a2.294 2.294 0 0 0-.828-.516 2.56 2.56 0 0 0-.948-.18c-.472 0-.828.096-1.068.288a.888.888 0 0 0-.348.732c0 .232.072.424.216.576.152.144.384.252.696.324l1.116.228c.544.12.948.308 1.212.564.272.248.408.584.408 1.008 0 .36-.1.676-.3.948-.2.264-.48.468-.84.612-.352.144-.768.216-1.248.216Zm6.027 0c-.592 0-1.044-.168-1.356-.504-.312-.344-.468-.86-.468-1.548v-3.324h-1.176v-.756h1.176v-1.644l.972-.276v1.92h1.728v.756h-1.728v3.216c0 .48.08.824.24 1.032.168.2.416.3.744.3.152 0 .288-.012.408-.036a2.56 2.56 0 0 0 .324-.108v.816a1.671 1.671 0 0 1-.408.108 2.208 2.208 0 0 1-.456.048Zm7.66 0c-.576 0-1.08-.124-1.512-.372a2.576 2.576 0 0 1-.984-1.08c-.232-.472-.348-1.028-.348-1.668 0-.648.116-1.204.348-1.668.232-.464.56-.82.984-1.068.432-.256.936-.384 1.512-.384.584 0 1.088.128 1.512.384.432.248.764.604.996 1.068.24.464.36 1.02.36 1.668 0 .64-.12 1.196-.36 1.668a2.552 2.552 0 0 1-.996 1.08c-.424.248-.928.372-1.512.372Zm0-.792c.576 0 1.032-.196 1.368-.588.336-.4.504-.98.504-1.74 0-.768-.172-1.348-.516-1.74-.336-.4-.788-.6-1.356-.6-.568 0-1.02.2-1.356.6-.336.392-.504.972-.504 1.74 0 .76.168 1.34.504 1.74.336.392.788.588 1.356.588Zm4.637.684v-5.268h-1.176v-.756h1.44l-.264.252v-1.008c0-.68.172-1.2.516-1.56.344-.36.836-.54 1.476-.54.16 0 .324.016.492.048.176.024.32.06.432.108v.804a1.656 1.656 0 0 0-.36-.096 1.828 1.828 0 0 0-.42-.048c-.248 0-.46.052-.636.156a.9.9 0 0 0-.396.444c-.088.2-.132.456-.132.768v.876l-.156-.204h1.836v.756h-1.68V299h-.972Zm6.872 0v-8.832h.972V299h-.972Zm2.859 0v-6.024h.972V299h-.972Zm-.12-7.392v-1.092h1.2v1.092h-1.2Zm4.755 7.392-2.58-6.024h1.056l2.16 5.304h-.324l2.184-5.304h1.008l-2.58 6.024h-.924Zm4.599 0v-6.024h.972V299h-.972Zm-.12-7.392v-1.092h1.2v1.092h-1.2Zm2.98 7.392v-4.632c0-.224-.012-.452-.036-.684-.016-.24-.036-.476-.06-.708h.936l.12 1.32h-.144c.176-.464.456-.816.84-1.056a2.482 2.482 0 0 1 1.356-.372c.712 0 1.248.192 1.608.576.368.376.552.972.552 1.788V299h-.972v-3.708c0-.568-.116-.98-.348-1.236-.224-.264-.576-.396-1.056-.396-.56 0-1.004.172-1.332.516-.328.344-.492.804-.492 1.38V299h-.972Zm9.683 2.676c-.52 0-1-.064-1.44-.192a3.67 3.67 0 0 1-1.188-.588l.288-.732c.248.176.492.316.732.42.24.104.488.18.744.228.256.056.528.084.816.084.592 0 1.04-.156 1.344-.468.304-.312.456-.756.456-1.332v-1.764h.12a1.964 1.964 0 0 1-.792 1.128c-.4.272-.868.408-1.404.408-.552 0-1.032-.12-1.44-.36a2.526 2.526 0 0 1-.936-1.044c-.216-.456-.324-.992-.324-1.608 0-.608.108-1.136.324-1.584.224-.448.536-.792.936-1.032.408-.248.888-.372 1.44-.372.544 0 1.012.136 1.404.408.4.272.664.648.792 1.128l-.12-.12.108-1.308h.948a10.095 10.095 0 0 0-.096 1.392v4.596c0 .896-.232 1.572-.696 2.028-.456.456-1.128.684-2.016.684Zm-.144-3.6c.584 0 1.044-.192 1.38-.576.336-.392.504-.94.504-1.644s-.168-1.248-.504-1.632c-.336-.384-.796-.576-1.38-.576-.576 0-1.036.192-1.38.576-.344.384-.516.928-.516 1.632 0 .704.172 1.252.516 1.644.344.384.804.576 1.38.576Z"/>
    <path fill="#A93031" d="M346.659 89.12c-.68 0-1.308-.084-1.884-.252a4.81 4.81 0 0 1-1.464-.72l.48-1.212c.272.192.556.356.852.492.296.128.612.228.948.3.336.064.692.096 1.068.096.632 0 1.088-.104 1.368-.312a.97.97 0 0 0 .42-.816c0-.296-.096-.52-.288-.672-.192-.16-.536-.292-1.032-.396l-1.356-.276c-.776-.16-1.356-.428-1.74-.804-.384-.376-.576-.88-.576-1.512 0-.528.14-.988.42-1.38.28-.392.672-.696 1.176-.912.504-.216 1.092-.324 1.764-.324a5.1 5.1 0 0 1 1.668.264c.512.168.94.412 1.284.732l-.48 1.152c-.344-.288-.72-.5-1.128-.636a4.09 4.09 0 0 0-1.368-.216c-.568 0-1.012.112-1.332.336a1.034 1.034 0 0 0-.468.9c0 .296.096.532.288.708.2.176.536.312 1.008.408l1.344.264c.8.16 1.392.424 1.776.792.384.36.576.848.576 1.464 0 .504-.136.948-.408 1.332-.272.376-.656.672-1.152.888-.496.208-1.084.312-1.764.312Zm7.196 0c-.72 0-1.264-.188-1.632-.564-.368-.376-.552-.94-.552-1.692v-2.796h-1.164V82.94h1.164v-1.548l1.5-.384v1.932h1.62v1.128h-1.62v2.7c0 .416.08.708.24.876.16.168.38.252.66.252.152 0 .28-.012.384-.036.112-.024.22-.056.324-.096v1.188a1.9 1.9 0 0 1-.456.12c-.16.032-.316.048-.468.048Zm1.955-.12v-6.06h1.5V89h-1.5Zm-.084-7.2v-1.464h1.668V81.8h-1.668Zm6.021 9.888c-.56 0-1.068-.06-1.524-.18a3.746 3.746 0 0 1-1.2-.552l.324-1.08c.232.152.472.276.72.372.248.096.504.168.768.216.264.048.532.072.804.072.56 0 .976-.14 1.248-.42.28-.272.42-.664.42-1.176v-1.452h.12a1.77 1.77 0 0 1-.78.996 2.4 2.4 0 0 1-1.332.372c-.544 0-1.02-.12-1.428-.36a2.51 2.51 0 0 1-.936-1.056c-.224-.456-.336-.992-.336-1.608 0-.616.112-1.148.336-1.596.224-.456.536-.804.936-1.044.408-.248.884-.372 1.428-.372.512 0 .956.124 1.332.372.384.24.64.568.768.984l-.108-.072.12-1.164h1.452a11.523 11.523 0 0 0-.096 1.512v4.308c0 .952-.26 1.676-.78 2.172-.512.504-1.264.756-2.256.756Zm-.024-3.984c.48 0 .86-.16 1.14-.48.288-.328.432-.792.432-1.392 0-.6-.144-1.06-.432-1.38-.28-.32-.66-.48-1.14-.48-.488 0-.876.16-1.164.48-.288.32-.432.78-.432 1.38 0 .6.144 1.064.432 1.392.288.32.676.48 1.164.48ZM366.404 89v-4.548a12.12 12.12 0 0 0-.096-1.512h1.452l.12 1.2h-.144c.168-.416.424-.74.768-.972.352-.232.768-.348 1.248-.348s.876.116 1.188.348c.32.224.544.576.672 1.056h-.192c.168-.432.444-.772.828-1.02a2.325 2.325 0 0 1 1.32-.384c.68 0 1.188.2 1.524.6.336.4.504 1.024.504 1.872V89h-1.5v-3.648c0-.48-.08-.824-.24-1.032-.16-.216-.416-.324-.768-.324-.416 0-.744.148-.984.444-.24.288-.36.68-.36 1.176V89h-1.5v-3.648c0-.48-.08-.824-.24-1.032-.16-.216-.416-.324-.768-.324-.416 0-.744.148-.984.444-.232.288-.348.68-.348 1.176V89h-1.5Zm13.133.12c-.528 0-.992-.124-1.392-.372-.4-.256-.712-.62-.936-1.092-.224-.472-.336-1.036-.336-1.692 0-.656.112-1.216.336-1.68.224-.472.536-.832.936-1.08.4-.256.864-.384 1.392-.384.512 0 .96.128 1.344.384.392.248.652.584.78 1.008h-.132l.132-1.272h1.44l-.072.756a12.12 12.12 0 0 0-.024.756V89h-1.488l-.012-1.248h.144a1.77 1.77 0 0 1-.78.996 2.439 2.439 0 0 1-1.332.372Zm.42-1.152c.472 0 .852-.164 1.14-.492.288-.336.432-.84.432-1.512s-.144-1.172-.432-1.5c-.288-.328-.668-.492-1.14-.492-.472 0-.852.164-1.14.492-.288.328-.432.828-.432 1.5s.14 1.176.42 1.512c.288.328.672.492 1.152.492Zm10.314 1.152c-.528 0-.992-.124-1.392-.372-.4-.256-.712-.62-.936-1.092-.224-.472-.336-1.036-.336-1.692 0-.656.112-1.216.336-1.68.224-.472.536-.832.936-1.08.4-.256.864-.384 1.392-.384.512 0 .96.128 1.344.384.392.248.652.584.78 1.008h-.132l.132-1.272h1.44l-.072.756a12.12 12.12 0 0 0-.024.756V89h-1.488l-.012-1.248h.144a1.77 1.77 0 0 1-.78.996 2.439 2.439 0 0 1-1.332.372Zm.42-1.152c.472 0 .852-.164 1.14-.492.288-.336.432-.84.432-1.512s-.144-1.172-.432-1.5c-.288-.328-.668-.492-1.14-.492-.472 0-.852.164-1.14.492-.288.328-.432.828-.432 1.5s.14 1.176.42 1.512c.288.328.672.492 1.152.492ZM395.373 89v-4.548a12.12 12.12 0 0 0-.096-1.512h1.452l.12 1.2h-.144c.192-.424.476-.748.852-.972.376-.232.812-.348 1.308-.348.712 0 1.248.2 1.608.6.36.4.54 1.024.54 1.872V89h-1.5v-3.636c0-.488-.096-.836-.288-1.044-.184-.216-.464-.324-.84-.324-.464 0-.832.144-1.104.432-.272.288-.408.672-.408 1.152V89h-1.5Zm9.582.12c-.528 0-.996-.124-1.404-.372-.4-.256-.712-.62-.936-1.092-.224-.472-.336-1.036-.336-1.692 0-.656.112-1.216.336-1.68.224-.472.536-.832.936-1.08a2.586 2.586 0 0 1 1.404-.384 2.4 2.4 0 0 1 1.332.372c.392.24.652.568.78.984h-.156v-4.008h1.5V89h-1.476v-1.284h.144a1.82 1.82 0 0 1-.78 1.032c-.384.248-.832.372-1.344.372Zm.42-1.152c.472 0 .852-.164 1.14-.492.288-.336.432-.84.432-1.512s-.144-1.172-.432-1.5c-.288-.328-.668-.492-1.14-.492-.472 0-.856.164-1.152.492-.288.328-.432.828-.432 1.5s.144 1.176.432 1.512c.296.328.68.492 1.152.492Zm-56.323 18.696c-.152 0-.316-.012-.492-.036a1.913 1.913 0 0 1-.48-.12v-1.188c.104.032.216.06.336.084.12.024.236.036.348.036.288 0 .512-.088.672-.264.168-.176.252-.472.252-.888V97.94h1.5v6.432c0 .752-.172 1.32-.516 1.704-.344.392-.884.588-1.62.588Zm.54-9.864v-1.464h1.668V96.8h-1.668Zm5.373 7.32c-.744 0-1.3-.204-1.668-.612-.368-.408-.552-1.032-.552-1.872V97.94h1.5v3.684c0 .448.092.78.276.996.184.208.464.312.84.312.424 0 .768-.144 1.032-.432.272-.288.408-.668.408-1.14v-3.42h1.5V104h-1.464v-1.236h.168a2.151 2.151 0 0 1-.804 1.008c-.352.232-.764.348-1.236.348Zm7.316 0c-.528 0-.996-.124-1.404-.372-.4-.256-.712-.62-.936-1.092-.224-.472-.336-1.036-.336-1.692 0-.656.112-1.216.336-1.68.224-.472.536-.832.936-1.08a2.586 2.586 0 0 1 1.404-.384 2.4 2.4 0 0 1 1.332.372c.392.24.652.568.78.984h-.156v-4.008h1.5V104h-1.476v-1.284h.144a1.82 1.82 0 0 1-.78 1.032c-.384.248-.832.372-1.344.372Zm.42-1.152c.472 0 .852-.164 1.14-.492.288-.336.432-.84.432-1.512s-.144-1.172-.432-1.5c-.288-.328-.668-.492-1.14-.492-.472 0-.856.164-1.152.492-.288.328-.432.828-.432 1.5s.144 1.176.432 1.512c.296.328.68.492 1.152.492Zm7.478 3.72c-.56 0-1.068-.06-1.524-.18a3.746 3.746 0 0 1-1.2-.552l.324-1.08c.232.152.472.276.72.372.248.096.504.168.768.216.264.048.532.072.804.072.56 0 .976-.14 1.248-.42.28-.272.42-.664.42-1.176v-1.452h.12a1.77 1.77 0 0 1-.78.996 2.4 2.4 0 0 1-1.332.372c-.544 0-1.02-.12-1.428-.36a2.51 2.51 0 0 1-.936-1.056c-.224-.456-.336-.992-.336-1.608 0-.616.112-1.148.336-1.596.224-.456.536-.804.936-1.044.408-.248.884-.372 1.428-.372.512 0 .956.124 1.332.372.384.24.64.568.768.984l-.108-.072.12-1.164h1.452a11.523 11.523 0 0 0-.096 1.512v4.308c0 .952-.26 1.676-.78 2.172-.512.504-1.264.756-2.256.756Zm-.024-3.984c.48 0 .86-.16 1.14-.48.288-.328.432-.792.432-1.392 0-.6-.144-1.06-.432-1.38-.28-.32-.66-.48-1.14-.48-.488 0-.876.16-1.164.48-.288.32-.432.78-.432 1.38 0 .6.144 1.064.432 1.392.288.32.676.48 1.164.48Zm4.681 1.296v-4.548a12.12 12.12 0 0 0-.096-1.512h1.452l.12 1.2h-.144c.168-.416.424-.74.768-.972.352-.232.768-.348 1.248-.348s.876.116 1.188.348c.32.224.544.576.672 1.056h-.192c.168-.432.444-.772.828-1.02a2.325 2.325 0 0 1 1.32-.384c.68 0 1.188.2 1.524.6.336.4.504 1.024.504 1.872V104h-1.5v-3.648c0-.48-.08-.824-.24-1.032-.16-.216-.416-.324-.768-.324-.416 0-.744.148-.984.444-.24.288-.36.68-.36 1.176V104h-1.5v-3.648c0-.48-.08-.824-.24-1.032-.16-.216-.416-.324-.768-.324-.416 0-.744.148-.984.444-.232.288-.348.68-.348 1.176V104h-1.5Zm13.721.12c-1.016 0-1.812-.28-2.388-.84-.576-.56-.864-1.328-.864-2.304 0-.632.124-1.184.372-1.656a2.75 2.75 0 0 1 1.032-1.104c.448-.264.968-.396 1.56-.396.584 0 1.072.124 1.464.372.392.248.688.596.888 1.044.208.448.312.972.312 1.572v.396h-4.416v-.792h3.348l-.204.168c0-.56-.12-.988-.36-1.284-.232-.296-.572-.444-1.02-.444-.496 0-.88.176-1.152.528-.264.352-.396.844-.396 1.476v.156c0 .656.16 1.148.48 1.476.328.32.788.48 1.38.48.344 0 .664-.044.96-.132.304-.096.592-.248.864-.456l.444 1.008a3.162 3.162 0 0 1-1.032.54c-.4.128-.824.192-1.272.192Zm3.646-.12v-4.548a12.12 12.12 0 0 0-.096-1.512h1.452l.12 1.2h-.144c.192-.424.476-.748.852-.972.376-.232.812-.348 1.308-.348.712 0 1.248.2 1.608.6.36.4.54 1.024.54 1.872V104h-1.5v-3.636c0-.488-.096-.836-.288-1.044-.184-.216-.464-.324-.84-.324-.464 0-.832.144-1.104.432-.272.288-.408.672-.408 1.152V104h-1.5Zm9.822.12c-.72 0-1.264-.188-1.632-.564-.368-.376-.552-.94-.552-1.692v-2.796h-1.164V97.94h1.164v-1.548l1.5-.384v1.932h1.62v1.128h-1.62v2.7c0 .416.08.708.24.876.16.168.38.252.66.252.152 0 .28-.012.384-.036.112-.024.22-.056.324-.096v1.188a1.9 1.9 0 0 1-.456.12c-.16.032-.316.048-.468.048ZM75.254 292l3.828-8.46h1.296l3.876 8.46h-1.572l-1.032-2.376.624.42h-5.076l.648-.42L76.814 292h-1.56Zm4.464-6.804-1.692 4.008-.312-.372h4.032l-.252.372-1.728-4.008h-.048Zm8.077 6.924c-.624 0-1.172-.128-1.644-.384a2.68 2.68 0 0 1-1.08-1.092c-.256-.48-.384-1.048-.384-1.704 0-.656.128-1.216.384-1.68.264-.464.628-.82 1.092-1.068.464-.248 1.008-.372 1.632-.372.4 0 .788.064 1.164.192.384.12.696.296.936.528l-.456 1.044c-.216-.2-.46-.348-.732-.444a2.118 2.118 0 0 0-.78-.156c-.536 0-.956.168-1.26.504-.296.336-.444.824-.444 1.464s.148 1.132.444 1.476c.304.344.724.516 1.26.516.248 0 .504-.048.768-.144.272-.096.52-.244.744-.444l.456 1.032a2.54 2.54 0 0 1-.948.54c-.376.128-.76.192-1.152.192Zm5.93 0c-.624 0-1.172-.128-1.644-.384a2.68 2.68 0 0 1-1.08-1.092c-.256-.48-.384-1.048-.384-1.704 0-.656.128-1.216.384-1.68.264-.464.628-.82 1.092-1.068.464-.248 1.008-.372 1.632-.372.4 0 .788.064 1.164.192.384.12.696.296.936.528l-.456 1.044c-.216-.2-.46-.348-.732-.444a2.118 2.118 0 0 0-.78-.156c-.536 0-.956.168-1.26.504-.296.336-.444.824-.444 1.464s.148 1.132.444 1.476c.304.344.724.516 1.26.516.248 0 .504-.048.768-.144.272-.096.52-.244.744-.444l.456 1.032a2.54 2.54 0 0 1-.948.54c-.376.128-.76.192-1.152.192Zm5.882 0c-.624 0-1.164-.128-1.62-.384a2.7 2.7 0 0 1-1.068-1.092c-.248-.472-.372-1.032-.372-1.68 0-.648.124-1.204.372-1.668a2.7 2.7 0 0 1 1.068-1.092c.456-.256.996-.384 1.62-.384.624 0 1.164.128 1.62.384.464.256.82.62 1.068 1.092.256.464.384 1.02.384 1.668 0 .648-.128 1.208-.384 1.68a2.603 2.603 0 0 1-1.068 1.092c-.456.256-.996.384-1.62.384Zm0-1.152c.472 0 .848-.164 1.128-.492.28-.336.42-.84.42-1.512s-.14-1.172-.42-1.5c-.28-.328-.656-.492-1.128-.492-.472 0-.848.164-1.128.492-.28.328-.42.828-.42 1.5s.14 1.176.42 1.512c.28.328.656.492 1.128.492Zm4.365 1.032v-4.548a12.12 12.12 0 0 0-.096-1.512h1.452l.12 1.2h-.144c.168-.416.424-.74.768-.972.352-.232.768-.348 1.248-.348s.876.116 1.188.348c.32.224.544.576.672 1.056h-.192c.168-.432.444-.772.828-1.02a2.325 2.325 0 0 1 1.32-.384c.68 0 1.188.2 1.524.6.336.4.504 1.024.504 1.872V292h-1.5v-3.648c0-.48-.08-.824-.24-1.032-.16-.216-.416-.324-.768-.324-.416 0-.744.148-.984.444-.24.288-.36.68-.36 1.176V292h-1.5v-3.648c0-.48-.08-.824-.24-1.032-.16-.216-.416-.324-.768-.324-.416 0-.744.148-.984.444-.232.288-.348.68-.348 1.176V292h-1.5Zm10.793 0v-4.548a12.12 12.12 0 0 0-.096-1.512h1.452l.12 1.2h-.144c.168-.416.424-.74.768-.972.352-.232.768-.348 1.248-.348s.876.116 1.188.348c.32.224.544.576.672 1.056h-.192c.168-.432.444-.772.828-1.02a2.325 2.325 0 0 1 1.32-.384c.68 0 1.188.2 1.524.6.336.4.504 1.024.504 1.872V292h-1.5v-3.648c0-.48-.08-.824-.24-1.032-.16-.216-.416-.324-.768-.324-.416 0-.744.148-.984.444-.24.288-.36.68-.36 1.176V292h-1.5v-3.648c0-.48-.08-.824-.24-1.032-.16-.216-.416-.324-.768-.324-.416 0-.744.148-.984.444-.232.288-.348.68-.348 1.176V292h-1.5Zm13.529.12c-.624 0-1.164-.128-1.62-.384a2.7 2.7 0 0 1-1.068-1.092c-.248-.472-.372-1.032-.372-1.68 0-.648.124-1.204.372-1.668a2.7 2.7 0 0 1 1.068-1.092c.456-.256.996-.384 1.62-.384.624 0 1.164.128 1.62.384.464.256.82.62 1.068 1.092.256.464.384 1.02.384 1.668 0 .648-.128 1.208-.384 1.68a2.603 2.603 0 0 1-1.068 1.092c-.456.256-.996.384-1.62.384Zm0-1.152c.472 0 .848-.164 1.128-.492.28-.336.42-.84.42-1.512s-.14-1.172-.42-1.5c-.28-.328-.656-.492-1.128-.492-.472 0-.848.164-1.128.492-.28.328-.42.828-.42 1.5s.14 1.176.42 1.512c.28.328.656.492 1.128.492Zm6.718 1.152c-.528 0-.996-.124-1.404-.372-.4-.256-.712-.62-.936-1.092-.224-.472-.336-1.036-.336-1.692 0-.656.112-1.216.336-1.68.224-.472.536-.832.936-1.08a2.586 2.586 0 0 1 1.404-.384 2.4 2.4 0 0 1 1.332.372c.392.24.652.568.78.984h-.156v-4.008h1.5V292h-1.476v-1.284h.144a1.82 1.82 0 0 1-.78 1.032c-.384.248-.832.372-1.344.372Zm.42-1.152c.472 0 .852-.164 1.14-.492.288-.336.432-.84.432-1.512s-.144-1.172-.432-1.5c-.288-.328-.668-.492-1.14-.492-.472 0-.856.164-1.152.492-.288.328-.432.828-.432 1.5s.144 1.176.432 1.512c.296.328.68.492 1.152.492Zm7.009 1.152c-.528 0-.992-.124-1.392-.372-.4-.256-.712-.62-.936-1.092-.224-.472-.336-1.036-.336-1.692 0-.656.112-1.216.336-1.68.224-.472.536-.832.936-1.08.4-.256.864-.384 1.392-.384.512 0 .96.128 1.344.384.392.248.652.584.78 1.008h-.132l.132-1.272h1.44l-.072.756a12.12 12.12 0 0 0-.024.756V292h-1.488l-.012-1.248h.144a1.77 1.77 0 0 1-.78.996 2.439 2.439 0 0 1-1.332.372Zm.42-1.152c.472 0 .852-.164 1.14-.492.288-.336.432-.84.432-1.512s-.144-1.172-.432-1.5c-.288-.328-.668-.492-1.14-.492-.472 0-.852.164-1.14.492-.288.328-.432.828-.432 1.5s.14 1.176.42 1.512c.288.328.672.492 1.152.492Zm7.274 1.152c-.72 0-1.264-.188-1.632-.564-.368-.376-.552-.94-.552-1.692v-2.796h-1.164v-1.128h1.164v-1.548l1.5-.384v1.932h1.62v1.128h-1.62v2.7c0 .416.08.708.24.876.16.168.38.252.66.252.152 0 .28-.012.384-.036.112-.024.22-.056.324-.096v1.188a1.9 1.9 0 0 1-.456.12c-.16.032-.316.048-.468.048Zm1.954-.12v-6.06h1.5V292h-1.5Zm-.084-7.2v-1.464h1.668v1.464h-1.668Zm5.949 7.32c-.624 0-1.164-.128-1.62-.384a2.7 2.7 0 0 1-1.068-1.092c-.248-.472-.372-1.032-.372-1.68 0-.648.124-1.204.372-1.668a2.7 2.7 0 0 1 1.068-1.092c.456-.256.996-.384 1.62-.384.624 0 1.164.128 1.62.384.464.256.82.62 1.068 1.092.256.464.384 1.02.384 1.668 0 .648-.128 1.208-.384 1.68a2.603 2.603 0 0 1-1.068 1.092c-.456.256-.996.384-1.62.384Zm0-1.152c.472 0 .848-.164 1.128-.492.28-.336.42-.84.42-1.512s-.14-1.172-.42-1.5c-.28-.328-.656-.492-1.128-.492-.472 0-.848.164-1.128.492-.28.328-.42.828-.42 1.5s.14 1.176.42 1.512c.28.328.656.492 1.128.492ZM162.32 292v-4.548a12.12 12.12 0 0 0-.096-1.512h1.452l.12 1.2h-.144c.192-.424.476-.748.852-.972.376-.232.812-.348 1.308-.348.712 0 1.248.2 1.608.6.36.4.54 1.024.54 1.872V292h-1.5v-3.636c0-.488-.096-.836-.288-1.044-.184-.216-.464-.324-.84-.324-.464 0-.832.144-1.104.432-.272.288-.408.672-.408 1.152V292h-1.5Zm9.39.12c-.52 0-1-.06-1.44-.18a3.387 3.387 0 0 1-1.092-.528l.42-1.008a3.814 3.814 0 0 0 2.124.648c.4 0 .696-.068.888-.204.2-.136.3-.32.3-.552a.526.526 0 0 0-.192-.432c-.12-.112-.316-.196-.588-.252l-1.2-.228c-.512-.112-.904-.304-1.176-.576-.264-.272-.396-.628-.396-1.068 0-.376.1-.708.3-.996.208-.288.5-.512.876-.672.384-.168.832-.252 1.344-.252.448 0 .868.06 1.26.18.4.12.736.3 1.008.54l-.432.972a2.838 2.838 0 0 0-.852-.468 2.824 2.824 0 0 0-.936-.168c-.416 0-.72.076-.912.228a.673.673 0 0 0-.288.564c0 .176.056.324.168.444.12.112.304.196.552.252l1.2.228c.536.104.94.288 1.212.552.28.256.42.608.42 1.056 0 .4-.108.744-.324 1.032a2.023 2.023 0 0 1-.9.66c-.384.152-.832.228-1.344.228Zm-65.65 15c-.528 0-.992-.124-1.392-.372-.4-.256-.712-.62-.936-1.092-.224-.472-.336-1.036-.336-1.692 0-.656.112-1.216.336-1.68.224-.472.536-.832.936-1.08.4-.256.864-.384 1.392-.384.512 0 .96.128 1.344.384.392.248.652.584.78 1.008h-.132l.132-1.272h1.44l-.072.756a12.12 12.12 0 0 0-.024.756V307h-1.488l-.012-1.248h.144a1.77 1.77 0 0 1-.78.996 2.439 2.439 0 0 1-1.332.372Zm.42-1.152c.472 0 .852-.164 1.14-.492.288-.336.432-.84.432-1.512s-.144-1.172-.432-1.5c-.288-.328-.668-.492-1.14-.492-.472 0-.852.164-1.14.492-.288.328-.432.828-.432 1.5s.14 1.176.42 1.512c.288.328.672.492 1.152.492Zm7.274 1.152c-.72 0-1.264-.188-1.632-.564-.368-.376-.552-.94-.552-1.692v-2.796h-1.164v-1.128h1.164v-1.548l1.5-.384v1.932h1.62v1.128h-1.62v2.7c0 .416.08.708.24.876.16.168.38.252.66.252.152 0 .28-.012.384-.036.112-.024.22-.056.324-.096v1.188a1.9 1.9 0 0 1-.456.12c-.16.032-.316.048-.468.048Zm6.928-.12-2.364-6.06h1.548l1.704 4.716h-.312l1.728-4.716h1.068l1.716 4.716h-.276l1.692-4.716h1.464l-2.364 6.06h-1.32l-1.812-4.824h.636L122.014 307h-1.332Zm11.532.12c-.624 0-1.164-.128-1.62-.384a2.7 2.7 0 0 1-1.068-1.092c-.248-.472-.372-1.032-.372-1.68 0-.648.124-1.204.372-1.668a2.7 2.7 0 0 1 1.068-1.092c.456-.256.996-.384 1.62-.384.624 0 1.164.128 1.62.384.464.256.82.62 1.068 1.092.256.464.384 1.02.384 1.668 0 .648-.128 1.208-.384 1.68a2.603 2.603 0 0 1-1.068 1.092c-.456.256-.996.384-1.62.384Zm0-1.152c.472 0 .848-.164 1.128-.492.28-.336.42-.84.42-1.512s-.14-1.172-.42-1.5c-.28-.328-.656-.492-1.128-.492-.472 0-.848.164-1.128.492-.28.328-.42.828-.42 1.5s.14 1.176.42 1.512c.28.328.656.492 1.128.492Zm4.354 1.032v-4.512c0-.256-.008-.516-.024-.78a7.861 7.861 0 0 0-.06-.768h1.452l.168 1.656h-.24c.08-.4.212-.732.396-.996.192-.264.424-.46.696-.588a2.06 2.06 0 0 1 .888-.192c.144 0 .26.008.348.024.088.008.176.028.264.06l-.012 1.32a1.654 1.654 0 0 0-.396-.12 2.685 2.685 0 0 0-.396-.024c-.344 0-.636.072-.876.216a1.377 1.377 0 0 0-.528.6 2.166 2.166 0 0 0-.168.876V307h-1.512Zm4.723 0v-8.832h1.5v5.352h.024l2.46-2.58h1.812l-3.06 3.204.012-.6 3.264 3.456h-1.86l-2.628-2.712h-.024V307h-1.5ZM4.05 190.12c-1.208 0-2.108-.3-2.7-.9-.584-.608-.876-1.504-.876-2.688v-4.992h1.548v4.98c0 .752.16 1.32.48 1.704.328.384.844.576 1.548.576.672 0 1.176-.192 1.512-.576.344-.384.516-.952.516-1.704v-4.98h1.524v4.992c0 1.184-.3 2.08-.9 2.688-.592.6-1.476.9-2.652.9Zm5.235-.12v-4.548a12.12 12.12 0 0 0-.096-1.512h1.452l.12 1.2h-.144c.192-.424.476-.748.852-.972.376-.232.812-.348 1.308-.348.712 0 1.248.2 1.608.6.36.4.54 1.024.54 1.872V190h-1.5v-3.636c0-.488-.096-.836-.288-1.044-.184-.216-.464-.324-.84-.324-.464 0-.832.144-1.104.432-.272.288-.408.672-.408 1.152V190h-1.5Zm10.158.12c-1.016 0-1.812-.28-2.388-.84-.576-.56-.864-1.328-.864-2.304 0-.632.124-1.184.372-1.656a2.75 2.75 0 0 1 1.032-1.104c.448-.264.968-.396 1.56-.396.584 0 1.072.124 1.464.372.392.248.688.596.888 1.044.208.448.312.972.312 1.572v.396h-4.416v-.792h3.348l-.204.168c0-.56-.12-.988-.36-1.284-.232-.296-.572-.444-1.02-.444-.496 0-.88.176-1.152.528-.264.352-.396.844-.396 1.476v.156c0 .656.16 1.148.48 1.476.328.32.788.48 1.38.48.344 0 .664-.044.96-.132.304-.096.592-.248.864-.456l.444 1.008a3.162 3.162 0 0 1-1.032.54c-.4.128-.824.192-1.272.192Zm2.675-.12 2.82-3.468v.684l-2.664-3.276h1.776l1.74 2.244h-.54l1.74-2.244h1.764l-2.64 3.276v-.684L28.922 190h-1.788l-1.884-2.412h.54L23.894 190h-1.776Zm7.522 2.592v-7.14a12.12 12.12 0 0 0-.096-1.512h1.452l.132 1.272h-.132c.12-.424.372-.76.756-1.008a2.424 2.424 0 0 1 1.356-.384c.536 0 1.004.128 1.404.384.4.248.712.608.936 1.08.224.464.336 1.024.336 1.68 0 .656-.112 1.22-.336 1.692a2.564 2.564 0 0 1-.936 1.092c-.4.248-.868.372-1.404.372a2.4 2.4 0 0 1-1.332-.372 1.784 1.784 0 0 1-.768-.996h.132v3.84h-1.5Zm3.048-3.624c.48 0 .864-.164 1.152-.492.288-.336.432-.84.432-1.512s-.144-1.172-.432-1.5c-.288-.328-.672-.492-1.152-.492-.472 0-.852.164-1.14.492-.288.328-.432.828-.432 1.5s.144 1.176.432 1.512c.288.328.668.492 1.14.492Zm7.322 1.152c-1.016 0-1.812-.28-2.388-.84-.576-.56-.864-1.328-.864-2.304 0-.632.124-1.184.372-1.656a2.75 2.75 0 0 1 1.032-1.104c.448-.264.968-.396 1.56-.396.584 0 1.072.124 1.464.372.392.248.688.596.888 1.044.208.448.312.972.312 1.572v.396H37.97v-.792h3.348l-.204.168c0-.56-.12-.988-.36-1.284-.232-.296-.572-.444-1.02-.444-.496 0-.88.176-1.152.528-.264.352-.396.844-.396 1.476v.156c0 .656.16 1.148.48 1.476.328.32.788.48 1.38.48.344 0 .664-.044.96-.132.304-.096.592-.248.864-.456l.444 1.008a3.162 3.162 0 0 1-1.032.54c-.4.128-.824.192-1.272.192Zm6.43 0c-.624 0-1.172-.128-1.644-.384a2.68 2.68 0 0 1-1.08-1.092c-.256-.48-.384-1.048-.384-1.704 0-.656.128-1.216.384-1.68.264-.464.628-.82 1.092-1.068.464-.248 1.008-.372 1.632-.372.4 0 .788.064 1.164.192.384.12.696.296.936.528l-.456 1.044c-.216-.2-.46-.348-.732-.444a2.118 2.118 0 0 0-.78-.156c-.536 0-.956.168-1.26.504-.296.336-.444.824-.444 1.464s.148 1.132.444 1.476c.304.344.724.516 1.26.516.248 0 .504-.048.768-.144.272-.096.52-.244.744-.444l.456 1.032a2.54 2.54 0 0 1-.948.54c-.376.128-.76.192-1.152.192Zm5.878 0c-.72 0-1.264-.188-1.632-.564-.368-.376-.552-.94-.552-1.692v-2.796H48.97v-1.128h1.164v-1.548l1.5-.384v1.932h1.62v1.128h-1.62v2.7c0 .416.08.708.24.876.16.168.38.252.66.252.152 0 .28-.012.384-.036.112-.024.22-.056.324-.096v1.188a1.9 1.9 0 0 1-.456.12c-.16.032-.316.048-.468.048Zm4.824 0c-1.016 0-1.812-.28-2.388-.84-.576-.56-.864-1.328-.864-2.304 0-.632.124-1.184.372-1.656a2.75 2.75 0 0 1 1.032-1.104c.448-.264.968-.396 1.56-.396.584 0 1.072.124 1.464.372.392.248.688.596.888 1.044.208.448.312.972.312 1.572v.396h-4.416v-.792h3.348l-.204.168c0-.56-.12-.988-.36-1.284-.232-.296-.572-.444-1.02-.444-.496 0-.88.176-1.152.528-.264.352-.396.844-.396 1.476v.156c0 .656.16 1.148.48 1.476.328.32.788.48 1.38.48.344 0 .664-.044.96-.132.304-.096.592-.248.864-.456l.444 1.008a3.162 3.162 0 0 1-1.032.54c-.4.128-.824.192-1.272.192Zm5.999 0c-.528 0-.996-.124-1.404-.372-.4-.256-.712-.62-.936-1.092-.224-.472-.336-1.036-.336-1.692 0-.656.112-1.216.336-1.68.224-.472.536-.832.936-1.08a2.586 2.586 0 0 1 1.404-.384 2.4 2.4 0 0 1 1.332.372c.392.24.652.568.78.984h-.156v-4.008h1.5V190H65.12v-1.284h.144a1.82 1.82 0 0 1-.78 1.032c-.384.248-.832.372-1.344.372Zm.42-1.152c.472 0 .852-.164 1.14-.492.288-.336.432-.84.432-1.512s-.144-1.172-.432-1.5c-.288-.328-.668-.492-1.14-.492-.472 0-.856.164-1.152.492-.288.328-.432.828-.432 1.5s.144 1.176.432 1.512c.296.328.68.492 1.152.492ZM18.617 205.12c-1.016 0-1.812-.28-2.388-.84-.576-.56-.864-1.328-.864-2.304 0-.632.124-1.184.372-1.656a2.75 2.75 0 0 1 1.032-1.104c.448-.264.968-.396 1.56-.396.584 0 1.072.124 1.464.372.392.248.688.596.888 1.044.208.448.312.972.312 1.572v.396h-4.416v-.792h3.348l-.204.168c0-.56-.12-.988-.36-1.284-.232-.296-.572-.444-1.02-.444-.496 0-.88.176-1.152.528-.264.352-.396.844-.396 1.476v.156c0 .656.16 1.148.48 1.476.328.32.788.48 1.38.48.344 0 .664-.044.96-.132.304-.096.592-.248.864-.456l.444 1.008a3.162 3.162 0 0 1-1.032.54c-.4.128-.824.192-1.272.192Zm5.328-.12-2.616-6.06h1.596l1.896 4.74h-.372l1.944-4.74h1.5L25.265 205h-1.32Zm7.563.12c-1.016 0-1.812-.28-2.388-.84-.576-.56-.864-1.328-.864-2.304 0-.632.124-1.184.372-1.656a2.75 2.75 0 0 1 1.032-1.104c.448-.264.968-.396 1.56-.396.584 0 1.072.124 1.464.372.392.248.688.596.888 1.044.208.448.312.972.312 1.572v.396h-4.416v-.792h3.348l-.204.168c0-.56-.12-.988-.36-1.284-.232-.296-.572-.444-1.02-.444-.496 0-.88.176-1.152.528-.264.352-.396.844-.396 1.476v.156c0 .656.16 1.148.48 1.476.328.32.788.48 1.38.48.344 0 .664-.044.96-.132.304-.096.592-.248.864-.456l.444 1.008a3.162 3.162 0 0 1-1.032.54c-.4.128-.824.192-1.272.192Zm3.646-.12v-4.548a12.12 12.12 0 0 0-.096-1.512h1.452l.12 1.2h-.144c.192-.424.476-.748.852-.972.376-.232.812-.348 1.308-.348.712 0 1.248.2 1.608.6.36.4.54 1.024.54 1.872V205h-1.5v-3.636c0-.488-.096-.836-.288-1.044-.184-.216-.464-.324-.84-.324-.464 0-.832.144-1.104.432-.272.288-.408.672-.408 1.152V205h-1.5Zm9.822.12c-.72 0-1.264-.188-1.632-.564-.368-.376-.552-.94-.552-1.692v-2.796h-1.164v-1.128h1.164v-1.548l1.5-.384v1.932h1.62v1.128h-1.62v2.7c0 .416.08.708.24.876.16.168.38.252.66.252.152 0 .28-.012.384-.036.112-.024.22-.056.324-.096v1.188a1.9 1.9 0 0 1-.456.12c-.16.032-.316.048-.468.048Zm4.115 0c-.52 0-1-.06-1.44-.18a3.387 3.387 0 0 1-1.092-.528l.42-1.008a3.814 3.814 0 0 0 2.124.648c.4 0 .696-.068.888-.204.2-.136.3-.32.3-.552a.526.526 0 0 0-.192-.432c-.12-.112-.316-.196-.588-.252l-1.2-.228c-.512-.112-.904-.304-1.176-.576-.264-.272-.396-.628-.396-1.068 0-.376.1-.708.3-.996.208-.288.5-.512.876-.672.384-.168.832-.252 1.344-.252.448 0 .868.06 1.26.18.4.12.736.3 1.008.54l-.432.972a2.838 2.838 0 0 0-.852-.468 2.824 2.824 0 0 0-.936-.168c-.416 0-.72.076-.912.228a.673.673 0 0 0-.288.564c0 .176.056.324.168.444.12.112.304.196.552.252l1.2.228c.536.104.94.288 1.212.552.28.256.42.608.42 1.056 0 .4-.108.744-.324 1.032a2.023 2.023 0 0 1-.9.66c-.384.152-.832.228-1.344.228Z"/>
    <path fill="#222" d="m266.063 15-2.952-8.46h1.044l2.58 7.62h-.42l2.712-7.62h.792l2.568 7.62h-.384l2.652-7.62h.984L272.663 15h-.888l-2.496-7.332h.252L266.927 15h-.864Zm10.936 0V6.168h.972v4.14h-.156c.168-.472.448-.828.84-1.068.4-.248.86-.372 1.38-.372.72 0 1.256.196 1.608.588.352.384.528.968.528 1.752V15h-.972v-3.732c0-.56-.112-.968-.336-1.224-.216-.256-.568-.384-1.056-.384-.56 0-1.008.172-1.344.516-.328.344-.492.796-.492 1.356V15h-.972Zm9.707.108c-.944 0-1.688-.272-2.232-.816-.544-.552-.816-1.316-.816-2.292 0-.632.12-1.18.36-1.644.24-.472.576-.836 1.008-1.092.432-.264.928-.396 1.488-.396.552 0 1.016.116 1.392.348.376.232.664.564.864.996.2.424.3.928.3 1.512v.36h-4.668v-.612h4.032l-.204.156c0-.64-.144-1.14-.432-1.5-.288-.36-.716-.54-1.284-.54-.6 0-1.068.212-1.404.636-.336.416-.504.98-.504 1.692v.108c0 .752.184 1.324.552 1.716.376.384.9.576 1.572.576.36 0 .696-.052 1.008-.156.32-.112.624-.292.912-.54l.336.684c-.264.256-.6.456-1.008.6-.4.136-.824.204-1.272.204Zm3.827-.108v-4.572c0-.24-.008-.484-.024-.732a10.193 10.193 0 0 0-.048-.72h.936l.12 1.464-.168.012c.08-.36.22-.656.42-.888.2-.232.436-.404.708-.516.272-.12.556-.18.852-.18.12 0 .224.004.312.012a.91.91 0 0 1 .264.06l-.012.864a1.41 1.41 0 0 0-.336-.072 2.067 2.067 0 0 0-.336-.024c-.352 0-.66.084-.924.252a1.693 1.693 0 0 0-.588.648 1.9 1.9 0 0 0-.192.84V15h-.984Zm6.989.108c-.944 0-1.688-.272-2.232-.816-.544-.552-.816-1.316-.816-2.292 0-.632.12-1.18.36-1.644.24-.472.576-.836 1.008-1.092.432-.264.928-.396 1.488-.396.552 0 1.016.116 1.392.348.376.232.664.564.864.996.2.424.3.928.3 1.512v.36h-4.668v-.612h4.032l-.204.156c0-.64-.144-1.14-.432-1.5-.288-.36-.716-.54-1.284-.54-.6 0-1.068.212-1.404.636-.336.416-.504.98-.504 1.692v.108c0 .752.184 1.324.552 1.716.376.384.9.576 1.572.576.36 0 .696-.052 1.008-.156.32-.112.624-.292.912-.54l.336.684c-.264.256-.6.456-1.008.6-.4.136-.824.204-1.272.204Zm6.741 2.616-.228-.804c.376-.088.688-.192.936-.312.256-.112.468-.264.636-.456.168-.192.312-.432.432-.72l.312-.708-.024.408-2.628-6.156h1.056l2.172 5.292h-.312l2.148-5.292h1.02l-2.784 6.528c-.16.384-.336.704-.528.96-.192.264-.4.476-.624.636-.216.168-.456.3-.72.396a5.231 5.231 0 0 1-.864.228Zm9.005-2.616c-.576 0-1.08-.124-1.512-.372a2.576 2.576 0 0 1-.984-1.08c-.232-.472-.348-1.028-.348-1.668 0-.648.116-1.204.348-1.668.232-.464.56-.82.984-1.068.432-.256.936-.384 1.512-.384.584 0 1.088.128 1.512.384.432.248.764.604.996 1.068.24.464.36 1.02.36 1.668 0 .64-.12 1.196-.36 1.668a2.552 2.552 0 0 1-.996 1.08c-.424.248-.928.372-1.512.372Zm0-.792c.576 0 1.032-.196 1.368-.588.336-.4.504-.98.504-1.74 0-.768-.172-1.348-.516-1.74-.336-.4-.788-.6-1.356-.6-.568 0-1.02.2-1.356.6-.336.392-.504.972-.504 1.74 0 .76.168 1.34.504 1.74.336.392.788.588 1.356.588Zm6.507.792c-.712 0-1.252-.196-1.62-.588-.36-.392-.54-.992-.54-1.8V8.976h.972v3.72c0 .552.112.96.336 1.224.224.256.572.384 1.044.384.528 0 .952-.172 1.272-.516.32-.344.48-.804.48-1.38V8.976h.972V15h-.948v-1.356h.156a2.15 2.15 0 0 1-.816 1.08c-.368.256-.804.384-1.308.384Zm7.931-.108V6.168h.972V15h-.972Zm2.859 0V8.976h.972V15h-.972Zm-.12-7.392V6.516h1.2v1.092h-1.2ZM335.201 15l-2.58-6.024h1.056l2.16 5.304h-.324l2.184-5.304h1.008L336.125 15h-.924Zm7.193.108c-.944 0-1.688-.272-2.232-.816-.544-.552-.816-1.316-.816-2.292 0-.632.12-1.18.36-1.644.24-.472.576-.836 1.008-1.092.432-.264.928-.396 1.488-.396.552 0 1.016.116 1.392.348.376.232.664.564.864.996.2.424.3.928.3 1.512v.36h-4.668v-.612h4.032l-.204.156c0-.64-.144-1.14-.432-1.5-.288-.36-.716-.54-1.284-.54-.6 0-1.068.212-1.404.636-.336.416-.504.98-.504 1.692v.108c0 .752.184 1.324.552 1.716.376.384.9.576 1.572.576.36 0 .696-.052 1.008-.156.32-.112.624-.292.912-.54l.336.684c-.264.256-.6.456-1.008.6-.4.136-.824.204-1.272.204ZM46.46 15V6.54h.996V15h-.996Zm2.998 0v-4.632c0-.224-.012-.452-.036-.684-.016-.24-.036-.476-.06-.708h.936l.12 1.32h-.144c.16-.456.412-.808.756-1.056.352-.248.776-.372 1.272-.372.504 0 .912.12 1.224.36.32.24.536.612.648 1.116h-.18c.152-.456.42-.816.804-1.08.384-.264.832-.396 1.344-.396.664 0 1.164.192 1.5.576.336.376.504.972.504 1.788V15h-.972v-3.708c0-.568-.1-.98-.3-1.236-.2-.264-.52-.396-.96-.396-.504 0-.904.176-1.2.528-.288.344-.432.808-.432 1.392V15h-.972v-3.708c0-.568-.1-.98-.3-1.236-.2-.264-.52-.396-.96-.396-.504 0-.9.176-1.188.528-.288.344-.432.808-.432 1.392V15h-.972Zm10.535 0v-4.632c0-.224-.012-.452-.036-.684-.016-.24-.036-.476-.06-.708h.936l.12 1.32h-.144c.16-.456.412-.808.756-1.056.352-.248.776-.372 1.272-.372.504 0 .912.12 1.224.36.32.24.536.612.648 1.116h-.18c.152-.456.42-.816.804-1.08.384-.264.832-.396 1.344-.396.664 0 1.164.192 1.5.576.336.376.504.972.504 1.788V15h-.972v-3.708c0-.568-.1-.98-.3-1.236-.2-.264-.52-.396-.96-.396-.504 0-.904.176-1.2.528-.288.344-.432.808-.432 1.392V15h-.972v-3.708c0-.568-.1-.98-.3-1.236-.2-.264-.52-.396-.96-.396-.504 0-.9.176-1.188.528-.288.344-.432.808-.432 1.392V15h-.972Zm10.535 0V8.976h.972V15h-.972Zm-.12-7.392V6.516h1.2v1.092h-1.2Zm5.632 10.068c-.52 0-1-.064-1.44-.192a3.67 3.67 0 0 1-1.188-.588l.287-.732c.249.176.493.316.733.42.24.104.487.18.743.228.257.056.529.084.817.084.591 0 1.04-.156 1.343-.468.305-.312.457-.756.457-1.332v-1.764h.12a1.964 1.964 0 0 1-.793 1.128c-.4.272-.868.408-1.403.408-.552 0-1.032-.12-1.44-.36a2.526 2.526 0 0 1-.936-1.044c-.216-.456-.325-.992-.325-1.608 0-.608.109-1.136.325-1.584.224-.448.535-.792.935-1.032.408-.248.888-.372 1.44-.372.544 0 1.013.136 1.404.408.4.272.665.648.793 1.128l-.12-.12.108-1.308h.947a10.095 10.095 0 0 0-.096 1.392v4.596c0 .896-.232 1.572-.696 2.028-.456.456-1.128.684-2.016.684Zm-.145-3.6c.585 0 1.044-.192 1.38-.576.337-.392.504-.94.504-1.644s-.167-1.248-.504-1.632c-.336-.384-.796-.576-1.38-.576-.575 0-1.035.192-1.38.576-.344.384-.516.928-.516 1.632 0 .704.172 1.252.517 1.644.343.384.803.576 1.38.576Zm4.699.924v-4.572c0-.24-.008-.484-.024-.732a10.193 10.193 0 0 0-.048-.72h.936l.12 1.464-.168.012c.08-.36.22-.656.42-.888.2-.232.436-.404.708-.516.272-.12.556-.18.852-.18.12 0 .224.004.312.012a.91.91 0 0 1 .264.06l-.012.864a1.41 1.41 0 0 0-.336-.072 2.067 2.067 0 0 0-.336-.024c-.352 0-.66.084-.924.252a1.693 1.693 0 0 0-.588.648 1.9 1.9 0 0 0-.192.84V15h-.984Zm6.617.108c-.536 0-1.004-.124-1.404-.372a2.578 2.578 0 0 1-.936-1.08c-.216-.464-.324-1.02-.324-1.668 0-.656.108-1.216.324-1.68.224-.464.536-.82.936-1.068.4-.248.868-.372 1.404-.372.544 0 1.012.14 1.404.42.4.272.664.644.792 1.116h-.144l.132-1.428h.936l-.072.708c-.016.232-.024.46-.024.684V15h-.972v-1.416h.132a1.913 1.913 0 0 1-.792 1.116c-.4.272-.864.408-1.392.408Zm.192-.792c.576 0 1.032-.196 1.368-.588.336-.4.504-.98.504-1.74 0-.768-.168-1.348-.504-1.74-.336-.4-.792-.6-1.368-.6-.568 0-1.024.2-1.368.6-.336.392-.504.972-.504 1.74 0 .76.168 1.34.504 1.74.344.392.8.588 1.368.588Zm6.847.792c-.592 0-1.044-.168-1.356-.504-.312-.344-.468-.86-.468-1.548V9.732H91.25v-.756h1.176V7.332l.972-.276v1.92h1.728v.756h-1.728v3.216c0 .48.08.824.24 1.032.168.2.416.3.744.3.152 0 .288-.012.408-.036a2.56 2.56 0 0 0 .324-.108v.816a1.671 1.671 0 0 1-.408.108 2.208 2.208 0 0 1-.456.048ZM96.31 15V8.976h.971V15h-.972Zm-.12-7.392V6.516h1.2v1.092h-1.2Zm5.451 7.5c-.576 0-1.08-.124-1.512-.372a2.574 2.574 0 0 1-.984-1.08c-.232-.472-.348-1.028-.348-1.668 0-.648.116-1.204.348-1.668.232-.464.56-.82.984-1.068.432-.256.936-.384 1.512-.384.584 0 1.088.128 1.512.384.432.248.764.604.996 1.068.24.464.36 1.02.36 1.668 0 .64-.12 1.196-.36 1.668a2.552 2.552 0 0 1-.996 1.08c-.424.248-.928.372-1.512.372Zm0-.792c.576 0 1.032-.196 1.368-.588.336-.4.504-.98.504-1.74 0-.768-.172-1.348-.516-1.74-.336-.4-.788-.6-1.356-.6-.568 0-1.02.2-1.356.6-.336.392-.504.972-.504 1.74 0 .76.168 1.34.504 1.74.336.392.788.588 1.356.588Zm4.383.684v-4.632c0-.224-.012-.452-.036-.684-.016-.24-.036-.476-.06-.708h.936l.12 1.32h-.144c.176-.464.456-.816.84-1.056a2.482 2.482 0 0 1 1.356-.372c.712 0 1.248.192 1.608.576.368.376.552.972.552 1.788V15h-.972v-3.708c0-.568-.116-.98-.348-1.236-.224-.264-.576-.396-1.056-.396-.56 0-1.004.172-1.332.516-.328.344-.492.804-.492 1.38V15h-.972Zm12.164.108c-.48 0-.928-.064-1.344-.192a2.9 2.9 0 0 1-1.032-.564l.336-.684c.296.232.616.404.96.516a3.58 3.58 0 0 0 1.092.168c.48 0 .84-.084 1.08-.252a.837.837 0 0 0 .372-.72.687.687 0 0 0-.24-.552c-.152-.144-.404-.256-.756-.336l-1.116-.228c-.512-.112-.896-.3-1.152-.564-.256-.272-.384-.616-.384-1.032 0-.352.092-.66.276-.924.184-.272.452-.484.804-.636.352-.16.764-.24 1.236-.24.44 0 .844.068 1.212.204.376.128.688.316.936.564l-.348.672a2.294 2.294 0 0 0-.828-.516 2.56 2.56 0 0 0-.948-.18c-.472 0-.828.096-1.068.288a.888.888 0 0 0-.348.732c0 .232.072.424.216.576.152.144.384.252.696.324l1.116.228c.544.12.948.308 1.212.564.272.248.408.584.408 1.008 0 .36-.1.676-.3.948-.2.264-.48.468-.84.612-.352.144-.768.216-1.248.216Zm6.027 0c-.592 0-1.044-.168-1.356-.504-.312-.344-.468-.86-.468-1.548V9.732h-1.176v-.756h1.176V7.332l.972-.276v1.92h1.728v.756h-1.728v3.216c0 .48.08.824.24 1.032.168.2.416.3.744.3.152 0 .288-.012.408-.036a2.56 2.56 0 0 0 .324-.108v.816a1.671 1.671 0 0 1-.408.108 2.208 2.208 0 0 1-.456.048Zm4.351 0c-.536 0-1.004-.124-1.404-.372a2.578 2.578 0 0 1-.936-1.08c-.216-.464-.324-1.02-.324-1.668 0-.656.108-1.216.324-1.68.224-.464.536-.82.936-1.068.4-.248.868-.372 1.404-.372.544 0 1.012.14 1.404.42.4.272.664.644.792 1.116h-.144l.132-1.428h.936l-.072.708c-.016.232-.024.46-.024.684V15h-.972v-1.416h.132a1.913 1.913 0 0 1-.792 1.116c-.4.272-.864.408-1.392.408Zm.192-.792c.576 0 1.032-.196 1.368-.588.336-.4.504-.98.504-1.74 0-.768-.168-1.348-.504-1.74-.336-.4-.792-.6-1.368-.6-.568 0-1.024.2-1.368.6-.336.392-.504.972-.504 1.74 0 .76.168 1.34.504 1.74.344.392.8.588 1.368.588Zm6.847.792c-.592 0-1.044-.168-1.356-.504-.312-.344-.468-.86-.468-1.548V9.732h-1.176v-.756h1.176V7.332l.972-.276v1.92h1.728v.756h-1.728v3.216c0 .48.08.824.24 1.032.168.2.416.3.744.3.152 0 .288-.012.408-.036a2.56 2.56 0 0 0 .324-.108v.816a1.671 1.671 0 0 1-.408.108 2.208 2.208 0 0 1-.456.048Zm4.184 0c-.712 0-1.252-.196-1.62-.588-.36-.392-.54-.992-.54-1.8V8.976h.972v3.72c0 .552.112.96.336 1.224.224.256.572.384 1.044.384.528 0 .952-.172 1.272-.516.32-.344.48-.804.48-1.38V8.976h.972V15h-.948v-1.356h.156a2.15 2.15 0 0 1-.816 1.08c-.368.256-.804.384-1.308.384Zm6.806 0c-.48 0-.928-.064-1.344-.192a2.9 2.9 0 0 1-1.032-.564l.336-.684c.296.232.616.404.96.516a3.58 3.58 0 0 0 1.092.168c.48 0 .84-.084 1.08-.252a.837.837 0 0 0 .372-.72.687.687 0 0 0-.24-.552c-.152-.144-.404-.256-.756-.336l-1.116-.228c-.512-.112-.896-.3-1.152-.564-.256-.272-.384-.616-.384-1.032 0-.352.092-.66.276-.924.184-.272.452-.484.804-.636.352-.16.764-.24 1.236-.24.44 0 .844.068 1.212.204.376.128.688.316.936.564l-.348.672a2.294 2.294 0 0 0-.828-.516 2.56 2.56 0 0 0-.948-.18c-.472 0-.828.096-1.068.288a.888.888 0 0 0-.348.732c0 .232.072.424.216.576.152.144.384.252.696.324l1.116.228c.544.12.948.308 1.212.564.272.248.408.584.408 1.008 0 .36-.1.676-.3.948-.2.264-.48.468-.84.612-.352.144-.768.216-1.248.216ZM14.618 96v-8.46h.996v7.596h4.273V96h-5.269Zm8.724.108c-.536 0-1.004-.124-1.404-.372a2.578 2.578 0 0 1-.936-1.08c-.216-.464-.324-1.02-.324-1.668 0-.656.108-1.216.324-1.68.224-.464.536-.82.936-1.068.4-.248.868-.372 1.404-.372.544 0 1.012.14 1.404.42.4.272.664.644.792 1.116h-.144l.132-1.428h.936l-.072.708c-.016.232-.024.46-.024.684V96h-.972v-1.416h.132a1.913 1.913 0 0 1-.792 1.116c-.4.272-.864.408-1.392.408Zm.192-.792c.576 0 1.032-.196 1.368-.588.336-.4.504-.98.504-1.74 0-.768-.168-1.348-.504-1.74-.336-.4-.792-.6-1.368-.6-.568 0-1.024.2-1.368.6-.336.392-.504.972-.504 1.74 0 .76.168 1.34.504 1.74.344.392.8.588 1.368.588Zm4.71.684v-4.632c0-.224-.011-.452-.035-.684-.016-.24-.036-.476-.06-.708h.936l.12 1.32h-.144c.176-.464.456-.816.84-1.056a2.482 2.482 0 0 1 1.356-.372c.712 0 1.248.192 1.608.576.368.376.552.972.552 1.788V96h-.972v-3.708c0-.568-.116-.98-.348-1.236-.224-.264-.576-.396-1.056-.396-.56 0-1.004.172-1.332.516-.328.344-.492.804-.492 1.38V96h-.972Zm9.684 2.676c-.52 0-1-.064-1.44-.192a3.67 3.67 0 0 1-1.188-.588l.288-.732c.248.176.492.316.732.42.24.104.488.18.744.228.256.056.528.084.816.084.592 0 1.04-.156 1.344-.468.304-.312.456-.756.456-1.332v-1.764h.12a1.964 1.964 0 0 1-.792 1.128c-.4.272-.868.408-1.404.408-.552 0-1.032-.12-1.44-.36a2.526 2.526 0 0 1-.936-1.044c-.216-.456-.324-.992-.324-1.608 0-.608.108-1.136.324-1.584.224-.448.536-.792.936-1.032.408-.248.888-.372 1.44-.372.544 0 1.012.136 1.404.408.4.272.664.648.792 1.128l-.12-.12.108-1.308h.948a10.095 10.095 0 0 0-.096 1.392v4.596c0 .896-.232 1.572-.696 2.028-.456.456-1.128.684-2.016.684Zm-.144-3.6c.584 0 1.044-.192 1.38-.576.336-.392.504-.94.504-1.644s-.168-1.248-.504-1.632c-.336-.384-.796-.576-1.38-.576-.576 0-1.036.192-1.38.576-.344.384-.516.928-.516 1.632 0 .704.172 1.252.516 1.644.344.384.804.576 1.38.576Zm6.847 1.032c-.712 0-1.252-.196-1.62-.588-.36-.392-.54-.992-.54-1.8v-3.744h.972v3.72c0 .552.112.96.336 1.224.224.256.572.384 1.044.384.528 0 .952-.172 1.272-.516.32-.344.48-.804.48-1.38v-3.432h.972V96h-.948v-1.356h.156a2.15 2.15 0 0 1-.816 1.08c-.368.256-.804.384-1.308.384Zm7.093 0c-.536 0-1.004-.124-1.404-.372a2.578 2.578 0 0 1-.936-1.08c-.216-.464-.324-1.02-.324-1.668 0-.656.108-1.216.324-1.68.224-.464.536-.82.936-1.068.4-.248.868-.372 1.404-.372.544 0 1.012.14 1.404.42.4.272.664.644.792 1.116h-.144l.132-1.428h.936l-.072.708c-.016.232-.024.46-.024.684V96h-.972v-1.416h.132a1.913 1.913 0 0 1-.792 1.116c-.4.272-.864.408-1.392.408Zm.192-.792c.576 0 1.032-.196 1.368-.588.336-.4.504-.98.504-1.74 0-.768-.168-1.348-.504-1.74-.336-.4-.792-.6-1.368-.6-.568 0-1.024.2-1.368.6-.336.392-.504.972-.504 1.74 0 .76.168 1.34.504 1.74.344.392.8.588 1.368.588Zm7.364 3.36c-.52 0-1-.064-1.44-.192a3.67 3.67 0 0 1-1.188-.588l.288-.732c.248.176.492.316.732.42.24.104.488.18.744.228.256.056.528.084.816.084.592 0 1.04-.156 1.344-.468.304-.312.456-.756.456-1.332v-1.764h.12a1.964 1.964 0 0 1-.792 1.128c-.4.272-.868.408-1.404.408-.552 0-1.032-.12-1.44-.36a2.526 2.526 0 0 1-.936-1.044c-.216-.456-.324-.992-.324-1.608 0-.608.108-1.136.324-1.584.224-.448.536-.792.936-1.032.408-.248.888-.372 1.44-.372.544 0 1.012.136 1.404.408.4.272.664.648.792 1.128l-.12-.12.108-1.308h.948a10.095 10.095 0 0 0-.096 1.392v4.596c0 .896-.232 1.572-.696 2.028-.456.456-1.128.684-2.016.684Zm-.144-3.6c.584 0 1.044-.192 1.38-.576.336-.392.504-.94.504-1.644s-.168-1.248-.504-1.632c-.336-.384-.796-.576-1.38-.576-.576 0-1.036.192-1.38.576-.344.384-.516.928-.516 1.632 0 .704.172 1.252.516 1.644.344.384.804.576 1.38.576Zm7.398 1.032c-.944 0-1.688-.272-2.232-.816-.544-.552-.816-1.316-.816-2.292 0-.632.12-1.18.36-1.644.24-.472.576-.836 1.008-1.092.432-.264.928-.396 1.488-.396.552 0 1.016.116 1.392.348.376.232.664.564.864.996.2.424.3.928.3 1.512v.36H64.23v-.612h4.032l-.204.156c0-.64-.144-1.14-.432-1.5-.288-.36-.716-.54-1.284-.54-.6 0-1.068.212-1.404.636-.336.416-.504.98-.504 1.692v.108c0 .752.184 1.324.552 1.716.376.384.9.576 1.572.576.36 0 .696-.052 1.008-.156.32-.112.624-.292.912-.54l.336.684c-.264.256-.6.456-1.008.6-.4.136-.824.204-1.272.204Z"/>
    <path fill="#F6F5F2" d="M188 25h36v17h-36z"/>
    <path fill="#A93031" d="M192.927 38v-8.46h1.356l3.108 6.996h-.372l3.108-6.996h1.344V38h-1.404v-6.276h.432L197.655 38h-.924l-2.844-6.276h.444V38h-1.404Zm13.045.12c-.624 0-1.164-.128-1.62-.384a2.7 2.7 0 0 1-1.068-1.092c-.248-.472-.372-1.032-.372-1.68 0-.648.124-1.204.372-1.668a2.7 2.7 0 0 1 1.068-1.092c.456-.256.996-.384 1.62-.384.624 0 1.164.128 1.62.384.464.256.82.62 1.068 1.092.256.464.384 1.02.384 1.668 0 .648-.128 1.208-.384 1.68a2.603 2.603 0 0 1-1.068 1.092c-.456.256-.996.384-1.62.384Zm0-1.152c.472 0 .848-.164 1.128-.492.28-.336.42-.84.42-1.512s-.14-1.172-.42-1.5c-.28-.328-.656-.492-1.128-.492-.472 0-.848.164-1.128.492-.28.328-.42.828-.42 1.5s.14 1.176.42 1.512c.28.328.656.492 1.128.492Zm6.525 1.152c-.52 0-1-.06-1.44-.18a3.387 3.387 0 0 1-1.092-.528l.42-1.008a3.814 3.814 0 0 0 2.124.648c.4 0 .696-.068.888-.204.2-.136.3-.32.3-.552a.526.526 0 0 0-.192-.432c-.12-.112-.316-.196-.588-.252l-1.2-.228c-.512-.112-.904-.304-1.176-.576-.264-.272-.396-.628-.396-1.068 0-.376.1-.708.3-.996.208-.288.5-.512.876-.672.384-.168.832-.252 1.344-.252.448 0 .868.06 1.26.18.4.12.736.3 1.008.54l-.432.972a2.838 2.838 0 0 0-.852-.468 2.824 2.824 0 0 0-.936-.168c-.416 0-.72.076-.912.228a.673.673 0 0 0-.288.564c0 .176.056.324.168.444.12.112.304.196.552.252l1.2.228c.536.104.94.288 1.212.552.28.256.42.608.42 1.056 0 .4-.108.744-.324 1.032a2.023 2.023 0 0 1-.9.66c-.384.152-.832.228-1.344.228Zm6.386 0c-.72 0-1.264-.188-1.632-.564-.368-.376-.552-.94-.552-1.692v-2.796h-1.164V31.94h1.164v-1.548l1.5-.384v1.932h1.62v1.128h-1.62v2.7c0 .416.08.708.24.876.16.168.38.252.66.252.152 0 .28-.012.384-.036.112-.024.22-.056.324-.096v1.188a1.9 1.9 0 0 1-.456.12c-.16.032-.316.048-.468.048Z"/>
    <path fill="#F6F5F2" fill-opacity=".7" d="M188 135h36v17h-36z"/>
    <path fill="#A93031" d="M191.35 148v-8.46h1.548v7.152h3.984V148h-5.532Zm9.464.12c-1.016 0-1.812-.28-2.388-.84-.576-.56-.864-1.328-.864-2.304 0-.632.124-1.184.372-1.656a2.75 2.75 0 0 1 1.032-1.104c.448-.264.968-.396 1.56-.396.584 0 1.072.124 1.464.372.392.248.688.596.888 1.044.208.448.312.972.312 1.572v.396h-4.416v-.792h3.348l-.204.168c0-.56-.12-.988-.36-1.284-.232-.296-.572-.444-1.02-.444-.496 0-.88.176-1.152.528-.264.352-.396.844-.396 1.476v.156c0 .656.16 1.148.48 1.476.328.32.788.48 1.38.48.344 0 .664-.044.96-.132.304-.096.592-.248.864-.456l.444 1.008a3.162 3.162 0 0 1-1.032.54c-.4.128-.824.192-1.272.192Zm5.987 0c-.528 0-.992-.124-1.392-.372-.4-.256-.712-.62-.936-1.092-.224-.472-.336-1.036-.336-1.692 0-.656.112-1.216.336-1.68.224-.472.536-.832.936-1.08.4-.256.864-.384 1.392-.384.512 0 .96.128 1.344.384.392.248.652.584.78 1.008h-.132l.132-1.272h1.44l-.072.756a12.12 12.12 0 0 0-.024.756V148h-1.488l-.012-1.248h.144a1.77 1.77 0 0 1-.78.996 2.439 2.439 0 0 1-1.332.372Zm.42-1.152c.472 0 .852-.164 1.14-.492.288-.336.432-.84.432-1.512s-.144-1.172-.432-1.5c-.288-.328-.668-.492-1.14-.492-.472 0-.852.164-1.14.492-.288.328-.432.828-.432 1.5s.14 1.176.42 1.512c.288.328.672.492 1.152.492Zm6.841 1.152c-.52 0-1-.06-1.44-.18a3.387 3.387 0 0 1-1.092-.528l.42-1.008a3.814 3.814 0 0 0 2.124.648c.4 0 .696-.068.888-.204.2-.136.3-.32.3-.552a.526.526 0 0 0-.192-.432c-.12-.112-.316-.196-.588-.252l-1.2-.228c-.512-.112-.904-.304-1.176-.576-.264-.272-.396-.628-.396-1.068 0-.376.1-.708.3-.996.208-.288.5-.512.876-.672.384-.168.832-.252 1.344-.252.448 0 .868.06 1.26.18.4.12.736.3 1.008.54l-.432.972a2.838 2.838 0 0 0-.852-.468 2.824 2.824 0 0 0-.936-.168c-.416 0-.72.076-.912.228a.673.673 0 0 0-.288.564c0 .176.056.324.168.444.12.112.304.196.552.252l1.2.228c.536.104.94.288 1.212.552.28.256.42.608.42 1.056 0 .4-.108.744-.324 1.032a2.023 2.023 0 0 1-.9.66c-.384.152-.832.228-1.344.228Zm6.385 0c-.72 0-1.264-.188-1.632-.564-.368-.376-.552-.94-.552-1.692v-2.796h-1.164v-1.128h1.164v-1.548l1.5-.384v1.932h1.62v1.128h-1.62v2.7c0 .416.08.708.24.876.16.168.38.252.66.252.152 0 .28-.012.384-.036.112-.024.22-.056.324-.096v1.188a1.9 1.9 0 0 1-.456.12c-.16.032-.316.048-.468.048Z"/>
    <path stroke="#000" stroke-dasharray="10 10" stroke-width="2" d="M219 112h-22l-20.5 20.5-76.5 56.224L161.5 247l78.5-26.5 68.5-28.5 6.5-92.5-96 12.5Z"/>
  </svg>