<svg xmlns="http://www.w3.org/2000/svg" width="349" height="241" fill="none" viewBox="0 0 349 241">
    <circle fill="var(--fi-wheel-dark, #E8B91C)" stroke="var(--fi-wheel-slice-outline, #4A4021)" cx="182.002" cy="113.762" r="99.305" stroke-dasharray="0.5 0.5" stroke-width=".5"/>
    <circle fill="var(--fi-wheel-medium, #F6D872)" stroke="var(--fi-wheel-slice-outline, #4A4021)" cx="182.131" cy="113.89" r="75.51" stroke-dasharray="0.5 0.5" stroke-width=".5"/>
    <circle fill="var(--fi-wheel-light, #F9EEC6)" stroke="var(--fi-wheel-slice-outline, #4A4021)" cx="182.131" cy="113.891" r="47.212" stroke-dasharray="0.5 0.5" stroke-width=".5"/>
    <path fill="var(--fi-wheel-arrow, #a93031)" d="M182.509 3.224a.302.302 0 0 0-.427 0l-1.92 1.92a.302.302 0 1 0 .427.428l1.707-1.708 1.707 1.708a.302.302 0 0 0 .427-.427l-1.921-1.92Zm-.427 99.118a.304.304 0 0 0 .427 0l1.921-1.921a.302.302 0 1 0-.427-.427l-1.707 1.707-1.707-1.707a.302.302 0 0 0-.427.427l1.92 1.921Zm.214-98.904h-.302v98.69h.604V3.438h-.302Z"/>
    <path stroke="var(--fi-wheel-slice-outline, #997D1E)" stroke-dasharray="0.6 0.6" stroke-width=".5" d="M281.591 113.864H82.7M182.047 213.208V14.317M111.595 183.863 252.053 43.405M112.207 43.66 252.15 183.603"/>
    <path fill="var(--fi-wheel-content, #161616)" d="M297.386 149.746a5.421 5.421 0 0 1-1.687-.244 3.98 3.98 0 0 1-1.299-.7l.333-.732c.259.192.518.355.777.488.267.126.552.222.855.289.303.059.644.089 1.021.089.659 0 1.147-.123 1.465-.367.319-.244.478-.57.478-.977 0-.347-.111-.614-.333-.799-.222-.185-.611-.333-1.166-.444l-1.165-.233c-.718-.148-1.255-.388-1.61-.721-.348-.333-.522-.785-.522-1.355 0-.466.119-.873.356-1.221a2.396 2.396 0 0 1 1.021-.81c.436-.192.943-.288 1.521-.288.555 0 1.061.085 1.52.255.459.163.851.403 1.177.721l-.322.711a3.24 3.24 0 0 0-1.099-.666 3.663 3.663 0 0 0-1.288-.211c-.606 0-1.087.133-1.443.399-.347.259-.521.615-.521 1.066 0 .363.111.648.333.855.222.2.588.351 1.099.455l1.176.233c.755.155 1.31.388 1.665.699.355.311.533.748.533 1.31 0 .429-.118.81-.355 1.143-.23.333-.559.592-.988.777-.429.185-.94.278-1.532.278Zm6.55 0c-.533 0-.999-.115-1.399-.344a2.382 2.382 0 0 1-.91-.999c-.215-.437-.322-.951-.322-1.543 0-.6.107-1.114.322-1.543.214-.429.518-.759.91-.988.4-.237.866-.355 1.399-.355.54 0 1.006.118 1.398.355.4.229.707.559.922.988.222.429.333.943.333 1.543 0 .592-.111 1.106-.333 1.543a2.364 2.364 0 0 1-.922.999c-.392.229-.858.344-1.398.344Zm0-.733c.532 0 .954-.181 1.265-.544.311-.37.466-.906.466-1.609 0-.711-.159-1.247-.477-1.61-.311-.37-.729-.555-1.254-.555-.526 0-.944.185-1.255.555-.31.363-.466.899-.466 1.61 0 .703.156 1.239.466 1.609.311.363.729.544 1.255.544Zm6.396.733c-.547 0-1.024-.119-1.431-.355a2.42 2.42 0 0 1-.933-1.01c-.214-.437-.322-.955-.322-1.554 0-.607.111-1.122.333-1.543.222-.43.533-.755.933-.977.407-.222.88-.333 1.42-.333.356 0 .7.063 1.033.189.34.125.621.303.843.532l-.322.644a2.195 2.195 0 0 0-.732-.477 2.044 2.044 0 0 0-.766-.156c-.577 0-1.025.182-1.343.544-.318.363-.477.892-.477 1.588 0 .688.159 1.221.477 1.598.318.377.766.566 1.343.566.244 0 .496-.048.755-.144.266-.096.514-.255.743-.477l.322.632a2.257 2.257 0 0 1-.854.544 2.929 2.929 0 0 1-1.022.189Zm3.154-.1v-5.572h.899v5.572h-.899Zm-.111-6.838v-1.01h1.11v1.01h-1.11Zm4.876 6.938c-.496 0-.929-.115-1.299-.344a2.384 2.384 0 0 1-.865-.999c-.2-.429-.3-.944-.3-1.543 0-.607.1-1.125.3-1.554.207-.429.495-.759.865-.988.37-.229.803-.344 1.299-.344.503 0 .936.129 1.299.388.37.252.614.596.732 1.033h-.133l.122-1.321h.866a180.1 180.1 0 0 0-.066.655 9.05 9.05 0 0 0-.023.632v4.285h-.899v-1.31h.122a1.763 1.763 0 0 1-.732 1.032c-.37.252-.799.378-1.288.378Zm.178-.733c.533 0 .954-.181 1.265-.544.311-.37.466-.906.466-1.609 0-.711-.155-1.247-.466-1.61-.311-.37-.732-.555-1.265-.555-.526 0-.947.185-1.266.555-.31.363-.466.899-.466 1.61 0 .703.156 1.239.466 1.609.319.363.74.544 1.266.544Zm4.358.633v-8.17h.899v8.17h-.899Zm-18.563 13.1c-.495 0-.928-.115-1.298-.344a2.386 2.386 0 0 1-.866-.999c-.2-.429-.3-.944-.3-1.543 0-.607.1-1.125.3-1.554.207-.429.496-.759.866-.988.37-.229.803-.344 1.298-.344.504 0 .937.129 1.299.388.37.252.614.596.733 1.033h-.133l.122-1.321h.865a180.1 180.1 0 0 0-.066.655 9.041 9.041 0 0 0-.022.632v4.285h-.899v-1.31h.122a1.769 1.769 0 0 1-.733 1.032c-.37.252-.799.378-1.288.378Zm.178-.733c.533 0 .955-.181 1.265-.544.311-.37.467-.906.467-1.609 0-.711-.156-1.247-.467-1.61-.31-.37-.732-.555-1.265-.555-.525 0-.947.185-1.265.555-.311.363-.467.899-.467 1.61 0 .703.156 1.239.467 1.609.318.363.74.544 1.265.544Zm4.358.633v-5.572h.899v5.572h-.899Zm-.111-6.838v-1.01h1.11v1.01h-1.11Zm4.865 6.938c-.489 0-.918-.115-1.288-.344a2.393 2.393 0 0 1-.866-.999c-.199-.429-.299-.944-.299-1.543 0-.607.1-1.125.299-1.554.208-.429.496-.759.866-.988.37-.229.799-.344 1.288-.344.503 0 .936.126 1.299.377.37.252.617.592.743 1.021h-.133v-3.896h.899v8.17h-.888v-1.332h.122a1.815 1.815 0 0 1-.732 1.054c-.37.252-.807.378-1.31.378Zm.189-.733c.525 0 .947-.181 1.265-.544.318-.37.477-.906.477-1.609 0-.711-.159-1.247-.477-1.61-.318-.37-.74-.555-1.265-.555-.526 0-.948.185-1.266.555-.311.363-.466.899-.466 1.61 0 .703.155 1.239.466 1.609.318.363.74.544 1.266.544Zm-22.607 16.031v-6.683c0-.207-.011-.418-.033-.632a18.838 18.838 0 0 0-.055-.655h.865l.123 1.321h-.134c.119-.437.359-.781.722-1.033.362-.259.795-.388 1.299-.388.503 0 .936.115 1.298.344.37.229.659.559.866.988.207.429.311.947.311 1.554 0 .599-.104 1.114-.311 1.543-.2.429-.485.762-.855.999-.37.229-.806.344-1.309.344-.496 0-.925-.126-1.288-.378a1.782 1.782 0 0 1-.722-1.032h.123v3.708h-.9Zm2.609-3.031c.533 0 .955-.181 1.265-.544.319-.37.478-.906.478-1.609 0-.711-.159-1.247-.478-1.61-.31-.37-.732-.555-1.265-.555-.525 0-.947.185-1.265.555-.311.363-.467.899-.467 1.61 0 .703.156 1.239.467 1.609.318.363.74.544 1.265.544Zm6.334.733c-.533 0-.999-.115-1.399-.344a2.388 2.388 0 0 1-.91-.999c-.215-.437-.322-.951-.322-1.543 0-.6.107-1.114.322-1.543.215-.429.518-.759.91-.988.4-.237.866-.355 1.399-.355.54 0 1.006.118 1.398.355.4.229.707.559.922.988.222.429.333.943.333 1.543 0 .592-.111 1.106-.333 1.543a2.364 2.364 0 0 1-.922.999c-.392.229-.858.344-1.398.344Zm0-.733c.533 0 .954-.181 1.265-.544.311-.37.466-.906.466-1.609 0-.711-.159-1.247-.477-1.61-.311-.37-.729-.555-1.254-.555-.526 0-.944.185-1.255.555-.31.363-.466.899-.466 1.61 0 .703.156 1.239.466 1.609.311.363.729.544 1.255.544Zm4.054.633v-8.17h.9v8.17h-.9Zm2.645 0v-5.572h.899v5.572h-.899Zm-.111-6.838v-1.01h1.11v1.01h-1.11Zm5.098 6.938c-.547 0-1.025-.119-1.432-.355a2.425 2.425 0 0 1-.932-1.01c-.215-.437-.322-.955-.322-1.554 0-.607.111-1.122.333-1.543.222-.43.533-.755.933-.977.407-.222.88-.333 1.42-.333.356 0 .7.063 1.033.189.34.125.621.303.843.532l-.322.644a2.195 2.195 0 0 0-.732-.477 2.048 2.048 0 0 0-.766-.156c-.577 0-1.025.182-1.343.544-.318.363-.478.892-.478 1.588 0 .688.16 1.221.478 1.598.318.377.766.566 1.343.566.244 0 .496-.048.755-.144.266-.096.514-.255.743-.477l.322.632a2.257 2.257 0 0 1-.854.544 2.929 2.929 0 0 1-1.022.189Zm3.154-.1v-5.572h.899v5.572h-.899Zm-.111-6.838v-1.01h1.11v1.01h-1.11Zm5.231 6.938c-.873 0-1.561-.252-2.064-.755-.504-.511-.755-1.217-.755-2.12 0-.585.111-1.092.333-1.521.222-.436.533-.773.932-1.01a2.59 2.59 0 0 1 1.377-.366c.51 0 .939.107 1.287.322.348.214.614.521.799.921.185.392.278.858.278 1.399v.333h-4.318v-.566h3.73l-.189.144c0-.592-.133-1.055-.4-1.388-.266-.333-.662-.499-1.187-.499-.555 0-.988.196-1.299.588-.311.385-.466.907-.466 1.565v.1c0 .696.17 1.225.51 1.587.348.356.833.533 1.454.533.333 0 .644-.048.933-.144a2.61 2.61 0 0 0 .843-.5l.311.633a2.517 2.517 0 0 1-.932.555c-.37.126-.762.189-1.177.189Zm5.416 0c-.444 0-.858-.059-1.243-.178a2.674 2.674 0 0 1-.954-.521l.31-.633c.274.214.57.374.888.477.326.104.663.156 1.011.156.444 0 .777-.078.999-.234a.773.773 0 0 0 .344-.666.635.635 0 0 0-.222-.51c-.141-.133-.374-.237-.7-.311l-1.032-.211c-.474-.103-.829-.277-1.066-.522-.236-.251-.355-.569-.355-.954 0-.326.085-.611.256-.855.17-.251.418-.448.743-.588.326-.148.707-.222 1.144-.222.407 0 .78.063 1.121.189.347.118.636.292.865.521l-.321.622a2.113 2.113 0 0 0-.766-.477 2.373 2.373 0 0 0-.877-.167c-.437 0-.766.089-.988.266a.822.822 0 0 0-.322.678c0 .214.067.392.2.532.14.134.355.233.644.3l1.032.211c.503.111.877.285 1.121.522.252.229.377.54.377.932 0 .333-.092.625-.277.877a1.772 1.772 0 0 1-.777.566c-.326.133-.711.2-1.155.2Z"/>
    <path fill="var(--fi-wheel-content-emphasis, #a93031)" d="M226.404 233.648c-.785 0-1.451-.163-1.998-.488a3.241 3.241 0 0 1-1.266-1.388c-.288-.599-.433-1.313-.433-2.142s.145-1.539.433-2.131c.296-.6.718-1.062 1.266-1.388.547-.325 1.213-.488 1.998-.488a4.07 4.07 0 0 1 1.487.255c.437.17.818.418 1.143.744l-.344.733a3.775 3.775 0 0 0-1.054-.678c-.348-.148-.755-.222-1.221-.222-.896 0-1.576.278-2.043.833-.466.555-.699 1.336-.699 2.342s.233 1.791.699 2.353c.467.555 1.147.833 2.043.833.466 0 .873-.071 1.221-.211a3.881 3.881 0 0 0 1.054-.699l.344.743a3.508 3.508 0 0 1-1.143.744 4.07 4.07 0 0 1-1.487.255Zm5.976 0c-.532 0-.999-.114-1.398-.344a2.382 2.382 0 0 1-.91-.999c-.215-.436-.322-.951-.322-1.543 0-.599.107-1.113.322-1.543.214-.429.518-.758.91-.988.399-.236.866-.355 1.398-.355.541 0 1.007.119 1.399.355.4.23.707.559.921.988.222.43.333.944.333 1.543 0 .592-.111 1.107-.333 1.543a2.356 2.356 0 0 1-.921.999c-.392.23-.858.344-1.399.344Zm0-.732c.533 0 .955-.182 1.266-.544.311-.37.466-.907.466-1.61 0-.71-.159-1.247-.477-1.609-.311-.37-.729-.555-1.255-.555-.525 0-.943.185-1.254.555-.311.362-.466.899-.466 1.609 0 .703.155 1.24.466 1.61.311.362.729.544 1.254.544Zm5.909.732c-.444 0-.859-.059-1.243-.177a2.689 2.689 0 0 1-.955-.522l.311-.633c.274.215.57.374.888.478.325.103.662.155 1.01.155.444 0 .777-.078.999-.233a.775.775 0 0 0 .344-.666.636.636 0 0 0-.222-.511c-.141-.133-.374-.237-.699-.311l-1.033-.21c-.473-.104-.828-.278-1.065-.522-.237-.252-.355-.57-.355-.955 0-.325.085-.61.255-.854.17-.252.418-.448.744-.589.325-.148.706-.222 1.143-.222.407 0 .781.063 1.121.189a2.2 2.2 0 0 1 .866.522l-.322.621a2.132 2.132 0 0 0-.766-.477 2.365 2.365 0 0 0-.877-.167c-.436 0-.766.089-.988.267a.823.823 0 0 0-.322.677c0 .215.067.392.2.533.141.133.355.233.644.299l1.032.211c.503.111.877.285 1.121.522.252.229.378.54.378.932 0 .333-.093.626-.278.877a1.764 1.764 0 0 1-.777.566c-.325.134-.71.2-1.154.2Zm5.574 0c-.547 0-.965-.155-1.254-.466-.289-.318-.433-.795-.433-1.432v-3.075h-1.088v-.699h1.088v-1.521l.899-.255v1.776h1.599v.699h-1.599v2.975c0 .444.074.762.222.955.156.185.385.277.688.277.141 0 .267-.011.378-.033a2.45 2.45 0 0 0 .3-.1v.755c-.104.044-.23.078-.378.1-.14.029-.281.044-.422.044Zm7.086 0c-.533 0-.999-.114-1.399-.344a2.388 2.388 0 0 1-.91-.999c-.214-.436-.322-.951-.322-1.543 0-.599.108-1.113.322-1.543.215-.429.518-.758.91-.988.4-.236.866-.355 1.399-.355.54 0 1.006.119 1.399.355a2.3 2.3 0 0 1 .921.988c.222.43.333.944.333 1.543 0 .592-.111 1.107-.333 1.543a2.368 2.368 0 0 1-.921.999c-.393.23-.859.344-1.399.344Zm0-.732c.533 0 .955-.182 1.265-.544.311-.37.467-.907.467-1.61 0-.71-.159-1.247-.478-1.609-.31-.37-.729-.555-1.254-.555s-.943.185-1.254.555c-.311.362-.466.899-.466 1.609 0 .703.155 1.24.466 1.61.311.362.729.544 1.254.544Zm4.289.632v-4.873h-1.088v-.699h1.332l-.244.233v-.932c0-.629.159-1.11.478-1.443.318-.333.773-.5 1.365-.5.148 0 .3.015.455.045.163.022.296.055.4.1v.743a1.53 1.53 0 0 0-.333-.088 1.676 1.676 0 0 0-.389-.045c-.229 0-.425.048-.588.144a.837.837 0 0 0-.367.411c-.081.185-.122.422-.122.711v.81l-.144-.189h1.698v.699h-1.554v4.873h-.899Zm6.356 0v-8.169h.9v8.169h-.9Zm2.645 0v-5.572h.899v5.572h-.899Zm-.111-6.837v-1.01h1.11v1.01h-1.11Zm4.399 6.837-2.386-5.572h.976l1.998 4.906h-.299l2.02-4.906h.932l-2.386 5.572h-.855Zm4.254 0v-5.572h.899v5.572h-.899Zm-.111-6.837v-1.01h1.11v1.01h-1.11Zm2.756 6.837v-4.284c0-.207-.011-.418-.033-.633-.015-.222-.034-.44-.056-.655h.866l.111 1.221h-.133c.163-.429.422-.755.777-.977a2.298 2.298 0 0 1 1.254-.344c.659 0 1.155.178 1.488.533.34.348.51.899.51 1.654v3.485h-.899v-3.43c0-.525-.107-.906-.322-1.143-.207-.244-.533-.366-.977-.366-.518 0-.928.159-1.232.477-.303.318-.455.744-.455 1.277v3.185h-.899Zm8.957 2.476c-.481 0-.925-.06-1.332-.178a3.395 3.395 0 0 1-1.099-.544l.267-.677c.229.163.455.292.677.389.222.096.451.166.688.21.237.052.488.078.755.078.547 0 .962-.144 1.243-.433.281-.288.422-.699.422-1.232v-1.632h.111a1.82 1.82 0 0 1-.733 1.044c-.37.251-.803.377-1.299.377-.51 0-.954-.111-1.332-.333a2.332 2.332 0 0 1-.865-.965c-.2-.422-.3-.918-.3-1.488 0-.562.1-1.051.3-1.465.207-.414.495-.733.865-.955.378-.229.822-.344 1.332-.344.504 0 .936.126 1.299.378.37.251.614.599.733 1.043l-.111-.111.1-1.21h.876a9.876 9.876 0 0 0-.088 1.288v4.251c0 .829-.215 1.454-.644 1.876-.422.422-1.044.633-1.865.633Zm-.133-3.33c.54 0 .966-.178 1.276-.533.311-.363.467-.87.467-1.521 0-.651-.156-1.154-.467-1.509-.31-.356-.736-.533-1.276-.533-.533 0-.958.177-1.277.533-.318.355-.477.858-.477 1.509 0 .651.159 1.158.477 1.521.319.355.744.533 1.277.533Z"/>
    <path fill="var(--fi-wheel-content, #161616)" d="M286.144 72.786c-.629 0-1.191-.082-1.687-.244a3.985 3.985 0 0 1-1.299-.7l.333-.732c.259.192.518.355.777.488.267.126.552.222.855.289.303.059.644.089 1.021.089.659 0 1.147-.123 1.465-.367.319-.244.478-.57.478-.977 0-.347-.111-.614-.333-.799-.222-.185-.611-.333-1.166-.444l-1.165-.233c-.718-.148-1.255-.388-1.61-.721-.348-.333-.521-.785-.521-1.355 0-.466.118-.873.355-1.22a2.386 2.386 0 0 1 1.021-.81c.437-.193.943-.29 1.521-.29.555 0 1.062.086 1.52.256.459.163.851.403 1.177.721l-.322.71a3.246 3.246 0 0 0-1.099-.665 3.666 3.666 0 0 0-1.287-.211c-.607 0-1.088.133-1.443.4-.348.258-.522.614-.522 1.065 0 .363.111.648.333.855.222.2.588.351 1.099.455l1.176.233c.755.155 1.31.389 1.665.7.356.31.533.747.533 1.31 0 .428-.118.81-.355 1.142-.229.333-.559.592-.988.777-.429.185-.94.278-1.532.278Zm6.217 0c-.547 0-.965-.156-1.254-.466-.289-.319-.433-.796-.433-1.432v-3.075h-1.088v-.7h1.088v-1.52l.899-.255v1.776h1.599v.7h-1.599v2.974c0 .444.074.762.222.955.156.184.385.277.688.277.141 0 .267-.011.378-.033.111-.03.211-.063.299-.1v.755a1.535 1.535 0 0 1-.377.1c-.141.03-.281.044-.422.044Zm1.905-.1v-5.572h.899v5.572h-.899Zm-.111-6.838v-1.01h1.11v1.01h-1.11Zm5.209 9.313c-.481 0-.925-.059-1.332-.177a3.399 3.399 0 0 1-1.099-.544l.267-.677c.229.162.455.292.677.388.222.096.451.167.688.211.237.052.488.078.755.078.547 0 .962-.144 1.243-.433.281-.289.422-.7.422-1.232v-1.632h.111a1.82 1.82 0 0 1-.733 1.043c-.37.252-.803.378-1.299.378-.51 0-.954-.111-1.332-.333a2.334 2.334 0 0 1-.865-.966c-.2-.422-.3-.917-.3-1.487 0-.563.1-1.051.3-1.465.207-.415.495-.733.865-.955.378-.23.822-.344 1.332-.344.504 0 .937.126 1.299.377.37.252.614.6.733 1.044l-.111-.111.1-1.21h.877a9.218 9.218 0 0 0-.089 1.287v4.252c0 .828-.215 1.454-.644 1.876-.422.421-1.043.632-1.865.632Zm-.133-3.33c.54 0 .966-.177 1.276-.532.311-.363.467-.87.467-1.521 0-.651-.156-1.155-.467-1.51-.31-.355-.736-.533-1.276-.533-.533 0-.958.178-1.277.533-.318.355-.477.859-.477 1.51s.159 1.158.477 1.52c.319.356.744.533 1.277.533Zm4.368.855v-4.285c0-.207-.011-.418-.033-.632-.015-.222-.033-.44-.056-.655h.866l.111 1.22h-.133c.148-.421.381-.747.699-.976.326-.23.718-.344 1.177-.344.466 0 .844.11 1.132.333.296.222.496.566.6 1.032h-.167c.141-.422.389-.755.744-.999a2.138 2.138 0 0 1 1.243-.366c.614 0 1.077.178 1.387.533.311.347.467.899.467 1.654v3.485h-.899v-3.43c0-.525-.093-.906-.278-1.143-.185-.244-.481-.367-.888-.367-.466 0-.836.163-1.11.489-.266.318-.4.747-.4 1.287v3.164h-.899v-3.43c0-.525-.092-.906-.277-1.143-.185-.244-.481-.367-.888-.367-.466 0-.833.163-1.099.489-.266.318-.4.747-.4 1.287v3.164h-.899Zm11.865.1c-.495 0-.928-.115-1.298-.344a2.384 2.384 0 0 1-.866-1c-.2-.428-.3-.943-.3-1.542 0-.607.1-1.125.3-1.554.207-.43.496-.759.866-.988.37-.23.803-.344 1.298-.344.504 0 .936.13 1.299.388.37.252.614.596.733 1.033h-.134l.123-1.321h.865l-.066.655a9.07 9.07 0 0 0-.022.632v4.285h-.9v-1.31h.123c-.119.437-.363.78-.733 1.032s-.799.378-1.288.378Zm.178-.733c.533 0 .955-.181 1.265-.544.311-.37.467-.906.467-1.61 0-.71-.156-1.246-.467-1.609-.31-.37-.732-.555-1.265-.555-.525 0-.947.185-1.265.555-.311.363-.467.9-.467 1.61 0 .703.156 1.24.467 1.61.318.362.74.543 1.265.543Zm9.372.733c-.496 0-.928-.115-1.298-.344a2.384 2.384 0 0 1-.866-1c-.2-.428-.3-.943-.3-1.542 0-.607.1-1.125.3-1.554.207-.43.496-.759.866-.988.37-.23.802-.344 1.298-.344.503 0 .936.13 1.299.388.37.252.614.596.733 1.033h-.134l.122-1.321h.866l-.066.655a9.078 9.078 0 0 0-.023.632v4.285h-.899v-1.31h.122c-.118.437-.362.78-.732 1.032s-.799.378-1.288.378Zm.178-.733c.533 0 .954-.181 1.265-.544.311-.37.466-.906.466-1.61 0-.71-.155-1.246-.466-1.609-.311-.37-.732-.555-1.265-.555-.526 0-.947.185-1.266.555-.31.363-.466.9-.466 1.61 0 .703.156 1.24.466 1.61.319.362.74.543 1.266.543Zm4.358.633v-4.285c0-.207-.011-.418-.033-.632-.015-.222-.034-.44-.056-.655h.866l.111 1.22h-.133a1.9 1.9 0 0 1 .777-.976c.362-.23.78-.344 1.254-.344.659 0 1.154.178 1.487.533.341.347.511.899.511 1.654v3.485h-.899v-3.43c0-.525-.107-.906-.322-1.143-.207-.244-.533-.367-.977-.367-.518 0-.929.16-1.232.478-.303.318-.455.743-.455 1.276v3.186h-.899Zm8.613.1c-.489 0-.918-.115-1.288-.344a2.39 2.39 0 0 1-.866-1c-.199-.428-.299-.943-.299-1.542 0-.607.1-1.125.299-1.554.208-.43.496-.759.866-.988.37-.23.799-.344 1.288-.344.503 0 .936.126 1.298.377.37.252.618.592.744 1.021h-.133v-3.896h.899v8.17h-.888v-1.332h.122a1.816 1.816 0 0 1-.732 1.055c-.37.251-.807.377-1.31.377Zm.188-.733c.526 0 .948-.181 1.266-.544.318-.37.477-.906.477-1.61 0-.71-.159-1.246-.477-1.609-.318-.37-.74-.555-1.266-.555-.525 0-.947.185-1.265.555-.311.363-.466.9-.466 1.61 0 .703.155 1.24.466 1.61.318.362.74.543 1.265.543Zm-50.265 16.075c-.103 0-.233-.015-.388-.044a2.048 2.048 0 0 1-.389-.09v-.754c.089.03.193.056.311.078.119.03.23.044.333.044.311 0 .54-.1.688-.3.156-.192.234-.51.234-.954v-5.994h.899v6.083c0 .636-.141 1.117-.422 1.443-.274.325-.696.488-1.266.488Zm.689-9.28v-1.01h1.099v1.01h-1.099Zm4.654 6.938c-.659 0-1.158-.181-1.499-.544-.333-.363-.499-.918-.499-1.665v-3.463h.899v3.44c0 .511.103.889.311 1.133.207.237.529.355.965.355.489 0 .881-.159 1.177-.477.296-.318.444-.744.444-1.277v-3.174h.899v5.572h-.877v-1.254h.144a1.99 1.99 0 0 1-.754.999c-.341.237-.744.355-1.21.355Zm6.55 0c-.488 0-.917-.115-1.287-.344a2.384 2.384 0 0 1-.866-1c-.2-.428-.3-.943-.3-1.542 0-.607.1-1.125.3-1.554.207-.43.496-.759.866-.988.37-.23.799-.344 1.287-.344.504 0 .936.126 1.299.377.37.252.618.592.744 1.021h-.133v-3.896h.899v8.17h-.888v-1.332h.122a1.822 1.822 0 0 1-.733 1.055c-.37.251-.806.377-1.31.377Zm.189-.733c.525 0 .947-.181 1.265-.544.319-.37.478-.906.478-1.61 0-.71-.159-1.246-.478-1.609-.318-.37-.74-.555-1.265-.555-.525 0-.947.185-1.265.555-.311.363-.467.9-.467 1.61 0 .703.156 1.24.467 1.61.318.362.74.543 1.265.543Zm6.811 3.108c-.481 0-.925-.059-1.332-.177a3.399 3.399 0 0 1-1.099-.544l.267-.677c.229.162.455.292.677.388.222.096.451.167.688.211.237.052.488.078.755.078.547 0 .962-.144 1.243-.433.281-.289.422-.7.422-1.232v-1.632h.111a1.82 1.82 0 0 1-.733 1.043c-.37.252-.803.378-1.299.378-.51 0-.954-.111-1.332-.333a2.334 2.334 0 0 1-.865-.966c-.2-.422-.3-.917-.3-1.487 0-.563.1-1.051.3-1.465.207-.415.495-.733.865-.955.378-.23.822-.344 1.332-.344.504 0 .937.126 1.299.377.37.252.614.6.733 1.044l-.111-.111.1-1.21h.877a9.218 9.218 0 0 0-.089 1.287v4.252c0 .828-.215 1.454-.644 1.876-.422.421-1.043.632-1.865.632Zm-.133-3.33c.54 0 .966-.177 1.276-.532.311-.363.467-.87.467-1.521 0-.651-.156-1.155-.467-1.51-.31-.355-.736-.533-1.276-.533-.533 0-.958.178-1.277.533-.318.355-.477.859-.477 1.51s.159 1.158.477 1.52c.319.356.744.533 1.277.533Zm4.368.855v-4.285c0-.207-.011-.418-.033-.632-.015-.222-.033-.44-.056-.655h.866l.111 1.22h-.133c.148-.421.381-.747.699-.976.326-.23.718-.344 1.177-.344.466 0 .844.11 1.132.333.296.222.496.566.6 1.032h-.167c.141-.422.389-.755.744-.999a2.138 2.138 0 0 1 1.243-.366c.614 0 1.077.178 1.387.533.311.347.467.899.467 1.654v3.485h-.899v-3.43c0-.525-.093-.906-.278-1.143-.185-.244-.481-.367-.888-.367-.466 0-.836.163-1.11.489-.266.318-.4.747-.4 1.287v3.164h-.899v-3.43c0-.525-.092-.906-.277-1.143-.185-.244-.481-.367-.888-.367-.466 0-.833.163-1.099.489-.266.318-.4.747-.4 1.287v3.164h-.899Zm12.221.1c-.874 0-1.562-.252-2.065-.755-.503-.51-.755-1.217-.755-2.12 0-.585.111-1.091.333-1.52.222-.437.533-.774.933-1.01a2.583 2.583 0 0 1 1.376-.367c.511 0 .94.107 1.288.322.347.214.614.522.799.921.185.392.277.858.277 1.399v.333h-4.318v-.566h3.73l-.189.144c0-.592-.133-1.055-.399-1.388-.267-.333-.663-.5-1.188-.5-.555 0-.988.197-1.299.59-.311.384-.466.906-.466 1.564v.1c0 .696.17 1.225.511 1.587.347.356.832.533 1.454.533.333 0 .644-.048.932-.144.296-.104.577-.27.844-.5l.311.633a2.527 2.527 0 0 1-.933.555c-.37.126-.762.189-1.176.189Zm3.562-.1v-4.285c0-.207-.011-.418-.033-.632-.015-.222-.034-.44-.056-.655h.866l.111 1.22h-.133c.163-.428.422-.754.777-.976.362-.23.781-.344 1.254-.344.659 0 1.155.178 1.488.533.34.347.51.899.51 1.654v3.485h-.899v-3.43c0-.525-.107-.906-.322-1.143-.207-.244-.533-.367-.977-.367-.518 0-.928.16-1.232.478-.303.318-.455.743-.455 1.276v3.186h-.899Zm8.48.1c-.548 0-.966-.156-1.255-.466-.288-.319-.432-.796-.432-1.432v-3.075h-1.088v-.7h1.088v-1.52l.899-.255v1.776h1.598v.7h-1.598v2.974c0 .444.074.762.222.955.155.184.384.277.688.277.14 0 .266-.011.377-.033.111-.03.211-.063.3-.1v.755a1.548 1.548 0 0 1-.377.1c-.141.03-.282.044-.422.044ZM82.578 227.438l3.452-7.826h.799l3.508 7.826h-.955l-.977-2.232.41.233h-4.783l.444-.233-.955 2.232h-.943Zm3.84-6.772-1.798 4.218-.266-.199h4.129l-.2.199-1.843-4.218h-.022Zm7.287 6.871c-.548 0-1.025-.118-1.432-.355-.4-.237-.71-.573-.932-1.01-.215-.437-.322-.955-.322-1.554 0-.607.11-1.121.333-1.543a2.29 2.29 0 0 1 .932-.977c.407-.222.88-.333 1.421-.333.355 0 .7.063 1.032.189.34.126.622.303.844.533l-.322.644a2.197 2.197 0 0 0-.733-.478 2.063 2.063 0 0 0-.766-.155c-.577 0-1.024.181-1.343.544-.318.362-.477.892-.477 1.587 0 .688.16 1.221.477 1.599.319.377.766.566 1.343.566.245 0 .496-.048.755-.145.267-.096.515-.255.744-.477l.322.633a2.26 2.26 0 0 1-.855.544c-.34.126-.68.188-1.021.188Zm5.387 0c-.547 0-1.025-.118-1.431-.355-.4-.237-.71-.573-.933-1.01-.215-.437-.322-.955-.322-1.554 0-.607.111-1.121.333-1.543a2.29 2.29 0 0 1 .933-.977c.407-.222.88-.333 1.42-.333.356 0 .7.063 1.033.189.34.126.621.303.843.533l-.322.644a2.197 2.197 0 0 0-.732-.478 2.063 2.063 0 0 0-.766-.155c-.577 0-1.025.181-1.343.544-.318.362-.478.892-.478 1.587 0 .688.16 1.221.478 1.599.318.377.766.566 1.343.566.244 0 .496-.048.755-.145.266-.096.514-.255.743-.477l.322.633a2.257 2.257 0 0 1-.854.544c-.34.126-.681.188-1.022.188Zm5.332 0c-.533 0-.999-.114-1.398-.344a2.384 2.384 0 0 1-.911-.999c-.214-.436-.321-.951-.321-1.543 0-.599.107-1.113.321-1.543.215-.429.518-.758.911-.987.399-.237.865-.356 1.398-.356.54 0 1.007.119 1.399.356.399.229.707.558.921.987.222.43.333.944.333 1.543 0 .592-.111 1.107-.333 1.543a2.362 2.362 0 0 1-.921.999c-.392.23-.859.344-1.399.344Zm0-.732c.533 0 .955-.182 1.266-.544.31-.37.466-.907.466-1.61 0-.71-.159-1.247-.477-1.609-.311-.37-.729-.555-1.255-.555-.525 0-.943.185-1.254.555-.311.362-.466.899-.466 1.609 0 .703.155 1.24.466 1.61.311.362.729.544 1.254.544Zm4.055.633v-4.285c0-.207-.011-.418-.033-.633-.015-.222-.034-.44-.056-.655h.866l.111 1.221h-.133c.148-.422.381-.747.699-.977.326-.229.718-.344 1.177-.344.466 0 .843.111 1.132.333.296.222.496.566.599 1.033h-.166c.14-.422.388-.755.743-.999.356-.245.77-.367 1.244-.367.614 0 1.076.178 1.387.533.311.348.466.899.466 1.654v3.486h-.899v-3.43c0-.526-.092-.907-.277-1.144-.185-.244-.481-.366-.888-.366-.466 0-.836.163-1.11.488-.267.319-.4.748-.4 1.288v3.164h-.899v-3.43c0-.526-.092-.907-.277-1.144-.185-.244-.481-.366-.888-.366-.467 0-.833.163-1.099.488-.267.319-.4.748-.4 1.288v3.164h-.899Zm9.745 0v-4.285c0-.207-.011-.418-.033-.633-.015-.222-.034-.44-.056-.655h.866l.111 1.221h-.133c.148-.422.381-.747.699-.977.326-.229.718-.344 1.177-.344.466 0 .843.111 1.132.333.296.222.496.566.599 1.033h-.166c.14-.422.388-.755.744-.999a2.133 2.133 0 0 1 1.243-.367c.614 0 1.076.178 1.387.533.311.348.466.899.466 1.654v3.486h-.899v-3.43c0-.526-.092-.907-.277-1.144-.185-.244-.481-.366-.888-.366-.466 0-.836.163-1.11.488-.267.319-.4.748-.4 1.288v3.164h-.899v-3.43c0-.526-.092-.907-.277-1.144-.185-.244-.481-.366-.888-.366-.467 0-.833.163-1.099.488-.267.319-.4.748-.4 1.288v3.164h-.899Zm12.032.099c-.533 0-.999-.114-1.399-.344a2.382 2.382 0 0 1-.91-.999c-.215-.436-.322-.951-.322-1.543 0-.599.107-1.113.322-1.543.214-.429.518-.758.91-.987.4-.237.866-.356 1.399-.356.54 0 1.006.119 1.398.356.4.229.707.558.922.987.222.43.333.944.333 1.543 0 .592-.111 1.107-.333 1.543a2.364 2.364 0 0 1-.922.999c-.392.23-.858.344-1.398.344Zm0-.732c.532 0 .954-.182 1.265-.544.311-.37.466-.907.466-1.61 0-.71-.159-1.247-.477-1.609-.311-.37-.729-.555-1.254-.555-.526 0-.944.185-1.255.555-.31.362-.466.899-.466 1.609 0 .703.156 1.24.466 1.61.311.362.729.544 1.255.544Zm6.163.732c-.488 0-.917-.114-1.287-.344a2.386 2.386 0 0 1-.866-.999c-.2-.429-.3-.943-.3-1.543 0-.606.1-1.124.3-1.554.207-.429.496-.758.866-.988.37-.229.799-.344 1.287-.344.504 0 .936.126 1.299.378.37.251.618.592.744 1.021h-.133v-3.896h.899v8.17h-.888v-1.333h.122a1.823 1.823 0 0 1-.733 1.055c-.37.252-.806.377-1.31.377Zm.189-.732c.525 0 .947-.182 1.265-.544.319-.37.478-.907.478-1.61 0-.71-.159-1.247-.478-1.609-.318-.37-.74-.555-1.265-.555-.525 0-.947.185-1.265.555-.311.362-.467.899-.467 1.609 0 .703.156 1.24.467 1.61.318.362.74.544 1.265.544Zm6.478.732c-.496 0-.929-.114-1.299-.344a2.384 2.384 0 0 1-.865-.999c-.2-.429-.3-.943-.3-1.543 0-.606.1-1.124.3-1.554.207-.429.495-.758.865-.988.37-.229.803-.344 1.299-.344.503 0 .936.13 1.299.389.37.251.614.596.732 1.032h-.133l.122-1.321h.866l-.066.655a9.1 9.1 0 0 0-.023.633v4.285h-.899v-1.31h.122c-.118.436-.362.78-.732 1.032s-.799.377-1.288.377Zm.178-.732c.533 0 .954-.182 1.265-.544.311-.37.466-.907.466-1.61 0-.71-.155-1.247-.466-1.609-.311-.37-.732-.555-1.265-.555-.526 0-.947.185-1.266.555-.31.362-.466.899-.466 1.609 0 .703.156 1.24.466 1.61.319.362.74.544 1.266.544Zm6.333.732c-.547 0-.965-.155-1.254-.466-.288-.318-.433-.795-.433-1.432v-3.074h-1.088v-.7h1.088v-1.52l.899-.256v1.776h1.599v.7h-1.599v2.974c0 .444.074.763.222.955.156.185.385.277.689.277.14 0 .266-.011.377-.033a2.29 2.29 0 0 0 .3-.1v.755a1.52 1.52 0 0 1-.378.1 2.01 2.01 0 0 1-.422.044Zm1.905-.099v-5.573h.899v5.573h-.899Zm-.111-6.838v-1.01h1.11v1.01h-1.11Zm5.043 6.937c-.533 0-.999-.114-1.399-.344a2.388 2.388 0 0 1-.91-.999c-.215-.436-.322-.951-.322-1.543 0-.599.107-1.113.322-1.543a2.31 2.31 0 0 1 .91-.987c.4-.237.866-.356 1.399-.356.54 0 1.006.119 1.398.356.4.229.707.558.922.987.222.43.333.944.333 1.543 0 .592-.111 1.107-.333 1.543a2.364 2.364 0 0 1-.922.999c-.392.23-.858.344-1.398.344Zm0-.732c.533 0 .954-.182 1.265-.544.311-.37.466-.907.466-1.61 0-.71-.159-1.247-.477-1.609-.311-.37-.729-.555-1.254-.555-.526 0-.944.185-1.254.555-.311.362-.467.899-.467 1.609 0 .703.156 1.24.467 1.61.31.362.728.544 1.254.544Zm4.055.633v-4.285c0-.207-.012-.418-.034-.633-.015-.222-.033-.44-.055-.655h.866l.111 1.221h-.134c.163-.429.422-.755.777-.977a2.301 2.301 0 0 1 1.255-.344c.658 0 1.154.178 1.487.533.34.348.511.899.511 1.654v3.486h-.899v-3.43c0-.526-.108-.907-.322-1.144-.208-.244-.533-.366-.977-.366-.518 0-.929.159-1.232.477-.304.318-.455.744-.455 1.277v3.186h-.899Zm8.357.099a4.22 4.22 0 0 1-1.243-.177 2.689 2.689 0 0 1-.955-.522l.311-.633c.274.215.57.374.888.478a3.33 3.33 0 0 0 1.01.155c.444 0 .777-.078.999-.233a.773.773 0 0 0 .344-.666.636.636 0 0 0-.222-.511c-.14-.133-.373-.236-.699-.31l-1.032-.211c-.474-.104-.829-.278-1.066-.522-.237-.252-.355-.57-.355-.955 0-.325.085-.61.255-.854.17-.252.418-.448.744-.589.326-.148.707-.222 1.143-.222.407 0 .781.063 1.121.189.348.118.637.292.866.522l-.322.621a2.132 2.132 0 0 0-.766-.477 2.364 2.364 0 0 0-.877-.166c-.436 0-.765.088-.987.266a.82.82 0 0 0-.322.677c0 .215.066.392.199.533.141.133.356.233.644.3l1.033.21c.503.111.876.285 1.121.522.251.23.377.54.377.933 0 .333-.092.625-.277.876a1.774 1.774 0 0 1-.777.567c-.326.133-.711.199-1.155.199Zm-58.393 13c-.496 0-.929-.114-1.299-.344a2.386 2.386 0 0 1-.866-.999c-.2-.429-.299-.943-.299-1.543 0-.606.099-1.124.299-1.554.207-.429.496-.758.866-.988.37-.229.803-.344 1.299-.344.503 0 .936.13 1.298.389.37.251.615.596.733 1.032h-.133l.122-1.321h.866l-.067.655a9.09 9.09 0 0 0-.022.633v4.285h-.899v-1.31h.122a1.77 1.77 0 0 1-.733 1.032 2.23 2.23 0 0 1-1.287.377Zm.177-.732c.533 0 .955-.182 1.266-.544.311-.37.466-.907.466-1.61 0-.71-.155-1.247-.466-1.609-.311-.37-.733-.555-1.266-.555-.525 0-.947.185-1.265.555-.311.362-.466.899-.466 1.609 0 .703.155 1.24.466 1.61.318.362.74.544 1.265.544Zm6.334.732c-.547 0-.966-.155-1.254-.466-.289-.318-.433-.795-.433-1.432v-3.074h-1.088v-.7h1.088v-1.52l.899-.256v1.776h1.598v.7h-1.598v2.974c0 .444.074.763.222.955.155.185.385.277.688.277.141 0 .267-.011.378-.033.111-.029.211-.063.299-.1v.755a1.5 1.5 0 0 1-.377.1c-.141.03-.281.044-.422.044Zm6.287-.099-2.065-5.573h.955l1.72 4.906h-.288l1.776-4.906h.777l1.742 4.906h-.277l1.731-4.906h.911l-2.076 5.573h-.866l-1.798-4.984h.444l-1.809 4.984h-.877Zm10.37.099c-.532 0-.999-.114-1.398-.344a2.382 2.382 0 0 1-.91-.999c-.215-.436-.322-.951-.322-1.543 0-.599.107-1.113.322-1.543.214-.429.518-.758.91-.987.399-.237.866-.356 1.398-.356.541 0 1.007.119 1.399.356.4.229.707.558.921.987.222.43.333.944.333 1.543 0 .592-.111 1.107-.333 1.543a2.356 2.356 0 0 1-.921.999c-.392.23-.858.344-1.399.344Zm0-.732c.533 0 .955-.182 1.266-.544.311-.37.466-.907.466-1.61 0-.71-.159-1.247-.477-1.609-.311-.37-.729-.555-1.255-.555-.525 0-.943.185-1.254.555-.311.362-.466.899-.466 1.609 0 .703.155 1.24.466 1.61.311.362.729.544 1.254.544Zm4.033.633v-4.23c0-.222-.007-.447-.022-.677a9.337 9.337 0 0 0-.045-.666h.866l.111 1.354-.155.012c.074-.333.203-.607.388-.822.185-.214.404-.374.655-.477.252-.111.514-.167.788-.167.111 0 .207.004.289.011.089.008.17.026.244.056l-.011.799a1.286 1.286 0 0 0-.311-.066 1.882 1.882 0 0 0-.311-.023c-.325 0-.61.078-.854.233a1.573 1.573 0 0 0-.544.6 1.75 1.75 0 0 0-.178.777v3.286h-.91Zm4.055 0v-8.17h.899v5.073h.022l2.586-2.476h1.132l-3.052 2.908.022-.455 3.319 3.12h-1.166l-2.841-2.62h-.022v2.62h-.899ZM25.935 155.537c-1.059 0-1.847-.27-2.365-.81-.51-.54-.766-1.336-.766-2.386v-4.729h.91v4.684c0 .807.178 1.414.533 1.821.356.407.918.61 1.688.61.725 0 1.276-.203 1.654-.61.377-.407.566-1.014.566-1.821v-4.684h.91v4.729c0 1.05-.267 1.846-.8 2.386-.525.54-1.302.81-2.33.81Zm4.922-.099v-4.285c0-.207-.011-.418-.033-.633-.015-.222-.034-.44-.056-.655h.866l.111 1.221h-.133c.163-.429.422-.755.777-.977.362-.229.78-.344 1.254-.344.659 0 1.155.178 1.488.533.34.348.51.899.51 1.654v3.486h-.899v-3.43c0-.526-.107-.907-.322-1.144-.207-.244-.533-.366-.977-.366-.518 0-.928.159-1.232.477-.303.318-.455.744-.455 1.277v3.186h-.899Zm8.98.099c-.874 0-1.562-.251-2.065-.754-.503-.511-.755-1.218-.755-2.121 0-.584.11-1.091.333-1.52a2.41 2.41 0 0 1 .932-1.01 2.58 2.58 0 0 1 1.377-.367c.51 0 .94.108 1.287.322.348.215.614.522.8.922.184.392.277.858.277 1.398v.333h-4.318v-.566h3.73l-.189.144c0-.592-.133-1.054-.4-1.387-.266-.333-.662-.5-1.187-.5-.555 0-.988.196-1.299.589-.31.384-.466.906-.466 1.565v.1c0 .695.17 1.224.51 1.587.348.355.833.533 1.454.533.334 0 .644-.048.933-.145.296-.103.577-.27.844-.499l.31.633a2.544 2.544 0 0 1-.932.555c-.37.126-.762.188-1.177.188Zm2.764-.099 2.497-3.097v.444l-2.364-2.92h1.088l1.787 2.276h-.322l1.776-2.276h1.077l-2.331 2.908v-.41l2.475 3.075h-1.099l-1.91-2.431h.334l-1.932 2.431h-1.076Zm6.695 2.397v-6.682c0-.207-.011-.418-.034-.633-.014-.222-.033-.44-.055-.655h.866l.122 1.321h-.133c.118-.436.358-.781.721-1.032.363-.259.796-.389 1.299-.389.503 0 .936.115 1.298.344.37.23.66.559.866.988.207.43.311.948.311 1.554 0 .6-.104 1.114-.31 1.543-.2.429-.485.762-.855.999-.37.23-.807.344-1.31.344-.496 0-.925-.125-1.288-.377a1.787 1.787 0 0 1-.721-1.032h.122v3.707h-.9Zm2.608-3.03c.533 0 .955-.182 1.266-.544.318-.37.477-.907.477-1.61 0-.71-.16-1.247-.477-1.609-.311-.37-.733-.555-1.266-.555-.525 0-.947.185-1.265.555-.311.362-.466.899-.466 1.609 0 .703.155 1.24.466 1.61.318.362.74.544 1.265.544Zm6.523.732c-.873 0-1.562-.251-2.065-.754-.503-.511-.755-1.218-.755-2.121 0-.584.111-1.091.333-1.52a2.41 2.41 0 0 1 .933-1.01 2.58 2.58 0 0 1 1.376-.367c.51 0 .94.108 1.288.322.348.215.614.522.799.922.185.392.277.858.277 1.398v.333h-4.318v-.566h3.73l-.189.144c0-.592-.133-1.054-.4-1.387-.266-.333-.661-.5-1.187-.5-.555 0-.988.196-1.299.589-.31.384-.466.906-.466 1.565v.1c0 .695.17 1.224.51 1.587.349.355.833.533 1.455.533.333 0 .644-.048.932-.145.296-.103.578-.27.844-.499l.31.633a2.544 2.544 0 0 1-.932.555c-.37.126-.762.188-1.176.188Zm5.904 0c-.547 0-1.025-.118-1.432-.355-.4-.237-.71-.573-.932-1.01-.215-.437-.322-.955-.322-1.554 0-.607.111-1.121.333-1.543a2.29 2.29 0 0 1 .932-.977c.408-.222.881-.333 1.421-.333.355 0 .7.063 1.033.189.34.126.621.303.843.533l-.322.644a2.197 2.197 0 0 0-.732-.478 2.063 2.063 0 0 0-.766-.155c-.577 0-1.025.181-1.343.544-.319.362-.478.892-.478 1.587 0 .688.16 1.221.478 1.599.318.377.766.566 1.343.566.244 0 .496-.048.755-.145.266-.096.514-.255.743-.477l.322.633a2.26 2.26 0 0 1-.854.544c-.34.126-.681.188-1.022.188Zm5.13 0c-.548 0-.966-.155-1.254-.466-.29-.318-.433-.795-.433-1.432v-3.074h-1.088v-.7h1.088v-1.52l.899-.256v1.776h1.598v.7h-1.598v2.974c0 .444.074.763.222.955.155.185.385.277.688.277.14 0 .266-.011.377-.033.111-.029.211-.063.3-.1v.755a1.51 1.51 0 0 1-.377.1c-.141.03-.282.044-.422.044Zm4.326 0c-.874 0-1.562-.251-2.065-.754-.503-.511-.755-1.218-.755-2.121 0-.584.111-1.091.333-1.52a2.41 2.41 0 0 1 .933-1.01 2.58 2.58 0 0 1 1.376-.367c.51 0 .94.108 1.288.322.347.215.614.522.799.922.185.392.277.858.277 1.398v.333h-4.317v-.566h3.73l-.19.144c0-.592-.133-1.054-.4-1.387-.266-.333-.662-.5-1.187-.5-.555 0-.988.196-1.299.589-.31.384-.466.906-.466 1.565v.1c0 .695.17 1.224.51 1.587.349.355.833.533 1.455.533.333 0 .644-.048.932-.145.296-.103.578-.27.844-.499l.31.633a2.544 2.544 0 0 1-.932.555c-.37.126-.762.188-1.176.188Zm5.671 0c-.488 0-.917-.114-1.287-.344a2.387 2.387 0 0 1-.866-.999c-.2-.429-.3-.943-.3-1.543 0-.606.1-1.124.3-1.554.207-.429.496-.758.866-.988.37-.229.799-.344 1.287-.344.503 0 .936.126 1.299.378.37.251.618.592.744 1.021h-.134v-3.896h.9v8.17h-.888v-1.333h.122a1.82 1.82 0 0 1-.733 1.055c-.37.252-.807.377-1.31.377Zm.189-.732c.525 0 .947-.182 1.265-.544.319-.37.478-.907.478-1.61 0-.71-.16-1.247-.478-1.609-.318-.37-.74-.555-1.265-.555-.526 0-.947.185-1.266.555-.31.362-.466.899-.466 1.609 0 .703.156 1.24.466 1.61.319.362.74.544 1.266.544ZM38.99 168.537c-.873 0-1.562-.251-2.065-.754-.503-.511-.755-1.218-.755-2.121 0-.584.111-1.091.333-1.52a2.41 2.41 0 0 1 .933-1.01 2.58 2.58 0 0 1 1.376-.367c.51 0 .94.108 1.288.322.348.215.614.522.799.922.185.392.278.858.278 1.398v.333H36.86v-.566h3.73l-.19.144c0-.592-.133-1.054-.4-1.387-.266-.333-.661-.5-1.187-.5-.555 0-.988.196-1.299.589-.31.384-.466.906-.466 1.565v.1c0 .695.17 1.224.51 1.587.349.355.833.533 1.455.533.333 0 .644-.048.932-.145.296-.103.578-.27.844-.499l.31.633a2.544 2.544 0 0 1-.932.555c-.37.126-.762.188-1.176.188Zm5.14-.099-2.386-5.573h.976l1.998 4.906h-.3l2.02-4.906h.933l-2.386 5.573h-.855Zm6.654.099c-.874 0-1.562-.251-2.065-.754-.503-.511-.755-1.218-.755-2.121 0-.584.111-1.091.333-1.52a2.41 2.41 0 0 1 .933-1.01 2.58 2.58 0 0 1 1.376-.367c.51 0 .94.108 1.288.322.347.215.614.522.799.922.185.392.277.858.277 1.398v.333h-4.318v-.566h3.73l-.189.144c0-.592-.133-1.054-.4-1.387-.266-.333-.662-.5-1.187-.5-.555 0-.988.196-1.299.589-.31.384-.466.906-.466 1.565v.1c0 .695.17 1.224.51 1.587.349.355.833.533 1.455.533.333 0 .644-.048.932-.145.296-.103.577-.27.844-.499l.31.633a2.544 2.544 0 0 1-.932.555c-.37.126-.762.188-1.176.188Zm3.562-.099v-4.285c0-.207-.011-.418-.033-.633-.015-.222-.033-.44-.056-.655h.866l.111 1.221h-.133c.163-.429.422-.755.777-.977.363-.229.78-.344 1.254-.344.659 0 1.155.178 1.488.533.34.348.51.899.51 1.654v3.486h-.899v-3.43c0-.526-.107-.907-.322-1.144-.207-.244-.533-.366-.977-.366-.518 0-.928.159-1.232.477-.303.318-.455.744-.455 1.277v3.186h-.899Zm8.48.099c-.548 0-.966-.155-1.255-.466-.288-.318-.432-.795-.432-1.432v-3.074h-1.088v-.7h1.088v-1.52l.899-.256v1.776h1.598v.7H62.04v2.974c0 .444.074.763.222.955.155.185.384.277.688.277.14 0 .266-.011.377-.033.111-.029.211-.063.3-.1v.755a1.51 1.51 0 0 1-.377.1c-.141.03-.282.044-.422.044Zm3.758 0a4.22 4.22 0 0 1-1.243-.177 2.685 2.685 0 0 1-.954-.522l.31-.633c.274.215.57.374.888.478a3.33 3.33 0 0 0 1.01.155c.444 0 .777-.078 1-.233a.775.775 0 0 0 .343-.666.636.636 0 0 0-.221-.511c-.141-.133-.374-.236-.7-.31l-1.032-.211c-.474-.104-.829-.278-1.066-.522-.237-.252-.355-.57-.355-.955 0-.325.085-.61.255-.854.17-.252.419-.448.744-.589.326-.148.707-.222 1.143-.222.407 0 .781.063 1.122.189.347.118.636.292.865.522l-.322.621a2.135 2.135 0 0 0-.766-.477 2.367 2.367 0 0 0-.876-.166c-.437 0-.766.088-.988.266a.821.821 0 0 0-.322.677c0 .215.066.392.2.533.14.133.355.233.643.3l1.033.21c.503.111.877.285 1.12.522.252.23.378.54.378.933 0 .333-.092.625-.277.876a1.774 1.774 0 0 1-.777.567c-.326.133-.71.199-1.155.199Z"/>
    <path fill="var(--fi-wheel-content-emphasis, #a93031)" d="m230.408 11.438-2.73-7.826h.965l2.387 7.049h-.389l2.509-7.049h.733l2.375 7.049h-.355l2.453-7.049h.91l-2.753 7.825h-.821l-2.309-6.782h.233l-2.408 6.782h-.8Zm10.116 0v-8.17h.899v3.83h-.144c.155-.437.414-.766.777-.989a2.37 2.37 0 0 1 1.276-.344c.666 0 1.162.182 1.488.544.325.356.488.896.488 1.62v3.508h-.899V7.986c0-.518-.104-.895-.311-1.132-.2-.237-.525-.355-.977-.355-.518 0-.932.16-1.243.477-.303.319-.455.737-.455 1.255v3.207h-.899Zm8.979.1c-.873 0-1.561-.252-2.065-.755-.503-.511-.754-1.218-.754-2.12 0-.585.111-1.092.333-1.521.222-.437.532-.774.932-1.01.4-.244.858-.367 1.376-.367.511 0 .94.108 1.288.322.348.215.614.522.799.922.185.392.278.858.278 1.398v.333h-4.318v-.566h3.729l-.188.144c0-.592-.133-1.054-.4-1.387-.266-.333-.662-.5-1.188-.5-.555 0-.987.197-1.298.589-.311.385-.466.906-.466 1.565v.1c0 .695.17 1.224.51 1.587.348.355.833.533 1.454.533.333 0 .644-.048.933-.144.296-.104.577-.27.843-.5l.311.633a2.522 2.522 0 0 1-.932.555c-.37.126-.763.188-1.177.188Zm3.54-.1v-4.23c0-.222-.007-.447-.022-.677a9.315 9.315 0 0 0-.044-.666h.866l.111 1.354-.156.012c.074-.333.204-.607.389-.822a1.72 1.72 0 0 1 .655-.477c.251-.111.514-.167.788-.167.111 0 .207.004.288.012a.84.84 0 0 1 .244.055l-.011.8a1.301 1.301 0 0 0-.31-.067 1.92 1.92 0 0 0-.311-.023c-.326 0-.611.078-.855.234a1.566 1.566 0 0 0-.544.599 1.763 1.763 0 0 0-.177.777v3.286h-.911Zm6.465.1c-.873 0-1.561-.252-2.064-.755-.504-.511-.755-1.218-.755-2.12 0-.585.111-1.092.333-1.521a2.42 2.42 0 0 1 .932-1.01 2.59 2.59 0 0 1 1.377-.367c.51 0 .939.108 1.287.322.348.215.614.522.799.922.185.392.278.858.278 1.398v.333h-4.318v-.566h3.73l-.189.144c0-.592-.133-1.054-.4-1.387-.266-.333-.662-.5-1.187-.5-.555 0-.988.197-1.299.589-.311.385-.466.906-.466 1.565v.1c0 .695.17 1.224.51 1.587.348.355.833.533 1.454.533.333 0 .644-.048.933-.144.296-.104.577-.27.843-.5l.311.633a2.522 2.522 0 0 1-.932.555 3.63 3.63 0 0 1-1.177.188Zm6.235 2.42-.211-.745a4.23 4.23 0 0 0 .866-.288c.237-.104.433-.244.588-.422.156-.178.289-.4.4-.666l.288-.655-.022.378-2.431-5.695h.977l2.009 4.895h-.288l1.986-4.895h.944l-2.575 6.039a4.106 4.106 0 0 1-.489.888c-.177.244-.37.44-.577.588-.2.155-.422.277-.666.366a4.82 4.82 0 0 1-.799.211Zm8.33-2.42c-.533 0-.999-.115-1.399-.345a2.38 2.38 0 0 1-.91-.999c-.215-.436-.322-.95-.322-1.543 0-.599.107-1.113.322-1.542.214-.43.518-.759.91-.988.4-.237.866-.356 1.399-.356.54 0 1.006.119 1.398.356.4.229.707.558.921.987.222.43.333.944.333 1.543 0 .592-.111 1.107-.333 1.543-.214.43-.521.762-.921 1-.392.229-.858.343-1.398.343Zm0-.733c.532 0 .954-.181 1.265-.544.311-.37.466-.907.466-1.61 0-.71-.159-1.247-.477-1.61-.311-.37-.729-.554-1.254-.554-.526 0-.944.185-1.255.555-.311.362-.466.899-.466 1.61 0 .702.155 1.239.466 1.609.311.363.729.544 1.255.544Zm6.019.732c-.659 0-1.158-.18-1.499-.544-.333-.362-.499-.917-.499-1.665V5.865h.899v3.441c0 .51.104.888.311 1.133.207.236.529.355.966.355.488 0 .88-.16 1.176-.478.296-.318.444-.743.444-1.276V5.865h.899v5.572h-.877v-1.254h.145c-.156.43-.407.762-.755 1-.341.236-.744.354-1.21.354Zm7.336-.1v-8.17h.899v8.17h-.899Zm2.645 0V5.865h.899v5.572h-.899Zm-.111-6.837V3.59h1.11V4.6h-1.11Zm4.399 6.838-2.387-5.573h.977l1.998 4.906h-.3l2.02-4.906h.933l-2.387 5.572h-.854Zm6.653.1c-.873 0-1.561-.252-2.065-.755-.503-.511-.754-1.218-.754-2.12 0-.585.111-1.092.333-1.521.222-.437.532-.774.932-1.01.4-.244.858-.367 1.376-.367.511 0 .94.108 1.288.322.348.215.614.522.799.922.185.392.278.858.278 1.398v.333h-4.318v-.566h3.729l-.188.144c0-.592-.133-1.054-.4-1.387-.266-.333-.662-.5-1.188-.5-.555 0-.987.197-1.298.589-.311.385-.466.906-.466 1.565v.1c0 .695.17 1.224.51 1.587.348.355.833.533 1.454.533.333 0 .644-.048.933-.144.296-.104.577-.27.843-.5l.311.633a2.522 2.522 0 0 1-.932.555c-.37.126-.763.188-1.177.188Z"/>
    <path fill="var(--fi-wheel-content, #161616)" d="M47.788 11.438V3.612h.922v7.825h-.922Zm2.773 0V7.152c0-.207-.011-.418-.033-.633-.015-.222-.034-.44-.056-.655h.866l.11 1.221h-.132c.148-.421.38-.747.699-.977.326-.229.718-.344 1.177-.344.466 0 .843.111 1.132.333.296.222.496.567.6 1.033h-.167a1.91 1.91 0 0 1 .743-1 2.14 2.14 0 0 1 1.244-.366c.614 0 1.076.178 1.387.533.31.348.466.9.466 1.654v3.486h-.899v-3.43c0-.526-.092-.907-.277-1.144-.185-.244-.481-.366-.888-.366-.467 0-.837.163-1.11.488-.267.319-.4.748-.4 1.288v3.164h-.899v-3.43c0-.526-.093-.907-.278-1.144-.184-.244-.48-.366-.887-.366-.467 0-.833.163-1.1.488-.266.319-.399.748-.399 1.288v3.164h-.9Zm9.745 0V7.152c0-.207-.011-.418-.033-.633-.015-.222-.034-.44-.056-.655h.866l.111 1.221h-.133c.148-.421.38-.747.7-.977.325-.229.717-.344 1.176-.344.466 0 .843.111 1.132.333.296.222.496.567.6 1.033h-.167a1.91 1.91 0 0 1 .744-1 2.14 2.14 0 0 1 1.243-.366c.614 0 1.076.178 1.387.533.311.348.466.9.466 1.654v3.486h-.899v-3.43c0-.526-.092-.907-.277-1.144-.185-.244-.481-.366-.888-.366-.466 0-.836.163-1.11.488-.267.319-.4.748-.4 1.288v3.164h-.899v-3.43c0-.526-.092-.907-.277-1.144-.185-.244-.481-.366-.888-.366-.467 0-.833.163-1.1.488-.266.319-.399.748-.399 1.288v3.164h-.899Zm9.745 0V5.864h.9v5.572h-.9ZM69.94 4.6V3.59h1.11V4.6h-1.11Zm5.209 9.313c-.481 0-.925-.06-1.332-.178a3.394 3.394 0 0 1-1.099-.544l.266-.677c.23.163.456.293.678.389.222.096.451.166.688.21.237.052.488.078.755.078.547 0 .962-.144 1.243-.433.281-.288.422-.699.422-1.232V9.895h.11a1.817 1.817 0 0 1-.732 1.043c-.37.252-.803.377-1.299.377-.51 0-.954-.11-1.332-.333a2.337 2.337 0 0 1-.865-.965c-.2-.422-.3-.918-.3-1.488 0-.562.1-1.05.3-1.465.207-.414.495-.732.865-.955.378-.229.822-.344 1.332-.344.504 0 .936.126 1.299.378.37.251.614.6.733 1.043l-.111-.11.1-1.21h.876a9.338 9.338 0 0 0-.088 1.287v4.251c0 .829-.215 1.454-.644 1.876-.422.422-1.044.633-1.865.633Zm-.133-3.33c.54 0 .965-.178 1.276-.533.311-.363.466-.87.466-1.52 0-.652-.155-1.155-.466-1.51-.31-.355-.736-.533-1.276-.533-.533 0-.959.178-1.277.533-.318.355-.477.858-.477 1.51 0 .65.16 1.157.477 1.52.319.355.744.533 1.277.533Zm4.346.854V7.208c0-.222-.007-.447-.022-.677a9.429 9.429 0 0 0-.045-.666h.866l.111 1.354-.155.012c.074-.333.203-.607.388-.822.185-.214.404-.373.655-.477.252-.111.514-.167.788-.167.111 0 .207.004.289.012.089.007.17.025.244.055l-.011.8a1.305 1.305 0 0 0-.31-.067 1.912 1.912 0 0 0-.312-.023c-.325 0-.61.078-.854.234a1.566 1.566 0 0 0-.544.599 1.758 1.758 0 0 0-.178.777v3.286h-.91Zm6.12.1c-.495 0-.928-.114-1.298-.344a2.385 2.385 0 0 1-.866-.999c-.2-.429-.3-.943-.3-1.543 0-.606.1-1.124.3-1.554a2.31 2.31 0 0 1 .866-.988c.37-.229.803-.344 1.298-.344.504 0 .936.13 1.3.389.37.252.613.596.732 1.032h-.133l.122-1.32h.865l-.066.654a9.196 9.196 0 0 0-.022.633v4.285h-.9v-1.31h.123a1.77 1.77 0 0 1-.733 1.032c-.37.252-.8.377-1.288.377Zm.178-.732c.533 0 .955-.181 1.265-.544.311-.37.467-.907.467-1.61 0-.71-.156-1.247-.467-1.61-.31-.37-.732-.554-1.265-.554-.525 0-.947.185-1.265.555-.311.362-.467.899-.467 1.61 0 .702.156 1.239.467 1.609.318.363.74.544 1.265.544Zm6.334.732c-.548 0-.966-.155-1.254-.466-.29-.318-.433-.795-.433-1.432V6.565h-1.088v-.7h1.088v-1.52l.899-.256v1.776h1.598v.7h-1.598v2.974c0 .444.074.763.222.955.155.185.385.277.688.277.14 0 .266-.01.377-.033.111-.03.211-.063.3-.1v.755c-.104.044-.23.078-.377.1-.141.03-.282.044-.422.044Zm1.905-.1V5.865h.899v5.572h-.9ZM93.788 4.6V3.59h1.11V4.6h-1.11Zm5.042 6.937c-.533 0-.999-.114-1.398-.344a2.382 2.382 0 0 1-.91-.999c-.215-.436-.323-.95-.323-1.543 0-.599.108-1.113.322-1.542a2.31 2.31 0 0 1 .91-.988c.4-.237.866-.356 1.4-.356.54 0 1.006.119 1.398.356.399.229.706.558.921.987.222.43.333.944.333 1.543 0 .592-.111 1.107-.333 1.543-.215.43-.522.762-.921 1-.392.229-.859.343-1.399.343Zm0-.732c.533 0 .955-.181 1.266-.544.31-.37.466-.907.466-1.61 0-.71-.159-1.247-.478-1.61-.31-.37-.728-.554-1.254-.554-.525 0-.943.185-1.254.555-.31.362-.466.899-.466 1.61 0 .702.155 1.239.466 1.609.31.363.729.544 1.254.544Zm4.055.633V7.152c0-.207-.011-.418-.033-.633-.015-.222-.034-.44-.056-.655h.866l.111 1.221h-.133a1.9 1.9 0 0 1 .777-.977c.362-.229.78-.344 1.254-.344.659 0 1.154.178 1.487.533.341.348.511.9.511 1.654v3.486h-.899v-3.43c0-.526-.107-.907-.322-1.144-.207-.244-.533-.366-.977-.366-.518 0-.929.16-1.232.477-.303.319-.455.744-.455 1.277v3.185h-.899Zm11.252.1c-.444 0-.859-.06-1.244-.178a2.68 2.68 0 0 1-.954-.522l.311-.633c.273.215.569.374.888.478.325.103.662.155 1.01.155.444 0 .777-.078.999-.233a.775.775 0 0 0 .344-.666.635.635 0 0 0-.222-.51c-.141-.134-.374-.237-.699-.311l-1.033-.211c-.473-.104-.829-.278-1.065-.522-.237-.252-.356-.57-.356-.955 0-.325.086-.61.256-.854.17-.252.418-.448.743-.589.326-.148.707-.222 1.144-.222.407 0 .78.063 1.121.19.348.117.636.291.866.52l-.322.622a2.127 2.127 0 0 0-.766-.477 2.369 2.369 0 0 0-.877-.166c-.437 0-.766.088-.988.266a.82.82 0 0 0-.322.677c0 .215.067.392.2.533.141.133.355.233.644.3l1.032.21c.503.112.877.285 1.121.522.252.23.378.54.378.933 0 .333-.093.625-.278.877a1.772 1.772 0 0 1-.777.566c-.326.133-.71.2-1.154.2Zm5.574 0c-.547 0-.965-.156-1.254-.467-.289-.318-.433-.795-.433-1.432V6.565h-1.088v-.7h1.088v-1.52l.899-.256v1.776h1.599v.7h-1.599v2.974c0 .444.074.763.222.955.156.185.385.277.688.277.141 0 .267-.01.378-.033.111-.03.211-.063.299-.1v.755a1.535 1.535 0 0 1-.377.1c-.141.03-.281.044-.422.044Zm4.025 0c-.496 0-.928-.115-1.298-.345a2.384 2.384 0 0 1-.866-.999c-.2-.429-.3-.943-.3-1.543 0-.606.1-1.124.3-1.554.207-.429.496-.758.866-.988.37-.229.802-.344 1.298-.344.503 0 .936.13 1.299.389.37.252.614.596.733 1.032h-.134l.122-1.32h.866l-.066.654a9.078 9.078 0 0 0-.023.633v4.285h-.899v-1.31h.122c-.118.436-.362.78-.732 1.032s-.799.377-1.288.377Zm.178-.733c.533 0 .954-.181 1.265-.544.311-.37.466-.907.466-1.61 0-.71-.155-1.247-.466-1.61-.311-.37-.732-.554-1.265-.554-.526 0-.947.185-1.266.555-.31.362-.466.899-.466 1.61 0 .702.156 1.239.466 1.609.319.363.74.544 1.266.544Zm6.334.732c-.548 0-.966-.155-1.255-.466-.288-.318-.433-.795-.433-1.432V6.565h-1.087v-.7h1.087v-1.52l.899-.256v1.776h1.599v.7h-1.599v2.974c0 .444.074.763.222.955.156.185.385.277.689.277.14 0 .266-.01.377-.033.111-.03.211-.063.3-.1v.755c-.104.044-.23.078-.378.1-.14.03-.281.044-.421.044Zm3.869 0c-.658 0-1.158-.18-1.498-.544-.333-.362-.5-.917-.5-1.665V5.865h.899v3.441c0 .51.104.888.311 1.133.207.236.529.355.966.355.488 0 .88-.16 1.176-.478.296-.318.444-.743.444-1.276V5.865h.899v5.572h-.876v-1.254h.144c-.156.43-.407.762-.755 1-.34.236-.744.354-1.21.354Zm6.295 0c-.444 0-.858-.059-1.243-.177a2.672 2.672 0 0 1-.954-.522l.31-.633c.274.215.57.374.888.478.326.103.663.155 1.011.155.444 0 .777-.078.999-.233a.775.775 0 0 0 .344-.666.635.635 0 0 0-.222-.51c-.141-.134-.374-.237-.7-.311l-1.032-.211c-.474-.104-.829-.278-1.066-.522-.236-.252-.355-.57-.355-.955 0-.325.085-.61.256-.854.17-.252.418-.448.743-.589.326-.148.707-.222 1.144-.222.407 0 .78.063 1.121.19.347.117.636.291.865.52l-.321.622a2.127 2.127 0 0 0-.766-.477 2.372 2.372 0 0 0-.877-.166c-.437 0-.766.088-.988.266a.82.82 0 0 0-.322.677c0 .215.067.392.2.533.14.133.355.233.644.3l1.032.21c.503.112.877.285 1.121.522.252.23.377.54.377.933 0 .333-.092.625-.277.877a1.772 1.772 0 0 1-.777.566c-.326.133-.711.2-1.155.2Z"/>
    <path fill="var(--fi-wheel-content-emphasis, #a93031)" d="M31.275 77.817V69.99h.922v7.027h3.951v.799h-4.873Zm8.07.1c-.497 0-.93-.115-1.3-.344a2.385 2.385 0 0 1-.865-1c-.2-.428-.3-.943-.3-1.542 0-.607.1-1.125.3-1.554a2.31 2.31 0 0 1 .865-.988c.37-.23.803-.344 1.3-.344.502 0 .935.13 1.298.388.37.252.614.596.733 1.033h-.134l.122-1.321h.866l-.066.655a9.196 9.196 0 0 0-.023.632v4.285h-.899v-1.31h.122a1.77 1.77 0 0 1-.732 1.032c-.37.252-.8.378-1.288.378Zm.177-.733c.533 0 .954-.181 1.265-.544.311-.37.466-.906.466-1.61 0-.71-.155-1.246-.466-1.609-.31-.37-.732-.555-1.265-.555-.526 0-.947.185-1.266.555-.31.363-.466.9-.466 1.61 0 .703.156 1.24.466 1.61.319.362.74.543 1.266.543Zm4.358.633v-4.285c0-.207-.011-.418-.034-.632-.014-.222-.033-.44-.055-.655h.866l.11 1.22h-.132c.162-.428.421-.754.777-.976.362-.23.78-.344 1.254-.344.659 0 1.154.177 1.487.533.34.347.51.899.51 1.654v3.485h-.898v-3.43c0-.525-.108-.906-.322-1.143-.207-.245-.533-.367-.977-.367-.518 0-.929.16-1.232.478-.303.318-.455.743-.455 1.276v3.186h-.9Zm8.957 2.475c-.481 0-.925-.059-1.332-.177a3.394 3.394 0 0 1-1.1-.544l.267-.677c.23.162.455.292.677.388.222.096.452.167.689.211.236.052.488.078.754.078.548 0 .962-.145 1.244-.433.28-.289.421-.7.421-1.232v-1.632h.111a1.817 1.817 0 0 1-.732 1.043c-.37.252-.803.378-1.299.378-.51 0-.954-.111-1.332-.333a2.337 2.337 0 0 1-.866-.966c-.2-.422-.3-.918-.3-1.487 0-.563.1-1.051.3-1.466.208-.414.496-.732.866-.954.378-.23.822-.344 1.332-.344.503 0 .936.126 1.299.377.37.252.614.6.732 1.044l-.11-.111.1-1.21h.876a9.338 9.338 0 0 0-.089 1.287v4.252c0 .828-.214 1.454-.643 1.875-.422.422-1.044.633-1.865.633Zm-.133-3.33c.54 0 .965-.177 1.276-.533.31-.362.466-.87.466-1.52 0-.652-.155-1.155-.466-1.51-.31-.355-.736-.533-1.276-.533-.533 0-.959.178-1.277.533-.318.355-.477.858-.477 1.51 0 .65.159 1.158.477 1.52.318.356.744.533 1.277.533Zm6.333.955c-.659 0-1.158-.181-1.499-.544-.333-.363-.5-.918-.5-1.665v-3.463h.9v3.44c0 .511.103.889.31 1.133.208.237.53.355.966.355.489 0 .88-.159 1.177-.477.296-.318.444-.744.444-1.277v-3.174h.899v5.572h-.877v-1.254h.144c-.155.429-.407.762-.755.999-.34.236-.743.355-1.21.355Zm6.561 0c-.495 0-.928-.115-1.298-.344a2.385 2.385 0 0 1-.866-1c-.2-.428-.3-.943-.3-1.542 0-.607.1-1.125.3-1.554a2.31 2.31 0 0 1 .866-.988c.37-.23.803-.344 1.298-.344.504 0 .936.13 1.299.388.37.252.614.596.733 1.033h-.134l.123-1.321h.865l-.066.655a9.196 9.196 0 0 0-.023.632v4.285h-.899v-1.31h.123a1.77 1.77 0 0 1-.733 1.032c-.37.252-.8.378-1.288.378Zm.178-.733c.533 0 .955-.181 1.265-.544.311-.37.466-.906.466-1.61 0-.71-.155-1.246-.466-1.609-.31-.37-.732-.555-1.265-.555-.525 0-.947.185-1.266.555-.31.363-.466.9-.466 1.61 0 .703.156 1.24.466 1.61.319.362.74.543 1.266.543Zm6.811 3.108c-.481 0-.925-.059-1.332-.177a3.394 3.394 0 0 1-1.099-.544l.266-.677c.23.162.456.292.678.388.222.096.451.167.688.211.237.052.488.078.755.078.547 0 .962-.145 1.243-.433.281-.289.422-.7.422-1.232v-1.632h.11a1.817 1.817 0 0 1-.732 1.043c-.37.252-.803.378-1.299.378-.51 0-.954-.111-1.332-.333a2.337 2.337 0 0 1-.865-.966c-.2-.422-.3-.918-.3-1.487 0-.563.1-1.051.3-1.466.207-.414.495-.732.865-.954.378-.23.822-.344 1.332-.344.503 0 .936.126 1.299.377.37.252.614.6.733 1.044l-.111-.111.1-1.21h.876a9.338 9.338 0 0 0-.088 1.287v4.252c0 .828-.215 1.454-.644 1.875-.422.422-1.044.633-1.865.633Zm-.133-3.33c.54 0 .966-.177 1.276-.533.311-.362.466-.87.466-1.52 0-.652-.155-1.155-.466-1.51-.31-.355-.736-.533-1.276-.533-.533 0-.958.178-1.277.533-.318.355-.477.858-.477 1.51 0 .65.16 1.158.477 1.52.319.356.744.533 1.277.533Zm6.843.955c-.873 0-1.561-.252-2.064-.755-.503-.51-.755-1.217-.755-2.12 0-.585.111-1.092.333-1.52.222-.437.533-.774.932-1.01.4-.245.859-.367 1.377-.367.51 0 .94.107 1.287.322.348.214.615.521.8.921.185.392.277.858.277 1.399v.333h-4.318v-.567h3.73l-.189.145c0-.592-.133-1.055-.4-1.388-.266-.333-.662-.5-1.187-.5-.555 0-.988.197-1.299.59-.31.384-.466.906-.466 1.564v.1c0 .696.17 1.225.51 1.587.348.356.833.533 1.455.533.333 0 .643-.048.932-.144.296-.104.577-.27.844-.5l.31.633a2.522 2.522 0 0 1-.932.555 3.63 3.63 0 0 1-1.177.189Z"/>
    <path fill="var(--fi-wheel-label-background, #F6F5F2)" d="M168.413 21.847h27.464v12.978h-27.464z"/>
    <path fill="var(--fi-wheel-content-emphasis, #a93031)" d="M175.061 31.336v-4.681h.604l1.806 4.07h-.199l1.806-4.07h.598v4.68h-.624v-3.744h.219l-1.687 3.745h-.431l-1.687-3.745h.226v3.745h-.631Zm7.106.06a1.73 1.73 0 0 1-.863-.206 1.446 1.446 0 0 1-.564-.598 2.025 2.025 0 0 1-.199-.93c0-.358.066-.665.199-.922.133-.261.321-.46.564-.598.244-.141.531-.212.863-.212.332 0 .62.07.864.212.247.137.438.337.571.598.137.257.205.564.205.923 0 .358-.068.668-.205.93a1.437 1.437 0 0 1-.571.597 1.734 1.734 0 0 1-.864.206Zm0-.525c.293 0 .525-.102.698-.305.172-.204.258-.505.258-.903 0-.399-.086-.698-.258-.897-.173-.203-.405-.305-.698-.305a.859.859 0 0 0-.69.305c-.173.2-.259.498-.259.897 0 .398.084.7.252.903.173.203.405.305.697.305Zm3.573.525c-.279 0-.536-.036-.77-.107-.235-.07-.43-.17-.585-.298l.206-.459c.164.125.346.217.545.28.199.061.403.092.611.092.243 0 .427-.042.551-.126a.418.418 0 0 0 .186-.358.355.355 0 0 0-.12-.28c-.075-.07-.201-.123-.378-.159l-.638-.126c-.283-.062-.498-.168-.644-.318a.795.795 0 0 1-.219-.578c0-.2.053-.376.159-.531.111-.155.266-.277.465-.366.204-.088.441-.132.711-.132.247 0 .478.035.69.106.213.07.39.173.531.305l-.212.445a1.506 1.506 0 0 0-.465-.265 1.45 1.45 0 0 0-.524-.1c-.248 0-.432.047-.552.14a.442.442 0 0 0-.179.365c0 .115.036.21.106.285.076.071.193.126.352.166l.638.126c.301.062.526.164.677.306.15.141.226.332.226.57 0 .209-.058.39-.173.545a1.056 1.056 0 0 1-.478.352c-.204.08-.443.12-.717.12Zm3.427 0c-.363 0-.637-.098-.823-.293-.186-.199-.279-.495-.279-.89v-1.706h-.651v-.518h.651v-.883l.671-.179v1.063h.929v.517h-.929v1.647c0 .248.044.425.132.531.089.107.217.16.385.16.085 0 .158-.007.22-.02.066-.018.126-.038.179-.06v.544a1.051 1.051 0 0 1-.233.06 1.279 1.279 0 0 1-.252.027Z"/>
    <path fill="var(--fi-wheel-label-background, #F6F5F2)" d="M168.413 106.353h27.464v12.978h-27.464z"/>
    <path fill="var(--fi-wheel-content-emphasis, #a93031)" d="M174.202 115.842v-4.681h.69v4.09h2.298v.591h-2.988Zm5.118.06c-.54 0-.965-.153-1.275-.459-.309-.305-.464-.728-.464-1.268 0-.349.066-.655.199-.916.137-.261.325-.463.564-.604a1.61 1.61 0 0 1 .843-.219c.315 0 .578.066.791.199.212.133.374.321.484.564.111.239.166.523.166.85v.213h-2.523v-.386h2.065l-.113.087c0-.332-.075-.589-.225-.77-.147-.186-.359-.279-.638-.279-.31 0-.549.108-.717.325-.168.212-.252.507-.252.883v.067c0 .393.095.69.285.889.195.199.469.299.824.299.194 0 .376-.027.544-.08a1.5 1.5 0 0 0 .491-.279l.219.459a1.622 1.622 0 0 1-.564.318 2.29 2.29 0 0 1-.704.107Zm3.359 0a1.45 1.45 0 0 1-.777-.206 1.37 1.37 0 0 1-.517-.598 2.209 2.209 0 0 1-.18-.929c0-.363.06-.673.18-.93a1.373 1.373 0 0 1 1.294-.803c.292 0 .547.073.764.219.217.146.361.345.431.597h-.073l.067-.757h.65l-.039.412a5.795 5.795 0 0 0-.014.392v2.543h-.67v-.744h.073a1.03 1.03 0 0 1-.438.591 1.34 1.34 0 0 1-.751.213Zm.166-.525a.862.862 0 0 0 .691-.305c.177-.204.265-.505.265-.903 0-.399-.088-.698-.265-.897a.862.862 0 0 0-.691-.305.89.89 0 0 0-.704.305c-.172.199-.258.498-.258.897 0 .398.086.699.258.903.173.203.408.305.704.305Zm3.748.525c-.279 0-.536-.036-.771-.107a1.665 1.665 0 0 1-.584-.298l.206-.459c.164.124.345.217.544.279.2.062.403.093.611.093.244 0 .427-.042.551-.126a.417.417 0 0 0 .186-.358.355.355 0 0 0-.119-.279c-.076-.071-.202-.124-.379-.16l-.637-.126c-.283-.062-.498-.168-.644-.319a.794.794 0 0 1-.219-.577c0-.199.053-.376.159-.531.111-.155.266-.277.465-.366.203-.088.44-.132.71-.132.248 0 .478.035.691.106.212.071.389.172.531.305l-.212.445a1.53 1.53 0 0 0-.465-.265 1.443 1.443 0 0 0-.525-.1c-.248 0-.431.046-.551.139a.443.443 0 0 0-.179.366c0 .115.035.21.106.285a.791.791 0 0 0 .352.166l.637.126c.301.062.527.164.678.306.15.141.225.332.225.571a.887.887 0 0 1-.172.544 1.063 1.063 0 0 1-.478.352c-.204.08-.443.12-.717.12Zm3.427 0c-.363 0-.638-.098-.824-.293-.185-.199-.278-.495-.278-.889v-1.707h-.651v-.518h.651v-.883l.67-.179v1.062h.93v.518h-.93v1.647c0 .248.044.425.133.531.089.106.217.159.385.159.084 0 .157-.006.219-.019a1.44 1.44 0 0 0 .179-.06v.544a.991.991 0 0 1-.232.06 1.266 1.266 0 0 1-.252.027Z"/>
    <path stroke="var(--fi-wheel-dashed-line, #161616)" stroke-dasharray="4 4" stroke-width=".5" d="m211.274 32.576-44.203 56.437h-48.149l27.626 35.915 16.182 16.576 48.544 54.069 22.496-54.069-28.416-36.309 5.92-72.619Z"/>
  </svg>