<svg xmlns="http://www.w3.org/2000/svg" width="338" height="253" fill="none" viewBox="0 0 338 253"><circle cx="162.365" cy="112.476" r="99.305" fill="var(--fl-bgColor, #e8b91c)" stroke="var(--fl-fgColor, #4a4021)" stroke-dasharray="0.5 0.5" stroke-width=".5"/><circle cx="162.494" cy="112.604" r="75.51" fill="var(--fl-bgColor, #f6d872)" stroke="var(--fl-fgColor, #4a4021)" stroke-dasharray="0.5 0.5" stroke-width=".5"/><circle cx="162.494" cy="112.605" r="47.212" fill="var(--fl-bgColor, #f9eec6)" stroke="var(--fl-fgColor, #4a4021)" stroke-dasharray="0.5 0.5" stroke-width=".5"/><path fill="var(--fl-fgColor, #a93031)" d="M162.872 1.938a.3.3 0 0 0-.427 0l-1.92 1.921a.302.302 0 0 0 .426.427l1.708-1.707 1.707 1.707a.302.302 0 0 0 .427-.427zm-.427 99.118a.3.3 0 0 0 .427 0l1.921-1.92a.302.302 0 1 0-.427-.427l-1.707 1.707-1.708-1.707a.302.302 0 0 0-.426.427zm.214-98.904h-.302v98.691h.604l-.001-98.691z"/><path stroke="var(--fl-fgColor, #4a4021)" stroke-dasharray="0.6 0.6" stroke-width=".5" d="M261.953 112.578H63.063M162.409 211.922V13.031M91.958 182.577 232.416 42.119M92.569 42.374l139.944 139.944"/><path stroke="var(--fl-fgColor, #000)" stroke-dasharray="4 4" stroke-width=".5" d="m173.066 91.5-21.679-19.356-67.746 6.581v72.004l67.746-5.806 38.325 29.808 5.807-43.358L220.682 91.5z"/><path fill="var(--fl-fgColor, #222)" d="M265.047 154.966v-7.826h3.319q1.254 0 1.92.611.678.599.678 1.665 0 1.065-.678 1.676-.666.61-1.92.61h-2.164v3.264zm1.155-4.185h2.042q.788 0 1.188-.355.399-.356.399-1.01 0-.644-.399-.999-.4-.355-1.188-.355h-2.042zm8.189 4.285q-.833 0-1.443-.344a2.4 2.4 0 0 1-.944-.999q-.333-.656-.333-1.554 0-.9.333-1.543.333-.655.944-.999.61-.355 1.443-.355t1.443.355q.621.344.954.999.345.643.345 1.543 0 .898-.345 1.554-.333.644-.954.999-.61.344-1.443.344m0-.877q.733 0 1.165-.511.433-.51.433-1.509 0-1-.433-1.499-.433-.51-1.165-.51-.722 0-1.155.51-.432.5-.432 1.499t.421 1.509q.433.511 1.166.511m4.052.777v-8.17h1.121v8.17zm2.764 0v-5.595h1.121v5.595zm-.089-6.76v-1.166h1.299v1.166zm5.029 6.86q-.91 0-1.376-.489-.467-.499-.467-1.487v-2.853h-1.087v-.866h1.087v-1.476l1.121-.3v1.776h1.554v.866h-1.554v2.753q0 .621.222.888.222.266.644.266.211 0 .367-.033.166-.044.299-.1v.91a1.7 1.7 0 0 1-.388.1q-.222.045-.422.045m1.857-.1v-5.595h1.121v5.595zm-.089-6.76v-1.166h1.299v1.166zm6.86 9.157v-3.64h.122a1.72 1.72 0 0 1-.733.988q-.543.354-1.254.355-.744 0-1.299-.344a2.3 2.3 0 0 1-.865-.999q-.3-.656-.3-1.554 0-.91.3-1.554a2.3 2.3 0 0 1 .865-.988q.555-.355 1.299-.355.733 0 1.277.366t.721.999h-.122l.111-1.266h1.088l-.067.689q-.022.333-.022.655v6.648zm-1.587-3.174q.721 0 1.154-.511.444-.51.444-1.509 0-1-.444-1.499-.433-.51-1.154-.51-.733 0-1.177.51-.433.5-.433 1.499t.433 1.509q.433.511 1.177.511m6.331.877q-1.01 0-1.521-.544-.5-.555-.499-1.698v-3.453h1.121v3.43q0 .7.288 1.033.29.333.877.333.666 0 1.077-.444.411-.445.411-1.177v-3.175h1.121v5.595h-1.088v-1.199h.144a1.96 1.96 0 0 1-.743.966 2.13 2.13 0 0 1-1.188.333m7.103 0q-1.354 0-2.131-.766t-.777-2.12q0-.877.333-1.532a2.5 2.5 0 0 1 .943-1.01q.61-.366 1.41-.366.789 0 1.321.333.533.333.81.943.278.6.278 1.421v.355h-4.218v-.644h3.452l-.189.145q0-.833-.377-1.288-.367-.466-1.066-.466-.776 0-1.199.544-.421.532-.421 1.476v.111q0 .988.477 1.487.488.5 1.376.5.489 0 .911-.133.432-.145.821-.467l.366.766q-.388.345-.943.533a3.8 3.8 0 0 1-1.177.178m5.394 0q-.7 0-1.288-.178a2.8 2.8 0 0 1-.977-.499l.344-.766q.411.31.911.466t1.021.155q.61 0 .921-.211a.7.7 0 0 0 .311-.599.6.6 0 0 0-.2-.466q-.189-.178-.633-.267l-1.065-.21q-.711-.156-1.077-.533-.366-.378-.366-.966 0-.5.266-.888.277-.388.777-.61a3 3 0 0 1 1.188-.222q.621 0 1.154.177.533.178.888.511l-.355.743a2.5 2.5 0 0 0-.777-.444 2.4 2.4 0 0 0-.877-.166q-.621 0-.921.233t-.3.611q0 .288.178.477.189.178.588.277l1.066.211q.754.156 1.132.511.377.356.377.954 0 .522-.288.911a1.77 1.77 0 0 1-.8.588q-.51.2-1.198.2m-35.463 13q-.733 0-1.299-.344a2.3 2.3 0 0 1-.866-.999q-.299-.656-.299-1.554 0-.91.299-1.554.312-.645.866-.988.566-.355 1.299-.355.722 0 1.265.366.555.355.733.977h-.133v-3.819h1.121v8.17h-1.11V166.7h.133q-.189.633-.733.999-.544.367-1.276.367m.277-.877q.722 0 1.166-.511.444-.51.444-1.509 0-1-.444-1.499-.444-.51-1.166-.51-.732 0-1.176.51-.433.5-.433 1.499t.433 1.509q.444.511 1.176.511m4.755-4.374-.488-.377q.322-.333.433-.622a1.6 1.6 0 0 0 .122-.599l.3.233h-.933v-1.31h1.321v.899q0 .5-.166.933-.166.422-.589.843m4.366 5.251q-.744 0-1.299-.344a2.3 2.3 0 0 1-.865-.999q-.3-.656-.3-1.554 0-.91.3-1.554a2.3 2.3 0 0 1 .865-.988q.555-.355 1.299-.355.732 0 1.277.366t.721.999h-.122l.111-1.266h1.088l-.067.689q-.022.333-.022.655v4.251h-1.121v-1.243h.122a1.72 1.72 0 0 1-.733.988q-.543.354-1.254.355m.278-.877q.721 0 1.154-.511.444-.51.444-1.509 0-1-.444-1.499-.433-.51-1.154-.51-.733 0-1.177.51-.433.5-.433 1.499t.433 1.509q.433.511 1.177.511m4.344.777v-5.595h1.121v5.595zm-.089-6.76v-1.166h1.299v1.166zm4.995 6.86q-.732 0-1.298-.344a2.3 2.3 0 0 1-.866-.999q-.3-.656-.3-1.554 0-.91.3-1.554.31-.645.866-.988.566-.355 1.298-.355.721 0 1.266.366.555.355.732.977h-.133v-3.819h1.121v8.17h-1.11V166.7h.133a1.78 1.78 0 0 1-.732.999q-.544.367-1.277.367m.278-.877q.721 0 1.165-.511.444-.51.444-1.509 0-1-.444-1.499-.444-.51-1.165-.51-.733 0-1.177.51-.432.5-.433 1.499 0 .999.433 1.509.444.511 1.177.511m6.93.877q-1.354 0-2.131-.766t-.777-2.12q0-.877.333-1.532.344-.655.944-1.01.61-.366 1.409-.366.789 0 1.321.333t.81.943q.278.6.278 1.421v.355h-4.218v-.644h3.452l-.189.145q0-.833-.377-1.288-.366-.466-1.066-.466-.777 0-1.198.544-.423.532-.422 1.476v.111q0 .988.477 1.487.488.5 1.376.5.488 0 .911-.133.432-.145.821-.467l.366.766q-.388.345-.943.533a3.8 3.8 0 0 1-1.177.178m-28.416 13q-.699 0-1.287-.178a2.8 2.8 0 0 1-.977-.499l.344-.766q.41.31.91.466t1.021.155q.61 0 .922-.211a.7.7 0 0 0 .31-.599.6.6 0 0 0-.199-.466q-.189-.178-.633-.267l-1.066-.21q-.71-.156-1.076-.533-.367-.378-.367-.966 0-.5.267-.888.277-.388.777-.61.51-.222 1.187-.222.623 0 1.155.177.533.178.888.511l-.355.743a2.6 2.6 0 0 0-.777-.444 2.4 2.4 0 0 0-.877-.166q-.622 0-.922.233a.74.74 0 0 0-.299.611.67.67 0 0 0 .177.477q.189.178.589.277l1.065.211q.755.156 1.132.511.378.356.378.954 0 .522-.289.911a1.77 1.77 0 0 1-.799.588q-.51.2-1.199.2m6.006 0q-.833 0-1.443-.344a2.4 2.4 0 0 1-.944-.999q-.333-.656-.333-1.554 0-.9.333-1.543.333-.655.944-.999.61-.355 1.443-.355t1.443.355q.622.344.955.999.344.643.344 1.543 0 .898-.344 1.554a2.4 2.4 0 0 1-.955.999q-.61.344-1.443.344m0-.877q.733 0 1.165-.511.433-.51.433-1.509 0-1-.433-1.499-.433-.51-1.165-.51-.722 0-1.154.51-.433.5-.433 1.499t.421 1.509q.434.511 1.166.511m6.505.877q-.843 0-1.476-.344a2.45 2.45 0 0 1-.966-1.01q-.333-.666-.333-1.577 0-.898.344-1.543.345-.643.966-.976.622-.344 1.465-.344.544 0 1.055.188.51.178.843.511l-.366.788q-.31-.3-.699-.444a2 2 0 0 0-.755-.155q-.8 0-1.254.51-.456.512-.456 1.476 0 .977.456 1.499.454.522 1.254.522.356 0 .744-.134a2 2 0 0 0 .71-.455l.366.788a2.4 2.4 0 0 1-.866.522q-.51.178-1.032.178m3.086-.1v-5.595h1.121v5.595zm-.089-6.76v-1.166h1.299v1.166zm4.996 6.86q-.744 0-1.299-.344a2.3 2.3 0 0 1-.866-.999q-.3-.656-.3-1.554 0-.91.3-1.554.31-.645.866-.988.555-.355 1.299-.355.732 0 1.276.366t.722.999h-.122l.111-1.266h1.087l-.066.689q-.022.333-.022.655v4.251h-1.122v-1.243h.123a1.73 1.73 0 0 1-.733.988 2.25 2.25 0 0 1-1.254.355m.277-.877q.721 0 1.155-.511.444-.51.444-1.509 0-1-.444-1.499-.433-.51-1.155-.51-.732 0-1.176.51-.433.5-.433 1.499t.433 1.509q.432.511 1.176.511m4.344.777v-8.17h1.121v8.17zm5.351.1q-1.354 0-2.131-.766t-.777-2.12q0-.877.333-1.532a2.5 2.5 0 0 1 .943-1.01q.61-.366 1.41-.366.788 0 1.321.333t.81.943q.278.6.278 1.421v.355h-4.218v-.644h3.452l-.189.145q0-.833-.377-1.288-.367-.466-1.066-.466-.777 0-1.199.544-.422.532-.422 1.476v.111q0 .988.478 1.487.488.5 1.376.5.489 0 .91-.133.433-.145.822-.467l.366.766q-.389.345-.944.533-.555.178-1.176.178"/><path fill="var(--fl-fgColor, #a93031)" d="M211.205 230.591q-1.199 0-2.042-.488a3.27 3.27 0 0 1-1.299-1.388q-.444-.91-.444-2.142t.444-2.131q.455-.9 1.299-1.388t2.042-.488q.833 0 1.488.244.654.245 1.143.71l-.4.922a3.7 3.7 0 0 0-1.043-.655 3.1 3.1 0 0 0-1.166-.2q-1.265 0-1.931.777t-.666 2.209q0 1.433.666 2.22.666.777 1.931.777.666 0 1.166-.2.51-.2 1.043-.666l.4.921a3.5 3.5 0 0 1-1.143.722 4.2 4.2 0 0 1-1.488.244m5.988 0q-.833 0-1.443-.344a2.4 2.4 0 0 1-.944-.999q-.333-.656-.333-1.554 0-.899.333-1.543.333-.654.944-.999.61-.355 1.443-.355t1.443.355q.621.345.954.999.345.644.344 1.543 0 .898-.344 1.554-.333.644-.954.999-.61.344-1.443.344m0-.877q.732 0 1.165-.51.433-.511.433-1.51t-.433-1.498q-.433-.511-1.165-.511-.721 0-1.155.511-.433.5-.433 1.498 0 .999.422 1.51.433.51 1.166.51m6.039.877q-1.011 0-1.521-.544-.5-.555-.499-1.698v-3.452h1.121v3.43q0 .699.288 1.032.29.333.877.333.666 0 1.077-.444t.411-1.177v-3.174h1.121v5.594h-1.088v-1.199h.144a1.95 1.95 0 0 1-.744.966q-.51.333-1.187.333m-1.288-6.249 1.221-2.242h1.021l1.221 2.242h-.743l-.988-1.554-.988 1.554zm7.98 6.249q-.91 0-1.376-.488-.466-.5-.466-1.488v-2.852h-1.088v-.866h1.088v-1.476l1.121-.3v1.776h1.554v.866h-1.554v2.752q0 .623.222.888.221.267.644.267.21 0 .366-.033a3 3 0 0 0 .3-.1v.91a1.8 1.8 0 0 1-.389.1 2.2 2.2 0 0 1-.422.044m6.959 0q-.734 0-1.299-.344a2.3 2.3 0 0 1-.866-.999q-.3-.656-.299-1.554 0-.91.299-1.554.31-.643.866-.988.565-.355 1.299-.355.722 0 1.265.366.555.356.733.977h-.133v-3.818h1.121v8.169h-1.11v-1.265h.133q-.189.633-.733.999-.543.366-1.276.366m.277-.877q.722 0 1.166-.51.444-.511.444-1.51t-.444-1.498q-.444-.511-1.166-.511-.732 0-1.176.511-.433.5-.433 1.498 0 .999.433 1.51.444.51 1.176.51m6.931.877q-1.354 0-2.131-.766-.777-.765-.777-2.12 0-.876.333-1.532.344-.654.943-1.01.61-.366 1.41-.366.788 0 1.321.333t.81.943q.278.6.278 1.421v.355h-4.218v-.643h3.452l-.189.144q0-.832-.377-1.288-.367-.465-1.066-.466-.777 0-1.199.544-.422.532-.422 1.476v.111q0 .988.478 1.488.488.5 1.376.499.489 0 .91-.133.433-.145.822-.466l.366.766a2.7 2.7 0 0 1-.944.533q-.555.177-1.176.177m6.432-.1v-8.169h1.121v8.169zm4.907.1q-.744 0-1.299-.344a2.3 2.3 0 0 1-.866-.999q-.3-.656-.299-1.554 0-.91.299-1.554.31-.643.866-.988.555-.355 1.299-.355.733 0 1.276.366.544.366.722.999h-.122l.111-1.265h1.087l-.066.688q-.022.333-.022.655v4.251h-1.121v-1.243h.122a1.72 1.72 0 0 1-.733.988 2.24 2.24 0 0 1-1.254.355m.277-.877q.721 0 1.155-.51.444-.511.444-1.51t-.444-1.498q-.434-.511-1.155-.511-.732 0-1.176.511-.433.5-.433 1.498 0 .999.433 1.51.432.51 1.176.51m-27.638 13.777-2.397-5.594h1.198l1.887 4.673h-.322l1.921-4.673h1.143l-2.409 5.594zm4.319 0v-5.594h1.121v5.594zm-.089-6.76v-1.165h1.299v1.165zm5.44 6.86q-1.354 0-2.131-.766-.777-.765-.777-2.12 0-.876.333-1.532.343-.654.943-1.01.61-.366 1.41-.366.787 0 1.321.333.532.333.81.943.277.6.277 1.421v.355h-4.218v-.643h3.453l-.189.144q0-.832-.378-1.288-.366-.465-1.065-.466-.777 0-1.199.544-.422.532-.422 1.476v.111q0 .988.478 1.488.488.5 1.376.499.489 0 .91-.133.433-.145.822-.466l.366.766a2.7 2.7 0 0 1-.944.533q-.555.177-1.176.177M265.297 64.9a5.9 5.9 0 0 1-1.709-.233 4.2 4.2 0 0 1-1.332-.688l.388-.91q.378.288.777.477.411.189.866.289.467.088 1.01.088.933 0 1.366-.333.444-.333.444-.876 0-.467-.311-.722-.3-.255-1.066-.41l-1.21-.245q-1.076-.222-1.609-.721-.522-.51-.522-1.388 0-.71.378-1.243a2.4 2.4 0 0 1 1.043-.822q.677-.288 1.576-.288.833 0 1.532.244.699.234 1.177.7l-.378.876a3.3 3.3 0 0 0-1.065-.632 3.7 3.7 0 0 0-1.288-.211q-.855 0-1.343.355a1.14 1.14 0 0 0-.477.966q0 .487.299.765.311.278 1.021.422l1.21.233q1.122.233 1.654.722.533.477.533 1.32 0 .678-.366 1.189-.355.51-1.021.799-.666.277-1.577.277m6.426 0q-.91 0-1.376-.488-.467-.5-.467-1.488v-2.852h-1.087v-.866h1.087V57.73l1.121-.3v1.776h1.554v.866h-1.554v2.752q0 .621.222.889.222.266.644.266.211 0 .367-.033.166-.045.299-.1v.91q-.166.067-.388.1-.222.044-.422.044m1.857-.1v-5.594h1.121V64.8zm-.089-6.76v-1.165h1.299v1.165zm5.373 9.247q-.755 0-1.377-.178a3.5 3.5 0 0 1-1.099-.533l.278-.821q.344.233.677.366.333.145.699.211t.755.067q.799 0 1.199-.411.411-.4.411-1.165v-1.499h.111a1.72 1.72 0 0 1-.733.988 2.26 2.26 0 0 1-1.265.355q-.767 0-1.332-.333a2.34 2.34 0 0 1-.866-.966q-.3-.632-.3-1.487t.3-1.476q.31-.622.866-.955.566-.344 1.332-.344.732 0 1.265.366.544.356.721.977l-.099-.089.099-1.154h1.088a11 11 0 0 0-.089 1.343v4.14q0 1.266-.677 1.932-.666.666-1.964.666m-.078-3.497q.733 0 1.165-.5.444-.498.444-1.409 0-.91-.444-1.399-.433-.488-1.165-.488-.755 0-1.199.488-.433.489-.433 1.399t.433 1.41q.444.5 1.199.5m4.355 1.01V60.55q0-.322-.034-.655-.022-.345-.055-.688h1.088l.099 1.176h-.133q.233-.61.711-.943.488-.333 1.165-.333.689 0 1.121.333.444.323.611.999h-.178q.222-.61.755-.966a2.12 2.12 0 0 1 1.232-.366q.933 0 1.399.544t.466 1.687V64.8h-1.121v-3.407q0-.733-.256-1.055-.243-.333-.799-.333-.643 0-1.021.444t-.377 1.199V64.8h-1.121v-3.407q0-.733-.256-1.055-.244-.333-.799-.333-.644 0-1.01.444t-.366 1.199V64.8zm11.995.1q-.743 0-1.298-.344a2.3 2.3 0 0 1-.866-.999q-.3-.655-.3-1.554 0-.91.3-1.554.31-.644.866-.988.555-.355 1.298-.355.733 0 1.277.366.543.367.721 1h-.122l.111-1.266h1.088l-.067.688q-.022.333-.022.655V64.8h-1.121v-1.243h.122a1.72 1.72 0 0 1-.732.988 2.24 2.24 0 0 1-1.255.355m.278-.877q.722 0 1.154-.51.444-.51.444-1.51 0-.999-.444-1.498-.432-.51-1.154-.511-.733 0-1.177.51-.433.5-.433 1.5 0 .998.433 1.509t1.177.51m6.52.877q-.91 0-1.377-.488-.466-.5-.466-1.488v-2.852h-1.088v-.866h1.088V57.73l1.121-.3v1.776h1.554v.866h-1.554v2.752q0 .621.222.889.222.266.644.266.212 0 .366-.033.166-.045.3-.1v.91a1.8 1.8 0 0 1-.389.1q-.222.044-.421.044m1.856-.1v-5.594h1.122V64.8zm-.088-6.76v-1.165H305v1.165zm4.773 6.86q-.699 0-1.288-.177a2.8 2.8 0 0 1-.976-.5l.344-.766q.41.311.91.466t1.021.156q.61 0 .921-.211a.7.7 0 0 0 .311-.6.6.6 0 0 0-.2-.466q-.188-.177-.632-.266l-1.066-.211q-.71-.156-1.077-.533-.366-.377-.366-.965 0-.5.266-.889.277-.388.777-.61a3 3 0 0 1 1.188-.222q.622 0 1.155.178.533.177.888.51l-.356.744a2.5 2.5 0 0 0-.777-.444 2.4 2.4 0 0 0-.877-.167q-.621 0-.921.233-.3.234-.3.611 0 .289.178.477.189.178.588.278l1.066.21q.755.156 1.132.511.378.355.378.955 0 .522-.289.91a1.77 1.77 0 0 1-.799.588q-.511.2-1.199.2m5.75 0q-.743 0-1.298-.344a2.3 2.3 0 0 1-.866-.999q-.3-.655-.3-1.554 0-.91.3-1.554.31-.644.866-.988.555-.355 1.298-.355.733 0 1.277.366.544.367.721 1h-.122l.111-1.266h1.088l-.067.688q-.022.333-.022.655V64.8h-1.121v-1.243h.122a1.72 1.72 0 0 1-.732.988 2.24 2.24 0 0 1-1.255.355m.278-.877q.722 0 1.154-.51.444-.51.444-1.51 0-.999-.444-1.498-.432-.51-1.154-.511-.733 0-1.177.51-.433.5-.433 1.5 0 .998.433 1.509t1.177.51m6.52.877q-.91 0-1.377-.488-.466-.5-.466-1.488v-2.852h-1.088v-.866h1.088V57.73l1.121-.3v1.776h1.554v.866h-1.554v2.752q0 .621.222.889.222.266.644.266.21 0 .366-.033.167-.045.3-.1v.91a1.8 1.8 0 0 1-.389.1q-.222.044-.421.044m1.856-.1v-5.594h1.122V64.8zm-.088-6.76v-1.165h1.298v1.165zm5.25 6.86q-.833 0-1.443-.344a2.4 2.4 0 0 1-.943-.999q-.333-.655-.333-1.554 0-.9.333-1.543.333-.655.943-.999.61-.355 1.443-.355t1.443.355q.622.345.955 1 .344.643.344 1.542 0 .9-.344 1.554-.333.644-.955 1-.61.343-1.443.343m0-.877q.733 0 1.166-.51t.433-1.51-.433-1.498q-.433-.51-1.166-.511-.722 0-1.154.51-.433.5-.433 1.5 0 .998.422 1.509.433.51 1.165.51m4.052.777V60.55a7 7 0 0 0-.033-.655q-.022-.345-.056-.688h1.088l.1 1.176h-.133q.255-.62.788-.943a2.28 2.28 0 0 1 1.232-.333q.988 0 1.488.544.51.544.51 1.687V64.8h-1.121v-3.396q0-.744-.3-1.066-.288-.333-.888-.333-.71 0-1.132.444-.422.433-.422 1.177V64.8zm-57.705 13.1q-1.353 0-2.131-.766-.777-.765-.777-2.12 0-.876.333-1.532.344-.654.944-1.01.61-.366 1.409-.366.789 0 1.321.333.533.333.811.944.277.6.277 1.42v.356h-4.218v-.644h3.452l-.189.144q0-.832-.377-1.288-.366-.465-1.066-.466-.777 0-1.198.544-.423.532-.422 1.476v.111q0 .989.477 1.488.489.5 1.377.5.488 0 .91-.134.432-.145.821-.466l.366.766q-.388.344-.943.533-.555.177-1.177.177m5.638 0q-.91 0-1.376-.488-.466-.5-.466-1.488v-2.852h-1.088v-.866h1.088V70.73l1.121-.3v1.776h1.554v.866h-1.554v2.752q0 .621.222.889.222.266.644.266.21 0 .366-.033.166-.045.3-.1v.91a1.8 1.8 0 0 1-.389.1q-.222.044-.422.044m4.816 2.298v-6.649a7 7 0 0 0-.033-.655q-.022-.345-.055-.688h1.087l.111 1.265h-.122q.178-.633.711-.999.543-.366 1.287-.366t1.299.355q.555.345.855.988.31.644.31 1.554 0 .9-.31 1.554-.3.655-.855 1-.555.343-1.299.343-.732 0-1.276-.355a1.75 1.75 0 0 1-.711-.988h.122v3.64zm2.709-3.175q.733 0 1.165-.51.444-.51.444-1.51 0-.999-.444-1.498-.433-.51-1.165-.511-.733 0-1.177.51-.433.5-.433 1.5 0 .998.433 1.509.444.51 1.177.51m4.033.777v-4.207q0-.343-.022-.688-.01-.355-.044-.7h1.087l.123 1.444h-.178q.111-.522.377-.866.267-.345.644-.51a2.04 2.04 0 0 1 1.11-.145q.123.011.244.045l-.011.999a1.1 1.1 0 0 0-.333-.09 2 2 0 0 0-.333-.021q-.488 0-.832.222-.345.21-.522.577a1.8 1.8 0 0 0-.178.788V77.8zm6.717.1q-1.354 0-2.131-.766-.777-.765-.777-2.12 0-.876.333-1.532a2.5 2.5 0 0 1 .943-1.01q.61-.366 1.41-.366.788 0 1.321.333t.81.944q.278.6.278 1.42v.356h-4.218v-.644h3.452l-.189.144q0-.832-.377-1.288-.367-.465-1.066-.466-.776 0-1.199.544-.421.532-.421 1.476v.111q0 .989.477 1.488.488.5 1.376.5.489 0 .91-.134.433-.145.822-.466l.366.766q-.388.344-.943.533-.555.177-1.177.177m-.61-6.238 1.143-2.242h1.143l-1.509 2.242zm3.428 8.591q-.177 0-.41-.033a1.6 1.6 0 0 1-.422-.11v-.911q.144.044.322.078.166.044.322.044.433 0 .655-.278.233-.266.233-.888v-5.95h1.121v6.028q0 1-.444 1.51t-1.377.51m.6-9.213v-1.165h1.31v1.165zm4.806 6.86q-1.01 0-1.52-.544-.5-.555-.5-1.698v-3.452h1.121v3.43q0 .699.289 1.032.288.333.877.333.666 0 1.076-.444t.411-1.177v-3.174h1.121V77.8h-1.088v-1.198h.145a1.96 1.96 0 0 1-.744.965q-.51.333-1.188.333m7.037 2.387q-.755 0-1.376-.178a3.5 3.5 0 0 1-1.099-.533l.277-.821q.344.233.677.366.333.145.7.211t.754.067q.8 0 1.199-.411.411-.4.411-1.165v-1.499h.111a1.72 1.72 0 0 1-.733.988 2.26 2.26 0 0 1-1.265.355q-.767 0-1.332-.333a2.34 2.34 0 0 1-.866-.966q-.3-.632-.3-1.487t.3-1.476q.31-.622.866-.955.565-.345 1.332-.344.732 0 1.265.366.544.356.722.977l-.1-.089.1-1.154h1.088a11 11 0 0 0-.089 1.343v4.14q0 1.266-.677 1.932-.666.666-1.965.666m-.078-3.497q.733 0 1.166-.5.444-.498.444-1.409 0-.91-.444-1.399-.433-.488-1.166-.488-.754 0-1.198.488-.433.489-.433 1.399t.433 1.41q.444.5 1.198.5m6.941 1.11q-1.354 0-2.131-.766-.777-.765-.777-2.12 0-.876.333-1.532a2.5 2.5 0 0 1 .943-1.01q.61-.366 1.41-.366.789 0 1.321.333.533.333.81.944.278.6.278 1.42v.356h-4.218v-.644h3.452l-.189.144q0-.832-.377-1.288-.367-.465-1.066-.466-.776 0-1.199.544-.421.532-.421 1.476v.111q0 .989.477 1.488.489.5 1.376.5.489 0 .911-.134.432-.145.821-.466l.366.766q-.388.344-.943.533-.555.177-1.177.177m-.61-6.238 1.143-2.242h1.143l-1.509 2.242zm6.004 6.238q-.7 0-1.288-.177a2.8 2.8 0 0 1-.977-.5l.344-.766q.411.311.911.466t1.021.156q.61 0 .921-.211a.7.7 0 0 0 .311-.6.6.6 0 0 0-.2-.466q-.189-.177-.633-.266l-1.065-.211q-.711-.156-1.077-.533t-.366-.966q0-.498.266-.887.277-.39.777-.611a3 3 0 0 1 1.188-.222q.621 0 1.154.178.533.177.888.51l-.355.744a2.5 2.5 0 0 0-.777-.444 2.4 2.4 0 0 0-.877-.167q-.621 0-.921.233-.3.234-.3.611 0 .289.178.477.189.178.588.278l1.066.21q.754.156 1.132.511t.377.955q0 .522-.288.91a1.77 1.77 0 0 1-.8.588q-.51.2-1.198.2"/><path fill="var(--fl-fgColor, #222)" d="M84.36 224.38v-7.825h1.01l3.018 6.804h-.333l3.02-6.804h.999v7.825H91.03v-6.26h.367l-2.82 6.26h-.721l-2.82-6.26h.378v6.26zm12.068.1q-1.355 0-2.132-.766-.777-.765-.777-2.12 0-.876.333-1.532.345-.654.944-1.01.61-.366 1.41-.366.788 0 1.32.333.534.333.81.944.279.599.278 1.42v.356h-4.218v-.644h3.452l-.188.144q0-.832-.378-1.288-.367-.466-1.065-.466-.777 0-1.2.544-.42.532-.42 1.476v.111q0 .989.476 1.488.489.5 1.377.499.488 0 .91-.133.433-.144.821-.466l.367.766a2.7 2.7 0 0 1-.944.533 3.9 3.9 0 0 1-1.176.177m5.393 0q-.699 0-1.288-.177a2.8 2.8 0 0 1-.976-.5l.344-.766q.41.311.91.466t1.021.156q.61 0 .921-.211a.7.7 0 0 0 .311-.599.6.6 0 0 0-.2-.467q-.188-.177-.632-.266l-1.066-.211q-.71-.155-1.077-.533-.366-.377-.366-.965 0-.5.267-.888.278-.389.777-.611.51-.222 1.187-.222.622 0 1.155.178.532.177.888.51l-.356.744a2.5 2.5 0 0 0-.777-.444 2.4 2.4 0 0 0-.876-.167q-.622 0-.922.234a.73.73 0 0 0-.299.61q0 .289.177.477.189.178.588.278l1.066.211q.755.155 1.132.51.378.355.378.955 0 .522-.289.91a1.77 1.77 0 0 1-.799.588q-.511.2-1.199.2m5.595 0q-1.01 0-1.521-.544-.5-.555-.499-1.698v-3.452h1.121v3.43q0 .699.289 1.032.288.333.876.333.666 0 1.077-.444t.411-1.176v-3.175h1.121v5.594h-1.088v-1.198h.144a1.95 1.95 0 0 1-.743.965 2.13 2.13 0 0 1-1.188.333m4.495-.1v-4.207q0-.343-.022-.688-.012-.356-.045-.699h1.088l.122 1.443h-.177q.11-.522.377-.866a1.65 1.65 0 0 1 .644-.51 2.04 2.04 0 0 1 1.11-.145q.122.011.244.045l-.011.999a1.1 1.1 0 0 0-.333-.089 2 2 0 0 0-.333-.022q-.488 0-.833.222-.344.21-.521.577a1.8 1.8 0 0 0-.178.788v3.152zm6.717.1q-1.355 0-2.132-.766-.777-.765-.777-2.12 0-.876.333-1.532.344-.654.944-1.01.61-.366 1.41-.366.787 0 1.321.333t.81.944q.277.599.277 1.42v.356h-4.218v-.644h3.452l-.188.144q0-.832-.378-1.288-.366-.466-1.065-.466-.777 0-1.199.544-.422.532-.422 1.476v.111q0 .989.477 1.488.489.5 1.377.499.488 0 .91-.133.433-.144.821-.466l.367.766a2.7 2.7 0 0 1-.944.533q-.555.177-1.176.177m5.393 0q-.699 0-1.288-.177a2.8 2.8 0 0 1-.976-.5l.344-.766q.41.311.91.466t1.021.156q.61 0 .921-.211a.7.7 0 0 0 .311-.599.6.6 0 0 0-.2-.467q-.188-.177-.632-.266l-1.066-.211q-.71-.155-1.077-.533-.366-.377-.366-.965 0-.5.267-.888.278-.389.777-.611.51-.222 1.187-.222.622 0 1.155.178.532.177.888.51l-.356.744a2.5 2.5 0 0 0-.777-.444 2.4 2.4 0 0 0-.876-.167q-.622 0-.922.234a.73.73 0 0 0-.299.61q0 .289.177.477.189.178.588.278l1.066.211q.755.155 1.132.51.378.355.378.955 0 .522-.289.91a1.77 1.77 0 0 1-.799.588q-.511.2-1.199.2m-57.25 13q-.734 0-1.3-.344a2.3 2.3 0 0 1-.865-.999q-.3-.654-.3-1.554 0-.91.3-1.554.31-.643.866-.988a2.4 2.4 0 0 1 1.298-.355q.722 0 1.266.366.555.356.732.977h-.133v-3.818h1.121v8.169h-1.11v-1.265h.133q-.189.633-.732.999-.544.366-1.277.366m.277-.877q.721 0 1.165-.51.444-.511.444-1.51t-.444-1.498q-.444-.511-1.165-.511-.733 0-1.177.511-.433.5-.433 1.498 0 .999.433 1.51.444.51 1.177.51m4.755-4.373-.489-.377q.323-.334.433-.622.122-.3.122-.599l.3.233h-.932v-1.31h1.32v.899q0 .5-.166.932-.166.423-.588.844m4.365 5.25q-.743 0-1.298-.344a2.3 2.3 0 0 1-.866-.999q-.3-.654-.3-1.554 0-.91.3-1.554.31-.643.866-.988.555-.355 1.298-.355.733 0 1.277.366.544.367.721.999h-.122l.111-1.265h1.088l-.066.688a10 10 0 0 0-.023.655v4.251h-1.12v-1.243h.121a1.72 1.72 0 0 1-.732.988 2.24 2.24 0 0 1-1.255.355m.278-.877q.721 0 1.154-.51.444-.511.444-1.51t-.444-1.498q-.432-.511-1.154-.511-.732 0-1.177.511-.433.5-.433 1.498 0 .999.433 1.51.433.51 1.177.51m6.487.877q-.733 0-1.3-.344a2.3 2.3 0 0 1-.865-.999q-.3-.654-.3-1.554 0-.91.3-1.554.31-.643.866-.988a2.4 2.4 0 0 1 1.299-.355q.72 0 1.265.366.555.356.733.977h-.134v-3.818h1.121v8.169h-1.11v-1.265h.134q-.189.633-.733.999t-1.276.366m.277-.877q.722 0 1.166-.51.443-.511.444-1.51 0-.999-.444-1.498-.445-.511-1.166-.511-.732 0-1.177.511-.433.5-.433 1.498 0 .999.433 1.51.445.51 1.177.51m6.487.877q-.745 0-1.3-.344a2.3 2.3 0 0 1-.865-.999q-.3-.654-.3-1.554 0-.91.3-1.554.31-.643.866-.988.555-.355 1.299-.355.732 0 1.276.366.544.367.722.999h-.123l.111-1.265h1.088l-.066.688a10 10 0 0 0-.023.655v4.251h-1.12v-1.243h.121a1.72 1.72 0 0 1-.732.988 2.24 2.24 0 0 1-1.254.355m.277-.877q.722 0 1.154-.51.444-.511.444-1.51t-.444-1.498q-.432-.511-1.154-.511-.732 0-1.177.511-.432.5-.432 1.498 0 .999.432 1.51.433.51 1.177.51m4.344 3.175v-6.649q0-.322-.033-.655a22 22 0 0 0-.055-.688h1.087l.111 1.265h-.122q.178-.632.71-.999.544-.366 1.288-.366t1.299.355q.555.345.855.988.31.644.31 1.554 0 .9-.31 1.554-.3.656-.855.999-.555.344-1.299.344-.733 0-1.276-.355a1.75 1.75 0 0 1-.71-.988h.121v3.641zm2.709-3.175q.732 0 1.165-.51.444-.511.444-1.51t-.444-1.498q-.433-.511-1.165-.511t-1.177.511q-.433.5-.433 1.498 0 .999.433 1.51.444.51 1.177.51m6.177.877q-.91 0-1.377-.488-.465-.5-.466-1.488v-2.852h-1.088v-.866h1.088v-1.476l1.121-.3v1.776h1.554v.866h-1.554v2.753q0 .621.222.888.222.266.644.266.212 0 .366-.033a3 3 0 0 0 .3-.1v.91q-.166.067-.388.1a2.2 2.2 0 0 1-.422.044m3.999 0q-.744 0-1.299-.344t-.866-.999q-.299-.654-.299-1.554 0-.91.299-1.554a2.3 2.3 0 0 1 .866-.988q.555-.355 1.299-.355.732 0 1.276.366.544.367.722.999h-.122l.111-1.265h1.088l-.067.688q-.022.333-.022.655v4.251h-1.121v-1.243h.122a1.72 1.72 0 0 1-.733.988 2.24 2.24 0 0 1-1.254.355m.277-.877q.721 0 1.155-.51.444-.511.444-1.51t-.444-1.498q-.434-.511-1.155-.511-.732 0-1.176.511-.433.5-.433 1.498 0 .999.433 1.51.433.51 1.176.51m6.52.877q-.91 0-1.376-.488-.466-.5-.466-1.488v-2.852h-1.088v-.866h1.088v-1.476l1.121-.3v1.776h1.554v.866h-1.554v2.753q0 .621.222.888.221.266.644.266.21 0 .366-.033a3 3 0 0 0 .3-.1v.91a1.8 1.8 0 0 1-.389.1 2.2 2.2 0 0 1-.422.044m1.857-.1v-5.594h1.121v5.594zm-.089-6.76v-1.165h1.299v1.165zm5.251 6.86q-.833 0-1.443-.344a2.4 2.4 0 0 1-.944-.999q-.333-.654-.333-1.554 0-.899.333-1.543.333-.654.944-.999.61-.355 1.443-.355t1.443.355q.621.345.954.999.345.644.345 1.543 0 .9-.345 1.554-.333.644-.954.999-.61.344-1.443.344m0-.877q.732 0 1.165-.51.433-.511.433-1.51t-.433-1.498q-.433-.511-1.165-.511-.721 0-1.155.511-.432.5-.432 1.498 0 .999.421 1.51.433.51 1.166.51m4.052.777v-4.251q0-.322-.033-.655a23 23 0 0 0-.056-.688h1.088l.1 1.177h-.133q.255-.622.788-.944a2.28 2.28 0 0 1 1.232-.333q.987 0 1.487.544.511.544.511 1.687v3.463h-1.121v-3.396q0-.744-.3-1.066-.288-.333-.888-.333-.71 0-1.132.444-.422.433-.422 1.177v3.174zm12.125.1q-1.354 0-2.131-.766-.777-.765-.777-2.12 0-.876.333-1.532.344-.654.944-1.01.61-.366 1.409-.366.789 0 1.321.333t.81.944q.278.599.278 1.42v.356h-4.218v-.644h3.452l-.189.144q0-.832-.377-1.288-.366-.466-1.066-.466-.777 0-1.198.544-.423.532-.422 1.476v.111q0 .989.477 1.488.489.5 1.376.499.488 0 .911-.133.432-.144.821-.466l.366.766a2.7 2.7 0 0 1-.943.533 3.9 3.9 0 0 1-1.177.177m3.473-.1v-4.251q0-.322-.033-.655a23 23 0 0 0-.055-.688h1.087l.1 1.177h-.133q.255-.622.788-.944a2.28 2.28 0 0 1 1.232-.333q.989 0 1.488.544.51.544.51 1.687v3.463h-1.121v-3.396q0-.744-.299-1.066-.29-.333-.888-.333-.71 0-1.133.444-.421.433-.421 1.177v3.174zm-49.472 13.1q-1.354 0-2.13-.766-.778-.765-.778-2.12 0-.876.333-1.532.344-.654.944-1.01.61-.366 1.41-.366.788 0 1.32.333.533.333.81.944.279.599.278 1.42v.356h-4.218v-.644h3.452l-.188.144q0-.832-.378-1.288-.367-.466-1.065-.466-.777 0-1.2.544-.42.532-.421 1.476v.111q0 .989.477 1.488.489.5 1.377.499.488 0 .91-.133.432-.144.821-.466l.367.766a2.7 2.7 0 0 1-.944.533 3.9 3.9 0 0 1-1.177.177m3.474-.1v-4.251q0-.322-.034-.655a22 22 0 0 0-.055-.688h1.088l.1 1.177h-.134q.234-.61.71-.944.49-.333 1.166-.333.689 0 1.121.333.444.322.61.999h-.177q.222-.61.755-.966a2.12 2.12 0 0 1 1.232-.366q.933 0 1.399.544t.466 1.687v3.463h-1.121v-3.407q0-.733-.256-1.055-.244-.333-.799-.333-.644 0-1.02.444-.378.444-.378 1.199v3.152h-1.121v-3.407q0-.733-.256-1.055-.244-.333-.799-.333-.645 0-1.01.444-.366.444-.366 1.199v3.152zm9.853 2.398v-6.649q0-.322-.033-.655a23 23 0 0 0-.056-.688h1.088l.111 1.265h-.122q.177-.632.71-.999.544-.366 1.288-.366t1.299.355q.555.345.854.988.31.644.311 1.554 0 .9-.311 1.554-.3.656-.854.999-.555.344-1.299.344-.733 0-1.277-.355a1.74 1.74 0 0 1-.71-.988h.122v3.641zm2.708-3.175q.733 0 1.166-.51.444-.511.444-1.51t-.444-1.498q-.433-.511-1.166-.511t-1.176.511q-.433.5-.433 1.498 0 .999.433 1.51.444.51 1.176.51m4.056.777v-8.169h1.121v8.169zm5.162.1q-.832 0-1.443-.344a2.4 2.4 0 0 1-.944-.999q-.333-.654-.333-1.554 0-.899.333-1.543.333-.654.944-.999.61-.355 1.443-.355t1.443.355q.621.345.954.999.345.644.345 1.543 0 .9-.345 1.554-.333.644-.954.999-.61.344-1.443.344m0-.877q.733 0 1.165-.51.433-.511.433-1.51t-.433-1.498q-.433-.511-1.165-.511-.721 0-1.155.511-.432.5-.432 1.498 0 .999.421 1.51.433.51 1.166.51m4.052.777v-5.594h1.121v5.594zm-.089-6.76v-1.165h1.299v1.165z"/><path fill="var(--fl-fgColor, #a93031)" d="M0 152.38v-7.825h5.128v.921H1.121v2.464h3.752v.933H1.12v2.575h4.007v.932zm2.331-8.491 1.31-1.92h1.21l-1.699 1.92zm5.672 8.491-2.397-5.594h1.199l1.887 4.673H8.37l1.92-4.673h1.143l-2.408 5.594zm6.808.1q-1.354 0-2.13-.766-.778-.765-.778-2.12 0-.876.333-1.532.345-.654.944-1.01.61-.366 1.41-.366.787 0 1.32.333t.81.944q.279.599.278 1.42v.356H12.78v-.644h3.452l-.189.144q0-.832-.377-1.288-.366-.466-1.066-.466-.777 0-1.198.544-.422.532-.422 1.476v.111q0 .989.477 1.488.488.5 1.377.499.488 0 .91-.133.432-.144.821-.466l.366.766a2.7 2.7 0 0 1-.943.533 3.9 3.9 0 0 1-1.177.177m-.61-6.238L15.344 144h1.143l-1.51 2.242zm4.083 6.138v-4.251q0-.322-.033-.655a22 22 0 0 0-.055-.688h1.087l.1 1.177h-.133q.255-.622.788-.944a2.3 2.3 0 0 1 1.232-.333q.989 0 1.488.544.51.544.51 1.687v3.463h-1.12v-3.396q0-.744-.3-1.066-.29-.333-.889-.333-.71 0-1.132.444-.421.433-.422 1.177v3.174zm9.167.1q-1.355 0-2.132-.766-.777-.765-.777-2.12 0-.876.333-1.532.345-.654.944-1.01.61-.366 1.41-.366.787 0 1.32.333.534.333.81.944.279.599.278 1.42v.356H25.42v-.644h3.452l-.188.144q0-.832-.378-1.288-.367-.466-1.065-.466-.777 0-1.2.544-.42.532-.421 1.476v.111q0 .989.477 1.488.489.5 1.377.499.488 0 .91-.133.433-.144.821-.466l.367.766a2.7 2.7 0 0 1-.944.533 3.9 3.9 0 0 1-1.176.177m3.473-.1v-4.251q0-.322-.034-.655a22 22 0 0 0-.055-.688h1.088l.1 1.177h-.134q.234-.61.71-.944.49-.333 1.166-.333.69 0 1.121.333.444.322.61.999h-.177q.222-.61.755-.966a2.12 2.12 0 0 1 1.232-.366q.933 0 1.399.544t.466 1.687v3.463H38.05v-3.407q0-.733-.255-1.055-.245-.333-.8-.333-.644 0-1.02.444-.378.444-.378 1.199v3.152h-1.121v-3.407q0-.733-.256-1.055-.243-.333-.799-.333-.644 0-1.01.444t-.366 1.199v3.152zm12.44.1q-1.355 0-2.132-.766-.777-.765-.777-2.12 0-.876.333-1.532.344-.654.944-1.01.61-.366 1.41-.366.787 0 1.32.333t.81.944q.278.599.278 1.42v.356h-4.218v-.644h3.452l-.188.144q0-.832-.378-1.288-.367-.466-1.065-.466-.777 0-1.2.544-.42.532-.421 1.476v.111q0 .989.477 1.488.489.5 1.377.499.488 0 .91-.133.432-.144.821-.466l.367.766a2.7 2.7 0 0 1-.944.533 3.9 3.9 0 0 1-1.177.177m3.473-.1v-4.251q0-.322-.034-.655a22 22 0 0 0-.055-.688h1.088l.1 1.177h-.134q.255-.622.788-.944a2.3 2.3 0 0 1 1.232-.333q.99 0 1.488.544.51.544.51 1.687v3.463H50.7v-3.396q0-.744-.3-1.066-.29-.333-.888-.333-.71 0-1.133.444-.42.433-.421 1.177v3.174zm8.755.1q-.91 0-1.376-.488-.467-.5-.467-1.488v-2.852h-1.087v-.866h1.087v-1.476l1.121-.3v1.776h1.555v.866H54.87v2.753q0 .621.221.888.222.266.644.266.21 0 .367-.033.165-.045.3-.1v.91q-.167.067-.39.1a2.2 2.2 0 0 1-.421.044m3.777 0q-.699 0-1.288-.177a2.8 2.8 0 0 1-.976-.5l.344-.766q.41.311.91.466t1.021.156q.61 0 .921-.211a.7.7 0 0 0 .311-.599.6.6 0 0 0-.2-.467q-.188-.177-.632-.266l-1.066-.211q-.71-.156-1.076-.533t-.367-.965q0-.5.267-.888.278-.389.777-.611.51-.222 1.187-.222.622 0 1.155.178.532.177.888.51l-.355.744a2.5 2.5 0 0 0-.777-.444 2.4 2.4 0 0 0-.877-.167q-.622 0-.922.234-.3.232-.3.61 0 .289.178.477.189.178.589.278l1.065.211q.754.155 1.132.51t.378.955q0 .522-.289.91a1.77 1.77 0 0 1-.8.588q-.51.2-1.198.2m-51.664 12.9v-5.594h1.12v5.594zm-.09-6.76v-1.165h1.3v1.165zm2.854 6.76v-4.251q0-.322-.033-.655a22 22 0 0 0-.056-.688h1.088l.1 1.177h-.133q.233-.61.71-.944.489-.333 1.165-.333.69 0 1.122.333.444.322.61.999h-.178q.222-.61.755-.966a2.12 2.12 0 0 1 1.232-.366q.933 0 1.399.544t.466 1.687v3.463h-1.12v-3.407q0-.733-.256-1.055-.245-.333-.8-.333-.643 0-1.02.444-.378.444-.378 1.199v3.152h-1.121v-3.407q0-.733-.255-1.055-.245-.333-.8-.333-.643 0-1.01.444-.366.444-.366 1.199v3.152zm9.853 2.398v-6.649q0-.322-.033-.655a22 22 0 0 0-.056-.688h1.088l.111 1.265h-.122q.178-.632.71-.999.544-.366 1.288-.366t1.299.355q.555.345.855.988.31.644.31 1.554 0 .9-.31 1.554-.3.656-.855.999-.555.344-1.299.344-.733 0-1.276-.355a1.75 1.75 0 0 1-.71-.988h.121v3.641zm2.709-3.175q.732 0 1.165-.51.444-.511.444-1.51t-.444-1.498q-.432-.511-1.165-.511-.732 0-1.177.511-.433.5-.433 1.498 0 .999.433 1.51.444.51 1.177.51m4.033.777v-4.207q0-.343-.022-.688-.01-.356-.044-.699h1.087l.122 1.443h-.177q.111-.522.377-.866a1.65 1.65 0 0 1 .644-.51 2.04 2.04 0 0 1 1.11-.145q.122.011.244.045l-.01.999a1.1 1.1 0 0 0-.334-.089 2 2 0 0 0-.333-.022q-.488 0-.832.222-.345.21-.522.577a1.8 1.8 0 0 0-.178.788v3.152zm6.717.1q-1.354 0-2.131-.766-.777-.765-.777-2.12 0-.876.333-1.532.345-.654.943-1.01.61-.366 1.41-.366.788 0 1.32.333.534.333.811.944.278.599.278 1.42v.356H31.75v-.644h3.452l-.189.144q0-.832-.377-1.288-.367-.466-1.066-.466-.776 0-1.199.544-.421.532-.422 1.476v.111q0 .989.478 1.488.488.5 1.376.499.49 0 .91-.133.434-.144.822-.466l.366.766a2.7 2.7 0 0 1-.943.533 3.9 3.9 0 0 1-1.177.177m-.61-6.238L34.314 157h1.143l-1.51 2.242zm5.65 6.138-2.398-5.594h1.2l1.886 4.673h-.322l1.92-4.673h1.144l-2.409 5.594zm6.306.1q-1.01 0-1.52-.544-.5-.555-.5-1.698v-3.452h1.121v3.43q0 .699.289 1.032.288.333.877.333.665 0 1.076-.444.41-.444.41-1.176v-3.175h1.122v5.594h-1.088v-1.198h.145a1.96 1.96 0 0 1-.744.965q-.51.333-1.188.333m6.437 0q-.699 0-1.287-.177a2.8 2.8 0 0 1-.977-.5l.344-.766q.41.311.91.466t1.021.156q.611 0 .922-.211a.7.7 0 0 0 .31-.599.6.6 0 0 0-.2-.467q-.188-.177-.632-.266l-1.065-.211q-.711-.156-1.077-.533t-.366-.965q0-.5.266-.888.278-.389.777-.611.51-.222 1.188-.222.621 0 1.154.178.533.177.888.51l-.355.744a2.5 2.5 0 0 0-.777-.444 2.4 2.4 0 0 0-.877-.167q-.622 0-.921.234-.3.232-.3.61 0 .289.178.477.188.178.588.278l1.065.211q.756.155 1.133.51t.377.955q0 .522-.289.91a1.77 1.77 0 0 1-.799.588q-.51.2-1.199.2"/><path fill="#000" d="M199.765 8.38V.555h1.154v6.837h3.841v.988zm6.024 0V2.786h1.121V8.38zm-.089-6.76V.455h1.299V1.62zm5.44 6.86q-1.355 0-2.132-.766-.777-.765-.777-2.12 0-.876.333-1.532.345-.654.944-1.01.61-.366 1.41-.366.788 0 1.32.333.534.333.811.944.277.6.277 1.42v.356h-4.218v-.644h3.452l-.188.144q0-.832-.378-1.288-.366-.465-1.065-.466-.777 0-1.199.544-.422.532-.422 1.476v.111q0 .99.477 1.488.489.5 1.377.5.488 0 .91-.134.433-.144.821-.466l.367.766a2.7 2.7 0 0 1-.944.533q-.555.177-1.176.177m5.46 0q-1.011 0-1.521-.544-.5-.555-.5-1.698V2.786h1.122v3.43q0 .699.288 1.032.29.333.877.333.666 0 1.077-.444t.41-1.176V2.786h1.122V8.38h-1.088V7.182h.144a1.95 1.95 0 0 1-.744.965q-.51.333-1.187.333m9.618 0q-.732 0-1.298-.344a2.3 2.3 0 0 1-.866-.999q-.3-.654-.3-1.554 0-.91.3-1.554.31-.643.866-.988a2.4 2.4 0 0 1 1.298-.355q.722 0 1.266.366.555.356.732.977h-.133V.211h1.121v8.17h-1.11V7.114h.133q-.188.633-.732.999t-1.277.366m.278-.877q.721 0 1.165-.51t.444-1.51-.444-1.498q-.444-.51-1.165-.51-.733 0-1.177.51-.432.5-.433 1.498 0 1 .433 1.51.444.51 1.177.51m6.93.877q-1.353 0-2.131-.766-.777-.765-.777-2.12 0-.876.333-1.532.345-.654.944-1.01.61-.366 1.409-.366.789 0 1.321.333.533.333.811.944.277.6.277 1.42v.356h-4.218v-.644h3.452l-.189.144q0-.832-.377-1.288-.366-.465-1.066-.466-.777 0-1.198.544-.423.532-.422 1.476v.111q0 .99.477 1.488.489.5 1.377.5.488 0 .91-.134.432-.144.821-.466l.366.766q-.388.344-.943.533-.555.177-1.177.177m6.411-.1V4.173q0-.343-.023-.688-.01-.356-.044-.699h1.088l.122 1.443h-.178q.111-.522.378-.866.266-.345.643-.51a2.04 2.04 0 0 1 1.11-.145q.123.011.245.045l-.011.999a1.1 1.1 0 0 0-.333-.09 2 2 0 0 0-.333-.021q-.49 0-.833.222-.344.21-.522.577a1.8 1.8 0 0 0-.177.788V8.38zm6.716.1q-1.354 0-2.131-.766-.777-.765-.777-2.12 0-.876.333-1.532.344-.654.944-1.01.61-.366 1.409-.366.789 0 1.321.333.533.333.811.944.277.6.277 1.42v.356h-4.218v-.644h3.452l-.189.144q0-.832-.377-1.288-.366-.465-1.066-.466-.777 0-1.198.544-.422.532-.422 1.476v.111q0 .99.477 1.488.489.5 1.377.5.488 0 .91-.134.432-.144.821-.466l.366.766q-.388.344-.943.533-.555.177-1.177.177m-.61-6.238L247.086 0h1.143l-1.509 2.242zm6.004 6.238q-.7 0-1.288-.177a2.8 2.8 0 0 1-.977-.5l.345-.766q.41.311.91.466t1.021.156q.61 0 .921-.211a.7.7 0 0 0 .311-.6.6.6 0 0 0-.2-.466q-.189-.177-.632-.266l-1.066-.21q-.711-.157-1.077-.534t-.366-.965q0-.5.266-.888.278-.39.777-.61a3 3 0 0 1 1.188-.223q.621 0 1.154.178.534.177.888.51l-.355.744a2.5 2.5 0 0 0-.777-.444 2.4 2.4 0 0 0-.877-.167q-.621 0-.921.234-.3.232-.3.61 0 .289.178.477.189.178.588.278l1.066.21q.754.156 1.132.511t.377.955q0 .522-.288.91a1.78 1.78 0 0 1-.799.588q-.511.2-1.199.2m3.608-.1V2.786h1.121V8.38zm-.089-6.76V.455h1.299V1.62zm4.995 6.86q-.732 0-1.298-.344a2.3 2.3 0 0 1-.866-.999q-.3-.654-.3-1.554 0-.91.3-1.554.31-.643.866-.988a2.4 2.4 0 0 1 1.298-.355q.721 0 1.266.366.555.356.732.977h-.133V.211h1.121v8.17h-1.11V7.114h.133q-.188.633-.732.999t-1.277.366m.278-.877q.721 0 1.165-.51t.444-1.51-.444-1.498q-.444-.51-1.165-.51-.733 0-1.177.51-.433.5-.433 1.498 0 1 .433 1.51.444.51 1.177.51m6.93.877q-1.354 0-2.131-.766-.777-.765-.777-2.12 0-.876.333-1.532.344-.654.944-1.01.61-.366 1.409-.366.789 0 1.321.333.533.333.811.944.277.6.277 1.42v.356h-4.218v-.644h3.452l-.189.144q0-.832-.377-1.288-.366-.465-1.066-.466-.777 0-1.198.544-.423.532-.422 1.476v.111q0 .99.477 1.488.489.5 1.377.5.488 0 .91-.134.432-.144.821-.466l.366.766q-.388.344-.943.533-.555.177-1.177.177m3.474-.1V4.13q0-.324-.034-.656-.022-.345-.055-.688h1.088l.099 1.177h-.133q.255-.623.788-.944a2.3 2.3 0 0 1 1.232-.333q.988 0 1.488.544.51.544.51 1.687V8.38h-1.121V4.984q0-.744-.299-1.066-.29-.333-.888-.333-.71 0-1.133.444-.421.433-.421 1.177V8.38zm9.032.1q-.843 0-1.476-.344a2.45 2.45 0 0 1-.966-1.01q-.333-.666-.333-1.576 0-.9.345-1.543.344-.644.965-.977.622-.344 1.465-.344.545 0 1.055.189.51.177.844.51l-.367.788q-.31-.3-.699-.444a2 2 0 0 0-.755-.155q-.8 0-1.254.51-.456.511-.455 1.477 0 .976.455 1.498.454.522 1.254.522.356 0 .744-.133.389-.144.71-.455l.367.788q-.345.333-.866.522a3.1 3.1 0 0 1-1.033.177m5.564 0q-1.353 0-2.131-.766-.777-.765-.777-2.12 0-.876.333-1.532.344-.654.944-1.01.61-.366 1.409-.366.789 0 1.321.333.533.333.811.944.277.6.277 1.42v.356h-4.218v-.644h3.452l-.189.144q0-.832-.377-1.288-.366-.465-1.066-.466-.777 0-1.198.544-.422.532-.422 1.476v.111q0 .99.477 1.488.489.5 1.377.5.488 0 .91-.134.432-.144.821-.466l.366.766q-.388.344-.943.533-.555.177-1.177.177M22.947 8.48a5.9 5.9 0 0 1-1.71-.233 4.2 4.2 0 0 1-1.331-.688l.388-.91q.377.288.777.477.411.189.866.289.466.088 1.01.088.933 0 1.366-.333.444-.333.444-.876 0-.467-.311-.722-.3-.255-1.066-.41l-1.21-.245q-1.077-.222-1.61-.721-.52-.51-.521-1.388 0-.71.377-1.243.378-.533 1.044-.821.677-.29 1.576-.289.833 0 1.532.244.699.234 1.176.7l-.377.876a3.3 3.3 0 0 0-1.066-.632 3.7 3.7 0 0 0-1.287-.211q-.855 0-1.343.355a1.14 1.14 0 0 0-.478.966q0 .487.3.766.311.277 1.021.421l1.21.233q1.122.233 1.654.722.533.477.533 1.32 0 .678-.366 1.189-.356.51-1.022.799-.666.277-1.576.277m6.426 0q-.91 0-1.377-.488-.465-.5-.466-1.488V3.652h-1.088v-.866h1.088V1.31l1.121-.3v1.776h1.554v.866h-1.554v2.753q0 .621.222.888.222.266.644.266.21 0 .366-.033.166-.045.3-.1v.91q-.165.067-.388.1-.222.045-.422.044m3.999 0q-.744 0-1.299-.344a2.3 2.3 0 0 1-.866-.999q-.3-.654-.3-1.554 0-.91.3-1.554a2.3 2.3 0 0 1 .866-.988q.555-.355 1.299-.355.733 0 1.276.366.544.367.722 1h-.122l.11-1.266h1.089l-.067.688q-.022.333-.022.655V8.38h-1.121V7.137h.122a1.72 1.72 0 0 1-.733.988q-.543.355-1.254.355m.277-.877q.721 0 1.155-.51.444-.51.444-1.51 0-.999-.444-1.498-.434-.51-1.155-.51-.732 0-1.176.51-.433.5-.433 1.498 0 1 .433 1.51.432.51 1.176.51m6.52.877q-.91 0-1.376-.488-.465-.5-.466-1.488V3.652h-1.088v-.866h1.088V1.31l1.12-.3v1.776h1.555v.866h-1.554v2.753q0 .621.222.888.221.266.644.266.21 0 .366-.033.165-.045.3-.1v.91q-.166.067-.389.1-.221.045-.422.044m3.844 0q-1.01 0-1.52-.544-.5-.555-.5-1.698V2.786h1.12v3.43q0 .699.29 1.032.288.333.876.333.666 0 1.077-.444t.41-1.176V2.786h1.122V8.38H45.8V7.182h.144a1.96 1.96 0 0 1-.743.965q-.51.333-1.188.333m6.693 0q-.91 0-1.377-.488-.466-.5-.466-1.488V3.652h-1.088v-.866h1.088V1.31l1.121-.3v1.776h1.554v.866h-1.554v2.753q0 .621.222.888.222.266.644.266.21 0 .366-.033.166-.045.3-.1v.91q-.166.067-.389.1-.222.045-.421.044m6.958 0a2.45 2.45 0 0 1-1.299-.344 2.3 2.3 0 0 1-.866-.999q-.3-.654-.3-1.554 0-.91.3-1.554a2.3 2.3 0 0 1 .866-.988q.566-.355 1.299-.355.722 0 1.265.366.556.356.733.977h-.133V.211h1.12v8.17h-1.11V7.114h.134q-.189.633-.733.999-.543.366-1.276.366m.277-.877q.722 0 1.166-.51t.444-1.51-.444-1.498q-.444-.51-1.166-.51-.732 0-1.176.51-.433.5-.433 1.498 0 1 .433 1.51.444.51 1.176.51m4.755-4.373-.488-.377q.322-.334.433-.622.122-.3.122-.6l.3.234h-.933V.555h1.321v.899q0 .5-.166.932-.166.423-.588.844m2.224 5.15V2.786h1.12V8.38zm-.089-6.76V.455h1.299V1.62zm2.853 6.76V4.13a7 7 0 0 0-.033-.656q-.023-.345-.056-.688h1.088l.1 1.177h-.133q.233-.61.71-.944.489-.333 1.166-.333.688 0 1.12.333.445.322.611 1h-.177q.222-.612.754-.967a2.12 2.12 0 0 1 1.233-.366q.931 0 1.398.544.465.544.466 1.687V8.38h-1.12V4.973q0-.733-.256-1.055-.245-.333-.8-.333-.643 0-1.02.444-.378.444-.378 1.199V8.38h-1.121V4.973q0-.733-.255-1.055-.245-.333-.8-.333-.643 0-1.01.444-.366.444-.366 1.199V8.38zm9.853 0V4.13a7 7 0 0 0-.033-.656q-.022-.345-.055-.688h1.087l.1 1.177h-.133q.233-.61.71-.944.49-.333 1.166-.333.688 0 1.121.333.445.322.61 1h-.177q.222-.612.755-.967a2.12 2.12 0 0 1 1.232-.366q.932 0 1.398.544.467.544.467 1.687V8.38h-1.121V4.973q0-.733-.256-1.055-.244-.333-.799-.333-.645 0-1.021.444-.377.444-.377 1.199V8.38h-1.122V4.973q0-.733-.255-1.055-.245-.333-.8-.333-.642 0-1.01.444-.365.444-.365 1.199V8.38zm9.854 0V2.786h1.12V8.38zm-.089-6.76V.455h1.299V1.62zm5.373 9.247q-.755 0-1.377-.178a3.5 3.5 0 0 1-1.099-.533l.278-.821q.344.232.677.366.333.144.7.211.365.067.754.067.799 0 1.199-.41.41-.4.41-1.166V6.904h.112a1.72 1.72 0 0 1-.733.988 2.26 2.26 0 0 1-1.265.355q-.767 0-1.332-.333a2.34 2.34 0 0 1-.866-.966q-.3-.632-.3-1.487t.3-1.476q.31-.622.866-.955.566-.344 1.332-.344.732 0 1.265.366.544.356.721.977l-.1-.089.1-1.154h1.088a11 11 0 0 0-.088 1.343v4.14q0 1.266-.678 1.932-.666.666-1.964.666m-.078-3.497q.732 0 1.166-.5.443-.498.444-1.409 0-.91-.444-1.399-.434-.488-1.166-.488-.755 0-1.199.488-.433.489-.433 1.4t.433 1.409q.444.5 1.199.5m4.332 1.01V4.173q0-.343-.022-.688-.01-.356-.044-.699h1.088l.122 1.443h-.178q.111-.522.377-.866.267-.345.644-.51a2.04 2.04 0 0 1 1.11-.145q.123.011.244.045l-.011.999a1.1 1.1 0 0 0-.333-.09 2 2 0 0 0-.333-.021q-.488 0-.832.222-.344.21-.522.577a1.8 1.8 0 0 0-.177.788V8.38zm6.295.1q-.744 0-1.299-.344t-.866-.999q-.299-.654-.299-1.554 0-.91.299-1.554.311-.643.866-.988.555-.355 1.299-.355.733 0 1.276.366.544.367.722 1h-.122l.111-1.266h1.088l-.067.688a10 10 0 0 0-.022.655V8.38h-1.121V7.137h.122a1.72 1.72 0 0 1-.733.988 2.24 2.24 0 0 1-1.254.355m.277-.877q.721 0 1.155-.51.444-.51.444-1.51 0-.999-.444-1.498-.434-.51-1.155-.51-.732 0-1.176.51-.433.5-.433 1.498 0 1 .433 1.51t1.176.51m6.52.877q-.91 0-1.376-.488-.466-.5-.466-1.488V3.652h-1.088v-.866h1.088V1.31l1.121-.3v1.776h1.554v.866H109.3v2.753q0 .621.222.888.221.266.644.266.21 0 .366-.033.166-.045.3-.1v.91a1.8 1.8 0 0 1-.389.1q-.222.045-.422.044m1.857-.1V2.786h1.121V8.38zm-.089-6.76V.455h1.299V1.62zm5.251 6.86q-.833 0-1.443-.344a2.4 2.4 0 0 1-.944-.999q-.333-.654-.333-1.554t.333-1.543q.333-.655.944-.999.61-.355 1.443-.355.832 0 1.443.355.621.345.954 1 .345.643.345 1.542 0 .9-.345 1.554-.333.644-.954 1-.61.343-1.443.343m0-.877q.732 0 1.165-.51t.433-1.51-.433-1.498q-.433-.51-1.165-.51-.721 0-1.155.51-.432.5-.432 1.498 0 1 .421 1.51.433.51 1.166.51m4.052.777V4.13a7 7 0 0 0-.033-.656q-.023-.345-.056-.688h1.088l.1 1.177h-.133q.255-.623.788-.944a2.28 2.28 0 0 1 1.232-.333q.987 0 1.487.544.511.544.511 1.687V8.38h-1.121V4.984q0-.744-.3-1.066-.288-.333-.888-.333-.71 0-1.132.444-.422.433-.422 1.177V8.38z"/><path fill="var(--fl-fgColor, #a93031)" d="M15.765 74.76v-7.826h1.154v6.838h3.841v.988zm8.167.1q-.744 0-1.299-.344a2.3 2.3 0 0 1-.866-1q-.3-.654-.3-1.553 0-.91.3-1.554a2.3 2.3 0 0 1 .866-.988q.555-.356 1.299-.356.732 0 1.277.367.544.366.721.999h-.122l.11-1.266h1.089l-.067.689q-.022.333-.022.654v4.252h-1.121v-1.243h.122a1.72 1.72 0 0 1-.733.987q-.543.356-1.254.356m.277-.877q.722 0 1.155-.51.444-.511.444-1.51 0-1-.444-1.499-.433-.51-1.155-.51-.732 0-1.176.51-.433.5-.433 1.499t.433 1.51q.432.51 1.176.51m4.345.777v-4.252a7 7 0 0 0-.034-.654q-.022-.345-.055-.689h1.088l.1 1.177h-.133q.255-.621.788-.944a2.3 2.3 0 0 1 1.232-.332q.987 0 1.487.543.51.544.51 1.688v3.463h-1.12v-3.397q0-.743-.3-1.065-.288-.333-.888-.333-.71 0-1.132.444-.423.432-.422 1.176v3.175zm9.1 2.486q-.756 0-1.377-.177a3.5 3.5 0 0 1-1.099-.533l.278-.822q.344.234.677.367.333.144.699.21.366.067.755.067.799 0 1.198-.41.411-.4.411-1.166v-1.498h.111a1.72 1.72 0 0 1-.732.987 2.26 2.26 0 0 1-1.266.356q-.765 0-1.332-.333a2.34 2.34 0 0 1-.866-.966q-.3-.633-.3-1.487t.3-1.477q.311-.621.866-.954.567-.345 1.332-.344.733 0 1.266.366.544.355.721.977l-.1-.09.1-1.154h1.088a11 11 0 0 0-.089 1.343v4.14q0 1.266-.677 1.932-.666.666-1.965.666m-.078-3.496q.732 0 1.165-.5.444-.5.444-1.41t-.444-1.398q-.432-.488-1.165-.488-.755 0-1.2.488-.432.489-.432 1.399 0 .909.433 1.41.444.498 1.199.499m6.341 1.11q-1.01 0-1.52-.544-.5-.555-.5-1.698v-3.453h1.12v3.43q0 .699.29 1.033.288.333.876.333.666 0 1.077-.444t.41-1.177v-3.175h1.122v5.595h-1.088V73.56h.144a1.96 1.96 0 0 1-.743.966q-.51.333-1.188.333m7.103 0q-1.354 0-2.13-.766-.778-.766-.778-2.12 0-.878.333-1.532a2.5 2.5 0 0 1 .944-1.01q.61-.367 1.41-.367.787 0 1.32.334.533.333.81.943.278.6.278 1.42v.356h-4.218v-.644h3.452l-.189.144q0-.832-.377-1.287-.367-.465-1.066-.466-.777 0-1.198.544-.422.532-.422 1.476v.11q0 .99.477 1.488.489.5 1.377.5.488 0 .91-.133a2.6 2.6 0 0 0 .821-.467l.366.766q-.388.344-.943.533-.555.178-1.177.178"/><path fill="var(--fl-bgColor, #f6f5f2)" stroke="var(--fl-fgColor, transparent)" d="M146.755 20.039h35v22h-35z"/><path fill="var(--fl-fgColor, #a93031)" d="M154.053 30.039v-4.681h.69v4.68zm1.729 0v-2.543q0-.194-.02-.392a10 10 0 0 0-.033-.412h.651l.06.704h-.08a1.2 1.2 0 0 1 .425-.564q.292-.2.697-.2.412 0 .671.2.266.192.365.597h-.106q.132-.365.451-.577a1.27 1.27 0 0 1 .737-.22q.558 0 .837.326.279.325.279 1.009v2.072h-.671V28q0-.438-.153-.63-.145-.2-.478-.2a.76.76 0 0 0-.611.266q-.225.266-.225.717v1.886h-.671V28q0-.438-.153-.63-.145-.2-.478-.2-.385 0-.604.266t-.219.717v1.886zm5.894 1.434v-3.977q0-.194-.019-.392-.013-.206-.034-.412h.651l.066.757h-.073q.107-.378.425-.598.326-.219.771-.219.444 0 .776.213.333.206.512.59.186.386.186.93 0 .538-.186.93-.18.392-.512.597-.332.206-.776.206-.439 0-.764-.212a1.05 1.05 0 0 1-.425-.591h.073v2.178zm1.621-1.9q.438 0 .697-.305.265-.304.265-.903 0-.597-.265-.896-.26-.306-.697-.305a.89.89 0 0 0-.704.305q-.26.3-.259.896 0 .599.259.903a.89.89 0 0 0 .704.306m3.707.525q-.445 0-.777-.206a1.4 1.4 0 0 1-.518-.597 2.2 2.2 0 0 1-.179-.93q0-.544.179-.93.186-.384.518-.59a1.4 1.4 0 0 1 .777-.213q.438 0 .764.22.325.219.431.597h-.073l.067-.757h.65l-.04.412a7 7 0 0 0-.013.392v2.543h-.67v-.744h.073a1.03 1.03 0 0 1-.439.59 1.34 1.34 0 0 1-.75.213m.166-.524a.86.86 0 0 0 .691-.306q.265-.304.265-.903 0-.597-.265-.896a.86.86 0 0 0-.691-.305.89.89 0 0 0-.704.305q-.258.3-.259.896 0 .599.259.903.259.306.704.306m4.066.524a1.8 1.8 0 0 1-.883-.206 1.47 1.47 0 0 1-.578-.604 2.1 2.1 0 0 1-.199-.943q0-.538.206-.922.206-.386.578-.585.371-.206.876-.206.325 0 .631.113.305.107.504.306l-.219.471a1.2 1.2 0 0 0-.418-.265 1.2 1.2 0 0 0-.451-.093q-.478 0-.751.305-.272.306-.272.883 0 .585.272.896.273.312.751.313.211 0 .444-.08.233-.087.425-.272l.219.471a1.4 1.4 0 0 1-.517.312q-.306.105-.618.106m3.154 0q-.544 0-.823-.292-.279-.299-.279-.89V27.21h-.651v-.518h.651v-.883l.67-.18v1.063h.93v.518h-.93v1.647q0 .372.133.53.133.16.385.16.126 0 .219-.02.1-.025.18-.06v.545a1 1 0 0 1-.233.06 1.3 1.3 0 0 1-.252.026m-23.033 7.94v-2.542q0-.194-.02-.392a14 14 0 0 0-.033-.412h.651l.059.704h-.079q.139-.365.425-.564.291-.2.697-.2.411 0 .67.2.266.192.366.597h-.107q.133-.365.452-.578.318-.219.737-.219.558 0 .836.326.279.325.279 1.009v2.072h-.67V36q0-.438-.153-.63-.146-.2-.478-.2a.76.76 0 0 0-.611.266q-.226.266-.226.717v1.886h-.67V36q0-.438-.153-.63-.146-.2-.478-.2-.385 0-.604.266t-.219.717v1.886zm7.176.06q-.446 0-.777-.206a1.37 1.37 0 0 1-.518-.597 2.2 2.2 0 0 1-.179-.93q0-.544.179-.93a1.38 1.38 0 0 1 1.295-.803q.438 0 .763.22.325.219.432.597h-.073l.066-.757h.651l-.04.412a6 6 0 0 0-.013.392v2.543h-.671v-.744h.073a1.03 1.03 0 0 1-.438.59 1.34 1.34 0 0 1-.75.213m.166-.524a.86.86 0 0 0 .69-.306q.266-.304.266-.903 0-.597-.266-.896a.86.86 0 0 0-.69-.305.89.89 0 0 0-.704.305q-.26.3-.259.896 0 .599.259.903.258.306.704.306m2.12.465 1.521-1.886v.319l-1.441-1.78h.803L162.718 36h-.239l1.016-1.308h.797l-1.428 1.773v-.306l1.514 1.88h-.803l-1.096-1.401h.239l-1.102 1.4zm4.07 0v-3.347h.671v3.347zm-.053-4.044v-.697h.777v.697zm1.707 4.044v-2.543q0-.194-.02-.392a14 14 0 0 0-.033-.412h.65l.06.704h-.08a1.2 1.2 0 0 1 .425-.564q.293-.2.698-.2.411 0 .67.2.266.192.365.597h-.106q.133-.365.452-.578.318-.219.737-.219.557 0 .836.326.279.325.279 1.009v2.072h-.67V36q0-.438-.153-.63-.147-.2-.478-.2a.76.76 0 0 0-.611.266q-.226.266-.226.717v1.886h-.67V36q0-.438-.153-.63-.147-.2-.478-.2-.385 0-.604.266-.22.266-.22.717v1.886zm7.175.06q-.444-.001-.776-.206a1.37 1.37 0 0 1-.518-.598 2.2 2.2 0 0 1-.18-.93q0-.544.18-.93a1.38 1.38 0 0 1 1.294-.803q.439 0 .764.22.326.219.432.597h-.074l.067-.757h.651l-.04.412a6 6 0 0 0-.014.392v2.543h-.67v-.744h.073a1.03 1.03 0 0 1-.438.59 1.34 1.34 0 0 1-.751.213m.166-.525a.86.86 0 0 0 .691-.306q.265-.304.265-.903 0-.597-.265-.896a.86.86 0 0 0-.691-.305.89.89 0 0 0-.703.305q-.26.3-.259.896 0 .599.259.903.258.306.703.306m2.599.465v-4.887h.671v4.887z"/><path fill="var(--fl-bgColor, #f6f5f2)" stroke="var(--fl-fgColor, transparent)" d="M146.755 101.039h35v22h-35z"/><path fill="var(--fl-fgColor, #a93031)" d="M154.053 111.039v-4.681h.69v4.681zm1.729 0v-2.543a4 4 0 0 0-.02-.392 10 10 0 0 0-.033-.412h.651l.06.704h-.08q.14-.366.425-.564.292-.2.697-.2.412 0 .671.2.266.192.365.597h-.106a1.15 1.15 0 0 1 .451-.578 1.27 1.27 0 0 1 .737-.219q.558 0 .837.326.279.325.279 1.009v2.072h-.671V109q0-.438-.153-.631-.145-.198-.478-.199a.76.76 0 0 0-.611.266q-.225.266-.225.717v1.886h-.671V109q0-.438-.153-.631-.145-.198-.478-.199-.385 0-.604.266t-.219.717v1.886zm5.894 1.434v-3.977q0-.193-.019-.392-.013-.206-.034-.412h.651l.066.757h-.073q.107-.378.425-.598.326-.219.771-.219.444 0 .776.213.333.206.512.591.186.385.186.929 0 .538-.186.93-.18.391-.512.597-.332.207-.776.206-.439 0-.764-.212a1.05 1.05 0 0 1-.425-.591h.073v2.178zm1.621-1.899q.438 0 .697-.306.265-.305.265-.903 0-.597-.265-.896-.26-.305-.697-.305a.88.88 0 0 0-.704.305q-.26.299-.259.896 0 .598.259.903a.89.89 0 0 0 .704.306m3.707.524q-.445 0-.777-.206a1.38 1.38 0 0 1-.518-.597 2.2 2.2 0 0 1-.179-.93q0-.544.179-.929a1.38 1.38 0 0 1 1.295-.804q.438 0 .764.219.325.22.431.598h-.073l.067-.757h.65l-.04.412a7 7 0 0 0-.013.392v2.543h-.67v-.744h.073a1.03 1.03 0 0 1-.439.591 1.34 1.34 0 0 1-.75.212m.166-.524a.86.86 0 0 0 .691-.306q.265-.305.265-.903 0-.597-.265-.896a.86.86 0 0 0-.691-.305.89.89 0 0 0-.704.305q-.258.299-.259.896 0 .598.259.903t.704.306m4.066.524q-.505 0-.883-.206a1.47 1.47 0 0 1-.578-.604 2.1 2.1 0 0 1-.199-.943q0-.537.206-.922.206-.386.578-.585.371-.206.876-.206.325 0 .631.113.305.106.504.306l-.219.471a1.2 1.2 0 0 0-.418-.265 1.2 1.2 0 0 0-.451-.093q-.478 0-.751.305-.272.306-.272.883 0 .584.272.896.273.312.751.313.211 0 .444-.08.233-.087.425-.272l.219.471a1.4 1.4 0 0 1-.517.312q-.306.106-.618.106m3.154 0q-.544 0-.823-.292-.279-.299-.279-.89v-1.706h-.651v-.518h.651v-.883l.67-.179v1.062h.93v.518h-.93v1.647q0 .372.133.531t.385.159q.126 0 .219-.02.1-.026.18-.059v.544a1 1 0 0 1-.233.06 1.3 1.3 0 0 1-.252.026m-22.009 7.941v-2.543q0-.193-.019-.392-.013-.206-.034-.412h.651l.06.704h-.08q.14-.366.425-.564.292-.2.697-.2.412 0 .671.2.266.192.365.597h-.106a1.15 1.15 0 0 1 .451-.578 1.27 1.27 0 0 1 .737-.219q.558 0 .837.326.279.325.279 1.009v2.072h-.671V117q0-.438-.153-.631-.145-.198-.478-.199a.76.76 0 0 0-.61.266q-.226.266-.226.717v1.886h-.671V117q0-.438-.153-.631-.145-.198-.478-.199-.385 0-.604.266t-.219.717v1.886zm5.895 0v-3.347h.67v3.347zm-.054-4.044v-.697h.777v.697zm1.707 4.044v-2.543a4 4 0 0 0-.02-.392q-.013-.206-.033-.412h.651l.059.704h-.079a1.14 1.14 0 0 1 .471-.564q.319-.2.737-.2.591 0 .89.326.305.325.305 1.009v2.072h-.67v-2.032q0-.445-.18-.638-.173-.198-.531-.199-.425 0-.677.266-.252.258-.252.704v1.899zm3.936 0v-3.347h.67v3.347zm-.053-4.044v-.697h.777v.697zm1.706 4.044v-2.543a4 4 0 0 0-.02-.392q-.013-.206-.033-.412h.651l.06.704h-.08q.14-.366.425-.564.292-.2.697-.2.412 0 .671.2.265.192.365.597h-.106a1.15 1.15 0 0 1 .451-.578 1.27 1.27 0 0 1 .737-.219q.558 0 .837.326.279.325.279 1.009v2.072h-.671V117q0-.438-.153-.631-.145-.198-.478-.199a.76.76 0 0 0-.611.266q-.225.266-.225.717v1.886h-.671V117q0-.438-.153-.631-.145-.198-.478-.199-.385 0-.604.266t-.219.717v1.886zm7.176.059q-.445 0-.777-.206a1.38 1.38 0 0 1-.518-.597 2.2 2.2 0 0 1-.179-.93q0-.544.179-.929a1.38 1.38 0 0 1 1.295-.804q.439 0 .763.219.326.22.432.598h-.073l.066-.757h.651l-.04.412a6 6 0 0 0-.013.392v2.543h-.671v-.744h.073q-.106.372-.438.591a1.34 1.34 0 0 1-.75.212m.166-.524a.86.86 0 0 0 .69-.306q.266-.305.266-.903 0-.597-.266-.896a.86.86 0 0 0-.69-.305.89.89 0 0 0-.704.305q-.26.299-.259.896 0 .598.259.903t.704.306m2.598.465v-4.887h.671v4.887z"/></svg>