<svg xmlns="http://www.w3.org/2000/svg" width="357" height="256" fill="none" viewBox="0 0 357 256">
    <circle fill="var(--fi-wheel-dark, #e8b91c)" stroke="var(--fi-wheel-border, #4a4021)" cx="174.694" cy="113.325" r="99.305" stroke-dasharray="0.5 0.5" stroke-width=".5" />
    <circle fill="var(--fi-wheel-medium, #f6d872)" stroke="var(--fi-wheel-border, #4a4021)" cx="174.822" cy="113.453" r="75.51" stroke-dasharray="0.5 0.5" stroke-width=".5" />
    <circle fill="var(--fi-wheel-light, #f9eec6)" stroke="var(--fi-wheel-border, #4a4021)" cx="174.822" cy="113.454" r="47.212" stroke-dasharray="0.5 0.5" stroke-width=".5" />
    <path fill="var(--fi-wheel-arrow, #a93031)" d="M175.198 2.787a.3.3 0 0 0-.427 0l-1.92 1.92a.302.302 0 1 0 .427.427l1.707-1.707 1.707 1.707a.302.302 0 0 0 .427-.427zm-.427 99.117a.3.3 0 0 0 .427 0l1.921-1.92a.302.302 0 1 0-.427-.427l-1.707 1.707-1.707-1.707a.302.302 0 0 0-.427.426zM174.985 3h-.302v98.691h.604V3z" />
    <path stroke="var(--fi-wheel-slice-outline, #997d1e)" stroke-dasharray="0.6 0.6" stroke-width=".302" d="M274.279 113.311H75.389M174.834 212.755V13.865M104.354 183.479 244.812 43.021M104.825 43.277l139.943 139.944" />
    <path fill="var(--fi-wheel-content-emphasis, #a93031)" d="M279.619 157.585v-7.825h3.319q1.254 0 1.92.61.678.6.677 1.665 0 1.067-.677 1.677-.666.61-1.92.61h-2.164v3.263zm1.155-4.184h2.042q.787 0 1.188-.355.399-.356.399-1.011 0-.643-.399-.999-.4-.355-1.188-.355h-2.042zm8.189 4.284q-.833 0-1.443-.344a2.4 2.4 0 0 1-.944-.999q-.333-.654-.333-1.554 0-.898.333-1.543.333-.654.944-.999.61-.354 1.443-.355.833 0 1.443.355.621.345.954.999.345.645.344 1.543 0 .9-.344 1.554-.333.643-.954.999-.61.344-1.443.344m0-.877q.733 0 1.165-.51.433-.511.433-1.51t-.433-1.498q-.433-.511-1.165-.511-.721 0-1.155.511-.433.5-.433 1.498 0 .999.422 1.51.433.51 1.166.51m4.052.777v-8.169h1.121v8.169zm2.764 0v-5.594h1.121v5.594zm-.089-6.759v-1.166h1.299v1.166zm5.029 6.859q-.91 0-1.377-.488-.466-.5-.466-1.487v-2.853h-1.088v-.866h1.088v-1.476l1.121-.3v1.776h1.554v.866h-1.554v2.753q0 .621.222.888.222.266.644.266.212 0 .366-.033a3 3 0 0 0 .3-.1v.91q-.166.067-.388.1-.222.044-.422.044m1.857-.1v-5.594h1.121v5.594zm-.089-6.759v-1.166h1.299v1.166zm6.86 9.157v-3.641h.122a1.72 1.72 0 0 1-.733.988q-.543.355-1.254.355-.744 0-1.299-.344a2.3 2.3 0 0 1-.865-.999q-.3-.654-.3-1.554 0-.91.3-1.554.31-.643.865-.988.555-.354 1.299-.355.732 0 1.277.366.543.368.721.999h-.122l.111-1.265h1.088l-.067.688a10 10 0 0 0-.022.655v6.649zm-1.587-3.175q.721 0 1.154-.51.444-.511.444-1.51t-.444-1.498q-.433-.511-1.154-.511-.733 0-1.177.511-.433.5-.433 1.498 0 .999.433 1.51.433.51 1.177.51m6.331.877q-1.011 0-1.521-.544-.5-.555-.499-1.698v-3.452h1.121v3.43q0 .699.288 1.032.29.333.877.333.666 0 1.077-.444t.411-1.176v-3.175h1.121v5.594h-1.088v-1.198h.144a1.95 1.95 0 0 1-.744.965q-.51.333-1.187.333m7.103 0q-1.354 0-2.131-.766-.777-.765-.777-2.12 0-.876.333-1.531.344-.656.943-1.011.61-.366 1.41-.366.788 0 1.321.333t.81.944q.278.599.278 1.42v.356h-4.218v-.644h3.452l-.189.144q0-.833-.377-1.287-.367-.467-1.066-.467-.776 0-1.199.544-.421.533-.421 1.477v.111q0 .987.477 1.487.488.5 1.376.499.489 0 .91-.133.433-.144.822-.466l.366.766a2.7 2.7 0 0 1-.943.533q-.555.177-1.177.177m5.394 0q-.7 0-1.288-.177a2.8 2.8 0 0 1-.977-.5l.344-.766q.41.311.91.467.5.155 1.022.155.61 0 .921-.211a.7.7 0 0 0 .311-.599.6.6 0 0 0-.2-.467q-.189-.177-.633-.266l-1.065-.211q-.711-.155-1.077-.533-.366-.377-.366-.965 0-.5.266-.888.278-.389.777-.611.51-.222 1.188-.222.621 0 1.154.178.533.177.888.51l-.355.744a2.5 2.5 0 0 0-.777-.444 2.4 2.4 0 0 0-.877-.166q-.621 0-.921.233t-.3.61q0 .29.178.477.188.178.588.278l1.066.211q.754.155 1.132.51t.377.955q0 .522-.288.91a1.8 1.8 0 0 1-.8.589q-.51.2-1.198.199m-35.463 13q-.733 0-1.299-.344a2.3 2.3 0 0 1-.866-.999q-.3-.654-.299-1.554 0-.91.299-1.554.31-.643.866-.988.566-.354 1.299-.355.722 0 1.265.366.555.356.733.977h-.133v-3.818h1.121v8.169h-1.11v-1.265h.133q-.189.633-.733.999t-1.276.366m.277-.877q.722 0 1.166-.51.444-.511.444-1.51t-.444-1.498q-.444-.511-1.166-.511-.732 0-1.176.511-.433.5-.433 1.498 0 .999.433 1.51.444.51 1.176.51m4.755-4.373-.488-.377q.321-.334.433-.622.122-.3.122-.599l.3.233h-.933v-1.31h1.321v.899q0 .5-.166.932-.167.423-.589.844m4.366 5.25q-.744 0-1.299-.344t-.866-.999q-.299-.654-.299-1.554 0-.91.299-1.554a2.3 2.3 0 0 1 .866-.988q.555-.354 1.299-.355.732 0 1.276.366.545.368.722.999h-.122l.111-1.265h1.088l-.067.688a10 10 0 0 0-.022.655v4.251h-1.121v-1.243h.122a1.72 1.72 0 0 1-.733.988q-.543.355-1.254.355m.277-.877q.722 0 1.155-.51.444-.511.444-1.51t-.444-1.498q-.433-.511-1.155-.511-.732 0-1.176.511-.433.5-.433 1.498 0 .999.433 1.51.433.51 1.176.51m4.345.777v-5.594h1.121v5.594zm-.089-6.759v-1.166h1.299v1.166zm4.995 6.859q-.732 0-1.299-.344a2.3 2.3 0 0 1-.865-.999q-.3-.654-.3-1.554 0-.91.3-1.554.31-.643.865-.988a2.4 2.4 0 0 1 1.299-.355q.722 0 1.266.366.555.356.732.977h-.133v-3.818h1.121v8.169h-1.11v-1.265h.133q-.189.633-.732.999-.544.366-1.277.366m.278-.877q.721 0 1.165-.51.444-.511.444-1.51t-.444-1.498q-.444-.511-1.165-.511-.733 0-1.177.511-.433.5-.433 1.498 0 .999.433 1.51.444.51 1.177.51m6.93.877q-1.354 0-2.131-.766-.777-.765-.777-2.12 0-.876.333-1.531.344-.656.943-1.011.61-.366 1.41-.366.789 0 1.321.333.533.333.81.944.278.599.278 1.42v.356h-4.218v-.644h3.452l-.189.144q0-.833-.377-1.287-.367-.467-1.066-.467-.776 0-1.199.544-.421.533-.421 1.477v.111q0 .987.477 1.487.489.5 1.376.499.489 0 .911-.133.432-.144.821-.466l.366.766a2.7 2.7 0 0 1-.943.533 3.9 3.9 0 0 1-1.177.177m-28.416 13a4.5 4.5 0 0 1-1.287-.177 2.8 2.8 0 0 1-.977-.5l.344-.766q.41.311.91.467.5.155 1.021.155.61 0 .922-.211a.7.7 0 0 0 .31-.599.6.6 0 0 0-.199-.467q-.189-.177-.633-.266l-1.066-.211q-.71-.155-1.076-.533-.367-.377-.367-.965 0-.5.267-.888.277-.389.777-.611.51-.222 1.187-.222.623 0 1.155.178.533.177.888.51l-.355.744a2.6 2.6 0 0 0-.777-.444 2.4 2.4 0 0 0-.877-.166q-.622 0-.922.233a.74.74 0 0 0-.299.61q0 .29.177.477.189.178.589.278l1.065.211q.755.155 1.132.51.378.355.378.955 0 .522-.289.91a1.8 1.8 0 0 1-.799.589q-.51.2-1.199.199m6.006 0q-.833 0-1.443-.344a2.4 2.4 0 0 1-.944-.999q-.333-.654-.333-1.554 0-.898.333-1.543.333-.654.944-.999.61-.355 1.443-.355t1.443.355q.621.345.954.999.345.645.345 1.543 0 .9-.345 1.554-.333.644-.954.999-.61.344-1.443.344m0-.877q.733 0 1.165-.51.433-.511.433-1.51t-.433-1.498q-.433-.511-1.165-.511-.721 0-1.155.511-.432.5-.432 1.498 0 .999.421 1.51.433.51 1.166.51m6.505.877q-.843 0-1.476-.344a2.44 2.44 0 0 1-.966-1.01q-.333-.666-.333-1.576 0-.899.344-1.543t.966-.977q.622-.344 1.465-.344.544 0 1.055.189.51.177.843.51l-.366.789q-.31-.3-.699-.444a2 2 0 0 0-.755-.156q-.8 0-1.255.511-.455.51-.455 1.476 0 .977.455 1.499.456.52 1.255.521.355 0 .743-.133.389-.144.711-.455l.366.788a2.4 2.4 0 0 1-.866.522q-.51.177-1.032.177m3.086-.1v-5.594h1.121v5.594zm-.089-6.759v-1.166h1.299v1.166zm4.996 6.859q-.744 0-1.299-.344a2.3 2.3 0 0 1-.866-.999q-.3-.654-.3-1.554 0-.91.3-1.554.31-.643.866-.988.555-.355 1.299-.355.732 0 1.276.366.544.368.722.999h-.123l.111-1.265h1.088l-.066.688a10 10 0 0 0-.023.655v4.251h-1.121v-1.243h.122a1.7 1.7 0 0 1-.732.988 2.24 2.24 0 0 1-1.254.355m.277-.877q.722 0 1.154-.51.444-.511.444-1.51t-.444-1.498q-.432-.511-1.154-.511-.732 0-1.177.511-.432.5-.432 1.498 0 .999.432 1.51.433.51 1.177.51m4.344.777v-8.169h1.121v8.169zm5.351.1q-1.354 0-2.131-.766-.777-.765-.777-2.12 0-.876.333-1.531.343-.656.943-1.011.61-.366 1.41-.366.787 0 1.321.333t.81.944q.277.599.277 1.42v.356h-4.218v-.644h3.453l-.189.144q0-.833-.378-1.287-.366-.467-1.065-.467-.777 0-1.199.544-.422.533-.422 1.477v.111q0 .987.478 1.487.488.5 1.376.499.489 0 .91-.133.433-.144.822-.466l.366.766a2.7 2.7 0 0 1-.944.533q-.555.177-1.176.177" />
    <path fill="var(--fi-wheel-content, #161616)" d="M225.777 233.211q-1.199 0-2.042-.489a3.26 3.26 0 0 1-1.299-1.387q-.444-.91-.444-2.142 0-1.233.444-2.132a3.26 3.26 0 0 1 1.299-1.387q.843-.489 2.042-.489.833 0 1.487.245.655.243 1.144.71l-.4.921a3.8 3.8 0 0 0-1.043-.655 3.1 3.1 0 0 0-1.166-.199q-1.265 0-1.931.777t-.666 2.209.666 2.22q.666.777 1.931.777.666 0 1.166-.2.51-.2 1.043-.666l.4.921a3.5 3.5 0 0 1-1.144.722 4.3 4.3 0 0 1-1.487.244m5.987 0q-.833 0-1.443-.344a2.4 2.4 0 0 1-.943-.999q-.333-.656-.333-1.554 0-.9.333-1.543a2.3 2.3 0 0 1 .943-.999q.61-.355 1.443-.355t1.443.355a2.3 2.3 0 0 1 .955.999q.344.643.344 1.543 0 .898-.344 1.554a2.4 2.4 0 0 1-.955.999q-.61.344-1.443.344m0-.877q.733 0 1.166-.511.433-.51.433-1.509 0-1-.433-1.499-.433-.51-1.166-.51-.721 0-1.154.51-.433.5-.433 1.499t.422 1.509q.433.511 1.165.511m6.039.877q-1.01 0-1.52-.544-.5-.555-.5-1.698v-3.453h1.121v3.43q0 .7.289 1.033t.877.333q.666 0 1.077-.444.41-.445.41-1.177v-3.175h1.121v5.595h-1.087v-1.199h.144a1.96 1.96 0 0 1-.744.966q-.51.333-1.188.333m-1.287-6.25 1.221-2.242h1.021l1.221 2.242h-.744l-.988-1.554-.987 1.554zm7.98 6.25q-.91 0-1.376-.489-.467-.499-.467-1.487v-2.853h-1.087v-.866h1.087v-1.476l1.122-.3v1.776h1.554v.866h-1.554v2.753q0 .621.222.888.222.266.643.266.211 0 .367-.033.167-.044.299-.1v.91a1.7 1.7 0 0 1-.388.1q-.222.045-.422.045m6.958 0q-.732 0-1.298-.344a2.3 2.3 0 0 1-.866-.999q-.3-.656-.3-1.554 0-.91.3-1.554.31-.645.866-.988.566-.355 1.298-.355.721 0 1.266.366.555.355.732.977h-.133v-3.819h1.121v8.17h-1.11v-1.266h.134q-.189.633-.733.999-.544.367-1.277.367m.278-.877q.721 0 1.165-.511.444-.51.444-1.509 0-1-.444-1.499-.444-.51-1.165-.51-.732 0-1.177.51-.433.5-.433 1.499t.433 1.509q.445.511 1.177.511m6.931.877q-1.355 0-2.132-.766t-.777-2.12q0-.877.333-1.532.344-.655.944-1.01.61-.366 1.41-.366.787 0 1.32.333.534.333.811.943.277.6.277 1.421v.355h-4.218v-.644h3.452l-.188.145q0-.833-.378-1.288-.366-.466-1.065-.466-.777 0-1.199.544-.422.532-.422 1.476v.111q0 .988.477 1.487.489.5 1.377.5.488 0 .91-.133.433-.145.821-.467l.367.766q-.389.344-.944.533-.555.178-1.176.178m6.432-.1v-8.17h1.121v8.17zm4.906.1q-.743 0-1.298-.344a2.3 2.3 0 0 1-.866-.999q-.3-.656-.3-1.554 0-.91.3-1.554.31-.645.866-.988.555-.355 1.298-.355.733 0 1.277.366t.721.999h-.122l.111-1.266h1.088l-.066.689q-.023.333-.023.655v4.251h-1.121v-1.243h.122a1.72 1.72 0 0 1-.732.988 2.25 2.25 0 0 1-1.255.355m.278-.877q.722 0 1.154-.511.444-.51.444-1.509 0-1-.444-1.499-.432-.51-1.154-.51-.732 0-1.177.51-.433.5-.433 1.499t.433 1.509 1.177.511m-27.638 13.777-2.398-5.595h1.199l1.887 4.674h-.322l1.92-4.674h1.144l-2.409 5.595zm4.319 0v-5.595h1.121v5.595zm-.089-6.76v-1.166h1.299v1.166zm5.439 6.86q-1.353 0-2.131-.766t-.777-2.12q0-.877.333-1.532.345-.655.944-1.01.61-.366 1.409-.366.789 0 1.321.333.533.333.811.943.277.6.277 1.421v.355h-4.218v-.644h3.452l-.189.145q0-.833-.377-1.288-.366-.466-1.066-.466-.777 0-1.198.544-.423.532-.422 1.476v.111q0 .988.477 1.487.489.5 1.377.5.488 0 .91-.133.432-.145.821-.467l.366.766q-.388.344-.943.533a3.8 3.8 0 0 1-1.177.178" />
    <path fill="var(--fi-wheel-content-emphasis, #a93031)" d="M279.869 67.52a5.9 5.9 0 0 1-1.709-.233 4.2 4.2 0 0 1-1.332-.689l.388-.91q.378.29.777.478.411.188.866.288.467.09 1.01.089.933 0 1.366-.333.444-.333.444-.877 0-.466-.311-.721-.3-.255-1.066-.411l-1.21-.244q-1.077-.222-1.609-.722-.522-.51-.522-1.387a2.1 2.1 0 0 1 .377-1.243q.378-.534 1.044-.822.677-.288 1.576-.288.833-.001 1.532.244a3 3 0 0 1 1.176.699l-.377.877a3.3 3.3 0 0 0-1.066-.633 3.7 3.7 0 0 0-1.287-.21q-.855 0-1.343.355a1.14 1.14 0 0 0-.478.965q0 .489.3.766.311.278 1.021.422l1.21.233q1.122.233 1.654.721.533.478.533 1.321 0 .678-.366 1.188-.356.51-1.022.8-.666.276-1.576.277m6.426 0q-.91 0-1.377-.489-.466-.499-.466-1.487v-2.853h-1.088v-.866h1.088V60.35l1.121-.3v1.776h1.554v.866h-1.554v2.753q0 .622.222.888.222.267.644.267.212 0 .366-.034.166-.045.3-.1v.91q-.166.067-.388.1-.222.045-.422.045m1.857-.1v-5.595h1.121v5.595zm-.089-6.76v-1.165h1.299v1.165zm5.373 9.246q-.755 0-1.377-.177a3.5 3.5 0 0 1-1.099-.533l.278-.822q.344.234.677.367.333.144.699.21.366.067.755.067.799 0 1.199-.41.41-.4.41-1.166v-1.498h.111a1.72 1.72 0 0 1-.732.987 2.27 2.27 0 0 1-1.266.356q-.765 0-1.332-.333a2.33 2.33 0 0 1-.865-.966q-.3-.633-.3-1.487t.3-1.477q.31-.621.865-.954.567-.344 1.332-.344.734 0 1.266.366.544.355.721.977l-.1-.09.1-1.154h1.088a11 11 0 0 0-.089 1.344v4.14q0 1.265-.677 1.931-.666.666-1.964.666m-.078-3.496q.733 0 1.165-.5.444-.5.444-1.41t-.444-1.398q-.433-.489-1.165-.488-.755 0-1.199.488-.433.489-.433 1.399 0 .909.433 1.41.444.498 1.199.499m4.354 1.01v-4.251a7 7 0 0 0-.033-.655q-.022-.345-.055-.689h1.087l.1 1.177h-.133q.233-.61.711-.943.488-.333 1.165-.333.689 0 1.121.333.444.321.611.999h-.178q.222-.611.755-.966a2.12 2.12 0 0 1 1.232-.366q.933-.001 1.399.544.466.543.466 1.687v3.463h-1.121v-3.408q0-.733-.256-1.054-.243-.333-.799-.333-.643 0-1.021.444t-.377 1.198v3.153h-1.122v-3.408q0-.733-.255-1.054-.244-.333-.799-.333-.644 0-1.01.444t-.366 1.198v3.153zm11.996.1q-.744 0-1.299-.344a2.3 2.3 0 0 1-.865-1q-.3-.654-.3-1.553 0-.91.3-1.554.31-.645.865-.988.555-.355 1.299-.355.733 0 1.277.366t.721.999h-.122l.111-1.266h1.088l-.067.689a10 10 0 0 0-.022.655v4.25h-1.121v-1.242h.122a1.72 1.72 0 0 1-.733.988q-.543.355-1.254.355m.278-.877q.721 0 1.154-.51.444-.511.444-1.51 0-1-.444-1.499-.433-.51-1.154-.51-.733 0-1.177.51-.433.5-.433 1.499t.433 1.51q.433.51 1.177.51m6.52.877q-.91 0-1.377-.489-.466-.499-.466-1.487v-2.853h-1.088v-.866h1.088V60.35l1.121-.3v1.776h1.554v.866h-1.554v2.753q0 .622.222.888.222.267.644.267.21 0 .366-.034.166-.045.3-.1v.91a1.8 1.8 0 0 1-.389.1q-.222.045-.421.045m1.856-.1v-5.595h1.121v5.595zm-.088-6.76v-1.165h1.298v1.165zm4.773 6.86q-.7 0-1.288-.178a2.8 2.8 0 0 1-.977-.5l.345-.765q.41.31.91.466t1.021.155q.61 0 .921-.21a.7.7 0 0 0 .311-.6.6.6 0 0 0-.2-.466q-.188-.177-.632-.266l-1.066-.211q-.711-.156-1.077-.533-.366-.378-.366-.966 0-.5.266-.888.277-.388.777-.61a3 3 0 0 1 1.188-.222q.621 0 1.154.177.534.178.888.51l-.355.745a2.5 2.5 0 0 0-.777-.444 2.4 2.4 0 0 0-.877-.167q-.621 0-.921.233t-.3.61q0 .29.178.478.189.177.588.277l1.066.211q.754.156 1.132.51.377.356.377.956 0 .52-.288.91a1.78 1.78 0 0 1-.799.588q-.511.2-1.199.2m5.75 0q-.744 0-1.299-.344a2.3 2.3 0 0 1-.865-1q-.3-.654-.3-1.553 0-.91.3-1.554.31-.645.865-.988.555-.355 1.299-.355.733 0 1.277.366t.721.999h-.122l.111-1.266h1.088l-.067.689a10 10 0 0 0-.022.655v4.25h-1.121v-1.242h.122a1.72 1.72 0 0 1-.733.988q-.543.355-1.254.355m.278-.877q.721 0 1.154-.51.444-.511.444-1.51 0-1-.444-1.499-.433-.51-1.154-.51-.733 0-1.177.51-.433.5-.433 1.499t.433 1.51q.433.51 1.177.51m6.519.877q-.91 0-1.376-.489-.466-.499-.466-1.487v-2.853h-1.088v-.866h1.088V60.35l1.121-.3v1.776h1.554v.866h-1.554v2.753q0 .622.222.888.222.267.644.267.21 0 .366-.034.167-.045.3-.1v.91a1.8 1.8 0 0 1-.389.1q-.222.045-.422.045m1.857-.1v-5.595h1.121v5.595zm-.088-6.76v-1.165h1.298v1.165zm5.25 6.86q-.833 0-1.443-.344a2.4 2.4 0 0 1-.943-1q-.333-.654-.333-1.553 0-.9.333-1.543.333-.655.943-1 .61-.354 1.443-.354.832 0 1.443.355.621.344.955.999.344.643.344 1.543t-.344 1.554q-.333.644-.955.999-.61.344-1.443.344m0-.877q.732 0 1.166-.51.432-.511.432-1.51 0-1-.432-1.499-.434-.51-1.166-.51-.722 0-1.154.51-.433.5-.433 1.499t.422 1.51q.433.51 1.165.51m4.052.777v-4.251a7 7 0 0 0-.033-.655q-.022-.345-.056-.689h1.088l.1 1.177h-.133q.255-.621.788-.943a2.28 2.28 0 0 1 1.232-.333q.988-.001 1.487.544.511.543.511 1.687v3.463h-1.121v-3.397q0-.742-.3-1.065-.288-.333-.888-.333-.71 0-1.132.444-.422.432-.422 1.176v3.175zm-57.705 13.1q-1.354 0-2.131-.766-.777-.765-.777-2.12 0-.877.333-1.532.344-.655.944-1.01.61-.366 1.409-.366.789 0 1.321.333.533.333.81.943.278.6.278 1.42v.356h-4.218v-.644h3.452l-.189.145q0-.833-.377-1.288-.366-.465-1.066-.466-.777 0-1.198.544-.422.532-.422 1.476v.111q0 .988.477 1.487.489.5 1.376.5.489 0 .911-.133.432-.145.821-.467l.366.766q-.388.344-.943.533-.555.178-1.177.178m5.638 0q-.91 0-1.376-.489-.466-.499-.466-1.487v-2.853h-1.088v-.865h1.088v-1.477l1.121-.3v1.776h1.554v.866h-1.554v2.753q0 .622.222.888.222.267.643.267.211 0 .367-.034.167-.045.299-.1v.91q-.166.067-.388.1-.222.045-.422.045m4.816 2.297V76.17a7 7 0 0 0-.033-.655q-.022-.345-.056-.688h1.088l.111 1.265h-.122q.178-.633.711-1 .543-.365 1.287-.365t1.299.355q.555.344.855.988.31.644.31 1.554 0 .9-.31 1.554-.3.655-.855.999t-1.299.344q-.732 0-1.276-.355a1.75 1.75 0 0 1-.711-.988h.122v3.64zm2.709-3.174q.733 0 1.165-.51.444-.511.444-1.51 0-1-.444-1.499-.433-.51-1.165-.51-.733 0-1.177.51-.433.5-.433 1.499t.433 1.51q.444.51 1.177.51m4.033.777v-4.207q0-.345-.022-.688-.01-.355-.044-.7h1.087l.122 1.444h-.177q.111-.522.377-.866.266-.345.644-.51a2.04 2.04 0 0 1 1.11-.145q.122.01.244.044l-.011 1a1.1 1.1 0 0 0-.333-.09 2 2 0 0 0-.333-.022q-.488 0-.832.222-.345.21-.522.577a1.8 1.8 0 0 0-.178.788v3.153zm6.717.1q-1.354 0-2.131-.766-.777-.765-.777-2.12 0-.877.333-1.532a2.5 2.5 0 0 1 .943-1.01q.61-.366 1.41-.366.788 0 1.321.333t.81.943q.278.6.278 1.42v.356h-4.218v-.644h3.452l-.189.145q0-.833-.377-1.288-.367-.465-1.066-.466-.777 0-1.199.544-.422.532-.422 1.476v.111q0 .988.478 1.487.488.5 1.376.5.489 0 .91-.133.433-.145.822-.467l.366.766q-.388.344-.943.533-.555.178-1.177.178m-.611-6.238 1.144-2.243h1.143l-1.51 2.243zm3.429 8.591q-.177 0-.41-.033a1.6 1.6 0 0 1-.422-.111v-.91q.144.044.322.077.166.045.322.045.432 0 .654-.278.234-.266.234-.888v-5.95h1.121v6.028q0 .999-.444 1.51-.444.51-1.377.51m.6-9.213v-1.165h1.309v1.165zm4.806 6.86q-1.01 0-1.521-.544-.5-.555-.499-1.698v-3.453h1.121v3.43q0 .7.289 1.033.288.333.877.333.666 0 1.076-.444t.411-1.177v-3.174h1.121v5.594h-1.088V79.22h.145a1.96 1.96 0 0 1-.744.966 2.13 2.13 0 0 1-1.188.333m7.037 2.386a5 5 0 0 1-1.377-.177 3.5 3.5 0 0 1-1.098-.533l.277-.822q.344.234.677.367.333.144.7.21.366.067.754.067.8 0 1.199-.41.411-.4.411-1.166v-1.498h.111a1.72 1.72 0 0 1-.733.987 2.26 2.26 0 0 1-1.265.356q-.767 0-1.332-.333a2.34 2.34 0 0 1-.866-.966q-.3-.633-.3-1.487t.3-1.477q.31-.621.866-.954.566-.345 1.332-.344.732 0 1.265.366.544.355.722.977l-.1-.09.1-1.153h1.088a11 11 0 0 0-.089 1.343v4.14q0 1.265-.677 1.931-.666.666-1.965.666m-.078-3.496q.733 0 1.166-.5.444-.5.444-1.41t-.444-1.398q-.433-.488-1.166-.488-.755 0-1.199.488-.432.489-.433 1.399 0 .909.433 1.41.444.498 1.199.499m6.941 1.11q-1.354 0-2.131-.766-.777-.765-.777-2.12 0-.877.333-1.532a2.5 2.5 0 0 1 .943-1.01q.61-.366 1.41-.366.788 0 1.321.333t.81.943q.278.6.278 1.42v.356h-4.218v-.644h3.452l-.189.145q0-.833-.377-1.288-.367-.465-1.066-.466-.776 0-1.199.544-.421.532-.421 1.476v.111q0 .988.477 1.487.488.5 1.376.5.489 0 .91-.133.433-.145.822-.467l.366.766q-.388.344-.943.533-.555.178-1.177.178m-.61-6.238 1.143-2.243h1.143l-1.509 2.243zm6.004 6.238q-.7 0-1.288-.178a2.8 2.8 0 0 1-.977-.5l.344-.765q.41.31.91.466t1.022.155q.61 0 .921-.21a.7.7 0 0 0 .311-.6.6.6 0 0 0-.2-.466q-.189-.177-.633-.266l-1.065-.211q-.711-.156-1.077-.533-.366-.378-.366-.966 0-.5.266-.888.277-.388.777-.61.51-.222 1.188-.222.621 0 1.154.177.533.178.888.51l-.355.745a2.5 2.5 0 0 0-.777-.445 2.4 2.4 0 0 0-.877-.166q-.621 0-.921.233-.3.234-.3.61 0 .29.178.478.188.177.588.277l1.066.211q.754.156 1.132.51.377.356.377.956 0 .52-.288.91a1.77 1.77 0 0 1-.8.588q-.51.2-1.198.2M98.931 227v-7.826h1.01l3.019 6.805h-.333l3.019-6.805h.999V227h-1.043v-6.26h.366l-2.819 6.26h-.722l-2.819-6.26h.377V227zm12.069.1q-1.355 0-2.132-.766t-.777-2.12q0-.877.333-1.532.345-.655.944-1.01.61-.366 1.41-.366.788 0 1.32.333.534.333.811.943.277.6.277 1.421v.355h-4.218v-.644h3.452l-.188.145q0-.833-.378-1.288-.366-.466-1.065-.466-.777 0-1.199.544-.422.532-.422 1.476v.111q0 .988.477 1.487.489.5 1.377.5.488 0 .91-.133a2.6 2.6 0 0 0 .821-.466l.367.765q-.389.344-.944.533-.555.178-1.176.178m5.393 0q-.699 0-1.288-.178a2.8 2.8 0 0 1-.976-.499l.344-.766q.41.31.91.466t1.021.155q.61 0 .921-.21a.7.7 0 0 0 .311-.6.6.6 0 0 0-.2-.466q-.188-.177-.632-.266l-1.066-.211q-.71-.156-1.077-.533-.366-.378-.366-.966 0-.5.266-.888.278-.388.777-.61a3 3 0 0 1 1.188-.222q.622 0 1.155.177.532.178.888.511l-.356.744a2.5 2.5 0 0 0-.777-.444 2.4 2.4 0 0 0-.877-.167q-.621 0-.921.233t-.3.611q0 .288.178.477.189.178.588.277l1.066.211q.755.156 1.132.511.378.355.378.955 0 .521-.289.91a1.77 1.77 0 0 1-.799.588q-.511.2-1.199.2m5.595 0q-1.01 0-1.521-.544-.5-.555-.499-1.698v-3.452h1.121v3.429q0 .7.288 1.033.29.333.877.333.666 0 1.077-.444t.411-1.177v-3.174h1.121V227h-1.088v-1.199h.144a1.96 1.96 0 0 1-.743.966 2.13 2.13 0 0 1-1.188.333m4.495-.1v-4.207q0-.344-.022-.688-.012-.355-.045-.699h1.088l.122 1.443h-.178q.111-.522.378-.866.266-.345.644-.511a2.04 2.04 0 0 1 1.11-.144q.121.01.244.044l-.011.999a1.1 1.1 0 0 0-.333-.089 2 2 0 0 0-.333-.022q-.488 0-.833.222a1.36 1.36 0 0 0-.521.577 1.8 1.8 0 0 0-.178.789V227zm6.717.1q-1.355 0-2.132-.766t-.777-2.12q0-.877.333-1.532.345-.655.944-1.01.61-.366 1.41-.366.788 0 1.32.333.534.333.811.943.277.6.277 1.421v.355h-4.218v-.644h3.452l-.188.145q0-.833-.378-1.288-.366-.466-1.065-.466-.777 0-1.199.544-.422.532-.422 1.476v.111q0 .988.477 1.487.489.5 1.377.5.488 0 .91-.133a2.6 2.6 0 0 0 .821-.466l.367.765q-.389.344-.944.533-.555.178-1.176.178m5.393 0q-.699 0-1.288-.178a2.8 2.8 0 0 1-.976-.499l.344-.766q.41.31.91.466t1.021.155q.61 0 .921-.21a.7.7 0 0 0 .311-.6.6.6 0 0 0-.2-.466q-.188-.177-.632-.266l-1.066-.211q-.71-.156-1.077-.533-.366-.378-.366-.966 0-.5.266-.888.278-.388.777-.61a3 3 0 0 1 1.188-.222q.622 0 1.155.177.532.178.888.511l-.356.744a2.5 2.5 0 0 0-.777-.444 2.4 2.4 0 0 0-.877-.167q-.621 0-.921.233t-.3.611q0 .288.178.477.189.178.588.277l1.066.211q.755.156 1.132.511.378.355.378.955 0 .521-.289.91a1.77 1.77 0 0 1-.799.588q-.511.2-1.199.2m-57.25 13q-.734 0-1.3-.344a2.3 2.3 0 0 1-.865-.999q-.3-.656-.3-1.554 0-.91.3-1.554.31-.644.865-.988a2.4 2.4 0 0 1 1.3-.355q.72 0 1.264.366.555.355.733.977h-.133v-3.819h1.121V240h-1.11v-1.265h.133a1.8 1.8 0 0 1-.732.999q-.544.366-1.277.366m.277-.877q.721 0 1.165-.511.444-.51.444-1.509 0-1-.444-1.499-.444-.51-1.165-.51-.733 0-1.177.51-.433.5-.433 1.499t.433 1.509q.444.511 1.177.511m4.755-4.373-.489-.378q.323-.333.433-.621.122-.3.122-.6l.3.233h-.933v-1.31h1.321v.9q0 .499-.166.932-.166.421-.588.844m4.365 5.25q-.743 0-1.298-.344a2.3 2.3 0 0 1-.866-.999q-.3-.656-.3-1.554 0-.91.3-1.554.31-.644.866-.988.555-.355 1.298-.355.733 0 1.277.366t.721.999h-.122l.111-1.265h1.088l-.067.688a10 10 0 0 0-.022.655V240h-1.12v-1.243h.121a1.72 1.72 0 0 1-.732.988q-.544.354-1.255.355m.278-.877q.721 0 1.154-.511.444-.51.444-1.509 0-1-.444-1.499-.432-.51-1.154-.51-.732 0-1.177.51-.432.5-.433 1.499 0 .999.433 1.509.433.511 1.177.511m6.486.877q-.732 0-1.298-.344a2.3 2.3 0 0 1-.866-.999q-.3-.656-.3-1.554 0-.91.3-1.554.31-.644.866-.988a2.4 2.4 0 0 1 1.298-.355q.721 0 1.266.366.555.355.732.977h-.133v-3.819h1.121V240h-1.11v-1.265h.133a1.8 1.8 0 0 1-.732.999q-.544.366-1.277.366m.278-.877q.721 0 1.165-.511.444-.51.444-1.509 0-1-.444-1.499-.444-.51-1.165-.51-.732 0-1.177.51-.433.5-.433 1.499t.433 1.509q.444.511 1.177.511m6.486.877q-.743 0-1.298-.344a2.3 2.3 0 0 1-.866-.999q-.3-.656-.3-1.554 0-.91.3-1.554.31-.644.866-.988.555-.355 1.298-.355.733 0 1.277.366t.721.999h-.122l.111-1.265h1.088l-.066.688q-.023.333-.023.655V240h-1.121v-1.243h.122a1.72 1.72 0 0 1-.732.988 2.25 2.25 0 0 1-1.255.355m.278-.877q.722 0 1.154-.511.444-.51.444-1.509 0-1-.444-1.499-.432-.51-1.154-.51-.733 0-1.177.51-.433.5-.433 1.499t.433 1.509q.433.511 1.177.511m4.344 3.175v-6.649q0-.322-.033-.655a20 20 0 0 0-.056-.688h1.088l.111 1.265h-.122q.177-.633.71-.999.544-.366 1.288-.366t1.299.355q.555.344.854.988.311.644.311 1.554 0 .898-.311 1.554a2.23 2.23 0 0 1-.854.999q-.555.344-1.299.344-.733 0-1.276-.355a1.75 1.75 0 0 1-.711-.988h.122v3.641zm2.709-3.175q.732 0 1.165-.511.444-.51.444-1.509 0-1-.444-1.499-.433-.51-1.165-.51-.733 0-1.177.51-.433.5-.433 1.499t.433 1.509q.444.511 1.177.511m6.177.877q-.91 0-1.377-.489-.466-.499-.466-1.487v-2.853h-1.088v-.865h1.088v-1.477l1.121-.299v1.776h1.554v.865h-1.554v2.753q0 .623.222.888.222.267.644.267.212 0 .366-.034a2 2 0 0 0 .3-.1v.911a1.8 1.8 0 0 1-.389.1 2 2 0 0 1-.421.044m3.999 0q-.744 0-1.299-.344a2.3 2.3 0 0 1-.866-.999q-.3-.656-.299-1.554 0-.91.299-1.554.31-.644.866-.988.555-.355 1.299-.355.732 0 1.276.366t.722.999h-.122l.111-1.265h1.087l-.066.688q-.022.333-.022.655V240h-1.121v-1.243h.122a1.73 1.73 0 0 1-.733.988 2.25 2.25 0 0 1-1.254.355m.277-.877q.721 0 1.155-.511.444-.51.444-1.509 0-1-.444-1.499-.434-.51-1.155-.51-.732 0-1.176.51-.433.5-.433 1.499t.433 1.509q.432.511 1.176.511m6.52.877q-.91 0-1.376-.489-.466-.499-.466-1.487v-2.853h-1.088v-.865h1.088v-1.477l1.121-.299v1.776h1.554v.865h-1.554v2.753q0 .623.222.888.222.267.643.267.211 0 .367-.034.167-.044.299-.1v.911a1.8 1.8 0 0 1-.388.1 2.2 2.2 0 0 1-.422.044m1.857-.1v-5.594h1.121V240zm-.089-6.76v-1.165h1.299v1.165zm5.251 6.86q-.832 0-1.443-.344a2.4 2.4 0 0 1-.944-.999q-.333-.656-.333-1.554 0-.9.333-1.543.333-.655.944-.999.61-.355 1.443-.355.832 0 1.443.355.621.344.954.999.344.643.344 1.543 0 .898-.344 1.554-.333.644-.954.999-.61.344-1.443.344m0-.877q.733 0 1.165-.511.433-.51.433-1.509 0-1-.433-1.499-.432-.51-1.165-.51-.722 0-1.155.51-.433.5-.433 1.499t.422 1.509q.433.511 1.166.511m4.052.777v-4.251q0-.322-.033-.655-.023-.345-.056-.688h1.088l.1 1.176h-.133q.254-.621.788-.943a2.28 2.28 0 0 1 1.232-.333q.987 0 1.487.544.511.543.511 1.687V240h-1.121v-3.397q0-.743-.3-1.065-.288-.333-.888-.333-.71 0-1.132.444-.422.433-.422 1.176V240zm12.125.1q-1.354 0-2.131-.766t-.777-2.12q0-.877.333-1.532a2.5 2.5 0 0 1 .943-1.01q.61-.366 1.41-.366.789 0 1.321.333t.81.943q.278.6.278 1.421v.355h-4.218v-.644h3.452l-.189.145q0-.833-.377-1.288-.367-.466-1.066-.466-.776 0-1.199.544-.421.532-.421 1.476v.111q0 .988.477 1.487.488.5 1.376.5.488 0 .911-.133a2.6 2.6 0 0 0 .821-.466l.366.765q-.388.344-.943.533a3.8 3.8 0 0 1-1.177.178m3.473-.1v-4.251q0-.322-.033-.655-.022-.345-.055-.688h1.087l.1 1.176h-.133q.255-.621.788-.943a2.28 2.28 0 0 1 1.232-.333q.989 0 1.488.544.51.543.51 1.687V240h-1.121v-3.397q0-.743-.3-1.065-.288-.333-.888-.333-.71 0-1.132.444-.422.433-.422 1.176V240zm-49.472 13.1q-1.354 0-2.131-.766t-.777-2.12q0-.877.333-1.532.344-.655.944-1.01.61-.366 1.409-.366.789 0 1.321.333t.81.943q.278.6.278 1.421v.355h-4.218v-.644h3.452l-.189.145q0-.833-.377-1.288-.366-.466-1.066-.466-.777 0-1.198.544-.422.532-.422 1.476v.111q0 .988.477 1.487.489.5 1.376.5.489 0 .911-.133a2.6 2.6 0 0 0 .821-.466l.366.765q-.388.344-.943.533a3.8 3.8 0 0 1-1.177.178m3.473-.1v-4.251q0-.322-.033-.655-.022-.345-.055-.688h1.087l.1 1.176h-.133q.233-.61.711-.943.488-.333 1.165-.333.689 0 1.121.333.444.321.611.999h-.178q.222-.61.755-.966a2.12 2.12 0 0 1 1.232-.366q.933 0 1.399.544.465.543.466 1.687V253h-1.121v-3.408q0-.732-.256-1.054-.244-.333-.799-.333-.643 0-1.021.444-.377.443-.377 1.199V253h-1.122v-3.408q0-.732-.255-1.054-.244-.333-.799-.333-.644 0-1.01.444-.366.443-.366 1.199V253zm9.854 2.398v-6.649q0-.322-.033-.655-.023-.345-.056-.688h1.088l.111 1.265h-.122q.177-.633.71-.999.544-.366 1.288-.366.743 0 1.298.355.555.344.855.988.31.644.311 1.554 0 .898-.311 1.554-.3.654-.855.999-.555.344-1.298.344-.733 0-1.277-.355a1.75 1.75 0 0 1-.71-.988h.122v3.641zm2.708-3.175q.733 0 1.166-.511.444-.51.444-1.509 0-1-.444-1.499-.433-.51-1.166-.51t-1.176.51q-.433.5-.433 1.499t.433 1.509q.444.511 1.176.511m4.056.777v-8.17h1.121V253zm5.162.1q-.832 0-1.443-.344a2.4 2.4 0 0 1-.944-.999q-.333-.656-.333-1.554 0-.9.333-1.543.333-.655.944-.999.61-.355 1.443-.355.832 0 1.443.355.621.344.954.999.344.643.344 1.543 0 .898-.344 1.554-.333.644-.954.999-.61.344-1.443.344m0-.877q.733 0 1.165-.511.433-.51.433-1.509 0-1-.433-1.499-.433-.51-1.165-.51-.721 0-1.155.51-.432.5-.433 1.499 0 .999.422 1.509.433.511 1.166.511m4.052.777v-5.594h1.121V253zm-.089-6.76v-1.165h1.299v1.165zM14.572 155v-7.826H19.7v.922h-4.007v2.464h3.752v.932h-3.752v2.576H19.7V155zm2.33-8.492 1.31-1.92h1.21l-1.698 1.92zM22.576 155l-2.397-5.594h1.198l1.887 4.673h-.321l1.92-4.673h1.143L23.597 155zm6.808.1q-1.354 0-2.131-.766t-.777-2.12q0-.877.333-1.532.345-.655.944-1.01.61-.366 1.41-.366.788 0 1.32.333.533.333.81.943.278.6.278 1.421v.355h-4.218v-.644h3.452l-.189.145q0-.833-.377-1.288-.366-.466-1.066-.466-.777 0-1.198.544-.423.532-.422 1.476v.111q0 .988.477 1.487.488.5 1.376.5.49 0 .91-.133.434-.145.822-.466l.366.765q-.388.344-.943.533a3.8 3.8 0 0 1-1.177.178m-.61-6.238 1.143-2.243h1.143l-1.51 2.243zM32.856 155v-4.251q0-.322-.033-.655a21 21 0 0 0-.056-.688h1.088l.1 1.176h-.133q.255-.621.788-.943a2.3 2.3 0 0 1 1.232-.333q.989 0 1.488.544.51.543.51 1.687V155h-1.12v-3.397q0-.743-.3-1.065-.29-.333-.889-.333-.71 0-1.132.444-.422.433-.422 1.176V155zm9.166.1q-1.354 0-2.13-.766-.778-.766-.778-2.12 0-.877.333-1.532.344-.655.944-1.01.61-.366 1.41-.366.788 0 1.32.333.533.333.81.943.279.6.278 1.421v.355h-4.218v-.644h3.452l-.188.145q0-.833-.378-1.288-.367-.466-1.065-.466-.777 0-1.2.544-.42.532-.421 1.476v.111q0 .988.477 1.487.489.5 1.377.5.488 0 .91-.133.432-.145.821-.466l.366.765q-.388.344-.943.533a3.8 3.8 0 0 1-1.177.178m3.474-.1v-4.251q0-.322-.034-.655a21 21 0 0 0-.055-.688h1.088l.1 1.176h-.134q.234-.61.71-.943.49-.333 1.166-.333.689 0 1.121.333.444.321.61.999h-.177q.222-.61.755-.966a2.12 2.12 0 0 1 1.232-.366q.933 0 1.399.544.465.543.466 1.687V155h-1.121v-3.408q0-.732-.255-1.054-.245-.333-.8-.333-.644 0-1.02.444-.378.443-.378 1.199V155h-1.121v-3.408q0-.732-.256-1.054-.244-.333-.799-.333-.645 0-1.01.444-.366.443-.366 1.199V155zm12.44.1q-1.356 0-2.132-.766-.777-.766-.777-2.12 0-.877.333-1.532.344-.655.944-1.01.61-.366 1.41-.366.788 0 1.32.333.533.333.81.943.278.6.278 1.421v.355h-4.218v-.644h3.452l-.189.145q0-.833-.377-1.288-.366-.466-1.066-.466-.777 0-1.198.544-.422.532-.422 1.476v.111q0 .988.477 1.487.488.5 1.377.5.488 0 .91-.133.432-.145.821-.466l.366.765q-.388.344-.943.533a3.8 3.8 0 0 1-1.177.178m3.472-.1v-4.251q0-.322-.033-.655a21 21 0 0 0-.055-.688h1.087l.1 1.176h-.133q.255-.621.788-.943a2.3 2.3 0 0 1 1.232-.333q.989 0 1.488.544.51.543.51 1.687V155h-1.12v-3.397q0-.743-.3-1.065-.29-.333-.888-.333-.71 0-1.133.444-.42.433-.421 1.176V155zm8.756.1q-.91 0-1.377-.489-.466-.499-.466-1.487v-2.853h-1.087v-.865h1.087v-1.477l1.121-.299v1.776h1.554v.865h-1.554v2.753q0 .623.222.888.222.267.644.267.21 0 .366-.034.167-.044.3-.1v.911q-.165.066-.388.1a2.2 2.2 0 0 1-.422.044m3.777 0q-.699 0-1.288-.178a2.8 2.8 0 0 1-.976-.499l.344-.766q.41.31.91.466t1.021.155q.61 0 .921-.21a.7.7 0 0 0 .311-.6.6.6 0 0 0-.2-.466q-.188-.177-.632-.266l-1.066-.211q-.71-.156-1.077-.533-.366-.378-.366-.966 0-.5.266-.888.279-.388.778-.61.51-.222 1.187-.222.623 0 1.155.177.532.178.888.511l-.356.744a2.5 2.5 0 0 0-.777-.444 2.4 2.4 0 0 0-.876-.167q-.622 0-.922.233t-.3.611q0 .288.178.477.189.178.588.277l1.066.211q.754.156 1.132.511t.378.955q0 .521-.289.91a1.77 1.77 0 0 1-.8.588q-.51.2-1.198.2M22.277 168v-5.594h1.12V168zm-.09-6.76v-1.165h1.3v1.165zm2.854 6.76v-4.251q0-.322-.034-.655a21 21 0 0 0-.055-.688h1.088l.1 1.176h-.134q.234-.61.71-.943.49-.333 1.166-.333.69 0 1.121.333.444.321.611.999h-.178q.222-.61.755-.966a2.12 2.12 0 0 1 1.232-.366q.933 0 1.399.544.465.543.466 1.687V168h-1.121v-3.408q0-.732-.255-1.054-.245-.333-.8-.333-.644 0-1.02.444-.378.443-.378 1.199V168h-1.121v-3.408q0-.732-.256-1.054-.243-.333-.799-.333-.644 0-1.01.444-.366.443-.366 1.199V168zm9.853 2.398v-6.649q0-.322-.033-.655a21 21 0 0 0-.056-.688h1.088l.111 1.265h-.122q.178-.633.71-.999.544-.366 1.288-.366t1.299.355q.555.344.854.988.311.644.311 1.554 0 .898-.31 1.554-.3.654-.855.999-.555.344-1.299.344-.733 0-1.276-.355a1.75 1.75 0 0 1-.71-.988h.121v3.641zm2.709-3.175q.733 0 1.165-.511.444-.51.444-1.509 0-1-.444-1.499-.432-.51-1.165-.51t-1.177.51q-.433.5-.433 1.499t.433 1.509q.444.511 1.177.511m4.033.777v-4.207q0-.344-.022-.688-.011-.355-.044-.699h1.087l.122 1.443h-.177q.111-.522.377-.866.267-.345.644-.511a2.04 2.04 0 0 1 1.11-.144q.122.01.244.044l-.01.999a1.1 1.1 0 0 0-.334-.089 2 2 0 0 0-.333-.022q-.488 0-.832.222a1.36 1.36 0 0 0-.522.577 1.8 1.8 0 0 0-.178.789V168zm6.717.1q-1.354 0-2.131-.766t-.777-2.12q0-.877.333-1.532.345-.655.943-1.01.61-.366 1.41-.366.788 0 1.32.333.534.333.811.943.278.6.278 1.421v.355h-4.218v-.644h3.452l-.189.145q0-.833-.377-1.288-.367-.466-1.066-.466-.777 0-1.199.544-.422.532-.422 1.476v.111q0 .988.478 1.487.488.5 1.376.5.49 0 .91-.133.434-.145.822-.466l.366.765q-.388.344-.944.533a3.8 3.8 0 0 1-1.176.178m-.61-6.238 1.143-2.243h1.143l-1.51 2.243zm5.65 6.138-2.398-5.594h1.2l1.886 4.673h-.322l1.92-4.673h1.144L54.414 168zm6.306.1q-1.01 0-1.52-.544-.5-.555-.5-1.698v-3.452h1.12v3.429q0 .7.29 1.033.288.333.876.333.666 0 1.077-.444t.41-1.177v-3.174h1.122V168h-1.088v-1.199h.144a1.96 1.96 0 0 1-.743.966q-.51.333-1.188.333m6.437 0q-.699 0-1.287-.178a2.8 2.8 0 0 1-.977-.499l.344-.766q.41.31.91.466t1.021.155q.611 0 .922-.21a.7.7 0 0 0 .31-.6.6.6 0 0 0-.2-.466q-.188-.177-.632-.266l-1.066-.211q-.71-.156-1.076-.533-.367-.378-.367-.966 0-.5.267-.888.278-.388.777-.61.51-.222 1.188-.222.621 0 1.154.177.532.178.888.511l-.355.744a2.5 2.5 0 0 0-.777-.444 2.4 2.4 0 0 0-.877-.167q-.623 0-.921.233-.3.233-.3.611 0 .288.177.477.189.178.589.277l1.065.211q.755.156 1.133.511.377.355.377.955 0 .521-.289.91a1.77 1.77 0 0 1-.799.588q-.51.2-1.199.2" />
    <path fill="var(--fi-wheel-content, #161616)" d="M214.336 11V3.175h1.155v6.837h3.84V11zm6.025 0V5.406h1.121V11zm-.089-6.76V3.075h1.299V4.24zm5.439 6.86q-1.353 0-2.131-.766-.777-.765-.777-2.12 0-.877.333-1.532.345-.655.944-1.01.61-.366 1.409-.366.789 0 1.321.333.534.333.811.943.277.6.277 1.421v.355h-4.218v-.644h3.452l-.188.145q0-.832-.378-1.288-.366-.465-1.065-.466-.777 0-1.199.544-.422.533-.422 1.476v.111q0 .988.477 1.487.489.5 1.377.5.488 0 .91-.133.432-.145.821-.466l.367.765a2.7 2.7 0 0 1-.944.533q-.555.178-1.177.178m5.461 0q-1.011 0-1.521-.544-.5-.555-.5-1.698V5.406h1.121v3.43q0 .699.289 1.032.288.333.877.333.666 0 1.077-.444t.41-1.177V5.406h1.121V11h-1.087V9.801h.144a1.95 1.95 0 0 1-.744.966q-.51.333-1.187.333m9.618 0q-.732 0-1.299-.344a2.3 2.3 0 0 1-.865-1q-.3-.654-.3-1.553 0-.91.3-1.554.31-.645.865-.988a2.4 2.4 0 0 1 1.299-.355q.722 0 1.266.366.555.355.732.977h-.133V2.83h1.121V11h-1.11V9.735h.133q-.189.631-.732.999-.544.366-1.277.366m.278-.877q.721 0 1.165-.51.444-.511.444-1.51 0-1-.444-1.499-.444-.51-1.165-.51-.733 0-1.177.51-.433.5-.433 1.499t.433 1.51q.444.51 1.177.51m6.93.877q-1.354 0-2.131-.766-.777-.765-.777-2.12 0-.877.333-1.532.344-.655.944-1.01.61-.366 1.409-.366.789 0 1.321.333t.81.943q.278.6.278 1.421v.355h-4.218v-.644h3.452l-.189.145q0-.832-.377-1.288-.366-.465-1.066-.466-.777 0-1.198.544-.423.533-.422 1.476v.111q0 .988.477 1.487.488.5 1.376.5.488 0 .911-.133.432-.145.821-.466l.366.765q-.388.345-.943.533-.555.178-1.177.178m6.41-.1V6.793q0-.345-.022-.688-.01-.355-.044-.7h1.088l.122 1.444h-.178q.111-.522.378-.866.266-.345.643-.51a2.04 2.04 0 0 1 1.11-.145q.123.01.245.044l-.012 1a1.1 1.1 0 0 0-.333-.09 2 2 0 0 0-.333-.022q-.488 0-.832.222-.343.21-.522.577a1.8 1.8 0 0 0-.177.789V11zm6.717.1q-1.354 0-2.131-.766-.777-.765-.777-2.12 0-.877.333-1.532.344-.655.944-1.01.61-.366 1.409-.366.789 0 1.321.333.533.333.81.943.278.6.278 1.421v.355h-4.218v-.644h3.452l-.189.145q0-.832-.377-1.288-.366-.465-1.066-.466-.777 0-1.198.544-.423.533-.422 1.476v.111q0 .988.477 1.487.489.5 1.376.5.489 0 .911-.133.432-.145.821-.466l.366.765q-.388.345-.943.533-.555.178-1.177.178m-.61-6.238 1.143-2.242h1.143l-1.509 2.242zm6.004 6.238q-.7 0-1.288-.178a2.8 2.8 0 0 1-.977-.5l.344-.765q.411.311.911.466t1.021.155q.61 0 .921-.21a.7.7 0 0 0 .311-.6.6.6 0 0 0-.2-.466q-.189-.177-.633-.266l-1.065-.211q-.711-.156-1.077-.533-.366-.378-.366-.966 0-.5.266-.888.278-.388.777-.61a3 3 0 0 1 1.188-.222q.621 0 1.154.177.534.178.888.51l-.355.745a2.5 2.5 0 0 0-.777-.444 2.4 2.4 0 0 0-.877-.167q-.621 0-.921.233-.3.235-.3.61 0 .29.178.478.189.177.588.277l1.066.211q.754.156 1.132.511t.377.955q0 .52-.288.91a1.78 1.78 0 0 1-.799.588q-.511.2-1.199.2m3.608-.1V5.406h1.121V11zm-.089-6.76V3.075h1.299V4.24zm4.995 6.86q-.732 0-1.298-.344a2.3 2.3 0 0 1-.866-1q-.3-.654-.3-1.553 0-.91.3-1.554.31-.645.866-.988a2.4 2.4 0 0 1 1.298-.355q.721 0 1.266.366.555.355.732.977h-.133V2.83h1.121V11h-1.11V9.735h.133q-.188.631-.732.999-.544.366-1.277.366m.278-.877q.721 0 1.165-.51.444-.511.444-1.51 0-1-.444-1.499-.444-.51-1.165-.51-.733 0-1.177.51-.433.5-.433 1.499t.433 1.51q.444.51 1.177.51m6.93.877q-1.354 0-2.131-.766-.777-.765-.777-2.12 0-.877.333-1.532.344-.655.944-1.01.61-.366 1.409-.366.789 0 1.321.333.533.333.81.943.278.6.278 1.421v.355h-4.218v-.644h3.452l-.189.145q0-.832-.377-1.288-.366-.465-1.066-.466-.777 0-1.198.544-.423.533-.422 1.476v.111q0 .988.477 1.487.489.5 1.376.5.489 0 .911-.133.432-.145.821-.466l.366.765q-.388.345-.943.533-.555.178-1.177.178m3.473-.1V6.749a7 7 0 0 0-.033-.655q-.022-.345-.055-.688h1.087l.1 1.176h-.133q.255-.621.788-.943a2.28 2.28 0 0 1 1.232-.333q.988 0 1.488.544.51.543.51 1.687V11h-1.121V7.603q0-.742-.299-1.065-.29-.333-.888-.333-.71 0-1.133.444-.421.432-.421 1.176V11zm9.033.1q-.843 0-1.476-.344a2.45 2.45 0 0 1-.966-1.01q-.333-.666-.333-1.577 0-.899.344-1.542.345-.644.966-.977.622-.344 1.465-.344.544 0 1.055.188.51.178.843.511l-.366.788q-.31-.3-.699-.444a2 2 0 0 0-.755-.155q-.8 0-1.254.51-.455.51-.455 1.477 0 .976.455 1.498.454.522 1.254.522.356 0 .744-.133.389-.145.71-.455l.366.788a2.4 2.4 0 0 1-.865.521 3.1 3.1 0 0 1-1.033.178m5.564 0q-1.354 0-2.131-.766-.777-.765-.777-2.12 0-.877.333-1.532.344-.655.944-1.01.61-.366 1.409-.366.789 0 1.321.333t.81.943q.278.6.278 1.421v.355h-4.218v-.644h3.452l-.189.145q0-.832-.377-1.288-.366-.465-1.066-.466-.777 0-1.198.544-.423.533-.422 1.476v.111q0 .988.477 1.487.489.5 1.376.5.488 0 .911-.133.432-.145.821-.466l.366.765q-.388.345-.943.533-.555.178-1.177.178M37.52 11.1a5.9 5.9 0 0 1-1.71-.233 4.2 4.2 0 0 1-1.332-.688l.388-.91q.377.287.777.477.411.188.866.288.466.09 1.01.09.933 0 1.365-.334.444-.333.444-.877 0-.466-.31-.721-.3-.255-1.066-.411l-1.21-.244q-1.076-.222-1.61-.722-.52-.51-.521-1.387 0-.71.377-1.243.378-.534 1.044-.822.677-.288 1.576-.288.833 0 1.532.244.699.232 1.176.7l-.377.876a3.3 3.3 0 0 0-1.066-.633 3.7 3.7 0 0 0-1.287-.21q-.855 0-1.343.355a1.14 1.14 0 0 0-.478.965q0 .489.3.766.311.278 1.021.422l1.21.233q1.122.233 1.654.722.533.477.533 1.32 0 .678-.366 1.188-.356.51-1.022.8-.667.276-1.576.277m6.425 0q-.91 0-1.377-.489-.465-.499-.466-1.487V6.271h-1.088v-.865h1.088V3.929l1.121-.3v1.777h1.554v.865h-1.554v2.753q0 .622.222.888.222.267.644.267.21 0 .366-.034.166-.045.3-.1v.91q-.166.067-.389.1-.222.045-.421.045m3.999 0q-.744 0-1.299-.344a2.3 2.3 0 0 1-.866-1q-.3-.654-.3-1.553 0-.91.3-1.554a2.3 2.3 0 0 1 .866-.988q.555-.355 1.299-.355.732 0 1.276.366t.722.999h-.122l.11-1.265h1.089l-.067.688q-.022.333-.022.655V11h-1.121V9.757h.122a1.72 1.72 0 0 1-.733.988q-.543.355-1.254.355m.277-.877q.721 0 1.155-.51.444-.511.444-1.51 0-1-.444-1.499-.434-.51-1.155-.51-.732 0-1.176.51-.433.5-.433 1.499t.433 1.51q.432.51 1.176.51m6.52.877q-.91 0-1.376-.489-.466-.499-.466-1.487V6.271H51.81v-.865h1.088V3.929l1.12-.3v1.777h1.555v.865H54.02v2.753q0 .622.222.888.221.267.644.267.21 0 .366-.034.165-.045.3-.1v.91q-.167.067-.389.1-.222.045-.422.045m3.844 0q-1.01 0-1.52-.544-.5-.555-.5-1.698V5.406h1.12v3.43q0 .699.29 1.032.288.333.876.333.666 0 1.077-.444t.41-1.177V5.406h1.122V11h-1.088V9.801h.144a1.96 1.96 0 0 1-.743.966q-.51.333-1.188.333m6.693 0q-.91 0-1.377-.489-.466-.499-.466-1.487V6.271h-1.088v-.865h1.088V3.929l1.121-.3v1.777h1.554v.865h-1.554v2.753q0 .622.222.888.222.267.644.267.21 0 .366-.034.166-.045.3-.1v.91q-.166.067-.389.1-.222.045-.421.045m6.958 0a2.45 2.45 0 0 1-1.299-.344 2.3 2.3 0 0 1-.866-1q-.3-.654-.3-1.553 0-.91.3-1.554a2.3 2.3 0 0 1 .866-.988q.566-.355 1.299-.355.721 0 1.265.366.555.355.733.977H74.1V2.83h1.12V11h-1.11V9.735h.134q-.189.631-.733.999-.543.366-1.276.366m.277-.877q.722 0 1.166-.51.444-.511.444-1.51 0-1-.444-1.499-.444-.51-1.166-.51-.732 0-1.176.51-.433.5-.433 1.499t.433 1.51q.444.51 1.176.51m4.755-4.373-.488-.378q.322-.333.433-.621.122-.3.122-.6l.3.233h-.933v-1.31h1.321v.9q0 .499-.166.932-.166.421-.589.844M79.492 11V5.406h1.12V11zm-.09-6.76V3.075h1.3V4.24zM82.257 11V6.749a7 7 0 0 0-.033-.655q-.023-.345-.056-.688h1.088l.1 1.176h-.133q.233-.61.71-.943.489-.333 1.165-.333.69 0 1.122.333.445.321.61.999h-.177q.222-.611.754-.966a2.12 2.12 0 0 1 1.232-.366q.933 0 1.399.544.466.543.466 1.687V11h-1.12V7.592q0-.732-.256-1.054-.245-.333-.8-.333-.644 0-1.02.444-.378.444-.378 1.199V11h-1.121V7.592q0-.732-.255-1.054-.245-.333-.8-.333-.644 0-1.01.444t-.366 1.199V11zm9.853 0V6.749a7 7 0 0 0-.033-.655q-.022-.345-.055-.688h1.087l.1 1.176h-.133q.233-.61.71-.943.49-.333 1.166-.333.688 0 1.121.333.445.321.61.999h-.177q.222-.611.755-.966a2.12 2.12 0 0 1 1.232-.366q.932 0 1.398.544.467.543.467 1.687V11h-1.121V7.592q0-.732-.256-1.054-.244-.333-.799-.333-.645 0-1.021.444-.378.444-.378 1.199V11h-1.12V7.592q0-.732-.256-1.054-.245-.333-.8-.333-.642 0-1.01.444-.365.444-.366 1.199V11zm9.854 0V5.406h1.121V11zm-.089-6.76V3.075h1.299V4.24zm5.373 9.246q-.755 0-1.377-.177a3.5 3.5 0 0 1-1.099-.533l.278-.821q.344.232.677.366.333.144.699.21.366.067.755.067.799 0 1.199-.41.41-.4.41-1.166V9.524h.111a1.72 1.72 0 0 1-.732.988 2.27 2.27 0 0 1-1.266.355q-.765 0-1.332-.333a2.33 2.33 0 0 1-.865-.966q-.3-.633-.3-1.487t.3-1.477q.31-.621.865-.954.567-.344 1.332-.344.734 0 1.266.366.543.355.721.977l-.1-.089.1-1.154h1.088a11 11 0 0 0-.089 1.343v4.14q0 1.265-.677 1.931-.666.666-1.964.666m-.078-3.496q.733 0 1.165-.5.444-.5.444-1.41t-.444-1.398q-.432-.488-1.165-.488-.755 0-1.199.488-.433.489-.433 1.399t.433 1.41q.444.498 1.199.499m4.332 1.01V6.793q0-.345-.022-.688-.01-.355-.044-.7h1.087l.123 1.444h-.178q.111-.522.377-.866.267-.345.644-.51a2.04 2.04 0 0 1 1.11-.145q.123.01.244.044l-.011 1a1.1 1.1 0 0 0-.333-.09 2 2 0 0 0-.333-.022q-.488 0-.832.222-.345.21-.522.577a1.8 1.8 0 0 0-.178.789V11zm6.295.1q-.744 0-1.299-.344a2.3 2.3 0 0 1-.866-1q-.3-.654-.299-1.553 0-.91.299-1.554.31-.645.866-.988.555-.355 1.299-.355.733 0 1.276.366.544.366.722.999h-.122l.111-1.265h1.087l-.066.688a10 10 0 0 0-.022.655V11h-1.121V9.757h.122a1.72 1.72 0 0 1-.733.988 2.24 2.24 0 0 1-1.254.355m.277-.877q.722 0 1.155-.51.444-.511.444-1.51 0-1-.444-1.499-.433-.51-1.155-.51-.732 0-1.176.51-.433.5-.433 1.499t.433 1.51q.432.51 1.176.51m6.52.877q-.91 0-1.376-.489-.466-.499-.466-1.487V6.271h-1.088v-.865h1.088V3.929l1.121-.3v1.777h1.554v.865h-1.554v2.753q0 .622.222.888.222.267.643.267.211 0 .367-.034.167-.045.299-.1v.91q-.166.067-.388.1-.222.045-.422.045m1.857-.1V5.406h1.121V11zm-.089-6.76V3.075h1.299V4.24zm5.251 6.86q-.833 0-1.443-.344a2.4 2.4 0 0 1-.944-1q-.333-.654-.333-1.553 0-.9.333-1.543.333-.655.944-1 .61-.354 1.443-.354t1.443.355q.621.344.954.999.345.644.344 1.543 0 .9-.344 1.554-.333.644-.954.999-.61.345-1.443.344m0-.877q.732 0 1.165-.51.433-.511.433-1.51 0-1-.433-1.499-.433-.51-1.165-.51-.721 0-1.155.51-.433.5-.433 1.499t.422 1.51q.433.51 1.166.51m4.052.777V6.749a7 7 0 0 0-.033-.655q-.023-.345-.056-.688h1.088l.1 1.176h-.133a1.9 1.9 0 0 1 .788-.943 2.28 2.28 0 0 1 1.232-.333q.987 0 1.487.544.511.543.511 1.687V11h-1.121V7.603q0-.742-.3-1.065-.288-.333-.888-.333-.71 0-1.132.444-.422.432-.422 1.176V11zM30.337 77.38v-7.826h1.154v6.837h3.841v.988zm8.167.1q-.744 0-1.299-.345a2.3 2.3 0 0 1-.866-.999q-.3-.654-.3-1.554 0-.91.3-1.554a2.3 2.3 0 0 1 .866-.988q.555-.355 1.299-.355.733 0 1.276.366.544.367.722 1h-.122l.11-1.266h1.089l-.067.688q-.022.333-.022.655v4.251h-1.121v-1.243h.122a1.72 1.72 0 0 1-.733.988q-.543.355-1.254.355m.277-.878q.721 0 1.155-.51.444-.51.444-1.51 0-.999-.444-1.498-.433-.51-1.155-.51-.732 0-1.176.51-.433.5-.433 1.498 0 1 .433 1.51.432.51 1.176.51m4.345.777v-4.25a7 7 0 0 0-.034-.656q-.021-.345-.055-.688h1.088l.1 1.177h-.134q.255-.623.788-.944a2.3 2.3 0 0 1 1.233-.333q.987 0 1.487.544.51.544.51 1.687v3.463h-1.12v-3.396q0-.744-.3-1.066-.29-.333-.888-.333-.71 0-1.132.444-.422.433-.422 1.177v3.174zm9.1 2.487q-.756 0-1.377-.178a3.5 3.5 0 0 1-1.1-.533l.278-.821q.345.233.678.366.332.145.699.211.366.067.755.067.798 0 1.198-.41.411-.4.411-1.166v-1.499h.111a1.72 1.72 0 0 1-.732.988 2.26 2.26 0 0 1-1.266.355q-.766 0-1.332-.333a2.34 2.34 0 0 1-.866-.965q-.3-.633-.3-1.488t.3-1.476q.311-.622.866-.955.566-.344 1.332-.344.733 0 1.266.366.544.356.721.977l-.1-.089.1-1.154h1.088a11 11 0 0 0-.089 1.343v4.14q0 1.266-.677 1.932-.666.666-1.965.666m-.078-3.497q.732 0 1.165-.5.444-.498.444-1.409 0-.91-.444-1.398-.433-.489-1.166-.489-.754 0-1.198.489-.433.487-.433 1.398t.433 1.41q.444.5 1.199.5m6.34 1.11q-1.009 0-1.52-.544-.5-.555-.5-1.698v-3.452h1.122v3.43q0 .699.288 1.032.29.333.877.333.666 0 1.077-.444t.41-1.176v-3.175h1.122v5.594h-1.088v-1.198h.144a1.96 1.96 0 0 1-.743.965q-.51.333-1.188.333m7.104 0q-1.354 0-2.131-.766-.777-.765-.777-2.12 0-.876.333-1.532a2.5 2.5 0 0 1 .944-1.01q.61-.366 1.41-.366.788 0 1.32.333t.81.944q.278.6.278 1.42v.356H63.56v-.644h3.452l-.189.144q0-.832-.377-1.287-.367-.467-1.066-.467-.777 0-1.198.544-.422.532-.422 1.476v.111q0 .99.477 1.488.489.5 1.376.5.49 0 .91-.134a2.6 2.6 0 0 0 .822-.466l.366.766q-.388.345-.943.533-.555.177-1.177.177" />
    <path fill="var(--fi-wheel-label-background, #f6f5f2)" stroke="var(--fl-fgColor, transparent)" d="M158.082 21.023h35v22h-35z" />
    <path fill="var(--fi-wheel-content-emphasis, #a93031)" d="M165.379 31.023v-4.68h.691v4.68zm1.73 0V28.48a4 4 0 0 0-.02-.391q-.014-.207-.033-.412h.651l.059.704h-.079q.139-.366.425-.565.291-.199.697-.199.412 0 .67.2.266.192.366.597h-.107q.133-.365.452-.578.318-.219.737-.219.558 0 .837.326.278.325.278 1.009v2.071h-.67v-2.038q0-.438-.153-.63-.146-.2-.478-.2a.76.76 0 0 0-.611.266q-.226.265-.226.717v1.885h-.67v-2.038q0-.438-.153-.63-.146-.2-.478-.2-.385 0-.604.266-.219.265-.219.717v1.885zm5.894 1.435V28.48a4 4 0 0 0-.02-.391q-.014-.207-.033-.412h.651l.066.757h-.073q.107-.378.425-.598.326-.219.77-.219.445 0 .777.213.332.206.511.59.186.386.186.93 0 .538-.186.93-.179.39-.511.597t-.777.206q-.438 0-.763-.212a1.04 1.04 0 0 1-.425-.591h.073v2.178zm1.62-1.9q.439 0 .697-.305.266-.305.266-.903 0-.597-.266-.896-.258-.306-.697-.306a.89.89 0 0 0-.704.306q-.258.299-.259.896 0 .599.259.903a.89.89 0 0 0 .704.306m3.708.525q-.446 0-.777-.206a1.4 1.4 0 0 1-.518-.597 2.2 2.2 0 0 1-.179-.93q0-.544.179-.93.186-.384.518-.59.332-.213.777-.213.438 0 .763.22.326.218.432.597h-.073l.066-.757h.651l-.04.412a6 6 0 0 0-.013.391v2.543h-.671v-.743h.073a1.03 1.03 0 0 1-.438.59 1.34 1.34 0 0 1-.75.213m.166-.524a.86.86 0 0 0 .69-.306q.266-.305.266-.903 0-.597-.266-.896a.86.86 0 0 0-.69-.306.89.89 0 0 0-.704.306q-.26.299-.259.896 0 .599.259.903.259.306.704.306m4.066.524q-.505 0-.883-.206a1.46 1.46 0 0 1-.578-.604 2.1 2.1 0 0 1-.199-.943q0-.537.206-.923.205-.384.577-.584.372-.206.877-.206a1.8 1.8 0 0 1 .63.113q.306.106.505.306l-.219.471a1.2 1.2 0 0 0-.418-.266 1.2 1.2 0 0 0-.452-.093q-.478 0-.75.306-.272.305-.272.883 0 .584.272.896t.75.312q.213 0 .445-.08.233-.086.425-.271l.219.47q-.206.2-.518.313-.305.106-.617.106m3.154 0q-.545 0-.824-.292-.279-.3-.279-.89v-1.706h-.65v-.518h.65v-.883l.671-.18v1.063h.93v.518h-.93v1.647q0 .372.133.53.133.16.385.16.126 0 .219-.02.1-.026.179-.06v.545a1 1 0 0 1-.232.06 1.3 1.3 0 0 1-.252.026m-23.033 7.94V36.48a4 4 0 0 0-.02-.391q-.013-.207-.033-.412h.65l.06.704h-.08q.14-.366.425-.565.292-.198.697-.199.412 0 .671.2.266.192.365.597h-.106q.133-.365.452-.578.318-.219.737-.219.557 0 .836.326.279.325.279 1.009v2.071h-.671v-2.038q0-.438-.152-.63-.147-.2-.478-.2a.76.76 0 0 0-.611.266q-.226.265-.226.717v1.885h-.671v-2.038q0-.438-.152-.63-.147-.2-.478-.2-.386 0-.605.266-.219.265-.219.717v1.885zm7.175.06q-.444 0-.777-.206a1.4 1.4 0 0 1-.518-.597 2.2 2.2 0 0 1-.179-.93q0-.544.179-.93.186-.384.518-.59.333-.213.777-.213.438 0 .764.22.326.218.431.597h-.073l.067-.757h.65l-.039.412a6 6 0 0 0-.014.391v2.543h-.67v-.743h.073a1.03 1.03 0 0 1-.439.59 1.34 1.34 0 0 1-.75.213m.166-.524a.86.86 0 0 0 .691-.306q.265-.304.265-.903 0-.597-.265-.896a.86.86 0 0 0-.691-.306.89.89 0 0 0-.704.306q-.258.299-.259.896 0 .599.259.903.26.306.704.306m2.121.464 1.52-1.885v.319l-1.441-1.78h.804l1.016 1.308h-.239l1.016-1.308h.796l-1.427 1.773v-.306l1.514 1.88h-.804l-1.095-1.401h.239l-1.102 1.4zm4.07 0v-3.346h.671v3.346zm-.053-4.043v-.697h.777v.697zm1.706 4.043V36.48q0-.192-.019-.391-.013-.207-.034-.412h.651l.06.704h-.08q.14-.366.425-.565.292-.198.697-.199.412 0 .671.2.266.192.365.597h-.106q.132-.365.451-.578a1.27 1.27 0 0 1 .737-.219q.558 0 .837.326.279.325.279 1.009v2.071h-.671v-2.038q0-.438-.153-.63-.145-.2-.478-.2a.76.76 0 0 0-.61.266q-.226.265-.226.717v1.885h-.671v-2.038q0-.438-.153-.63-.145-.2-.478-.2-.385 0-.604.266-.219.265-.219.717v1.885zm7.176.06q-.446 0-.777-.206a1.4 1.4 0 0 1-.518-.597 2.2 2.2 0 0 1-.179-.93q0-.544.179-.93.186-.384.518-.59.331-.213.777-.213.438 0 .764.22.324.218.431.597h-.073l.067-.757h.65l-.04.412a7 7 0 0 0-.013.391v2.543h-.671v-.743h.074a1.03 1.03 0 0 1-.439.59 1.34 1.34 0 0 1-.75.213m.166-.524a.86.86 0 0 0 .691-.306q.265-.304.265-.903 0-.597-.265-.896a.86.86 0 0 0-.691-.306.89.89 0 0 0-.704.306q-.259.299-.259.896 0 .599.259.903.259.306.704.306m2.599.464v-4.886h.67v4.886z" />
    <path fill="var(--fi-wheel-label-background, #f6f5f2)" stroke="var(--fl-fgColor, transparent)" d="M158.082 102.023h35v22h-35z" />
    <path fill="var(--fi-wheel-content-emphasis, #a93031)" d="M165.379 112.023v-4.681h.691v4.681zm1.73 0v-2.543a4 4 0 0 0-.02-.391q-.014-.207-.033-.412h.651l.059.704h-.079q.139-.366.425-.565.291-.198.697-.199.412 0 .67.199.266.193.366.598h-.107q.133-.365.452-.578.318-.219.737-.219.558 0 .837.326.278.325.278 1.009v2.071h-.67v-2.038q0-.438-.153-.631-.146-.2-.478-.199a.76.76 0 0 0-.611.266q-.226.266-.226.717v1.885h-.67v-2.038q0-.438-.153-.631-.146-.2-.478-.199-.385 0-.604.266t-.219.717v1.885zm5.894 1.435v-3.978a4 4 0 0 0-.02-.391q-.014-.207-.033-.412h.651l.066.757h-.073a1.05 1.05 0 0 1 .425-.598q.326-.219.77-.219.445 0 .777.213.332.206.511.591.186.384.186.929 0 .538-.186.93a1.33 1.33 0 0 1-.511.597q-.332.207-.777.206-.438 0-.763-.212a1.04 1.04 0 0 1-.425-.591h.073v2.178zm1.62-1.899q.439 0 .697-.306.266-.305.266-.903 0-.597-.266-.896-.258-.306-.697-.306a.89.89 0 0 0-.704.306q-.258.299-.259.896 0 .599.259.903a.89.89 0 0 0 .704.306m3.708.524q-.446 0-.777-.206a1.38 1.38 0 0 1-.518-.597 2.2 2.2 0 0 1-.179-.93q0-.545.179-.929a1.38 1.38 0 0 1 1.295-.804q.438 0 .763.219.326.22.432.598h-.073l.066-.757h.651l-.04.412a6 6 0 0 0-.013.391v2.543h-.671v-.743h.073a1.03 1.03 0 0 1-.438.591 1.35 1.35 0 0 1-.75.212m.166-.524a.86.86 0 0 0 .69-.306q.266-.305.266-.903 0-.597-.266-.896a.86.86 0 0 0-.69-.306.89.89 0 0 0-.704.306q-.26.299-.259.896 0 .599.259.903.259.306.704.306m4.066.524q-.505 0-.883-.206a1.46 1.46 0 0 1-.578-.604 2.1 2.1 0 0 1-.199-.943q0-.537.206-.923a1.4 1.4 0 0 1 .577-.584q.372-.206.877-.206.326 0 .63.113.306.106.505.306l-.219.471a1.2 1.2 0 0 0-.418-.266 1.2 1.2 0 0 0-.452-.093q-.478 0-.75.306-.272.305-.272.883 0 .584.272.896t.75.312q.213 0 .445-.079.233-.087.425-.273l.219.472q-.206.2-.518.312a1.9 1.9 0 0 1-.617.106m3.154 0q-.545 0-.824-.292-.279-.299-.279-.89v-1.706h-.65v-.518h.65v-.883l.671-.179v1.062h.93v.518h-.93v1.647q0 .371.133.531.133.159.385.159.126 0 .219-.02.1-.026.179-.06v.545a1 1 0 0 1-.232.06 1.4 1.4 0 0 1-.252.026m-22.009 7.94v-2.543a4 4 0 0 0-.02-.391q-.013-.207-.033-.412h.651l.059.704h-.079q.139-.366.425-.565.292-.198.697-.199.411 0 .671.199.265.193.365.598h-.107q.134-.365.452-.578.318-.219.737-.219.558 0 .837.326.279.325.278 1.009v2.071h-.67v-2.038q0-.438-.153-.631-.146-.2-.478-.199a.76.76 0 0 0-.611.266q-.226.266-.226.717v1.885h-.67v-2.038q0-.438-.153-.631-.146-.2-.478-.199-.385 0-.604.266t-.219.717v1.885zm5.894 0v-3.346h.671v3.346zm-.053-4.043v-.697h.777v.697zm1.707 4.043v-2.543a4 4 0 0 0-.02-.391q-.013-.207-.033-.412h.65l.06.704h-.08q.153-.372.472-.565.318-.198.737-.199.59 0 .889.326.306.325.306 1.009v2.071h-.671v-2.031q0-.445-.179-.638-.173-.2-.531-.199-.425 0-.677.266-.253.258-.253.703v1.899zm3.936 0v-3.346h.67v3.346zm-.054-4.043v-.697h.777v.697zm1.707 4.043v-2.543a4 4 0 0 0-.02-.391q-.014-.207-.033-.412h.651l.059.704h-.079q.139-.366.425-.565.291-.198.697-.199.412 0 .67.199.265.193.366.598h-.107q.133-.365.452-.578.318-.219.737-.219.558 0 .836.326.279.325.279 1.009v2.071h-.67v-2.038q0-.438-.153-.631-.146-.2-.478-.199a.76.76 0 0 0-.611.266q-.225.266-.226.717v1.885h-.67v-2.038q0-.438-.153-.631-.146-.2-.478-.199-.385 0-.604.266t-.219.717v1.885zm7.176.06q-.445 0-.777-.206a1.37 1.37 0 0 1-.518-.597 2.2 2.2 0 0 1-.18-.93q0-.545.18-.929.185-.385.518-.591.332-.213.777-.213.438 0 .763.219.326.22.432.598h-.073l.066-.757h.651l-.04.412a6 6 0 0 0-.013.391v2.543h-.671v-.743h.073a1.03 1.03 0 0 1-.438.591 1.35 1.35 0 0 1-.75.212m.166-.524a.86.86 0 0 0 .69-.306q.266-.305.266-.903 0-.597-.266-.896a.86.86 0 0 0-.69-.306.89.89 0 0 0-.704.306q-.26.299-.259.896 0 .599.259.903.258.306.704.306m2.598.464v-4.886h.671v4.886z" />
    <path stroke="var(--fi-wheel-dashed-line, #161616)" stroke-dasharray="4 4" stroke-width=".5" d="M185.006 87.992h-16.861l-15.713 15.646-58.633 42.91 47.137 44.477 60.166-20.225 52.501-21.751 4.982-70.597z" />
</svg>