<svg xmlns="http://www.w3.org/2000/svg" width="1036" height="749" fill="none" viewBox="0 0 1036 749">
    <circle cx="515.035" cy="367.374" r="329.365" class="w1" fill="#E8B91C" stroke="#4A4021" stroke-dasharray="2 2"/>
    <circle cx="515.461" cy="367.801" r="250.522" class="w2" fill="#F6D872" stroke="#4A4021" stroke-dasharray="2 2"/>
    <circle cx="515.461" cy="367.8" r="156.761" class="w3" fill="#F9EEC6" stroke="#4A4021" stroke-dasharray="2 2"/>
    <path class="w8" fill="#A93031" d="M516.707 1.117a1 1 0 0 0-1.414 0l-6.364 6.364a1 1 0 1 0 1.414 1.414L516 3.238l5.657 5.657a1 1 0 1 0 1.414-1.414l-6.364-6.364Zm-1.414 328.414a.999.999 0 0 0 1.414 0l6.364-6.364a.999.999 0 1 0-1.414-1.414L516 327.41l-5.657-5.657a1 1 0 0 0-1.414 1.414l6.364 6.364ZM516 1.824h-1v327h2v-327h-1Z"/>
    <path class="w5" stroke="#997D1E" stroke-dasharray="2 2" d="M845 367.324H186M515.5 696.824v-659M281.974 599.819l465.391-465.391M283.532 135.278l463.687 463.687"/>
    <path class="w7" fill="#222" d="M869.094 466.983c-.997 0-1.901-.124-2.71-.37a6.663 6.663 0 0 1-2.112-1.091l.616-1.443c.399.305.809.557 1.232.756.434.2.891.352 1.373.458a8.54 8.54 0 0 0 1.601.141c.986 0 1.707-.176 2.165-.528.469-.352.704-.816.704-1.391 0-.492-.164-.874-.493-1.144-.317-.269-.88-.487-1.689-.651l-1.919-.387c-1.138-.235-1.989-.616-2.552-1.144-.551-.54-.827-1.273-.827-2.2 0-.751.199-1.408.598-1.971.399-.563.951-.998 1.655-1.303.715-.305 1.549-.457 2.499-.457.88 0 1.69.129 2.429.387.739.246 1.361.616 1.865 1.109l-.598 1.39a5.239 5.239 0 0 0-1.69-1.003c-.598-.223-1.279-.334-2.041-.334-.904 0-1.614.187-2.13.563-.504.375-.757.886-.757 1.531 0 .516.159.921.476 1.214.328.294.868.517 1.619.669l1.918.37c1.185.246 2.059.628 2.623 1.144.563.504.844 1.202.844 2.094 0 .716-.193 1.344-.58 1.883-.376.54-.916.963-1.62 1.268-.704.293-1.537.44-2.499.44Zm10.592 0c-.88 0-1.643-.182-2.288-.546a3.819 3.819 0 0 1-1.496-1.584c-.352-.692-.528-1.514-.528-2.464s.176-1.766.528-2.446a3.681 3.681 0 0 1 1.496-1.584c.645-.376 1.408-.564 2.288-.564.88 0 1.643.188 2.288.564a3.652 3.652 0 0 1 1.514 1.584c.363.68.545 1.496.545 2.446 0 .95-.182 1.772-.545 2.464a3.786 3.786 0 0 1-1.514 1.584c-.645.364-1.408.546-2.288.546Zm0-1.391c.774 0 1.39-.27 1.848-.809.458-.54.686-1.338.686-2.394s-.228-1.848-.686-2.376c-.458-.54-1.074-.81-1.848-.81-.763 0-1.373.27-1.83.81-.458.528-.687 1.32-.687 2.376 0 1.056.223 1.854.669 2.394.458.539 1.074.809 1.848.809Zm10.315 1.391c-.892 0-1.672-.182-2.341-.546a3.867 3.867 0 0 1-1.531-1.602c-.352-.704-.528-1.537-.528-2.499 0-.95.181-1.766.545-2.446a3.678 3.678 0 0 1 1.531-1.549c.657-.364 1.432-.546 2.324-.546.575 0 1.132.1 1.672.3.539.187.985.457 1.337.809l-.581 1.25a3.169 3.169 0 0 0-1.108-.704 3.222 3.222 0 0 0-1.197-.247c-.845 0-1.508.27-1.989.81-.481.54-.722 1.32-.722 2.341 0 1.032.241 1.824.722 2.376.481.551 1.144.827 1.989.827.375 0 .768-.07 1.179-.211a3.232 3.232 0 0 0 1.126-.722l.581 1.25c-.364.352-.821.628-1.373.827a4.94 4.94 0 0 1-1.636.282Zm4.893-.159v-8.87h1.777v8.87h-1.777Zm-.141-10.718v-1.848h2.059v1.848h-2.059Zm7.92 10.877c-.786 0-1.472-.182-2.059-.546-.586-.364-1.044-.892-1.373-1.584-.316-.692-.475-1.514-.475-2.464 0-.962.159-1.783.475-2.464.329-.681.787-1.203 1.373-1.566.587-.376 1.273-.564 2.059-.564.775 0 1.449.194 2.024.581.575.387.957.915 1.144 1.584h-.193l.176-2.006h1.725l-.106 1.091c-.023.352-.035.698-.035 1.038v6.741h-1.778v-1.971h.194a2.724 2.724 0 0 1-1.162 1.566c-.575.376-1.238.564-1.989.564Zm.44-1.391c.763 0 1.373-.27 1.831-.809.469-.54.704-1.338.704-2.394s-.235-1.848-.704-2.376c-.458-.54-1.068-.81-1.831-.81-.774 0-1.396.27-1.865.81-.458.528-.687 1.32-.687 2.376 0 1.056.229 1.854.687 2.394.457.539 1.079.809 1.865.809Zm6.889 1.232v-12.953h1.777v12.953h-1.777Zm12.471.159c-.786 0-1.472-.182-2.059-.546-.586-.364-1.044-.892-1.373-1.584-.316-.692-.475-1.514-.475-2.464 0-.962.159-1.783.475-2.464.329-.681.787-1.203 1.373-1.566.587-.376 1.273-.564 2.059-.564.775 0 1.449.194 2.024.581.575.387.957.915 1.144 1.584h-.193l.176-2.006h1.725l-.106 1.091c-.023.352-.035.698-.035 1.038v6.741h-1.778v-1.971h.194a2.724 2.724 0 0 1-1.162 1.566c-.575.376-1.238.564-1.989.564Zm.44-1.391c.763 0 1.373-.27 1.831-.809.469-.54.704-1.338.704-2.394s-.235-1.848-.704-2.376c-.458-.54-1.068-.81-1.831-.81-.774 0-1.396.27-1.865.81-.458.528-.687 1.32-.687 2.376 0 1.056.229 1.854.687 2.394.457.539 1.079.809 1.865.809Zm6.889 1.232v-8.87h1.777v8.87h-1.777Zm-.141-10.718v-1.848h2.059v1.848h-2.059Zm7.92 10.877c-.774 0-1.461-.182-2.059-.546-.587-.364-1.044-.892-1.373-1.584-.317-.692-.475-1.514-.475-2.464 0-.962.158-1.783.475-2.464.329-.681.786-1.203 1.373-1.566.598-.376 1.285-.564 2.059-.564.763 0 1.432.194 2.007.581.586.376.973.892 1.161 1.549h-.211v-6.054h1.778v12.953h-1.76v-2.006h.211a2.83 2.83 0 0 1-1.162 1.584c-.575.387-1.249.581-2.024.581Zm.44-1.391c.763 0 1.379-.27 1.848-.809.47-.54.704-1.338.704-2.394s-.234-1.848-.704-2.376c-.469-.54-1.085-.81-1.848-.81-.774 0-1.396.27-1.865.81-.458.528-.687 1.32-.687 2.376 0 1.056.229 1.854.687 2.394.469.539 1.091.809 1.865.809Zm11.581 5.034v-10.543c0-.34-.018-.686-.053-1.038a36.424 36.424 0 0 0-.088-1.091h1.725l.176 2.006h-.194a2.772 2.772 0 0 1 1.126-1.584c.575-.387 1.256-.581 2.042-.581.786 0 1.473.188 2.059.564.587.363 1.039.885 1.355 1.566.329.681.493 1.502.493 2.464 0 .95-.164 1.772-.493 2.464-.316.692-.768 1.22-1.355 1.584-.586.364-1.273.546-2.059.546-.774 0-1.449-.188-2.024-.564a2.766 2.766 0 0 1-1.126-1.566h.193v5.773h-1.777Zm4.294-5.034c.774 0 1.39-.27 1.848-.809.469-.54.704-1.338.704-2.394s-.235-1.848-.704-2.376c-.458-.54-1.074-.81-1.848-.81s-1.396.27-1.866.81c-.457.528-.686 1.32-.686 2.376 0 1.056.229 1.854.686 2.394.47.539 1.092.809 1.866.809Zm10.232 1.391c-.88 0-1.642-.182-2.288-.546a3.819 3.819 0 0 1-1.496-1.584c-.352-.692-.528-1.514-.528-2.464s.176-1.766.528-2.446a3.681 3.681 0 0 1 1.496-1.584c.646-.376 1.408-.564 2.288-.564.88 0 1.643.188 2.288.564a3.652 3.652 0 0 1 1.514 1.584c.364.68.545 1.496.545 2.446 0 .95-.181 1.772-.545 2.464a3.786 3.786 0 0 1-1.514 1.584c-.645.364-1.408.546-2.288.546Zm0-1.391c.775 0 1.391-.27 1.848-.809.458-.54.687-1.338.687-2.394s-.229-1.848-.687-2.376c-.457-.54-1.073-.81-1.848-.81-.762 0-1.373.27-1.83.81-.458.528-.687 1.32-.687 2.376 0 1.056.223 1.854.669 2.394.458.539 1.074.809 1.848.809Zm6.425 1.232v-12.953h1.778v12.953h-1.778Zm4.383 0v-8.87h1.778v8.87h-1.778Zm-.141-10.718v-1.848h2.059v1.848h-2.059Zm8.413 10.877c-.891 0-1.672-.182-2.34-.546a3.876 3.876 0 0 1-1.532-1.602c-.352-.704-.528-1.537-.528-2.499 0-.95.182-1.766.546-2.446a3.678 3.678 0 0 1 1.531-1.549c.657-.364 1.432-.546 2.323-.546.575 0 1.133.1 1.672.3.54.187.986.457 1.338.809l-.581 1.25a3.164 3.164 0 0 0-1.109-.704 3.213 3.213 0 0 0-1.196-.247c-.845 0-1.508.27-1.989.81-.481.54-.722 1.32-.722 2.341 0 1.032.241 1.824.722 2.376.481.551 1.144.827 1.989.827.375 0 .768-.07 1.179-.211a3.24 3.24 0 0 0 1.126-.722l.581 1.25c-.364.352-.821.628-1.373.827a4.945 4.945 0 0 1-1.637.282Zm4.894-.159v-8.87h1.777v8.87h-1.777Zm-.141-10.718v-1.848h2.059v1.848h-2.059Zm8.624 10.877c-1.431 0-2.558-.405-3.379-1.215-.821-.809-1.232-1.93-1.232-3.361 0-.927.176-1.737.528-2.429a3.954 3.954 0 0 1 1.496-1.602c.645-.387 1.39-.581 2.235-.581.833 0 1.531.176 2.095.528.563.352.991.851 1.284 1.496.294.634.438 1.385.438 2.253v.563h-6.686v-1.02h5.474l-.299.228c0-.88-.2-1.56-.599-2.041-.387-.493-.95-.739-1.689-.739-.821 0-1.455.287-1.901.862-.446.563-.669 1.343-.669 2.341v.176c0 1.044.253 1.83.757 2.358.516.528 1.244.792 2.182.792.517 0 .998-.07 1.444-.211a4.063 4.063 0 0 0 1.302-.739l.581 1.214a4.313 4.313 0 0 1-1.496.845 6.081 6.081 0 0 1-1.866.282Zm8.555 0c-.74 0-1.42-.094-2.04-.282-.63-.188-1.14-.452-1.55-.792l.54-1.214c.44.328.92.575 1.45.739.52.164 1.06.246 1.61.246.65 0 1.14-.111 1.47-.334.32-.235.49-.552.49-.951a.948.948 0 0 0-.32-.739c-.2-.188-.53-.328-1-.422l-1.69-.335c-.75-.164-1.32-.445-1.71-.844-.39-.399-.58-.91-.58-1.532 0-.528.14-.997.42-1.408.3-.41.71-.733 1.24-.968.53-.234 1.16-.352 1.88-.352.66 0 1.27.094 1.83.282a3.84 3.84 0 0 1 1.41.81l-.57 1.179c-.36-.305-.77-.54-1.23-.704a3.85 3.85 0 0 0-1.39-.264c-.66 0-1.14.123-1.46.369-.32.247-.47.569-.47.968 0 .305.09.558.28.757.2.188.51.335.93.44l1.69.335c.8.164 1.4.434 1.79.809.4.376.6.88.6 1.514 0 .551-.15 1.032-.45 1.443-.31.411-.73.722-1.27.933-.54.211-1.18.317-1.9.317Z"/>
    <path class="w8" fill="#A93031" d="M710.413 744.983c-1.267 0-2.346-.259-3.238-.775a5.178 5.178 0 0 1-2.059-2.2c-.469-.962-.704-2.094-.704-3.397 0-1.302.235-2.428.704-3.379a5.184 5.184 0 0 1 2.059-2.2c.892-.516 1.971-.774 3.238-.774.88 0 1.667.129 2.359.387a5.27 5.27 0 0 1 1.813 1.126l-.634 1.461c-.563-.481-1.115-.827-1.654-1.038-.528-.211-1.144-.317-1.848-.317-1.338 0-2.359.411-3.063 1.232-.704.821-1.056 1.989-1.056 3.502 0 1.514.352 2.687 1.056 3.52.704.822 1.725 1.232 3.063 1.232.704 0 1.32-.105 1.848-.316.539-.212 1.091-.564 1.654-1.056l.634 1.46a5.469 5.469 0 0 1-1.813 1.144c-.692.259-1.479.388-2.359.388Zm9.494 0c-.88 0-1.643-.182-2.288-.546a3.819 3.819 0 0 1-1.496-1.584c-.352-.692-.528-1.514-.528-2.464s.176-1.766.528-2.446a3.681 3.681 0 0 1 1.496-1.584c.645-.376 1.408-.564 2.288-.564.88 0 1.643.188 2.288.564a3.652 3.652 0 0 1 1.514 1.584c.363.68.545 1.496.545 2.446 0 .95-.182 1.772-.545 2.464a3.786 3.786 0 0 1-1.514 1.584c-.645.364-1.408.546-2.288.546Zm0-1.391c.775 0 1.391-.27 1.848-.809.458-.54.687-1.338.687-2.394s-.229-1.848-.687-2.376c-.457-.54-1.073-.81-1.848-.81-.763 0-1.373.27-1.83.81-.458.528-.687 1.32-.687 2.376 0 1.056.223 1.854.669 2.394.458.539 1.074.809 1.848.809Zm9.47 1.391c-.739 0-1.42-.094-2.042-.282-.622-.188-1.138-.452-1.549-.792l.546-1.214c.434.328.915.575 1.443.739a5.43 5.43 0 0 0 1.619.246c.646 0 1.133-.111 1.461-.334a1.11 1.11 0 0 0 .493-.951.943.943 0 0 0-.317-.739c-.199-.188-.534-.328-1.003-.422l-1.69-.335c-.75-.164-1.32-.445-1.707-.844-.387-.399-.581-.91-.581-1.532 0-.528.141-.997.423-1.408.293-.41.704-.733 1.232-.968.54-.234 1.167-.352 1.883-.352.657 0 1.267.094 1.83.282.564.188 1.033.458 1.408.81l-.563 1.179a3.99 3.99 0 0 0-1.232-.704 3.842 3.842 0 0 0-1.39-.264c-.657 0-1.144.123-1.461.369a1.168 1.168 0 0 0-.475.968c0 .305.094.558.281.757.2.188.511.335.933.44l1.69.335c.798.164 1.396.434 1.795.809.399.376.598.88.598 1.514 0 .551-.152 1.032-.457 1.443-.305.411-.728.722-1.267.933-.54.211-1.174.317-1.901.317Zm9.084 0c-.962 0-1.689-.259-2.182-.775-.493-.528-.739-1.314-.739-2.358v-4.523h-1.725v-1.373h1.725v-2.341l1.777-.475v2.816h2.464v1.373h-2.464v4.364c0 .657.118 1.127.352 1.408.235.282.575.423 1.021.423.223 0 .417-.018.581-.053.176-.047.334-.1.475-.158v1.443c-.176.07-.381.123-.616.158a3.402 3.402 0 0 1-.669.071Zm11.438 0c-.88 0-1.642-.182-2.288-.546a3.819 3.819 0 0 1-1.496-1.584c-.352-.692-.528-1.514-.528-2.464s.176-1.766.528-2.446a3.681 3.681 0 0 1 1.496-1.584c.646-.376 1.408-.564 2.288-.564.88 0 1.643.188 2.288.564a3.652 3.652 0 0 1 1.514 1.584c.364.68.546 1.496.546 2.446 0 .95-.182 1.772-.546 2.464a3.786 3.786 0 0 1-1.514 1.584c-.645.364-1.408.546-2.288.546Zm0-1.391c.775 0 1.391-.27 1.848-.809.458-.54.687-1.338.687-2.394s-.229-1.848-.687-2.376c-.457-.54-1.073-.81-1.848-.81-.762 0-1.372.27-1.83.81-.458.528-.686 1.32-.686 2.376 0 1.056.222 1.854.668 2.394.458.539 1.074.809 1.848.809Zm6.867 1.232v-7.497h-1.724v-1.373h2.217l-.493.457v-1.408c0-1.044.264-1.836.792-2.376.528-.551 1.303-.827 2.324-.827.246 0 .504.018.774.053s.493.094.669.176v1.443a2.521 2.521 0 0 0-.528-.141c-.2-.047-.405-.07-.616-.07-.341 0-.634.07-.88.211-.247.129-.44.329-.581.599-.129.269-.194.616-.194 1.038v1.197l-.264-.352h2.676v1.373h-2.394v7.497h-1.778Zm10.352 0v-12.953h1.778v12.953h-1.778Zm4.383 0v-8.87h1.777v8.87h-1.777Zm-.141-10.718v-1.848h2.059v1.848h-2.059Zm7.128 10.718-3.801-8.87h1.901l2.992 7.409h-.511l3.045-7.409h1.813l-3.819 8.87h-1.62Zm6.849 0v-8.87h1.777v8.87h-1.777Zm-.141-10.718v-1.848h2.059v1.848h-2.059Zm4.524 10.718v-6.741c0-.34-.018-.686-.053-1.038a36.424 36.424 0 0 0-.088-1.091h1.725l.158 1.865h-.211c.27-.657.686-1.155 1.249-1.496.564-.352 1.215-.528 1.954-.528 1.044 0 1.83.288 2.358.863.54.575.81 1.466.81 2.675v5.491h-1.778v-5.385c0-.787-.158-1.35-.475-1.69-.305-.352-.774-.528-1.408-.528-.751 0-1.349.235-1.795.704-.446.458-.669 1.079-.669 1.866v5.033h-1.777Zm14.428 3.943a7.923 7.923 0 0 1-2.183-.282 5.584 5.584 0 0 1-1.742-.845l.44-1.302c.364.246.721.44 1.073.581.352.152.722.264 1.109.334s.786.106 1.197.106c.845 0 1.478-.217 1.901-.652.434-.422.651-1.038.651-1.848v-2.376h.176a2.726 2.726 0 0 1-1.162 1.567c-.575.375-1.243.563-2.006.563-.81 0-1.514-.176-2.112-.528a3.708 3.708 0 0 1-1.373-1.531c-.317-.669-.475-1.455-.475-2.359 0-.903.158-1.683.475-2.34.329-.657.786-1.162 1.373-1.514.598-.364 1.302-.546 2.112-.546.774 0 1.443.194 2.006.581a2.67 2.67 0 0 1 1.144 1.549l-.158-.141.158-1.83h1.725c-.047.364-.082.727-.105 1.091a15.26 15.26 0 0 0-.036 1.038v6.565c0 1.338-.357 2.359-1.073 3.063-.704.704-1.743 1.056-3.115 1.056Zm-.124-5.544c.775 0 1.391-.264 1.848-.792.47-.528.704-1.273.704-2.236 0-.962-.234-1.701-.704-2.217-.457-.516-1.073-.775-1.848-.775-.797 0-1.431.259-1.9.775-.458.516-.687 1.255-.687 2.217 0 .963.229 1.708.687 2.236.469.528 1.103.792 1.9.792Z"/>
    <path class="w7" fill="#222" d="M862.895 211.983c-.997 0-1.901-.124-2.71-.37a6.663 6.663 0 0 1-2.112-1.091l.616-1.443c.398.305.809.557 1.232.756.434.2.891.352 1.372.458a8.56 8.56 0 0 0 1.602.141c.986 0 1.707-.176 2.165-.528.469-.352.704-.816.704-1.391 0-.492-.165-.874-.493-1.144-.317-.269-.88-.487-1.69-.651l-1.918-.387c-1.138-.235-1.989-.616-2.552-1.144-.552-.54-.827-1.273-.827-2.2 0-.751.199-1.408.598-1.971.399-.563.951-.998 1.655-1.303.715-.305 1.548-.457 2.499-.457.88 0 1.689.129 2.429.387.739.246 1.361.616 1.865 1.109l-.598 1.39a5.239 5.239 0 0 0-1.69-1.003c-.598-.223-1.279-.334-2.041-.334-.904 0-1.614.187-2.13.563-.505.375-.757.886-.757 1.531 0 .516.159.921.475 1.214.329.294.869.517 1.62.669l1.918.37c1.185.246 2.059.628 2.622 1.144.564.504.845 1.202.845 2.094 0 .716-.193 1.344-.581 1.883-.375.54-.915.963-1.619 1.268-.704.293-1.537.44-2.499.44Zm10.188 0c-.962 0-1.689-.259-2.182-.775-.493-.528-.739-1.314-.739-2.358v-4.523h-1.725v-1.373h1.725v-2.341l1.777-.475v2.816h2.464v1.373h-2.464v4.364c0 .657.118 1.127.352 1.408.235.282.575.423 1.021.423.223 0 .417-.018.581-.053.176-.047.334-.1.475-.158v1.443c-.176.07-.381.123-.616.158a3.418 3.418 0 0 1-.669.071Zm2.944-.159v-8.87h1.778v8.87h-1.778Zm-.14-10.718v-1.848h2.059v1.848h-2.059Zm8.518 14.661a7.92 7.92 0 0 1-2.182-.282 5.584 5.584 0 0 1-1.742-.845l.44-1.302c.363.246.721.44 1.073.581.352.152.722.264 1.109.334s.786.106 1.197.106c.845 0 1.478-.217 1.901-.652.434-.422.651-1.038.651-1.848v-2.376h.176a2.726 2.726 0 0 1-1.162 1.567c-.575.375-1.244.563-2.006.563-.81 0-1.514-.176-2.112-.528a3.708 3.708 0 0 1-1.373-1.531c-.317-.669-.475-1.455-.475-2.359 0-.903.158-1.683.475-2.34.329-.657.786-1.162 1.373-1.514.598-.364 1.302-.546 2.112-.546.774 0 1.443.194 2.006.581.575.376.956.892 1.144 1.549l-.158-.141.158-1.83h1.725a17.5 17.5 0 0 0-.141 2.129v6.565c0 1.338-.358 2.359-1.073 3.063-.704.704-1.743 1.056-3.116 1.056Zm-.123-5.544c.775 0 1.391-.264 1.848-.792.47-.528.704-1.273.704-2.236 0-.962-.234-1.701-.704-2.217-.457-.516-1.073-.775-1.848-.775-.798 0-1.431.259-1.901.775-.457.516-.686 1.255-.686 2.217 0 .963.229 1.708.686 2.236.47.528 1.103.792 1.901.792Zm6.905 1.601v-6.741c0-.34-.018-.686-.053-1.038a33.389 33.389 0 0 0-.088-1.091h1.725l.158 1.865h-.211c.246-.645.622-1.144 1.126-1.496.517-.352 1.133-.528 1.848-.528.728 0 1.32.176 1.778.528.469.341.792.869.968 1.584h-.282a3.048 3.048 0 0 1 1.197-1.531c.563-.387 1.215-.581 1.954-.581.985 0 1.725.288 2.217.863.493.575.74 1.466.74 2.675v5.491h-1.778v-5.403c0-.774-.135-1.332-.405-1.672-.258-.352-.68-.528-1.267-.528-.681 0-1.22.235-1.619.704s-.599 1.103-.599 1.901v4.998h-1.777v-5.403c0-.774-.135-1.332-.405-1.672-.258-.352-.681-.528-1.267-.528-.681 0-1.215.235-1.602.704s-.581 1.103-.581 1.901v4.998h-1.777Zm19.02.159c-.786 0-1.473-.182-2.059-.546-.587-.364-1.044-.892-1.373-1.584-.317-.692-.475-1.514-.475-2.464 0-.962.158-1.783.475-2.464.329-.681.786-1.203 1.373-1.566.586-.376 1.273-.564 2.059-.564.774 0 1.449.194 2.024.581.575.387.956.915 1.144 1.584h-.194l.176-2.006h1.725l-.105 1.091a15.26 15.26 0 0 0-.036 1.038v6.741h-1.777v-1.971h.193a2.722 2.722 0 0 1-1.161 1.566c-.575.376-1.238.564-1.989.564Zm.44-1.391c.763 0 1.373-.27 1.83-.809.47-.54.704-1.338.704-2.394s-.234-1.848-.704-2.376c-.457-.54-1.067-.81-1.83-.81-.774 0-1.396.27-1.866.81-.457.528-.686 1.32-.686 2.376 0 1.056.229 1.854.686 2.394.458.539 1.08.809 1.866.809Zm14.977 1.391c-.786 0-1.472-.182-2.059-.546-.587-.364-1.044-.892-1.373-1.584-.317-.692-.475-1.514-.475-2.464 0-.962.158-1.783.475-2.464.329-.681.786-1.203 1.373-1.566.587-.376 1.273-.564 2.059-.564.775 0 1.449.194 2.024.581.575.387.956.915 1.144 1.584h-.193l.176-2.006h1.724l-.105 1.091a15.25 15.25 0 0 0-.035 1.038v6.741h-1.778v-1.971h.194a2.724 2.724 0 0 1-1.162 1.566c-.575.376-1.238.564-1.989.564Zm.44-1.391c.763 0 1.373-.27 1.831-.809.469-.54.704-1.338.704-2.394s-.235-1.848-.704-2.376c-.458-.54-1.068-.81-1.831-.81-.774 0-1.396.27-1.865.81-.458.528-.687 1.32-.687 2.376 0 1.056.229 1.854.687 2.394.457.539 1.079.809 1.865.809Zm6.888 1.232v-6.741c0-.34-.017-.686-.052-1.038a36.424 36.424 0 0 0-.088-1.091h1.724l.159 1.865h-.211c.269-.657.686-1.155 1.249-1.496.563-.352 1.215-.528 1.954-.528 1.044 0 1.83.288 2.358.863.54.575.81 1.466.81 2.675v5.491h-1.778v-5.385c0-.787-.158-1.35-.475-1.69-.305-.352-.774-.528-1.408-.528-.751 0-1.349.235-1.795.704-.446.458-.669 1.079-.669 1.866v5.033h-1.778Zm13.83.159c-.774 0-1.461-.182-2.059-.546-.587-.364-1.044-.892-1.373-1.584-.317-.692-.475-1.514-.475-2.464 0-.962.158-1.783.475-2.464.329-.681.786-1.203 1.373-1.566.598-.376 1.285-.564 2.059-.564.763 0 1.431.194 2.006.581.587.376.974.892 1.162 1.549h-.211v-6.054h1.777v12.953h-1.76v-2.006h.212a2.83 2.83 0 0 1-1.162 1.584c-.575.387-1.25.581-2.024.581Zm.44-1.391c.763 0 1.379-.27 1.848-.809.469-.54.704-1.338.704-2.394s-.235-1.848-.704-2.376c-.469-.54-1.085-.81-1.848-.81-.774 0-1.396.27-1.866.81-.457.528-.686 1.32-.686 2.376 0 1.056.229 1.854.686 2.394.47.539 1.092.809 1.866.809Zm10.542 5.122c-.188 0-.405-.018-.651-.053a2.524 2.524 0 0 1-.669-.176v-1.443c.153.047.323.088.51.123.176.047.347.07.511.07.457 0 .804-.146 1.038-.44.247-.281.37-.751.37-1.408v-9.433h1.777v9.557c0 1.056-.234 1.853-.704 2.393-.469.54-1.196.81-2.182.81Zm.95-14.608v-1.848h2.077v1.848h-2.077Zm7.622 10.877c-1.068 0-1.872-.288-2.412-.863-.528-.586-.792-1.484-.792-2.693v-5.473h1.778v5.438c0 .739.153 1.285.458 1.637.305.352.768.528 1.39.528.704 0 1.273-.235 1.707-.704.434-.469.651-1.091.651-1.866v-5.033h1.778v8.87h-1.725v-1.901h.229c-.246.657-.639 1.168-1.179 1.532-.54.352-1.168.528-1.883.528Zm10.559 0c-.775 0-1.461-.182-2.06-.546-.586-.364-1.044-.892-1.372-1.584-.317-.692-.476-1.514-.476-2.464 0-.962.159-1.783.476-2.464.328-.681.786-1.203 1.372-1.566.599-.376 1.285-.564 2.06-.564.762 0 1.431.194 2.006.581.587.376.974.892 1.162 1.549h-.212v-6.054h1.778v12.953h-1.76v-2.006h.211a2.828 2.828 0 0 1-1.161 1.584c-.575.387-1.25.581-2.024.581Zm.44-1.391c.762 0 1.378-.27 1.848-.809.469-.54.704-1.338.704-2.394s-.235-1.848-.704-2.376c-.47-.54-1.086-.81-1.848-.81-.775 0-1.397.27-1.866.81-.458.528-.686 1.32-.686 2.376 0 1.056.228 1.854.686 2.394.469.539 1.091.809 1.866.809Zm10.883 5.175a7.916 7.916 0 0 1-2.182-.282 5.578 5.578 0 0 1-1.743-.845l.44-1.302c.364.246.722.44 1.074.581.352.152.721.264 1.109.334.387.07.786.106 1.196.106.845 0 1.479-.217 1.901-.652.434-.422.651-1.038.651-1.848v-2.376h.176a2.724 2.724 0 0 1-1.161 1.567c-.575.375-1.244.563-2.007.563-.809 0-1.513-.176-2.112-.528a3.706 3.706 0 0 1-1.372-1.531c-.317-.669-.476-1.455-.476-2.359 0-.903.159-1.683.476-2.34.328-.657.786-1.162 1.372-1.514.599-.364 1.303-.546 2.112-.546.775 0 1.444.194 2.007.581.575.376.956.892 1.144 1.549l-.159-.141.159-1.83h1.725a16.77 16.77 0 0 0-.141 2.129v6.565c0 1.338-.358 2.359-1.074 3.063-.704.704-1.742 1.056-3.115 1.056Zm-.123-5.544c.774 0 1.39-.264 1.848-.792.469-.528.704-1.273.704-2.236 0-.962-.235-1.701-.704-2.217-.458-.516-1.074-.775-1.848-.775-.798 0-1.432.259-1.901.775-.458.516-.686 1.255-.686 2.217 0 .963.228 1.708.686 2.236.469.528 1.103.792 1.901.792Zm6.904 1.601v-6.741c0-.34-.017-.686-.053-1.038a30.82 30.82 0 0 0-.088-1.091h1.725l.159 1.865h-.212c.247-.645.622-1.144 1.127-1.496.516-.352 1.132-.528 1.848-.528.725 0 1.315.176 1.775.528.47.341.79.869.97 1.584h-.28a2.99 2.99 0 0 1 1.2-1.531c.56-.387 1.21-.581 1.95-.581.98 0 1.72.288 2.22.863.49.575.74 1.466.74 2.675v5.491h-1.78v-5.403c0-.774-.14-1.332-.41-1.672-.25-.352-.68-.528-1.26-.528-.68 0-1.22.235-1.62.704-.4.469-.6 1.103-.6 1.901v4.998h-1.78v-5.403c0-.774-.13-1.332-.4-1.672-.262-.352-.684-.528-1.271-.528-.68 0-1.214.235-1.601.704-.388.469-.581 1.103-.581 1.901v4.998h-1.778Zm19.721.159c-1.43 0-2.55-.405-3.38-1.215-.82-.809-1.23-1.93-1.23-3.361 0-.927.18-1.737.53-2.429.36-.692.86-1.226 1.5-1.602.64-.387 1.39-.581 2.23-.581.83 0 1.53.176 2.1.528.56.352.99.851 1.28 1.496.29.634.44 1.385.44 2.253v.563h-6.69v-1.02h5.48l-.3.228c0-.88-.2-1.56-.6-2.041-.39-.493-.95-.739-1.69-.739-.82 0-1.46.287-1.9.862-.45.563-.67 1.343-.67 2.341v.176c0 1.044.25 1.83.76 2.358s1.24.792 2.18.792c.51 0 1-.07 1.44-.211.46-.153.89-.399 1.3-.739l.59 1.214c-.42.364-.91.646-1.5.845-.59.188-1.21.282-1.87.282Zm5.51-.159v-6.741c0-.34-.02-.686-.05-1.038l-.09-1.091h1.72l.16 1.865h-.21c.27-.657.69-1.155 1.25-1.496.56-.352 1.22-.528 1.95-.528 1.05 0 1.84.288 2.36.863.54.575.81 1.466.81 2.675v5.491h-1.77v-5.385c0-.787-.16-1.35-.48-1.69-.3-.352-.77-.528-1.41-.528-.75 0-1.35.235-1.79.704-.45.458-.67 1.079-.67 1.866v5.033h-1.78Zm13.88.159c-.96 0-1.69-.259-2.18-.775-.49-.528-.74-1.314-.74-2.358v-4.523h-1.72v-1.373h1.72v-2.341l1.78-.475v2.816h2.46v1.373h-2.46v4.364c0 .657.12 1.127.35 1.408.24.282.58.423 1.02.423.22 0 .42-.018.58-.053.18-.047.34-.1.48-.158v1.443a2.8 2.8 0 0 1-.62.158c-.23.047-.46.071-.67.071ZM205.413 725.824l5.526-12.408h1.567l5.614 12.408h-1.883l-1.531-3.52.774.493h-7.515l.827-.493-1.531 3.52h-1.848Zm6.283-10.401-2.675 6.318-.423-.405h6.248l-.352.405-2.728-6.318h-.07Zm11.709 10.56c-.891 0-1.672-.182-2.341-.546a3.874 3.874 0 0 1-1.531-1.602c-.352-.704-.528-1.537-.528-2.499 0-.95.182-1.766.546-2.446a3.678 3.678 0 0 1 1.531-1.549c.657-.364 1.432-.546 2.323-.546.575 0 1.133.1 1.672.3.54.187.986.457 1.338.809l-.581 1.25a3.164 3.164 0 0 0-1.109-.704 3.214 3.214 0 0 0-1.197-.247c-.844 0-1.507.27-1.988.81-.481.54-.722 1.32-.722 2.341 0 1.032.241 1.824.722 2.376.481.551 1.144.827 1.988.827.376 0 .769-.07 1.18-.211a3.24 3.24 0 0 0 1.126-.722l.581 1.25c-.364.352-.821.628-1.373.827a4.945 4.945 0 0 1-1.637.282Zm8.611 0c-.892 0-1.672-.182-2.341-.546a3.874 3.874 0 0 1-1.531-1.602c-.352-.704-.528-1.537-.528-2.499 0-.95.182-1.766.546-2.446a3.678 3.678 0 0 1 1.531-1.549c.657-.364 1.431-.546 2.323-.546.575 0 1.132.1 1.672.3.54.187.986.457 1.338.809l-.581 1.25a3.173 3.173 0 0 0-1.109-.704 3.214 3.214 0 0 0-1.197-.247c-.844 0-1.507.27-1.988.81-.481.54-.722 1.32-.722 2.341 0 1.032.241 1.824.722 2.376.481.551 1.144.827 1.988.827.376 0 .769-.07 1.18-.211a3.24 3.24 0 0 0 1.126-.722l.581 1.25c-.364.352-.822.628-1.373.827a4.945 4.945 0 0 1-1.637.282Zm8.523 0c-.88 0-1.643-.182-2.288-.546a3.819 3.819 0 0 1-1.496-1.584c-.352-.692-.528-1.514-.528-2.464s.176-1.766.528-2.446a3.681 3.681 0 0 1 1.496-1.584c.645-.376 1.408-.564 2.288-.564.88 0 1.643.188 2.288.564a3.652 3.652 0 0 1 1.514 1.584c.363.68.545 1.496.545 2.446 0 .95-.182 1.772-.545 2.464a3.786 3.786 0 0 1-1.514 1.584c-.645.364-1.408.546-2.288.546Zm0-1.391c.775 0 1.391-.27 1.848-.809.458-.54.687-1.338.687-2.394s-.229-1.848-.687-2.376c-.457-.54-1.073-.81-1.848-.81-.763 0-1.373.27-1.83.81-.458.528-.687 1.32-.687 2.376 0 1.056.223 1.854.669 2.394.458.539 1.074.809 1.848.809Zm6.425 1.232v-6.741c0-.34-.017-.686-.053-1.038a30.82 30.82 0 0 0-.088-1.091h1.725l.159 1.865h-.212c.247-.645.622-1.144 1.127-1.496.516-.352 1.132-.528 1.848-.528.727 0 1.32.176 1.777.528.47.341.792.869.968 1.584h-.281a3.037 3.037 0 0 1 1.197-1.531c.563-.387 1.214-.581 1.953-.581.986 0 1.725.288 2.218.863.493.575.739 1.466.739 2.675v5.491h-1.778v-5.403c0-.774-.135-1.332-.404-1.672-.259-.352-.681-.528-1.268-.528-.68 0-1.22.235-1.619.704s-.598 1.103-.598 1.901v4.998h-1.778v-5.403c0-.774-.135-1.332-.405-1.672-.258-.352-.68-.528-1.267-.528-.68 0-1.214.235-1.601.704-.388.469-.581 1.103-.581 1.901v4.998h-1.778Zm15.624 0v-6.741c0-.34-.018-.686-.053-1.038a36.424 36.424 0 0 0-.088-1.091h1.725l.158 1.865h-.211c.246-.645.622-1.144 1.126-1.496.516-.352 1.132-.528 1.848-.528.728 0 1.32.176 1.778.528.469.341.792.869.968 1.584h-.282a3.048 3.048 0 0 1 1.197-1.531c.563-.387 1.214-.581 1.954-.581.985 0 1.724.288 2.217.863.493.575.739 1.466.739 2.675v5.491h-1.777v-5.403c0-.774-.135-1.332-.405-1.672-.258-.352-.681-.528-1.267-.528-.681 0-1.221.235-1.619.704-.399.469-.599 1.103-.599 1.901v4.998h-1.777v-5.403c0-.774-.135-1.332-.405-1.672-.258-.352-.681-.528-1.267-.528-.681 0-1.215.235-1.602.704s-.581 1.103-.581 1.901v4.998h-1.777Zm19.425.159c-.88 0-1.643-.182-2.288-.546a3.813 3.813 0 0 1-1.496-1.584c-.352-.692-.528-1.514-.528-2.464s.176-1.766.528-2.446a3.676 3.676 0 0 1 1.496-1.584c.645-.376 1.408-.564 2.288-.564.88 0 1.642.188 2.288.564a3.65 3.65 0 0 1 1.513 1.584c.364.68.546 1.496.546 2.446 0 .95-.182 1.772-.546 2.464a3.784 3.784 0 0 1-1.513 1.584c-.646.364-1.408.546-2.288.546Zm0-1.391c.774 0 1.39-.27 1.848-.809.457-.54.686-1.338.686-2.394s-.229-1.848-.686-2.376c-.458-.54-1.074-.81-1.848-.81-.763 0-1.373.27-1.831.81-.457.528-.686 1.32-.686 2.376 0 1.056.223 1.854.669 2.394.457.539 1.073.809 1.848.809Zm9.821 1.391c-.774 0-1.46-.182-2.059-.546-.587-.364-1.044-.892-1.373-1.584-.316-.692-.475-1.514-.475-2.464 0-.962.159-1.783.475-2.464.329-.681.786-1.203 1.373-1.566.599-.376 1.285-.564 2.059-.564.763 0 1.432.194 2.007.581.586.376.974.892 1.161 1.549h-.211v-6.054h1.778v12.953h-1.76v-2.006h.211a2.83 2.83 0 0 1-1.162 1.584c-.575.387-1.249.581-2.024.581Zm.44-1.391c.763 0 1.379-.27 1.848-.809.47-.54.704-1.338.704-2.394s-.234-1.848-.704-2.376c-.469-.54-1.085-.81-1.848-.81-.774 0-1.396.27-1.865.81-.458.528-.687 1.32-.687 2.376 0 1.056.229 1.854.687 2.394.469.539 1.091.809 1.865.809Zm10.285 1.391c-.786 0-1.472-.182-2.059-.546-.587-.364-1.044-.892-1.373-1.584-.316-.692-.475-1.514-.475-2.464 0-.962.159-1.783.475-2.464.329-.681.786-1.203 1.373-1.566.587-.376 1.273-.564 2.059-.564.775 0 1.449.194 2.024.581.575.387.957.915 1.144 1.584h-.193l.176-2.006h1.725l-.106 1.091a15.25 15.25 0 0 0-.035 1.038v6.741h-1.778v-1.971h.194a2.724 2.724 0 0 1-1.162 1.566c-.575.376-1.238.564-1.989.564Zm.44-1.391c.763 0 1.373-.27 1.831-.809.469-.54.704-1.338.704-2.394s-.235-1.848-.704-2.376c-.458-.54-1.068-.81-1.831-.81-.774 0-1.396.27-1.865.81-.458.528-.687 1.32-.687 2.376 0 1.056.229 1.854.687 2.394.457.539 1.079.809 1.865.809Zm10.338 1.391c-.962 0-1.689-.259-2.182-.775-.493-.528-.739-1.314-.739-2.358v-4.523h-1.725v-1.373h1.725v-2.341l1.777-.475v2.816h2.464v1.373h-2.464v4.364c0 .657.117 1.127.352 1.408.235.282.575.423 1.021.423.223 0 .416-.018.581-.053.176-.047.334-.1.475-.158v1.443c-.176.07-.381.123-.616.158a3.418 3.418 0 0 1-.669.071Zm2.944-.159v-8.87h1.778v8.87h-1.778Zm-.14-10.718v-1.848h2.059v1.848h-2.059Zm8.325 10.877c-.88 0-1.643-.182-2.288-.546a3.813 3.813 0 0 1-1.496-1.584c-.352-.692-.528-1.514-.528-2.464s.176-1.766.528-2.446a3.676 3.676 0 0 1 1.496-1.584c.645-.376 1.408-.564 2.288-.564.88 0 1.642.188 2.288.564a3.65 3.65 0 0 1 1.513 1.584c.364.68.546 1.496.546 2.446 0 .95-.182 1.772-.546 2.464a3.784 3.784 0 0 1-1.513 1.584c-.646.364-1.408.546-2.288.546Zm0-1.391c.774 0 1.39-.27 1.848-.809.457-.54.686-1.338.686-2.394s-.229-1.848-.686-2.376c-.458-.54-1.074-.81-1.848-.81-.763 0-1.373.27-1.831.81-.457.528-.686 1.32-.686 2.376 0 1.056.223 1.854.669 2.394.457.539 1.073.809 1.848.809Zm6.425 1.232v-6.741c0-.34-.018-.686-.053-1.038a36.424 36.424 0 0 0-.088-1.091h1.725l.158 1.865h-.211c.27-.657.686-1.155 1.249-1.496.564-.352 1.215-.528 1.954-.528 1.044 0 1.83.288 2.358.863.54.575.81 1.466.81 2.675v5.491h-1.778v-5.385c0-.787-.158-1.35-.475-1.69-.305-.352-.774-.528-1.408-.528-.751 0-1.349.235-1.795.704-.446.458-.669 1.079-.669 1.866v5.033h-1.777Zm13.477.159a7.027 7.027 0 0 1-2.041-.282c-.622-.188-1.138-.452-1.549-.792l.545-1.214c.435.328.916.575 1.444.739a5.424 5.424 0 0 0 1.619.246c.645 0 1.132-.111 1.461-.334a1.11 1.11 0 0 0 .492-.951.942.942 0 0 0-.316-.739c-.2-.188-.534-.328-1.004-.422l-1.689-.335c-.751-.164-1.32-.445-1.707-.844-.388-.399-.581-.91-.581-1.532 0-.528.141-.997.422-1.408.294-.41.704-.733 1.232-.968.54-.234 1.168-.352 1.883-.352.658 0 1.268.094 1.831.282.563.188 1.032.458 1.408.81l-.563 1.179a4.013 4.013 0 0 0-1.232-.704 3.847 3.847 0 0 0-1.391-.264c-.657 0-1.144.123-1.461.369a1.171 1.171 0 0 0-.475.968c0 .305.094.558.282.757.199.188.51.335.933.44l1.689.335c.798.164 1.397.434 1.795.809.399.376.599.88.599 1.514 0 .551-.153 1.032-.458 1.443-.305.411-.727.722-1.267.933-.54.211-1.173.317-1.901.317Zm13.81 0c-.786 0-1.472-.182-2.059-.546-.587-.364-1.044-.892-1.373-1.584-.317-.692-.475-1.514-.475-2.464 0-.962.158-1.783.475-2.464.329-.681.786-1.203 1.373-1.566.587-.376 1.273-.564 2.059-.564.775 0 1.449.194 2.024.581.575.387.956.915 1.144 1.584h-.193l.176-2.006h1.724l-.105 1.091a15.25 15.25 0 0 0-.035 1.038v6.741h-1.778v-1.971h.194a2.724 2.724 0 0 1-1.162 1.566c-.575.376-1.238.564-1.989.564Zm.44-1.391c.763 0 1.373-.27 1.831-.809.469-.54.704-1.338.704-2.394s-.235-1.848-.704-2.376c-.458-.54-1.068-.81-1.831-.81-.774 0-1.396.27-1.865.81-.458.528-.687 1.32-.687 2.376 0 1.056.229 1.854.687 2.394.457.539 1.079.809 1.865.809Zm10.338 1.391c-.962 0-1.69-.259-2.182-.775-.493-.528-.74-1.314-.74-2.358v-4.523h-1.724v-1.373h1.724v-2.341l1.778-.475v2.816h2.464v1.373h-2.464v4.364c0 .657.117 1.127.352 1.408.235.282.575.423 1.021.423.223 0 .416-.018.581-.053.176-.047.334-.1.475-.158v1.443a2.79 2.79 0 0 1-.616.158 3.418 3.418 0 0 1-.669.071Zm10.047-.159-3.361-8.87h1.848l2.622 7.392h-.457l2.692-7.392h1.373l2.675 7.392h-.44l2.623-7.392h1.777l-3.379 8.87h-1.619l-2.781-7.533h.827l-2.745 7.533h-1.655Zm16.636.159c-.88 0-1.643-.182-2.288-.546a3.819 3.819 0 0 1-1.496-1.584c-.352-.692-.528-1.514-.528-2.464s.176-1.766.528-2.446a3.681 3.681 0 0 1 1.496-1.584c.645-.376 1.408-.564 2.288-.564.88 0 1.643.188 2.288.564a3.652 3.652 0 0 1 1.514 1.584c.363.68.545 1.496.545 2.446 0 .95-.182 1.772-.545 2.464a3.786 3.786 0 0 1-1.514 1.584c-.645.364-1.408.546-2.288.546Zm0-1.391c.775 0 1.391-.27 1.848-.809.458-.54.687-1.338.687-2.394s-.229-1.848-.687-2.376c-.457-.54-1.073-.81-1.848-.81-.763 0-1.373.27-1.83.81-.458.528-.687 1.32-.687 2.376 0 1.056.223 1.854.669 2.394.458.539 1.074.809 1.848.809Zm6.39 1.232v-6.67c0-.364-.012-.728-.035-1.091a16.658 16.658 0 0 0-.071-1.109h1.725l.194 2.288h-.282c.117-.552.317-1.009.599-1.373a2.604 2.604 0 0 1 1.02-.81 3.23 3.23 0 0 1 1.76-.228c.129.011.258.035.388.07l-.018 1.584a1.798 1.798 0 0 0-.528-.141 3.358 3.358 0 0 0-.528-.035c-.516 0-.956.117-1.32.352-.364.223-.64.528-.827.915a2.824 2.824 0 0 0-.282 1.25v4.998h-1.795Zm6.669 0v-12.953h1.778v7.955h.035l3.872-3.872h2.2l-4.681 4.664.017-.792 5.051 4.998h-2.252l-4.207-4.065h-.035v4.065h-1.778ZM6.55 466.983c-1.724 0-3.009-.435-3.854-1.303-.833-.868-1.25-2.153-1.25-3.854v-7.41h1.831v7.375c0 1.196.258 2.1.774 2.71.528.598 1.362.898 2.5.898 1.08 0 1.895-.3 2.446-.898.552-.61.827-1.514.827-2.71v-7.375h1.796v7.41c0 1.701-.429 2.986-1.285 3.854-.857.868-2.118 1.303-3.784 1.303Zm7.75-.159v-6.741c0-.34-.017-.686-.052-1.038a33.955 33.955 0 0 0-.088-1.091h1.725l.158 1.865h-.211c.27-.657.686-1.155 1.25-1.496.563-.352 1.214-.528 1.953-.528 1.044 0 1.83.288 2.359.863.54.575.81 1.466.81 2.675v5.491h-1.778v-5.385c0-.787-.159-1.35-.476-1.69-.305-.352-.774-.528-1.408-.528-.75 0-1.349.235-1.795.704-.446.458-.669 1.079-.669 1.866v5.033h-1.777Zm14.534.159c-1.431 0-2.557-.405-3.379-1.215-.821-.809-1.232-1.93-1.232-3.361 0-.927.176-1.737.528-2.429a3.955 3.955 0 0 1 1.496-1.602c.646-.387 1.39-.581 2.236-.581.832 0 1.53.176 2.094.528.563.352.991.851 1.285 1.496.293.634.44 1.385.44 2.253v.563h-6.688v-1.02h5.473l-.299.228c0-.88-.2-1.56-.598-2.041-.388-.493-.95-.739-1.69-.739-.821 0-1.455.287-1.9.862-.447.563-.67 1.343-.67 2.341v.176c0 1.044.253 1.83.757 2.358.516.528 1.244.792 2.183.792.516 0 .997-.07 1.443-.211a4.055 4.055 0 0 0 1.302-.739l.581 1.214c-.41.364-.91.646-1.496.845a6.077 6.077 0 0 1-1.866.282Zm4.171-.159 4.03-4.998v.845l-3.818-4.717h2.13l2.692 3.467h-.633l2.692-3.467h2.112l-3.784 4.699v-.81l4.013 4.981h-2.13l-2.903-3.713h.633l-2.922 3.713h-2.111Zm10.79 3.802v-10.543c0-.34-.018-.686-.053-1.038a34.245 34.245 0 0 0-.088-1.091h1.725l.176 2.006h-.194a2.77 2.77 0 0 1 1.126-1.584c.575-.387 1.256-.581 2.042-.581.786 0 1.472.188 2.06.564.586.363 1.038.885 1.354 1.566.329.681.493 1.502.493 2.464 0 .95-.164 1.772-.493 2.464-.316.692-.768 1.22-1.355 1.584-.587.364-1.273.546-2.059.546-.774 0-1.45-.188-2.024-.564a2.769 2.769 0 0 1-1.126-1.566h.193v5.773h-1.777Zm4.294-5.034c.774 0 1.39-.27 1.848-.809.47-.54.704-1.338.704-2.394s-.235-1.848-.704-2.376c-.458-.54-1.074-.81-1.848-.81s-1.396.27-1.866.81c-.457.528-.686 1.32-.686 2.376 0 1.056.229 1.854.686 2.394.47.539 1.092.809 1.866.809Zm10.531 1.391c-1.431 0-2.557-.405-3.379-1.215-.821-.809-1.232-1.93-1.232-3.361 0-.927.176-1.737.528-2.429a3.955 3.955 0 0 1 1.496-1.602c.645-.387 1.39-.581 2.235-.581.834 0 1.532.176 2.095.528.563.352.991.851 1.285 1.496.293.634.44 1.385.44 2.253v.563H55.4v-1.02h5.473l-.299.228c0-.88-.2-1.56-.598-2.041-.388-.493-.95-.739-1.69-.739-.821 0-1.455.287-1.9.862-.447.563-.67 1.343-.67 2.341v.176c0 1.044.253 1.83.757 2.358.517.528 1.244.792 2.183.792.516 0 .997-.07 1.443-.211a4.055 4.055 0 0 0 1.302-.739l.581 1.214c-.41.364-.91.646-1.496.845a6.077 6.077 0 0 1-1.866.282Zm9.397 0c-.892 0-1.672-.182-2.34-.546a3.872 3.872 0 0 1-1.532-1.602c-.352-.704-.528-1.537-.528-2.499 0-.95.182-1.766.546-2.446a3.677 3.677 0 0 1 1.53-1.549c.658-.364 1.432-.546 2.324-.546.575 0 1.132.1 1.672.3.54.187.986.457 1.338.809l-.581 1.25a3.17 3.17 0 0 0-1.109-.704 3.22 3.22 0 0 0-1.197-.247c-.845 0-1.508.27-1.989.81-.48.54-.721 1.32-.721 2.341 0 1.032.24 1.824.721 2.376.481.551 1.144.827 1.99.827.375 0 .768-.07 1.178-.211.411-.153.787-.393 1.127-.722l.58 1.25c-.363.352-.82.628-1.372.827a4.945 4.945 0 0 1-1.637.282Zm8.36 0c-.962 0-1.69-.259-2.182-.775-.493-.528-.74-1.314-.74-2.358v-4.523h-1.724v-1.373h1.724v-2.341l1.778-.475v2.816h2.464v1.373h-2.464v4.364c0 .657.117 1.127.352 1.408.235.282.575.423 1.02.423.224 0 .417-.018.582-.053.176-.047.334-.1.475-.158v1.443a2.78 2.78 0 0 1-.616.158 3.412 3.412 0 0 1-.669.071Zm6.959 0c-1.431 0-2.558-.405-3.38-1.215-.82-.809-1.231-1.93-1.231-3.361 0-.927.176-1.737.528-2.429a3.955 3.955 0 0 1 1.496-1.602c.645-.387 1.39-.581 2.235-.581.833 0 1.531.176 2.094.528.564.352.992.851 1.285 1.496.293.634.44 1.385.44 2.253v.563h-6.688v-1.02h5.474l-.3.228c0-.88-.199-1.56-.598-2.041-.387-.493-.95-.739-1.69-.739-.82 0-1.454.287-1.9.862-.446.563-.669 1.343-.669 2.341v.176c0 1.044.252 1.83.757 2.358.516.528 1.244.792 2.182.792.517 0 .998-.07 1.443-.211a4.055 4.055 0 0 0 1.303-.739l.58 1.214c-.41.364-.909.646-1.495.845a6.077 6.077 0 0 1-1.866.282Zm8.904 0c-.775 0-1.461-.182-2.06-.546-.586-.364-1.044-.892-1.372-1.584-.317-.692-.475-1.514-.475-2.464 0-.962.158-1.783.475-2.464.328-.681.786-1.203 1.373-1.566.598-.376 1.284-.564 2.059-.564.763 0 1.431.194 2.006.581.587.376.974.892 1.162 1.549h-.211v-6.054h1.777v12.953h-1.76v-2.006h.211a2.827 2.827 0 0 1-1.161 1.584c-.575.387-1.25.581-2.024.581Zm.44-1.391c.762 0 1.378-.27 1.848-.809.47-.54.704-1.338.704-2.394s-.235-1.848-.704-2.376c-.47-.54-1.086-.81-1.848-.81-.775 0-1.396.27-1.866.81-.457.528-.686 1.32-.686 2.376 0 1.056.229 1.854.686 2.394.47.539 1.091.809 1.866.809Zm15.681 1.391c-1.431 0-2.558-.405-3.379-1.215-.822-.809-1.232-1.93-1.232-3.361 0-.927.176-1.737.528-2.429a3.954 3.954 0 0 1 1.496-1.602c.645-.387 1.39-.581 2.235-.581.833 0 1.531.176 2.094.528.564.352.992.851 1.285 1.496.294.634.44 1.385.44 2.253v.563h-6.688v-1.02h5.474l-.299.228c0-.88-.2-1.56-.599-2.041-.387-.493-.95-.739-1.689-.739-.822 0-1.455.287-1.901.862-.446.563-.669 1.343-.669 2.341v.176c0 1.044.252 1.83.757 2.358.516.528 1.244.792 2.182.792.516 0 .998-.07 1.443-.211a4.057 4.057 0 0 0 1.303-.739l.581 1.214c-.411.364-.91.646-1.496.845a6.081 6.081 0 0 1-1.866.282Zm7.992-.159-3.802-8.87h1.901l2.992 7.409h-.511l3.045-7.409h1.813l-3.819 8.87h-1.619Zm10.794.159c-1.432 0-2.558-.405-3.379-1.215-.822-.809-1.232-1.93-1.232-3.361 0-.927.176-1.737.528-2.429a3.947 3.947 0 0 1 1.496-1.602c.645-.387 1.39-.581 2.235-.581.833 0 1.531.176 2.094.528.564.352.992.851 1.285 1.496.293.634.44 1.385.44 2.253v.563h-6.688v-1.02h5.474l-.299.228c0-.88-.2-1.56-.599-2.041-.387-.493-.95-.739-1.689-.739-.822 0-1.455.287-1.901.862-.446.563-.669 1.343-.669 2.341v.176c0 1.044.252 1.83.757 2.358.516.528 1.243.792 2.182.792.516 0 .997-.07 1.443-.211a4.057 4.057 0 0 0 1.303-.739l.581 1.214c-.411.364-.91.646-1.496.845a6.081 6.081 0 0 1-1.866.282Zm5.507-.159v-6.741c0-.34-.018-.686-.053-1.038a33.389 33.389 0 0 0-.088-1.091h1.725l.158 1.865h-.211c.27-.657.687-1.155 1.25-1.496.563-.352 1.214-.528 1.953-.528 1.045 0 1.831.288 2.359.863.539.575.809 1.466.809 2.675v5.491h-1.777v-5.385c0-.787-.159-1.35-.475-1.69-.306-.352-.775-.528-1.408-.528-.751 0-1.35.235-1.796.704-.446.458-.668 1.079-.668 1.866v5.033h-1.778Zm13.882.159c-.962 0-1.689-.259-2.182-.775-.493-.528-.739-1.314-.739-2.358v-4.523h-1.725v-1.373h1.725v-2.341l1.777-.475v2.816h2.464v1.373h-2.464v4.364c0 .657.118 1.127.352 1.408.235.282.575.423 1.021.423.223 0 .417-.018.581-.053.176-.047.334-.1.475-.158v1.443c-.176.07-.381.123-.616.158a3.402 3.402 0 0 1-.669.071Zm5.989 0a7.027 7.027 0 0 1-2.041-.282c-.622-.188-1.138-.452-1.549-.792l.546-1.214c.434.328.915.575 1.443.739a5.424 5.424 0 0 0 1.619.246c.645 0 1.132-.111 1.461-.334.328-.235.493-.552.493-.951a.943.943 0 0 0-.317-.739c-.2-.188-.534-.328-1.003-.422l-1.69-.335c-.751-.164-1.32-.445-1.707-.844-.387-.399-.581-.91-.581-1.532 0-.528.141-.997.422-1.408.294-.41.704-.733 1.232-.968.54-.234 1.168-.352 1.884-.352.657 0 1.267.094 1.83.282.563.188 1.032.458 1.408.81l-.563 1.179a4.013 4.013 0 0 0-1.232-.704 3.847 3.847 0 0 0-1.391-.264c-.657 0-1.144.123-1.46.369a1.17 1.17 0 0 0-.476.968c0 .305.094.558.282.757.199.188.51.335.933.44l1.689.335c.798.164 1.397.434 1.796.809.398.376.598.88.598 1.514 0 .551-.153 1.032-.458 1.443-.305.411-.727.722-1.267.933-.54.211-1.173.317-1.901.317Z"/>
    <path class="w8" fill="#A93031" d="m708.033 23.824-4.347-12.408h1.901l3.608 10.719h-.652l3.82-10.719h1.39l3.59 10.719h-.598l3.731-10.719h1.795l-4.382 12.408h-1.566l-3.485-10.208h.369l-3.625 10.208h-1.549Zm16.073 0V10.871h1.777v5.966h-.246c.258-.669.674-1.173 1.249-1.514.575-.352 1.238-.528 1.989-.528 1.056 0 1.842.294 2.359.88.516.575.774 1.45.774 2.623v5.526h-1.778v-5.42c0-.763-.152-1.315-.457-1.655-.294-.352-.763-.528-1.408-.528-.751 0-1.355.235-1.813.704-.446.458-.669 1.068-.669 1.83v5.07h-1.777Zm14.533.159c-1.431 0-2.558-.405-3.379-1.215-.821-.81-1.232-1.93-1.232-3.361 0-.927.176-1.737.528-2.43a3.949 3.949 0 0 1 1.496-1.6c.645-.388 1.39-.582 2.235-.582.833 0 1.531.176 2.095.528.563.352.991.851 1.284 1.496.294.634.44 1.385.44 2.253v.563h-6.688v-1.02h5.474l-.299.228c0-.88-.2-1.56-.599-2.041-.387-.493-.95-.74-1.689-.74-.822 0-1.455.288-1.901.863-.446.563-.669 1.343-.669 2.34v.177c0 1.044.252 1.83.757 2.358.516.528 1.244.792 2.182.792.517 0 .998-.07 1.444-.211a4.049 4.049 0 0 0 1.302-.74l.581 1.215c-.411.364-.91.646-1.496.845a6.087 6.087 0 0 1-1.866.282Zm5.472-.159v-6.67c0-.364-.012-.728-.035-1.091a16.669 16.669 0 0 0-.071-1.11h1.725l.194 2.289h-.282c.117-.552.317-1.01.599-1.373a2.606 2.606 0 0 1 1.02-.81 3.23 3.23 0 0 1 1.76-.228c.129.011.258.035.388.07l-.018 1.584a1.788 1.788 0 0 0-.528-.14 3.307 3.307 0 0 0-.528-.036c-.516 0-.956.117-1.32.352-.364.223-.64.528-.827.915a2.823 2.823 0 0 0-.282 1.25v4.998h-1.795Zm10.65.159c-1.431 0-2.558-.405-3.379-1.215-.822-.81-1.232-1.93-1.232-3.361 0-.927.176-1.737.528-2.43a3.949 3.949 0 0 1 1.496-1.6c.645-.388 1.39-.582 2.235-.582.833 0 1.531.176 2.094.528.564.352.992.851 1.285 1.496.294.634.44 1.385.44 2.253v.563h-6.688v-1.02h5.474l-.299.228c0-.88-.2-1.56-.599-2.041-.387-.493-.95-.74-1.689-.74-.822 0-1.455.288-1.901.863-.446.563-.669 1.343-.669 2.34v.177c0 1.044.252 1.83.757 2.358.516.528 1.244.792 2.182.792.516 0 .998-.07 1.443-.211a4.043 4.043 0 0 0 1.303-.74l.581 1.215c-.411.364-.91.646-1.496.845a6.087 6.087 0 0 1-1.866.282Zm9.935 3.836-.422-1.443c.551-.117 1.009-.258 1.373-.422.375-.164.686-.381.932-.651.247-.259.458-.593.634-1.004l.44-1.038-.035.722-3.855-9.03h1.901l2.992 7.393h-.475l2.992-7.392h1.83l-4.065 9.504a7.816 7.816 0 0 1-.827 1.478 4.41 4.41 0 0 1-.951.968c-.34.247-.716.44-1.126.581-.411.14-.857.252-1.338.334Zm13.347-3.836c-.88 0-1.643-.182-2.288-.546a3.824 3.824 0 0 1-1.496-1.584c-.352-.692-.528-1.514-.528-2.464s.176-1.766.528-2.446a3.69 3.69 0 0 1 1.496-1.584c.645-.376 1.408-.564 2.288-.564.88 0 1.643.188 2.288.564a3.66 3.66 0 0 1 1.514 1.584c.363.68.545 1.496.545 2.446 0 .95-.182 1.772-.545 2.464a3.791 3.791 0 0 1-1.514 1.584c-.645.364-1.408.546-2.288.546Zm0-1.39c.774 0 1.39-.27 1.848-.81.458-.54.686-1.338.686-2.394s-.228-1.848-.686-2.376c-.458-.54-1.074-.81-1.848-.81-.763 0-1.373.27-1.83.81-.458.528-.687 1.32-.687 2.376 0 1.056.223 1.854.669 2.394.458.54 1.074.81 1.848.81Zm9.575 1.39c-1.067 0-1.871-.288-2.411-.863-.528-.586-.792-1.484-.792-2.693v-5.473h1.778v5.438c0 .74.152 1.285.457 1.637.305.352.769.528 1.391.528.704 0 1.273-.235 1.707-.704.434-.47.651-1.091.651-1.866v-5.033h1.778v8.87h-1.725v-1.9h.229c-.247.657-.64 1.167-1.179 1.53-.54.353-1.168.529-1.884.529Zm11.855-.159V10.871h1.777v12.953h-1.777Zm4.383 0v-8.87h1.777v8.87h-1.777Zm-.141-10.718v-1.848h2.059v1.848h-2.059Zm7.128 10.718-3.801-8.87h1.9l2.992 7.41h-.51l3.045-7.41h1.813l-3.82 8.87h-1.619Zm10.795.159c-1.432 0-2.558-.405-3.38-1.215-.821-.81-1.232-1.93-1.232-3.361 0-.927.176-1.737.528-2.43a3.955 3.955 0 0 1 1.496-1.6c.646-.388 1.391-.582 2.236-.582.833 0 1.531.176 2.094.528.563.352.991.851 1.285 1.496.293.634.44 1.385.44 2.253v.563h-6.688v-1.02h5.473l-.299.228c0-.88-.199-1.56-.598-2.041-.387-.493-.951-.74-1.69-.74-.821 0-1.455.288-1.901.863-.445.563-.668 1.343-.668 2.34v.177c0 1.044.252 1.83.756 2.358.517.528 1.244.792 2.183.792.516 0 .997-.07 1.443-.211a4.028 4.028 0 0 0 1.302-.74l.581 1.215c-.41.364-.909.646-1.496.845a6.076 6.076 0 0 1-1.865.282Z"/>
    <path class="w7" fill="#222" d="M164.55 23.824V11.416h1.83v12.408h-1.83Zm4.585 0v-6.74c0-.34-.017-.687-.053-1.039a30.851 30.851 0 0 0-.088-1.091h1.725l.159 1.865h-.212c.247-.645.622-1.144 1.127-1.496.516-.352 1.132-.528 1.848-.528.727 0 1.32.176 1.777.528.47.34.792.869.968 1.584h-.281a3.035 3.035 0 0 1 1.197-1.53c.563-.388 1.214-.582 1.953-.582.986 0 1.725.288 2.218.863.493.575.739 1.467.739 2.675v5.491h-1.778v-5.403c0-.774-.135-1.332-.404-1.672-.259-.352-.681-.528-1.268-.528-.68 0-1.22.235-1.619.704-.399.47-.598 1.103-.598 1.9v5h-1.778V18.42c0-.774-.135-1.332-.405-1.672-.258-.352-.68-.528-1.267-.528-.68 0-1.214.235-1.601.704-.388.47-.581 1.103-.581 1.9v5h-1.778Zm15.624 0v-6.74c0-.34-.018-.687-.053-1.039a36.464 36.464 0 0 0-.088-1.091h1.725l.158 1.865h-.211c.246-.645.622-1.144 1.126-1.496.517-.352 1.133-.528 1.848-.528.728 0 1.32.176 1.778.528.469.34.792.869.968 1.584h-.282a3.045 3.045 0 0 1 1.197-1.53c.563-.388 1.214-.582 1.954-.582.985 0 1.724.288 2.217.863.493.575.739 1.467.739 2.675v5.491h-1.777v-5.403c0-.774-.135-1.332-.405-1.672-.258-.352-.68-.528-1.267-.528-.681 0-1.22.235-1.619.704-.399.47-.599 1.103-.599 1.9v5h-1.777V18.42c0-.774-.135-1.332-.405-1.672-.258-.352-.681-.528-1.267-.528-.681 0-1.215.235-1.602.704-.387.47-.581 1.103-.581 1.9v5h-1.777Zm15.623 0v-8.87h1.778v8.87h-1.778Zm-.141-10.718v-1.848h2.059v1.848h-2.059Zm8.519 14.66a7.924 7.924 0 0 1-2.182-.281 5.593 5.593 0 0 1-1.743-.845l.44-1.302c.364.246.722.44 1.074.58.352.153.721.265 1.109.335.387.07.786.106 1.196.106.845 0 1.479-.217 1.901-.652.434-.422.651-1.038.651-1.848v-2.376h.176a2.719 2.719 0 0 1-1.161 1.567c-.575.375-1.244.563-2.007.563-.809 0-1.513-.176-2.112-.528a3.704 3.704 0 0 1-1.372-1.531c-.317-.669-.476-1.455-.476-2.359 0-.903.159-1.683.476-2.34.328-.657.786-1.162 1.372-1.514.599-.364 1.303-.546 2.112-.546.775 0 1.444.194 2.007.581.575.376.956.892 1.144 1.549l-.159-.14.159-1.831h1.725a17.513 17.513 0 0 0-.141 2.13v6.564c0 1.338-.358 2.359-1.074 3.063-.704.704-1.742 1.056-3.115 1.056Zm-.123-5.543c.774 0 1.39-.264 1.848-.792.469-.528.704-1.273.704-2.236 0-.962-.235-1.7-.704-2.217-.458-.516-1.074-.775-1.848-.775-.798 0-1.432.259-1.901.775-.458.516-.686 1.255-.686 2.217 0 .963.228 1.708.686 2.236.469.528 1.103.792 1.901.792Zm6.869 1.601v-6.67c0-.364-.011-.728-.035-1.091a17.375 17.375 0 0 0-.07-1.11h1.724l.194 2.289h-.282c.118-.552.317-1.01.599-1.373a2.609 2.609 0 0 1 1.021-.81c.41-.176.839-.264 1.284-.264.188 0 .347.012.476.036.129.011.258.035.387.07l-.018 1.584a1.773 1.773 0 0 0-.528-.14 3.307 3.307 0 0 0-.528-.036c-.516 0-.956.117-1.32.352a2.159 2.159 0 0 0-.827.915 2.823 2.823 0 0 0-.282 1.25v4.998h-1.795Zm9.981.159c-.786 0-1.473-.182-2.06-.546-.586-.364-1.044-.892-1.372-1.584-.317-.692-.476-1.514-.476-2.464 0-.962.159-1.783.476-2.464.328-.68.786-1.203 1.372-1.566.587-.376 1.274-.564 2.06-.564.774 0 1.449.194 2.024.581.575.387.956.915 1.144 1.584h-.194l.176-2.006h1.725l-.106 1.091c-.023.352-.035.698-.035 1.038v6.741h-1.778v-1.971h.194a2.725 2.725 0 0 1-1.162 1.566c-.574.376-1.237.564-1.988.564Zm.44-1.39c.762 0 1.372-.27 1.83-.81.469-.54.704-1.338.704-2.394s-.235-1.848-.704-2.376c-.458-.54-1.068-.81-1.83-.81-.775 0-1.397.27-1.866.81-.458.528-.686 1.32-.686 2.376 0 1.056.228 1.854.686 2.394.458.54 1.08.81 1.866.81Zm10.337 1.39c-.962 0-1.689-.259-2.182-.775-.493-.528-.739-1.314-.739-2.358v-4.523h-1.725v-1.373h1.725v-2.341l1.777-.475v2.816h2.464v1.373h-2.464v4.364c0 .658.118 1.127.352 1.408.235.282.575.423 1.021.423.223 0 .417-.018.581-.053.176-.047.334-.1.475-.158v1.443c-.176.07-.381.123-.616.158a3.4 3.4 0 0 1-.669.07Zm2.945-.159v-8.87h1.777v8.87h-1.777Zm-.141-10.718v-1.848h2.059v1.848h-2.059Zm8.325 10.877c-.88 0-1.643-.182-2.288-.546a3.824 3.824 0 0 1-1.496-1.584c-.352-.692-.528-1.514-.528-2.464s.176-1.766.528-2.446a3.69 3.69 0 0 1 1.496-1.584c.645-.376 1.408-.564 2.288-.564.88 0 1.643.188 2.288.564a3.66 3.66 0 0 1 1.514 1.584c.363.68.545 1.496.545 2.446 0 .95-.182 1.772-.545 2.464a3.791 3.791 0 0 1-1.514 1.584c-.645.364-1.408.546-2.288.546Zm0-1.39c.774 0 1.39-.27 1.848-.81.458-.54.686-1.338.686-2.394s-.228-1.848-.686-2.376c-.458-.54-1.074-.81-1.848-.81-.763 0-1.373.27-1.83.81-.458.528-.687 1.32-.687 2.376 0 1.056.223 1.854.669 2.394.458.54 1.074.81 1.848.81Zm6.425 1.231v-6.74c0-.34-.018-.687-.053-1.039a33.423 33.423 0 0 0-.088-1.091h1.725l.158 1.865h-.211c.27-.657.687-1.155 1.25-1.496.563-.352 1.214-.528 1.953-.528 1.045 0 1.831.288 2.359.863.54.575.809 1.467.809 2.675v5.491h-1.777V18.44c0-.787-.159-1.35-.475-1.69-.305-.352-.775-.528-1.408-.528-.751 0-1.35.235-1.796.704-.445.458-.668 1.08-.668 1.866v5.033h-1.778Zm18.17.159c-.739 0-1.42-.094-2.042-.282-.622-.188-1.138-.452-1.549-.792l.546-1.214c.434.328.915.575 1.443.739a5.42 5.42 0 0 0 1.619.246c.646 0 1.133-.111 1.461-.334.329-.235.493-.552.493-.95a.943.943 0 0 0-.317-.74c-.199-.188-.534-.328-1.003-.422l-1.69-.335c-.751-.164-1.32-.445-1.707-.844-.387-.4-.581-.91-.581-1.532 0-.528.141-.997.423-1.408.293-.41.704-.733 1.232-.968.54-.234 1.167-.352 1.883-.352.657 0 1.267.094 1.83.282.564.188 1.033.458 1.408.81l-.563 1.179a4.008 4.008 0 0 0-1.232-.704 3.842 3.842 0 0 0-1.39-.264c-.657 0-1.144.123-1.461.37-.317.246-.475.569-.475.967 0 .306.094.558.281.757.2.188.511.335.933.44l1.69.335c.798.164 1.396.434 1.795.81.399.375.598.88.598 1.513 0 .551-.152 1.032-.457 1.443-.305.41-.728.722-1.267.933-.54.211-1.174.317-1.901.317Zm9.084 0c-.962 0-1.689-.259-2.182-.775-.493-.528-.739-1.314-.739-2.358v-4.523h-1.725v-1.373h1.725v-2.341l1.777-.475v2.816h2.464v1.373h-2.464v4.364c0 .658.118 1.127.352 1.408.235.282.575.423 1.021.423.223 0 .417-.018.581-.053.176-.047.334-.1.475-.158v1.443c-.176.07-.381.123-.616.158-.235.047-.457.07-.669.07Zm6.341 0c-.786 0-1.472-.182-2.059-.546-.587-.364-1.044-.892-1.373-1.584-.317-.692-.475-1.514-.475-2.464 0-.962.158-1.783.475-2.464.329-.68.786-1.203 1.373-1.566.587-.376 1.273-.564 2.059-.564.775 0 1.449.194 2.024.581.575.387.957.915 1.144 1.584h-.193l.176-2.006h1.724l-.105 1.091c-.024.352-.035.698-.035 1.038v6.741h-1.778v-1.971h.194a2.725 2.725 0 0 1-1.162 1.566c-.575.376-1.238.564-1.989.564Zm.44-1.39c.763 0 1.373-.27 1.831-.81.469-.54.704-1.338.704-2.394s-.235-1.848-.704-2.376c-.458-.54-1.068-.81-1.831-.81-.774 0-1.396.27-1.865.81-.458.528-.687 1.32-.687 2.376 0 1.056.229 1.854.687 2.394.457.54 1.079.81 1.865.81Zm10.338 1.39c-.962 0-1.69-.259-2.182-.775-.493-.528-.74-1.314-.74-2.358v-4.523h-1.724v-1.373h1.724v-2.341l1.778-.475v2.816h2.464v1.373h-2.464v4.364c0 .658.117 1.127.352 1.408.235.282.575.423 1.021.423.223 0 .416-.018.581-.053.176-.047.334-.1.475-.158v1.443c-.176.07-.381.123-.616.158-.235.047-.458.07-.669.07Zm6.095 0c-1.068 0-1.872-.288-2.412-.863-.528-.586-.792-1.484-.792-2.693v-5.473h1.778v5.438c0 .74.153 1.285.458 1.637.305.352.768.528 1.39.528.704 0 1.273-.235 1.707-.704.434-.47.651-1.091.651-1.866v-5.033h1.778v8.87h-1.725v-1.9h.229c-.246.657-.639 1.167-1.179 1.53-.54.353-1.168.529-1.883.529Zm10.207 0c-.74 0-1.42-.094-2.042-.282-.622-.188-1.138-.452-1.549-.792l.546-1.214c.434.328.915.575 1.443.739a5.42 5.42 0 0 0 1.619.246c.645 0 1.132-.111 1.461-.334a1.11 1.11 0 0 0 .493-.95.943.943 0 0 0-.317-.74c-.2-.188-.534-.328-1.003-.422l-1.69-.335c-.751-.164-1.32-.445-1.707-.844-.387-.4-.581-.91-.581-1.532 0-.528.141-.997.423-1.408.293-.41.704-.733 1.232-.968.539-.234 1.167-.352 1.883-.352.657 0 1.267.094 1.83.282.563.188 1.033.458 1.408.81l-.563 1.179a4.008 4.008 0 0 0-1.232-.704 3.846 3.846 0 0 0-1.39-.264c-.658 0-1.144.123-1.461.37-.317.246-.475.569-.475.967 0 .306.093.558.281.757.2.188.511.335.933.44l1.69.335c.797.164 1.396.434 1.795.81.399.375.598.88.598 1.513 0 .551-.152 1.032-.457 1.443-.306.41-.728.722-1.268.933-.539.211-1.173.317-1.9.317Z"/>
    <path class="w8" fill="#A93031" d="M57.927 228.824v-12.408h1.83v10.842h6.09v1.566h-7.92Zm12.95.159c-.787 0-1.473-.182-2.06-.546-.586-.364-1.044-.892-1.372-1.584-.317-.692-.476-1.514-.476-2.464 0-.962.159-1.783.476-2.464.328-.681.786-1.203 1.372-1.566.587-.376 1.273-.564 2.06-.564.774 0 1.449.194 2.023.581.575.387.957.915 1.144 1.584h-.193l.176-2.006h1.725l-.106 1.091a15.65 15.65 0 0 0-.035 1.038v6.741h-1.778v-1.971h.194a2.723 2.723 0 0 1-1.162 1.566c-.575.376-1.237.564-1.989.564Zm.44-1.391c.762 0 1.372-.27 1.83-.809.47-.54.704-1.338.704-2.394s-.235-1.848-.704-2.376c-.458-.54-1.068-.81-1.83-.81-.775 0-1.397.27-1.866.81-.458.528-.686 1.32-.686 2.376 0 1.056.228 1.854.686 2.394.458.539 1.08.809 1.866.809Zm6.888 1.232v-6.741c0-.34-.018-.686-.053-1.038a33.955 33.955 0 0 0-.088-1.091h1.725l.158 1.865h-.211c.27-.657.686-1.155 1.25-1.496.563-.352 1.214-.528 1.953-.528 1.044 0 1.83.288 2.359.863.54.575.81 1.466.81 2.675v5.491h-1.779v-5.385c0-.787-.158-1.35-.475-1.69-.305-.352-.774-.528-1.408-.528-.75 0-1.349.235-1.795.704-.446.458-.669 1.079-.669 1.866v5.033h-1.777Zm14.428 3.943a7.919 7.919 0 0 1-2.183-.282 5.584 5.584 0 0 1-1.742-.845l.44-1.302c.364.246.722.44 1.074.581.352.152.721.264 1.108.334.388.07.787.106 1.197.106.845 0 1.479-.217 1.901-.652.434-.422.651-1.038.651-1.848v-2.376h.176a2.726 2.726 0 0 1-1.161 1.567c-.575.375-1.244.563-2.007.563-.81 0-1.513-.176-2.112-.528a3.706 3.706 0 0 1-1.373-1.531c-.316-.669-.475-1.455-.475-2.359 0-.903.159-1.683.475-2.34.329-.657.786-1.162 1.373-1.514.599-.364 1.303-.546 2.112-.546.775 0 1.443.194 2.007.581.575.376.956.892 1.144 1.549l-.159-.141.159-1.83h1.724a17.053 17.053 0 0 0-.14 2.129v6.565c0 1.338-.358 2.359-1.074 3.063-.704.704-1.742 1.056-3.115 1.056Zm-.123-5.544c.774 0 1.39-.264 1.848-.792.469-.528.704-1.273.704-2.236 0-.962-.235-1.701-.704-2.217-.458-.516-1.074-.775-1.848-.775-.798 0-1.432.259-1.901.775-.458.516-.687 1.255-.687 2.217 0 .963.23 1.708.687 2.236.47.528 1.103.792 1.9.792Zm10.055 1.76c-1.068 0-1.872-.288-2.412-.863-.528-.586-.792-1.484-.792-2.693v-5.473h1.778v5.438c0 .739.152 1.285.458 1.637.305.352.768.528 1.39.528.704 0 1.273-.235 1.707-.704.434-.469.651-1.091.651-1.866v-5.033h1.778v8.87h-1.725v-1.901h.229c-.246.657-.64 1.168-1.179 1.532-.54.352-1.168.528-1.883.528Zm10.558 0c-.786 0-1.472-.182-2.059-.546-.586-.364-1.044-.892-1.373-1.584-.316-.692-.475-1.514-.475-2.464 0-.962.159-1.783.475-2.464.329-.681.787-1.203 1.373-1.566.587-.376 1.273-.564 2.059-.564.775 0 1.449.194 2.024.581.575.387.957.915 1.144 1.584h-.193l.176-2.006h1.725l-.106 1.091c-.023.352-.035.698-.035 1.038v6.741h-1.778v-1.971h.194a2.724 2.724 0 0 1-1.162 1.566c-.575.376-1.238.564-1.989.564Zm.44-1.391c.763 0 1.373-.27 1.831-.809.469-.54.704-1.338.704-2.394s-.235-1.848-.704-2.376c-.458-.54-1.068-.81-1.831-.81-.774 0-1.396.27-1.865.81-.458.528-.687 1.32-.687 2.376 0 1.056.229 1.854.687 2.394.457.539 1.079.809 1.865.809Zm10.884 5.175a7.923 7.923 0 0 1-2.183-.282 5.584 5.584 0 0 1-1.742-.845l.44-1.302c.364.246.722.44 1.074.581.352.152.721.264 1.108.334.388.07.787.106 1.197.106.845 0 1.479-.217 1.901-.652.434-.422.651-1.038.651-1.848v-2.376h.176a2.728 2.728 0 0 1-1.161 1.567c-.575.375-1.244.563-2.007.563-.809 0-1.513-.176-2.112-.528a3.715 3.715 0 0 1-1.373-1.531c-.316-.669-.475-1.455-.475-2.359 0-.903.159-1.683.475-2.34.329-.657.787-1.162 1.373-1.514.599-.364 1.303-.546 2.112-.546.775 0 1.443.194 2.007.581.575.376.956.892 1.144 1.549l-.159-.141.159-1.83h1.724a16.766 16.766 0 0 0-.14 2.129v6.565c0 1.338-.358 2.359-1.074 3.063-.704.704-1.742 1.056-3.115 1.056Zm-.123-5.544c.774 0 1.39-.264 1.848-.792.469-.528.704-1.273.704-2.236 0-.962-.235-1.701-.704-2.217-.458-.516-1.074-.775-1.848-.775-.798 0-1.432.259-1.901.775-.458.516-.687 1.255-.687 2.217 0 .963.229 1.708.687 2.236.469.528 1.103.792 1.901.792Zm11.005 1.76c-1.431 0-2.558-.405-3.379-1.215-.822-.809-1.232-1.93-1.232-3.361 0-.927.176-1.737.528-2.429a3.954 3.954 0 0 1 1.496-1.602c.645-.387 1.39-.581 2.235-.581.833 0 1.531.176 2.094.528.564.352.992.851 1.285 1.496.294.634.44 1.385.44 2.253v.563h-6.688v-1.02h5.474l-.299.228c0-.88-.2-1.56-.599-2.041-.387-.493-.95-.739-1.689-.739-.822 0-1.455.287-1.901.862-.446.563-.669 1.343-.669 2.341v.176c0 1.044.252 1.83.757 2.358.516.528 1.244.792 2.182.792.516 0 .998-.07 1.443-.211a4.057 4.057 0 0 0 1.303-.739l.581 1.214c-.411.364-.91.646-1.496.845a6.081 6.081 0 0 1-1.866.282Z"/>
    <path class="w4" fill="#F6F5F2" d="M470 62.824h91v43h-91z"/>
    <path class="w8" fill="#A93031" d="M496.723 90.824V78.416h1.602l4.787 10.789h-.528l4.787-10.789h1.584v12.408h-1.654v-9.926h.58l-4.47 9.926h-1.144l-4.47-9.926h.598v9.926h-1.672Zm18.836.159c-.88 0-1.642-.182-2.288-.546a3.824 3.824 0 0 1-1.496-1.584c-.352-.692-.528-1.514-.528-2.464s.176-1.766.528-2.446a3.69 3.69 0 0 1 1.496-1.584c.646-.376 1.408-.564 2.288-.564.88 0 1.643.188 2.288.564a3.655 3.655 0 0 1 1.514 1.584c.364.68.546 1.496.546 2.446 0 .95-.182 1.772-.546 2.464a3.785 3.785 0 0 1-1.514 1.584c-.645.364-1.408.546-2.288.546Zm0-1.39c.775 0 1.391-.27 1.848-.81.458-.54.687-1.338.687-2.394s-.229-1.848-.687-2.376c-.457-.54-1.073-.81-1.848-.81-.762 0-1.372.27-1.83.81-.458.528-.686 1.32-.686 2.376 0 1.056.223 1.854.668 2.394.458.54 1.074.81 1.848.81Zm9.47 1.39a7.034 7.034 0 0 1-2.041-.282c-.622-.188-1.138-.452-1.549-.792l.545-1.214c.435.328.916.575 1.444.739a5.415 5.415 0 0 0 1.619.246c.645 0 1.132-.111 1.461-.334a1.11 1.11 0 0 0 .492-.95.942.942 0 0 0-.316-.74c-.2-.188-.534-.328-1.004-.422l-1.689-.335c-.751-.164-1.32-.445-1.707-.844-.388-.4-.581-.91-.581-1.532 0-.528.141-.997.422-1.408.294-.41.704-.733 1.232-.968.54-.234 1.168-.352 1.883-.352.658 0 1.268.094 1.831.282.563.188 1.032.458 1.408.81l-.563 1.179a4.02 4.02 0 0 0-1.232-.704 3.847 3.847 0 0 0-1.391-.264c-.657 0-1.144.123-1.461.37a1.17 1.17 0 0 0-.475.967c0 .305.094.558.282.757.199.188.51.335.933.44l1.689.335c.798.164 1.397.434 1.795.81.399.375.599.88.599 1.513 0 .551-.153 1.032-.458 1.443-.305.41-.727.722-1.267.933-.54.211-1.173.317-1.901.317Zm9.085 0c-.962 0-1.69-.258-2.183-.775-.492-.528-.739-1.314-.739-2.358v-4.523h-1.725v-1.373h1.725v-2.341l1.778-.475v2.816h2.464v1.373h-2.464v4.364c0 .657.117 1.127.352 1.408.234.282.575.423 1.021.423.222 0 .416-.018.58-.053.176-.047.335-.1.476-.158v1.443c-.176.07-.382.123-.616.158-.235.047-.458.07-.669.07Z"/>
    <path class="w4" fill="#F6F5F2" d="M470 342.824h91v43h-91z"/>
    <path class="w8" fill="#A93031" d="M494.445 370.824v-12.408h1.831v10.842h6.089v1.566h-7.92Zm13.568.159c-1.432 0-2.558-.405-3.38-1.215-.821-.809-1.232-1.93-1.232-3.361 0-.927.176-1.737.528-2.429a3.96 3.96 0 0 1 1.496-1.602c.646-.387 1.391-.581 2.236-.581.833 0 1.531.176 2.094.528.563.352.991.851 1.285 1.496.293.634.44 1.385.44 2.253v.563h-6.688v-1.02h5.473l-.299.228c0-.88-.199-1.56-.598-2.041-.387-.493-.951-.739-1.69-.739-.821 0-1.455.287-1.901.862-.445.563-.668 1.343-.668 2.341v.176c0 1.044.252 1.83.756 2.358.517.528 1.244.792 2.183.792.516 0 .997-.07 1.443-.211a4.042 4.042 0 0 0 1.302-.739l.581 1.214c-.41.364-.909.646-1.496.845a6.07 6.07 0 0 1-1.865.282Zm8.903 0c-.786 0-1.472-.182-2.059-.546-.586-.364-1.044-.892-1.373-1.584-.316-.692-.475-1.514-.475-2.464 0-.962.159-1.783.475-2.464.329-.681.787-1.203 1.373-1.566.587-.376 1.273-.564 2.059-.564.775 0 1.449.194 2.024.581.575.387.957.915 1.144 1.584h-.193l.176-2.006h1.725l-.106 1.091c-.023.352-.035.698-.035 1.038v6.741h-1.778v-1.971h.194a2.724 2.724 0 0 1-1.162 1.566c-.575.376-1.238.564-1.989.564Zm.44-1.391c.763 0 1.373-.27 1.831-.809.469-.54.704-1.338.704-2.394s-.235-1.848-.704-2.376c-.458-.54-1.068-.81-1.831-.81-.774 0-1.396.27-1.865.81-.458.528-.687 1.32-.687 2.376 0 1.056.229 1.854.687 2.394.457.539 1.079.809 1.865.809Zm9.933 1.391a7.027 7.027 0 0 1-2.041-.282c-.622-.188-1.138-.452-1.549-.792l.546-1.214c.434.328.915.575 1.443.739a5.43 5.43 0 0 0 1.619.246c.645 0 1.132-.111 1.461-.334.328-.235.493-.552.493-.951a.943.943 0 0 0-.317-.739c-.2-.188-.534-.328-1.003-.422l-1.69-.335c-.751-.164-1.32-.445-1.707-.844-.387-.399-.581-.91-.581-1.532 0-.528.141-.997.422-1.408.294-.41.704-.733 1.232-.968.54-.234 1.168-.352 1.884-.352.657 0 1.267.094 1.83.282.563.188 1.033.458 1.408.81l-.563 1.179a4.013 4.013 0 0 0-1.232-.704 3.847 3.847 0 0 0-1.391-.264c-.657 0-1.144.123-1.46.369a1.17 1.17 0 0 0-.476.968c0 .305.094.558.282.757.199.188.51.335.933.44l1.689.335c.798.164 1.397.434 1.796.809.399.376.598.88.598 1.514 0 .551-.153 1.032-.458 1.443-.305.411-.727.722-1.267.933-.54.211-1.173.317-1.901.317Zm9.085 0c-.962 0-1.69-.259-2.183-.775-.492-.528-.739-1.314-.739-2.358v-4.523h-1.725v-1.373h1.725v-2.341l1.778-.475v2.816h2.464v1.373h-2.464v4.364c0 .657.117 1.127.352 1.408.235.282.575.423 1.021.423.223 0 .416-.018.58-.053.176-.047.335-.1.476-.158v1.443a2.79 2.79 0 0 1-.616.158 3.418 3.418 0 0 1-.669.071Z"/>
    <path class="w9" stroke="#000" stroke-dasharray="12 12" stroke-width="2" d="M629.359 100.539 484.662 285.287H327.045l90.436 117.566 52.969 54.262 158.909 176.996L703 457.115l-93.02-118.859 19.379-237.717Z"/>
  </svg>