<svg xmlns="http://www.w3.org/2000/svg" width="1070" height="747" fill="none" viewBox="0 0 1070 747"><circle cx="533.56" cy="366.55" r="329.365" fill="var(--fl-bgColor, #e8b91c)" stroke="var(--fl-fgColor, #4a4021)" stroke-dasharray="2 2"/><circle cx="533.986" cy="366.977" r="250.522" fill="var(--fl-bgColor, #f6d872)" stroke="var(--fl-fgColor, #4a4021)" stroke-dasharray="2 2"/><circle cx="533.985" cy="366.976" r="156.761" fill="var(--fl-bgColor, #f9eec6)" stroke="var(--fl-fgColor, #4a4021)" stroke-dasharray="2 2"/><path fill="var(--fl-fgColor, #a93031)" d="M535.232.293a1 1 0 0 0-1.415 0l-6.364 6.364a1.001 1.001 0 0 0 1.415 1.414l5.656-5.657 5.657 5.657a1 1 0 1 0 1.414-1.414zm-1.415 328.414a1 1 0 0 0 1.415 0l6.363-6.364a.999.999 0 1 0-1.414-1.414l-5.657 5.657-5.656-5.657a1 1 0 1 0-1.415 1.414zM534.524 1h-1v327h2V1z"/><path stroke="var(--fl-fbgColor, #997d1e)" stroke-dasharray="2 2" d="M863.524 366.5h-659M534.024 696V37M300.498 598.995l465.391-465.391M302.057 134.454l463.686 463.687"/><path fill="var(--fl-bgColor, #f6f5f2)" stroke="var(--fl-fgColor, transparent)" d="M488.524 62h91v43h-91z"/><path fill="var(--fl-fgColor, #a93031)" d="M506.98 79.5V67.092h1.83V79.5zm4.585 0v-6.74q0-.511-.053-1.04a33 33 0 0 0-.088-1.09h1.725l.158 1.865h-.211q.37-.968 1.127-1.496.774-.528 1.848-.528 1.091 0 1.777.528.705.51.968 1.584h-.281a3.04 3.04 0 0 1 1.196-1.531q.846-.58 1.954-.58 1.479 0 2.218.862t.739 2.675V79.5h-1.778v-5.403q0-1.162-.405-1.672-.387-.528-1.267-.528-1.02 0-1.619.704-.598.705-.598 1.9V79.5h-1.778v-5.403q0-1.162-.405-1.672-.387-.528-1.267-.528-1.02 0-1.602.704-.58.705-.58 1.9V79.5zm15.624 3.802V72.759q0-.51-.053-1.038a36 36 0 0 0-.088-1.091h1.725l.176 2.006h-.194a2.77 2.77 0 0 1 1.126-1.584q.863-.58 2.042-.58t2.059.562q.88.546 1.355 1.567.493 1.02.493 2.464 0 1.425-.493 2.464-.474 1.038-1.355 1.584-.88.546-2.059.545-1.161 0-2.024-.563a2.77 2.77 0 0 1-1.126-1.566h.193v5.773zm4.294-5.034q1.161 0 1.848-.81.704-.81.704-2.393 0-1.584-.704-2.376-.687-.81-1.848-.81t-1.866.81q-.686.792-.686 2.376t.686 2.393q.705.81 1.866.81m9.827 1.39q-1.179 0-2.059-.545-.88-.546-1.373-1.584-.475-1.038-.475-2.464 0-1.444.475-2.464.493-1.02 1.373-1.567.88-.563 2.059-.563 1.162 0 2.024.581.863.58 1.144 1.584h-.193l.176-2.006h1.725l-.106 1.09q-.035.529-.035 1.04v6.74h-1.778v-1.971h.194a2.73 2.73 0 0 1-1.162 1.566q-.863.564-1.989.563m.44-1.39q1.144 0 1.831-.81.704-.81.704-2.393 0-1.584-.704-2.376-.687-.81-1.831-.81-1.161 0-1.865.81-.687.792-.687 2.376t.687 2.393 1.865.81m10.778 1.39q-1.338 0-2.341-.545a3.9 3.9 0 0 1-1.531-1.602q-.528-1.056-.528-2.499 0-1.425.546-2.446a3.68 3.68 0 0 1 1.531-1.55q.985-.545 2.323-.545.862 0 1.672.3.81.28 1.338.809l-.581 1.25a3.2 3.2 0 0 0-1.109-.704 3.2 3.2 0 0 0-1.197-.247q-1.266 0-1.988.81t-.722 2.34q0 1.55.722 2.377t1.988.827q.564 0 1.18-.211a3.2 3.2 0 0 0 1.126-.722l.581 1.25q-.546.528-1.373.827a5 5 0 0 1-1.637.281m8.36 0q-1.443 0-2.182-.774-.74-.792-.739-2.358v-4.524h-1.725V70.63h1.725v-2.341l1.777-.475v2.816h2.464v1.372h-2.464v4.365q0 .986.352 1.408.352.423 1.021.423.334 0 .581-.053.264-.07.475-.159v1.444q-.264.105-.616.158-.352.07-.669.07M499.835 100.5v-6.74q0-.511-.053-1.04a36 36 0 0 0-.088-1.09h1.725l.158 1.865h-.211q.37-.968 1.126-1.496.774-.528 1.848-.528 1.092 0 1.778.528.704.51.968 1.584h-.282a3.05 3.05 0 0 1 1.197-1.531q.844-.58 1.954-.58 1.477 0 2.217.862t.739 2.675v5.491h-1.777v-5.403q0-1.162-.405-1.672-.387-.528-1.267-.528-1.021 0-1.619.704-.599.705-.599 1.9v4.999h-1.777v-5.403q0-1.162-.405-1.672-.388-.528-1.267-.528-1.021 0-1.602.704-.58.705-.581 1.9v4.999zm19.02.158q-1.18 0-2.059-.545-.88-.546-1.373-1.584-.475-1.038-.475-2.464 0-1.444.475-2.464.492-1.02 1.373-1.567.88-.563 2.059-.563 1.161 0 2.024.581.862.58 1.144 1.584h-.194l.176-2.006h1.725l-.106 1.09a16 16 0 0 0-.035 1.04v6.74h-1.777v-1.971h.193a2.72 2.72 0 0 1-1.161 1.566q-.863.564-1.989.563m.44-1.39q1.144 0 1.83-.81.705-.81.704-2.393 0-1.584-.704-2.376-.686-.81-1.83-.81-1.162 0-1.866.81-.686.792-.686 2.376t.686 2.393q.687.81 1.866.81m5.621 1.232 4.03-4.998v.844l-3.819-4.716h2.13l2.692 3.467h-.633l2.693-3.467h2.112l-3.784 4.699v-.81l4.012 4.981h-2.129l-2.904-3.714h.633l-2.921 3.714zm10.789 0v-8.87h1.778v8.87zm-.141-10.718v-1.848h2.059v1.848zm4.524 10.718v-6.74q0-.511-.053-1.04a36 36 0 0 0-.088-1.09h1.725l.158 1.865h-.211q.37-.968 1.126-1.496.776-.528 1.848-.528 1.091 0 1.778.528.704.51.968 1.584h-.282a3.05 3.05 0 0 1 1.197-1.531q.845-.58 1.954-.58 1.478 0 2.217.862t.74 2.675v5.491h-1.778v-5.403q0-1.162-.405-1.672-.387-.528-1.267-.528-1.021 0-1.619.704-.599.705-.599 1.9v4.999h-1.777v-5.403q0-1.162-.405-1.672-.388-.528-1.267-.528-1.022 0-1.602.704-.58.705-.581 1.9v4.999zm19.02.158q-1.18 0-2.059-.545-.88-.546-1.373-1.584-.475-1.038-.475-2.464 0-1.444.475-2.464.493-1.02 1.373-1.567.88-.563 2.059-.563 1.161 0 2.024.581.862.58 1.144 1.584h-.194l.176-2.006h1.725l-.105 1.09q-.036.529-.036 1.04v6.74h-1.777v-1.971h.193a2.72 2.72 0 0 1-1.161 1.566q-.863.564-1.989.563m.44-1.39q1.145 0 1.83-.81.705-.81.704-2.393 0-1.584-.704-2.376-.685-.81-1.83-.81-1.161 0-1.866.81-.686.792-.686 2.376t.686 2.393 1.866.81m6.888 1.232V87.546h1.778V100.5z"/><path fill="var(--fl-bgColor, #f6f5f2)" stroke="var(--fl-fgColor, transparent)" d="M488.524 342h91v43h-91z"/><path fill="var(--fl-fgColor, #a93031)" d="M506.98 359.5v-12.408h1.83V359.5zm4.585 0v-6.741q0-.51-.053-1.038a33 33 0 0 0-.088-1.091h1.725l.158 1.865h-.211q.37-.968 1.127-1.496.774-.528 1.848-.528 1.091 0 1.777.528.705.51.968 1.584h-.281a3.04 3.04 0 0 1 1.196-1.531q.846-.58 1.954-.581 1.479 0 2.218.863.738.862.739 2.675v5.491h-1.778v-5.403q0-1.162-.405-1.672-.387-.528-1.267-.528-1.02 0-1.619.704-.598.704-.598 1.901v4.998h-1.778v-5.403q0-1.162-.405-1.672-.387-.528-1.267-.528-1.02 0-1.602.704-.58.704-.58 1.901v4.998zm15.624 3.802v-10.543q0-.51-.053-1.038a36 36 0 0 0-.088-1.091h1.725l.176 2.006h-.194a2.77 2.77 0 0 1 1.126-1.584q.863-.58 2.042-.581 1.179 0 2.059.563.88.546 1.355 1.567.493 1.02.493 2.464 0 1.425-.493 2.464-.474 1.038-1.355 1.584-.88.546-2.059.545-1.161 0-2.024-.563a2.77 2.77 0 0 1-1.126-1.566h.193v5.773zm4.294-5.034q1.161 0 1.848-.81.704-.809.704-2.393t-.704-2.376q-.687-.81-1.848-.81t-1.866.81q-.686.792-.686 2.376t.686 2.393q.705.81 1.866.81m9.827 1.39q-1.179 0-2.059-.545-.88-.546-1.373-1.584-.475-1.038-.475-2.464 0-1.444.475-2.464.493-1.021 1.373-1.567.88-.563 2.059-.563 1.162 0 2.024.581.863.58 1.144 1.584h-.193l.176-2.006h1.725l-.106 1.091a15 15 0 0 0-.035 1.038v6.741h-1.778v-1.971h.194a2.72 2.72 0 0 1-1.162 1.566q-.863.563-1.989.563m.44-1.39q1.144 0 1.831-.81.704-.809.704-2.393t-.704-2.376q-.687-.81-1.831-.81-1.161 0-1.865.81-.687.792-.687 2.376t.687 2.393 1.865.81m10.778 1.39q-1.338 0-2.341-.545a3.9 3.9 0 0 1-1.531-1.602q-.528-1.056-.528-2.499 0-1.425.546-2.446a3.67 3.67 0 0 1 1.531-1.549q.985-.546 2.323-.546.862 0 1.672.299.81.282 1.338.81l-.581 1.25a3.2 3.2 0 0 0-1.109-.704 3.2 3.2 0 0 0-1.197-.247q-1.266 0-1.988.81t-.722 2.341q0 1.548.722 2.376t1.988.827q.564 0 1.18-.211a3.2 3.2 0 0 0 1.126-.722l.581 1.25q-.546.527-1.373.827a5 5 0 0 1-1.637.281m8.36 0q-1.443 0-2.182-.774-.74-.792-.739-2.358v-4.524h-1.725v-1.372h1.725v-2.341l1.777-.475v2.816h2.464v1.372h-2.464v4.365q0 .986.352 1.408.352.423 1.021.423.334 0 .581-.053.264-.07.475-.159v1.444q-.264.105-.616.158-.352.07-.669.07M502.55 380.5v-6.741q0-.51-.053-1.038a31 31 0 0 0-.088-1.091h1.725l.159 1.865h-.212q.37-.968 1.127-1.496.774-.528 1.848-.528 1.091 0 1.777.528.704.51.968 1.584h-.281a3.04 3.04 0 0 1 1.197-1.531q.844-.58 1.953-.581 1.479 0 2.218.863.74.862.739 2.675v5.491h-1.778v-5.403q0-1.162-.404-1.672-.387-.528-1.268-.528-1.02 0-1.619.704-.598.704-.598 1.901v4.998h-1.778v-5.403q0-1.162-.405-1.672-.387-.528-1.267-.528-1.02 0-1.601.704-.582.704-.581 1.901v4.998zm15.624 0v-8.87h1.777v8.87zm-.141-10.718v-1.848h2.059v1.848zm4.524 10.718v-6.741q0-.51-.053-1.038a36 36 0 0 0-.088-1.091h1.725l.158 1.865h-.211q.405-.986 1.249-1.496.846-.528 1.954-.528 1.566 0 2.358.863.81.862.81 2.675v5.491h-1.778v-5.386q0-1.179-.475-1.689-.457-.528-1.408-.528-1.126 0-1.795.704-.669.686-.669 1.865v5.034zm10.432 0v-8.87h1.778v8.87zm-.14-10.718v-1.848h2.059v1.848zm4.523 10.718v-6.741q0-.51-.053-1.038a31 31 0 0 0-.088-1.091h1.725l.159 1.865h-.212q.37-.968 1.127-1.496.774-.528 1.848-.528 1.091 0 1.777.528.705.51.968 1.584h-.281a3.03 3.03 0 0 1 1.197-1.531q.845-.58 1.953-.581 1.479 0 2.218.863.74.862.739 2.675v5.491h-1.778v-5.403q0-1.162-.404-1.672-.388-.528-1.268-.528-1.02 0-1.619.704-.598.704-.598 1.901v4.998h-1.778v-5.403q0-1.162-.405-1.672-.387-.528-1.267-.528-1.02 0-1.601.704-.582.704-.581 1.901v4.998zm19.02.158q-1.179 0-2.059-.545-.88-.546-1.373-1.584-.475-1.038-.475-2.464 0-1.444.475-2.464.493-1.021 1.373-1.567.88-.563 2.059-.563 1.162 0 2.024.581.863.58 1.144 1.584h-.193l.176-2.006h1.725l-.106 1.091a15 15 0 0 0-.035 1.038v6.741h-1.778v-1.971h.194a2.72 2.72 0 0 1-1.162 1.566q-.863.563-1.989.563m.44-1.39q1.144 0 1.831-.81.704-.809.704-2.393t-.704-2.376q-.687-.81-1.831-.81-1.161 0-1.865.81-.687.792-.687 2.376t.687 2.393 1.865.81m6.889 1.232v-12.954h1.777V380.5z"/><path stroke="var(--fl-fgColor, #000)" stroke-dasharray="12 12" stroke-width="2" d="M562.897 249h-53.24l-47.78 55.971-214.326 152.895 163.816 165.181 211.596-81.908 196.579-83.273-217.056-152.895z"/><path fill="var(--fl-fgColor, #a93031)" d="M875.009 483.5v-12.408h5.263q1.989 0 3.045.968 1.073.951 1.073 2.64t-1.073 2.658q-1.056.968-3.045.968h-3.432v5.174zm1.831-6.635h3.238q1.25 0 1.883-.563.634-.564.634-1.602 0-1.022-.634-1.584-.633-.563-1.883-.563h-3.238zm12.985 6.793q-1.32 0-2.288-.545a3.83 3.83 0 0 1-1.496-1.584q-.528-1.038-.528-2.464t.528-2.447q.528-1.038 1.496-1.584.968-.563 2.288-.563t2.288.563a3.66 3.66 0 0 1 1.513 1.584q.546 1.021.546 2.447 0 1.425-.546 2.464a3.8 3.8 0 0 1-1.513 1.584q-.968.546-2.288.545m0-1.39q1.161 0 1.848-.81.686-.809.686-2.393t-.686-2.376q-.687-.81-1.848-.81-1.144 0-1.831.81-.686.792-.686 2.376t.669 2.393q.685.81 1.848.81m6.424 1.232v-12.954h1.778V483.5zm4.383 0v-8.87h1.778v8.87zm-.141-10.718v-1.848h2.06v1.848zm7.974 10.876q-1.443 0-2.183-.774-.74-.792-.739-2.358v-4.524h-1.725v-1.372h1.725v-2.341l1.778-.475v2.816h2.464v1.372h-2.464v4.365q0 .986.352 1.408.352.423 1.02.423.335 0 .581-.053.265-.07.475-.159v1.444q-.264.105-.616.158-.351.07-.668.07m2.944-.158v-8.87h1.777v8.87zm-.141-10.718v-1.848h2.059v1.848zm10.877 14.52v-5.773h.194a2.72 2.72 0 0 1-1.162 1.566q-.863.563-1.989.563-1.179 0-2.059-.545-.88-.546-1.373-1.584-.475-1.038-.475-2.464 0-1.444.475-2.464.494-1.021 1.373-1.567.88-.563 2.059-.563 1.163 0 2.024.581.863.58 1.144 1.584h-.193l.176-2.006h1.725l-.106 1.091q-.035.528-.035 1.038v10.543zm-2.517-5.034q1.144 0 1.831-.81.704-.809.704-2.393t-.704-2.376q-.687-.81-1.831-.81-1.161 0-1.865.81-.687.792-.687 2.376t.687 2.393 1.865.81m10.039 1.39q-1.602 0-2.411-.862-.792-.88-.792-2.693v-5.473h1.777v5.438q0 1.109.458 1.637t1.39.528q1.056 0 1.708-.704t.651-1.866v-5.033h1.777v8.87h-1.724v-1.901h.228q-.369.986-1.179 1.531-.809.528-1.883.528m11.263 0q-2.148 0-3.379-1.214-1.232-1.214-1.232-3.362 0-1.39.528-2.428a3.94 3.94 0 0 1 1.496-1.602q.967-.58 2.235-.581 1.25 0 2.094.528.846.528 1.285 1.496.44.951.44 2.253v.563h-6.688v-1.021h5.474l-.299.229q0-1.32-.599-2.041-.58-.74-1.689-.74-1.233 0-1.901.863-.669.844-.669 2.341v.176q0 1.566.757 2.358.774.792 2.182.792.774 0 1.443-.211a4.1 4.1 0 0 0 1.303-.739l.581 1.214q-.617.546-1.496.845a6.1 6.1 0 0 1-1.866.281m8.552 0q-1.109 0-2.042-.281t-1.549-.792l.546-1.215q.651.493 1.443.74a5.4 5.4 0 0 0 1.619.246q.969 0 1.461-.334a1.11 1.11 0 0 0 .493-.951.94.94 0 0 0-.317-.739q-.299-.282-1.003-.422l-1.69-.335q-1.127-.246-1.707-.845-.58-.598-.581-1.531 0-.792.423-1.408.44-.615 1.232-.968.81-.351 1.883-.352.986 0 1.83.282.846.281 1.408.809l-.563 1.18a4 4 0 0 0-1.232-.704 3.8 3.8 0 0 0-1.39-.264q-.986 0-1.461.369a1.17 1.17 0 0 0-.475.968q0 .458.281.757.3.281.933.44l1.69.334q1.197.248 1.795.81t.598 1.514q0 .826-.457 1.443-.458.615-1.267.933-.81.316-1.901.316m13.81 0q-1.162 0-2.06-.545-.88-.546-1.372-1.584-.476-1.038-.476-2.464 0-1.444.476-2.464.492-1.021 1.372-1.567.898-.563 2.06-.563 1.143 0 2.006.581a2.65 2.65 0 0 1 1.162 1.549h-.212v-6.055h1.778V483.5h-1.76v-2.006h.211a2.83 2.83 0 0 1-1.161 1.584q-.863.58-2.024.58m.44-1.39q1.143 0 1.848-.81.704-.809.704-2.393t-.704-2.376q-.705-.81-1.848-.81-1.163 0-1.866.81-.686.792-.686 2.376t.686 2.393q.704.81 1.866.81m7.539-6.934-.774-.599q.51-.528.686-.985.194-.476.194-.951l.475.37h-1.479v-2.077h2.095v1.426q0 .791-.264 1.478-.264.669-.933 1.338m6.922 8.324q-1.179 0-2.059-.545-.88-.546-1.373-1.584-.475-1.038-.475-2.464 0-1.444.475-2.464.493-1.021 1.373-1.567.88-.563 2.059-.563 1.162 0 2.024.581.862.58 1.144 1.584h-.193l.176-2.006h1.724l-.105 1.091a15 15 0 0 0-.035 1.038v6.741h-1.778v-1.971h.194a2.72 2.72 0 0 1-1.162 1.566q-.863.563-1.989.563m.44-1.39q1.144 0 1.831-.81.704-.809.704-2.393t-.704-2.376q-.687-.81-1.831-.81-1.161 0-1.865.81-.687.792-.687 2.376t.687 2.393 1.865.81m6.888 1.232v-8.87h1.778v8.87zm-.14-10.718v-1.848h2.059v1.848zm7.92 10.876q-1.162 0-2.059-.545-.88-.546-1.373-1.584-.475-1.038-.475-2.464 0-1.444.475-2.464.492-1.021 1.373-1.567.897-.563 2.059-.563 1.144 0 2.006.581a2.65 2.65 0 0 1 1.162 1.549h-.211v-6.055h1.777V483.5h-1.76v-2.006h.212a2.84 2.84 0 0 1-1.162 1.584q-.863.58-2.024.58m.44-1.39q1.145 0 1.848-.81.704-.809.704-2.393t-.704-2.376q-.703-.81-1.848-.81-1.161 0-1.866.81-.686.792-.686 2.376t.686 2.393q.705.81 1.866.81m10.989 1.39c-1.43 0-2.56-.404-3.38-1.214q-1.23-1.214-1.23-3.362c0-.927.17-1.736.53-2.428.36-.693.86-1.227 1.49-1.602.65-.387 1.39-.581 2.24-.581.83 0 1.53.176 2.09.528.57.352.99.851 1.29 1.496.29.634.44 1.385.44 2.253v.563h-6.69v-1.021h5.47l-.3.229c0-.88-.2-1.56-.59-2.041-.39-.493-.96-.74-1.69-.74-.83 0-1.46.288-1.91.863q-.66.844-.66 2.341v.176q0 1.566.75 2.358.78.792 2.19.792.765 0 1.44-.211c.46-.153.89-.399 1.3-.739l.58 1.214c-.41.364-.91.645-1.49.845-.59.188-1.21.281-1.87.281m13.24 0q-1.11 0-2.04-.281c-.62-.188-1.14-.452-1.55-.792l.55-1.215q.645.493 1.44.74a5.5 5.5 0 0 0 1.62.246c.65 0 1.13-.111 1.46-.334.33-.235.5-.552.5-.951a.95.95 0 0 0-.32-.739c-.2-.188-.54-.329-1-.422l-1.69-.335c-.76-.164-1.32-.446-1.71-.845s-.58-.909-.58-1.531q0-.792.42-1.408.435-.615 1.23-.968.81-.351 1.89-.352.975 0 1.83.282c.56.188 1.03.457 1.4.809l-.56 1.18q-.54-.458-1.23-.704a3.9 3.9 0 0 0-1.39-.264c-.66 0-1.15.123-1.46.369q-.48.37-.48.968c0 .305.1.558.28.757.2.188.51.334.94.44l1.69.334c.79.165 1.39.435 1.79.81q.6.563.6 1.514c0 .551-.15 1.032-.46 1.443-.3.41-.73.721-1.27.933-.53.211-1.17.316-1.9.316m9.53 0c-.88 0-1.65-.181-2.29-.545a3.8 3.8 0 0 1-1.5-1.584c-.35-.692-.53-1.514-.53-2.464 0-.951.18-1.766.53-2.447a3.66 3.66 0 0 1 1.5-1.584c.64-.375 1.41-.563 2.29-.563q1.32 0 2.28.563c.66.364 1.17.892 1.52 1.584q.54 1.021.54 2.447 0 1.425-.54 2.464c-.35.68-.86 1.208-1.52 1.584q-.96.546-2.28.545m0-1.39c.77 0 1.39-.27 1.84-.81q.69-.809.69-2.393t-.69-2.376c-.45-.54-1.07-.81-1.84-.81q-1.155 0-1.83.81-.69.792-.69 2.376c0 1.056.22 1.854.67 2.393.46.54 1.07.81 1.85.81m10.31 1.39q-1.335 0-2.34-.545a3.84 3.84 0 0 1-1.53-1.602c-.35-.704-.53-1.537-.53-2.499 0-.95.18-1.766.55-2.446q.54-1.021 1.53-1.549c.65-.364 1.43-.546 2.32-.546.58 0 1.13.1 1.67.299.54.188.99.458 1.34.81l-.58 1.25q-.495-.476-1.11-.704a3.2 3.2 0 0 0-1.2-.247q-1.26 0-1.98.81c-.49.54-.73 1.32-.73 2.341 0 1.032.24 1.824.73 2.376q.72.827 1.98.827c.38 0 .77-.071 1.18-.211.41-.153.79-.393 1.13-.722l.58 1.25c-.36.352-.82.627-1.37.827a5 5 0 0 1-1.64.281m4.89-.158v-8.87h1.78v8.87zm-.14-10.718v-1.848h2.06v1.848zm7.92 10.876c-.78 0-1.47-.181-2.06-.545-.58-.364-1.04-.892-1.37-1.584-.32-.692-.47-1.514-.47-2.464 0-.962.15-1.784.47-2.464.33-.681.79-1.203 1.37-1.567.59-.375 1.28-.563 2.06-.563s1.45.194 2.03.581q.855.58 1.14 1.584h-.19l.17-2.006h1.73c-.04.363-.07.727-.11 1.091a18 18 0 0 0-.03 1.038v6.741h-1.78v-1.971h.19c-.18.657-.57 1.179-1.16 1.566-.57.376-1.24.563-1.99.563m.44-1.39q1.155 0 1.83-.81c.47-.539.71-1.337.71-2.393s-.24-1.848-.71-2.376q-.675-.81-1.83-.81t-1.86.81q-.69.792-.69 2.376t.69 2.393 1.86.81m6.89 1.232v-12.954h1.78V483.5zm8.49.158c-1.44 0-2.56-.404-3.38-1.214s-1.24-1.93-1.24-3.362c0-.927.18-1.736.53-2.428.37-.693.86-1.227 1.5-1.602.64-.387 1.39-.581 2.23-.581s1.53.176 2.1.528c.56.352.99.851 1.28 1.496.3.634.44 1.385.44 2.253v.563h-6.69v-1.021h5.48l-.3.229q0-1.32-.6-2.041c-.39-.493-.95-.74-1.69-.74-.82 0-1.45.288-1.9.863-.45.563-.67 1.343-.67 2.341v.176c0 1.044.25 1.83.76 2.358s1.24.792 2.18.792q.78 0 1.44-.211c.46-.153.9-.399 1.31-.739l.58 1.214q-.615.546-1.5.845-.885.281-1.86.281"/><path fill="var(--fl-fgColor, #222)" d="M670.241 742.658q-1.901 0-3.238-.774-1.338-.774-2.06-2.2-.704-1.443-.704-3.397t.704-3.379q.723-1.426 2.06-2.2t3.238-.774q1.32 0 2.358.387a5.2 5.2 0 0 1 1.813 1.126l-.633 1.461q-.846-.721-1.655-1.038-.792-.317-1.848-.317-2.006 0-3.062 1.232t-1.056 3.502 1.056 3.52q1.056 1.233 3.062 1.232 1.056 0 1.848-.317.81-.317 1.655-1.056l.633 1.461a5.5 5.5 0 0 1-1.813 1.144q-1.038.387-2.358.387m9.494 0q-1.32 0-2.288-.545a3.83 3.83 0 0 1-1.496-1.584q-.528-1.038-.528-2.464t.528-2.447q.528-1.038 1.496-1.584.968-.563 2.288-.563t2.288.563a3.66 3.66 0 0 1 1.513 1.584q.546 1.021.546 2.447t-.546 2.464a3.8 3.8 0 0 1-1.513 1.584q-.968.546-2.288.545m0-1.39q1.161 0 1.848-.81.686-.809.686-2.393t-.686-2.376q-.687-.81-1.848-.81-1.144 0-1.831.81-.686.792-.686 2.376t.669 2.393q.685.81 1.848.81m9.575 1.39q-1.601 0-2.411-.862-.792-.88-.792-2.693v-5.473h1.778v5.438q0 1.109.457 1.637.458.528 1.391.528 1.056 0 1.707-.704t.651-1.866v-5.033h1.778v8.87h-1.725v-1.901h.229q-.37.986-1.18 1.531-.809.528-1.883.528m-2.041-9.908 1.936-3.556h1.619l1.936 3.556h-1.179l-1.567-2.464-1.566 2.464zm12.653 9.908q-1.443 0-2.183-.774-.739-.792-.739-2.358v-4.524h-1.725v-1.372H697v-2.341l1.778-.475v2.816h2.464v1.372h-2.464v4.365q0 .986.352 1.408.352.423 1.021.423.334 0 .58-.053.264-.07.476-.159v1.444a2.8 2.8 0 0 1-.616.158q-.352.07-.669.07m11.033 0q-1.162 0-2.059-.545-.88-.546-1.373-1.584-.475-1.038-.475-2.464 0-1.443.475-2.464.492-1.021 1.373-1.567.898-.563 2.059-.563 1.144 0 2.006.581a2.65 2.65 0 0 1 1.162 1.549h-.211v-6.055h1.777V742.5h-1.76v-2.006h.212a2.84 2.84 0 0 1-1.162 1.584q-.863.58-2.024.58m.44-1.39q1.145 0 1.848-.81.704-.809.704-2.393t-.704-2.376q-.703-.81-1.848-.81-1.161 0-1.866.81-.686.792-.686 2.376t.686 2.393q.705.81 1.866.81m10.989 1.39q-2.148 0-3.379-1.214-1.233-1.214-1.232-3.362 0-1.39.528-2.428a3.94 3.94 0 0 1 1.496-1.602q.967-.58 2.235-.581 1.25 0 2.094.528.846.528 1.285 1.496.44.951.44 2.253v.563h-6.688v-1.021h5.474l-.299.229q0-1.32-.599-2.041-.58-.74-1.689-.74-1.233 0-1.901.863-.669.844-.669 2.341v.176q0 1.566.757 2.358.774.792 2.182.792.774 0 1.443-.211a4.1 4.1 0 0 0 1.303-.739l.581 1.214q-.617.545-1.496.845a6.1 6.1 0 0 1-1.866.281m10.199-.158v-12.954h1.778V742.5zm7.78.158q-1.18 0-2.059-.545-.88-.546-1.373-1.584-.475-1.038-.475-2.464 0-1.443.475-2.464.492-1.021 1.373-1.567.88-.563 2.059-.563 1.161 0 2.024.581.862.58 1.144 1.584h-.194l.176-2.006h1.725l-.106 1.091q-.035.528-.035 1.038v6.741h-1.777v-1.971h.193a2.73 2.73 0 0 1-1.161 1.566q-.863.563-1.989.563m.44-1.39q1.144 0 1.83-.81.705-.809.704-2.393 0-1.584-.704-2.376-.686-.81-1.83-.81-1.162 0-1.866.81-.686.792-.686 2.376t.686 2.393q.687.81 1.866.81m14.185 1.232-3.802-8.87h1.901l2.992 7.409h-.51l3.045-7.409h1.812l-3.819 8.87zm6.848 0v-8.87h1.778v8.87zm-.141-10.718v-1.848h2.06v1.848zm8.625 10.876q-2.148 0-3.379-1.214-1.232-1.214-1.232-3.362 0-1.39.528-2.428a3.94 3.94 0 0 1 1.496-1.602q.967-.58 2.235-.581 1.25 0 2.094.528.846.528 1.285 1.496.44.951.44 2.253v.563h-6.688v-1.021h5.474l-.299.229q0-1.32-.599-2.041-.58-.74-1.689-.74-1.232 0-1.901.863-.669.844-.669 2.341v.176q0 1.566.757 2.358.774.792 2.182.792.774 0 1.443-.211a4.1 4.1 0 0 0 1.303-.739l.581 1.214q-.617.545-1.496.845a6.1 6.1 0 0 1-1.866.281M854.298 228.658q-1.496 0-2.71-.369a6.7 6.7 0 0 1-2.112-1.091l.616-1.444q.598.458 1.232.757.651.3 1.373.458a8.5 8.5 0 0 0 1.601.141q1.478 0 2.165-.528.704-.528.704-1.391 0-.74-.493-1.144-.476-.405-1.689-.651l-1.919-.387q-1.707-.352-2.552-1.144-.827-.81-.827-2.2 0-1.126.598-1.971.599-.846 1.655-1.303 1.074-.457 2.499-.457 1.32 0 2.429.387 1.109.37 1.865 1.109l-.598 1.39a5.2 5.2 0 0 0-1.69-1.003q-.898-.335-2.041-.335-1.356 0-2.13.564-.756.562-.757 1.531 0 .774.476 1.214.492.44 1.619.669l1.918.37q1.777.369 2.623 1.144.844.756.844 2.094 0 1.073-.58 1.883-.564.81-1.62 1.267-1.056.44-2.499.44m10.189 0q-1.444 0-2.183-.774-.74-.792-.739-2.358v-4.524h-1.725v-1.372h1.725v-2.341l1.778-.475v2.816h2.464v1.372h-2.464v4.365q0 .986.352 1.408.352.423 1.02.423.335 0 .581-.053.264-.07.475-.159v1.444q-.264.105-.616.158-.351.07-.668.07m2.944-.158v-8.87h1.777v8.87zm-.141-10.718v-1.848h2.059v1.848zm8.519 14.66a8 8 0 0 1-2.183-.281 5.6 5.6 0 0 1-1.742-.845l.44-1.302q.546.37 1.074.58.528.229 1.108.335.581.105 1.197.105 1.268 0 1.901-.651.651-.633.651-1.848v-2.376h.176a2.73 2.73 0 0 1-1.161 1.567q-.862.563-2.007.563-1.213 0-2.112-.528a3.7 3.7 0 0 1-1.373-1.531q-.475-1.003-.475-2.359 0-1.355.475-2.341.493-.985 1.373-1.513.899-.546 2.112-.546 1.162 0 2.007.581.861.563 1.144 1.549l-.159-.141.159-1.83h1.724a17 17 0 0 0-.14 2.129v6.565q0 2.006-1.074 3.062-1.056 1.056-3.115 1.056m-.123-5.544q1.161 0 1.848-.792.704-.792.704-2.235t-.704-2.217q-.687-.775-1.848-.775-1.197 0-1.901.775-.687.774-.687 2.217t.687 2.235q.704.792 1.901.792m6.904 1.602v-6.741q0-.51-.053-1.038a33 33 0 0 0-.088-1.091h1.725l.158 1.865h-.211q.37-.968 1.127-1.496.774-.528 1.848-.528 1.091 0 1.777.528.705.51.968 1.584h-.281a3.04 3.04 0 0 1 1.196-1.531q.846-.58 1.954-.581 1.479 0 2.218.863.739.862.739 2.675v5.491h-1.778v-5.403q0-1.162-.405-1.672-.387-.528-1.267-.528-1.02 0-1.619.704-.598.704-.598 1.901v4.998h-1.778v-5.403q0-1.162-.405-1.672-.387-.528-1.267-.528-1.02 0-1.602.704-.58.704-.58 1.901v4.998zm19.02.158q-1.179 0-2.059-.545-.88-.546-1.373-1.584-.475-1.038-.475-2.464 0-1.443.475-2.464.493-1.021 1.373-1.567.88-.563 2.059-.563 1.162 0 2.024.581.863.58 1.144 1.584h-.193l.176-2.006h1.725l-.106 1.091a15 15 0 0 0-.035 1.038v6.741h-1.778v-1.971h.194a2.72 2.72 0 0 1-1.162 1.566q-.863.563-1.989.563m.44-1.39q1.144 0 1.831-.81.704-.809.704-2.393t-.704-2.376q-.687-.81-1.831-.81-1.161 0-1.865.81-.687.792-.687 2.376t.687 2.393q.686.81 1.865.81m10.338 1.39q-1.443 0-2.182-.774-.74-.792-.739-2.358v-4.524h-1.725v-1.372h1.725v-2.341l1.777-.475v2.816h2.464v1.372h-2.464v4.365q0 .986.352 1.408.352.423 1.021.423.334 0 .581-.053.264-.07.475-.159v1.444q-.264.105-.616.158-.352.07-.669.07m2.944-.158v-8.87h1.778v8.87zm-.141-10.718v-1.848h2.06v1.848zm7.569 10.876q-1.109 0-2.042-.281t-1.549-.792l.546-1.215q.651.493 1.443.74a5.4 5.4 0 0 0 1.619.246q.969 0 1.461-.334a1.11 1.11 0 0 0 .493-.951.94.94 0 0 0-.317-.739q-.299-.282-1.003-.422l-1.69-.335q-1.126-.246-1.707-.845-.58-.598-.581-1.531 0-.792.423-1.408.44-.615 1.232-.968.81-.351 1.883-.352.986 0 1.83.282.846.281 1.408.809l-.563 1.18a4 4 0 0 0-1.232-.704 3.8 3.8 0 0 0-1.39-.264q-.986 0-1.461.369a1.17 1.17 0 0 0-.475.968q0 .458.281.757.3.281.933.44l1.69.334q1.197.248 1.795.81t.598 1.514q0 .826-.457 1.443-.458.615-1.267.933-.81.316-1.901.316m9.118 0q-1.18 0-2.06-.545-.88-.546-1.372-1.584-.476-1.038-.476-2.464 0-1.443.476-2.464.492-1.021 1.372-1.567.88-.563 2.06-.563 1.161 0 2.024.581.861.58 1.144 1.584h-.194l.176-2.006h1.725l-.106 1.091q-.035.528-.035 1.038v6.741h-1.778v-1.971h.194a2.72 2.72 0 0 1-1.162 1.566q-.863.563-1.988.563m.44-1.39q1.143 0 1.83-.81.704-.809.704-2.393t-.704-2.376q-.687-.81-1.83-.81-1.163 0-1.866.81-.687.792-.686 2.376 0 1.584.686 2.393.686.81 1.866.81m10.337 1.39q-1.443 0-2.182-.774-.74-.792-.739-2.358v-4.524h-1.725v-1.372h1.725v-2.341l1.777-.475v2.816h2.464v1.372h-2.464v4.365q0 .986.352 1.408.352.423 1.021.423.335 0 .581-.053.264-.07.475-.159v1.444q-.264.105-.616.158-.352.07-.669.07m2.944-.158v-8.87h1.778v8.87zm-.14-10.718v-1.848h2.059v1.848zm8.325 10.876q-1.32 0-2.288-.545a3.83 3.83 0 0 1-1.496-1.584q-.528-1.038-.528-2.464t.528-2.447a3.7 3.7 0 0 1 1.496-1.584q.968-.563 2.288-.563t2.288.563a3.66 3.66 0 0 1 1.513 1.584q.546 1.021.546 2.447 0 1.425-.546 2.464a3.8 3.8 0 0 1-1.513 1.584q-.968.546-2.288.545m0-1.39q1.161 0 1.848-.81.686-.809.686-2.393t-.686-2.376q-.687-.81-1.848-.81-1.144 0-1.831.81-.686.792-.686 2.376t.669 2.393q.685.81 1.848.81m6.425 1.232v-6.741q0-.51-.053-1.038a33 33 0 0 0-.088-1.091h1.725l.158 1.865h-.211q.404-.986 1.25-1.496.845-.528 1.953-.528 1.567 0 2.359.863.809.862.809 2.675v5.491h-1.777v-5.386q0-1.179-.476-1.689-.457-.528-1.408-.528-1.126 0-1.795.704-.669.686-.669 1.865v5.034zm19.226.158q-2.147 0-3.38-1.214-1.232-1.215-1.232-3.362 0-1.39.528-2.428a3.95 3.95 0 0 1 1.496-1.602q.969-.58 2.236-.581 1.25 0 2.094.528a3.35 3.35 0 0 1 1.285 1.496q.44.951.44 2.253v.563h-6.688v-1.021h5.473l-.299.229q0-1.32-.598-2.041-.581-.74-1.69-.74-1.232 0-1.901.863-.668.844-.668 2.341v.176q0 1.566.756 2.358.775.792 2.183.792.774 0 1.443-.211a4 4 0 0 0 1.302-.739l.581 1.214a4.3 4.3 0 0 1-1.496.845 6 6 0 0 1-1.865.281m8.939 0q-1.444 0-2.182-.774-.74-.792-.74-2.358v-4.524h-1.724v-1.372h1.724v-2.341l1.778-.475v2.816h2.464v1.372h-2.464v4.365q0 .986.352 1.408.352.423 1.021.423.334 0 .581-.053.264-.07.475-.159v1.444q-.264.105-.616.158-.353.07-.669.07m7.636 3.644v-10.543q0-.51-.052-1.038a36 36 0 0 0-.088-1.091h1.724l.176 2.006h-.193a2.77 2.77 0 0 1 1.126-1.584q.864-.58 2.037-.581c.79 0 1.48.188 2.06.563.59.364 1.04.886 1.36 1.567.33.68.49 1.502.49 2.464 0 .95-.16 1.772-.49 2.464-.32.692-.77 1.22-1.36 1.584-.58.364-1.27.545-2.06.545q-1.156 0-2.019-.563a2.77 2.77 0 0 1-1.127-1.566h.194v5.773zm4.29-5.034c.78 0 1.4-.27 1.85-.81.47-.539.71-1.337.71-2.393s-.24-1.848-.71-2.376c-.45-.54-1.07-.81-1.85-.81q-1.155 0-1.861.81-.686.792-.686 2.376t.686 2.393q.706.81 1.861.81m6.4 1.232v-6.67q0-.546-.03-1.092c-.02-.375-.04-.745-.08-1.108h1.73l.19 2.288h-.28q.18-.827.6-1.373a2.6 2.6 0 0 1 1.02-.81 3.24 3.24 0 0 1 1.76-.229q.195.018.39.071l-.02 1.584c-.2-.082-.38-.129-.53-.141a3.3 3.3 0 0 0-.53-.035q-.765 0-1.32.352c-.36.223-.64.528-.82.915-.19.387-.28.804-.28 1.25v4.998zm10.65.158c-1.43 0-2.56-.404-3.38-1.214q-1.23-1.215-1.23-3.362c0-.927.18-1.736.53-2.428.36-.693.86-1.227 1.49-1.602.65-.387 1.39-.581 2.24-.581.83 0 1.53.176 2.09.528.57.352.99.851 1.29 1.496.29.634.44 1.385.44 2.253v.563h-6.69v-1.021h5.47l-.3.229c0-.88-.2-1.56-.59-2.041-.39-.493-.95-.74-1.69-.74-.83 0-1.46.288-1.9.863-.45.563-.67 1.343-.67 2.341v.176q0 1.566.75 2.358.78.792 2.19.792.765 0 1.44-.211c.46-.153.89-.399 1.3-.739l.58 1.214c-.41.364-.91.645-1.49.845-.59.188-1.21.281-1.87.281m-.97-9.891 1.82-3.555h1.81l-2.4 3.555zm5.44 13.623c-.19 0-.41-.018-.65-.053a2.5 2.5 0 0 1-.67-.176v-1.443q.225.07.51.123.27.07.51.07c.46 0 .8-.146 1.04-.44.24-.281.37-.751.37-1.408v-9.433h1.78v9.556c0 1.056-.24 1.854-.71 2.394s-1.2.81-2.18.81m.95-14.608v-1.848h2.08v1.848zm7.62 10.876c-1.07 0-1.87-.287-2.41-.862-.53-.587-.79-1.484-.79-2.693v-5.473h1.77v5.438c0 .739.16 1.285.46 1.637.31.352.77.528 1.39.528q1.065 0 1.71-.704c.43-.47.65-1.091.65-1.866v-5.033h1.78v8.87h-1.73v-1.901h.23a3.06 3.06 0 0 1-1.18 1.531c-.54.352-1.16.528-1.88.528m11.16 3.784c-.8 0-1.53-.093-2.18-.281a5.6 5.6 0 0 1-1.75-.845l.44-1.302c.37.246.72.44 1.08.58q.525.229 1.11.335c.38.07.78.105 1.19.105.85 0 1.48-.217 1.9-.651.44-.422.65-1.038.65-1.848v-2.376h.18a2.72 2.72 0 0 1-1.16 1.567q-.87.563-2.01.563c-.81 0-1.51-.176-2.11-.528-.59-.364-1.04-.874-1.37-1.531q-.48-1.003-.48-2.359 0-1.355.48-2.341c.33-.657.78-1.161 1.37-1.513.6-.364 1.3-.546 2.11-.546q1.17 0 2.01.581.855.563 1.14 1.549l-.16-.141.16-1.83h1.73c-.05.363-.08.727-.11 1.091a18 18 0 0 0-.03 1.038v6.565q0 2.006-1.08 3.062c-.7.704-1.74 1.056-3.11 1.056m-.13-5.544c.78 0 1.4-.264 1.85-.792.47-.528.71-1.273.71-2.235s-.24-1.701-.71-2.217c-.45-.517-1.07-.775-1.85-.775-.79 0-1.43.258-1.9.775-.45.516-.68 1.255-.68 2.217s.23 1.707.68 2.235c.47.528 1.11.792 1.9.792m11.01 1.76c-1.43 0-2.56-.404-3.38-1.214q-1.23-1.215-1.23-3.362c0-.927.17-1.736.53-2.428.36-.693.86-1.227 1.49-1.602.65-.387 1.39-.581 2.24-.581.83 0 1.53.176 2.09.528.57.352.99.851 1.29 1.496.29.634.44 1.385.44 2.253v.563h-6.69v-1.021h5.47l-.3.229c0-.88-.2-1.56-.59-2.041-.39-.493-.96-.74-1.69-.74-.83 0-1.46.288-1.91.863q-.66.844-.66 2.341v.176q0 1.566.75 2.358.78.792 2.19.792.765 0 1.44-.211c.46-.153.89-.399 1.3-.739l.58 1.214c-.41.364-.91.645-1.49.845-.59.188-1.21.281-1.87.281m-.97-9.891 1.81-3.555h1.82l-2.4 3.555zm9.52 9.891q-1.11 0-2.04-.281c-.62-.188-1.14-.452-1.55-.792l.55-1.215q.645.493 1.44.74a5.5 5.5 0 0 0 1.62.246c.64 0 1.13-.111 1.46-.334.33-.235.49-.552.49-.951 0-.305-.1-.551-.31-.739-.2-.188-.54-.329-1.01-.422l-1.69-.335c-.75-.164-1.32-.446-1.7-.845-.39-.399-.58-.909-.58-1.531q0-.792.42-1.408.435-.615 1.23-.968c.54-.234 1.17-.352 1.88-.352q.99 0 1.83.282.855.281 1.41.809l-.56 1.18a4.2 4.2 0 0 0-1.23-.704 3.9 3.9 0 0 0-1.39-.264c-.66 0-1.15.123-1.46.369q-.48.37-.48.968c0 .305.09.558.28.757q.3.281.93.44l1.69.334q1.2.248 1.8.81t.6 1.514a2.4 2.4 0 0 1-.46 1.443c-.31.41-.73.721-1.27.933-.54.211-1.17.316-1.9.316"/><path fill="var(--fl-fgColor, #a93031)" d="M190.943 742.5v-12.408h1.601l4.787 10.789h-.528l4.788-10.789h1.584V742.5h-1.655v-9.926h.581l-4.47 9.926h-1.144l-4.471-9.926h.599v9.926zm19.135.158q-2.146 0-3.379-1.214-1.232-1.214-1.232-3.362 0-1.39.528-2.428a3.95 3.95 0 0 1 1.496-1.602q.969-.58 2.235-.581 1.25 0 2.095.528.844.528 1.285 1.496.44.951.44 2.253v.563h-6.688v-1.021h5.473l-.299.229q0-1.32-.598-2.041-.582-.74-1.69-.74-1.232 0-1.901.863-.669.844-.669 2.341v.176q0 1.566.757 2.358.774.792 2.183.792.774 0 1.443-.211a4 4 0 0 0 1.302-.739l.581 1.214a4.3 4.3 0 0 1-1.496.845 6.1 6.1 0 0 1-1.866.281m8.552 0q-1.109 0-2.041-.281-.934-.282-1.549-.792l.545-1.215q.652.493 1.444.74a5.4 5.4 0 0 0 1.619.246q.968 0 1.461-.334a1.11 1.11 0 0 0 .492-.951.94.94 0 0 0-.316-.739q-.3-.282-1.004-.422l-1.689-.335q-1.126-.246-1.707-.845-.581-.598-.581-1.531 0-.792.422-1.408.44-.615 1.232-.968.81-.351 1.883-.352a5.8 5.8 0 0 1 1.831.282q.844.282 1.408.809l-.563 1.18a4 4 0 0 0-1.232-.704 3.9 3.9 0 0 0-1.391-.264q-.986 0-1.461.369a1.17 1.17 0 0 0-.475.968q0 .458.282.757.298.281.933.44l1.689.334q1.197.247 1.795.81.599.563.599 1.514 0 .827-.458 1.443-.457.615-1.267.933-.81.316-1.901.316m8.871 0q-1.6 0-2.411-.862-.792-.88-.792-2.693v-5.473h1.778v5.438q0 1.109.457 1.637.458.528 1.391.528 1.056 0 1.707-.704t.651-1.866v-5.033h1.778v8.87h-1.725v-1.901h.229q-.37.986-1.179 1.531-.81.528-1.884.528m7.127-.158v-6.67q0-.546-.035-1.092a17 17 0 0 0-.07-1.108h1.725l.193 2.288h-.281q.175-.828.598-1.373a2.6 2.6 0 0 1 1.021-.81q.616-.264 1.285-.264.281 0 .475.035.193.018.387.071l-.018 1.584a1.8 1.8 0 0 0-.528-.141 3.3 3.3 0 0 0-.528-.035q-.774 0-1.32.352a2.16 2.16 0 0 0-.827.915 2.8 2.8 0 0 0-.281 1.25v4.998zm10.65.158q-2.146 0-3.379-1.214-1.232-1.214-1.232-3.362 0-1.39.528-2.428a3.95 3.95 0 0 1 1.496-1.602q.969-.58 2.235-.581 1.25 0 2.095.528.844.528 1.285 1.496.44.951.44 2.253v.563h-6.688v-1.021h5.473l-.299.229q0-1.32-.598-2.041-.582-.74-1.69-.74-1.232 0-1.901.863-.669.844-.669 2.341v.176q0 1.566.757 2.358.774.792 2.183.792.774 0 1.443-.211a4 4 0 0 0 1.302-.739l.581 1.214a4.3 4.3 0 0 1-1.496.845 6.1 6.1 0 0 1-1.866.281m8.552 0q-1.109 0-2.041-.281-.934-.282-1.549-.792l.545-1.215q.652.493 1.444.74a5.4 5.4 0 0 0 1.619.246q.968 0 1.461-.334a1.11 1.11 0 0 0 .492-.951.94.94 0 0 0-.316-.739q-.3-.282-1.004-.422l-1.689-.335q-1.126-.246-1.707-.845-.582-.598-.581-1.531 0-.792.422-1.408.44-.615 1.232-.968.81-.351 1.883-.352a5.8 5.8 0 0 1 1.831.282q.844.282 1.408.809l-.563 1.18a4 4 0 0 0-1.232-.704 3.9 3.9 0 0 0-1.391-.264q-.986 0-1.461.369a1.17 1.17 0 0 0-.475.968q0 .458.282.757.298.281.933.44l1.689.334q1.197.247 1.795.81.599.563.599 1.514 0 .827-.458 1.443-.457.615-1.267.933-.81.316-1.901.316m13.81 0q-1.162 0-2.059-.545-.88-.546-1.373-1.584-.475-1.038-.475-2.464 0-1.443.475-2.464.493-1.021 1.373-1.567.898-.563 2.059-.563 1.144 0 2.006.581a2.65 2.65 0 0 1 1.162 1.549h-.211v-6.055h1.777V742.5h-1.76v-2.006h.212a2.84 2.84 0 0 1-1.162 1.584q-.863.58-2.024.58m.44-1.39q1.144 0 1.848-.81.704-.809.704-2.393t-.704-2.376q-.703-.81-1.848-.81-1.161 0-1.866.81-.686.792-.686 2.376t.686 2.393q.705.81 1.866.81m7.539-6.934-.774-.599q.51-.528.686-.985.194-.476.194-.951l.475.37h-1.478v-2.077h2.094v1.426q0 .791-.264 1.478-.264.669-.933 1.338m6.923 8.324q-1.18 0-2.06-.545-.88-.546-1.372-1.584-.476-1.038-.476-2.464 0-1.443.476-2.464.493-1.021 1.372-1.567.88-.563 2.06-.563 1.161 0 2.024.581.862.58 1.144 1.584h-.194l.176-2.006h1.725l-.106 1.091q-.035.528-.035 1.038v6.741h-1.778v-1.971h.194a2.72 2.72 0 0 1-1.162 1.566q-.862.563-1.988.563m.44-1.39q1.143 0 1.83-.81.704-.809.704-2.393t-.704-2.376q-.687-.81-1.83-.81-1.162 0-1.866.81-.687.792-.686 2.376 0 1.584.686 2.393.686.81 1.866.81m10.285 1.39q-1.162 0-2.06-.545-.88-.546-1.372-1.584-.476-1.038-.476-2.464 0-1.443.476-2.464.492-1.021 1.372-1.567.898-.563 2.06-.563 1.143 0 2.006.581a2.65 2.65 0 0 1 1.162 1.549h-.212v-6.055h1.778V742.5h-1.76v-2.006h.211a2.83 2.83 0 0 1-1.161 1.584q-.863.58-2.024.58m.44-1.39q1.143 0 1.848-.81.704-.809.704-2.393t-.704-2.376q-.705-.81-1.848-.81-1.162 0-1.866.81-.687.792-.686 2.376 0 1.584.686 2.393.704.81 1.866.81m10.285 1.39q-1.18 0-2.06-.545-.88-.546-1.372-1.584-.476-1.038-.476-2.464 0-1.443.476-2.464.493-1.021 1.372-1.567.88-.563 2.06-.563 1.161 0 2.024.581.862.58 1.144 1.584h-.194l.176-2.006h1.725l-.106 1.091q-.035.528-.035 1.038v6.741h-1.778v-1.971h.194a2.72 2.72 0 0 1-1.162 1.566q-.862.563-1.988.563m.44-1.39q1.143 0 1.83-.81.704-.809.704-2.393t-.704-2.376q-.687-.81-1.83-.81-1.163 0-1.866.81-.687.792-.686 2.376 0 1.584.686 2.393.686.81 1.866.81m6.888 5.034v-10.543q0-.51-.053-1.038a33 33 0 0 0-.088-1.091h1.725l.176 2.006h-.194a2.77 2.77 0 0 1 1.127-1.584q.862-.58 2.041-.581 1.18 0 2.059.563.88.546 1.356 1.567.492 1.02.492 2.464 0 1.426-.492 2.464-.476 1.038-1.356 1.584t-2.059.545q-1.161 0-2.024-.563a2.77 2.77 0 0 1-1.126-1.566h.193v5.773zm4.294-5.034q1.162 0 1.848-.81.705-.809.704-2.393 0-1.584-.704-2.376-.685-.81-1.848-.81-1.161 0-1.865.81-.687.792-.687 2.376t.687 2.393q.704.81 1.865.81m9.794 1.39q-1.443 0-2.182-.774-.74-.792-.739-2.358v-4.524h-1.725v-1.372h1.725v-2.341l1.777-.475v2.816h2.464v1.372h-2.464v4.365q0 .986.352 1.408.352.423 1.021.423.335 0 .581-.053.264-.07.475-.159v1.444q-.264.105-.616.158-.351.07-.669.07m6.341 0q-1.179 0-2.059-.545-.88-.546-1.373-1.584-.474-1.038-.475-2.464 0-1.443.475-2.464.494-1.021 1.373-1.567.88-.563 2.059-.563 1.162 0 2.024.581.863.58 1.144 1.584h-.193l.176-2.006h1.725l-.106 1.091q-.035.528-.035 1.038v6.741h-1.778v-1.971h.194a2.72 2.72 0 0 1-1.162 1.566q-.863.563-1.989.563m.44-1.39q1.144 0 1.831-.81.704-.809.704-2.393t-.704-2.376q-.687-.81-1.831-.81-1.161 0-1.865.81-.687.792-.687 2.376t.687 2.393q.686.81 1.865.81m10.338 1.39q-1.443 0-2.182-.774-.74-.792-.739-2.358v-4.524h-1.725v-1.372h1.725v-2.341l1.777-.475v2.816h2.464v1.372h-2.464v4.365q0 .986.352 1.408.352.423 1.021.423.335 0 .581-.053.264-.07.475-.159v1.444q-.264.105-.616.158-.353.07-.669.07m2.944-.158v-8.87h1.778v8.87zm-.14-10.718v-1.848h2.059v1.848zm8.325 10.876q-1.32 0-2.288-.545a3.83 3.83 0 0 1-1.496-1.584q-.528-1.038-.528-2.464t.528-2.447q.528-1.038 1.496-1.584.968-.563 2.288-.563t2.288.563a3.66 3.66 0 0 1 1.513 1.584q.546 1.021.546 2.447t-.546 2.464a3.8 3.8 0 0 1-1.513 1.584q-.969.546-2.288.545m0-1.39q1.161 0 1.848-.81.686-.809.686-2.393t-.686-2.376q-.687-.81-1.848-.81-1.144 0-1.831.81-.686.792-.686 2.376t.669 2.393q.686.81 1.848.81m6.425 1.232v-6.741q0-.51-.053-1.038a36 36 0 0 0-.088-1.091h1.725l.158 1.865h-.211q.404-.986 1.25-1.496.844-.528 1.953-.528 1.567 0 2.359.863.809.862.809 2.675v5.491h-1.777v-5.386q0-1.179-.476-1.689-.457-.528-1.408-.528-1.126 0-1.795.704-.669.686-.669 1.865v5.034zm19.226.158q-2.148 0-3.38-1.214t-1.232-3.362q0-1.39.528-2.428a3.95 3.95 0 0 1 1.496-1.602q.969-.58 2.236-.581 1.25 0 2.094.528t1.285 1.496q.44.951.44 2.253v.563h-6.688v-1.021h5.473l-.299.229q0-1.32-.598-2.041-.581-.74-1.69-.74-1.232 0-1.901.863-.668.844-.668 2.341v.176q0 1.566.756 2.358.775.792 2.183.792.774 0 1.443-.211a4 4 0 0 0 1.302-.739l.581 1.214a4.3 4.3 0 0 1-1.496.845 6 6 0 0 1-1.865.281m5.507-.158v-6.741q0-.51-.053-1.038a36 36 0 0 0-.088-1.091h1.725l.158 1.865h-.211q.405-.986 1.249-1.496.846-.528 1.954-.528 1.566 0 2.358.863.81.862.81 2.675v5.491h-1.778v-5.386q0-1.179-.475-1.689-.457-.528-1.408-.528-1.126 0-1.795.704-.669.686-.669 1.865v5.034zm19.225.158q-2.147 0-3.379-1.214t-1.232-3.362q0-1.39.528-2.428a3.95 3.95 0 0 1 1.496-1.602q.968-.58 2.235-.581 1.25 0 2.095.528.844.528 1.285 1.496.44.951.44 2.253v.563h-6.688v-1.021h5.473l-.299.229q0-1.32-.598-2.041-.582-.74-1.69-.74-1.232 0-1.901.863-.669.844-.669 2.341v.176q0 1.566.757 2.358.774.792 2.183.792.774 0 1.443-.211a4.1 4.1 0 0 0 1.302-.739l.581 1.214a4.3 4.3 0 0 1-1.496.845 6.1 6.1 0 0 1-1.866.281m5.507-.158v-6.741q0-.51-.052-1.038a36 36 0 0 0-.088-1.091h1.724l.159 1.865h-.211q.369-.968 1.126-1.496.774-.528 1.848-.528 1.09 0 1.778.528.704.51.968 1.584h-.282a3.04 3.04 0 0 1 1.197-1.531q.844-.58 1.953-.581 1.479 0 2.218.863.74.862.739 2.675v5.491h-1.777v-5.403q0-1.162-.405-1.672-.387-.528-1.267-.528-1.021 0-1.62.704-.598.704-.598 1.901v4.998h-1.778v-5.403q0-1.162-.404-1.672-.388-.528-1.268-.528-1.02 0-1.601.704-.58.704-.581 1.901v4.998zm15.624 3.802v-10.543q0-.51-.053-1.038a33 33 0 0 0-.088-1.091h1.725l.176 2.006h-.194a2.77 2.77 0 0 1 1.127-1.584q.862-.58 2.041-.581 1.18 0 2.059.563.88.546 1.356 1.567.492 1.02.492 2.464 0 1.426-.492 2.464-.475 1.038-1.356 1.584-.88.546-2.059.545-1.161 0-2.024-.563a2.77 2.77 0 0 1-1.126-1.566h.193v5.773zm4.294-5.034q1.162 0 1.848-.81.704-.809.704-2.393t-.704-2.376q-.685-.81-1.848-.81-1.161 0-1.865.81-.687.792-.687 2.376t.687 2.393q.704.81 1.865.81m6.431 1.232v-12.954h1.777V742.5zm8.184.158q-1.32 0-2.288-.545a3.83 3.83 0 0 1-1.496-1.584q-.528-1.038-.528-2.464t.528-2.447a3.7 3.7 0 0 1 1.496-1.584q.969-.563 2.288-.563 1.32 0 2.288.563a3.66 3.66 0 0 1 1.514 1.584q.546 1.021.545 2.447 0 1.426-.545 2.464a3.8 3.8 0 0 1-1.514 1.584q-.968.546-2.288.545m0-1.39q1.162 0 1.848-.81.687-.809.687-2.393t-.687-2.376q-.685-.81-1.848-.81-1.144 0-1.83.81-.687.792-.687 2.376t.669 2.393q.687.81 1.848.81m6.425 1.232v-8.87h1.778v8.87zm-.141-10.718v-1.848h2.06v1.848zM0 483.5v-12.408h8.131v1.461H1.778v3.907h5.948v1.478H1.778v4.084H8.13v1.478zm3.696-13.464 2.077-3.045H7.69l-2.693 3.045zM12.69 483.5l-3.801-8.87h1.9l2.992 7.409h-.51l3.045-7.409h1.813l-3.82 8.87zm10.795.158q-2.147 0-3.38-1.214-1.231-1.214-1.232-3.362 0-1.39.528-2.428a3.94 3.94 0 0 1 1.496-1.602q.968-.58 2.236-.581 1.249 0 2.094.528t1.285 1.496q.44.951.44 2.253v.563h-6.688v-1.021h5.473l-.299.229q0-1.32-.598-2.041-.58-.74-1.69-.74-1.232 0-1.9.863-.67.844-.67 2.341v.176q0 1.566.757 2.358.775.792 2.183.792.774 0 1.443-.211a4 4 0 0 0 1.302-.739l.581 1.214q-.616.546-1.496.845a6 6 0 0 1-1.865.281m-.968-9.891 1.812-3.555h1.813l-2.393 3.555zm6.475 9.733v-6.741q0-.51-.053-1.038a34 34 0 0 0-.088-1.091h1.725l.158 1.865h-.211q.404-.986 1.25-1.496.844-.528 1.953-.528 1.566 0 2.358.863.81.862.81 2.675v5.491h-1.777v-5.386q0-1.179-.476-1.689-.457-.528-1.408-.528-1.126 0-1.795.704-.669.686-.669 1.865v5.034zm14.533.158q-2.147 0-3.379-1.214t-1.232-3.362q0-1.39.528-2.428a3.94 3.94 0 0 1 1.496-1.602q.968-.58 2.235-.581 1.25 0 2.095.528.844.528 1.285 1.496.44.951.44 2.253v.563h-6.689v-1.021h5.474l-.3.229q0-1.32-.598-2.041-.58-.74-1.69-.74-1.23 0-1.9.863-.669.844-.669 2.341v.176q0 1.566.757 2.358.774.792 2.182.792.775 0 1.444-.211a4 4 0 0 0 1.302-.739l.58 1.214a4.3 4.3 0 0 1-1.495.845 6 6 0 0 1-1.866.281m5.507-.158v-6.741q0-.51-.052-1.038a34 34 0 0 0-.088-1.091h1.724l.159 1.865h-.212q.37-.968 1.127-1.496.774-.528 1.848-.528 1.09 0 1.778.528.703.51.967 1.584h-.281a3.04 3.04 0 0 1 1.197-1.531q.844-.58 1.953-.581 1.479 0 2.218.863.74.862.74 2.675v5.491H60.33v-5.403q0-1.162-.404-1.672-.387-.528-1.267-.528-1.02 0-1.62.704-.598.704-.598 1.901v4.998h-1.778v-5.403q0-1.162-.404-1.672-.388-.528-1.268-.528-1.02 0-1.601.704-.58.704-.581 1.901v4.998zm19.725.158q-2.148 0-3.38-1.214t-1.232-3.362q0-1.39.528-2.428a3.94 3.94 0 0 1 1.496-1.602q.968-.58 2.236-.581 1.249 0 2.094.528t1.285 1.496q.44.951.44 2.253v.563h-6.688v-1.021h5.473l-.299.229q0-1.32-.598-2.041-.58-.74-1.69-.74-1.232 0-1.9.863-.67.844-.67 2.341v.176q0 1.566.757 2.358.775.792 2.183.792.774 0 1.443-.211a4 4 0 0 0 1.302-.739l.581 1.214q-.616.546-1.496.845a6 6 0 0 1-1.865.281m5.506-.158v-6.741q0-.51-.052-1.038a34 34 0 0 0-.088-1.091h1.724l.159 1.865h-.211q.404-.986 1.25-1.496.844-.528 1.953-.528 1.566 0 2.358.863.81.862.81 2.675v5.491h-1.778v-5.386q0-1.179-.475-1.689-.457-.528-1.408-.528-1.126 0-1.795.704-.669.686-.669 1.865v5.034zm13.883.158q-1.443 0-2.183-.774-.739-.792-.739-2.358v-4.524H83.5v-1.372h1.725v-2.341l1.778-.475v2.816h2.464v1.372h-2.464v4.365q0 .986.352 1.408.353.423 1.02.423.335 0 .582-.053.263-.07.475-.159v1.444a2.8 2.8 0 0 1-.616.158q-.352.07-.67.07m5.989 0a7 7 0 0 1-2.042-.281q-.933-.282-1.549-.792l.546-1.215a4.7 4.7 0 0 0 1.443.74 5.4 5.4 0 0 0 1.62.246q.968 0 1.46-.334a1.11 1.11 0 0 0 .493-.951.94.94 0 0 0-.317-.739q-.3-.282-1.003-.422l-1.69-.335q-1.126-.246-1.707-.845-.58-.598-.58-1.531 0-.792.422-1.408.44-.615 1.232-.968.81-.351 1.883-.352.985 0 1.83.282t1.409.809l-.564 1.18a4 4 0 0 0-1.232-.704 3.9 3.9 0 0 0-1.39-.264q-.986 0-1.46.369a1.17 1.17 0 0 0-.476.968q0 .458.282.757.299.281.932.44l1.69.334q1.197.248 1.795.81t.598 1.514q0 .826-.457 1.443-.458.615-1.267.933-.81.316-1.901.316m10.413-.158v-8.87h1.778v8.87zm-.141-10.718v-1.848h2.059v1.848zm4.524 10.718v-6.741q0-.51-.053-1.038a36 36 0 0 0-.088-1.091h1.725l.158 1.865h-.211q.37-.968 1.126-1.496.775-.528 1.848-.528 1.091 0 1.778.528.704.51.968 1.584h-.282a3.04 3.04 0 0 1 1.197-1.531q.845-.58 1.954-.581 1.478 0 2.217.863.74.862.74 2.675v5.491h-1.778v-5.403q0-1.162-.405-1.672-.387-.528-1.267-.528-1.021 0-1.619.704t-.599 1.901v4.998h-1.777v-5.403q0-1.162-.405-1.672-.387-.528-1.267-.528-1.022 0-1.602.704t-.581 1.901v4.998zm15.623 3.802v-10.543q0-.51-.053-1.038a31 31 0 0 0-.088-1.091h1.725l.176 2.006h-.193a2.77 2.77 0 0 1 1.126-1.584q.862-.58 2.042-.581 1.179 0 2.059.563.88.546 1.355 1.567.492 1.02.493 2.464 0 1.425-.493 2.464-.476 1.038-1.355 1.584-.88.546-2.059.545-1.163 0-2.024-.563a2.77 2.77 0 0 1-1.127-1.566h.194v5.773zm4.295-5.034q1.161 0 1.848-.81.704-.809.704-2.393t-.704-2.376q-.687-.81-1.848-.81-1.163 0-1.866.81-.686.792-.686 2.376t.686 2.393q.703.81 1.866.81m6.395 1.232v-6.67q0-.546-.035-1.092a17 17 0 0 0-.071-1.108h1.725l.194 2.288h-.282q.176-.828.599-1.373a2.6 2.6 0 0 1 1.02-.81 3.23 3.23 0 0 1 1.76-.229q.193.018.388.071l-.018 1.584a1.8 1.8 0 0 0-.528-.141 3.4 3.4 0 0 0-.528-.035q-.774 0-1.32.352-.546.335-.827.915a2.8 2.8 0 0 0-.282 1.25v4.998zm10.65.158q-2.147 0-3.379-1.214t-1.232-3.362q0-1.39.528-2.428.546-1.04 1.496-1.602.967-.58 2.235-.581 1.25 0 2.094.528.846.528 1.285 1.496.44.951.44 2.253v.563h-6.688v-1.021h5.474l-.299.229q0-1.32-.599-2.041-.58-.74-1.689-.74-1.233 0-1.901.863-.669.844-.669 2.341v.176q0 1.566.757 2.358.774.792 2.182.792.775 0 1.443-.211a4.1 4.1 0 0 0 1.303-.739l.581 1.214q-.617.546-1.496.845a6.1 6.1 0 0 1-1.866.281m-.968-9.891 1.813-3.555h1.813l-2.394 3.555zm8.96 9.733-3.802-8.87h1.901l2.992 7.409h-.511l3.045-7.409h1.813l-3.819 8.87zm9.998.158q-1.6 0-2.411-.862-.792-.88-.792-2.693v-5.473h1.778v5.438q0 1.109.457 1.637.458.528 1.391.528 1.056 0 1.707-.704t.651-1.866v-5.033h1.778v8.87h-1.725v-1.901h.229q-.37.986-1.18 1.531-.809.528-1.883.528m10.207 0q-1.109 0-2.041-.281-.934-.282-1.549-.792l.545-1.215q.651.493 1.444.74a5.4 5.4 0 0 0 1.619.246q.968 0 1.461-.334a1.11 1.11 0 0 0 .492-.951.94.94 0 0 0-.316-.739q-.3-.282-1.004-.422l-1.689-.335q-1.126-.246-1.707-.845-.581-.598-.581-1.531 0-.792.422-1.408.44-.615 1.232-.968.81-.351 1.883-.352a5.8 5.8 0 0 1 1.831.282q.844.281 1.408.809l-.563 1.18a4 4 0 0 0-1.232-.704 3.9 3.9 0 0 0-1.391-.264q-.986 0-1.461.369a1.17 1.17 0 0 0-.475.968q0 .458.282.757.298.281.933.44l1.689.334q1.197.248 1.795.81.599.563.599 1.514 0 .826-.458 1.443-.457.615-1.267.933-.81.316-1.901.316"/><path fill="var(--fl-fgColor, #222)" d="M704.992 40.5V28.092h1.831v10.842h6.089V40.5zm9.553 0v-8.87h1.777v8.87zm-.141-10.718v-1.848h2.059v1.848zm8.624 10.876q-2.146 0-3.379-1.214-1.232-1.215-1.232-3.362 0-1.39.528-2.428a3.96 3.96 0 0 1 1.496-1.602q.969-.58 2.235-.58 1.25 0 2.095.527.844.527 1.285 1.496.44.951.44 2.253v.563h-6.688v-1.02h5.473l-.299.228q0-1.32-.598-2.041-.582-.74-1.69-.74-1.232 0-1.901.863-.669.845-.669 2.34v.177q0 1.566.757 2.358.774.792 2.183.792.774 0 1.443-.211a4 4 0 0 0 1.302-.74l.581 1.215a4.3 4.3 0 0 1-1.496.845 6.1 6.1 0 0 1-1.866.281m8.658 0q-1.602 0-2.411-.862-.792-.88-.792-2.693V31.63h1.777v5.438q0 1.11.458 1.637.457.528 1.39.528 1.056 0 1.707-.704.652-.704.652-1.866V31.63h1.777v8.87h-1.725v-1.9h.229q-.369.985-1.179 1.53-.81.528-1.883.528m15.251 0q-1.162 0-2.059-.545-.88-.546-1.373-1.584-.475-1.04-.475-2.464 0-1.444.475-2.464.492-1.02 1.373-1.567.897-.563 2.059-.563 1.144 0 2.006.581.88.564 1.162 1.549h-.211v-6.055h1.777V40.5h-1.76v-2.006h.211a2.83 2.83 0 0 1-1.161 1.584q-.863.58-2.024.58m.44-1.39q1.145 0 1.848-.81t.704-2.393-.704-2.376q-.703-.81-1.848-.81-1.162 0-1.866.81-.686.792-.686 2.376t.686 2.393q.704.81 1.866.81m10.989 1.39q-2.148 0-3.379-1.214-1.233-1.215-1.232-3.362 0-1.39.528-2.428a3.94 3.94 0 0 1 1.496-1.602q.967-.58 2.235-.58 1.25 0 2.094.527.845.527 1.285 1.496.44.951.44 2.253v.563h-6.688v-1.02h5.474l-.3.228q0-1.32-.598-2.041-.58-.74-1.69-.74-1.231 0-1.9.863-.669.845-.669 2.34v.177q0 1.566.757 2.358.774.792 2.182.792.774 0 1.443-.211a4 4 0 0 0 1.303-.74l.58 1.215q-.615.546-1.496.845a6 6 0 0 1-1.865.281m10.164-.158v-6.67q0-.546-.035-1.092a17 17 0 0 0-.071-1.108h1.725l.194 2.288h-.282q.176-.828.598-1.373a2.6 2.6 0 0 1 1.021-.81 3.23 3.23 0 0 1 1.76-.229q.194.019.387.07l-.017 1.585q-.3-.124-.528-.141a3.3 3.3 0 0 0-.528-.035q-.774 0-1.32.352-.546.334-.827.915a2.8 2.8 0 0 0-.282 1.25V40.5zm10.65.158q-2.148 0-3.379-1.214-1.232-1.215-1.232-3.362 0-1.39.528-2.428a3.94 3.94 0 0 1 1.496-1.602q.967-.58 2.235-.58 1.25 0 2.094.527.846.527 1.285 1.496.44.951.44 2.253v.563h-6.688v-1.02h5.474l-.299.228q0-1.32-.599-2.041-.58-.74-1.689-.74-1.233 0-1.901.863-.669.845-.669 2.34v.177q0 1.566.757 2.358.774.792 2.182.792.774 0 1.443-.211a4 4 0 0 0 1.303-.74l.581 1.215q-.617.546-1.496.845a6.1 6.1 0 0 1-1.866.281m-.968-9.89 1.813-3.556h1.813l-2.394 3.555zm9.52 9.89q-1.109 0-2.042-.281t-1.549-.792l.546-1.215q.651.493 1.443.74a5.4 5.4 0 0 0 1.619.246q.969 0 1.461-.334.493-.353.493-.95a.94.94 0 0 0-.317-.74q-.299-.282-1.003-.422l-1.69-.335q-1.127-.246-1.707-.845-.58-.598-.581-1.53 0-.793.423-1.409.44-.615 1.232-.968.81-.352 1.883-.352.986 0 1.83.282.846.281 1.408.81l-.563 1.179a4 4 0 0 0-1.232-.704 3.8 3.8 0 0 0-1.39-.264q-.986 0-1.461.37-.475.369-.475.967 0 .458.281.757.3.282.933.44l1.69.334q1.197.247 1.795.81t.598 1.514q0 .827-.457 1.443-.458.615-1.267.933-.81.316-1.901.316m5.721-.158v-8.87h1.777v8.87zm-.141-10.718v-1.848h2.059v1.848zm7.92 10.876q-1.161 0-2.059-.545-.88-.546-1.373-1.584-.475-1.04-.475-2.464 0-1.444.475-2.464.493-1.02 1.373-1.567.898-.563 2.059-.563 1.145 0 2.007.581.879.564 1.161 1.549h-.211v-6.055h1.778V40.5h-1.76v-2.006h.211a2.83 2.83 0 0 1-1.162 1.584q-.862.58-2.024.58m.44-1.39q1.145 0 1.848-.81.705-.81.704-2.393 0-1.584-.704-2.376-.704-.81-1.848-.81-1.161 0-1.865.81-.687.792-.687 2.376t.687 2.393q.704.81 1.865.81m10.989 1.39q-2.147 0-3.379-1.214-1.232-1.215-1.232-3.362 0-1.39.528-2.428a3.95 3.95 0 0 1 1.496-1.602q.967-.58 2.235-.58 1.25 0 2.095.527.844.527 1.284 1.496.44.951.44 2.253v.563h-6.688v-1.02h5.474l-.299.228q0-1.32-.599-2.041-.58-.74-1.689-.74-1.233 0-1.901.863-.669.845-.669 2.34v.177q0 1.566.757 2.358.775.792 2.182.792.775 0 1.444-.211a4 4 0 0 0 1.302-.74l.581 1.215q-.617.546-1.496.845a6.1 6.1 0 0 1-1.866.281m5.507-.158v-6.74q0-.511-.053-1.04a31 31 0 0 0-.088-1.09h1.725l.159 1.865h-.212q.405-.985 1.25-1.496.844-.528 1.954-.528 1.566 0 2.358.863.81.861.81 2.675V40.5h-1.778v-5.386q0-1.179-.475-1.69-.458-.527-1.408-.527-1.127 0-1.795.704-.669.686-.669 1.865V40.5zm14.323.158q-1.338 0-2.341-.545a3.87 3.87 0 0 1-1.531-1.602q-.528-1.056-.528-2.499 0-1.425.545-2.446a3.7 3.7 0 0 1 1.531-1.55q.986-.545 2.324-.545.862 0 1.672.3.809.28 1.337.809l-.581 1.25a3.2 3.2 0 0 0-1.108-.704 3.2 3.2 0 0 0-1.197-.247q-1.268 0-1.989.81t-.722 2.34q0 1.55.722 2.377.721.827 1.989.827.563 0 1.179-.211a3.2 3.2 0 0 0 1.126-.722l.581 1.25q-.546.527-1.373.827a5 5 0 0 1-1.636.281m8.822 0q-2.148 0-3.379-1.214-1.233-1.215-1.232-3.362 0-1.39.528-2.428a3.94 3.94 0 0 1 1.496-1.602q.967-.58 2.235-.58 1.25 0 2.094.527.845.527 1.285 1.496.44.951.44 2.253v.563h-6.688v-1.02h5.474l-.3.228q0-1.32-.598-2.041-.58-.74-1.69-.74-1.232 0-1.9.863-.669.845-.669 2.34v.177q0 1.566.757 2.358.774.792 2.182.792.774 0 1.443-.211a4 4 0 0 0 1.303-.74l.58 1.215q-.615.546-1.496.845a6 6 0 0 1-1.865.281M172.476 40.658q-1.497 0-2.711-.37a6.7 6.7 0 0 1-2.112-1.09l.616-1.444q.599.459 1.232.757.651.3 1.373.458.74.14 1.602.14 1.478 0 2.164-.527.704-.529.704-1.39 0-.74-.492-1.145-.475-.405-1.69-.651l-1.918-.387q-1.708-.352-2.552-1.144-.828-.81-.828-2.2 0-1.126.599-1.971.598-.846 1.654-1.303 1.074-.457 2.499-.457 1.32 0 2.429.387 1.109.37 1.866 1.109l-.599 1.39a5.2 5.2 0 0 0-1.689-1.003q-.898-.335-2.042-.335-1.355 0-2.129.564-.757.563-.757 1.53 0 .776.475 1.215.493.441 1.619.669l1.919.37q1.778.369 2.622 1.144.845.756.845 2.094 0 1.074-.581 1.883-.563.81-1.619 1.267-1.056.44-2.499.44m10.188 0q-1.443 0-2.182-.774-.74-.792-.74-2.358v-4.524h-1.724V31.63h1.724v-2.341l1.778-.475v2.816h2.464v1.372h-2.464v4.365q0 .986.352 1.408.352.423 1.021.423.334 0 .581-.053.264-.07.475-.159v1.444q-.264.105-.616.158-.352.07-.669.07m6.341 0q-1.18 0-2.059-.545-.88-.546-1.373-1.584-.475-1.04-.475-2.464 0-1.444.475-2.464.492-1.02 1.373-1.567.88-.563 2.059-.563 1.161 0 2.024.581.862.58 1.144 1.584h-.194l.176-2.006h1.725l-.106 1.09a16 16 0 0 0-.035 1.04v6.74h-1.777v-1.971h.193a2.72 2.72 0 0 1-1.161 1.566q-.862.564-1.989.563m.44-1.39q1.144 0 1.83-.81.704-.81.704-2.393 0-1.584-.704-2.376-.685-.81-1.83-.81-1.162 0-1.866.81-.686.792-.686 2.376t.686 2.393q.687.81 1.866.81m10.338 1.39q-1.443 0-2.183-.774-.74-.792-.739-2.358v-4.524h-1.725V31.63h1.725v-2.341l1.778-.475v2.816h2.464v1.372h-2.464v4.365q0 .986.352 1.408.352.423 1.02.423.335 0 .581-.053.264-.07.475-.159v1.444q-.264.105-.616.158-.351.07-.668.07m6.094 0q-1.601 0-2.411-.862-.792-.88-.792-2.693V31.63h1.778v5.438q0 1.11.457 1.637.458.528 1.391.528 1.056 0 1.707-.704t.651-1.866V31.63h1.778v8.87h-1.725v-1.9h.229q-.37.985-1.18 1.53-.809.528-1.883.528m10.612 0q-1.444 0-2.182-.774-.74-.792-.74-2.358v-4.524h-1.724V31.63h1.724v-2.341l1.778-.475v2.816h2.464v1.372h-2.464v4.365q0 .986.352 1.408.352.423 1.021.423.334 0 .581-.053.264-.07.475-.159v1.444q-.264.105-.616.158-.353.07-.669.07m11.033 0q-1.161 0-2.059-.545-.88-.546-1.373-1.584-.475-1.04-.475-2.464 0-1.444.475-2.464.493-1.02 1.373-1.567.898-.563 2.059-.563 1.145 0 2.006.581.88.564 1.162 1.549h-.211v-6.055h1.777V40.5h-1.76v-2.006h.212a2.83 2.83 0 0 1-1.162 1.584q-.863.58-2.024.58m.44-1.39q1.144 0 1.848-.81t.704-2.393-.704-2.376q-.704-.81-1.848-.81-1.161 0-1.866.81-.686.792-.686 2.376t.686 2.393q.705.81 1.866.81m7.539-6.934-.774-.599q.51-.528.686-.985.195-.476.194-.95l.475.369h-1.478v-2.077h2.094v1.426q0 .791-.264 1.478-.264.669-.933 1.338m3.526 8.166v-8.87h1.777v8.87zm-.141-10.718v-1.848h2.059v1.848zM243.41 40.5v-6.74q0-.511-.053-1.04a36 36 0 0 0-.088-1.09h1.725l.158 1.865h-.211q.37-.968 1.126-1.496.774-.528 1.848-.528 1.091 0 1.778.528.704.51.968 1.584h-.282a3.05 3.05 0 0 1 1.197-1.531q.844-.58 1.954-.58 1.477 0 2.217.862.74.861.739 2.675V40.5h-1.777v-5.403q0-1.162-.405-1.672-.388-.528-1.267-.528-1.021 0-1.619.704-.599.705-.599 1.9V40.5h-1.777v-5.403q0-1.162-.405-1.672-.388-.528-1.267-.528-1.022 0-1.602.704-.58.705-.581 1.9V40.5zm15.623 0v-6.74q0-.511-.053-1.04a33 33 0 0 0-.088-1.09h1.725l.158 1.865h-.211q.37-.968 1.127-1.496.774-.528 1.848-.528 1.091 0 1.777.528.704.51.968 1.584h-.281a3.04 3.04 0 0 1 1.196-1.531q.846-.58 1.954-.58 1.479 0 2.218.862.739.861.739 2.675V40.5h-1.778v-5.403q0-1.162-.405-1.672-.387-.528-1.267-.528-1.02 0-1.619.704-.598.705-.598 1.9V40.5h-1.778v-5.403q0-1.162-.405-1.672-.387-.528-1.267-.528-1.02 0-1.602.704-.58.705-.58 1.9V40.5zm15.624 0v-8.87h1.777v8.87zm-.141-10.718v-1.848h2.059v1.848zm8.519 14.66a8 8 0 0 1-2.183-.281 5.6 5.6 0 0 1-1.742-.845l.44-1.302q.545.37 1.073.58.528.229 1.109.335.58.105 1.197.105 1.267 0 1.901-.65.651-.635.651-1.849V38.16h.176a2.73 2.73 0 0 1-1.162 1.567q-.862.563-2.006.563-1.215 0-2.112-.528a3.7 3.7 0 0 1-1.373-1.531q-.475-1.004-.475-2.359t.475-2.34q.493-.987 1.373-1.514.897-.546 2.112-.546 1.161 0 2.006.581.863.564 1.144 1.549l-.158-.141.158-1.83h1.725q-.07.545-.105 1.09-.036.529-.036 1.04v6.564q0 2.007-1.073 3.062-1.056 1.056-3.115 1.056m-.124-5.544q1.162 0 1.848-.792.705-.792.704-2.235 0-1.443-.704-2.217-.685-.775-1.848-.775-1.197 0-1.9.775-.687.774-.687 2.217t.687 2.235q.703.792 1.9.792m6.87 1.602v-6.67q0-.546-.036-1.092a17 17 0 0 0-.07-1.108h1.725l.193 2.288h-.281q.176-.828.598-1.373a2.6 2.6 0 0 1 1.021-.81 3.23 3.23 0 0 1 1.76-.229q.194.019.387.07l-.017 1.585q-.3-.124-.528-.141a3.3 3.3 0 0 0-.528-.035q-.775 0-1.32.352-.546.334-.828.915a2.8 2.8 0 0 0-.281 1.25V40.5zm9.98.158q-1.179 0-2.059-.545-.88-.546-1.373-1.584-.475-1.04-.475-2.464 0-1.444.475-2.464.493-1.02 1.373-1.567.88-.563 2.059-.563 1.162 0 2.024.581.862.58 1.144 1.584h-.193l.176-2.006h1.724l-.105 1.09q-.036.529-.035 1.04v6.74h-1.778v-1.971h.194a2.73 2.73 0 0 1-1.162 1.566q-.862.564-1.989.563m.44-1.39q1.144 0 1.831-.81.704-.81.704-2.393 0-1.584-.704-2.376-.687-.81-1.831-.81-1.161 0-1.865.81-.687.792-.687 2.376t.687 2.393q.686.81 1.865.81m10.338 1.39q-1.443 0-2.182-.774-.74-.792-.74-2.358v-4.524h-1.724V31.63h1.724v-2.341l1.778-.475v2.816h2.464v1.372h-2.464v4.365q0 .986.352 1.408.352.423 1.021.423.334 0 .581-.053.264-.07.475-.159v1.444q-.264.105-.616.158-.353.07-.669.07m2.944-.158v-8.87h1.778v8.87zm-.141-10.718v-1.848h2.059v1.848zm8.325 10.876q-1.32 0-2.288-.545a3.83 3.83 0 0 1-1.496-1.584q-.528-1.04-.528-2.464 0-1.425.528-2.447a3.7 3.7 0 0 1 1.496-1.584q.969-.563 2.288-.563 1.32 0 2.288.563a3.65 3.65 0 0 1 1.514 1.584q.546 1.02.546 2.447 0 1.425-.546 2.464a3.8 3.8 0 0 1-1.514 1.584q-.968.545-2.288.545m0-1.39q1.162 0 1.848-.81t.687-2.393-.687-2.376q-.685-.81-1.848-.81-1.143 0-1.83.81-.687.792-.686 2.376 0 1.584.668 2.393.687.81 1.848.81m6.425 1.232v-6.74q0-.511-.052-1.04a36 36 0 0 0-.088-1.09h1.724l.159 1.865h-.211q.405-.985 1.249-1.496.845-.528 1.954-.528 1.566 0 2.358.863.81.861.81 2.675V40.5h-1.778v-5.386q0-1.179-.475-1.69-.457-.527-1.408-.527-1.126 0-1.795.704-.669.686-.669 1.865V40.5zM79.202 245.5v-12.408h1.83v10.842h6.09v1.566zm12.95.158q-1.18 0-2.06-.545-.88-.546-1.372-1.584-.475-1.038-.475-2.464 0-1.443.475-2.464.492-1.021 1.373-1.567.88-.563 2.059-.563 1.161 0 2.024.581.862.58 1.144 1.584h-.194l.176-2.006h1.725l-.106 1.091a16 16 0 0 0-.035 1.038v6.741H95.11v-1.971h.193a2.72 2.72 0 0 1-1.162 1.566q-.861.563-1.988.563m.44-1.39q1.144 0 1.83-.81.704-.809.704-2.393t-.704-2.376q-.686-.81-1.83-.81-1.163 0-1.866.81-.686.792-.686 2.376t.686 2.393q.687.81 1.866.81m6.888 1.232v-6.741q0-.51-.053-1.038a34 34 0 0 0-.088-1.091h1.725l.158 1.865h-.211q.405-.986 1.25-1.496.844-.528 1.953-.528 1.567 0 2.359.863.809.862.809 2.675v5.491h-1.777v-5.386q0-1.179-.475-1.689-.459-.528-1.408-.528-1.127 0-1.796.704-.668.686-.668 1.865v5.034zm14.428 3.942a8 8 0 0 1-2.182-.281 5.6 5.6 0 0 1-1.743-.845l.44-1.302q.546.37 1.074.58.528.229 1.109.335.58.105 1.196.105 1.268 0 1.901-.651.651-.633.651-1.848v-2.376h.176a2.73 2.73 0 0 1-1.161 1.567q-.862.563-2.007.563-1.214 0-2.112-.528a3.7 3.7 0 0 1-1.372-1.531q-.476-1.003-.476-2.359 0-1.355.476-2.341.493-.985 1.372-1.513.899-.546 2.112-.546 1.163 0 2.007.581.862.563 1.144 1.549l-.159-.141.159-1.83h1.725a17 17 0 0 0-.141 2.129v6.565q0 2.006-1.074 3.062-1.056 1.056-3.115 1.056m-.123-5.544q1.161 0 1.848-.792.704-.792.704-2.235t-.704-2.217q-.687-.775-1.848-.775-1.197 0-1.901.775-.686.774-.686 2.217t.686 2.235q.704.792 1.901.792m10.055 1.76q-1.602 0-2.411-.862-.792-.88-.792-2.693v-5.473h1.777v5.438q0 1.109.458 1.637.457.528 1.39.528 1.056 0 1.707-.704t.652-1.866v-5.033h1.777v8.87h-1.725v-1.901h.229q-.369.986-1.179 1.531-.81.528-1.883.528m11.263 0q-2.147 0-3.38-1.214-1.232-1.215-1.232-3.362 0-1.39.528-2.428a3.95 3.95 0 0 1 1.496-1.602q.969-.58 2.236-.581 1.25 0 2.094.528t1.285 1.496q.44.951.44 2.253v.563h-6.688v-1.021h5.473l-.299.229q0-1.32-.598-2.041-.581-.74-1.69-.74-1.232 0-1.901.863-.668.844-.668 2.341v.176q0 1.566.756 2.358.775.792 2.183.792.774 0 1.443-.211a4 4 0 0 0 1.302-.739l.581 1.214a4.3 4.3 0 0 1-1.496.845 6 6 0 0 1-1.865.281"/></svg>