<svg xmlns="http://www.w3.org/2000/svg" width="1036" height="749" fill="none" viewBox="0 0 1036 749">
    <circle cx="515.035" cy="367.526" r="329.365" class="w1" stroke-dasharray="2 2"/>
    <circle cx="515.461" cy="367.953" r="250.522" class="w2" stroke-dasharray="2 2"/>
    <circle cx="515.461" cy="367.952" r="156.761" class="w3" stroke-dasharray="2 2"/>
    <path class="w8" d="M516.707 1.27a1 1 0 0 0-1.414 0l-6.364 6.363a1 1 0 1 0 1.414 1.415L516 3.39l5.657 5.657a1 1 0 1 0 1.414-1.415l-6.364-6.364Zm-1.414 328.414a1 1 0 0 0 1.414 0l6.364-6.364a1 1 0 1 0-1.414-1.415L516 327.562l-5.657-5.657a1 1 0 0 0-1.414 1.415l6.364 6.364ZM516 1.977h-1v327h2v-327h-1Z"/>
    <path class="w5" stroke-dasharray="2 2" d="M845 367.477H186M515.5 696.977v-659M281.974 599.972 747.365 134.58M283.532 135.431l463.687 463.686"/>
    <path class="w8" d="M869.094 467.135c-.997 0-1.901-.123-2.71-.37a6.663 6.663 0 0 1-2.112-1.091l.616-1.443c.399.305.809.557 1.232.757.434.199.891.352 1.373.457a8.54 8.54 0 0 0 1.601.141c.986 0 1.707-.176 2.165-.528.469-.352.704-.815.704-1.39 0-.493-.164-.874-.493-1.144-.317-.27-.88-.487-1.689-.651l-1.919-.388c-1.138-.234-1.989-.616-2.552-1.144-.551-.539-.827-1.273-.827-2.2 0-.751.199-1.408.598-1.971.399-.563.951-.997 1.655-1.302.715-.305 1.549-.458 2.499-.458.88 0 1.69.129 2.429.387.739.247 1.361.616 1.865 1.109l-.598 1.391a5.242 5.242 0 0 0-1.69-1.004c-.598-.223-1.279-.334-2.041-.334-.904 0-1.614.188-2.13.563-.504.376-.757.886-.757 1.531 0 .517.159.921.476 1.215.328.293.868.516 1.619.669l1.918.369c1.185.247 2.059.628 2.623 1.144.563.505.844 1.203.844 2.095 0 .715-.193 1.343-.58 1.883-.376.539-.916.962-1.62 1.267-.704.293-1.537.44-2.499.44Zm10.592 0c-.88 0-1.643-.182-2.288-.546a3.819 3.819 0 0 1-1.496-1.584c-.352-.692-.528-1.513-.528-2.464 0-.95.176-1.766.528-2.446a3.692 3.692 0 0 1 1.496-1.584c.645-.376 1.408-.563 2.288-.563.88 0 1.643.187 2.288.563a3.663 3.663 0 0 1 1.514 1.584c.363.68.545 1.496.545 2.446 0 .951-.182 1.772-.545 2.464a3.786 3.786 0 0 1-1.514 1.584c-.645.364-1.408.546-2.288.546Zm0-1.39c.774 0 1.39-.27 1.848-.81.458-.54.686-1.338.686-2.394s-.228-1.848-.686-2.376c-.458-.539-1.074-.809-1.848-.809-.763 0-1.373.27-1.83.809-.458.528-.687 1.32-.687 2.376 0 1.056.223 1.854.669 2.394.458.54 1.074.81 1.848.81Zm10.315 1.39c-.892 0-1.672-.182-2.341-.546a3.87 3.87 0 0 1-1.531-1.601c-.352-.704-.528-1.537-.528-2.499 0-.951.181-1.766.545-2.447a3.684 3.684 0 0 1 1.531-1.549c.657-.363 1.432-.545 2.324-.545.575 0 1.132.099 1.672.299.539.188.985.458 1.337.81l-.581 1.249a3.183 3.183 0 0 0-1.108-.704 3.22 3.22 0 0 0-1.197-.246c-.845 0-1.508.27-1.989.809-.481.54-.722 1.32-.722 2.341 0 1.033.241 1.825.722 2.376.481.552 1.144.827 1.989.827.375 0 .768-.07 1.179-.211a3.229 3.229 0 0 0 1.126-.721l.581 1.249c-.364.352-.821.628-1.373.827a4.94 4.94 0 0 1-1.636.282Zm4.893-.158v-8.871h1.777v8.871h-1.777Zm-.141-10.719v-1.848h2.059v1.848h-2.059Zm7.92 10.877c-.786 0-1.472-.182-2.059-.546-.586-.363-1.044-.891-1.373-1.584-.316-.692-.475-1.513-.475-2.464 0-.962.159-1.783.475-2.464.329-.68.787-1.202 1.373-1.566.587-.376 1.273-.563 2.059-.563.775 0 1.449.193 2.024.581.575.387.957.915 1.144 1.584h-.193l.176-2.007h1.725l-.106 1.091c-.023.352-.035.698-.035 1.039v6.741h-1.778v-1.972h.194a2.726 2.726 0 0 1-1.162 1.567c-.575.375-1.238.563-1.989.563Zm.44-1.39c.763 0 1.373-.27 1.831-.81.469-.54.704-1.338.704-2.394s-.235-1.848-.704-2.376c-.458-.539-1.068-.809-1.831-.809-.774 0-1.396.27-1.865.809-.458.528-.687 1.32-.687 2.376 0 1.056.229 1.854.687 2.394.457.54 1.079.81 1.865.81Zm6.889 1.232v-12.954h1.777v12.954h-1.777Zm12.471.158c-.786 0-1.472-.182-2.059-.546-.586-.363-1.044-.891-1.373-1.584-.316-.692-.475-1.513-.475-2.464 0-.962.159-1.783.475-2.464.329-.68.787-1.202 1.373-1.566.587-.376 1.273-.563 2.059-.563.775 0 1.449.193 2.024.581.575.387.957.915 1.144 1.584h-.193l.176-2.007h1.725l-.106 1.091c-.023.352-.035.698-.035 1.039v6.741h-1.778v-1.972h.194a2.726 2.726 0 0 1-1.162 1.567c-.575.375-1.238.563-1.989.563Zm.44-1.39c.763 0 1.373-.27 1.831-.81.469-.54.704-1.338.704-2.394s-.235-1.848-.704-2.376c-.458-.539-1.068-.809-1.831-.809-.774 0-1.396.27-1.865.809-.458.528-.687 1.32-.687 2.376 0 1.056.229 1.854.687 2.394.457.54 1.079.81 1.865.81Zm6.889 1.232v-8.871h1.777v8.871h-1.777Zm-.141-10.719v-1.848h2.059v1.848h-2.059Zm7.92 10.877c-.774 0-1.461-.182-2.059-.546-.587-.363-1.044-.891-1.373-1.584-.317-.692-.475-1.513-.475-2.464 0-.962.158-1.783.475-2.464.329-.68.786-1.202 1.373-1.566.598-.376 1.285-.563 2.059-.563.763 0 1.432.193 2.007.581.586.375.973.891 1.161 1.548h-.211v-6.054h1.778v12.954h-1.76v-2.007h.211a2.83 2.83 0 0 1-1.162 1.584c-.575.387-1.249.581-2.024.581Zm.44-1.39c.763 0 1.379-.27 1.848-.81.47-.54.704-1.338.704-2.394s-.234-1.848-.704-2.376c-.469-.539-1.085-.809-1.848-.809-.774 0-1.396.27-1.865.809-.458.528-.687 1.32-.687 2.376 0 1.056.229 1.854.687 2.394.469.54 1.091.81 1.865.81Zm11.581 5.033v-10.542c0-.341-.018-.687-.053-1.039a36.693 36.693 0 0 0-.088-1.091h1.725l.176 2.007h-.194a2.772 2.772 0 0 1 1.126-1.584c.575-.388 1.256-.581 2.042-.581.786 0 1.473.187 2.059.563.587.364 1.039.886 1.355 1.566.329.681.493 1.502.493 2.464 0 .951-.164 1.772-.493 2.464-.316.693-.768 1.221-1.355 1.584-.586.364-1.273.546-2.059.546-.774 0-1.449-.188-2.024-.563a2.768 2.768 0 0 1-1.126-1.567h.193v5.773h-1.777Zm4.294-5.033c.774 0 1.39-.27 1.848-.81.469-.54.704-1.338.704-2.394s-.235-1.848-.704-2.376c-.458-.539-1.074-.809-1.848-.809s-1.396.27-1.866.809c-.457.528-.686 1.32-.686 2.376 0 1.056.229 1.854.686 2.394.47.54 1.092.81 1.866.81Zm10.232 1.39c-.88 0-1.642-.182-2.288-.546a3.819 3.819 0 0 1-1.496-1.584c-.352-.692-.528-1.513-.528-2.464 0-.95.176-1.766.528-2.446a3.692 3.692 0 0 1 1.496-1.584c.646-.376 1.408-.563 2.288-.563.88 0 1.643.187 2.288.563a3.663 3.663 0 0 1 1.514 1.584c.364.68.545 1.496.545 2.446 0 .951-.181 1.772-.545 2.464a3.786 3.786 0 0 1-1.514 1.584c-.645.364-1.408.546-2.288.546Zm0-1.39c.775 0 1.391-.27 1.848-.81.458-.54.687-1.338.687-2.394s-.229-1.848-.687-2.376c-.457-.539-1.073-.809-1.848-.809-.762 0-1.373.27-1.83.809-.458.528-.687 1.32-.687 2.376 0 1.056.223 1.854.669 2.394.458.54 1.074.81 1.848.81Zm6.425 1.232v-12.954h1.778v12.954h-1.778Zm4.383 0v-8.871h1.778v8.871h-1.778Zm-.141-10.719v-1.848h2.059v1.848h-2.059Zm8.413 10.877c-.891 0-1.672-.182-2.34-.546a3.88 3.88 0 0 1-1.532-1.601c-.352-.704-.528-1.537-.528-2.499 0-.951.182-1.766.546-2.447a3.684 3.684 0 0 1 1.531-1.549c.657-.363 1.432-.545 2.323-.545a4.77 4.77 0 0 1 1.672.299c.54.188.986.458 1.338.81l-.581 1.249a3.178 3.178 0 0 0-1.109-.704 3.211 3.211 0 0 0-1.196-.246c-.845 0-1.508.27-1.989.809-.481.54-.722 1.32-.722 2.341 0 1.033.241 1.825.722 2.376.481.552 1.144.827 1.989.827.375 0 .768-.07 1.179-.211.41-.152.786-.393 1.126-.721l.581 1.249c-.364.352-.821.628-1.373.827a4.945 4.945 0 0 1-1.637.282Zm4.894-.158v-8.871h1.777v8.871h-1.777Zm-.141-10.719v-1.848h2.059v1.848h-2.059Zm8.624 10.877c-1.431 0-2.558-.405-3.379-1.214-.821-.81-1.232-1.931-1.232-3.362 0-.927.176-1.737.528-2.429.364-.692.862-1.226 1.496-1.601.645-.388 1.39-.581 2.235-.581.833 0 1.531.176 2.095.528.563.352.991.85 1.284 1.496.294.633.438 1.384.438 2.253v.563h-6.686v-1.021h5.474l-.299.229c0-.88-.2-1.561-.599-2.042-.387-.493-.95-.739-1.689-.739-.821 0-1.455.287-1.901.862-.446.564-.669 1.344-.669 2.341v.176c0 1.044.253 1.831.757 2.359.516.528 1.244.792 2.182.792.517 0 .998-.071 1.444-.212a4.044 4.044 0 0 0 1.302-.739l.581 1.215a4.327 4.327 0 0 1-1.496.844 6.081 6.081 0 0 1-1.866.282Zm8.555 0c-.74 0-1.42-.094-2.04-.282-.63-.187-1.14-.451-1.55-.792l.54-1.214c.44.328.92.575 1.45.739.52.164 1.06.247 1.61.247.65 0 1.14-.112 1.47-.335.32-.235.49-.551.49-.95a.947.947 0 0 0-.32-.739c-.2-.188-.53-.329-1-.423l-1.69-.334c-.75-.165-1.32-.446-1.71-.845-.39-.399-.58-.909-.58-1.531 0-.528.14-.998.42-1.408.3-.411.71-.734 1.24-.968.53-.235 1.16-.352 1.88-.352.66 0 1.27.094 1.83.281a3.84 3.84 0 0 1 1.41.81l-.57 1.179c-.36-.305-.77-.54-1.23-.704a3.85 3.85 0 0 0-1.39-.264c-.66 0-1.14.123-1.46.37-.32.246-.47.569-.47.968 0 .305.09.557.28.757.2.187.51.334.93.44l1.69.334c.8.164 1.4.434 1.79.81.4.375.6.88.6 1.513 0 .552-.15 1.033-.45 1.443-.31.411-.73.722-1.27.933-.54.211-1.18.317-1.9.317Z"/>
    <path class="w7" d="M710.413 745.135c-1.267 0-2.346-.258-3.238-.774a5.19 5.19 0 0 1-2.059-2.2c-.469-.963-.704-2.095-.704-3.397 0-1.303.235-2.429.704-3.379a5.178 5.178 0 0 1 2.059-2.2c.892-.517 1.971-.775 3.238-.775.88 0 1.667.129 2.359.387a5.257 5.257 0 0 1 1.813 1.127l-.634 1.461c-.563-.482-1.115-.828-1.654-1.039-.528-.211-1.144-.317-1.848-.317-1.338 0-2.359.411-3.063 1.232-.704.822-1.056 1.989-1.056 3.503 0 1.513.352 2.687 1.056 3.52.704.821 1.725 1.232 3.063 1.232.704 0 1.32-.106 1.848-.317.539-.211 1.091-.563 1.654-1.056l.634 1.461a5.485 5.485 0 0 1-1.813 1.144c-.692.258-1.479.387-2.359.387Zm9.494 0c-.88 0-1.643-.182-2.288-.546a3.819 3.819 0 0 1-1.496-1.584c-.352-.692-.528-1.513-.528-2.464 0-.95.176-1.766.528-2.446a3.692 3.692 0 0 1 1.496-1.584c.645-.376 1.408-.563 2.288-.563.88 0 1.643.187 2.288.563a3.663 3.663 0 0 1 1.514 1.584c.363.68.545 1.496.545 2.446 0 .951-.182 1.772-.545 2.464a3.786 3.786 0 0 1-1.514 1.584c-.645.364-1.408.546-2.288.546Zm0-1.39c.775 0 1.391-.27 1.848-.81.458-.54.687-1.338.687-2.394s-.229-1.848-.687-2.376c-.457-.539-1.073-.809-1.848-.809-.763 0-1.373.27-1.83.809-.458.528-.687 1.32-.687 2.376 0 1.056.223 1.854.669 2.394.458.54 1.074.81 1.848.81Zm9.47 1.39c-.739 0-1.42-.094-2.042-.282-.622-.187-1.138-.451-1.549-.792l.546-1.214c.434.328.915.575 1.443.739a5.43 5.43 0 0 0 1.619.247c.646 0 1.133-.112 1.461-.335.329-.235.493-.551.493-.95a.941.941 0 0 0-.317-.739c-.199-.188-.534-.329-1.003-.423l-1.69-.334c-.75-.165-1.32-.446-1.707-.845-.387-.399-.581-.909-.581-1.531 0-.528.141-.998.423-1.408.293-.411.704-.734 1.232-.968.54-.235 1.167-.352 1.883-.352.657 0 1.267.094 1.83.281.564.188 1.033.458 1.408.81l-.563 1.179a3.99 3.99 0 0 0-1.232-.704 3.842 3.842 0 0 0-1.39-.264c-.657 0-1.144.123-1.461.37a1.167 1.167 0 0 0-.475.968c0 .305.094.557.281.757.2.187.511.334.933.44l1.69.334c.798.164 1.396.434 1.795.81.399.375.598.88.598 1.513 0 .552-.152 1.033-.457 1.443-.305.411-.728.722-1.267.933-.54.211-1.174.317-1.901.317Zm9.084 0c-.962 0-1.689-.258-2.182-.774-.493-.528-.739-1.315-.739-2.359v-4.523h-1.725v-1.373h1.725v-2.341l1.777-.475v2.816h2.464v1.373h-2.464v4.365c0 .657.118 1.126.352 1.408.235.281.575.422 1.021.422.223 0 .417-.017.581-.053a3.72 3.72 0 0 0 .475-.158v1.443a2.774 2.774 0 0 1-.616.159c-.234.046-.457.07-.669.07Zm11.438 0c-.88 0-1.642-.182-2.288-.546a3.819 3.819 0 0 1-1.496-1.584c-.352-.692-.528-1.513-.528-2.464 0-.95.176-1.766.528-2.446a3.692 3.692 0 0 1 1.496-1.584c.646-.376 1.408-.563 2.288-.563.88 0 1.643.187 2.288.563a3.663 3.663 0 0 1 1.514 1.584c.364.68.546 1.496.546 2.446 0 .951-.182 1.772-.546 2.464a3.786 3.786 0 0 1-1.514 1.584c-.645.364-1.408.546-2.288.546Zm0-1.39c.775 0 1.391-.27 1.848-.81.458-.54.687-1.338.687-2.394s-.229-1.848-.687-2.376c-.457-.539-1.073-.809-1.848-.809-.762 0-1.372.27-1.83.809-.458.528-.686 1.32-.686 2.376 0 1.056.222 1.854.668 2.394.458.54 1.074.81 1.848.81Zm6.867 1.232v-7.498h-1.724v-1.373h2.217l-.493.458v-1.408c0-1.045.264-1.837.792-2.376.528-.552 1.303-.827 2.324-.827.246 0 .504.017.774.052.27.036.493.094.669.176v1.444a2.404 2.404 0 0 0-.528-.141 2.682 2.682 0 0 0-.616-.071 1.74 1.74 0 0 0-.88.212c-.247.129-.44.328-.581.598-.129.27-.194.616-.194 1.038v1.197l-.264-.352h2.676v1.373h-2.394v7.498h-1.778Zm10.352 0v-12.954h1.778v12.954h-1.778Zm4.383 0v-8.871h1.777v8.871h-1.777Zm-.141-10.719v-1.848h2.059v1.848h-2.059Zm7.128 10.719-3.801-8.871h1.901l2.992 7.41h-.511l3.045-7.41h1.813l-3.819 8.871h-1.62Zm6.849 0v-8.871h1.777v8.871h-1.777Zm-.141-10.719v-1.848h2.059v1.848h-2.059Zm4.524 10.719v-6.741c0-.341-.018-.687-.053-1.039a36.693 36.693 0 0 0-.088-1.091h1.725l.158 1.866h-.211c.27-.657.686-1.156 1.249-1.496.564-.352 1.215-.528 1.954-.528 1.044 0 1.83.287 2.358.862.54.575.81 1.467.81 2.675v5.492h-1.778v-5.386c0-.786-.158-1.349-.475-1.69-.305-.352-.774-.528-1.408-.528-.751 0-1.349.235-1.795.704-.446.458-.669 1.08-.669 1.866v5.034h-1.777Zm14.428 3.942a7.923 7.923 0 0 1-2.183-.282 5.582 5.582 0 0 1-1.742-.844l.44-1.303c.364.247.721.44 1.073.581.352.152.722.264 1.109.334.387.071.786.106 1.197.106.845 0 1.478-.217 1.901-.651.434-.423.651-1.039.651-1.848v-2.376h.176a2.724 2.724 0 0 1-1.162 1.566c-.575.376-1.243.563-2.006.563-.81 0-1.514-.176-2.112-.528a3.702 3.702 0 0 1-1.373-1.531c-.317-.669-.475-1.455-.475-2.358 0-.904.158-1.684.475-2.341.329-.657.786-1.162 1.373-1.514.598-.363 1.302-.545 2.112-.545.774 0 1.443.193 2.006.581.575.375.957.891 1.144 1.548l-.158-.14.158-1.831h1.725a16.834 16.834 0 0 0-.141 2.13v6.565c0 1.337-.357 2.358-1.073 3.062-.704.704-1.743 1.056-3.115 1.056Zm-.124-5.544c.775 0 1.391-.264 1.848-.792.47-.528.704-1.273.704-2.235s-.234-1.702-.704-2.218c-.457-.516-1.073-.774-1.848-.774-.797 0-1.431.258-1.9.774-.458.516-.687 1.256-.687 2.218s.229 1.707.687 2.235c.469.528 1.103.792 1.9.792ZM862.895 212.135c-.997 0-1.901-.123-2.71-.37a6.663 6.663 0 0 1-2.112-1.091l.616-1.443c.398.305.809.557 1.232.757a6.72 6.72 0 0 0 1.372.457 8.56 8.56 0 0 0 1.602.141c.986 0 1.707-.176 2.165-.528.469-.352.704-.815.704-1.39 0-.493-.165-.874-.493-1.144-.317-.27-.88-.487-1.69-.651l-1.918-.388c-1.138-.234-1.989-.616-2.552-1.144-.552-.539-.827-1.273-.827-2.2 0-.751.199-1.408.598-1.971.399-.563.951-.997 1.655-1.302.715-.305 1.548-.458 2.499-.458.88 0 1.689.129 2.429.387.739.247 1.361.616 1.865 1.109l-.598 1.391a5.242 5.242 0 0 0-1.69-1.004c-.598-.223-1.279-.334-2.041-.334-.904 0-1.614.188-2.13.563-.505.376-.757.886-.757 1.531 0 .517.159.921.475 1.215.329.293.869.516 1.62.669l1.918.369c1.185.247 2.059.628 2.622 1.144.564.505.845 1.203.845 2.095 0 .715-.193 1.343-.581 1.883-.375.539-.915.962-1.619 1.267-.704.293-1.537.44-2.499.44Zm10.188 0c-.962 0-1.689-.258-2.182-.774-.493-.528-.739-1.315-.739-2.359v-4.523h-1.725v-1.373h1.725v-2.341l1.777-.475v2.816h2.464v1.373h-2.464v4.365c0 .657.118 1.126.352 1.408.235.281.575.422 1.021.422.223 0 .417-.017.581-.053a3.72 3.72 0 0 0 .475-.158v1.443a2.774 2.774 0 0 1-.616.159c-.235.046-.458.07-.669.07Zm2.944-.158v-8.871h1.778v8.871h-1.778Zm-.14-10.719v-1.848h2.059v1.848h-2.059Zm8.518 14.661a7.92 7.92 0 0 1-2.182-.282 5.582 5.582 0 0 1-1.742-.844l.44-1.303c.363.247.721.44 1.073.581.352.152.722.264 1.109.334.387.071.786.106 1.197.106.845 0 1.478-.217 1.901-.651.434-.423.651-1.039.651-1.848v-2.376h.176a2.724 2.724 0 0 1-1.162 1.566c-.575.376-1.244.563-2.006.563-.81 0-1.514-.176-2.112-.528a3.702 3.702 0 0 1-1.373-1.531c-.317-.669-.475-1.455-.475-2.358 0-.904.158-1.684.475-2.341.329-.657.786-1.162 1.373-1.514.598-.363 1.302-.545 2.112-.545.774 0 1.443.193 2.006.581.575.375.956.891 1.144 1.548l-.158-.14.158-1.831h1.725c-.047.364-.082.728-.106 1.091-.023.352-.035.698-.035 1.039v6.565c0 1.337-.358 2.358-1.073 3.062-.704.704-1.743 1.056-3.116 1.056Zm-.123-5.544c.775 0 1.391-.264 1.848-.792.47-.528.704-1.273.704-2.235s-.234-1.702-.704-2.218c-.457-.516-1.073-.774-1.848-.774-.798 0-1.431.258-1.901.774-.457.516-.686 1.256-.686 2.218s.229 1.707.686 2.235c.47.528 1.103.792 1.901.792Zm6.905 1.602v-6.741c0-.341-.018-.687-.053-1.039a33.615 33.615 0 0 0-.088-1.091h1.725l.158 1.866h-.211c.246-.646.622-1.144 1.126-1.496.517-.352 1.133-.528 1.848-.528.728 0 1.32.176 1.778.528.469.34.792.868.968 1.584h-.282a3.04 3.04 0 0 1 1.197-1.531c.563-.388 1.215-.581 1.954-.581.985 0 1.725.287 2.217.862.493.575.74 1.467.74 2.675v5.492h-1.778v-5.404c0-.774-.135-1.331-.405-1.672-.258-.352-.68-.528-1.267-.528-.681 0-1.22.235-1.619.704-.399.47-.599 1.103-.599 1.901v4.999h-1.777v-5.404c0-.774-.135-1.331-.405-1.672-.258-.352-.681-.528-1.267-.528-.681 0-1.215.235-1.602.704-.387.47-.581 1.103-.581 1.901v4.999h-1.777Zm19.02.158c-.786 0-1.473-.182-2.059-.546-.587-.363-1.044-.891-1.373-1.584-.317-.692-.475-1.513-.475-2.464 0-.962.158-1.783.475-2.464.329-.68.786-1.202 1.373-1.566.586-.376 1.273-.563 2.059-.563.774 0 1.449.193 2.024.581.575.387.956.915 1.144 1.584h-.194l.176-2.007h1.725l-.105 1.091c-.024.352-.036.698-.036 1.039v6.741h-1.777v-1.972h.193a2.724 2.724 0 0 1-1.161 1.567c-.575.375-1.238.563-1.989.563Zm.44-1.39c.763 0 1.373-.27 1.83-.81.47-.54.704-1.338.704-2.394s-.234-1.848-.704-2.376c-.457-.539-1.067-.809-1.83-.809-.774 0-1.396.27-1.866.809-.457.528-.686 1.32-.686 2.376 0 1.056.229 1.854.686 2.394.458.54 1.08.81 1.866.81Zm14.977 1.39c-.786 0-1.472-.182-2.059-.546-.587-.363-1.044-.891-1.373-1.584-.317-.692-.475-1.513-.475-2.464 0-.962.158-1.783.475-2.464.329-.68.786-1.202 1.373-1.566.587-.376 1.273-.563 2.059-.563.775 0 1.449.193 2.024.581.575.387.956.915 1.144 1.584h-.193l.176-2.007h1.724l-.105 1.091c-.024.352-.035.698-.035 1.039v6.741h-1.778v-1.972h.194a2.726 2.726 0 0 1-1.162 1.567c-.575.375-1.238.563-1.989.563Zm.44-1.39c.763 0 1.373-.27 1.831-.81.469-.54.704-1.338.704-2.394s-.235-1.848-.704-2.376c-.458-.539-1.068-.809-1.831-.809-.774 0-1.396.27-1.865.809-.458.528-.687 1.32-.687 2.376 0 1.056.229 1.854.687 2.394.457.54 1.079.81 1.865.81Zm6.888 1.232v-6.741c0-.341-.017-.687-.052-1.039a36.693 36.693 0 0 0-.088-1.091h1.724l.159 1.866h-.211c.269-.657.686-1.156 1.249-1.496.563-.352 1.215-.528 1.954-.528 1.044 0 1.83.287 2.358.862.54.575.81 1.467.81 2.675v5.492h-1.778v-5.386c0-.786-.158-1.349-.475-1.69-.305-.352-.774-.528-1.408-.528-.751 0-1.349.235-1.795.704-.446.458-.669 1.08-.669 1.866v5.034h-1.778Zm13.83.158c-.774 0-1.461-.182-2.059-.546-.587-.363-1.044-.891-1.373-1.584-.317-.692-.475-1.513-.475-2.464 0-.962.158-1.783.475-2.464.329-.68.786-1.202 1.373-1.566.598-.376 1.285-.563 2.059-.563.763 0 1.431.193 2.006.581.587.375.974.891 1.162 1.548h-.211v-6.054h1.777v12.954h-1.76v-2.007h.212a2.83 2.83 0 0 1-1.162 1.584c-.575.387-1.25.581-2.024.581Zm.44-1.39c.763 0 1.379-.27 1.848-.81.469-.54.704-1.338.704-2.394s-.235-1.848-.704-2.376c-.469-.539-1.085-.809-1.848-.809-.774 0-1.396.27-1.866.809-.457.528-.686 1.32-.686 2.376 0 1.056.229 1.854.686 2.394.47.54 1.092.81 1.866.81Zm10.542 5.121c-.188 0-.405-.017-.651-.053a2.524 2.524 0 0 1-.669-.176v-1.443c.153.047.323.088.51.123.176.047.347.071.511.071.457 0 .804-.147 1.038-.44.247-.282.37-.751.37-1.408v-9.434h1.777v9.557c0 1.056-.234 1.854-.704 2.394-.469.539-1.196.809-2.182.809Zm.95-14.608v-1.848h2.077v1.848h-2.077Zm7.622 10.877c-1.068 0-1.872-.288-2.412-.862-.528-.587-.792-1.485-.792-2.693v-5.474h1.778v5.439c0 .739.153 1.284.458 1.636.305.352.768.528 1.39.528.704 0 1.273-.234 1.707-.704.434-.469.651-1.091.651-1.865v-5.034h1.778v8.871h-1.725v-1.901h.229c-.246.657-.639 1.167-1.179 1.531-.54.352-1.168.528-1.883.528Zm10.559 0c-.775 0-1.461-.182-2.06-.546-.586-.363-1.044-.891-1.372-1.584-.317-.692-.476-1.513-.476-2.464 0-.962.159-1.783.476-2.464.328-.68.786-1.202 1.372-1.566.599-.376 1.285-.563 2.06-.563.762 0 1.431.193 2.006.581.587.375.974.891 1.162 1.548h-.212v-6.054h1.778v12.954h-1.76v-2.007h.211a2.828 2.828 0 0 1-1.161 1.584c-.575.387-1.25.581-2.024.581Zm.44-1.39c.762 0 1.378-.27 1.848-.81.469-.54.704-1.338.704-2.394s-.235-1.848-.704-2.376c-.47-.539-1.086-.809-1.848-.809-.775 0-1.397.27-1.866.809-.458.528-.686 1.32-.686 2.376 0 1.056.228 1.854.686 2.394.469.54 1.091.81 1.866.81Zm10.883 5.174a7.916 7.916 0 0 1-2.182-.282 5.576 5.576 0 0 1-1.743-.844l.44-1.303c.364.247.722.44 1.074.581.352.152.721.264 1.109.334.387.071.786.106 1.196.106.845 0 1.479-.217 1.901-.651.434-.423.651-1.039.651-1.848v-2.376h.176a2.722 2.722 0 0 1-1.161 1.566c-.575.376-1.244.563-2.007.563-.809 0-1.513-.176-2.112-.528a3.7 3.7 0 0 1-1.372-1.531c-.317-.669-.476-1.455-.476-2.358 0-.904.159-1.684.476-2.341.328-.657.786-1.162 1.372-1.514.599-.363 1.303-.545 2.112-.545.775 0 1.444.193 2.007.581.575.375.956.891 1.144 1.548l-.159-.14.159-1.831h1.725a16.839 16.839 0 0 0-.141 2.13v6.565c0 1.337-.358 2.358-1.074 3.062-.704.704-1.742 1.056-3.115 1.056Zm-.123-5.544c.774 0 1.39-.264 1.848-.792.469-.528.704-1.273.704-2.235s-.235-1.702-.704-2.218c-.458-.516-1.074-.774-1.848-.774-.798 0-1.432.258-1.901.774-.458.516-.686 1.256-.686 2.218s.228 1.707.686 2.235c.469.528 1.103.792 1.901.792Zm6.904 1.602v-6.741a10.2 10.2 0 0 0-.053-1.039 31.013 31.013 0 0 0-.088-1.091h1.725l.159 1.866h-.212c.247-.646.622-1.144 1.127-1.496.516-.352 1.132-.528 1.848-.528.725 0 1.315.176 1.775.528.47.34.79.868.97 1.584h-.28c.23-.646.63-1.156 1.2-1.531.56-.388 1.21-.581 1.95-.581.98 0 1.72.287 2.22.862.49.575.74 1.467.74 2.675v5.492h-1.78v-5.404c0-.774-.14-1.331-.41-1.672-.25-.352-.68-.528-1.26-.528-.68 0-1.22.235-1.62.704-.4.47-.6 1.103-.6 1.901v4.999h-1.78v-5.404c0-.774-.13-1.331-.4-1.672-.262-.352-.684-.528-1.271-.528-.68 0-1.214.235-1.601.704-.388.47-.581 1.103-.581 1.901v4.999h-1.778Zm19.721.158c-1.43 0-2.55-.405-3.38-1.214-.82-.81-1.23-1.931-1.23-3.362 0-.927.18-1.737.53-2.429.36-.692.86-1.226 1.5-1.601.64-.388 1.39-.581 2.23-.581.83 0 1.53.176 2.1.528.56.352.99.85 1.28 1.496.29.633.44 1.384.44 2.253v.563h-6.69v-1.021h5.48l-.3.229c0-.88-.2-1.561-.6-2.042-.39-.493-.95-.739-1.69-.739-.82 0-1.46.287-1.9.862-.45.564-.67 1.344-.67 2.341v.176c0 1.044.25 1.831.76 2.359s1.24.792 2.18.792c.51 0 1-.071 1.44-.212.46-.152.89-.399 1.3-.739l.59 1.215c-.42.363-.91.645-1.5.844-.59.188-1.21.282-1.87.282Zm5.51-.158v-6.741c0-.341-.02-.687-.05-1.039l-.09-1.091h1.72l.16 1.866h-.21c.27-.657.69-1.156 1.25-1.496.56-.352 1.22-.528 1.95-.528 1.05 0 1.84.287 2.36.862.54.575.81 1.467.81 2.675v5.492h-1.77v-5.386c0-.786-.16-1.349-.48-1.69-.3-.352-.77-.528-1.41-.528-.75 0-1.35.235-1.79.704-.45.458-.67 1.08-.67 1.866v5.034h-1.78Zm13.88.158c-.96 0-1.69-.258-2.18-.774-.49-.528-.74-1.315-.74-2.359v-4.523h-1.72v-1.373h1.72v-2.341l1.78-.475v2.816h2.46v1.373h-2.46v4.365c0 .657.12 1.126.35 1.408.24.281.58.422 1.02.422.22 0 .42-.017.58-.053.18-.047.34-.099.48-.158v1.443c-.18.071-.38.123-.62.159-.23.046-.46.07-.67.07Z"/>
    <path class="w8" d="m205.413 725.977 5.526-12.408h1.567l5.614 12.408h-1.883l-1.531-3.52.774.492h-7.515l.827-.492-1.531 3.52h-1.848Zm6.283-10.402-2.675 6.318-.423-.404h6.248l-.352.404-2.728-6.318h-.07Zm11.709 10.56c-.891 0-1.672-.182-2.341-.546a3.877 3.877 0 0 1-1.531-1.601c-.352-.704-.528-1.537-.528-2.499 0-.951.182-1.766.546-2.447a3.684 3.684 0 0 1 1.531-1.549c.657-.363 1.432-.545 2.323-.545a4.77 4.77 0 0 1 1.672.299c.54.188.986.458 1.338.81l-.581 1.249a3.178 3.178 0 0 0-1.109-.704 3.212 3.212 0 0 0-1.197-.246c-.844 0-1.507.27-1.988.809-.481.54-.722 1.32-.722 2.341 0 1.033.241 1.825.722 2.376.481.552 1.144.827 1.988.827.376 0 .769-.07 1.18-.211.41-.152.786-.393 1.126-.721l.581 1.249c-.364.352-.821.628-1.373.827a4.945 4.945 0 0 1-1.637.282Zm8.611 0c-.892 0-1.672-.182-2.341-.546a3.877 3.877 0 0 1-1.531-1.601c-.352-.704-.528-1.537-.528-2.499 0-.951.182-1.766.546-2.447a3.684 3.684 0 0 1 1.531-1.549c.657-.363 1.431-.545 2.323-.545.575 0 1.132.099 1.672.299.54.188.986.458 1.338.81l-.581 1.249a3.187 3.187 0 0 0-1.109-.704 3.212 3.212 0 0 0-1.197-.246c-.844 0-1.507.27-1.988.809-.481.54-.722 1.32-.722 2.341 0 1.033.241 1.825.722 2.376.481.552 1.144.827 1.988.827.376 0 .769-.07 1.18-.211.41-.152.786-.393 1.126-.721l.581 1.249c-.364.352-.822.628-1.373.827a4.945 4.945 0 0 1-1.637.282Zm8.523 0c-.88 0-1.643-.182-2.288-.546a3.819 3.819 0 0 1-1.496-1.584c-.352-.692-.528-1.513-.528-2.464 0-.95.176-1.766.528-2.446a3.692 3.692 0 0 1 1.496-1.584c.645-.376 1.408-.563 2.288-.563.88 0 1.643.187 2.288.563a3.663 3.663 0 0 1 1.514 1.584c.363.68.545 1.496.545 2.446 0 .951-.182 1.772-.545 2.464a3.786 3.786 0 0 1-1.514 1.584c-.645.364-1.408.546-2.288.546Zm0-1.39c.775 0 1.391-.27 1.848-.81.458-.54.687-1.338.687-2.394s-.229-1.848-.687-2.376c-.457-.539-1.073-.809-1.848-.809-.763 0-1.373.27-1.83.809-.458.528-.687 1.32-.687 2.376 0 1.056.223 1.854.669 2.394.458.54 1.074.81 1.848.81Zm6.425 1.232v-6.741a10.2 10.2 0 0 0-.053-1.039 31.013 31.013 0 0 0-.088-1.091h1.725l.159 1.866h-.212c.247-.646.622-1.144 1.127-1.496.516-.352 1.132-.528 1.848-.528.727 0 1.32.176 1.777.528.47.34.792.868.968 1.584h-.281a3.029 3.029 0 0 1 1.197-1.531c.563-.388 1.214-.581 1.953-.581.986 0 1.725.287 2.218.862.493.575.739 1.467.739 2.675v5.492h-1.778v-5.404c0-.774-.135-1.331-.404-1.672-.259-.352-.681-.528-1.268-.528-.68 0-1.22.235-1.619.704-.399.47-.598 1.103-.598 1.901v4.999h-1.778v-5.404c0-.774-.135-1.331-.405-1.672-.258-.352-.68-.528-1.267-.528-.68 0-1.214.235-1.601.704-.388.47-.581 1.103-.581 1.901v4.999h-1.778Zm15.624 0v-6.741c0-.341-.018-.687-.053-1.039a36.693 36.693 0 0 0-.088-1.091h1.725l.158 1.866h-.211c.246-.646.622-1.144 1.126-1.496.516-.352 1.132-.528 1.848-.528.728 0 1.32.176 1.778.528.469.34.792.868.968 1.584h-.282a3.04 3.04 0 0 1 1.197-1.531c.563-.388 1.214-.581 1.954-.581.985 0 1.724.287 2.217.862.493.575.739 1.467.739 2.675v5.492h-1.777v-5.404c0-.774-.135-1.331-.405-1.672-.258-.352-.681-.528-1.267-.528-.681 0-1.221.235-1.619.704-.399.47-.599 1.103-.599 1.901v4.999h-1.777v-5.404c0-.774-.135-1.331-.405-1.672-.258-.352-.681-.528-1.267-.528-.681 0-1.215.235-1.602.704-.387.47-.581 1.103-.581 1.901v4.999h-1.777Zm19.425.158c-.88 0-1.643-.182-2.288-.546a3.813 3.813 0 0 1-1.496-1.584c-.352-.692-.528-1.513-.528-2.464 0-.95.176-1.766.528-2.446.352-.692.85-1.22 1.496-1.584.645-.376 1.408-.563 2.288-.563.88 0 1.642.187 2.288.563a3.66 3.66 0 0 1 1.513 1.584c.364.68.546 1.496.546 2.446 0 .951-.182 1.772-.546 2.464a3.784 3.784 0 0 1-1.513 1.584c-.646.364-1.408.546-2.288.546Zm0-1.39c.774 0 1.39-.27 1.848-.81.457-.54.686-1.338.686-2.394s-.229-1.848-.686-2.376c-.458-.539-1.074-.809-1.848-.809-.763 0-1.373.27-1.831.809-.457.528-.686 1.32-.686 2.376 0 1.056.223 1.854.669 2.394.457.54 1.073.81 1.848.81Zm9.821 1.39c-.774 0-1.46-.182-2.059-.546-.587-.363-1.044-.891-1.373-1.584-.316-.692-.475-1.513-.475-2.464 0-.962.159-1.783.475-2.464.329-.68.786-1.202 1.373-1.566.599-.376 1.285-.563 2.059-.563.763 0 1.432.193 2.007.581.586.375.974.891 1.161 1.548h-.211v-6.054h1.778v12.954h-1.76v-2.007h.211a2.83 2.83 0 0 1-1.162 1.584c-.575.387-1.249.581-2.024.581Zm.44-1.39c.763 0 1.379-.27 1.848-.81.47-.54.704-1.338.704-2.394s-.234-1.848-.704-2.376c-.469-.539-1.085-.809-1.848-.809-.774 0-1.396.27-1.865.809-.458.528-.687 1.32-.687 2.376 0 1.056.229 1.854.687 2.394.469.54 1.091.81 1.865.81Zm10.285 1.39c-.786 0-1.472-.182-2.059-.546-.587-.363-1.044-.891-1.373-1.584-.316-.692-.475-1.513-.475-2.464 0-.962.159-1.783.475-2.464.329-.68.786-1.202 1.373-1.566.587-.376 1.273-.563 2.059-.563.775 0 1.449.193 2.024.581.575.387.957.915 1.144 1.584h-.193l.176-2.007h1.725l-.106 1.091c-.024.352-.035.698-.035 1.039v6.741h-1.778v-1.972h.194a2.726 2.726 0 0 1-1.162 1.567c-.575.375-1.238.563-1.989.563Zm.44-1.39c.763 0 1.373-.27 1.831-.81.469-.54.704-1.338.704-2.394s-.235-1.848-.704-2.376c-.458-.539-1.068-.809-1.831-.809-.774 0-1.396.27-1.865.809-.458.528-.687 1.32-.687 2.376 0 1.056.229 1.854.687 2.394.457.54 1.079.81 1.865.81Zm10.338 1.39c-.962 0-1.689-.258-2.182-.774-.493-.528-.739-1.315-.739-2.359v-4.523h-1.725v-1.373h1.725v-2.341l1.777-.475v2.816h2.464v1.373h-2.464v4.365c0 .657.117 1.126.352 1.408.235.281.575.422 1.021.422.223 0 .416-.017.581-.053a3.72 3.72 0 0 0 .475-.158v1.443a2.774 2.774 0 0 1-.616.159c-.235.046-.458.07-.669.07Zm2.944-.158v-8.871h1.778v8.871h-1.778Zm-.14-10.719v-1.848h2.059v1.848h-2.059Zm8.325 10.877c-.88 0-1.643-.182-2.288-.546a3.813 3.813 0 0 1-1.496-1.584c-.352-.692-.528-1.513-.528-2.464 0-.95.176-1.766.528-2.446.352-.692.85-1.22 1.496-1.584.645-.376 1.408-.563 2.288-.563.88 0 1.642.187 2.288.563a3.66 3.66 0 0 1 1.513 1.584c.364.68.546 1.496.546 2.446 0 .951-.182 1.772-.546 2.464a3.784 3.784 0 0 1-1.513 1.584c-.646.364-1.408.546-2.288.546Zm0-1.39c.774 0 1.39-.27 1.848-.81.457-.54.686-1.338.686-2.394s-.229-1.848-.686-2.376c-.458-.539-1.074-.809-1.848-.809-.763 0-1.373.27-1.831.809-.457.528-.686 1.32-.686 2.376 0 1.056.223 1.854.669 2.394.457.54 1.073.81 1.848.81Zm6.425 1.232v-6.741c0-.341-.018-.687-.053-1.039a36.693 36.693 0 0 0-.088-1.091h1.725l.158 1.866h-.211c.27-.657.686-1.156 1.249-1.496.564-.352 1.215-.528 1.954-.528 1.044 0 1.83.287 2.358.862.54.575.81 1.467.81 2.675v5.492h-1.778v-5.386c0-.786-.158-1.349-.475-1.69-.305-.352-.774-.528-1.408-.528-.751 0-1.349.235-1.795.704-.446.458-.669 1.08-.669 1.866v5.034h-1.777Zm13.477.158a7.027 7.027 0 0 1-2.041-.282c-.622-.187-1.138-.451-1.549-.792l.545-1.214c.435.328.916.575 1.444.739a5.425 5.425 0 0 0 1.619.247c.645 0 1.132-.112 1.461-.335a1.11 1.11 0 0 0 .492-.95.94.94 0 0 0-.316-.739c-.2-.188-.534-.329-1.004-.423l-1.689-.334c-.751-.165-1.32-.446-1.707-.845-.388-.399-.581-.909-.581-1.531 0-.528.141-.998.422-1.408.294-.411.704-.734 1.232-.968.54-.235 1.168-.352 1.883-.352.658 0 1.268.094 1.831.281.563.188 1.032.458 1.408.81l-.563 1.179a4.013 4.013 0 0 0-1.232-.704 3.847 3.847 0 0 0-1.391-.264c-.657 0-1.144.123-1.461.37a1.17 1.17 0 0 0-.475.968c0 .305.094.557.282.757.199.187.51.334.933.44l1.689.334c.798.164 1.397.434 1.795.81.399.375.599.88.599 1.513 0 .552-.153 1.033-.458 1.443-.305.411-.727.722-1.267.933-.54.211-1.173.317-1.901.317Zm13.81 0c-.786 0-1.472-.182-2.059-.546-.587-.363-1.044-.891-1.373-1.584-.317-.692-.475-1.513-.475-2.464 0-.962.158-1.783.475-2.464.329-.68.786-1.202 1.373-1.566.587-.376 1.273-.563 2.059-.563.775 0 1.449.193 2.024.581.575.387.956.915 1.144 1.584h-.193l.176-2.007h1.724l-.105 1.091c-.024.352-.035.698-.035 1.039v6.741h-1.778v-1.972h.194a2.726 2.726 0 0 1-1.162 1.567c-.575.375-1.238.563-1.989.563Zm.44-1.39c.763 0 1.373-.27 1.831-.81.469-.54.704-1.338.704-2.394s-.235-1.848-.704-2.376c-.458-.539-1.068-.809-1.831-.809-.774 0-1.396.27-1.865.809-.458.528-.687 1.32-.687 2.376 0 1.056.229 1.854.687 2.394.457.54 1.079.81 1.865.81Zm10.338 1.39c-.962 0-1.69-.258-2.182-.774-.493-.528-.74-1.315-.74-2.359v-4.523h-1.724v-1.373h1.724v-2.341l1.778-.475v2.816h2.464v1.373h-2.464v4.365c0 .657.117 1.126.352 1.408.235.281.575.422 1.021.422.223 0 .416-.017.581-.053a3.72 3.72 0 0 0 .475-.158v1.443a2.789 2.789 0 0 1-.616.159c-.235.046-.458.07-.669.07Zm10.047-.158-3.361-8.871h1.848l2.622 7.392h-.457l2.692-7.392h1.373l2.675 7.392h-.44l2.623-7.392h1.777l-3.379 8.871h-1.619l-2.781-7.533h.827l-2.745 7.533h-1.655Zm16.636.158c-.88 0-1.643-.182-2.288-.546a3.819 3.819 0 0 1-1.496-1.584c-.352-.692-.528-1.513-.528-2.464 0-.95.176-1.766.528-2.446a3.692 3.692 0 0 1 1.496-1.584c.645-.376 1.408-.563 2.288-.563.88 0 1.643.187 2.288.563a3.663 3.663 0 0 1 1.514 1.584c.363.68.545 1.496.545 2.446 0 .951-.182 1.772-.545 2.464a3.786 3.786 0 0 1-1.514 1.584c-.645.364-1.408.546-2.288.546Zm0-1.39c.775 0 1.391-.27 1.848-.81.458-.54.687-1.338.687-2.394s-.229-1.848-.687-2.376c-.457-.539-1.073-.809-1.848-.809-.763 0-1.373.27-1.83.809-.458.528-.687 1.32-.687 2.376 0 1.056.223 1.854.669 2.394.458.54 1.074.81 1.848.81Zm6.39 1.232v-6.671c0-.364-.012-.727-.035-1.091a16.658 16.658 0 0 0-.071-1.109h1.725l.194 2.288h-.282c.117-.551.317-1.009.599-1.373a2.61 2.61 0 0 1 1.02-.809 3.23 3.23 0 0 1 1.285-.264c.188 0 .346.011.475.035.129.012.258.035.388.07l-.018 1.584a1.763 1.763 0 0 0-.528-.14 3.227 3.227 0 0 0-.528-.036c-.516 0-.956.118-1.32.352-.364.223-.64.528-.827.916a2.82 2.82 0 0 0-.282 1.249v4.999h-1.795Zm6.669 0v-12.954h1.778v7.955h.035l3.872-3.872h2.2l-4.681 4.664.017-.792 5.051 4.999h-2.252l-4.207-4.066h-.035v4.066h-1.778ZM6.55 467.135c-1.724 0-3.009-.434-3.854-1.302-.833-.869-1.25-2.154-1.25-3.855v-7.409h1.831v7.374c0 1.197.258 2.1.774 2.71.528.599 1.362.898 2.5.898 1.08 0 1.895-.299 2.446-.898.552-.61.827-1.513.827-2.71v-7.374h1.796v7.409c0 1.701-.429 2.986-1.285 3.855-.857.868-2.118 1.302-3.784 1.302Zm7.75-.158v-6.741c0-.341-.017-.687-.052-1.039a34.188 34.188 0 0 0-.088-1.091h1.725l.158 1.866h-.211c.27-.657.686-1.156 1.25-1.496.563-.352 1.214-.528 1.953-.528 1.044 0 1.83.287 2.359.862.54.575.81 1.467.81 2.675v5.492h-1.778v-5.386c0-.786-.159-1.349-.476-1.69-.305-.352-.774-.528-1.408-.528-.75 0-1.349.235-1.795.704-.446.458-.669 1.08-.669 1.866v5.034h-1.777Zm14.534.158c-1.431 0-2.557-.405-3.379-1.214-.821-.81-1.232-1.931-1.232-3.362 0-.927.176-1.737.528-2.429a3.946 3.946 0 0 1 1.496-1.601c.646-.388 1.39-.581 2.236-.581.832 0 1.53.176 2.094.528.563.352.991.85 1.285 1.496.293.633.44 1.384.44 2.253v.563h-6.688v-1.021h5.473l-.299.229c0-.88-.2-1.561-.598-2.042-.388-.493-.95-.739-1.69-.739-.821 0-1.455.287-1.9.862-.447.564-.67 1.344-.67 2.341v.176c0 1.044.253 1.831.757 2.359.516.528 1.244.792 2.183.792.516 0 .997-.071 1.443-.212a4.037 4.037 0 0 0 1.302-.739l.581 1.215c-.41.363-.91.645-1.496.844a6.077 6.077 0 0 1-1.866.282Zm4.171-.158 4.03-4.999v.845l-3.818-4.717h2.13l2.692 3.467h-.633l2.692-3.467h2.112l-3.784 4.699v-.809l4.013 4.981h-2.13l-2.903-3.714h.633l-2.922 3.714h-2.111Zm10.79 3.801v-10.542c0-.341-.018-.687-.053-1.039a34.482 34.482 0 0 0-.088-1.091h1.725l.176 2.007h-.194a2.77 2.77 0 0 1 1.126-1.584c.575-.388 1.256-.581 2.042-.581.786 0 1.472.187 2.06.563.586.364 1.038.886 1.354 1.566.329.681.493 1.502.493 2.464 0 .951-.164 1.772-.493 2.464-.316.693-.768 1.221-1.355 1.584-.587.364-1.273.546-2.059.546-.774 0-1.45-.188-2.024-.563a2.77 2.77 0 0 1-1.126-1.567h.193v5.773h-1.777Zm4.294-5.033c.774 0 1.39-.27 1.848-.81.47-.54.704-1.338.704-2.394s-.235-1.848-.704-2.376c-.458-.539-1.074-.809-1.848-.809s-1.396.27-1.866.809c-.457.528-.686 1.32-.686 2.376 0 1.056.229 1.854.686 2.394.47.54 1.092.81 1.866.81Zm10.531 1.39c-1.431 0-2.557-.405-3.379-1.214-.821-.81-1.232-1.931-1.232-3.362 0-.927.176-1.737.528-2.429a3.946 3.946 0 0 1 1.496-1.601c.645-.388 1.39-.581 2.235-.581.834 0 1.532.176 2.095.528.563.352.991.85 1.285 1.496.293.633.44 1.384.44 2.253v.563H55.4v-1.021h5.473l-.299.229c0-.88-.2-1.561-.598-2.042-.388-.493-.95-.739-1.69-.739-.821 0-1.455.287-1.9.862-.447.564-.67 1.344-.67 2.341v.176c0 1.044.253 1.831.757 2.359.517.528 1.244.792 2.183.792.516 0 .997-.071 1.443-.212a4.037 4.037 0 0 0 1.302-.739l.581 1.215c-.41.363-.91.645-1.496.844a6.077 6.077 0 0 1-1.866.282Zm9.397 0c-.892 0-1.672-.182-2.34-.546a3.875 3.875 0 0 1-1.532-1.601c-.352-.704-.528-1.537-.528-2.499 0-.951.182-1.766.546-2.447a3.682 3.682 0 0 1 1.53-1.549c.658-.363 1.432-.545 2.324-.545.575 0 1.132.099 1.672.299.54.188.986.458 1.338.81l-.581 1.249a3.184 3.184 0 0 0-1.109-.704 3.217 3.217 0 0 0-1.197-.246c-.845 0-1.508.27-1.989.809-.48.54-.721 1.32-.721 2.341 0 1.033.24 1.825.721 2.376.481.552 1.144.827 1.99.827.375 0 .768-.07 1.178-.211.411-.152.787-.393 1.127-.721l.58 1.249c-.363.352-.82.628-1.372.827a4.945 4.945 0 0 1-1.637.282Zm8.36 0c-.962 0-1.69-.258-2.182-.774-.493-.528-.74-1.315-.74-2.359v-4.523h-1.724v-1.373h1.724v-2.341l1.778-.475v2.816h2.464v1.373h-2.464v4.365c0 .657.117 1.126.352 1.408.235.281.575.422 1.02.422.224 0 .417-.017.582-.053.176-.047.334-.099.475-.158v1.443a2.778 2.778 0 0 1-.616.159c-.235.046-.458.07-.669.07Zm6.959 0c-1.431 0-2.558-.405-3.38-1.214-.82-.81-1.231-1.931-1.231-3.362 0-.927.176-1.737.528-2.429a3.946 3.946 0 0 1 1.496-1.601c.645-.388 1.39-.581 2.235-.581.833 0 1.531.176 2.094.528.564.352.992.85 1.285 1.496.293.633.44 1.384.44 2.253v.563h-6.688v-1.021h5.474l-.3.229c0-.88-.199-1.561-.598-2.042-.387-.493-.95-.739-1.69-.739-.82 0-1.454.287-1.9.862-.446.564-.669 1.344-.669 2.341v.176c0 1.044.252 1.831.757 2.359.516.528 1.244.792 2.182.792.517 0 .998-.071 1.443-.212a4.037 4.037 0 0 0 1.303-.739l.58 1.215c-.41.363-.909.645-1.495.844a6.077 6.077 0 0 1-1.866.282Zm8.904 0c-.775 0-1.461-.182-2.06-.546-.586-.363-1.044-.891-1.372-1.584-.317-.692-.475-1.513-.475-2.464 0-.962.158-1.783.475-2.464.328-.68.786-1.202 1.373-1.566.598-.376 1.284-.563 2.059-.563.763 0 1.431.193 2.006.581.587.375.974.891 1.162 1.548h-.211v-6.054h1.777v12.954h-1.76v-2.007h.211a2.827 2.827 0 0 1-1.161 1.584c-.575.387-1.25.581-2.024.581Zm.44-1.39c.762 0 1.378-.27 1.848-.81.47-.54.704-1.338.704-2.394s-.235-1.848-.704-2.376c-.47-.539-1.086-.809-1.848-.809-.775 0-1.396.27-1.866.809-.457.528-.686 1.32-.686 2.376 0 1.056.229 1.854.686 2.394.47.54 1.091.81 1.866.81Zm15.681 1.39c-1.431 0-2.558-.405-3.379-1.214-.822-.81-1.232-1.931-1.232-3.362 0-.927.176-1.737.528-2.429.364-.692.862-1.226 1.496-1.601.645-.388 1.39-.581 2.235-.581.833 0 1.531.176 2.094.528.564.352.992.85 1.285 1.496.294.633.44 1.384.44 2.253v.563h-6.688v-1.021h5.474l-.299.229c0-.88-.2-1.561-.599-2.042-.387-.493-.95-.739-1.689-.739-.822 0-1.455.287-1.901.862-.446.564-.669 1.344-.669 2.341v.176c0 1.044.252 1.831.757 2.359.516.528 1.244.792 2.182.792.516 0 .998-.071 1.443-.212a4.038 4.038 0 0 0 1.303-.739l.581 1.215c-.411.363-.91.645-1.496.844a6.081 6.081 0 0 1-1.866.282Zm7.992-.158-3.802-8.871h1.901l2.992 7.41h-.511l3.045-7.41h1.813l-3.819 8.871h-1.619Zm10.794.158c-1.432 0-2.558-.405-3.379-1.214-.822-.81-1.232-1.931-1.232-3.362 0-.927.176-1.737.528-2.429a3.938 3.938 0 0 1 1.496-1.601c.645-.388 1.39-.581 2.235-.581.833 0 1.531.176 2.094.528.564.352.992.85 1.285 1.496.293.633.44 1.384.44 2.253v.563h-6.688v-1.021h5.474l-.299.229c0-.88-.2-1.561-.599-2.042-.387-.493-.95-.739-1.689-.739-.822 0-1.455.287-1.901.862-.446.564-.669 1.344-.669 2.341v.176c0 1.044.252 1.831.757 2.359.516.528 1.243.792 2.182.792.516 0 .997-.071 1.443-.212a4.038 4.038 0 0 0 1.303-.739l.581 1.215c-.411.363-.91.645-1.496.844a6.081 6.081 0 0 1-1.866.282Zm5.507-.158v-6.741c0-.341-.018-.687-.053-1.039a33.615 33.615 0 0 0-.088-1.091h1.725l.158 1.866h-.211c.27-.657.687-1.156 1.25-1.496.563-.352 1.214-.528 1.953-.528 1.045 0 1.831.287 2.359.862.539.575.809 1.467.809 2.675v5.492h-1.777v-5.386c0-.786-.159-1.349-.475-1.69-.306-.352-.775-.528-1.408-.528-.751 0-1.35.235-1.796.704-.446.458-.668 1.08-.668 1.866v5.034h-1.778Zm13.882.158c-.962 0-1.689-.258-2.182-.774-.493-.528-.739-1.315-.739-2.359v-4.523h-1.725v-1.373h1.725v-2.341l1.777-.475v2.816h2.464v1.373h-2.464v4.365c0 .657.118 1.126.352 1.408.235.281.575.422 1.021.422.223 0 .417-.017.581-.053a3.72 3.72 0 0 0 .475-.158v1.443a2.774 2.774 0 0 1-.616.159c-.234.046-.457.07-.669.07Zm5.989 0a7.027 7.027 0 0 1-2.041-.282c-.622-.187-1.138-.451-1.549-.792l.546-1.214c.434.328.915.575 1.443.739a5.425 5.425 0 0 0 1.619.247c.645 0 1.132-.112 1.461-.335a1.11 1.11 0 0 0 .493-.95.941.941 0 0 0-.317-.739c-.2-.188-.534-.329-1.003-.423l-1.69-.334c-.751-.165-1.32-.446-1.707-.845-.387-.399-.581-.909-.581-1.531 0-.528.141-.998.422-1.408.294-.411.704-.734 1.232-.968.54-.235 1.168-.352 1.884-.352.657 0 1.267.094 1.83.281.563.188 1.032.458 1.408.81l-.563 1.179a4.013 4.013 0 0 0-1.232-.704 3.847 3.847 0 0 0-1.391-.264c-.657 0-1.144.123-1.46.37a1.168 1.168 0 0 0-.476.968c0 .305.094.557.282.757.199.187.51.334.933.44l1.689.334c.798.164 1.397.434 1.796.81.398.375.598.88.598 1.513 0 .552-.153 1.033-.458 1.443-.305.411-.727.722-1.267.933-.54.211-1.173.317-1.901.317Z"/>
    <path class="w7" d="m708.033 23.977-4.347-12.408h1.901l3.608 10.718h-.652l3.82-10.718h1.39l3.59 10.718h-.598l3.731-10.718h1.795l-4.382 12.408h-1.566l-3.485-10.208h.369l-3.625 10.208h-1.549Zm16.073 0V11.023h1.777v5.966h-.246c.258-.668.674-1.173 1.249-1.513.575-.352 1.238-.528 1.989-.528 1.056 0 1.842.293 2.359.88.516.575.774 1.449.774 2.622v5.527h-1.778v-5.421c0-.763-.152-1.314-.457-1.655-.294-.352-.763-.528-1.408-.528-.751 0-1.355.235-1.813.704-.446.458-.669 1.068-.669 1.83v5.07h-1.777Zm14.533.158c-1.431 0-2.558-.405-3.379-1.214-.821-.81-1.232-1.93-1.232-3.362 0-.927.176-1.737.528-2.429.364-.692.862-1.226 1.496-1.601.645-.388 1.39-.581 2.235-.581.833 0 1.531.176 2.095.528.563.352.991.85 1.284 1.496.294.633.44 1.384.44 2.253v.563h-6.688v-1.021h5.474l-.299.229c0-.88-.2-1.56-.599-2.042-.387-.493-.95-.739-1.689-.739-.822 0-1.455.287-1.901.862-.446.564-.669 1.344-.669 2.341v.176c0 1.044.252 1.83.757 2.359.516.528 1.244.792 2.182.792.517 0 .998-.07 1.444-.212a4.053 4.053 0 0 0 1.302-.739l.581 1.215c-.411.363-.91.645-1.496.844a6.09 6.09 0 0 1-1.866.282Zm5.472-.158v-6.67c0-.365-.012-.728-.035-1.092a16.66 16.66 0 0 0-.071-1.109h1.725l.194 2.288h-.282c.117-.551.317-1.009.599-1.373a2.605 2.605 0 0 1 1.02-.81 3.23 3.23 0 0 1 1.76-.228c.129.012.258.035.388.07l-.018 1.584c-.2-.082-.376-.129-.528-.14a3.296 3.296 0 0 0-.528-.036c-.516 0-.956.118-1.32.352-.364.223-.64.528-.827.916a2.823 2.823 0 0 0-.282 1.25v4.998h-1.795Zm10.65.158c-1.431 0-2.558-.405-3.379-1.214-.822-.81-1.232-1.93-1.232-3.362 0-.927.176-1.737.528-2.429.364-.692.862-1.226 1.496-1.601.645-.388 1.39-.581 2.235-.581.833 0 1.531.176 2.094.528.564.352.992.85 1.285 1.496.294.633.44 1.384.44 2.253v.563h-6.688v-1.021h5.474l-.299.229c0-.88-.2-1.56-.599-2.042-.387-.493-.95-.739-1.689-.739-.822 0-1.455.287-1.901.862-.446.564-.669 1.344-.669 2.341v.176c0 1.044.252 1.83.757 2.359.516.528 1.244.792 2.182.792.516 0 .998-.07 1.443-.212a4.046 4.046 0 0 0 1.303-.739l.581 1.215c-.411.363-.91.645-1.496.844a6.09 6.09 0 0 1-1.866.282Zm9.935 3.837-.422-1.443c.551-.118 1.009-.259 1.373-.423.375-.164.686-.381.932-.651.247-.258.458-.593.634-1.003l.44-1.039-.035.722-3.855-9.029h1.901l2.992 7.392h-.475l2.992-7.392h1.83l-4.065 9.504a7.822 7.822 0 0 1-.827 1.479 4.413 4.413 0 0 1-.951.968c-.34.246-.716.44-1.126.58-.411.141-.857.253-1.338.335Zm13.347-3.837c-.88 0-1.643-.182-2.288-.546a3.825 3.825 0 0 1-1.496-1.584c-.352-.692-.528-1.513-.528-2.464 0-.95.176-1.765.528-2.446a3.69 3.69 0 0 1 1.496-1.584c.645-.375 1.408-.563 2.288-.563.88 0 1.643.188 2.288.563a3.66 3.66 0 0 1 1.514 1.584c.363.68.545 1.496.545 2.446 0 .95-.182 1.772-.545 2.464a3.792 3.792 0 0 1-1.514 1.584c-.645.364-1.408.546-2.288.546Zm0-1.39c.774 0 1.39-.27 1.848-.81.458-.54.686-1.338.686-2.394s-.228-1.848-.686-2.376c-.458-.54-1.074-.81-1.848-.81-.763 0-1.373.27-1.83.81-.458.528-.687 1.32-.687 2.376 0 1.056.223 1.854.669 2.394.458.54 1.074.81 1.848.81Zm9.575 1.39c-1.067 0-1.871-.288-2.411-.862-.528-.587-.792-1.485-.792-2.693v-5.474h1.778v5.439c0 .739.152 1.284.457 1.636.305.352.769.528 1.391.528.704 0 1.273-.234 1.707-.704.434-.469.651-1.09.651-1.865v-5.034h1.778v8.87h-1.725v-1.9h.229c-.247.657-.64 1.167-1.179 1.531-.54.352-1.168.528-1.884.528Zm11.855-.158V11.023h1.777v12.954h-1.777Zm4.383 0v-8.87h1.777v8.87h-1.777Zm-.141-10.719V11.41h2.059v1.848h-2.059Zm7.128 10.719-3.801-8.87h1.9l2.992 7.409h-.51l3.045-7.41h1.813l-3.82 8.87h-1.619Zm10.795.158c-1.432 0-2.558-.405-3.38-1.214-.821-.81-1.232-1.93-1.232-3.362 0-.927.176-1.737.528-2.429a3.954 3.954 0 0 1 1.496-1.601c.646-.388 1.391-.581 2.236-.581.833 0 1.531.176 2.094.528.563.352.991.85 1.285 1.496.293.633.44 1.384.44 2.253v.563h-6.688v-1.021h5.473l-.299.229c0-.88-.199-1.56-.598-2.042-.387-.493-.951-.739-1.69-.739-.821 0-1.455.287-1.901.862-.445.564-.668 1.344-.668 2.341v.176c0 1.044.252 1.83.756 2.359.517.528 1.244.792 2.183.792.516 0 .997-.07 1.443-.212a4.032 4.032 0 0 0 1.302-.739l.581 1.215c-.41.363-.909.645-1.496.844a6.08 6.08 0 0 1-1.865.282ZM164.55 23.977V11.569h1.83v12.408h-1.83Zm4.585 0v-6.741c0-.34-.017-.687-.053-1.039a30.813 30.813 0 0 0-.088-1.09h1.725l.159 1.865h-.212c.247-.646.622-1.144 1.127-1.496.516-.352 1.132-.528 1.848-.528.727 0 1.32.176 1.777.528.47.34.792.868.968 1.584h-.281a3.034 3.034 0 0 1 1.197-1.531c.563-.388 1.214-.581 1.953-.581.986 0 1.725.287 2.218.862.493.575.739 1.467.739 2.675v5.492h-1.778v-5.404c0-.774-.135-1.331-.404-1.672-.259-.352-.681-.528-1.268-.528-.68 0-1.22.235-1.619.704-.399.47-.598 1.103-.598 1.901v4.999h-1.778v-5.404c0-.774-.135-1.331-.405-1.672-.258-.352-.68-.528-1.267-.528-.68 0-1.214.235-1.601.704-.388.47-.581 1.103-.581 1.901v4.999h-1.778Zm15.624 0v-6.741c0-.34-.018-.687-.053-1.039a36.41 36.41 0 0 0-.088-1.09h1.725l.158 1.865h-.211c.246-.646.622-1.144 1.126-1.496.517-.352 1.133-.528 1.848-.528.728 0 1.32.176 1.778.528.469.34.792.868.968 1.584h-.282a3.044 3.044 0 0 1 1.197-1.531c.563-.388 1.214-.581 1.954-.581.985 0 1.724.287 2.217.862.493.575.739 1.467.739 2.675v5.492h-1.777v-5.404c0-.774-.135-1.331-.405-1.672-.258-.352-.68-.528-1.267-.528-.681 0-1.22.235-1.619.704-.399.47-.599 1.103-.599 1.901v4.999h-1.777v-5.404c0-.774-.135-1.331-.405-1.672-.258-.352-.681-.528-1.267-.528-.681 0-1.215.235-1.602.704-.387.47-.581 1.103-.581 1.901v4.999h-1.777Zm15.623 0v-8.87h1.778v8.87h-1.778Zm-.141-10.719V11.41h2.059v1.848h-2.059Zm8.519 14.661a7.927 7.927 0 0 1-2.182-.282 5.597 5.597 0 0 1-1.743-.844l.44-1.303c.364.247.722.44 1.074.581.352.152.721.264 1.109.334.387.07.786.106 1.196.106.845 0 1.479-.217 1.901-.651.434-.423.651-1.039.651-1.848v-2.376h.176a2.72 2.72 0 0 1-1.161 1.566c-.575.376-1.244.563-2.007.563-.809 0-1.513-.176-2.112-.528a3.705 3.705 0 0 1-1.372-1.53c-.317-.67-.476-1.456-.476-2.36 0-.903.159-1.683.476-2.34.328-.657.786-1.162 1.372-1.514.599-.363 1.303-.545 2.112-.545.775 0 1.444.193 2.007.58.575.376.956.892 1.144 1.55l-.159-.141.159-1.83h1.725a17.498 17.498 0 0 0-.141 2.129V23.8c0 1.337-.358 2.358-1.074 3.062-.704.704-1.742 1.056-3.115 1.056Zm-.123-5.544c.774 0 1.39-.264 1.848-.792.469-.528.704-1.273.704-2.235s-.235-1.702-.704-2.218c-.458-.516-1.074-.774-1.848-.774-.798 0-1.432.258-1.901.774-.458.516-.686 1.256-.686 2.218s.228 1.707.686 2.235c.469.528 1.103.792 1.901.792Zm6.869 1.602v-6.67c0-.365-.011-.728-.035-1.092a17.366 17.366 0 0 0-.07-1.109h1.724l.194 2.288h-.282c.118-.551.317-1.009.599-1.373a2.608 2.608 0 0 1 1.021-.81c.41-.175.839-.263 1.284-.263.188 0 .347.011.476.035.129.012.258.035.387.07l-.018 1.584a1.767 1.767 0 0 0-.528-.14 3.296 3.296 0 0 0-.528-.036c-.516 0-.956.118-1.32.352a2.158 2.158 0 0 0-.827.916 2.823 2.823 0 0 0-.282 1.25v4.998h-1.795Zm9.981.158c-.786 0-1.473-.182-2.06-.546-.586-.363-1.044-.891-1.372-1.584-.317-.692-.476-1.513-.476-2.464 0-.962.159-1.783.476-2.464.328-.68.786-1.202 1.372-1.566.587-.375 1.274-.563 2.06-.563.774 0 1.449.193 2.024.58.575.388.956.916 1.144 1.585h-.194l.176-2.007h1.725l-.106 1.091a15.93 15.93 0 0 0-.035 1.039v6.74h-1.778v-1.97h.194a2.725 2.725 0 0 1-1.162 1.566c-.574.375-1.237.563-1.988.563Zm.44-1.39c.762 0 1.372-.27 1.83-.81.469-.54.704-1.338.704-2.394s-.235-1.848-.704-2.376c-.458-.54-1.068-.81-1.83-.81-.775 0-1.397.27-1.866.81-.458.528-.686 1.32-.686 2.376 0 1.056.228 1.854.686 2.394.458.54 1.08.81 1.866.81Zm10.337 1.39c-.962 0-1.689-.258-2.182-.774-.493-.528-.739-1.315-.739-2.359V16.48h-1.725v-1.373h1.725v-2.34l1.777-.476v2.816h2.464v1.373h-2.464v4.365c0 .657.118 1.126.352 1.408.235.281.575.422 1.021.422.223 0 .417-.017.581-.053.176-.047.334-.1.475-.158v1.443c-.176.07-.381.123-.616.159-.234.046-.457.07-.669.07Zm2.945-.158v-8.87h1.777v8.87h-1.777Zm-.141-10.719V11.41h2.059v1.848h-2.059Zm8.325 10.877c-.88 0-1.643-.182-2.288-.546a3.825 3.825 0 0 1-1.496-1.584c-.352-.692-.528-1.513-.528-2.464 0-.95.176-1.765.528-2.446a3.69 3.69 0 0 1 1.496-1.584c.645-.375 1.408-.563 2.288-.563.88 0 1.643.188 2.288.563a3.66 3.66 0 0 1 1.514 1.584c.363.68.545 1.496.545 2.446 0 .95-.182 1.772-.545 2.464a3.792 3.792 0 0 1-1.514 1.584c-.645.364-1.408.546-2.288.546Zm0-1.39c.774 0 1.39-.27 1.848-.81.458-.54.686-1.338.686-2.394s-.228-1.848-.686-2.376c-.458-.54-1.074-.81-1.848-.81-.763 0-1.373.27-1.83.81-.458.528-.687 1.32-.687 2.376 0 1.056.223 1.854.669 2.394.458.54 1.074.81 1.848.81Zm6.425 1.232v-6.741c0-.34-.018-.687-.053-1.039a33.378 33.378 0 0 0-.088-1.09h1.725l.158 1.865h-.211c.27-.657.687-1.156 1.25-1.496.563-.352 1.214-.528 1.953-.528 1.045 0 1.831.287 2.359.862.54.575.809 1.467.809 2.675v5.492h-1.777V18.59c0-.786-.159-1.35-.475-1.69-.305-.352-.775-.528-1.408-.528-.751 0-1.35.235-1.796.704-.445.458-.668 1.08-.668 1.866v5.034h-1.778Zm18.17.158c-.739 0-1.42-.094-2.042-.282-.622-.187-1.138-.451-1.549-.792l.546-1.214c.434.328.915.575 1.443.74a5.423 5.423 0 0 0 1.619.246c.646 0 1.133-.112 1.461-.335.329-.235.493-.551.493-.95a.942.942 0 0 0-.317-.74c-.199-.187-.534-.328-1.003-.422l-1.69-.334c-.751-.165-1.32-.446-1.707-.845-.387-.399-.581-.91-.581-1.531 0-.528.141-.998.423-1.408.293-.41.704-.734 1.232-.968.54-.235 1.167-.352 1.883-.352a5.75 5.75 0 0 1 1.83.281c.564.188 1.033.458 1.408.81l-.563 1.18a4.003 4.003 0 0 0-1.232-.705 3.842 3.842 0 0 0-1.39-.264c-.657 0-1.144.123-1.461.37a1.168 1.168 0 0 0-.475.968c0 .305.094.557.281.757.2.187.511.334.933.44l1.69.334c.798.164 1.396.434 1.795.81.399.375.598.88.598 1.513 0 .552-.152 1.033-.457 1.443-.305.411-.728.722-1.267.933-.54.211-1.174.317-1.901.317Zm9.084 0c-.962 0-1.689-.258-2.182-.774-.493-.528-.739-1.315-.739-2.359V16.48h-1.725v-1.373h1.725v-2.34l1.777-.476v2.816h2.464v1.373h-2.464v4.365c0 .657.118 1.126.352 1.408.235.281.575.422 1.021.422.223 0 .417-.017.581-.053.176-.047.334-.1.475-.158v1.443c-.176.07-.381.123-.616.159-.235.046-.457.07-.669.07Zm6.341 0c-.786 0-1.472-.182-2.059-.546-.587-.363-1.044-.891-1.373-1.584-.317-.692-.475-1.513-.475-2.464 0-.962.158-1.783.475-2.464.329-.68.786-1.202 1.373-1.566.587-.375 1.273-.563 2.059-.563.775 0 1.449.193 2.024.58.575.388.957.916 1.144 1.585h-.193l.176-2.007h1.724l-.105 1.091c-.024.352-.035.698-.035 1.039v6.74h-1.778v-1.97h.194a2.725 2.725 0 0 1-1.162 1.566c-.575.375-1.238.563-1.989.563Zm.44-1.39c.763 0 1.373-.27 1.831-.81.469-.54.704-1.338.704-2.394s-.235-1.848-.704-2.376c-.458-.54-1.068-.81-1.831-.81-.774 0-1.396.27-1.865.81-.458.528-.687 1.32-.687 2.376 0 1.056.229 1.854.687 2.394.457.54 1.079.81 1.865.81Zm10.338 1.39c-.962 0-1.69-.258-2.182-.774-.493-.528-.74-1.315-.74-2.359V16.48h-1.724v-1.373h1.724v-2.34l1.778-.476v2.816h2.464v1.373h-2.464v4.365c0 .657.117 1.126.352 1.408.235.281.575.422 1.021.422.223 0 .416-.017.581-.053.176-.047.334-.1.475-.158v1.443c-.176.07-.381.123-.616.159-.235.046-.458.07-.669.07Zm6.095 0c-1.068 0-1.872-.288-2.412-.862-.528-.587-.792-1.485-.792-2.693v-5.474h1.778v5.439c0 .739.153 1.284.458 1.636.305.352.768.528 1.39.528.704 0 1.273-.234 1.707-.704.434-.469.651-1.09.651-1.865v-5.034h1.778v8.87h-1.725v-1.9h.229c-.246.657-.639 1.167-1.179 1.531-.54.352-1.168.528-1.883.528Zm10.207 0a7.04 7.04 0 0 1-2.042-.282c-.622-.187-1.138-.451-1.549-.792l.546-1.214c.434.328.915.575 1.443.74a5.423 5.423 0 0 0 1.619.246c.645 0 1.132-.112 1.461-.335a1.11 1.11 0 0 0 .493-.95.942.942 0 0 0-.317-.74c-.2-.187-.534-.328-1.003-.422l-1.69-.334c-.751-.165-1.32-.446-1.707-.845-.387-.399-.581-.91-.581-1.531 0-.528.141-.998.423-1.408.293-.41.704-.734 1.232-.968.539-.235 1.167-.352 1.883-.352a5.75 5.75 0 0 1 1.83.281c.563.188 1.033.458 1.408.81l-.563 1.18a4.003 4.003 0 0 0-1.232-.705 3.846 3.846 0 0 0-1.39-.264c-.658 0-1.144.123-1.461.37a1.168 1.168 0 0 0-.475.968c0 .305.093.557.281.757.2.187.511.334.933.44l1.69.334c.797.164 1.396.434 1.795.81.399.375.598.88.598 1.513 0 .552-.152 1.033-.457 1.443-.306.411-.728.722-1.268.933-.539.211-1.173.317-1.9.317ZM57.927 228.977v-12.408h1.83v10.841h6.09v1.567h-7.92Zm12.95.158c-.787 0-1.473-.182-2.06-.546-.586-.363-1.044-.891-1.372-1.584-.317-.692-.476-1.513-.476-2.464 0-.962.159-1.783.476-2.464.328-.68.786-1.202 1.372-1.566.587-.376 1.273-.563 2.06-.563.774 0 1.449.193 2.023.581.575.387.957.915 1.144 1.584h-.193l.176-2.007h1.725l-.106 1.091c-.023.352-.035.698-.035 1.039v6.741h-1.778v-1.972h.194a2.725 2.725 0 0 1-1.162 1.567c-.575.375-1.237.563-1.989.563Zm.44-1.39c.762 0 1.372-.27 1.83-.81.47-.54.704-1.338.704-2.394s-.235-1.848-.704-2.376c-.458-.539-1.068-.809-1.83-.809-.775 0-1.397.27-1.866.809-.458.528-.686 1.32-.686 2.376 0 1.056.228 1.854.686 2.394.458.54 1.08.81 1.866.81Zm6.888 1.232v-6.741c0-.341-.018-.687-.053-1.039a34.188 34.188 0 0 0-.088-1.091h1.725l.158 1.866h-.211c.27-.657.686-1.156 1.25-1.496.563-.352 1.214-.528 1.953-.528 1.044 0 1.83.287 2.359.862.54.575.81 1.467.81 2.675v5.492h-1.779v-5.386c0-.786-.158-1.349-.475-1.69-.305-.352-.774-.528-1.408-.528-.75 0-1.349.235-1.795.704-.446.458-.669 1.08-.669 1.866v5.034h-1.777Zm14.428 3.942a7.919 7.919 0 0 1-2.183-.282 5.582 5.582 0 0 1-1.742-.844l.44-1.303c.364.247.722.44 1.074.581.352.152.721.264 1.108.334.388.071.787.106 1.197.106.845 0 1.479-.217 1.901-.651.434-.423.651-1.039.651-1.848v-2.376h.176a2.724 2.724 0 0 1-1.161 1.566c-.575.376-1.244.563-2.007.563-.81 0-1.513-.176-2.112-.528a3.7 3.7 0 0 1-1.373-1.531c-.316-.669-.475-1.455-.475-2.358 0-.904.159-1.684.475-2.341.329-.657.786-1.162 1.373-1.514.599-.363 1.303-.545 2.112-.545.775 0 1.443.193 2.007.581.575.375.956.891 1.144 1.548l-.159-.14.159-1.831h1.724a17.123 17.123 0 0 0-.14 2.13v6.565c0 1.337-.358 2.358-1.074 3.062-.704.704-1.742 1.056-3.115 1.056Zm-.123-5.544c.774 0 1.39-.264 1.848-.792.469-.528.704-1.273.704-2.235s-.235-1.702-.704-2.218c-.458-.516-1.074-.774-1.848-.774-.798 0-1.432.258-1.901.774-.458.516-.687 1.256-.687 2.218s.23 1.707.687 2.235c.47.528 1.103.792 1.9.792Zm10.055 1.76c-1.068 0-1.872-.288-2.412-.862-.528-.587-.792-1.485-.792-2.693v-5.474h1.778v5.439c0 .739.152 1.284.458 1.636.305.352.768.528 1.39.528.704 0 1.273-.234 1.707-.704.434-.469.651-1.091.651-1.865v-5.034h1.778v8.871h-1.725v-1.901h.229c-.246.657-.64 1.167-1.179 1.531-.54.352-1.168.528-1.883.528Zm10.558 0c-.786 0-1.472-.182-2.059-.546-.586-.363-1.044-.891-1.373-1.584-.316-.692-.475-1.513-.475-2.464 0-.962.159-1.783.475-2.464.329-.68.787-1.202 1.373-1.566.587-.376 1.273-.563 2.059-.563.775 0 1.449.193 2.024.581.575.387.957.915 1.144 1.584h-.193l.176-2.007h1.725l-.106 1.091c-.023.352-.035.698-.035 1.039v6.741h-1.778v-1.972h.194a2.726 2.726 0 0 1-1.162 1.567c-.575.375-1.238.563-1.989.563Zm.44-1.39c.763 0 1.373-.27 1.831-.81.469-.54.704-1.338.704-2.394s-.235-1.848-.704-2.376c-.458-.539-1.068-.809-1.831-.809-.774 0-1.396.27-1.865.809-.458.528-.687 1.32-.687 2.376 0 1.056.229 1.854.687 2.394.457.54 1.079.81 1.865.81Zm10.884 5.174a7.923 7.923 0 0 1-2.183-.282 5.582 5.582 0 0 1-1.742-.844l.44-1.303c.364.247.722.44 1.074.581.352.152.721.264 1.108.334.388.071.787.106 1.197.106.845 0 1.479-.217 1.901-.651.434-.423.651-1.039.651-1.848v-2.376h.176a2.726 2.726 0 0 1-1.161 1.566c-.575.376-1.244.563-2.007.563-.809 0-1.513-.176-2.112-.528a3.708 3.708 0 0 1-1.373-1.531c-.316-.669-.475-1.455-.475-2.358 0-.904.159-1.684.475-2.341.329-.657.787-1.162 1.373-1.514.599-.363 1.303-.545 2.112-.545.775 0 1.443.193 2.007.581.575.375.956.891 1.144 1.548l-.159-.14.159-1.831h1.724a16.834 16.834 0 0 0-.14 2.13v6.565c0 1.337-.358 2.358-1.074 3.062-.704.704-1.742 1.056-3.115 1.056Zm-.123-5.544c.774 0 1.39-.264 1.848-.792.469-.528.704-1.273.704-2.235s-.235-1.702-.704-2.218c-.458-.516-1.074-.774-1.848-.774-.798 0-1.432.258-1.901.774-.458.516-.687 1.256-.687 2.218s.229 1.707.687 2.235c.469.528 1.103.792 1.901.792Zm11.005 1.76c-1.431 0-2.558-.405-3.379-1.214-.822-.81-1.232-1.931-1.232-3.362 0-.927.176-1.737.528-2.429.364-.692.862-1.226 1.496-1.601.645-.388 1.39-.581 2.235-.581.833 0 1.531.176 2.094.528.564.352.992.85 1.285 1.496.294.633.44 1.384.44 2.253v.563h-6.688v-1.021h5.474l-.299.229c0-.88-.2-1.561-.599-2.042-.387-.493-.95-.739-1.689-.739-.822 0-1.455.287-1.901.862-.446.564-.669 1.344-.669 2.341v.176c0 1.044.252 1.831.757 2.359.516.528 1.244.792 2.182.792.516 0 .998-.071 1.443-.212a4.038 4.038 0 0 0 1.303-.739l.581 1.215c-.411.363-.91.645-1.496.844a6.081 6.081 0 0 1-1.866.282Z"/>
    <path class="w4" d="M470 62.977h91v43h-91z"/>
    <path class="w8" d="M496.723 90.977V78.569h1.602l4.787 10.788h-.528l4.787-10.788h1.584v12.408h-1.654V81.05h.58l-4.47 9.927h-1.144l-4.47-9.927h.598v9.927h-1.672Zm18.836.158c-.88 0-1.642-.182-2.288-.546a3.825 3.825 0 0 1-1.496-1.584c-.352-.692-.528-1.513-.528-2.464 0-.95.176-1.766.528-2.446a3.69 3.69 0 0 1 1.496-1.584c.646-.376 1.408-.563 2.288-.563.88 0 1.643.188 2.288.563a3.654 3.654 0 0 1 1.514 1.584c.364.68.546 1.496.546 2.446 0 .95-.182 1.772-.546 2.464a3.786 3.786 0 0 1-1.514 1.584c-.645.364-1.408.546-2.288.546Zm0-1.39c.775 0 1.391-.27 1.848-.81.458-.54.687-1.338.687-2.394s-.229-1.848-.687-2.376c-.457-.54-1.073-.81-1.848-.81-.762 0-1.372.27-1.83.81-.458.528-.686 1.32-.686 2.376 0 1.056.223 1.854.668 2.394.458.54 1.074.81 1.848.81Zm9.47 1.39a7.038 7.038 0 0 1-2.041-.282c-.622-.187-1.138-.451-1.549-.792l.545-1.214c.435.329.916.575 1.444.74a5.418 5.418 0 0 0 1.619.246c.645 0 1.132-.112 1.461-.335a1.11 1.11 0 0 0 .492-.95.942.942 0 0 0-.316-.74c-.2-.187-.534-.328-1.004-.422l-1.689-.334c-.751-.165-1.32-.446-1.707-.845-.388-.399-.581-.91-.581-1.531 0-.528.141-.998.422-1.408.294-.41.704-.734 1.232-.968.54-.235 1.168-.352 1.883-.352.658 0 1.268.094 1.831.281.563.188 1.032.458 1.408.81l-.563 1.18a4.015 4.015 0 0 0-1.232-.705 3.847 3.847 0 0 0-1.391-.264c-.657 0-1.144.123-1.461.37a1.17 1.17 0 0 0-.475.968c0 .305.094.557.282.757.199.187.51.334.933.44l1.689.334c.798.164 1.397.434 1.795.81.399.375.599.88.599 1.513 0 .552-.153 1.033-.458 1.443-.305.411-.727.722-1.267.933-.54.211-1.173.317-1.901.317Zm9.085 0c-.962 0-1.69-.258-2.183-.774-.492-.528-.739-1.315-.739-2.359V83.48h-1.725v-1.373h1.725v-2.34l1.778-.476v2.816h2.464v1.373h-2.464v4.365c0 .657.117 1.126.352 1.408.234.281.575.422 1.021.422.222 0 .416-.017.58-.053a3.8 3.8 0 0 0 .476-.158v1.443c-.176.07-.382.123-.616.159-.235.047-.458.07-.669.07Z"/>
    <path class="w4" d="M470 342.977h91v43h-91z"/>
    <path class="w8" d="M494.445 370.977v-12.408h1.831v10.841h6.089v1.567h-7.92Zm13.568.158c-1.432 0-2.558-.405-3.38-1.214-.821-.81-1.232-1.931-1.232-3.362 0-.927.176-1.737.528-2.429a3.952 3.952 0 0 1 1.496-1.601c.646-.388 1.391-.581 2.236-.581.833 0 1.531.176 2.094.528.563.352.991.85 1.285 1.496.293.633.44 1.384.44 2.253v.563h-6.688v-1.021h5.473l-.299.229c0-.88-.199-1.561-.598-2.042-.387-.493-.951-.739-1.69-.739-.821 0-1.455.287-1.901.862-.445.564-.668 1.344-.668 2.341v.176c0 1.044.252 1.831.756 2.359.517.528 1.244.792 2.183.792.516 0 .997-.071 1.443-.212a4.024 4.024 0 0 0 1.302-.739l.581 1.215c-.41.363-.909.645-1.496.844a6.07 6.07 0 0 1-1.865.282Zm8.903 0c-.786 0-1.472-.182-2.059-.546-.586-.363-1.044-.891-1.373-1.584-.316-.692-.475-1.513-.475-2.464 0-.962.159-1.783.475-2.464.329-.68.787-1.202 1.373-1.566.587-.376 1.273-.563 2.059-.563.775 0 1.449.193 2.024.581.575.387.957.915 1.144 1.584h-.193l.176-2.007h1.725l-.106 1.091c-.023.352-.035.698-.035 1.039v6.741h-1.778v-1.972h.194a2.726 2.726 0 0 1-1.162 1.567c-.575.375-1.238.563-1.989.563Zm.44-1.39c.763 0 1.373-.27 1.831-.81.469-.54.704-1.338.704-2.394s-.235-1.848-.704-2.376c-.458-.539-1.068-.809-1.831-.809-.774 0-1.396.27-1.865.809-.458.528-.687 1.32-.687 2.376 0 1.056.229 1.854.687 2.394.457.54 1.079.81 1.865.81Zm9.933 1.39a7.027 7.027 0 0 1-2.041-.282c-.622-.187-1.138-.451-1.549-.792l.546-1.214c.434.328.915.575 1.443.739a5.43 5.43 0 0 0 1.619.247c.645 0 1.132-.112 1.461-.335a1.11 1.11 0 0 0 .493-.95.941.941 0 0 0-.317-.739c-.2-.188-.534-.329-1.003-.423l-1.69-.334c-.751-.165-1.32-.446-1.707-.845-.387-.399-.581-.909-.581-1.531 0-.528.141-.998.422-1.408.294-.411.704-.734 1.232-.968.54-.235 1.168-.352 1.884-.352.657 0 1.267.094 1.83.281.563.188 1.033.458 1.408.81l-.563 1.179a4.013 4.013 0 0 0-1.232-.704 3.847 3.847 0 0 0-1.391-.264c-.657 0-1.144.123-1.46.37a1.168 1.168 0 0 0-.476.968c0 .305.094.557.282.757.199.187.51.334.933.44l1.689.334c.798.164 1.397.434 1.796.81.399.375.598.88.598 1.513 0 .552-.153 1.033-.458 1.443-.305.411-.727.722-1.267.933-.54.211-1.173.317-1.901.317Zm9.085 0c-.962 0-1.69-.258-2.183-.774-.492-.528-.739-1.315-.739-2.359v-4.523h-1.725v-1.373h1.725v-2.341l1.778-.475v2.816h2.464v1.373h-2.464v4.365c0 .657.117 1.126.352 1.408.235.281.575.422 1.021.422.223 0 .416-.017.58-.053.176-.047.335-.099.476-.158v1.443a2.789 2.789 0 0 1-.616.159c-.235.046-.458.07-.669.07Z"/>
    <path class="w9" stroke-dasharray="12 12" stroke-width="2" d="M544.372 249.977h-53.24l-47.78 55.97-214.326 152.895 163.817 165.181 211.595-81.908 196.58-83.273-217.057-152.895-39.589-55.97Z"/>
  </svg>