<svg width="408" height="308" viewBox="0 0 408 308" fill="none" xmlns="http://www.w3.org/2000/svg">
<circle cx="205.685" cy="145.16" r="130.097" class="w1 w5" stroke-dasharray="2 2" />
<circle cx="205.853" cy="145.328" r="99.0018" class="w2 w5" stroke-dasharray="2 2" />
<circle cx="205.853" cy="145.328" r="61.5232" class="w3 w5" stroke-dasharray="2 2" />
<path d="M206.707 0.292893C206.317 -0.097631 205.683 -0.097631 205.293 0.292893L198.929 6.65685C198.538 7.04738 198.538 7.68054 198.929 8.07107C199.319 8.46159 199.953 8.46159 200.343 8.07107L206 2.41421L211.657 8.07107C212.047 8.46159 212.681 8.46159 213.071 8.07107C213.462 7.68054 213.462 7.04738 213.071 6.65685L206.707 0.292893ZM205.293 130.707C205.683 131.098 206.317 131.098 206.707 130.707L213.071 124.343C213.462 123.953 213.462 123.319 213.071 122.929C212.681 122.538 212.047 122.538 211.657 122.929L206 128.586L200.343 122.929C199.953 122.538 199.319 122.538 198.929 122.929C198.538 123.319 198.538 123.953 198.929 124.343L205.293 130.707ZM206 1L205 1L205 130L206 130L207 130L207 1L206 1Z" class="w8" fill="#cb3335" />
<line x1="336" y1="145.5" x2="76" y2="145.5" class="w5" stroke-dasharray="2 2"/>
<line x1="205.5" y1="275" x2="205.5" y2="15" class="w5" stroke-dasharray="2 2"/>
<line x1="113.553" y1="236.621" x2="297.101" y2="53.0727" class="w5" stroke-dasharray="2 2"/>
<line x1="114.596" y1="53.4091" x2="297.472" y2="236.285" class="w5" stroke-dasharray="2 2"/>
<path d="M347.445 190.12C346.765 190.12 346.137 190.036 345.561 189.868C344.993 189.692 344.505 189.452 344.097 189.148L344.577 187.936C344.849 188.128 345.133 188.292 345.429 188.428C345.725 188.556 346.041 188.656 346.377 188.728C346.713 188.792 347.069 188.824 347.445 188.824C348.077 188.824 348.533 188.72 348.813 188.512C349.093 188.304 349.233 188.032 349.233 187.696C349.233 187.4 349.137 187.176 348.945 187.024C348.753 186.864 348.409 186.732 347.913 186.628L346.557 186.352C345.781 186.192 345.201 185.924 344.817 185.548C344.433 185.172 344.241 184.668 344.241 184.036C344.241 183.508 344.381 183.048 344.661 182.656C344.941 182.264 345.333 181.96 345.837 181.744C346.341 181.528 346.929 181.42 347.601 181.42C348.201 181.42 348.757 181.508 349.269 181.684C349.781 181.852 350.209 182.096 350.553 182.416L350.073 183.568C349.729 183.28 349.353 183.068 348.945 182.932C348.537 182.788 348.081 182.716 347.577 182.716C347.009 182.716 346.565 182.828 346.245 183.052C345.933 183.268 345.777 183.568 345.777 183.952C345.777 184.248 345.873 184.484 346.065 184.66C346.265 184.836 346.601 184.972 347.073 185.068L348.417 185.332C349.217 185.492 349.809 185.756 350.193 186.124C350.577 186.484 350.769 186.972 350.769 187.588C350.769 188.092 350.633 188.536 350.361 188.92C350.089 189.296 349.705 189.592 349.209 189.808C348.713 190.016 348.125 190.12 347.445 190.12ZM354.843 190.12C354.219 190.12 353.679 189.992 353.223 189.736C352.767 189.48 352.411 189.116 352.155 188.644C351.907 188.172 351.783 187.612 351.783 186.964C351.783 186.316 351.907 185.76 352.155 185.296C352.411 184.824 352.767 184.46 353.223 184.204C353.679 183.948 354.219 183.82 354.843 183.82C355.467 183.82 356.007 183.948 356.463 184.204C356.927 184.46 357.283 184.824 357.531 185.296C357.787 185.76 357.915 186.316 357.915 186.964C357.915 187.612 357.787 188.172 357.531 188.644C357.283 189.116 356.927 189.48 356.463 189.736C356.007 189.992 355.467 190.12 354.843 190.12ZM354.843 188.968C355.315 188.968 355.691 188.804 355.971 188.476C356.251 188.14 356.391 187.636 356.391 186.964C356.391 186.292 356.251 185.792 355.971 185.464C355.691 185.136 355.315 184.972 354.843 184.972C354.371 184.972 353.995 185.136 353.715 185.464C353.435 185.792 353.295 186.292 353.295 186.964C353.295 187.636 353.435 188.14 353.715 188.476C353.995 188.804 354.371 188.968 354.843 188.968ZM361.993 190.12C361.369 190.12 360.821 189.992 360.349 189.736C359.885 189.48 359.525 189.116 359.269 188.644C359.013 188.164 358.885 187.596 358.885 186.94C358.885 186.284 359.013 185.724 359.269 185.26C359.533 184.796 359.897 184.44 360.361 184.192C360.825 183.944 361.369 183.82 361.993 183.82C362.393 183.82 362.781 183.884 363.157 184.012C363.541 184.132 363.853 184.308 364.093 184.54L363.637 185.584C363.421 185.384 363.177 185.236 362.905 185.14C362.641 185.036 362.381 184.984 362.125 184.984C361.589 184.984 361.169 185.152 360.865 185.488C360.569 185.824 360.421 186.312 360.421 186.952C360.421 187.592 360.569 188.084 360.865 188.428C361.169 188.772 361.589 188.944 362.125 188.944C362.373 188.944 362.629 188.896 362.893 188.8C363.165 188.704 363.413 188.556 363.637 188.356L364.093 189.388C363.845 189.62 363.529 189.8 363.145 189.928C362.769 190.056 362.385 190.12 361.993 190.12ZM365.255 190V183.94H366.755V190H365.255ZM365.171 182.8V181.336H366.839V182.8H365.171ZM370.724 190.12C370.196 190.12 369.732 189.996 369.332 189.748C368.932 189.492 368.62 189.128 368.396 188.656C368.172 188.184 368.06 187.62 368.06 186.964C368.06 186.308 368.172 185.748 368.396 185.284C368.62 184.812 368.932 184.452 369.332 184.204C369.732 183.948 370.196 183.82 370.724 183.82C371.236 183.82 371.684 183.948 372.068 184.204C372.46 184.452 372.72 184.788 372.848 185.212H372.716L372.848 183.94H374.288C374.264 184.188 374.24 184.44 374.216 184.696C374.2 184.952 374.192 185.204 374.192 185.452V190H372.704L372.692 188.752H372.836C372.708 189.168 372.448 189.5 372.056 189.748C371.664 189.996 371.22 190.12 370.724 190.12ZM371.144 188.968C371.616 188.968 371.996 188.804 372.284 188.476C372.572 188.14 372.716 187.636 372.716 186.964C372.716 186.292 372.572 185.792 372.284 185.464C371.996 185.136 371.616 184.972 371.144 184.972C370.672 184.972 370.292 185.136 370.004 185.464C369.716 185.792 369.572 186.292 369.572 186.964C369.572 187.636 369.712 188.14 369.992 188.476C370.28 188.804 370.664 188.968 371.144 188.968ZM375.826 190V181.168H377.326V190H375.826ZM384.588 190.12C384.06 190.12 383.596 189.996 383.196 189.748C382.796 189.492 382.484 189.128 382.26 188.656C382.036 188.184 381.924 187.62 381.924 186.964C381.924 186.308 382.036 185.748 382.26 185.284C382.484 184.812 382.796 184.452 383.196 184.204C383.596 183.948 384.06 183.82 384.588 183.82C385.1 183.82 385.548 183.948 385.932 184.204C386.324 184.452 386.584 184.788 386.712 185.212H386.58L386.712 183.94H388.152C388.128 184.188 388.104 184.44 388.08 184.696C388.064 184.952 388.056 185.204 388.056 185.452V190H386.568L386.556 188.752H386.7C386.572 189.168 386.312 189.5 385.92 189.748C385.528 189.996 385.084 190.12 384.588 190.12ZM385.008 188.968C385.48 188.968 385.86 188.804 386.148 188.476C386.436 188.14 386.58 187.636 386.58 186.964C386.58 186.292 386.436 185.792 386.148 185.464C385.86 185.136 385.48 184.972 385.008 184.972C384.536 184.972 384.156 185.136 383.868 185.464C383.58 185.792 383.436 186.292 383.436 186.964C383.436 187.636 383.576 188.14 383.856 188.476C384.144 188.804 384.528 188.968 385.008 188.968ZM389.689 190V183.94H391.189V190H389.689ZM389.605 182.8V181.336H391.273V182.8H389.605ZM395.17 190.12C394.642 190.12 394.174 189.996 393.766 189.748C393.366 189.492 393.054 189.128 392.83 188.656C392.606 188.184 392.494 187.62 392.494 186.964C392.494 186.308 392.606 185.748 392.83 185.284C393.054 184.812 393.366 184.452 393.766 184.204C394.174 183.948 394.642 183.82 395.17 183.82C395.674 183.82 396.118 183.944 396.502 184.192C396.894 184.432 397.154 184.76 397.282 185.176H397.126V181.168H398.626V190H397.15V188.716H397.294C397.166 189.148 396.906 189.492 396.514 189.748C396.13 189.996 395.682 190.12 395.17 190.12ZM395.59 188.968C396.062 188.968 396.442 188.804 396.73 188.476C397.018 188.14 397.162 187.636 397.162 186.964C397.162 186.292 397.018 185.792 396.73 185.464C396.442 185.136 396.062 184.972 395.59 184.972C395.118 184.972 394.734 185.136 394.438 185.464C394.15 185.792 394.006 186.292 394.006 186.964C394.006 187.636 394.15 188.14 394.438 188.476C394.734 188.804 395.118 188.968 395.59 188.968ZM351.035 207.592V200.452C351.035 200.204 351.027 199.952 351.011 199.696C350.995 199.44 350.971 199.188 350.939 198.94H352.391L352.523 200.212H352.391C352.511 199.788 352.763 199.452 353.147 199.204C353.539 198.948 353.991 198.82 354.503 198.82C355.039 198.82 355.507 198.948 355.907 199.204C356.307 199.452 356.619 199.812 356.843 200.284C357.067 200.748 357.179 201.308 357.179 201.964C357.179 202.62 357.067 203.184 356.843 203.656C356.619 204.128 356.307 204.492 355.907 204.748C355.507 204.996 355.039 205.12 354.503 205.12C353.999 205.12 353.555 204.996 353.171 204.748C352.787 204.5 352.531 204.168 352.403 203.752H352.535V207.592H351.035ZM354.083 203.968C354.563 203.968 354.947 203.804 355.235 203.476C355.523 203.14 355.667 202.636 355.667 201.964C355.667 201.292 355.523 200.792 355.235 200.464C354.947 200.136 354.563 199.972 354.083 199.972C353.611 199.972 353.231 200.136 352.943 200.464C352.655 200.792 352.511 201.292 352.511 201.964C352.511 202.636 352.655 203.14 352.943 203.476C353.231 203.804 353.611 203.968 354.083 203.968ZM361.212 205.12C360.588 205.12 360.048 204.992 359.592 204.736C359.136 204.48 358.78 204.116 358.524 203.644C358.276 203.172 358.152 202.612 358.152 201.964C358.152 201.316 358.276 200.76 358.524 200.296C358.78 199.824 359.136 199.46 359.592 199.204C360.048 198.948 360.588 198.82 361.212 198.82C361.836 198.82 362.376 198.948 362.832 199.204C363.296 199.46 363.652 199.824 363.9 200.296C364.156 200.76 364.284 201.316 364.284 201.964C364.284 202.612 364.156 203.172 363.9 203.644C363.652 204.116 363.296 204.48 362.832 204.736C362.376 204.992 361.836 205.12 361.212 205.12ZM361.212 203.968C361.684 203.968 362.06 203.804 362.34 203.476C362.62 203.14 362.76 202.636 362.76 201.964C362.76 201.292 362.62 200.792 362.34 200.464C362.06 200.136 361.684 199.972 361.212 199.972C360.74 199.972 360.364 200.136 360.084 200.464C359.804 200.792 359.664 201.292 359.664 201.964C359.664 202.636 359.804 203.14 360.084 203.476C360.364 203.804 360.74 203.968 361.212 203.968ZM365.578 205V196.168H367.078V205H365.578ZM368.707 205V198.94H370.207V205H368.707ZM368.623 197.8V196.336H370.291V197.8H368.623ZM374.62 205.12C373.996 205.12 373.448 204.992 372.976 204.736C372.512 204.48 372.152 204.116 371.896 203.644C371.64 203.164 371.512 202.596 371.512 201.94C371.512 201.284 371.64 200.724 371.896 200.26C372.16 199.796 372.524 199.44 372.988 199.192C373.452 198.944 373.996 198.82 374.62 198.82C375.02 198.82 375.408 198.884 375.784 199.012C376.168 199.132 376.48 199.308 376.72 199.54L376.264 200.584C376.048 200.384 375.804 200.236 375.532 200.14C375.268 200.036 375.008 199.984 374.752 199.984C374.216 199.984 373.796 200.152 373.492 200.488C373.196 200.824 373.048 201.312 373.048 201.952C373.048 202.592 373.196 203.084 373.492 203.428C373.796 203.772 374.216 203.944 374.752 203.944C375 203.944 375.256 203.896 375.52 203.8C375.792 203.704 376.04 203.556 376.264 203.356L376.72 204.388C376.472 204.62 376.156 204.8 375.772 204.928C375.396 205.056 375.012 205.12 374.62 205.12ZM377.882 205V198.94H379.382V205H377.882ZM377.798 197.8V196.336H379.466V197.8H377.798ZM383.939 205.12C382.923 205.12 382.127 204.84 381.551 204.28C380.975 203.72 380.687 202.952 380.687 201.976C380.687 201.344 380.811 200.792 381.059 200.32C381.307 199.848 381.651 199.48 382.091 199.216C382.539 198.952 383.059 198.82 383.651 198.82C384.235 198.82 384.723 198.944 385.115 199.192C385.507 199.44 385.803 199.788 386.003 200.236C386.211 200.684 386.315 201.208 386.315 201.808V202.204H381.899V201.412H385.247L385.043 201.58C385.043 201.02 384.923 200.592 384.683 200.296C384.451 200 384.111 199.852 383.663 199.852C383.167 199.852 382.783 200.028 382.511 200.38C382.247 200.732 382.115 201.224 382.115 201.856V202.012C382.115 202.668 382.275 203.16 382.595 203.488C382.923 203.808 383.383 203.968 383.975 203.968C384.319 203.968 384.639 203.924 384.935 203.836C385.239 203.74 385.527 203.588 385.799 203.38L386.243 204.388C385.955 204.62 385.611 204.8 385.211 204.928C384.811 205.056 384.387 205.12 383.939 205.12ZM389.746 205.12C389.226 205.12 388.746 205.06 388.306 204.94C387.874 204.812 387.51 204.636 387.214 204.412L387.634 203.404C387.938 203.612 388.274 203.772 388.642 203.884C389.01 203.996 389.382 204.052 389.758 204.052C390.158 204.052 390.454 203.984 390.646 203.848C390.846 203.712 390.946 203.528 390.946 203.296C390.946 203.112 390.882 202.968 390.754 202.864C390.634 202.752 390.438 202.668 390.166 202.612L388.966 202.384C388.454 202.272 388.062 202.08 387.79 201.808C387.526 201.536 387.394 201.18 387.394 200.74C387.394 200.364 387.494 200.032 387.694 199.744C387.902 199.456 388.194 199.232 388.57 199.072C388.954 198.904 389.402 198.82 389.914 198.82C390.362 198.82 390.782 198.88 391.174 199C391.574 199.12 391.91 199.3 392.182 199.54L391.75 200.512C391.502 200.312 391.218 200.156 390.898 200.044C390.578 199.932 390.266 199.876 389.962 199.876C389.546 199.876 389.242 199.952 389.05 200.104C388.858 200.248 388.762 200.436 388.762 200.668C388.762 200.844 388.818 200.992 388.93 201.112C389.05 201.224 389.234 201.308 389.482 201.364L390.682 201.592C391.218 201.696 391.622 201.88 391.894 202.144C392.174 202.4 392.314 202.752 392.314 203.2C392.314 203.6 392.206 203.944 391.99 204.232C391.774 204.52 391.474 204.74 391.09 204.892C390.706 205.044 390.258 205.12 389.746 205.12Z" class="w8" fill="#cb3335" />
<path d="M268.847 299.12C267.967 299.12 267.211 298.944 266.579 298.592C265.955 298.232 265.475 297.728 265.139 297.08C264.803 296.424 264.635 295.652 264.635 294.764C264.635 293.876 264.803 293.108 265.139 292.46C265.475 291.812 265.955 291.312 266.579 290.96C267.211 290.6 267.967 290.42 268.847 290.42C269.439 290.42 269.971 290.504 270.443 290.672C270.923 290.84 271.335 291.088 271.679 291.416L271.175 292.64C270.799 292.336 270.435 292.12 270.083 291.992C269.739 291.856 269.343 291.788 268.895 291.788C268.039 291.788 267.383 292.048 266.927 292.568C266.479 293.08 266.255 293.812 266.255 294.764C266.255 295.716 266.479 296.452 266.927 296.972C267.383 297.492 268.039 297.752 268.895 297.752C269.343 297.752 269.739 297.688 270.083 297.56C270.435 297.424 270.799 297.2 271.175 296.888L271.679 298.112C271.335 298.432 270.923 298.68 270.443 298.856C269.971 299.032 269.439 299.12 268.847 299.12ZM275.32 299.12C274.696 299.12 274.156 298.992 273.7 298.736C273.244 298.48 272.888 298.116 272.632 297.644C272.384 297.172 272.26 296.612 272.26 295.964C272.26 295.316 272.384 294.76 272.632 294.296C272.888 293.824 273.244 293.46 273.7 293.204C274.156 292.948 274.696 292.82 275.32 292.82C275.944 292.82 276.484 292.948 276.94 293.204C277.404 293.46 277.76 293.824 278.008 294.296C278.264 294.76 278.392 295.316 278.392 295.964C278.392 296.612 278.264 297.172 278.008 297.644C277.76 298.116 277.404 298.48 276.94 298.736C276.484 298.992 275.944 299.12 275.32 299.12ZM275.32 297.968C275.792 297.968 276.168 297.804 276.448 297.476C276.728 297.14 276.868 296.636 276.868 295.964C276.868 295.292 276.728 294.792 276.448 294.464C276.168 294.136 275.792 293.972 275.32 293.972C274.848 293.972 274.472 294.136 274.192 294.464C273.912 294.792 273.772 295.292 273.772 295.964C273.772 296.636 273.912 297.14 274.192 297.476C274.472 297.804 274.848 297.968 275.32 297.968ZM281.845 299.12C281.325 299.12 280.845 299.06 280.405 298.94C279.973 298.812 279.609 298.636 279.313 298.412L279.733 297.404C280.037 297.612 280.373 297.772 280.741 297.884C281.109 297.996 281.481 298.052 281.857 298.052C282.257 298.052 282.553 297.984 282.745 297.848C282.945 297.712 283.045 297.528 283.045 297.296C283.045 297.112 282.981 296.968 282.853 296.864C282.733 296.752 282.537 296.668 282.265 296.612L281.065 296.384C280.553 296.272 280.161 296.08 279.889 295.808C279.625 295.536 279.493 295.18 279.493 294.74C279.493 294.364 279.593 294.032 279.793 293.744C280.001 293.456 280.293 293.232 280.669 293.072C281.053 292.904 281.501 292.82 282.013 292.82C282.461 292.82 282.881 292.88 283.273 293C283.673 293.12 284.009 293.3 284.281 293.54L283.849 294.512C283.601 294.312 283.317 294.156 282.997 294.044C282.677 293.932 282.365 293.876 282.061 293.876C281.645 293.876 281.341 293.952 281.149 294.104C280.957 294.248 280.861 294.436 280.861 294.668C280.861 294.844 280.917 294.992 281.029 295.112C281.149 295.224 281.333 295.308 281.581 295.364L282.781 295.592C283.317 295.696 283.721 295.88 283.993 296.144C284.273 296.4 284.413 296.752 284.413 297.2C284.413 297.6 284.305 297.944 284.089 298.232C283.873 298.52 283.573 298.74 283.189 298.892C282.805 299.044 282.357 299.12 281.845 299.12ZM288.23 299.12C287.51 299.12 286.966 298.932 286.598 298.556C286.23 298.18 286.046 297.616 286.046 296.864V294.068H284.882V292.94H286.046V291.392L287.546 291.008V292.94H289.166V294.068H287.546V296.768C287.546 297.184 287.626 297.476 287.786 297.644C287.946 297.812 288.166 297.896 288.446 297.896C288.598 297.896 288.726 297.884 288.83 297.86C288.942 297.836 289.05 297.804 289.154 297.764V298.952C289.018 299.008 288.866 299.048 288.698 299.072C288.538 299.104 288.382 299.12 288.23 299.12ZM296.214 299.12C295.59 299.12 295.05 298.992 294.594 298.736C294.138 298.48 293.782 298.116 293.526 297.644C293.278 297.172 293.154 296.612 293.154 295.964C293.154 295.316 293.278 294.76 293.526 294.296C293.782 293.824 294.138 293.46 294.594 293.204C295.05 292.948 295.59 292.82 296.214 292.82C296.838 292.82 297.378 292.948 297.834 293.204C298.298 293.46 298.654 293.824 298.902 294.296C299.158 294.76 299.286 295.316 299.286 295.964C299.286 296.612 299.158 297.172 298.902 297.644C298.654 298.116 298.298 298.48 297.834 298.736C297.378 298.992 296.838 299.12 296.214 299.12ZM296.214 297.968C296.686 297.968 297.062 297.804 297.342 297.476C297.622 297.14 297.762 296.636 297.762 295.964C297.762 295.292 297.622 294.792 297.342 294.464C297.062 294.136 296.686 293.972 296.214 293.972C295.742 293.972 295.366 294.136 295.086 294.464C294.806 294.792 294.666 295.292 294.666 295.964C294.666 296.636 294.806 297.14 295.086 297.476C295.366 297.804 295.742 297.968 296.214 297.968ZM300.929 299V294.068H299.765V292.94H301.349L300.929 293.324V292.4C300.929 291.648 301.121 291.08 301.505 290.696C301.897 290.312 302.469 290.12 303.221 290.12C303.397 290.12 303.581 290.132 303.773 290.156C303.973 290.18 304.145 290.224 304.289 290.288V291.464C304.185 291.424 304.061 291.392 303.917 291.368C303.773 291.344 303.633 291.332 303.497 291.332C303.289 291.332 303.101 291.372 302.933 291.452C302.773 291.532 302.645 291.656 302.549 291.824C302.461 291.984 302.417 292.2 302.417 292.472V293.204L302.201 292.94H304.013V294.068H302.429V299H300.929ZM308.232 299V290.168H309.732V299H308.232ZM311.361 299V292.94H312.861V299H311.361ZM311.277 291.8V290.336H312.945V291.8H311.277ZM316.266 299L313.65 292.94H315.246L317.142 297.68H316.77L318.714 292.94H320.214L317.586 299H316.266ZM321.017 299V292.94H322.517V299H321.017ZM320.933 291.8V290.336H322.601V291.8H320.933ZM324.146 299V294.452C324.146 294.204 324.138 293.952 324.122 293.696C324.106 293.44 324.082 293.188 324.05 292.94H325.502L325.622 294.14H325.478C325.67 293.716 325.954 293.392 326.33 293.168C326.706 292.936 327.142 292.82 327.638 292.82C328.35 292.82 328.886 293.02 329.246 293.42C329.606 293.82 329.786 294.444 329.786 295.292V299H328.286V295.364C328.286 294.876 328.19 294.528 327.998 294.32C327.814 294.104 327.534 293.996 327.158 293.996C326.694 293.996 326.326 294.14 326.054 294.428C325.782 294.716 325.646 295.1 325.646 295.58V299H324.146ZM334.185 301.688C333.625 301.688 333.117 301.628 332.661 301.508C332.213 301.388 331.813 301.204 331.461 300.956L331.785 299.876C332.017 300.028 332.257 300.152 332.505 300.248C332.753 300.344 333.009 300.416 333.273 300.464C333.537 300.512 333.805 300.536 334.077 300.536C334.637 300.536 335.053 300.396 335.325 300.116C335.605 299.844 335.745 299.452 335.745 298.94V297.488H335.865C335.737 297.904 335.477 298.236 335.085 298.484C334.701 298.732 334.257 298.856 333.753 298.856C333.209 298.856 332.733 298.736 332.325 298.496C331.925 298.248 331.613 297.896 331.389 297.44C331.165 296.984 331.053 296.448 331.053 295.832C331.053 295.216 331.165 294.684 331.389 294.236C331.613 293.78 331.925 293.432 332.325 293.192C332.733 292.944 333.209 292.82 333.753 292.82C334.265 292.82 334.709 292.944 335.085 293.192C335.469 293.432 335.725 293.76 335.853 294.176L335.745 294.104L335.865 292.94H337.317C337.285 293.188 337.261 293.44 337.245 293.696C337.229 293.952 337.221 294.204 337.221 294.452V298.76C337.221 299.712 336.961 300.436 336.441 300.932C335.929 301.436 335.177 301.688 334.185 301.688ZM334.161 297.704C334.641 297.704 335.021 297.544 335.301 297.224C335.589 296.896 335.733 296.432 335.733 295.832C335.733 295.232 335.589 294.772 335.301 294.452C335.021 294.132 334.641 293.972 334.161 293.972C333.673 293.972 333.285 294.132 332.997 294.452C332.709 294.772 332.565 295.232 332.565 295.832C332.565 296.432 332.709 296.896 332.997 297.224C333.285 297.544 333.673 297.704 334.161 297.704Z" class="w8" fill="#cb3335" />
<path d="M347.806 89.108C347.126 89.108 346.518 89.02 345.982 88.844C345.446 88.668 344.978 88.416 344.578 88.088L344.938 87.296C345.218 87.504 345.498 87.68 345.778 87.824C346.066 87.96 346.374 88.064 346.702 88.136C347.03 88.2 347.398 88.232 347.806 88.232C348.518 88.232 349.046 88.1 349.39 87.836C349.734 87.572 349.906 87.22 349.906 86.78C349.906 86.404 349.786 86.116 349.546 85.916C349.306 85.716 348.886 85.556 348.286 85.436L347.026 85.184C346.25 85.024 345.67 84.764 345.286 84.404C344.91 84.044 344.722 83.556 344.722 82.94C344.722 82.436 344.85 81.996 345.106 81.62C345.37 81.244 345.738 80.952 346.21 80.744C346.682 80.536 347.23 80.432 347.854 80.432C348.454 80.432 349.002 80.524 349.498 80.708C349.994 80.884 350.418 81.144 350.77 81.488L350.422 82.256C350.046 81.92 349.65 81.68 349.234 81.536C348.826 81.384 348.362 81.308 347.842 81.308C347.186 81.308 346.666 81.452 346.282 81.74C345.906 82.02 345.718 82.404 345.718 82.892C345.718 83.284 345.838 83.592 346.078 83.816C346.318 84.032 346.714 84.196 347.266 84.308L348.538 84.56C349.354 84.728 349.954 84.98 350.338 85.316C350.722 85.652 350.914 86.124 350.914 86.732C350.914 87.196 350.786 87.608 350.53 87.968C350.282 88.328 349.926 88.608 349.462 88.808C348.998 89.008 348.446 89.108 347.806 89.108ZM354.527 89.108C353.935 89.108 353.483 88.94 353.171 88.604C352.859 88.26 352.703 87.744 352.703 87.056V83.732H351.527V82.976H352.703V81.332L353.675 81.056V82.976H355.403V83.732H353.675V86.948C353.675 87.428 353.755 87.772 353.915 87.98C354.083 88.18 354.331 88.28 354.659 88.28C354.811 88.28 354.947 88.268 355.067 88.244C355.187 88.212 355.295 88.176 355.391 88.136V88.952C355.279 89 355.143 89.036 354.983 89.06C354.831 89.092 354.679 89.108 354.527 89.108ZM356.587 89V82.976H357.559V89H356.587ZM356.467 81.608V80.516H357.667V81.608H356.467ZM362.098 91.676C361.578 91.676 361.098 91.612 360.658 91.484C360.218 91.356 359.822 91.16 359.47 90.896L359.758 90.164C360.006 90.34 360.25 90.48 360.49 90.584C360.73 90.688 360.978 90.764 361.234 90.812C361.49 90.868 361.762 90.896 362.05 90.896C362.642 90.896 363.09 90.74 363.394 90.428C363.698 90.116 363.85 89.672 363.85 89.096V87.332H363.97C363.842 87.804 363.578 88.18 363.178 88.46C362.778 88.732 362.31 88.868 361.774 88.868C361.222 88.868 360.742 88.748 360.334 88.508C359.934 88.26 359.622 87.912 359.398 87.464C359.182 87.008 359.074 86.472 359.074 85.856C359.074 85.248 359.182 84.72 359.398 84.272C359.622 83.824 359.934 83.48 360.334 83.24C360.742 82.992 361.222 82.868 361.774 82.868C362.318 82.868 362.786 83.004 363.178 83.276C363.578 83.548 363.842 83.924 363.97 84.404L363.85 84.284L363.958 82.976H364.906C364.874 83.208 364.85 83.444 364.834 83.684C364.818 83.916 364.81 84.144 364.81 84.368V88.964C364.81 89.86 364.578 90.536 364.114 90.992C363.658 91.448 362.986 91.676 362.098 91.676ZM361.954 88.076C362.538 88.076 362.998 87.884 363.334 87.5C363.67 87.108 363.838 86.56 363.838 85.856C363.838 85.152 363.67 84.608 363.334 84.224C362.998 83.84 362.538 83.648 361.954 83.648C361.378 83.648 360.918 83.84 360.574 84.224C360.23 84.608 360.058 85.152 360.058 85.856C360.058 86.56 360.23 87.108 360.574 87.5C360.918 87.884 361.378 88.076 361.954 88.076ZM366.677 89V84.368C366.677 84.144 366.665 83.916 366.641 83.684C366.625 83.444 366.605 83.208 366.581 82.976H367.517L367.637 84.296H367.493C367.653 83.84 367.905 83.488 368.249 83.24C368.601 82.992 369.025 82.868 369.521 82.868C370.025 82.868 370.433 82.988 370.745 83.228C371.065 83.468 371.281 83.84 371.393 84.344H371.213C371.365 83.888 371.633 83.528 372.017 83.264C372.401 83 372.849 82.868 373.361 82.868C374.025 82.868 374.525 83.06 374.861 83.444C375.197 83.82 375.365 84.416 375.365 85.232V89H374.393V85.292C374.393 84.724 374.293 84.312 374.093 84.056C373.893 83.792 373.573 83.66 373.133 83.66C372.629 83.66 372.229 83.836 371.933 84.188C371.645 84.532 371.501 84.996 371.501 85.58V89H370.529V85.292C370.529 84.724 370.429 84.312 370.229 84.056C370.029 83.792 369.709 83.66 369.269 83.66C368.765 83.66 368.369 83.836 368.081 84.188C367.793 84.532 367.649 84.996 367.649 85.58V89H366.677ZM379.504 89.108C378.968 89.108 378.5 88.984 378.1 88.736C377.7 88.48 377.388 88.12 377.164 87.656C376.948 87.192 376.84 86.636 376.84 85.988C376.84 85.332 376.948 84.772 377.164 84.308C377.388 83.844 377.7 83.488 378.1 83.24C378.5 82.992 378.968 82.868 379.504 82.868C380.048 82.868 380.516 83.008 380.908 83.288C381.308 83.56 381.572 83.932 381.7 84.404H381.556L381.688 82.976H382.624C382.6 83.208 382.576 83.444 382.552 83.684C382.536 83.916 382.528 84.144 382.528 84.368V89H381.556V87.584H381.688C381.56 88.056 381.296 88.428 380.896 88.7C380.496 88.972 380.032 89.108 379.504 89.108ZM379.696 88.316C380.272 88.316 380.728 88.12 381.064 87.728C381.4 87.328 381.568 86.748 381.568 85.988C381.568 85.22 381.4 84.64 381.064 84.248C380.728 83.848 380.272 83.648 379.696 83.648C379.128 83.648 378.672 83.848 378.328 84.248C377.992 84.64 377.824 85.22 377.824 85.988C377.824 86.748 377.992 87.328 378.328 87.728C378.672 88.12 379.128 88.316 379.696 88.316ZM389.828 89.108C389.292 89.108 388.824 88.984 388.424 88.736C388.024 88.48 387.712 88.12 387.488 87.656C387.272 87.192 387.164 86.636 387.164 85.988C387.164 85.332 387.272 84.772 387.488 84.308C387.712 83.844 388.024 83.488 388.424 83.24C388.824 82.992 389.292 82.868 389.828 82.868C390.372 82.868 390.84 83.008 391.232 83.288C391.632 83.56 391.896 83.932 392.024 84.404H391.88L392.012 82.976H392.948C392.924 83.208 392.9 83.444 392.876 83.684C392.86 83.916 392.852 84.144 392.852 84.368V89H391.88V87.584H392.012C391.884 88.056 391.62 88.428 391.22 88.7C390.82 88.972 390.356 89.108 389.828 89.108ZM390.02 88.316C390.596 88.316 391.052 88.12 391.388 87.728C391.724 87.328 391.892 86.748 391.892 85.988C391.892 85.22 391.724 84.64 391.388 84.248C391.052 83.848 390.596 83.648 390.02 83.648C389.452 83.648 388.996 83.848 388.652 84.248C388.316 84.64 388.148 85.22 388.148 85.988C388.148 86.748 388.316 87.328 388.652 87.728C388.996 88.12 389.452 88.316 390.02 88.316ZM394.731 89V84.368C394.731 84.144 394.719 83.916 394.695 83.684C394.679 83.444 394.659 83.208 394.635 82.976H395.571L395.691 84.296H395.547C395.723 83.832 396.003 83.48 396.387 83.24C396.779 82.992 397.231 82.868 397.743 82.868C398.455 82.868 398.991 83.06 399.351 83.444C399.719 83.82 399.903 84.416 399.903 85.232V89H398.931V85.292C398.931 84.724 398.815 84.312 398.583 84.056C398.359 83.792 398.007 83.66 397.527 83.66C396.967 83.66 396.523 83.832 396.195 84.176C395.867 84.52 395.703 84.98 395.703 85.556V89H394.731ZM404.042 89.108C403.514 89.108 403.05 88.984 402.65 88.736C402.25 88.48 401.938 88.12 401.714 87.656C401.498 87.192 401.39 86.636 401.39 85.988C401.39 85.332 401.498 84.772 401.714 84.308C401.938 83.844 402.25 83.488 402.65 83.24C403.05 82.992 403.514 82.868 404.042 82.868C404.586 82.868 405.054 83.004 405.446 83.276C405.846 83.548 406.114 83.916 406.25 84.38H406.106V80.168H407.078V89H406.118V87.56H406.25C406.122 88.04 405.858 88.42 405.458 88.7C405.058 88.972 404.586 89.108 404.042 89.108ZM404.246 88.316C404.814 88.316 405.27 88.12 405.614 87.728C405.958 87.328 406.13 86.748 406.13 85.988C406.13 85.22 405.958 84.64 405.614 84.248C405.27 83.848 404.814 83.648 404.246 83.648C403.678 83.648 403.222 83.848 402.878 84.248C402.542 84.64 402.374 85.22 402.374 85.988C402.374 86.748 402.542 87.328 402.878 87.728C403.222 88.12 403.678 88.316 404.246 88.316ZM349.906 106.64C349.794 106.64 349.654 106.624 349.486 106.592C349.318 106.568 349.178 106.536 349.066 106.496V105.68C349.162 105.712 349.274 105.74 349.402 105.764C349.53 105.796 349.65 105.812 349.762 105.812C350.098 105.812 350.346 105.704 350.506 105.488C350.674 105.28 350.758 104.936 350.758 104.456V97.976H351.73V104.552C351.73 105.24 351.578 105.76 351.274 106.112C350.978 106.464 350.522 106.64 349.906 106.64ZM350.65 96.608V95.516H351.838V96.608H350.65ZM355.681 104.108C354.969 104.108 354.429 103.912 354.061 103.52C353.701 103.128 353.521 102.528 353.521 101.72V97.976H354.493V101.696C354.493 102.248 354.605 102.656 354.829 102.92C355.053 103.176 355.401 103.304 355.873 103.304C356.401 103.304 356.825 103.132 357.145 102.788C357.465 102.444 357.625 101.984 357.625 101.408V97.976H358.597V104H357.649V102.644H357.805C357.637 103.108 357.365 103.468 356.989 103.724C356.621 103.98 356.185 104.108 355.681 104.108ZM362.763 104.108C362.235 104.108 361.771 103.984 361.371 103.736C360.971 103.48 360.659 103.12 360.435 102.656C360.219 102.192 360.111 101.636 360.111 100.988C360.111 100.332 360.219 99.772 360.435 99.308C360.659 98.844 360.971 98.488 361.371 98.24C361.771 97.992 362.235 97.868 362.763 97.868C363.307 97.868 363.775 98.004 364.167 98.276C364.567 98.548 364.835 98.916 364.971 99.38H364.827V95.168H365.799V104H364.839V102.56H364.971C364.843 103.04 364.579 103.42 364.179 103.7C363.779 103.972 363.307 104.108 362.763 104.108ZM362.967 103.316C363.535 103.316 363.991 103.12 364.335 102.728C364.679 102.328 364.851 101.748 364.851 100.988C364.851 100.22 364.679 99.64 364.335 99.248C363.991 98.848 363.535 98.648 362.967 98.648C362.399 98.648 361.943 98.848 361.599 99.248C361.263 99.64 361.095 100.22 361.095 100.988C361.095 101.748 361.263 102.328 361.599 102.728C361.943 103.12 362.399 103.316 362.967 103.316ZM370.33 106.676C369.81 106.676 369.33 106.612 368.89 106.484C368.45 106.356 368.054 106.16 367.702 105.896L367.99 105.164C368.238 105.34 368.482 105.48 368.722 105.584C368.962 105.688 369.21 105.764 369.466 105.812C369.722 105.868 369.994 105.896 370.282 105.896C370.874 105.896 371.322 105.74 371.626 105.428C371.93 105.116 372.082 104.672 372.082 104.096V102.332H372.202C372.074 102.804 371.81 103.18 371.41 103.46C371.01 103.732 370.542 103.868 370.006 103.868C369.454 103.868 368.974 103.748 368.566 103.508C368.166 103.26 367.854 102.912 367.63 102.464C367.414 102.008 367.306 101.472 367.306 100.856C367.306 100.248 367.414 99.72 367.63 99.272C367.854 98.824 368.166 98.48 368.566 98.24C368.974 97.992 369.454 97.868 370.006 97.868C370.55 97.868 371.018 98.004 371.41 98.276C371.81 98.548 372.074 98.924 372.202 99.404L372.082 99.284L372.19 97.976H373.138C373.106 98.208 373.082 98.444 373.066 98.684C373.05 98.916 373.042 99.144 373.042 99.368V103.964C373.042 104.86 372.81 105.536 372.346 105.992C371.89 106.448 371.218 106.676 370.33 106.676ZM370.186 103.076C370.77 103.076 371.23 102.884 371.566 102.5C371.902 102.108 372.07 101.56 372.07 100.856C372.07 100.152 371.902 99.608 371.566 99.224C371.23 98.84 370.77 98.648 370.186 98.648C369.61 98.648 369.15 98.84 368.806 99.224C368.462 99.608 368.29 100.152 368.29 100.856C368.29 101.56 368.462 102.108 368.806 102.5C369.15 102.884 369.61 103.076 370.186 103.076ZM374.909 104V99.368C374.909 99.144 374.897 98.916 374.873 98.684C374.857 98.444 374.837 98.208 374.813 97.976H375.749L375.869 99.296H375.725C375.885 98.84 376.137 98.488 376.481 98.24C376.833 97.992 377.257 97.868 377.753 97.868C378.257 97.868 378.665 97.988 378.977 98.228C379.297 98.468 379.513 98.84 379.625 99.344H379.445C379.597 98.888 379.865 98.528 380.249 98.264C380.633 98 381.081 97.868 381.593 97.868C382.257 97.868 382.757 98.06 383.093 98.444C383.429 98.82 383.597 99.416 383.597 100.232V104H382.625V100.292C382.625 99.724 382.525 99.312 382.325 99.056C382.125 98.792 381.805 98.66 381.365 98.66C380.861 98.66 380.461 98.836 380.165 99.188C379.877 99.532 379.733 99.996 379.733 100.58V104H378.761V100.292C378.761 99.724 378.661 99.312 378.461 99.056C378.261 98.792 377.941 98.66 377.501 98.66C376.997 98.66 376.601 98.836 376.313 99.188C376.025 99.532 375.881 99.996 375.881 100.58V104H374.909ZM388.12 104.108C387.176 104.108 386.432 103.836 385.888 103.292C385.344 102.74 385.072 101.976 385.072 101C385.072 100.368 385.192 99.82 385.432 99.356C385.672 98.884 386.008 98.52 386.44 98.264C386.872 98 387.368 97.868 387.928 97.868C388.48 97.868 388.944 97.984 389.32 98.216C389.696 98.448 389.984 98.78 390.184 99.212C390.384 99.636 390.484 100.14 390.484 100.724V101.084H385.816V100.472H389.848L389.644 100.628C389.644 99.988 389.5 99.488 389.212 99.128C388.924 98.768 388.496 98.588 387.928 98.588C387.328 98.588 386.86 98.8 386.524 99.224C386.188 99.64 386.02 100.204 386.02 100.916V101.024C386.02 101.776 386.204 102.348 386.572 102.74C386.948 103.124 387.472 103.316 388.144 103.316C388.504 103.316 388.84 103.264 389.152 103.16C389.472 103.048 389.776 102.868 390.064 102.62L390.4 103.304C390.136 103.56 389.8 103.76 389.392 103.904C388.992 104.04 388.568 104.108 388.12 104.108ZM391.971 104V99.368C391.971 99.144 391.959 98.916 391.935 98.684C391.919 98.444 391.899 98.208 391.875 97.976H392.811L392.931 99.296H392.787C392.963 98.832 393.243 98.48 393.627 98.24C394.019 97.992 394.471 97.868 394.983 97.868C395.695 97.868 396.231 98.06 396.591 98.444C396.959 98.82 397.143 99.416 397.143 100.232V104H396.171V100.292C396.171 99.724 396.055 99.312 395.823 99.056C395.599 98.792 395.247 98.66 394.767 98.66C394.207 98.66 393.763 98.832 393.435 99.176C393.107 99.52 392.943 99.98 392.943 100.556V104H391.971ZM401.139 104.108C400.547 104.108 400.095 103.94 399.783 103.604C399.471 103.26 399.315 102.744 399.315 102.056V98.732H398.139V97.976H399.315V96.332L400.287 96.056V97.976H402.015V98.732H400.287V101.948C400.287 102.428 400.367 102.772 400.527 102.98C400.695 103.18 400.943 103.28 401.271 103.28C401.423 103.28 401.559 103.268 401.679 103.244C401.799 103.212 401.907 103.176 402.003 103.136V103.952C401.891 104 401.755 104.036 401.595 104.06C401.443 104.092 401.291 104.108 401.139 104.108Z" class="w7" fill="#000" />
<path d="M75.2539 292L79.0819 283.54H80.3779L84.2539 292H82.6819L81.6499 289.624L82.2739 290.044H77.1979L77.8459 289.624L76.8139 292H75.2539ZM79.7179 285.196L78.0259 289.204L77.7139 288.832H81.7459L81.4939 289.204L79.7659 285.196H79.7179ZM87.7953 292.12C87.1713 292.12 86.6233 291.992 86.1513 291.736C85.6873 291.48 85.3273 291.116 85.0713 290.644C84.8153 290.164 84.6873 289.596 84.6873 288.94C84.6873 288.284 84.8153 287.724 85.0713 287.26C85.3353 286.796 85.6993 286.44 86.1633 286.192C86.6273 285.944 87.1713 285.82 87.7953 285.82C88.1953 285.82 88.5833 285.884 88.9593 286.012C89.3433 286.132 89.6553 286.308 89.8953 286.54L89.4393 287.584C89.2233 287.384 88.9793 287.236 88.7073 287.14C88.4433 287.036 88.1833 286.984 87.9273 286.984C87.3913 286.984 86.9713 287.152 86.6673 287.488C86.3713 287.824 86.2233 288.312 86.2233 288.952C86.2233 289.592 86.3713 290.084 86.6673 290.428C86.9713 290.772 87.3913 290.944 87.9273 290.944C88.1753 290.944 88.4313 290.896 88.6953 290.8C88.9673 290.704 89.2153 290.556 89.4393 290.356L89.8953 291.388C89.6473 291.62 89.3313 291.8 88.9473 291.928C88.5713 292.056 88.1873 292.12 87.7953 292.12ZM93.725 292.12C93.101 292.12 92.553 291.992 92.081 291.736C91.617 291.48 91.257 291.116 91.001 290.644C90.745 290.164 90.617 289.596 90.617 288.94C90.617 288.284 90.745 287.724 91.001 287.26C91.265 286.796 91.629 286.44 92.093 286.192C92.557 285.944 93.101 285.82 93.725 285.82C94.125 285.82 94.513 285.884 94.889 286.012C95.273 286.132 95.585 286.308 95.825 286.54L95.369 287.584C95.153 287.384 94.909 287.236 94.637 287.14C94.373 287.036 94.113 286.984 93.857 286.984C93.321 286.984 92.901 287.152 92.597 287.488C92.301 287.824 92.153 288.312 92.153 288.952C92.153 289.592 92.301 290.084 92.597 290.428C92.901 290.772 93.321 290.944 93.857 290.944C94.105 290.944 94.361 290.896 94.625 290.8C94.897 290.704 95.145 290.556 95.369 290.356L95.825 291.388C95.577 291.62 95.261 291.8 94.877 291.928C94.501 292.056 94.117 292.12 93.725 292.12ZM99.6067 292.12C98.9827 292.12 98.4427 291.992 97.9867 291.736C97.5307 291.48 97.1747 291.116 96.9187 290.644C96.6707 290.172 96.5467 289.612 96.5467 288.964C96.5467 288.316 96.6707 287.76 96.9187 287.296C97.1747 286.824 97.5307 286.46 97.9867 286.204C98.4427 285.948 98.9827 285.82 99.6067 285.82C100.231 285.82 100.771 285.948 101.227 286.204C101.691 286.46 102.047 286.824 102.295 287.296C102.551 287.76 102.679 288.316 102.679 288.964C102.679 289.612 102.551 290.172 102.295 290.644C102.047 291.116 101.691 291.48 101.227 291.736C100.771 291.992 100.231 292.12 99.6067 292.12ZM99.6067 290.968C100.079 290.968 100.455 290.804 100.735 290.476C101.015 290.14 101.155 289.636 101.155 288.964C101.155 288.292 101.015 287.792 100.735 287.464C100.455 287.136 100.079 286.972 99.6067 286.972C99.1347 286.972 98.7587 287.136 98.4787 287.464C98.1987 287.792 98.0587 288.292 98.0587 288.964C98.0587 289.636 98.1987 290.14 98.4787 290.476C98.7587 290.804 99.1347 290.968 99.6067 290.968ZM103.972 292V287.452C103.972 287.204 103.964 286.952 103.948 286.696C103.932 286.44 103.908 286.188 103.876 285.94H105.328L105.448 287.14H105.304C105.472 286.724 105.728 286.4 106.072 286.168C106.424 285.936 106.84 285.82 107.32 285.82C107.8 285.82 108.196 285.936 108.508 286.168C108.828 286.392 109.052 286.744 109.18 287.224H108.988C109.156 286.792 109.432 286.452 109.816 286.204C110.2 285.948 110.64 285.82 111.136 285.82C111.816 285.82 112.324 286.02 112.66 286.42C112.996 286.82 113.164 287.444 113.164 288.292V292H111.664V288.352C111.664 287.872 111.584 287.528 111.424 287.32C111.264 287.104 111.008 286.996 110.656 286.996C110.24 286.996 109.912 287.144 109.672 287.44C109.432 287.728 109.312 288.12 109.312 288.616V292H107.812V288.352C107.812 287.872 107.732 287.528 107.572 287.32C107.412 287.104 107.156 286.996 106.804 286.996C106.388 286.996 106.06 287.144 105.82 287.44C105.588 287.728 105.472 288.12 105.472 288.616V292H103.972ZM114.765 292V287.452C114.765 287.204 114.757 286.952 114.741 286.696C114.725 286.44 114.701 286.188 114.669 285.94H116.121L116.241 287.14H116.097C116.265 286.724 116.521 286.4 116.865 286.168C117.217 285.936 117.633 285.82 118.113 285.82C118.593 285.82 118.989 285.936 119.301 286.168C119.621 286.392 119.845 286.744 119.973 287.224H119.781C119.949 286.792 120.225 286.452 120.609 286.204C120.993 285.948 121.433 285.82 121.929 285.82C122.609 285.82 123.117 286.02 123.453 286.42C123.789 286.82 123.957 287.444 123.957 288.292V292H122.457V288.352C122.457 287.872 122.377 287.528 122.217 287.32C122.057 287.104 121.801 286.996 121.449 286.996C121.033 286.996 120.705 287.144 120.465 287.44C120.225 287.728 120.105 288.12 120.105 288.616V292H118.605V288.352C118.605 287.872 118.525 287.528 118.365 287.32C118.205 287.104 117.949 286.996 117.597 286.996C117.181 286.996 116.853 287.144 116.613 287.44C116.381 287.728 116.265 288.12 116.265 288.616V292H114.765ZM128.294 292.12C127.67 292.12 127.13 291.992 126.674 291.736C126.218 291.48 125.862 291.116 125.606 290.644C125.358 290.172 125.234 289.612 125.234 288.964C125.234 288.316 125.358 287.76 125.606 287.296C125.862 286.824 126.218 286.46 126.674 286.204C127.13 285.948 127.67 285.82 128.294 285.82C128.918 285.82 129.458 285.948 129.914 286.204C130.378 286.46 130.734 286.824 130.982 287.296C131.238 287.76 131.366 288.316 131.366 288.964C131.366 289.612 131.238 290.172 130.982 290.644C130.734 291.116 130.378 291.48 129.914 291.736C129.458 291.992 128.918 292.12 128.294 292.12ZM128.294 290.968C128.766 290.968 129.142 290.804 129.422 290.476C129.702 290.14 129.842 289.636 129.842 288.964C129.842 288.292 129.702 287.792 129.422 287.464C129.142 287.136 128.766 286.972 128.294 286.972C127.822 286.972 127.446 287.136 127.166 287.464C126.886 287.792 126.746 288.292 126.746 288.964C126.746 289.636 126.886 290.14 127.166 290.476C127.446 290.804 127.822 290.968 128.294 290.968ZM135.012 292.12C134.484 292.12 134.016 291.996 133.608 291.748C133.208 291.492 132.896 291.128 132.672 290.656C132.448 290.184 132.336 289.62 132.336 288.964C132.336 288.308 132.448 287.748 132.672 287.284C132.896 286.812 133.208 286.452 133.608 286.204C134.016 285.948 134.484 285.82 135.012 285.82C135.516 285.82 135.96 285.944 136.344 286.192C136.736 286.432 136.996 286.76 137.124 287.176H136.968V283.168H138.468V292H136.992V290.716H137.136C137.008 291.148 136.748 291.492 136.356 291.748C135.972 291.996 135.524 292.12 135.012 292.12ZM135.432 290.968C135.904 290.968 136.284 290.804 136.572 290.476C136.86 290.14 137.004 289.636 137.004 288.964C137.004 288.292 136.86 287.792 136.572 287.464C136.284 287.136 135.904 286.972 135.432 286.972C134.96 286.972 134.576 287.136 134.28 287.464C133.992 287.792 133.848 288.292 133.848 288.964C133.848 289.636 133.992 290.14 134.28 290.476C134.576 290.804 134.96 290.968 135.432 290.968ZM142.441 292.12C141.913 292.12 141.449 291.996 141.049 291.748C140.649 291.492 140.337 291.128 140.113 290.656C139.889 290.184 139.777 289.62 139.777 288.964C139.777 288.308 139.889 287.748 140.113 287.284C140.337 286.812 140.649 286.452 141.049 286.204C141.449 285.948 141.913 285.82 142.441 285.82C142.953 285.82 143.401 285.948 143.785 286.204C144.177 286.452 144.437 286.788 144.565 287.212H144.433L144.565 285.94H146.005C145.981 286.188 145.957 286.44 145.933 286.696C145.917 286.952 145.909 287.204 145.909 287.452V292H144.421L144.409 290.752H144.553C144.425 291.168 144.165 291.5 143.773 291.748C143.381 291.996 142.937 292.12 142.441 292.12ZM142.861 290.968C143.333 290.968 143.713 290.804 144.001 290.476C144.289 290.14 144.433 289.636 144.433 288.964C144.433 288.292 144.289 287.792 144.001 287.464C143.713 287.136 143.333 286.972 142.861 286.972C142.389 286.972 142.009 287.136 141.721 287.464C141.433 287.792 141.289 288.292 141.289 288.964C141.289 289.636 141.429 290.14 141.709 290.476C141.997 290.804 142.381 290.968 142.861 290.968ZM150.135 292.12C149.415 292.12 148.871 291.932 148.503 291.556C148.135 291.18 147.951 290.616 147.951 289.864V287.068H146.787V285.94H147.951V284.392L149.451 284.008V285.94H151.071V287.068H149.451V289.768C149.451 290.184 149.531 290.476 149.691 290.644C149.851 290.812 150.071 290.896 150.351 290.896C150.503 290.896 150.631 290.884 150.735 290.86C150.847 290.836 150.955 290.804 151.059 290.764V291.952C150.923 292.008 150.771 292.048 150.603 292.072C150.443 292.104 150.287 292.12 150.135 292.12ZM152.089 292V285.94H153.589V292H152.089ZM152.005 284.8V283.336H153.673V284.8H152.005ZM157.954 292.12C157.33 292.12 156.79 291.992 156.334 291.736C155.878 291.48 155.522 291.116 155.266 290.644C155.018 290.172 154.894 289.612 154.894 288.964C154.894 288.316 155.018 287.76 155.266 287.296C155.522 286.824 155.878 286.46 156.334 286.204C156.79 285.948 157.33 285.82 157.954 285.82C158.578 285.82 159.118 285.948 159.574 286.204C160.038 286.46 160.394 286.824 160.642 287.296C160.898 287.76 161.026 288.316 161.026 288.964C161.026 289.612 160.898 290.172 160.642 290.644C160.394 291.116 160.038 291.48 159.574 291.736C159.118 291.992 158.578 292.12 157.954 292.12ZM157.954 290.968C158.426 290.968 158.802 290.804 159.082 290.476C159.362 290.14 159.502 289.636 159.502 288.964C159.502 288.292 159.362 287.792 159.082 287.464C158.802 287.136 158.426 286.972 157.954 286.972C157.482 286.972 157.106 287.136 156.826 287.464C156.546 287.792 156.406 288.292 156.406 288.964C156.406 289.636 156.546 290.14 156.826 290.476C157.106 290.804 157.482 290.968 157.954 290.968ZM162.32 292V287.452C162.32 287.204 162.312 286.952 162.296 286.696C162.28 286.44 162.256 286.188 162.224 285.94H163.676L163.796 287.14H163.652C163.844 286.716 164.128 286.392 164.504 286.168C164.88 285.936 165.316 285.82 165.812 285.82C166.524 285.82 167.06 286.02 167.42 286.42C167.78 286.82 167.96 287.444 167.96 288.292V292H166.46V288.364C166.46 287.876 166.364 287.528 166.172 287.32C165.988 287.104 165.708 286.996 165.332 286.996C164.868 286.996 164.5 287.14 164.228 287.428C163.956 287.716 163.82 288.1 163.82 288.58V292H162.32ZM171.71 292.12C171.19 292.12 170.71 292.06 170.27 291.94C169.838 291.812 169.474 291.636 169.178 291.412L169.598 290.404C169.902 290.612 170.238 290.772 170.606 290.884C170.974 290.996 171.346 291.052 171.722 291.052C172.122 291.052 172.418 290.984 172.61 290.848C172.81 290.712 172.91 290.528 172.91 290.296C172.91 290.112 172.846 289.968 172.718 289.864C172.598 289.752 172.402 289.668 172.13 289.612L170.93 289.384C170.418 289.272 170.026 289.08 169.754 288.808C169.49 288.536 169.358 288.18 169.358 287.74C169.358 287.364 169.458 287.032 169.658 286.744C169.866 286.456 170.158 286.232 170.534 286.072C170.918 285.904 171.366 285.82 171.878 285.82C172.326 285.82 172.746 285.88 173.138 286C173.538 286.12 173.874 286.3 174.146 286.54L173.714 287.512C173.466 287.312 173.182 287.156 172.862 287.044C172.542 286.932 172.23 286.876 171.926 286.876C171.51 286.876 171.206 286.952 171.014 287.104C170.822 287.248 170.726 287.436 170.726 287.668C170.726 287.844 170.782 287.992 170.894 288.112C171.014 288.224 171.198 288.308 171.446 288.364L172.646 288.592C173.182 288.696 173.586 288.88 173.858 289.144C174.138 289.4 174.278 289.752 174.278 290.2C174.278 290.6 174.17 290.944 173.954 291.232C173.738 291.52 173.438 291.74 173.054 291.892C172.67 292.044 172.222 292.12 171.71 292.12ZM106.06 307.12C105.532 307.12 105.068 306.996 104.668 306.748C104.268 306.492 103.956 306.128 103.732 305.656C103.508 305.184 103.396 304.62 103.396 303.964C103.396 303.308 103.508 302.748 103.732 302.284C103.956 301.812 104.268 301.452 104.668 301.204C105.068 300.948 105.532 300.82 106.06 300.82C106.572 300.82 107.02 300.948 107.404 301.204C107.796 301.452 108.056 301.788 108.184 302.212H108.052L108.184 300.94H109.624C109.6 301.188 109.576 301.44 109.552 301.696C109.536 301.952 109.528 302.204 109.528 302.452V307H108.04L108.028 305.752H108.172C108.044 306.168 107.784 306.5 107.392 306.748C107 306.996 106.556 307.12 106.06 307.12ZM106.48 305.968C106.952 305.968 107.332 305.804 107.62 305.476C107.908 305.14 108.052 304.636 108.052 303.964C108.052 303.292 107.908 302.792 107.62 302.464C107.332 302.136 106.952 301.972 106.48 301.972C106.008 301.972 105.628 302.136 105.34 302.464C105.052 302.792 104.908 303.292 104.908 303.964C104.908 304.636 105.048 305.14 105.328 305.476C105.616 305.804 106 305.968 106.48 305.968ZM113.754 307.12C113.034 307.12 112.49 306.932 112.122 306.556C111.754 306.18 111.57 305.616 111.57 304.864V302.068H110.406V300.94H111.57V299.392L113.07 299.008V300.94H114.69V302.068H113.07V304.768C113.07 305.184 113.15 305.476 113.31 305.644C113.47 305.812 113.69 305.896 113.97 305.896C114.122 305.896 114.25 305.884 114.354 305.86C114.466 305.836 114.574 305.804 114.678 305.764V306.952C114.542 307.008 114.39 307.048 114.222 307.072C114.062 307.104 113.906 307.12 113.754 307.12ZM120.682 307L118.318 300.94H119.866L121.57 305.656H121.258L122.986 300.94H124.054L125.77 305.656H125.494L127.186 300.94H128.65L126.286 307H124.966L123.154 302.176H123.79L122.014 307H120.682ZM132.214 307.12C131.59 307.12 131.05 306.992 130.594 306.736C130.138 306.48 129.782 306.116 129.526 305.644C129.278 305.172 129.154 304.612 129.154 303.964C129.154 303.316 129.278 302.76 129.526 302.296C129.782 301.824 130.138 301.46 130.594 301.204C131.05 300.948 131.59 300.82 132.214 300.82C132.838 300.82 133.378 300.948 133.834 301.204C134.298 301.46 134.654 301.824 134.902 302.296C135.158 302.76 135.286 303.316 135.286 303.964C135.286 304.612 135.158 305.172 134.902 305.644C134.654 306.116 134.298 306.48 133.834 306.736C133.378 306.992 132.838 307.12 132.214 307.12ZM132.214 305.968C132.686 305.968 133.062 305.804 133.342 305.476C133.622 305.14 133.762 304.636 133.762 303.964C133.762 303.292 133.622 302.792 133.342 302.464C133.062 302.136 132.686 301.972 132.214 301.972C131.742 301.972 131.366 302.136 131.086 302.464C130.806 302.792 130.666 303.292 130.666 303.964C130.666 304.636 130.806 305.14 131.086 305.476C131.366 305.804 131.742 305.968 132.214 305.968ZM136.568 307V302.488C136.568 302.232 136.56 301.972 136.544 301.708C136.536 301.444 136.516 301.188 136.484 300.94H137.936L138.104 302.596H137.864C137.944 302.196 138.076 301.864 138.26 301.6C138.452 301.336 138.684 301.14 138.956 301.012C139.228 300.884 139.524 300.82 139.844 300.82C139.988 300.82 140.104 300.828 140.192 300.844C140.28 300.852 140.368 300.872 140.456 300.904L140.444 302.224C140.292 302.16 140.16 302.12 140.048 302.104C139.944 302.088 139.812 302.08 139.652 302.08C139.308 302.08 139.016 302.152 138.776 302.296C138.544 302.44 138.368 302.64 138.248 302.896C138.136 303.152 138.08 303.444 138.08 303.772V307H136.568ZM141.291 307V298.168H142.791V303.52H142.815L145.275 300.94H147.087L144.027 304.144L144.039 303.544L147.303 307H145.443L142.815 304.288H142.791V307H141.291Z" class="w8" fill="#cb3335" />
<path d="M4.04994 190.12C2.84194 190.12 1.94194 189.82 1.34994 189.22C0.765938 188.612 0.473938 187.716 0.473938 186.532L0.473938 181.54H2.02194V186.52C2.02194 187.272 2.18194 187.84 2.50194 188.224C2.82994 188.608 3.34594 188.8 4.04994 188.8C4.72194 188.8 5.22594 188.608 5.56194 188.224C5.90594 187.84 6.07794 187.272 6.07794 186.52V181.54H7.60194V186.532C7.60194 187.716 7.30194 188.612 6.70194 189.22C6.10994 189.82 5.22594 190.12 4.04994 190.12ZM9.28475 190V185.452C9.28475 185.204 9.27675 184.952 9.26075 184.696C9.24475 184.44 9.22075 184.188 9.18875 183.94H10.6408L10.7608 185.14H10.6168C10.8088 184.716 11.0928 184.392 11.4688 184.168C11.8448 183.936 12.2808 183.82 12.7768 183.82C13.4888 183.82 14.0248 184.02 14.3848 184.42C14.7448 184.82 14.9248 185.444 14.9248 186.292V190H13.4248V186.364C13.4248 185.876 13.3288 185.528 13.1368 185.32C12.9528 185.104 12.6728 184.996 12.2968 184.996C11.8328 184.996 11.4648 185.14 11.1928 185.428C10.9208 185.716 10.7848 186.1 10.7848 186.58V190H9.28475ZM19.4432 190.12C18.4272 190.12 17.6312 189.84 17.0552 189.28C16.4792 188.72 16.1912 187.952 16.1912 186.976C16.1912 186.344 16.3152 185.792 16.5632 185.32C16.8112 184.848 17.1552 184.48 17.5952 184.216C18.0432 183.952 18.5632 183.82 19.1552 183.82C19.7392 183.82 20.2272 183.944 20.6192 184.192C21.0112 184.44 21.3072 184.788 21.5072 185.236C21.7152 185.684 21.8192 186.208 21.8192 186.808V187.204H17.4032V186.412H20.7512L20.5472 186.58C20.5472 186.02 20.4272 185.592 20.1872 185.296C19.9552 185 19.6152 184.852 19.1672 184.852C18.6712 184.852 18.2872 185.028 18.0152 185.38C17.7512 185.732 17.6192 186.224 17.6192 186.856V187.012C17.6192 187.668 17.7792 188.16 18.0992 188.488C18.4272 188.808 18.8872 188.968 19.4792 188.968C19.8232 188.968 20.1432 188.924 20.4392 188.836C20.7432 188.74 21.0312 188.588 21.3032 188.38L21.7472 189.388C21.4592 189.62 21.1152 189.8 20.7152 189.928C20.3152 190.056 19.8912 190.12 19.4432 190.12ZM22.1183 190L24.9383 186.532V187.216L22.2743 183.94H24.0503L25.7903 186.184H25.2503L26.9903 183.94H28.7543L26.1143 187.216V186.532L28.9223 190H27.1343L25.2503 187.588H25.7903L23.8943 190H22.1183ZM29.6402 192.592V185.452C29.6402 185.204 29.6322 184.952 29.6162 184.696C29.6002 184.44 29.5762 184.188 29.5442 183.94H30.9962L31.1282 185.212H30.9962C31.1162 184.788 31.3682 184.452 31.7522 184.204C32.1442 183.948 32.5962 183.82 33.1082 183.82C33.6442 183.82 34.1122 183.948 34.5122 184.204C34.9122 184.452 35.2242 184.812 35.4482 185.284C35.6722 185.748 35.7842 186.308 35.7842 186.964C35.7842 187.62 35.6722 188.184 35.4482 188.656C35.2242 189.128 34.9122 189.492 34.5122 189.748C34.1122 189.996 33.6442 190.12 33.1082 190.12C32.6042 190.12 32.1602 189.996 31.7762 189.748C31.3922 189.5 31.1362 189.168 31.0082 188.752H31.1402V192.592H29.6402ZM32.6882 188.968C33.1682 188.968 33.5522 188.804 33.8402 188.476C34.1282 188.14 34.2722 187.636 34.2722 186.964C34.2722 186.292 34.1282 185.792 33.8402 185.464C33.5522 185.136 33.1682 184.972 32.6882 184.972C32.2162 184.972 31.8362 185.136 31.5482 185.464C31.2602 185.792 31.1162 186.292 31.1162 186.964C31.1162 187.636 31.2602 188.14 31.5482 188.476C31.8362 188.804 32.2162 188.968 32.6882 188.968ZM40.0096 190.12C38.9936 190.12 38.1976 189.84 37.6216 189.28C37.0456 188.72 36.7576 187.952 36.7576 186.976C36.7576 186.344 36.8816 185.792 37.1296 185.32C37.3776 184.848 37.7216 184.48 38.1616 184.216C38.6096 183.952 39.1296 183.82 39.7216 183.82C40.3056 183.82 40.7936 183.944 41.1856 184.192C41.5776 184.44 41.8736 184.788 42.0736 185.236C42.2816 185.684 42.3856 186.208 42.3856 186.808V187.204H37.9696V186.412H41.3176L41.1136 186.58C41.1136 186.02 40.9936 185.592 40.7536 185.296C40.5216 185 40.1816 184.852 39.7336 184.852C39.2376 184.852 38.8536 185.028 38.5816 185.38C38.3176 185.732 38.1856 186.224 38.1856 186.856V187.012C38.1856 187.668 38.3456 188.16 38.6656 188.488C38.9936 188.808 39.4536 188.968 40.0456 188.968C40.3896 188.968 40.7096 188.924 41.0056 188.836C41.3096 188.74 41.5976 188.588 41.8696 188.38L42.3136 189.388C42.0256 189.62 41.6816 189.8 41.2816 189.928C40.8816 190.056 40.4576 190.12 40.0096 190.12ZM46.4398 190.12C45.8158 190.12 45.2678 189.992 44.7958 189.736C44.3318 189.48 43.9718 189.116 43.7158 188.644C43.4598 188.164 43.3318 187.596 43.3318 186.94C43.3318 186.284 43.4598 185.724 43.7158 185.26C43.9798 184.796 44.3438 184.44 44.8078 184.192C45.2718 183.944 45.8158 183.82 46.4398 183.82C46.8398 183.82 47.2278 183.884 47.6038 184.012C47.9878 184.132 48.2998 184.308 48.5398 184.54L48.0838 185.584C47.8678 185.384 47.6238 185.236 47.3518 185.14C47.0878 185.036 46.8278 184.984 46.5718 184.984C46.0358 184.984 45.6158 185.152 45.3118 185.488C45.0158 185.824 44.8678 186.312 44.8678 186.952C44.8678 187.592 45.0158 188.084 45.3118 188.428C45.6158 188.772 46.0358 188.944 46.5718 188.944C46.8198 188.944 47.0758 188.896 47.3398 188.8C47.6118 188.704 47.8598 188.556 48.0838 188.356L48.5398 189.388C48.2918 189.62 47.9758 189.8 47.5918 189.928C47.2158 190.056 46.8318 190.12 46.4398 190.12ZM52.3182 190.12C51.5982 190.12 51.0542 189.932 50.6862 189.556C50.3182 189.18 50.1342 188.616 50.1342 187.864V185.068H48.9702V183.94H50.1342V182.392L51.6342 182.008V183.94H53.2542V185.068H51.6342V187.768C51.6342 188.184 51.7142 188.476 51.8742 188.644C52.0342 188.812 52.2542 188.896 52.5342 188.896C52.6862 188.896 52.8142 188.884 52.9182 188.86C53.0302 188.836 53.1382 188.804 53.2422 188.764V189.952C53.1062 190.008 52.9542 190.048 52.7862 190.072C52.6262 190.104 52.4702 190.12 52.3182 190.12ZM57.1424 190.12C56.1264 190.12 55.3304 189.84 54.7544 189.28C54.1784 188.72 53.8904 187.952 53.8904 186.976C53.8904 186.344 54.0144 185.792 54.2624 185.32C54.5104 184.848 54.8544 184.48 55.2944 184.216C55.7424 183.952 56.2624 183.82 56.8544 183.82C57.4384 183.82 57.9264 183.944 58.3184 184.192C58.7104 184.44 59.0064 184.788 59.2064 185.236C59.4144 185.684 59.5184 186.208 59.5184 186.808V187.204H55.1024V186.412H58.4504L58.2464 186.58C58.2464 186.02 58.1264 185.592 57.8864 185.296C57.6544 185 57.3144 184.852 56.8664 184.852C56.3704 184.852 55.9864 185.028 55.7144 185.38C55.4504 185.732 55.3184 186.224 55.3184 186.856V187.012C55.3184 187.668 55.4784 188.16 55.7984 188.488C56.1264 188.808 56.5864 188.968 57.1784 188.968C57.5224 188.968 57.8424 188.924 58.1384 188.836C58.4424 188.74 58.7304 188.588 59.0024 188.38L59.4464 189.388C59.1584 189.62 58.8144 189.8 58.4144 189.928C58.0144 190.056 57.5904 190.12 57.1424 190.12ZM63.1407 190.12C62.6127 190.12 62.1447 189.996 61.7367 189.748C61.3367 189.492 61.0247 189.128 60.8007 188.656C60.5767 188.184 60.4647 187.62 60.4647 186.964C60.4647 186.308 60.5767 185.748 60.8007 185.284C61.0247 184.812 61.3367 184.452 61.7367 184.204C62.1447 183.948 62.6127 183.82 63.1407 183.82C63.6447 183.82 64.0887 183.944 64.4727 184.192C64.8647 184.432 65.1247 184.76 65.2527 185.176H65.0967V181.168H66.5967V190H65.1207V188.716H65.2647C65.1367 189.148 64.8767 189.492 64.4847 189.748C64.1007 189.996 63.6527 190.12 63.1407 190.12ZM63.5607 188.968C64.0327 188.968 64.4127 188.804 64.7007 188.476C64.9887 188.14 65.1327 187.636 65.1327 186.964C65.1327 186.292 64.9887 185.792 64.7007 185.464C64.4127 185.136 64.0327 184.972 63.5607 184.972C63.0887 184.972 62.7047 185.136 62.4087 185.464C62.1207 185.792 61.9767 186.292 61.9767 186.964C61.9767 187.636 62.1207 188.14 62.4087 188.476C62.7047 188.804 63.0887 188.968 63.5607 188.968ZM18.617 205.12C17.601 205.12 16.805 204.84 16.229 204.28C15.653 203.72 15.365 202.952 15.365 201.976C15.365 201.344 15.489 200.792 15.737 200.32C15.985 199.848 16.329 199.48 16.769 199.216C17.217 198.952 17.737 198.82 18.329 198.82C18.913 198.82 19.401 198.944 19.793 199.192C20.185 199.44 20.481 199.788 20.681 200.236C20.889 200.684 20.993 201.208 20.993 201.808V202.204H16.577V201.412H19.925L19.721 201.58C19.721 201.02 19.601 200.592 19.361 200.296C19.129 200 18.789 199.852 18.341 199.852C17.845 199.852 17.461 200.028 17.189 200.38C16.925 200.732 16.793 201.224 16.793 201.856V202.012C16.793 202.668 16.953 203.16 17.273 203.488C17.601 203.808 18.061 203.968 18.653 203.968C18.997 203.968 19.317 203.924 19.613 203.836C19.917 203.74 20.205 203.588 20.477 203.38L20.921 204.388C20.633 204.62 20.289 204.8 19.889 204.928C19.489 205.056 19.065 205.12 18.617 205.12ZM23.9455 205L21.3295 198.94H22.9255L24.8215 203.68H24.4495L26.3935 198.94H27.8935L25.2655 205H23.9455ZM31.5077 205.12C30.4917 205.12 29.6957 204.84 29.1197 204.28C28.5437 203.72 28.2557 202.952 28.2557 201.976C28.2557 201.344 28.3797 200.792 28.6277 200.32C28.8757 199.848 29.2197 199.48 29.6597 199.216C30.1077 198.952 30.6277 198.82 31.2197 198.82C31.8037 198.82 32.2917 198.944 32.6837 199.192C33.0757 199.44 33.3717 199.788 33.5717 200.236C33.7797 200.684 33.8837 201.208 33.8837 201.808V202.204H29.4677V201.412H32.8157L32.6117 201.58C32.6117 201.02 32.4917 200.592 32.2517 200.296C32.0197 200 31.6797 199.852 31.2317 199.852C30.7357 199.852 30.3517 200.028 30.0797 200.38C29.8157 200.732 29.6837 201.224 29.6837 201.856V202.012C29.6837 202.668 29.8437 203.16 30.1637 203.488C30.4917 203.808 30.9517 203.968 31.5437 203.968C31.8877 203.968 32.2077 203.924 32.5037 203.836C32.8077 203.74 33.0957 203.588 33.3677 203.38L33.8117 204.388C33.5237 204.62 33.1797 204.8 32.7797 204.928C32.3797 205.056 31.9557 205.12 31.5077 205.12ZM35.1539 205V200.452C35.1539 200.204 35.1459 199.952 35.1299 199.696C35.1139 199.44 35.0899 199.188 35.0579 198.94H36.5099L36.6299 200.14H36.4859C36.6779 199.716 36.9619 199.392 37.3379 199.168C37.7139 198.936 38.1499 198.82 38.6459 198.82C39.3579 198.82 39.8939 199.02 40.2539 199.42C40.6139 199.82 40.7939 200.444 40.7939 201.292V205H39.2939V201.364C39.2939 200.876 39.1979 200.528 39.0059 200.32C38.8219 200.104 38.5419 199.996 38.1659 199.996C37.7019 199.996 37.3339 200.14 37.0619 200.428C36.7899 200.716 36.6539 201.1 36.6539 201.58V205H35.1539ZM44.9764 205.12C44.2564 205.12 43.7124 204.932 43.3444 204.556C42.9764 204.18 42.7924 203.616 42.7924 202.864V200.068H41.6284V198.94H42.7924V197.392L44.2924 197.008V198.94H45.9124V200.068H44.2924V202.768C44.2924 203.184 44.3724 203.476 44.5324 203.644C44.6924 203.812 44.9124 203.896 45.1924 203.896C45.3444 203.896 45.4724 203.884 45.5764 203.86C45.6884 203.836 45.7964 203.804 45.9004 203.764V204.952C45.7644 205.008 45.6124 205.048 45.4444 205.072C45.2844 205.104 45.1284 205.12 44.9764 205.12ZM49.0912 205.12C48.5712 205.12 48.0912 205.06 47.6512 204.94C47.2192 204.812 46.8552 204.636 46.5592 204.412L46.9792 203.404C47.2832 203.612 47.6192 203.772 47.9872 203.884C48.3552 203.996 48.7272 204.052 49.1032 204.052C49.5032 204.052 49.7992 203.984 49.9912 203.848C50.1912 203.712 50.2912 203.528 50.2912 203.296C50.2912 203.112 50.2272 202.968 50.0992 202.864C49.9792 202.752 49.7832 202.668 49.5112 202.612L48.3112 202.384C47.7992 202.272 47.4072 202.08 47.1352 201.808C46.8712 201.536 46.7392 201.18 46.7392 200.74C46.7392 200.364 46.8392 200.032 47.0392 199.744C47.2472 199.456 47.5392 199.232 47.9152 199.072C48.2992 198.904 48.7472 198.82 49.2592 198.82C49.7072 198.82 50.1272 198.88 50.5192 199C50.9192 199.12 51.2552 199.3 51.5272 199.54L51.0952 200.512C50.8472 200.312 50.5632 200.156 50.2432 200.044C49.9232 199.932 49.6112 199.876 49.3072 199.876C48.8912 199.876 48.5872 199.952 48.3952 200.104C48.2032 200.248 48.1072 200.436 48.1072 200.668C48.1072 200.844 48.1632 200.992 48.2752 201.112C48.3952 201.224 48.5792 201.308 48.8272 201.364L50.0272 201.592C50.5632 201.696 50.9672 201.88 51.2392 202.144C51.5192 202.4 51.6592 202.752 51.6592 203.2C51.6592 203.6 51.5512 203.944 51.3352 204.232C51.1192 204.52 50.8192 204.74 50.4352 204.892C50.0512 205.044 49.6032 205.12 49.0912 205.12Z" class="w8" fill="#cb3335" />
<path d="M266.063 15L263.111 6.54H264.155L266.735 14.16H266.315L269.027 6.54H269.819L272.387 14.16H272.003L274.655 6.54H275.639L272.663 15H271.775L269.279 7.668H269.531L266.927 15H266.063ZM276.999 15V6.168H277.971V10.308H277.815C277.983 9.836 278.263 9.48 278.655 9.24C279.055 8.992 279.515 8.868 280.035 8.868C280.755 8.868 281.291 9.064 281.643 9.456C281.995 9.84 282.171 10.424 282.171 11.208V15H281.199V11.268C281.199 10.708 281.087 10.3 280.863 10.044C280.647 9.788 280.295 9.66 279.807 9.66C279.247 9.66 278.799 9.832 278.463 10.176C278.135 10.52 277.971 10.972 277.971 11.532V15H276.999ZM286.706 15.108C285.762 15.108 285.018 14.836 284.474 14.292C283.93 13.74 283.658 12.976 283.658 12C283.658 11.368 283.778 10.82 284.018 10.356C284.258 9.884 284.594 9.52 285.026 9.264C285.458 9 285.954 8.868 286.514 8.868C287.066 8.868 287.53 8.984 287.906 9.216C288.282 9.448 288.57 9.78 288.77 10.212C288.97 10.636 289.07 11.14 289.07 11.724V12.084H284.402V11.472H288.434L288.23 11.628C288.23 10.988 288.086 10.488 287.798 10.128C287.51 9.768 287.082 9.588 286.514 9.588C285.914 9.588 285.446 9.8 285.11 10.224C284.774 10.64 284.606 11.204 284.606 11.916V12.024C284.606 12.776 284.79 13.348 285.158 13.74C285.534 14.124 286.058 14.316 286.73 14.316C287.09 14.316 287.426 14.264 287.738 14.16C288.058 14.048 288.362 13.868 288.65 13.62L288.986 14.304C288.722 14.56 288.386 14.76 287.978 14.904C287.578 15.04 287.154 15.108 286.706 15.108ZM290.533 15V10.428C290.533 10.188 290.525 9.944 290.509 9.696C290.501 9.448 290.485 9.208 290.461 8.976H291.397L291.517 10.44L291.349 10.452C291.429 10.092 291.569 9.796 291.769 9.564C291.969 9.332 292.205 9.16 292.477 9.048C292.749 8.928 293.033 8.868 293.329 8.868C293.449 8.868 293.553 8.872 293.641 8.88C293.737 8.888 293.825 8.908 293.905 8.94L293.893 9.804C293.773 9.764 293.661 9.74 293.557 9.732C293.461 9.716 293.349 9.708 293.221 9.708C292.869 9.708 292.561 9.792 292.297 9.96C292.041 10.128 291.845 10.344 291.709 10.608C291.581 10.872 291.517 11.152 291.517 11.448V15H290.533ZM297.522 15.108C296.578 15.108 295.834 14.836 295.29 14.292C294.746 13.74 294.474 12.976 294.474 12C294.474 11.368 294.594 10.82 294.834 10.356C295.074 9.884 295.41 9.52 295.842 9.264C296.274 9 296.77 8.868 297.33 8.868C297.882 8.868 298.346 8.984 298.722 9.216C299.098 9.448 299.386 9.78 299.586 10.212C299.786 10.636 299.886 11.14 299.886 11.724V12.084H295.218V11.472H299.25L299.046 11.628C299.046 10.988 298.902 10.488 298.614 10.128C298.326 9.768 297.898 9.588 297.33 9.588C296.73 9.588 296.262 9.8 295.926 10.224C295.59 10.64 295.422 11.204 295.422 11.916V12.024C295.422 12.776 295.606 13.348 295.974 13.74C296.35 14.124 296.874 14.316 297.546 14.316C297.906 14.316 298.242 14.264 298.554 14.16C298.874 14.048 299.178 13.868 299.466 13.62L299.802 14.304C299.538 14.56 299.202 14.76 298.794 14.904C298.394 15.04 297.97 15.108 297.522 15.108ZM304.263 17.724L304.035 16.92C304.411 16.832 304.723 16.728 304.971 16.608C305.227 16.496 305.439 16.344 305.607 16.152C305.775 15.96 305.919 15.72 306.039 15.432L306.351 14.724L306.327 15.132L303.699 8.976H304.755L306.927 14.268H306.615L308.763 8.976H309.783L306.999 15.504C306.839 15.888 306.663 16.208 306.471 16.464C306.279 16.728 306.071 16.94 305.847 17.1C305.631 17.268 305.391 17.4 305.127 17.496C304.863 17.592 304.575 17.668 304.263 17.724ZM313.268 15.108C312.692 15.108 312.188 14.984 311.756 14.736C311.332 14.48 311.004 14.12 310.772 13.656C310.54 13.184 310.424 12.628 310.424 11.988C310.424 11.34 310.54 10.784 310.772 10.32C311.004 9.856 311.332 9.5 311.756 9.252C312.188 8.996 312.692 8.868 313.268 8.868C313.852 8.868 314.356 8.996 314.78 9.252C315.212 9.5 315.544 9.856 315.776 10.32C316.016 10.784 316.136 11.34 316.136 11.988C316.136 12.628 316.016 13.184 315.776 13.656C315.544 14.12 315.212 14.48 314.78 14.736C314.356 14.984 313.852 15.108 313.268 15.108ZM313.268 14.316C313.844 14.316 314.3 14.12 314.636 13.728C314.972 13.328 315.14 12.748 315.14 11.988C315.14 11.22 314.968 10.64 314.624 10.248C314.288 9.848 313.836 9.648 313.268 9.648C312.7 9.648 312.248 9.848 311.912 10.248C311.576 10.64 311.408 11.22 311.408 11.988C311.408 12.748 311.576 13.328 311.912 13.728C312.248 14.12 312.7 14.316 313.268 14.316ZM319.775 15.108C319.063 15.108 318.523 14.912 318.155 14.52C317.795 14.128 317.615 13.528 317.615 12.72V8.976H318.587V12.696C318.587 13.248 318.699 13.656 318.923 13.92C319.147 14.176 319.495 14.304 319.967 14.304C320.495 14.304 320.919 14.132 321.239 13.788C321.559 13.444 321.719 12.984 321.719 12.408V8.976H322.691V15H321.743V13.644H321.899C321.731 14.108 321.459 14.468 321.083 14.724C320.715 14.98 320.279 15.108 319.775 15.108ZM327.706 15V6.168H328.678V15H327.706ZM330.565 15V8.976H331.537V15H330.565ZM330.445 7.608V6.516H331.645V7.608H330.445ZM335.201 15L332.621 8.976H333.677L335.837 14.28H335.513L337.697 8.976H338.705L336.125 15H335.201ZM342.394 15.108C341.45 15.108 340.706 14.836 340.162 14.292C339.618 13.74 339.346 12.976 339.346 12C339.346 11.368 339.466 10.82 339.706 10.356C339.946 9.884 340.282 9.52 340.714 9.264C341.146 9 341.642 8.868 342.202 8.868C342.754 8.868 343.218 8.984 343.594 9.216C343.97 9.448 344.258 9.78 344.458 10.212C344.658 10.636 344.758 11.14 344.758 11.724V12.084H340.09V11.472H344.122L343.918 11.628C343.918 10.988 343.774 10.488 343.486 10.128C343.198 9.768 342.77 9.588 342.202 9.588C341.602 9.588 341.134 9.8 340.798 10.224C340.462 10.64 340.294 11.204 340.294 11.916V12.024C340.294 12.776 340.478 13.348 340.846 13.74C341.222 14.124 341.746 14.316 342.418 14.316C342.778 14.316 343.114 14.264 343.426 14.16C343.746 14.048 344.05 13.868 344.338 13.62L344.674 14.304C344.41 14.56 344.074 14.76 343.666 14.904C343.266 15.04 342.842 15.108 342.394 15.108Z" class="w7" fill="#000" />
<path d="M46.4603 15V6.54H47.4563V15H46.4603ZM49.4578 15V10.368C49.4578 10.144 49.4458 9.916 49.4218 9.684C49.4058 9.444 49.3858 9.208 49.3618 8.976H50.2978L50.4178 10.296H50.2738C50.4338 9.84 50.6858 9.488 51.0298 9.24C51.3818 8.992 51.8058 8.868 52.3018 8.868C52.8058 8.868 53.2138 8.988 53.5258 9.228C53.8458 9.468 54.0618 9.84 54.1738 10.344H53.9938C54.1458 9.888 54.4138 9.528 54.7978 9.264C55.1818 9 55.6298 8.868 56.1418 8.868C56.8058 8.868 57.3058 9.06 57.6418 9.444C57.9778 9.82 58.1458 10.416 58.1458 11.232V15H57.1738V11.292C57.1738 10.724 57.0738 10.312 56.8738 10.056C56.6738 9.792 56.3538 9.66 55.9138 9.66C55.4098 9.66 55.0098 9.836 54.7138 10.188C54.4258 10.532 54.2818 10.996 54.2818 11.58V15H53.3098V11.292C53.3098 10.724 53.2098 10.312 53.0098 10.056C52.8098 9.792 52.4898 9.66 52.0498 9.66C51.5458 9.66 51.1498 9.836 50.8618 10.188C50.5738 10.532 50.4298 10.996 50.4298 11.58V15H49.4578ZM59.9929 15V10.368C59.9929 10.144 59.9809 9.916 59.9569 9.684C59.9409 9.444 59.9209 9.208 59.8969 8.976H60.8329L60.9529 10.296H60.8089C60.9689 9.84 61.2209 9.488 61.5649 9.24C61.9169 8.992 62.3409 8.868 62.8369 8.868C63.3409 8.868 63.7489 8.988 64.0609 9.228C64.3809 9.468 64.5969 9.84 64.7089 10.344H64.5289C64.6809 9.888 64.9489 9.528 65.3329 9.264C65.7169 9 66.1649 8.868 66.6769 8.868C67.3409 8.868 67.8409 9.06 68.1769 9.444C68.5129 9.82 68.6809 10.416 68.6809 11.232V15H67.7089V11.292C67.7089 10.724 67.6089 10.312 67.4089 10.056C67.2089 9.792 66.8889 9.66 66.4489 9.66C65.9449 9.66 65.5449 9.836 65.2489 10.188C64.9609 10.532 64.8169 10.996 64.8169 11.58V15H63.8449V11.292C63.8449 10.724 63.7449 10.312 63.5449 10.056C63.3449 9.792 63.0249 9.66 62.5849 9.66C62.0809 9.66 61.6849 9.836 61.3969 10.188C61.1089 10.532 60.9649 10.996 60.9649 11.58V15H59.9929ZM70.5281 15V8.976H71.5001V15H70.5281ZM70.4081 7.608V6.516H71.6081V7.608H70.4081ZM76.0395 17.676C75.5195 17.676 75.0395 17.612 74.5995 17.484C74.1595 17.356 73.7635 17.16 73.4115 16.896L73.6995 16.164C73.9475 16.34 74.1915 16.48 74.4315 16.584C74.6715 16.688 74.9195 16.764 75.1755 16.812C75.4315 16.868 75.7035 16.896 75.9915 16.896C76.5835 16.896 77.0315 16.74 77.3355 16.428C77.6395 16.116 77.7915 15.672 77.7915 15.096V13.332H77.9115C77.7835 13.804 77.5195 14.18 77.1195 14.46C76.7195 14.732 76.2515 14.868 75.7155 14.868C75.1635 14.868 74.6835 14.748 74.2755 14.508C73.8755 14.26 73.5635 13.912 73.3395 13.464C73.1235 13.008 73.0155 12.472 73.0155 11.856C73.0155 11.248 73.1235 10.72 73.3395 10.272C73.5635 9.824 73.8755 9.48 74.2755 9.24C74.6835 8.992 75.1635 8.868 75.7155 8.868C76.2595 8.868 76.7275 9.004 77.1195 9.276C77.5195 9.548 77.7835 9.924 77.9115 10.404L77.7915 10.284L77.8995 8.976H78.8475C78.8155 9.208 78.7915 9.444 78.7755 9.684C78.7595 9.916 78.7515 10.144 78.7515 10.368V14.964C78.7515 15.86 78.5195 16.536 78.0555 16.992C77.5995 17.448 76.9275 17.676 76.0395 17.676ZM75.8955 14.076C76.4795 14.076 76.9395 13.884 77.2755 13.5C77.6115 13.108 77.7795 12.56 77.7795 11.856C77.7795 11.152 77.6115 10.608 77.2755 10.224C76.9395 9.84 76.4795 9.648 75.8955 9.648C75.3195 9.648 74.8595 9.84 74.5155 10.224C74.1715 10.608 73.9995 11.152 73.9995 11.856C73.9995 12.56 74.1715 13.108 74.5155 13.5C74.8595 13.884 75.3195 14.076 75.8955 14.076ZM80.5939 15V10.428C80.5939 10.188 80.5859 9.944 80.5699 9.696C80.5619 9.448 80.5459 9.208 80.5219 8.976H81.4579L81.5779 10.44L81.4099 10.452C81.4899 10.092 81.6299 9.796 81.8299 9.564C82.0299 9.332 82.2659 9.16 82.5379 9.048C82.8099 8.928 83.0939 8.868 83.3899 8.868C83.5099 8.868 83.6139 8.872 83.7019 8.88C83.7979 8.888 83.8859 8.908 83.9659 8.94L83.9539 9.804C83.8339 9.764 83.7219 9.74 83.6179 9.732C83.5219 9.716 83.4099 9.708 83.2819 9.708C82.9299 9.708 82.6219 9.792 82.3579 9.96C82.1019 10.128 81.9059 10.344 81.7699 10.608C81.6419 10.872 81.5779 11.152 81.5779 11.448V15H80.5939ZM87.2107 15.108C86.6747 15.108 86.2067 14.984 85.8067 14.736C85.4067 14.48 85.0947 14.12 84.8707 13.656C84.6547 13.192 84.5467 12.636 84.5467 11.988C84.5467 11.332 84.6547 10.772 84.8707 10.308C85.0947 9.844 85.4067 9.488 85.8067 9.24C86.2067 8.992 86.6747 8.868 87.2107 8.868C87.7547 8.868 88.2227 9.008 88.6147 9.288C89.0147 9.56 89.2787 9.932 89.4067 10.404H89.2627L89.3947 8.976H90.3307C90.3067 9.208 90.2827 9.444 90.2587 9.684C90.2427 9.916 90.2347 10.144 90.2347 10.368V15H89.2627V13.584H89.3947C89.2667 14.056 89.0027 14.428 88.6027 14.7C88.2027 14.972 87.7387 15.108 87.2107 15.108ZM87.4027 14.316C87.9787 14.316 88.4347 14.12 88.7707 13.728C89.1067 13.328 89.2747 12.748 89.2747 11.988C89.2747 11.22 89.1067 10.64 88.7707 10.248C88.4347 9.848 87.9787 9.648 87.4027 9.648C86.8347 9.648 86.3787 9.848 86.0347 10.248C85.6987 10.64 85.5307 11.22 85.5307 11.988C85.5307 12.748 85.6987 13.328 86.0347 13.728C86.3787 14.12 86.8347 14.316 87.4027 14.316ZM94.25 15.108C93.658 15.108 93.206 14.94 92.894 14.604C92.582 14.26 92.426 13.744 92.426 13.056V9.732H91.25V8.976H92.426V7.332L93.398 7.056V8.976H95.126V9.732H93.398V12.948C93.398 13.428 93.478 13.772 93.638 13.98C93.806 14.18 94.054 14.28 94.382 14.28C94.534 14.28 94.67 14.268 94.79 14.244C94.91 14.212 95.018 14.176 95.114 14.136V14.952C95.002 15 94.866 15.036 94.706 15.06C94.554 15.092 94.402 15.108 94.25 15.108ZM96.3093 15V8.976H97.2813V15H96.3093ZM96.1893 7.608V6.516H97.3893V7.608H96.1893ZM101.641 15.108C101.065 15.108 100.561 14.984 100.129 14.736C99.7047 14.48 99.3767 14.12 99.1447 13.656C98.9127 13.184 98.7967 12.628 98.7967 11.988C98.7967 11.34 98.9127 10.784 99.1447 10.32C99.3767 9.856 99.7047 9.5 100.129 9.252C100.561 8.996 101.065 8.868 101.641 8.868C102.225 8.868 102.729 8.996 103.153 9.252C103.585 9.5 103.917 9.856 104.149 10.32C104.389 10.784 104.509 11.34 104.509 11.988C104.509 12.628 104.389 13.184 104.149 13.656C103.917 14.12 103.585 14.48 103.153 14.736C102.729 14.984 102.225 15.108 101.641 15.108ZM101.641 14.316C102.217 14.316 102.673 14.12 103.009 13.728C103.345 13.328 103.513 12.748 103.513 11.988C103.513 11.22 103.341 10.64 102.997 10.248C102.661 9.848 102.209 9.648 101.641 9.648C101.073 9.648 100.621 9.848 100.285 10.248C99.9487 10.64 99.7807 11.22 99.7807 11.988C99.7807 12.748 99.9487 13.328 100.285 13.728C100.621 14.12 101.073 14.316 101.641 14.316ZM106.024 15V10.368C106.024 10.144 106.012 9.916 105.988 9.684C105.972 9.444 105.952 9.208 105.928 8.976H106.864L106.984 10.296H106.84C107.016 9.832 107.296 9.48 107.68 9.24C108.072 8.992 108.524 8.868 109.036 8.868C109.748 8.868 110.284 9.06 110.644 9.444C111.012 9.82 111.196 10.416 111.196 11.232V15H110.224V11.292C110.224 10.724 110.108 10.312 109.876 10.056C109.652 9.792 109.3 9.66 108.82 9.66C108.26 9.66 107.816 9.832 107.488 10.176C107.16 10.52 106.996 10.98 106.996 11.556V15H106.024ZM118.188 15.108C117.708 15.108 117.26 15.044 116.844 14.916C116.428 14.78 116.084 14.592 115.812 14.352L116.148 13.668C116.444 13.9 116.764 14.072 117.108 14.184C117.46 14.296 117.824 14.352 118.2 14.352C118.68 14.352 119.04 14.268 119.28 14.1C119.528 13.924 119.652 13.684 119.652 13.38C119.652 13.148 119.572 12.964 119.412 12.828C119.26 12.684 119.008 12.572 118.656 12.492L117.54 12.264C117.028 12.152 116.644 11.964 116.388 11.7C116.132 11.428 116.004 11.084 116.004 10.668C116.004 10.316 116.096 10.008 116.28 9.744C116.464 9.472 116.732 9.26 117.084 9.108C117.436 8.948 117.848 8.868 118.32 8.868C118.76 8.868 119.164 8.936 119.532 9.072C119.908 9.2 120.22 9.388 120.468 9.636L120.12 10.308C119.88 10.076 119.604 9.904 119.292 9.792C118.988 9.672 118.672 9.612 118.344 9.612C117.872 9.612 117.516 9.708 117.276 9.9C117.044 10.084 116.928 10.328 116.928 10.632C116.928 10.864 117 11.056 117.144 11.208C117.296 11.352 117.528 11.46 117.84 11.532L118.956 11.76C119.5 11.88 119.904 12.068 120.168 12.324C120.44 12.572 120.576 12.908 120.576 13.332C120.576 13.692 120.476 14.008 120.276 14.28C120.076 14.544 119.796 14.748 119.436 14.892C119.084 15.036 118.668 15.108 118.188 15.108ZM124.215 15.108C123.623 15.108 123.171 14.94 122.859 14.604C122.547 14.26 122.391 13.744 122.391 13.056V9.732H121.215V8.976H122.391V7.332L123.363 7.056V8.976H125.091V9.732H123.363V12.948C123.363 13.428 123.443 13.772 123.603 13.98C123.771 14.18 124.019 14.28 124.347 14.28C124.499 14.28 124.635 14.268 124.755 14.244C124.875 14.212 124.983 14.176 125.079 14.136V14.952C124.967 15 124.831 15.036 124.671 15.06C124.519 15.092 124.367 15.108 124.215 15.108ZM128.566 15.108C128.03 15.108 127.562 14.984 127.162 14.736C126.762 14.48 126.45 14.12 126.226 13.656C126.01 13.192 125.902 12.636 125.902 11.988C125.902 11.332 126.01 10.772 126.226 10.308C126.45 9.844 126.762 9.488 127.162 9.24C127.562 8.992 128.03 8.868 128.566 8.868C129.11 8.868 129.578 9.008 129.97 9.288C130.37 9.56 130.634 9.932 130.762 10.404H130.618L130.75 8.976H131.686C131.662 9.208 131.638 9.444 131.614 9.684C131.598 9.916 131.59 10.144 131.59 10.368V15H130.618V13.584H130.75C130.622 14.056 130.358 14.428 129.958 14.7C129.558 14.972 129.094 15.108 128.566 15.108ZM128.758 14.316C129.334 14.316 129.79 14.12 130.126 13.728C130.462 13.328 130.63 12.748 130.63 11.988C130.63 11.22 130.462 10.64 130.126 10.248C129.79 9.848 129.334 9.648 128.758 9.648C128.19 9.648 127.734 9.848 127.39 10.248C127.054 10.64 126.886 11.22 126.886 11.988C126.886 12.748 127.054 13.328 127.39 13.728C127.734 14.12 128.19 14.316 128.758 14.316ZM135.605 15.108C135.013 15.108 134.561 14.94 134.249 14.604C133.937 14.26 133.781 13.744 133.781 13.056V9.732H132.605V8.976H133.781V7.332L134.753 7.056V8.976H136.481V9.732H134.753V12.948C134.753 13.428 134.833 13.772 134.993 13.98C135.161 14.18 135.409 14.28 135.737 14.28C135.889 14.28 136.025 14.268 136.145 14.244C136.265 14.212 136.373 14.176 136.469 14.136V14.952C136.357 15 136.221 15.036 136.061 15.06C135.909 15.092 135.757 15.108 135.605 15.108ZM139.789 15.108C139.077 15.108 138.537 14.912 138.169 14.52C137.809 14.128 137.629 13.528 137.629 12.72V8.976H138.601V12.696C138.601 13.248 138.713 13.656 138.937 13.92C139.161 14.176 139.509 14.304 139.981 14.304C140.509 14.304 140.933 14.132 141.253 13.788C141.573 13.444 141.733 12.984 141.733 12.408V8.976H142.705V15H141.757V13.644H141.913C141.745 14.108 141.473 14.468 141.097 14.724C140.729 14.98 140.293 15.108 139.789 15.108ZM146.595 15.108C146.115 15.108 145.667 15.044 145.251 14.916C144.835 14.78 144.491 14.592 144.219 14.352L144.555 13.668C144.851 13.9 145.171 14.072 145.515 14.184C145.867 14.296 146.231 14.352 146.607 14.352C147.087 14.352 147.447 14.268 147.687 14.1C147.935 13.924 148.059 13.684 148.059 13.38C148.059 13.148 147.979 12.964 147.819 12.828C147.667 12.684 147.415 12.572 147.063 12.492L145.947 12.264C145.435 12.152 145.051 11.964 144.795 11.7C144.539 11.428 144.411 11.084 144.411 10.668C144.411 10.316 144.503 10.008 144.687 9.744C144.871 9.472 145.139 9.26 145.491 9.108C145.843 8.948 146.255 8.868 146.727 8.868C147.167 8.868 147.571 8.936 147.939 9.072C148.315 9.2 148.627 9.388 148.875 9.636L148.527 10.308C148.287 10.076 148.011 9.904 147.699 9.792C147.395 9.672 147.079 9.612 146.751 9.612C146.279 9.612 145.923 9.708 145.683 9.9C145.451 10.084 145.335 10.328 145.335 10.632C145.335 10.864 145.407 11.056 145.551 11.208C145.703 11.352 145.935 11.46 146.247 11.532L147.363 11.76C147.907 11.88 148.311 12.068 148.575 12.324C148.847 12.572 148.983 12.908 148.983 13.332C148.983 13.692 148.883 14.008 148.683 14.28C148.483 14.544 148.203 14.748 147.843 14.892C147.491 15.036 147.075 15.108 146.595 15.108Z" class="w7" fill="#000" />
<path d="M14.6185 96V87.54H15.6145V95.136H19.8865V96H14.6185ZM23.3416 96.108C22.8056 96.108 22.3376 95.984 21.9376 95.736C21.5376 95.48 21.2256 95.12 21.0016 94.656C20.7856 94.192 20.6776 93.636 20.6776 92.988C20.6776 92.332 20.7856 91.772 21.0016 91.308C21.2256 90.844 21.5376 90.488 21.9376 90.24C22.3376 89.992 22.8056 89.868 23.3416 89.868C23.8856 89.868 24.3536 90.008 24.7456 90.288C25.1456 90.56 25.4096 90.932 25.5376 91.404H25.3936L25.5256 89.976H26.4616C26.4376 90.208 26.4136 90.444 26.3896 90.684C26.3736 90.916 26.3656 91.144 26.3656 91.368V96H25.3936V94.584H25.5256C25.3976 95.056 25.1336 95.428 24.7336 95.7C24.3336 95.972 23.8696 96.108 23.3416 96.108ZM23.5336 95.316C24.1096 95.316 24.5656 95.12 24.9016 94.728C25.2376 94.328 25.4056 93.748 25.4056 92.988C25.4056 92.22 25.2376 91.64 24.9016 91.248C24.5656 90.848 24.1096 90.648 23.5336 90.648C22.9656 90.648 22.5096 90.848 22.1656 91.248C21.8296 91.64 21.6616 92.22 21.6616 92.988C21.6616 93.748 21.8296 94.328 22.1656 94.728C22.5096 95.12 22.9656 95.316 23.5336 95.316ZM28.2449 96V91.368C28.2449 91.144 28.2329 90.916 28.2089 90.684C28.1929 90.444 28.1729 90.208 28.1489 89.976H29.0849L29.2049 91.296H29.0609C29.2369 90.832 29.5169 90.48 29.9009 90.24C30.2929 89.992 30.7449 89.868 31.2569 89.868C31.9689 89.868 32.5049 90.06 32.8649 90.444C33.2329 90.82 33.4169 91.416 33.4169 92.232V96H32.4449V92.292C32.4449 91.724 32.3289 91.312 32.0969 91.056C31.8729 90.792 31.5209 90.66 31.0409 90.66C30.4809 90.66 30.0369 90.832 29.7089 91.176C29.3809 91.52 29.2169 91.98 29.2169 92.556V96H28.2449ZM37.9281 98.676C37.4081 98.676 36.9281 98.612 36.4881 98.484C36.0481 98.356 35.6521 98.16 35.3001 97.896L35.5881 97.164C35.8361 97.34 36.0801 97.48 36.3201 97.584C36.5601 97.688 36.8081 97.764 37.0641 97.812C37.3201 97.868 37.5921 97.896 37.8801 97.896C38.4721 97.896 38.9201 97.74 39.2241 97.428C39.5281 97.116 39.6801 96.672 39.6801 96.096V94.332H39.8001C39.6721 94.804 39.4081 95.18 39.0081 95.46C38.6081 95.732 38.1401 95.868 37.6041 95.868C37.0521 95.868 36.5721 95.748 36.1641 95.508C35.7641 95.26 35.4521 94.912 35.2281 94.464C35.0121 94.008 34.9041 93.472 34.9041 92.856C34.9041 92.248 35.0121 91.72 35.2281 91.272C35.4521 90.824 35.7641 90.48 36.1641 90.24C36.5721 89.992 37.0521 89.868 37.6041 89.868C38.1481 89.868 38.6161 90.004 39.0081 90.276C39.4081 90.548 39.6721 90.924 39.8001 91.404L39.6801 91.284L39.7881 89.976H40.7361C40.7041 90.208 40.6801 90.444 40.6641 90.684C40.6481 90.916 40.6401 91.144 40.6401 91.368V95.964C40.6401 96.86 40.4081 97.536 39.9441 97.992C39.4881 98.448 38.8161 98.676 37.9281 98.676ZM37.7841 95.076C38.3681 95.076 38.8281 94.884 39.1641 94.5C39.5001 94.108 39.6681 93.56 39.6681 92.856C39.6681 92.152 39.5001 91.608 39.1641 91.224C38.8281 90.84 38.3681 90.648 37.7841 90.648C37.2081 90.648 36.7481 90.84 36.4041 91.224C36.0601 91.608 35.8881 92.152 35.8881 92.856C35.8881 93.56 36.0601 94.108 36.4041 94.5C36.7481 94.884 37.2081 95.076 37.7841 95.076ZM44.6306 96.108C43.9186 96.108 43.3786 95.912 43.0106 95.52C42.6506 95.128 42.4706 94.528 42.4706 93.72V89.976H43.4426V93.696C43.4426 94.248 43.5546 94.656 43.7786 94.92C44.0026 95.176 44.3506 95.304 44.8226 95.304C45.3506 95.304 45.7746 95.132 46.0946 94.788C46.4146 94.444 46.5746 93.984 46.5746 93.408V89.976H47.5466V96H46.5986V94.644H46.7546C46.5866 95.108 46.3146 95.468 45.9386 95.724C45.5706 95.98 45.1346 96.108 44.6306 96.108ZM51.7244 96.108C51.1884 96.108 50.7204 95.984 50.3204 95.736C49.9204 95.48 49.6084 95.12 49.3844 94.656C49.1684 94.192 49.0604 93.636 49.0604 92.988C49.0604 92.332 49.1684 91.772 49.3844 91.308C49.6084 90.844 49.9204 90.488 50.3204 90.24C50.7204 89.992 51.1884 89.868 51.7244 89.868C52.2684 89.868 52.7364 90.008 53.1284 90.288C53.5284 90.56 53.7924 90.932 53.9204 91.404H53.7764L53.9084 89.976H54.8444C54.8204 90.208 54.7964 90.444 54.7724 90.684C54.7564 90.916 54.7484 91.144 54.7484 91.368V96H53.7764V94.584H53.9084C53.7804 95.056 53.5164 95.428 53.1164 95.7C52.7164 95.972 52.2524 96.108 51.7244 96.108ZM51.9164 95.316C52.4924 95.316 52.9484 95.12 53.2844 94.728C53.6204 94.328 53.7884 93.748 53.7884 92.988C53.7884 92.22 53.6204 91.64 53.2844 91.248C52.9484 90.848 52.4924 90.648 51.9164 90.648C51.3484 90.648 50.8924 90.848 50.5484 91.248C50.2124 91.64 50.0444 92.22 50.0444 92.988C50.0444 93.748 50.2124 94.328 50.5484 94.728C50.8924 95.12 51.3484 95.316 51.9164 95.316ZM59.2797 98.676C58.7597 98.676 58.2797 98.612 57.8397 98.484C57.3997 98.356 57.0037 98.16 56.6517 97.896L56.9397 97.164C57.1877 97.34 57.4317 97.48 57.6717 97.584C57.9117 97.688 58.1597 97.764 58.4157 97.812C58.6717 97.868 58.9437 97.896 59.2317 97.896C59.8237 97.896 60.2717 97.74 60.5757 97.428C60.8797 97.116 61.0317 96.672 61.0317 96.096V94.332H61.1517C61.0237 94.804 60.7597 95.18 60.3597 95.46C59.9597 95.732 59.4917 95.868 58.9557 95.868C58.4037 95.868 57.9237 95.748 57.5157 95.508C57.1157 95.26 56.8037 94.912 56.5797 94.464C56.3637 94.008 56.2557 93.472 56.2557 92.856C56.2557 92.248 56.3637 91.72 56.5797 91.272C56.8037 90.824 57.1157 90.48 57.5157 90.24C57.9237 89.992 58.4037 89.868 58.9557 89.868C59.4997 89.868 59.9677 90.004 60.3597 90.276C60.7597 90.548 61.0237 90.924 61.1517 91.404L61.0317 91.284L61.1397 89.976H62.0877C62.0557 90.208 62.0317 90.444 62.0157 90.684C61.9997 90.916 61.9917 91.144 61.9917 91.368V95.964C61.9917 96.86 61.7597 97.536 61.2957 97.992C60.8397 98.448 60.1677 98.676 59.2797 98.676ZM59.1357 95.076C59.7197 95.076 60.1797 94.884 60.5157 94.5C60.8517 94.108 61.0197 93.56 61.0197 92.856C61.0197 92.152 60.8517 91.608 60.5157 91.224C60.1797 90.84 59.7197 90.648 59.1357 90.648C58.5597 90.648 58.0997 90.84 57.7557 91.224C57.4117 91.608 57.2397 92.152 57.2397 92.856C57.2397 93.56 57.4117 94.108 57.7557 94.5C58.0997 94.884 58.5597 95.076 59.1357 95.076ZM66.5342 96.108C65.5902 96.108 64.8462 95.836 64.3022 95.292C63.7582 94.74 63.4862 93.976 63.4862 93C63.4862 92.368 63.6062 91.82 63.8462 91.356C64.0862 90.884 64.4222 90.52 64.8542 90.264C65.2862 90 65.7822 89.868 66.3422 89.868C66.8942 89.868 67.3582 89.984 67.7342 90.216C68.1102 90.448 68.3982 90.78 68.5982 91.212C68.7982 91.636 68.8982 92.14 68.8982 92.724V93.084H64.2302V92.472H68.2622L68.0582 92.628C68.0582 91.988 67.9142 91.488 67.6262 91.128C67.3382 90.768 66.9102 90.588 66.3422 90.588C65.7422 90.588 65.2742 90.8 64.9382 91.224C64.6022 91.64 64.4342 92.204 64.4342 92.916V93.024C64.4342 93.776 64.6182 94.348 64.9862 94.74C65.3622 95.124 65.8862 95.316 66.5582 95.316C66.9182 95.316 67.2542 95.264 67.5662 95.16C67.8862 95.048 68.1902 94.868 68.4782 94.62L68.8142 95.304C68.5502 95.56 68.2142 95.76 67.8062 95.904C67.4062 96.04 66.9822 96.108 66.5342 96.108Z" class="w7" fill="#000" />
<rect width="36" height="17" transform="translate(188 25)" class="w4" fill="#fff" />
<path d="M192.927 38V29.54H194.283L197.391 36.536H197.019L200.127 29.54H201.471V38H200.067V31.724H200.499L197.655 38H196.731L193.887 31.724H194.331V38H192.927ZM205.972 38.12C205.348 38.12 204.808 37.992 204.352 37.736C203.896 37.48 203.54 37.116 203.284 36.644C203.036 36.172 202.912 35.612 202.912 34.964C202.912 34.316 203.036 33.76 203.284 33.296C203.54 32.824 203.896 32.46 204.352 32.204C204.808 31.948 205.348 31.82 205.972 31.82C206.596 31.82 207.136 31.948 207.592 32.204C208.056 32.46 208.412 32.824 208.66 33.296C208.916 33.76 209.044 34.316 209.044 34.964C209.044 35.612 208.916 36.172 208.66 36.644C208.412 37.116 208.056 37.48 207.592 37.736C207.136 37.992 206.596 38.12 205.972 38.12ZM205.972 36.968C206.444 36.968 206.82 36.804 207.1 36.476C207.38 36.14 207.52 35.636 207.52 34.964C207.52 34.292 207.38 33.792 207.1 33.464C206.82 33.136 206.444 32.972 205.972 32.972C205.5 32.972 205.124 33.136 204.844 33.464C204.564 33.792 204.424 34.292 204.424 34.964C204.424 35.636 204.564 36.14 204.844 36.476C205.124 36.804 205.5 36.968 205.972 36.968ZM212.497 38.12C211.977 38.12 211.497 38.06 211.057 37.94C210.625 37.812 210.261 37.636 209.965 37.412L210.385 36.404C210.689 36.612 211.025 36.772 211.393 36.884C211.761 36.996 212.133 37.052 212.509 37.052C212.909 37.052 213.205 36.984 213.397 36.848C213.597 36.712 213.697 36.528 213.697 36.296C213.697 36.112 213.633 35.968 213.505 35.864C213.385 35.752 213.189 35.668 212.917 35.612L211.717 35.384C211.205 35.272 210.813 35.08 210.541 34.808C210.277 34.536 210.145 34.18 210.145 33.74C210.145 33.364 210.245 33.032 210.445 32.744C210.653 32.456 210.945 32.232 211.321 32.072C211.705 31.904 212.153 31.82 212.665 31.82C213.113 31.82 213.533 31.88 213.925 32C214.325 32.12 214.661 32.3 214.933 32.54L214.501 33.512C214.253 33.312 213.969 33.156 213.649 33.044C213.329 32.932 213.017 32.876 212.713 32.876C212.297 32.876 211.993 32.952 211.801 33.104C211.609 33.248 211.513 33.436 211.513 33.668C211.513 33.844 211.569 33.992 211.681 34.112C211.801 34.224 211.985 34.308 212.233 34.364L213.433 34.592C213.969 34.696 214.373 34.88 214.645 35.144C214.925 35.4 215.065 35.752 215.065 36.2C215.065 36.6 214.957 36.944 214.741 37.232C214.525 37.52 214.225 37.74 213.841 37.892C213.457 38.044 213.009 38.12 212.497 38.12ZM218.883 38.12C218.163 38.12 217.619 37.932 217.251 37.556C216.883 37.18 216.699 36.616 216.699 35.864V33.068H215.535V31.94H216.699V30.392L218.199 30.008V31.94H219.819V33.068H218.199V35.768C218.199 36.184 218.279 36.476 218.439 36.644C218.599 36.812 218.819 36.896 219.099 36.896C219.251 36.896 219.379 36.884 219.483 36.86C219.595 36.836 219.703 36.804 219.807 36.764V37.952C219.671 38.008 219.519 38.048 219.351 38.072C219.191 38.104 219.035 38.12 218.883 38.12Z" class="w8" fill="#cb3335" />
<rect width="36" height="17" transform="translate(188 135)" class="w4" fill-opacity="0.7"/>
<path d="M191.35 148V139.54H192.898V146.692H196.882V148H191.35ZM200.814 148.12C199.798 148.12 199.002 147.84 198.426 147.28C197.85 146.72 197.562 145.952 197.562 144.976C197.562 144.344 197.686 143.792 197.934 143.32C198.182 142.848 198.526 142.48 198.966 142.216C199.414 141.952 199.934 141.82 200.526 141.82C201.11 141.82 201.598 141.944 201.99 142.192C202.382 142.44 202.678 142.788 202.878 143.236C203.086 143.684 203.19 144.208 203.19 144.808V145.204H198.774V144.412H202.122L201.918 144.58C201.918 144.02 201.798 143.592 201.558 143.296C201.326 143 200.986 142.852 200.538 142.852C200.042 142.852 199.658 143.028 199.386 143.38C199.122 143.732 198.99 144.224 198.99 144.856V145.012C198.99 145.668 199.15 146.16 199.47 146.488C199.798 146.808 200.258 146.968 200.85 146.968C201.194 146.968 201.514 146.924 201.81 146.836C202.114 146.74 202.402 146.588 202.674 146.38L203.118 147.388C202.83 147.62 202.486 147.8 202.086 147.928C201.686 148.056 201.262 148.12 200.814 148.12ZM206.801 148.12C206.273 148.12 205.809 147.996 205.409 147.748C205.009 147.492 204.697 147.128 204.473 146.656C204.249 146.184 204.137 145.62 204.137 144.964C204.137 144.308 204.249 143.748 204.473 143.284C204.697 142.812 205.009 142.452 205.409 142.204C205.809 141.948 206.273 141.82 206.801 141.82C207.313 141.82 207.761 141.948 208.145 142.204C208.537 142.452 208.797 142.788 208.925 143.212H208.793L208.925 141.94H210.365C210.341 142.188 210.317 142.44 210.293 142.696C210.277 142.952 210.269 143.204 210.269 143.452V148H208.781L208.769 146.752H208.913C208.785 147.168 208.525 147.5 208.133 147.748C207.741 147.996 207.297 148.12 206.801 148.12ZM207.221 146.968C207.693 146.968 208.073 146.804 208.361 146.476C208.649 146.14 208.793 145.636 208.793 144.964C208.793 144.292 208.649 143.792 208.361 143.464C208.073 143.136 207.693 142.972 207.221 142.972C206.749 142.972 206.369 143.136 206.081 143.464C205.793 143.792 205.649 144.292 205.649 144.964C205.649 145.636 205.789 146.14 206.069 146.476C206.357 146.804 206.741 146.968 207.221 146.968ZM214.062 148.12C213.542 148.12 213.062 148.06 212.622 147.94C212.19 147.812 211.826 147.636 211.53 147.412L211.95 146.404C212.254 146.612 212.59 146.772 212.958 146.884C213.326 146.996 213.698 147.052 214.074 147.052C214.474 147.052 214.77 146.984 214.962 146.848C215.162 146.712 215.262 146.528 215.262 146.296C215.262 146.112 215.198 145.968 215.07 145.864C214.95 145.752 214.754 145.668 214.482 145.612L213.282 145.384C212.77 145.272 212.378 145.08 212.106 144.808C211.842 144.536 211.71 144.18 211.71 143.74C211.71 143.364 211.81 143.032 212.01 142.744C212.218 142.456 212.51 142.232 212.886 142.072C213.27 141.904 213.718 141.82 214.23 141.82C214.678 141.82 215.098 141.88 215.49 142C215.89 142.12 216.226 142.3 216.498 142.54L216.066 143.512C215.818 143.312 215.534 143.156 215.214 143.044C214.894 142.932 214.582 142.876 214.278 142.876C213.862 142.876 213.558 142.952 213.366 143.104C213.174 143.248 213.078 143.436 213.078 143.668C213.078 143.844 213.134 143.992 213.246 144.112C213.366 144.224 213.55 144.308 213.798 144.364L214.998 144.592C215.534 144.696 215.938 144.88 216.21 145.144C216.49 145.4 216.63 145.752 216.63 146.2C216.63 146.6 216.522 146.944 216.306 147.232C216.09 147.52 215.79 147.74 215.406 147.892C215.022 148.044 214.574 148.12 214.062 148.12ZM220.447 148.12C219.727 148.12 219.183 147.932 218.815 147.556C218.447 147.18 218.263 146.616 218.263 145.864V143.068H217.099V141.94H218.263V140.392L219.763 140.008V141.94H221.383V143.068H219.763V145.768C219.763 146.184 219.843 146.476 220.003 146.644C220.163 146.812 220.383 146.896 220.663 146.896C220.815 146.896 220.943 146.884 221.047 146.86C221.159 146.836 221.267 146.804 221.371 146.764V147.952C221.235 148.008 221.083 148.048 220.915 148.072C220.755 148.104 220.599 148.12 220.447 148.12Z" class="w8" fill="#cb3335" />
<path d="M217.5 86H198L180.5 106.5L102 162.5L162 223L239.5 193L311.5 162.5L232 106.5L217.5 86Z" class="w9" stroke-width="2" stroke-dasharray="10 10"/>
</svg>
