<svg xmlns="http://www.w3.org/2000/svg" width="346" height="241" fill="none" viewBox="0 0 346 241">
    <circle cx="179.11" cy="113.438" r="99.305" class="w1" stroke-dasharray="0.5 0.5" stroke-width=".5"/>
    <circle cx="179.238" cy="113.566" r="75.51" class="w2" stroke-dasharray="0.5 0.5" stroke-width=".5"/>
    <circle cx="179.238" cy="113.566" r="47.212" class="w3" stroke-dasharray="0.5 0.5" stroke-width=".5"/>
    <path class="w8" d="M179.617 2.9a.302.302 0 0 0-.427 0l-1.921 1.92a.302.302 0 1 0 .427.427l1.707-1.707 1.708 1.707a.3.3 0 1 0 .426-.426l-1.92-1.921Zm-.427 99.117a.302.302 0 0 0 .427 0l1.92-1.92a.302.302 0 0 0-.426-.427l-1.708 1.707-1.707-1.707a.302.302 0 1 0-.427.427l1.921 1.92Zm.213-98.904h-.301v98.691h.603V3.114h-.302Z"/>
    <path class="w5" stroke-dasharray="0.6 0.6" stroke-width=".5" d="M278.698 113.54H79.807M179.154 212.883V13.993M108.703 183.539 249.161 43.08M109.314 43.335l139.944 139.944"/>
    <path class="w8" d="M294.494 149.422a5.397 5.397 0 0 1-1.688-.245 3.964 3.964 0 0 1-1.298-.699l.333-.732c.259.192.518.355.777.488.266.126.551.222.854.289.304.059.644.088 1.022.088.658 0 1.147-.122 1.465-.366a1.17 1.17 0 0 0 .477-.977c0-.348-.111-.614-.333-.799-.222-.185-.61-.333-1.165-.444l-1.166-.233c-.718-.148-1.254-.389-1.609-.722-.348-.333-.522-.784-.522-1.354 0-.466.118-.873.355-1.221a2.387 2.387 0 0 1 1.021-.81c.437-.192.944-.289 1.521-.289.555 0 1.062.085 1.521.256a3.17 3.17 0 0 1 1.176.721l-.322.711a3.23 3.23 0 0 0-1.099-.666 3.657 3.657 0 0 0-1.287-.211c-.607 0-1.088.133-1.443.399-.348.259-.522.614-.522 1.066 0 .362.111.647.333.855.222.199.588.351 1.099.455l1.177.233c.754.155 1.309.388 1.665.699.355.311.532.747.532 1.31 0 .429-.118.81-.355 1.143-.229.333-.558.592-.988.777-.429.185-.939.278-1.531.278Zm6.549 0c-.533 0-.999-.115-1.399-.344a2.388 2.388 0 0 1-.91-.999c-.214-.437-.322-.951-.322-1.543 0-.6.108-1.114.322-1.543.215-.429.518-.759.91-.988.4-.237.866-.355 1.399-.355.54 0 1.006.118 1.399.355.399.229.706.559.921.988.222.429.333.943.333 1.543 0 .592-.111 1.106-.333 1.543a2.368 2.368 0 0 1-.921.999c-.393.229-.859.344-1.399.344Zm0-.733c.533 0 .955-.181 1.265-.544.311-.37.467-.906.467-1.609 0-.711-.159-1.247-.478-1.61-.31-.37-.729-.555-1.254-.555s-.943.185-1.254.555c-.311.363-.466.899-.466 1.61 0 .703.155 1.239.466 1.609.311.363.729.544 1.254.544Zm6.397.733c-.548 0-1.025-.119-1.432-.356-.4-.236-.71-.573-.932-1.01-.215-.436-.322-.954-.322-1.554 0-.606.111-1.121.333-1.543.222-.429.532-.754.932-.976.407-.222.881-.333 1.421-.333.355 0 .699.063 1.032.188.341.126.622.304.844.533l-.322.644a2.174 2.174 0 0 0-.733-.477 2.044 2.044 0 0 0-.766-.156c-.577 0-1.025.182-1.343.544-.318.363-.477.892-.477 1.587 0 .689.159 1.221.477 1.599.318.377.766.566 1.343.566a2.163 2.163 0 0 0 1.499-.622l.322.633a2.27 2.27 0 0 1-.855.544c-.34.126-.681.189-1.021.189Zm3.154-.1v-5.572h.899v5.572h-.899Zm-.111-6.838v-1.01h1.11v1.01h-1.11Zm4.876 6.938c-.496 0-.929-.115-1.299-.344a2.386 2.386 0 0 1-.866-.999c-.2-.43-.3-.944-.3-1.543 0-.607.1-1.125.3-1.554.207-.43.496-.759.866-.988.37-.23.803-.344 1.299-.344.503 0 .936.129 1.298.388.37.252.614.596.733 1.032h-.133l.122-1.32h.866c-.023.214-.045.432-.067.654a9.09 9.09 0 0 0-.022.633v4.285h-.899v-1.31h.122a1.769 1.769 0 0 1-.733 1.032c-.37.252-.799.378-1.287.378Zm.177-.733c.533 0 .955-.181 1.266-.544.31-.37.466-.906.466-1.609 0-.711-.156-1.247-.466-1.61-.311-.37-.733-.555-1.266-.555-.525 0-.947.185-1.265.555-.311.363-.466.899-.466 1.61 0 .703.155 1.239.466 1.609.318.363.74.544 1.265.544Zm4.358.633v-8.17h.899v8.17h-.899Zm-18.562 13.1c-.496 0-.929-.115-1.299-.344a2.393 2.393 0 0 1-.866-.999c-.199-.43-.299-.944-.299-1.543 0-.607.1-1.125.299-1.554.208-.43.496-.759.866-.988.37-.23.803-.344 1.299-.344.503 0 .936.129 1.299.388.37.252.614.596.732 1.032h-.133l.122-1.32h.866l-.067.654a9.09 9.09 0 0 0-.022.633v4.285h-.899v-1.31h.122a1.764 1.764 0 0 1-.733 1.032c-.37.252-.799.378-1.287.378Zm.177-.733c.533 0 .955-.181 1.266-.544.311-.37.466-.906.466-1.609 0-.711-.155-1.247-.466-1.61-.311-.37-.733-.555-1.266-.555-.525 0-.947.185-1.265.555-.311.363-.466.899-.466 1.61 0 .703.155 1.239.466 1.609.318.363.74.544 1.265.544Zm4.358.633v-5.572h.899v5.572h-.899Zm-.111-6.838v-1.01h1.11v1.01h-1.11Zm4.865 6.938c-.488 0-.917-.115-1.287-.344a2.386 2.386 0 0 1-.866-.999c-.2-.43-.3-.944-.3-1.543 0-.607.1-1.125.3-1.554.207-.43.496-.759.866-.988.37-.23.799-.344 1.287-.344.504 0 .936.125 1.299.377.37.252.618.592.744 1.021h-.133v-3.896h.899v8.17h-.888v-1.332h.122a1.821 1.821 0 0 1-.733 1.054c-.37.252-.806.378-1.31.378Zm.189-.733c.525 0 .947-.181 1.265-.544.319-.37.478-.906.478-1.609 0-.711-.159-1.247-.478-1.61-.318-.37-.74-.555-1.265-.555-.525 0-.947.185-1.265.555-.311.363-.467.899-.467 1.61 0 .703.156 1.239.467 1.609.318.363.74.544 1.265.544Zm-22.606 16.03v-6.682c0-.207-.011-.418-.033-.633-.015-.222-.034-.44-.056-.654h.866l.122 1.32h-.133c.118-.436.359-.78.721-1.032.363-.259.796-.388 1.299-.388.503 0 .936.114 1.299.344a2.3 2.3 0 0 1 .865.988c.208.429.311.947.311 1.554 0 .599-.103 1.113-.311 1.543a2.307 2.307 0 0 1-.854.999c-.37.229-.807.344-1.31.344-.496 0-.925-.126-1.288-.378a1.78 1.78 0 0 1-.721-1.032h.122v3.707h-.899Zm2.608-3.03c.533 0 .955-.181 1.266-.544.318-.37.477-.906.477-1.609 0-.711-.159-1.247-.477-1.61-.311-.37-.733-.555-1.266-.555-.525 0-.947.185-1.265.555-.311.363-.466.899-.466 1.61 0 .703.155 1.239.466 1.609.318.363.74.544 1.265.544Zm6.334.733c-.533 0-.999-.115-1.398-.344a2.384 2.384 0 0 1-.911-.999c-.214-.437-.322-.951-.322-1.543 0-.6.108-1.114.322-1.543.215-.429.518-.759.911-.988.399-.237.865-.355 1.398-.355.54 0 1.007.118 1.399.355.399.229.706.559.921.988.222.429.333.943.333 1.543 0 .592-.111 1.106-.333 1.543a2.368 2.368 0 0 1-.921.999c-.392.229-.859.344-1.399.344Zm0-.733c.533 0 .955-.181 1.266-.544.31-.37.466-.906.466-1.609 0-.711-.159-1.247-.478-1.61-.31-.37-.728-.555-1.254-.555-.525 0-.943.185-1.254.555-.311.363-.466.899-.466 1.61 0 .703.155 1.239.466 1.609.311.363.729.544 1.254.544Zm4.055.633v-8.17h.899v8.17h-.899Zm2.645 0v-5.572h.899v5.572h-.899Zm-.111-6.838v-1.01h1.11v1.01h-1.11Zm5.098 6.938c-.548 0-1.025-.119-1.432-.356a2.409 2.409 0 0 1-.933-1.01c-.214-.436-.321-.954-.321-1.554 0-.606.111-1.121.333-1.543.222-.429.532-.754.932-.976.407-.222.881-.333 1.421-.333.355 0 .699.063 1.032.188.34.126.622.304.844.533l-.322.644a2.174 2.174 0 0 0-.733-.477 2.044 2.044 0 0 0-.766-.156c-.577 0-1.025.182-1.343.544-.318.363-.477.892-.477 1.587 0 .689.159 1.221.477 1.599.318.377.766.566 1.343.566a2.167 2.167 0 0 0 1.499-.622l.322.633a2.27 2.27 0 0 1-.855.544c-.34.126-.681.189-1.021.189Zm3.153-.1v-5.572h.9v5.572h-.9Zm-.111-6.838v-1.01h1.11v1.01h-1.11Zm5.232 6.938c-.873 0-1.562-.252-2.065-.755-.503-.511-.755-1.217-.755-2.12 0-.585.111-1.092.333-1.521.222-.437.533-.773.933-1.01a2.585 2.585 0 0 1 1.376-.366c.511 0 .94.107 1.288.322.348.214.614.521.799.921.185.392.277.858.277 1.398v.333h-4.317v-.566h3.729l-.189.145c0-.592-.133-1.055-.399-1.388-.267-.333-.662-.499-1.188-.499-.555 0-.988.196-1.299.588-.31.385-.466.906-.466 1.565v.1c0 .696.17 1.225.511 1.587.348.355.832.533 1.454.533.333 0 .644-.048.932-.144.296-.104.578-.27.844-.5l.311.633a2.513 2.513 0 0 1-.933.555c-.37.126-.762.189-1.176.189Zm5.416 0c-.444 0-.859-.06-1.243-.178a2.689 2.689 0 0 1-.955-.522l.311-.632c.274.214.57.373.888.477.325.104.662.155 1.01.155.444 0 .777-.077.999-.233a.775.775 0 0 0 .344-.666.634.634 0 0 0-.222-.51c-.141-.134-.374-.237-.699-.311l-1.033-.211c-.473-.104-.828-.278-1.065-.522-.237-.251-.355-.57-.355-.954 0-.326.085-.611.255-.855.17-.252.418-.448.744-.588.325-.148.706-.222 1.143-.222.407 0 .781.063 1.121.188.348.119.636.293.866.522l-.322.622a2.12 2.12 0 0 0-.766-.478 2.364 2.364 0 0 0-.877-.166c-.436 0-.766.089-.988.266a.823.823 0 0 0-.322.677c0 .215.067.393.2.533.141.133.355.233.644.3l1.032.211c.503.111.877.285 1.121.521.252.23.378.541.378.933 0 .333-.093.625-.278.877a1.772 1.772 0 0 1-.777.566c-.325.133-.71.2-1.154.2Z"/>
    <path class="w7" d="M223.511 233.324c-.784 0-1.45-.163-1.998-.488a3.245 3.245 0 0 1-1.265-1.388c-.289-.599-.433-1.313-.433-2.142s.144-1.539.433-2.131c.296-.6.718-1.062 1.265-1.388.548-.325 1.214-.488 1.998-.488a4.08 4.08 0 0 1 1.488.255c.436.17.818.418 1.143.744l-.344.732a3.807 3.807 0 0 0-1.054-.677c-.348-.148-.755-.222-1.221-.222-.896 0-1.577.278-2.043.833-.466.555-.699 1.335-.699 2.342 0 1.006.233 1.791.699 2.353.466.555 1.147.833 2.043.833.466 0 .873-.071 1.221-.211a3.878 3.878 0 0 0 1.054-.7l.344.744a3.518 3.518 0 0 1-1.143.744 4.08 4.08 0 0 1-1.488.255Zm5.977 0c-.533 0-.999-.115-1.398-.344a2.384 2.384 0 0 1-.911-.999c-.214-.437-.322-.951-.322-1.543 0-.599.108-1.114.322-1.543.215-.429.518-.758.911-.988.399-.237.865-.355 1.398-.355.54 0 1.007.118 1.399.355a2.3 2.3 0 0 1 .921.988c.222.429.333.944.333 1.543 0 .592-.111 1.106-.333 1.543a2.368 2.368 0 0 1-.921.999c-.392.229-.859.344-1.399.344Zm0-.733c.533 0 .955-.181 1.266-.543.31-.37.466-.907.466-1.61 0-.71-.159-1.247-.478-1.609-.31-.37-.728-.555-1.254-.555-.525 0-.943.185-1.254.555-.311.362-.466.899-.466 1.609 0 .703.155 1.24.466 1.61.311.362.729.543 1.254.543Zm5.909.733c-.444 0-.859-.059-1.244-.178a2.667 2.667 0 0 1-.954-.521l.311-.633c.273.215.569.374.888.477.325.104.662.156 1.01.156.444 0 .777-.078.999-.233a.775.775 0 0 0 .344-.666.636.636 0 0 0-.222-.511c-.141-.133-.374-.237-.7-.311l-1.032-.211c-.473-.103-.829-.277-1.065-.521-.237-.252-.356-.57-.356-.955 0-.326.085-.61.256-.855.17-.251.418-.447.743-.588.326-.148.707-.222 1.144-.222.407 0 .78.063 1.121.189.348.118.636.292.866.521l-.322.622a2.113 2.113 0 0 0-.766-.477 2.37 2.37 0 0 0-.877-.167c-.437 0-.766.089-.988.267a.82.82 0 0 0-.322.677c0 .214.067.392.2.533.14.133.355.233.644.299l1.032.211c.503.111.877.285 1.121.522.252.229.377.54.377.932 0 .333-.092.626-.277.877a1.772 1.772 0 0 1-.777.566c-.326.133-.71.2-1.154.2Zm5.574 0c-.548 0-.966-.155-1.254-.466-.289-.318-.433-.796-.433-1.432v-3.075h-1.088v-.699h1.088v-1.521l.899-.255v1.776h1.598v.699h-1.598v2.975c0 .444.074.762.222.955.155.185.385.277.688.277.141 0 .267-.011.378-.033.111-.03.21-.063.299-.1v.755a1.59 1.59 0 0 1-.377.1 2.086 2.086 0 0 1-.422.044Zm7.086 0c-.533 0-.999-.115-1.399-.344a2.388 2.388 0 0 1-.91-.999c-.215-.437-.322-.951-.322-1.543 0-.599.107-1.114.322-1.543.215-.429.518-.758.91-.988.4-.237.866-.355 1.399-.355.54 0 1.006.118 1.398.355.4.23.707.559.922.988.222.429.333.944.333 1.543 0 .592-.111 1.106-.333 1.543a2.364 2.364 0 0 1-.922.999c-.392.229-.858.344-1.398.344Zm0-.733c.533 0 .954-.181 1.265-.543.311-.37.466-.907.466-1.61 0-.71-.159-1.247-.477-1.609-.311-.37-.729-.555-1.254-.555-.526 0-.944.185-1.255.555-.31.362-.466.899-.466 1.609 0 .703.156 1.24.466 1.61.311.362.729.543 1.255.543Zm4.289.633v-4.873h-1.088v-.699h1.332l-.244.233v-.932c0-.629.159-1.11.477-1.443.318-.333.773-.5 1.365-.5.148 0 .3.015.456.045.162.022.296.055.399.099v.744a1.585 1.585 0 0 0-.333-.089 1.722 1.722 0 0 0-.388-.044c-.23 0-.426.048-.589.144a.835.835 0 0 0-.366.411c-.081.185-.122.422-.122.71v.811l-.144-.189h1.698v.699h-1.554v4.873h-.899Zm6.356 0v-8.169h.899v8.169h-.899Zm2.645 0v-5.572h.899v5.572h-.899Zm-.111-6.837v-1.011h1.11v1.011h-1.11Zm4.399 6.837-2.387-5.572h.977l1.998 4.906h-.3l2.021-4.906h.932l-2.387 5.572h-.854Zm4.254 0v-5.572h.899v5.572h-.899Zm-.111-6.837v-1.011h1.11v1.011h-1.11Zm2.756 6.837v-4.284c0-.208-.011-.419-.034-.633a16.83 16.83 0 0 0-.055-.655h.866l.111 1.221h-.133c.162-.429.421-.755.777-.977.362-.229.78-.344 1.254-.344.658 0 1.154.178 1.487.533.341.348.511.899.511 1.654v3.485h-.899v-3.43c0-.525-.108-.906-.322-1.143-.207-.244-.533-.366-.977-.366-.518 0-.929.159-1.232.477-.303.318-.455.744-.455 1.276v3.186h-.899Zm8.957 2.475c-.481 0-.925-.059-1.332-.177a3.405 3.405 0 0 1-1.099-.544l.266-.677c.23.163.455.292.677.388.222.097.452.167.689.211.236.052.488.078.754.078.548 0 .962-.144 1.244-.433.281-.289.421-.699.421-1.232v-1.632h.111a1.814 1.814 0 0 1-.732 1.044c-.37.251-.803.377-1.299.377-.511 0-.955-.111-1.332-.333a2.33 2.33 0 0 1-.866-.966c-.2-.421-.299-.917-.299-1.487 0-.562.099-1.051.299-1.465.207-.415.496-.733.866-.955.377-.229.821-.344 1.332-.344.503 0 .936.126 1.299.377.37.252.614.6.732 1.044l-.111-.111.1-1.21h.877a9.247 9.247 0 0 0-.066.655 9.056 9.056 0 0 0-.023.633v4.251c0 .829-.214 1.454-.643 1.876-.422.422-1.044.632-1.865.632Zm-.133-3.33c.54 0 .965-.177 1.276-.532.311-.363.466-.87.466-1.521 0-.651-.155-1.154-.466-1.51-.311-.355-.736-.532-1.276-.532-.533 0-.959.177-1.277.532-.318.356-.477.859-.477 1.51s.159 1.158.477 1.521c.318.355.744.532 1.277.532ZM283.252 72.462c-.629 0-1.192-.082-1.687-.245a3.985 3.985 0 0 1-1.299-.699l.333-.732c.259.192.518.355.777.488.266.126.551.222.855.289.303.059.643.088 1.021.088.658 0 1.147-.122 1.465-.366a1.17 1.17 0 0 0 .477-.977c0-.348-.111-.614-.333-.799-.222-.185-.61-.333-1.165-.444l-1.166-.233c-.717-.148-1.254-.388-1.609-.721-.348-.334-.522-.785-.522-1.355 0-.466.119-.873.355-1.22a2.395 2.395 0 0 1 1.022-.811c.436-.192.943-.289 1.52-.289.555 0 1.062.085 1.521.256.459.163.851.403 1.177.721l-.322.71a3.246 3.246 0 0 0-1.099-.665 3.676 3.676 0 0 0-1.288-.211c-.607 0-1.088.133-1.443.4-.348.258-.522.613-.522 1.065 0 .362.111.647.333.855.222.2.589.351 1.099.455l1.177.233c.755.155 1.31.388 1.665.7.355.31.533.746.533 1.309 0 .43-.119.81-.355 1.143-.23.333-.559.592-.988.777-.43.185-.94.278-1.532.278Zm6.217 0c-.548 0-.966-.156-1.254-.466-.289-.319-.433-.796-.433-1.432v-3.075h-1.088v-.7h1.088v-1.52l.899-.255v1.776h1.598v.699h-1.598v2.975c0 .444.074.762.222.954.155.185.385.278.688.278.141 0 .266-.011.377-.034.111-.03.211-.062.3-.1v.755a1.535 1.535 0 0 1-.377.1c-.141.03-.281.045-.422.045Zm1.905-.1V66.79h.899v5.572h-.899Zm-.111-6.838v-1.01h1.11v1.01h-1.11Zm5.209 9.313c-.481 0-.925-.06-1.332-.178a3.389 3.389 0 0 1-1.099-.543l.266-.677c.23.162.455.292.677.388.222.096.452.166.689.21.236.053.488.079.754.079.548 0 .962-.145 1.244-.433.281-.289.421-.7.421-1.232v-1.632h.111a1.814 1.814 0 0 1-.732 1.043c-.37.252-.803.378-1.299.378-.511 0-.955-.111-1.332-.333a2.336 2.336 0 0 1-.866-.966c-.2-.422-.299-.918-.299-1.487 0-.563.099-1.051.299-1.466.207-.414.496-.732.866-.954.377-.23.821-.344 1.332-.344.503 0 .936.126 1.299.377.37.252.614.6.732 1.044l-.111-.112.1-1.21h.877a9.22 9.22 0 0 0-.066.656 9.078 9.078 0 0 0-.023.632v4.252c0 .828-.214 1.454-.643 1.875-.422.422-1.044.633-1.865.633Zm-.133-3.33c.54 0 .965-.178 1.276-.533.311-.362.466-.87.466-1.52 0-.652-.155-1.155-.466-1.51-.311-.355-.736-.533-1.276-.533-.533 0-.959.178-1.277.533-.318.355-.477.858-.477 1.51 0 .65.159 1.158.477 1.52.318.355.744.533 1.277.533Zm4.368.855v-4.285c0-.207-.011-.418-.033-.632-.015-.222-.034-.44-.056-.655h.866l.111 1.22h-.133c.148-.421.381-.747.699-.976.326-.23.718-.344 1.177-.344.466 0 .843.11 1.132.333.296.222.496.566.599 1.032h-.166c.14-.422.388-.755.743-.999.356-.244.77-.366 1.244-.366.614 0 1.076.177 1.387.532.311.348.466.9.466 1.654v3.486h-.899v-3.43c0-.526-.092-.907-.277-1.143-.185-.245-.481-.367-.888-.367-.467 0-.837.163-1.11.489-.267.318-.4.747-.4 1.287v3.164h-.899v-3.43c0-.526-.093-.907-.278-1.143-.185-.245-.481-.367-.888-.367-.466 0-.832.163-1.098.489-.267.318-.4.747-.4 1.287v3.164h-.899Zm11.865.1c-.496 0-.929-.115-1.299-.344a2.382 2.382 0 0 1-.865-1c-.2-.429-.3-.943-.3-1.542 0-.607.1-1.125.3-1.554.207-.43.495-.759.865-.988.37-.23.803-.344 1.299-.344.503 0 .936.13 1.299.388.37.252.614.596.732 1.032h-.133l.122-1.32h.866l-.067.654a9.729 9.729 0 0 0-.022.633v4.285h-.899v-1.31h.122c-.118.437-.362.78-.732 1.032s-.8.378-1.288.378Zm.178-.733c.532 0 .954-.181 1.265-.544.311-.37.466-.906.466-1.61 0-.71-.155-1.246-.466-1.609-.311-.37-.733-.555-1.265-.555-.526 0-.948.185-1.266.555-.311.363-.466.9-.466 1.61 0 .703.155 1.24.466 1.61.318.362.74.543 1.266.543Zm9.372.733c-.496 0-.929-.115-1.299-.344a2.39 2.39 0 0 1-.866-1c-.199-.429-.299-.943-.299-1.542 0-.607.1-1.125.299-1.554.208-.43.496-.759.866-.988.37-.23.803-.344 1.299-.344.503 0 .936.13 1.299.388.37.252.614.596.732 1.032h-.133l.122-1.32h.866l-.067.654a9.729 9.729 0 0 0-.022.633v4.285h-.899v-1.31h.122c-.118.437-.362.78-.732 1.032s-.8.378-1.288.378Zm.178-.733c.532 0 .954-.181 1.265-.544.311-.37.466-.906.466-1.61 0-.71-.155-1.246-.466-1.609-.311-.37-.733-.555-1.265-.555-.526 0-.948.185-1.266.555-.311.363-.466.9-.466 1.61 0 .703.155 1.24.466 1.61.318.362.74.543 1.266.543Zm4.357.633v-4.285c0-.207-.011-.418-.033-.632-.015-.222-.033-.44-.055-.655h.865l.111 1.22h-.133c.163-.429.422-.754.777-.976.363-.23.781-.344 1.255-.344.658 0 1.154.177 1.487.532.34.348.511.9.511 1.654v3.486h-.9v-3.43c0-.526-.107-.907-.321-1.143-.208-.245-.533-.367-.977-.367-.518 0-.929.16-1.232.478-.304.318-.455.743-.455 1.276v3.186h-.9Zm8.613.1c-.488 0-.917-.115-1.287-.344a2.384 2.384 0 0 1-.866-1c-.2-.429-.3-.943-.3-1.542 0-.607.1-1.125.3-1.554.207-.43.496-.759.866-.988.37-.23.799-.344 1.287-.344.504 0 .936.126 1.299.377.37.252.618.592.744 1.021h-.133v-3.896h.899v8.17h-.888V71.03h.122a1.822 1.822 0 0 1-.733 1.054c-.37.252-.806.378-1.31.378Zm.189-.733c.525 0 .947-.181 1.265-.544.319-.37.478-.906.478-1.61 0-.71-.159-1.246-.478-1.609-.318-.37-.74-.555-1.265-.555-.525 0-.947.185-1.265.555-.311.363-.467.9-.467 1.61 0 .703.156 1.24.467 1.61.318.362.74.543 1.265.543Zm-50.265 16.075c-.103 0-.233-.015-.388-.045a2.03 2.03 0 0 1-.389-.088v-.755c.089.03.193.055.311.078.118.03.229.044.333.044.311 0 .54-.1.688-.3.156-.192.233-.51.233-.954V79.79h.899v6.082c0 .637-.14 1.118-.421 1.443-.274.326-.696.489-1.266.489Zm.688-9.28v-1.01h1.099v1.01h-1.099Zm4.654 6.938c-.658 0-1.158-.182-1.498-.544-.333-.363-.5-.918-.5-1.665V79.79h.899v3.44c0 .511.104.889.311 1.133.207.237.529.355.966.355.488 0 .881-.16 1.177-.477.296-.319.444-.744.444-1.277V79.79h.899v5.572h-.877v-1.254h.144c-.155.429-.407.762-.755.998-.34.237-.743.356-1.21.356Zm6.551 0c-.488 0-.918-.115-1.288-.344a2.382 2.382 0 0 1-.865-1c-.2-.429-.3-.943-.3-1.542 0-.607.1-1.125.3-1.554.207-.43.495-.759.865-.988.37-.23.8-.344 1.288-.344.503 0 .936.126 1.299.377.37.252.618.592.743 1.021h-.133v-3.896h.899v8.17h-.888V84.03h.122a1.816 1.816 0 0 1-.732 1.054c-.37.252-.807.378-1.31.378Zm.189-.733c.525 0 .947-.181 1.265-.544.318-.37.477-.906.477-1.61 0-.71-.159-1.246-.477-1.609-.318-.37-.74-.555-1.265-.555-.526 0-.947.185-1.266.555-.31.363-.466.9-.466 1.61 0 .703.156 1.24.466 1.61.319.362.74.543 1.266.543Zm6.811 3.108c-.481 0-.925-.06-1.332-.178a3.389 3.389 0 0 1-1.099-.543l.266-.677c.23.162.455.292.677.388.222.096.452.166.689.21.236.053.488.079.754.079.548 0 .962-.145 1.244-.433.281-.289.421-.7.421-1.232v-1.632h.111a1.814 1.814 0 0 1-.732 1.043c-.37.252-.803.378-1.299.378-.511 0-.955-.111-1.332-.333a2.336 2.336 0 0 1-.866-.966c-.2-.422-.299-.918-.299-1.487 0-.563.099-1.051.299-1.466.207-.414.496-.732.866-.954.377-.23.821-.344 1.332-.344.503 0 .936.126 1.299.377.37.252.614.6.732 1.044l-.111-.112.1-1.21h.877a9.22 9.22 0 0 0-.066.656 9.078 9.078 0 0 0-.023.632v4.252c0 .828-.214 1.454-.643 1.875-.422.422-1.044.633-1.865.633Zm-.133-3.33c.54 0 .965-.178 1.276-.533.311-.362.466-.87.466-1.52 0-.652-.155-1.155-.466-1.51-.311-.355-.736-.533-1.276-.533-.533 0-.959.178-1.277.533-.318.355-.477.858-.477 1.51 0 .65.159 1.158.477 1.52.318.355.744.533 1.277.533Zm4.368.855v-4.285c0-.207-.011-.418-.033-.632-.015-.222-.034-.44-.056-.655h.866l.111 1.22h-.133c.148-.421.381-.747.699-.976.326-.23.718-.344 1.177-.344.466 0 .843.11 1.132.333.296.222.496.566.599 1.032h-.166c.14-.422.388-.755.743-.999.356-.244.77-.366 1.244-.366.614 0 1.076.177 1.387.532.311.348.466.9.466 1.654v3.486h-.899v-3.43c0-.526-.092-.907-.277-1.143-.185-.245-.481-.367-.888-.367-.467 0-.837.163-1.11.489-.267.318-.4.747-.4 1.287v3.164h-.899v-3.43c0-.526-.093-.907-.278-1.143-.185-.245-.481-.367-.888-.367-.466 0-.832.163-1.098.489-.267.318-.4.747-.4 1.287v3.164h-.899Zm12.22.1c-.873 0-1.561-.252-2.064-.755-.504-.51-.755-1.217-.755-2.12 0-.585.111-1.092.333-1.52a2.42 2.42 0 0 1 .932-1.011 2.59 2.59 0 0 1 1.377-.366c.51 0 .939.107 1.287.322.348.214.614.521.799.92.185.393.278.86.278 1.4v.333h-4.318v-.567h3.73l-.189.145c0-.592-.133-1.055-.4-1.388-.266-.333-.662-.5-1.187-.5-.555 0-.988.197-1.299.589-.311.385-.466.906-.466 1.565v.1c0 .696.17 1.225.51 1.587.348.356.833.533 1.454.533.333 0 .644-.048.933-.144.296-.104.577-.27.843-.5l.311.633a2.522 2.522 0 0 1-.932.555 3.63 3.63 0 0 1-1.177.189Zm3.563-.1v-4.285c0-.207-.011-.418-.034-.632-.014-.222-.033-.44-.055-.655h.866l.111 1.22h-.134c.163-.429.422-.754.777-.976.363-.23.781-.344 1.255-.344.658 0 1.154.177 1.487.532.341.348.511.9.511 1.654v3.486h-.899v-3.43c0-.526-.108-.907-.322-1.143-.207-.245-.533-.367-.977-.367-.518 0-.929.16-1.232.478-.304.318-.455.743-.455 1.276v3.186h-.899Zm8.479.1c-.547 0-.965-.156-1.254-.466-.289-.319-.433-.796-.433-1.432v-3.075h-1.088v-.7h1.088v-1.52l.899-.255v1.776h1.599v.699h-1.599v2.975c0 .444.074.762.222.954.156.185.385.278.688.278.141 0 .267-.011.378-.034.111-.03.211-.062.3-.1v.755c-.104.045-.23.078-.378.1-.14.03-.281.045-.422.045Z"/>
    <path class="w8" d="m79.685 227.113 3.452-7.825h.8l3.507 7.825h-.955l-.977-2.231.411.233H81.14l.444-.233-.954 2.231h-.944Zm3.84-6.771-1.798 4.218-.266-.2h4.13l-.2.2-1.843-4.218h-.022Zm7.287 6.871c-.547 0-1.025-.118-1.431-.355-.4-.237-.71-.574-.933-1.01-.214-.437-.322-.955-.322-1.554 0-.607.111-1.121.333-1.543a2.29 2.29 0 0 1 .933-.977c.407-.222.88-.333 1.42-.333.356 0 .7.063 1.033.189.34.126.621.303.843.533l-.322.643a2.21 2.21 0 0 0-1.498-.632c-.577 0-1.025.181-1.343.544-.318.362-.478.891-.478 1.587 0 .688.16 1.221.478 1.598.318.378.766.566 1.343.566.244 0 .496-.048.755-.144.266-.096.514-.255.743-.477l.322.633c-.23.236-.514.418-.854.543-.34.126-.681.189-1.022.189Zm5.388 0c-.548 0-1.025-.118-1.432-.355-.4-.237-.71-.574-.933-1.01-.214-.437-.321-.955-.321-1.554 0-.607.11-1.121.333-1.543a2.29 2.29 0 0 1 .932-.977c.407-.222.88-.333 1.42-.333.356 0 .7.063 1.033.189.34.126.622.303.844.533l-.322.643a2.21 2.21 0 0 0-1.499-.632c-.577 0-1.025.181-1.343.544-.318.362-.477.891-.477 1.587 0 .688.159 1.221.477 1.598.318.378.766.566 1.343.566.245 0 .496-.048.755-.144.266-.096.514-.255.744-.477l.322.633c-.23.236-.515.418-.855.543-.34.126-.68.189-1.021.189Zm5.332 0c-.533 0-.999-.115-1.399-.344a2.385 2.385 0 0 1-.91-.999c-.215-.437-.322-.951-.322-1.543 0-.599.107-1.114.322-1.543.215-.429.518-.758.91-.988.4-.236.866-.355 1.399-.355.54 0 1.006.119 1.398.355.4.23.707.559.922.988.222.429.333.944.333 1.543 0 .592-.111 1.106-.333 1.543a2.364 2.364 0 0 1-.922.999c-.392.229-.858.344-1.398.344Zm0-.732c.533 0 .954-.182 1.265-.544.311-.37.466-.907.466-1.61 0-.71-.159-1.247-.477-1.609-.311-.37-.729-.555-1.254-.555-.526 0-.944.185-1.255.555-.31.362-.466.899-.466 1.609 0 .703.156 1.24.466 1.61.311.362.729.544 1.255.544Zm4.054.632v-4.284c0-.208-.011-.418-.033-.633-.015-.222-.033-.44-.055-.655h.865l.111 1.221h-.133c.148-.422.381-.747.7-.977.325-.229.717-.344 1.176-.344.466 0 .844.111 1.132.333.296.222.496.566.6 1.032h-.167a1.92 1.92 0 0 1 .744-.999c.355-.244.77-.366 1.243-.366.614 0 1.077.178 1.388.533.31.348.466.899.466 1.654v3.485h-.899v-3.43c0-.525-.093-.906-.278-1.143-.185-.244-.481-.366-.888-.366-.466 0-.836.163-1.11.488-.266.318-.399.748-.399 1.288v3.163h-.899v-3.43c0-.525-.093-.906-.278-1.143-.185-.244-.481-.366-.888-.366-.466 0-.832.163-1.099.488-.266.318-.399.748-.399 1.288v3.163h-.9Zm9.745 0v-4.284c0-.208-.011-.418-.033-.633-.015-.222-.033-.44-.055-.655h.865l.111 1.221h-.133c.148-.422.381-.747.7-.977.325-.229.717-.344 1.176-.344.466 0 .844.111 1.132.333.296.222.496.566.6 1.032h-.167a1.92 1.92 0 0 1 .744-.999c.355-.244.77-.366 1.243-.366.614 0 1.077.178 1.388.533.31.348.466.899.466 1.654v3.485h-.899v-3.43c0-.525-.093-.906-.278-1.143-.185-.244-.481-.366-.888-.366-.466 0-.836.163-1.11.488-.266.318-.399.748-.399 1.288v3.163h-.899v-3.43c0-.525-.093-.906-.278-1.143-.185-.244-.481-.366-.888-.366-.466 0-.832.163-1.099.488-.266.318-.399.748-.399 1.288v3.163h-.9Zm12.032.1c-.533 0-.999-.115-1.399-.344a2.388 2.388 0 0 1-.91-.999c-.214-.437-.322-.951-.322-1.543 0-.599.108-1.114.322-1.543.215-.429.518-.758.91-.988.4-.236.866-.355 1.399-.355.54 0 1.006.119 1.399.355a2.3 2.3 0 0 1 .921.988c.222.429.333.944.333 1.543 0 .592-.111 1.106-.333 1.543a2.368 2.368 0 0 1-.921.999c-.393.229-.859.344-1.399.344Zm0-.732c.533 0 .955-.182 1.265-.544.311-.37.467-.907.467-1.61 0-.71-.159-1.247-.478-1.609-.31-.37-.729-.555-1.254-.555s-.943.185-1.254.555c-.311.362-.466.899-.466 1.609 0 .703.155 1.24.466 1.61.311.362.729.544 1.254.544Zm6.164.732c-.489 0-.918-.115-1.288-.344a2.393 2.393 0 0 1-.866-.999c-.199-.429-.299-.943-.299-1.543 0-.607.1-1.125.299-1.554a2.32 2.32 0 0 1 .866-.988c.37-.229.799-.344 1.288-.344.503 0 .936.126 1.298.378.37.251.618.592.744 1.021h-.133v-3.896h.899v8.169h-.888v-1.332h.122a1.817 1.817 0 0 1-.732 1.055c-.37.251-.807.377-1.31.377Zm.188-.732c.526 0 .948-.182 1.266-.544.318-.37.477-.907.477-1.61 0-.71-.159-1.247-.477-1.609-.318-.37-.74-.555-1.266-.555-.525 0-.947.185-1.265.555-.311.362-.466.899-.466 1.609 0 .703.155 1.24.466 1.61.318.362.74.544 1.265.544Zm6.479.732c-.496 0-.929-.115-1.299-.344a2.386 2.386 0 0 1-.866-.999c-.2-.429-.3-.943-.3-1.543 0-.607.1-1.125.3-1.554.207-.429.496-.758.866-.988.37-.229.803-.344 1.299-.344.503 0 .936.13 1.298.389.37.251.614.595.733 1.032h-.133l.122-1.321h.866c-.023.215-.045.433-.067.655a9.07 9.07 0 0 0-.022.633v4.284h-.899v-1.31h.122a1.774 1.774 0 0 1-.733 1.033c-.37.251-.799.377-1.287.377Zm.177-.732c.533 0 .955-.182 1.266-.544.31-.37.466-.907.466-1.61 0-.71-.156-1.247-.466-1.609-.311-.37-.733-.555-1.266-.555-.525 0-.947.185-1.265.555-.311.362-.466.899-.466 1.609 0 .703.155 1.24.466 1.61.318.362.74.544 1.265.544Zm6.334.732c-.548 0-.966-.155-1.254-.466-.289-.318-.433-.796-.433-1.432v-3.075h-1.088v-.699h1.088v-1.521l.899-.255v1.776h1.598v.699h-1.598v2.975c0 .444.074.762.222.955.155.185.385.277.688.277.141 0 .266-.011.377-.033a2.45 2.45 0 0 0 .3-.1v.755a1.544 1.544 0 0 1-.377.1 2.086 2.086 0 0 1-.422.044Zm1.905-.1v-5.572h.899v5.572h-.899Zm-.111-6.837v-1.01h1.11v1.01h-1.11Zm5.042 6.937c-.533 0-.999-.115-1.398-.344a2.384 2.384 0 0 1-.911-.999c-.214-.437-.321-.951-.321-1.543 0-.599.107-1.114.321-1.543.215-.429.518-.758.911-.988.399-.236.865-.355 1.398-.355.54 0 1.007.119 1.399.355.399.23.707.559.921.988.222.429.333.944.333 1.543 0 .592-.111 1.106-.333 1.543a2.362 2.362 0 0 1-.921.999c-.392.229-.859.344-1.399.344Zm0-.732c.533 0 .955-.182 1.266-.544.31-.37.466-.907.466-1.61 0-.71-.159-1.247-.477-1.609-.311-.37-.729-.555-1.255-.555-.525 0-.943.185-1.254.555-.311.362-.466.899-.466 1.609 0 .703.155 1.24.466 1.61.311.362.729.544 1.254.544Zm4.055.632v-4.284c0-.208-.011-.418-.033-.633-.015-.222-.034-.44-.056-.655h.866l.111 1.221h-.133c.163-.429.422-.755.777-.977.362-.229.78-.344 1.254-.344.659 0 1.154.178 1.487.533.341.348.511.899.511 1.654v3.485h-.899v-3.43c0-.525-.107-.906-.322-1.143-.207-.244-.533-.366-.977-.366-.518 0-.928.159-1.232.477-.303.318-.455.744-.455 1.277v3.185h-.899Zm8.358.1c-.444 0-.859-.059-1.244-.177a2.684 2.684 0 0 1-.954-.522l.311-.633c.273.215.569.374.888.477.325.104.662.156 1.01.156.444 0 .777-.078.999-.233a.775.775 0 0 0 .344-.666.636.636 0 0 0-.222-.511c-.141-.133-.374-.237-.7-.311l-1.032-.211c-.473-.103-.829-.277-1.065-.521-.237-.252-.356-.57-.356-.955 0-.325.085-.61.256-.855.17-.251.418-.447.743-.588.326-.148.707-.222 1.144-.222.407 0 .78.063 1.121.189a2.2 2.2 0 0 1 .866.522l-.322.621a2.126 2.126 0 0 0-.766-.477 2.37 2.37 0 0 0-.877-.167c-.437 0-.766.089-.988.267a.82.82 0 0 0-.322.677c0 .214.067.392.2.533.14.133.355.233.644.299l1.032.211c.503.111.877.285 1.121.522.252.229.377.54.377.932 0 .333-.092.626-.277.877a1.772 1.772 0 0 1-.777.566c-.326.134-.71.2-1.154.2Zm-58.394 13c-.496 0-.929-.115-1.299-.344a2.384 2.384 0 0 1-.865-.999c-.2-.429-.3-.943-.3-1.543 0-.607.1-1.125.3-1.554.207-.429.495-.758.865-.988.37-.229.803-.344 1.299-.344.503 0 .936.13 1.299.389.37.251.614.595.732 1.032h-.133l.122-1.321h.866l-.066.655a9.078 9.078 0 0 0-.023.633v4.284h-.899v-1.31h.122a1.768 1.768 0 0 1-.732 1.033c-.37.251-.799.377-1.288.377Zm.178-.732c.533 0 .954-.182 1.265-.544.311-.37.466-.907.466-1.61 0-.71-.155-1.247-.466-1.609-.311-.37-.732-.555-1.265-.555-.526 0-.947.185-1.266.555-.31.362-.466.899-.466 1.609 0 .703.156 1.24.466 1.61.319.362.74.544 1.266.544Zm6.334.732c-.548 0-.966-.155-1.255-.466-.288-.318-.433-.796-.433-1.432v-3.075h-1.087v-.699h1.087v-1.521l.899-.255v1.776h1.599v.699h-1.599v2.975c0 .444.074.762.222.955.156.185.385.277.689.277.14 0 .266-.011.377-.033a2.45 2.45 0 0 0 .3-.1v.755c-.104.044-.23.078-.378.1-.14.029-.281.044-.421.044Zm6.286-.1-2.065-5.572h.955l1.721 4.906h-.289l1.776-4.906h.777l1.743 4.906h-.278l1.732-4.906h.91l-2.076 5.572h-.866l-1.798-4.984h.444l-1.809 4.984h-.877Zm10.371.1c-.533 0-.999-.115-1.399-.344a2.388 2.388 0 0 1-.91-.999c-.215-.437-.322-.951-.322-1.543 0-.599.107-1.114.322-1.543.215-.429.518-.758.91-.988.4-.236.866-.355 1.399-.355.54 0 1.006.119 1.398.355.4.23.707.559.922.988.222.429.333.944.333 1.543 0 .592-.111 1.106-.333 1.543a2.364 2.364 0 0 1-.922.999c-.392.229-.858.344-1.398.344Zm0-.732c.533 0 .954-.182 1.265-.544.311-.37.466-.907.466-1.61 0-.71-.159-1.247-.477-1.609-.311-.37-.729-.555-1.254-.555-.526 0-.944.185-1.254.555-.311.362-.467.899-.467 1.609 0 .703.156 1.24.467 1.61.31.362.728.544 1.254.544Zm4.032.632v-4.229c0-.222-.007-.448-.022-.677a9.346 9.346 0 0 0-.044-.666h.866l.111 1.354-.156.011c.074-.333.204-.606.389-.821.185-.215.403-.374.655-.477a1.93 1.93 0 0 1 .788-.167c.111 0 .207.004.288.011.089.008.17.026.244.056l-.011.799a1.333 1.333 0 0 0-.31-.067 2.018 2.018 0 0 0-.311-.022 1.56 1.56 0 0 0-.855.233 1.566 1.566 0 0 0-.544.6 1.762 1.762 0 0 0-.177.777v3.285h-.911Zm4.055 0v-8.169h.899v5.072h.022l2.587-2.475h1.132l-3.053 2.908.022-.455 3.319 3.119h-1.165l-2.842-2.619h-.022v2.619h-.899ZM23.042 155.213c-1.058 0-1.846-.27-2.364-.81-.51-.54-.766-1.336-.766-2.387v-4.728h.91v4.684c0 .807.178 1.413.533 1.82.355.407.917.611 1.687.611.725 0 1.276-.204 1.654-.611.377-.407.566-1.013.566-1.82v-4.684h.91v4.728c0 1.051-.266 1.847-.799 2.387-.525.54-1.302.81-2.331.81Zm4.922-.1v-4.284c0-.208-.01-.418-.033-.633-.015-.222-.033-.44-.055-.655h.865l.111 1.221h-.133c.163-.429.422-.755.777-.977.363-.229.781-.344 1.255-.344.658 0 1.154.178 1.487.533.34.348.51.899.51 1.654v3.485h-.898v-3.43c0-.525-.108-.906-.322-1.143-.208-.244-.533-.366-.977-.366-.518 0-.929.159-1.232.477-.304.318-.455.744-.455 1.277v3.185h-.9Zm8.98.1c-.873 0-1.562-.251-2.065-.755-.503-.51-.755-1.217-.755-2.12 0-.584.111-1.091.333-1.52.222-.437.533-.774.933-1.011.4-.244.858-.366 1.376-.366.51 0 .94.107 1.288.322.348.215.614.522.799.921.185.393.277.859.277 1.399v.333h-4.317v-.566h3.73l-.19.144c0-.592-.133-1.054-.4-1.387-.266-.333-.661-.5-1.187-.5-.555 0-.988.196-1.298.588-.311.385-.467.907-.467 1.566v.099c0 .696.17 1.225.51 1.588.349.355.833.533 1.455.533.333 0 .644-.049.932-.145.296-.103.578-.27.844-.499l.31.632a2.517 2.517 0 0 1-.932.555c-.37.126-.762.189-1.176.189Zm2.764-.1 2.498-3.097v.444l-2.365-2.919h1.088l1.787 2.276h-.322l1.776-2.276h1.077l-2.331 2.908v-.41l2.475 3.074h-1.099l-1.909-2.431h.333l-1.931 2.431h-1.077Zm6.695 2.398v-6.682c0-.208-.011-.418-.033-.633-.015-.222-.033-.44-.056-.655h.866l.122 1.321h-.133a1.78 1.78 0 0 1 .722-1.032c.362-.259.795-.389 1.298-.389s.936.115 1.299.344c.37.23.659.559.866.988.207.429.31.947.31 1.554 0 .6-.103 1.114-.31 1.543-.2.429-.485.762-.855.999-.37.229-.807.344-1.31.344-.496 0-.925-.126-1.287-.377a1.786 1.786 0 0 1-.722-1.033h.122v3.708h-.899Zm2.609-3.03c.532 0 .954-.182 1.265-.544.318-.37.477-.907.477-1.61 0-.71-.159-1.247-.477-1.609-.31-.37-.733-.555-1.265-.555-.526 0-.948.185-1.266.555-.31.362-.466.899-.466 1.609 0 .703.155 1.24.466 1.61.318.362.74.544 1.266.544Zm6.522.732c-.873 0-1.561-.251-2.065-.755-.503-.51-.754-1.217-.754-2.12 0-.584.11-1.091.333-1.52.222-.437.532-.774.932-1.011.4-.244.859-.366 1.377-.366.51 0 .94.107 1.287.322.348.215.614.522.8.921.184.393.277.859.277 1.399v.333h-4.318v-.566h3.73l-.19.144c0-.592-.132-1.054-.399-1.387-.266-.333-.662-.5-1.188-.5-.555 0-.987.196-1.298.588-.311.385-.466.907-.466 1.566v.099c0 .696.17 1.225.51 1.588.348.355.833.533 1.454.533.333 0 .644-.049.933-.145.296-.103.577-.27.843-.499l.311.632a2.517 2.517 0 0 1-.932.555c-.37.126-.762.189-1.177.189Zm5.905 0c-.548 0-1.025-.118-1.432-.355-.4-.237-.71-.574-.933-1.01-.214-.437-.322-.955-.322-1.554 0-.607.111-1.121.334-1.543a2.29 2.29 0 0 1 .932-.977c.407-.222.88-.333 1.42-.333.356 0 .7.063 1.033.189.34.126.622.303.844.533l-.322.643a2.21 2.21 0 0 0-1.499-.632c-.577 0-1.025.181-1.343.544-.318.362-.477.891-.477 1.587 0 .688.159 1.221.477 1.598.318.378.766.566 1.343.566.244 0 .496-.048.755-.144.266-.096.514-.255.744-.477l.322.633c-.23.236-.515.418-.855.543-.34.126-.68.189-1.021.189Zm5.13 0c-.548 0-.966-.155-1.255-.466-.289-.318-.433-.796-.433-1.432v-3.075h-1.088v-.699h1.088v-1.521l.9-.255v1.776h1.597v.699H65.78v2.975c0 .444.074.762.222.955.156.185.385.277.688.277.14 0 .267-.011.378-.033.11-.03.21-.063.3-.1v.755c-.104.044-.23.078-.378.1-.14.029-.281.044-.422.044Zm4.325 0c-.873 0-1.561-.251-2.065-.755-.503-.51-.754-1.217-.754-2.12 0-.584.11-1.091.333-1.52.222-.437.532-.774.932-1.011.4-.244.858-.366 1.376-.366.511 0 .94.107 1.288.322.348.215.614.522.8.921.184.393.277.859.277 1.399v.333h-4.318v-.566h3.73l-.19.144c0-.592-.132-1.054-.399-1.387-.266-.333-.662-.5-1.188-.5-.554 0-.987.196-1.298.588-.311.385-.466.907-.466 1.566v.099c0 .696.17 1.225.51 1.588.348.355.833.533 1.454.533.333 0 .644-.049.933-.145.296-.103.577-.27.843-.499l.311.632a2.517 2.517 0 0 1-.932.555c-.37.126-.763.189-1.177.189Zm5.672 0c-.489 0-.918-.115-1.288-.344a2.387 2.387 0 0 1-.866-.999c-.2-.429-.3-.943-.3-1.543 0-.607.1-1.125.3-1.554.207-.429.496-.758.866-.988.37-.229.8-.344 1.288-.344.503 0 .936.126 1.298.378.37.251.618.592.744 1.021h-.133v-3.896h.899v8.169h-.888v-1.332h.122a1.82 1.82 0 0 1-.733 1.055c-.37.251-.806.377-1.31.377Zm.188-.732c.526 0 .947-.182 1.266-.544.318-.37.477-.907.477-1.61 0-.71-.16-1.247-.477-1.609-.319-.37-.74-.555-1.266-.555-.525 0-.947.185-1.265.555-.31.362-.466.899-.466 1.609 0 .703.155 1.24.466 1.61.318.362.74.544 1.265.544Zm-40.656 13.732c-.873 0-1.561-.251-2.064-.755-.504-.51-.755-1.217-.755-2.12 0-.584.11-1.091.333-1.52.222-.437.533-.774.932-1.011.4-.244.859-.366 1.377-.366.51 0 .94.107 1.287.322.348.215.614.522.8.921.184.393.277.859.277 1.399v.333h-4.318v-.566h3.73l-.19.144c0-.592-.132-1.054-.399-1.387-.266-.333-.662-.5-1.187-.5-.555 0-.988.196-1.3.588-.31.385-.465.907-.465 1.566v.099c0 .696.17 1.225.51 1.588.348.355.833.533 1.454.533.333 0 .644-.049.933-.145.296-.103.577-.27.843-.499l.311.632a2.517 2.517 0 0 1-.932.555c-.37.126-.762.189-1.177.189Zm5.14-.1-2.386-5.572h.977l1.998 4.906h-.3l2.02-4.906h.933l-2.387 5.572h-.855Zm6.654.1c-.873 0-1.561-.251-2.065-.755-.503-.51-.754-1.217-.754-2.12 0-.584.11-1.091.333-1.52.222-.437.532-.774.932-1.011.4-.244.858-.366 1.376-.366.511 0 .94.107 1.288.322.348.215.614.522.8.921.184.393.277.859.277 1.399v.333H45.76v-.566h3.73l-.19.144c0-.592-.133-1.054-.399-1.387-.266-.333-.662-.5-1.188-.5-.555 0-.987.196-1.298.588-.311.385-.466.907-.466 1.566v.099c0 .696.17 1.225.51 1.588.348.355.833.533 1.454.533.333 0 .644-.049.933-.145.296-.103.577-.27.843-.499l.311.632a2.517 2.517 0 0 1-.932.555c-.37.126-.763.189-1.177.189Zm3.563-.1v-4.284c0-.208-.012-.418-.034-.633-.015-.222-.033-.44-.055-.655h.865l.111 1.221h-.133c.163-.429.422-.755.777-.977.363-.229.781-.344 1.255-.344.658 0 1.154.178 1.487.533.34.348.51.899.51 1.654v3.485h-.898v-3.43c0-.525-.108-.906-.322-1.143-.208-.244-.533-.366-.977-.366-.518 0-.929.159-1.232.477-.304.318-.455.744-.455 1.277v3.185h-.9Zm8.48.1c-.548 0-.967-.155-1.255-.466-.289-.318-.433-.796-.433-1.432v-3.075h-1.088v-.699h1.088v-1.521l.9-.255v1.776h1.598v.699h-1.599v2.975c0 .444.074.762.222.955.155.185.385.277.688.277.14 0 .267-.011.378-.033.11-.03.21-.063.3-.1v.755c-.104.044-.23.078-.378.1-.14.029-.281.044-.422.044Zm3.758 0a4.22 4.22 0 0 1-1.243-.177 2.685 2.685 0 0 1-.955-.522l.31-.633c.275.215.57.374.889.477a3.3 3.3 0 0 0 1.01.156c.444 0 .777-.078.999-.233a.775.775 0 0 0 .344-.666.636.636 0 0 0-.222-.511c-.14-.133-.374-.237-.7-.311l-1.032-.211c-.473-.103-.828-.277-1.065-.521-.237-.252-.355-.57-.355-.955 0-.325.085-.61.255-.855.17-.251.418-.447.744-.588.325-.148.706-.222 1.143-.222.407 0 .78.063 1.121.189.348.118.636.292.866.522l-.322.621a2.121 2.121 0 0 0-.766-.477 2.368 2.368 0 0 0-.877-.167c-.437 0-.766.089-.988.267a.821.821 0 0 0-.322.677c0 .214.067.392.2.533.14.133.355.233.644.299l1.032.211c.503.111.877.285 1.121.522.252.229.378.54.378.932 0 .333-.093.626-.278.877a1.772 1.772 0 0 1-.777.566c-.325.134-.71.2-1.154.2Z"/>
    <path class="w7" d="m227.516 11.113-2.731-7.825h.966l2.386 7.048h-.388l2.509-7.048h.732l2.376 7.048h-.356l2.453-7.048h.911l-2.753 7.825h-.822l-2.308-6.782h.233l-2.409 6.782h-.799Zm10.115 0v-8.17h.899v3.83h-.144c.155-.436.414-.766.777-.988.37-.23.796-.344 1.277-.344.666 0 1.161.181 1.487.544.326.355.488.895.488 1.62v3.508h-.899V7.661c0-.518-.103-.895-.311-1.132-.199-.237-.525-.355-.976-.355-.518 0-.933.159-1.244.477-.303.318-.455.736-.455 1.254v3.208h-.899Zm8.98.1c-.874 0-1.562-.251-2.065-.755-.503-.51-.755-1.217-.755-2.12 0-.584.111-1.091.333-1.52.222-.437.533-.774.933-1.01a2.583 2.583 0 0 1 1.376-.367c.511 0 .94.107 1.288.322.347.215.614.522.799.921.185.393.277.859.277 1.399v.333h-4.318V7.85h3.73l-.189.144c0-.592-.133-1.054-.399-1.387-.267-.333-.663-.5-1.188-.5-.555 0-.988.196-1.299.588-.311.385-.466.907-.466 1.566v.1c0 .695.17 1.224.511 1.587.347.355.832.533 1.454.533.333 0 .644-.049.932-.145.296-.103.577-.27.844-.5l.311.633a2.527 2.527 0 0 1-.933.556c-.37.125-.762.188-1.176.188Zm3.54-.1V6.884c0-.222-.008-.448-.022-.677a9.925 9.925 0 0 0-.045-.666h.866l.111 1.354-.155.011c.074-.333.203-.606.388-.821a1.72 1.72 0 0 1 .655-.477c.252-.111.514-.167.788-.167.111 0 .207.004.289.011.088.008.17.026.244.056l-.011.799a1.308 1.308 0 0 0-.311-.067 1.912 1.912 0 0 0-.311-.022c-.325 0-.61.078-.855.233a1.563 1.563 0 0 0-.543.6 1.75 1.75 0 0 0-.178.777v3.285h-.91Zm6.465.1c-.874 0-1.562-.251-2.065-.755-.503-.51-.755-1.217-.755-2.12 0-.584.111-1.091.333-1.52.222-.437.533-.774.933-1.01a2.583 2.583 0 0 1 1.376-.367c.511 0 .94.107 1.288.322.347.215.614.522.799.921.185.393.277.859.277 1.399v.333h-4.318V7.85h3.73l-.189.144c0-.592-.133-1.054-.399-1.387-.267-.333-.663-.5-1.188-.5-.555 0-.988.196-1.299.588-.31.385-.466.907-.466 1.566v.1c0 .695.17 1.224.511 1.587.348.355.832.533 1.454.533.333 0 .644-.049.932-.145.296-.103.577-.27.844-.5l.311.633a2.527 2.527 0 0 1-.933.556c-.37.125-.762.188-1.176.188Zm6.234 2.42-.21-.744c.347-.081.636-.177.865-.288a1.65 1.65 0 0 0 .589-.422c.155-.178.288-.4.399-.666l.289-.655-.022.377-2.431-5.694h.977l2.009 4.895h-.289l1.987-4.895h.943l-2.575 6.038a4.149 4.149 0 0 1-.488.888c-.178.245-.37.44-.577.589-.2.155-.422.277-.666.366a4.86 4.86 0 0 1-.8.211Zm8.33-2.42c-.533 0-.999-.114-1.399-.344a2.386 2.386 0 0 1-.91-.999c-.214-.437-.322-.95-.322-1.543 0-.6.108-1.114.322-1.543.215-.429.518-.758.91-.988.4-.236.866-.355 1.399-.355.54 0 1.006.119 1.399.355.399.23.706.56.921.988.222.43.333.944.333 1.543 0 .592-.111 1.106-.333 1.543-.215.43-.522.762-.921 1-.393.229-.859.343-1.399.343Zm0-.732c.533 0 .955-.182 1.265-.544.311-.37.467-.907.467-1.61 0-.71-.159-1.247-.478-1.61-.31-.37-.729-.554-1.254-.554s-.943.185-1.254.555c-.311.362-.466.899-.466 1.61 0 .702.155 1.239.466 1.609.311.362.729.544 1.254.544Zm6.019.732c-.658 0-1.158-.181-1.498-.544-.333-.362-.5-.917-.5-1.665V5.541h.9v3.441c0 .51.103.888.31 1.132.208.237.529.355.966.355.488 0 .881-.159 1.177-.477.296-.318.444-.744.444-1.276V5.54h.899v5.572h-.877V9.86h.144c-.155.43-.407.762-.755.999-.34.237-.743.355-1.21.355Zm7.336-.1v-8.17h.899v8.17h-.899Zm2.645 0V5.541h.899v5.572h-.899Zm-.111-6.837v-1.01h1.11v1.01h-1.11Zm4.399 6.837-2.387-5.572h.977l1.998 4.906h-.299l2.02-4.906h.932l-2.386 5.572h-.855Zm6.653.1c-.873 0-1.561-.251-2.064-.755-.503-.51-.755-1.217-.755-2.12 0-.584.111-1.091.333-1.52a2.42 2.42 0 0 1 .932-1.01 2.59 2.59 0 0 1 1.377-.367c.51 0 .94.107 1.287.322.348.215.615.522.8.921.185.393.277.859.277 1.399v.333h-4.318V7.85h3.73l-.189.144c0-.592-.133-1.054-.399-1.387-.267-.333-.663-.5-1.188-.5-.555 0-.988.196-1.299.588-.311.385-.466.907-.466 1.566v.1c0 .695.17 1.224.511 1.587.347.355.832.533 1.454.533.333 0 .643-.049.932-.145.296-.103.577-.27.844-.5l.31.633a2.522 2.522 0 0 1-.932.556 3.63 3.63 0 0 1-1.177.188ZM44.896 11.113V3.288h.921v7.825h-.921Zm2.772 0V6.83c0-.208-.01-.418-.033-.633-.015-.222-.033-.44-.055-.655h.865l.111 1.221h-.133c.148-.422.381-.747.7-.977.325-.23.717-.344 1.176-.344.466 0 .844.111 1.132.333.296.222.496.566.6 1.032h-.167a1.91 1.91 0 0 1 .744-.999 2.14 2.14 0 0 1 1.243-.366c.614 0 1.077.178 1.388.533.31.348.466.9.466 1.654v3.485h-.9v-3.43c0-.525-.092-.906-.277-1.143-.185-.244-.48-.366-.888-.366-.466 0-.836.163-1.11.488-.266.318-.4.748-.4 1.288v3.163h-.899v-3.43c0-.525-.092-.906-.277-1.143-.185-.244-.481-.366-.888-.366-.466 0-.833.163-1.099.488-.266.318-.4.748-.4 1.288v3.163h-.899Zm9.745 0V6.83c0-.208-.01-.418-.033-.633-.015-.222-.033-.44-.055-.655h.865l.111 1.221h-.133c.148-.422.381-.747.7-.977.325-.23.717-.344 1.176-.344.466 0 .844.111 1.132.333.296.222.496.566.6 1.032h-.167a1.91 1.91 0 0 1 .744-.999 2.14 2.14 0 0 1 1.243-.366c.614 0 1.077.178 1.388.533.31.348.466.9.466 1.654v3.485h-.9v-3.43c0-.525-.092-.906-.277-1.143-.185-.244-.48-.366-.888-.366-.466 0-.836.163-1.11.488-.266.318-.4.748-.4 1.288v3.163h-.898v-3.43c0-.525-.093-.906-.278-1.143-.185-.244-.481-.366-.888-.366-.466 0-.833.163-1.099.488-.266.318-.4.748-.4 1.288v3.163h-.899Zm9.745 0V5.541h.9v5.572h-.9Zm-.11-6.837v-1.01h1.11v1.01h-1.11Zm5.208 9.313c-.48 0-.925-.06-1.332-.178a3.394 3.394 0 0 1-1.099-.544l.267-.677c.23.163.455.292.677.389.222.096.451.166.688.21.237.052.489.078.755.078.548 0 .962-.144 1.243-.433.281-.288.422-.7.422-1.232V9.57h.111a1.817 1.817 0 0 1-.733 1.044c-.37.251-.802.377-1.298.377-.51 0-.955-.11-1.332-.333a2.337 2.337 0 0 1-.866-.966c-.2-.421-.3-.917-.3-1.487 0-.562.1-1.05.3-1.465.207-.415.496-.733.866-.955.377-.23.821-.344 1.332-.344.503 0 .936.126 1.298.378.37.251.615.599.733 1.043l-.111-.111.1-1.21h.877a9.338 9.338 0 0 0-.089 1.288v4.251c0 .829-.215 1.454-.644 1.876-.422.422-1.043.633-1.865.633Zm-.133-3.33c.54 0 .966-.178 1.277-.533.31-.363.466-.87.466-1.52 0-.652-.156-1.155-.466-1.51-.311-.356-.737-.533-1.277-.533-.533 0-.958.177-1.276.532-.319.356-.478.859-.478 1.51s.16 1.158.478 1.52c.318.356.743.534 1.276.534Zm4.346.854V6.884c0-.222-.007-.448-.022-.677a9.429 9.429 0 0 0-.044-.666h.865l.111 1.354-.155.011c.074-.333.204-.606.389-.821.185-.215.403-.374.654-.477.252-.111.515-.167.789-.167.11 0 .207.004.288.011.089.008.17.026.244.056l-.01.799a1.305 1.305 0 0 0-.312-.067 1.912 1.912 0 0 0-.31-.022c-.326 0-.61.078-.855.233a1.566 1.566 0 0 0-.544.6 1.758 1.758 0 0 0-.178.777v3.285h-.91Zm6.12.1c-.495 0-.928-.114-1.298-.344a2.385 2.385 0 0 1-.866-.999c-.2-.43-.3-.943-.3-1.543 0-.607.1-1.125.3-1.554a2.31 2.31 0 0 1 .866-.988c.37-.23.803-.344 1.299-.344.503 0 .936.13 1.298.389.37.251.615.595.733 1.032h-.133l.122-1.32h.866l-.067.654a9.196 9.196 0 0 0-.022.633v4.284h-.9v-1.31h.123a1.77 1.77 0 0 1-.733 1.033c-.37.251-.799.377-1.287.377Zm.178-.732c.533 0 .955-.182 1.266-.544.31-.37.466-.907.466-1.61 0-.71-.155-1.247-.466-1.61-.311-.37-.733-.554-1.266-.554-.525 0-.947.185-1.265.555-.31.362-.466.899-.466 1.61 0 .702.155 1.239.466 1.609.318.362.74.544 1.265.544Zm6.334.732c-.547 0-.966-.155-1.254-.466-.289-.318-.433-.796-.433-1.432V6.24h-1.088v-.699h1.088v-1.52l.9-.256v1.776h1.598v.7h-1.599v2.974c0 .444.074.762.222.955.156.185.385.277.688.277.14 0 .267-.01.378-.033.11-.03.21-.063.3-.1v.755c-.104.044-.23.078-.378.1-.14.03-.281.044-.422.044Zm1.905-.1V5.541h.9v5.572h-.9Zm-.11-6.837v-1.01h1.11v1.01h-1.11Zm5.042 6.937c-.533 0-1-.114-1.399-.344a2.382 2.382 0 0 1-.91-.999c-.215-.437-.322-.95-.322-1.543 0-.6.107-1.114.322-1.543a2.31 2.31 0 0 1 .91-.988c.4-.236.866-.355 1.399-.355.54 0 1.006.119 1.398.355.4.23.707.56.921.988.222.43.334.944.334 1.543 0 .592-.111 1.106-.334 1.543a2.36 2.36 0 0 1-.92 1c-.393.229-.86.343-1.4.343Zm0-.732c.532 0 .954-.182 1.265-.544.31-.37.466-.907.466-1.61 0-.71-.159-1.247-.477-1.61-.31-.37-.729-.554-1.254-.554-.526 0-.944.185-1.255.555-.31.362-.466.899-.466 1.61 0 .702.156 1.239.466 1.609.311.362.73.544 1.255.544Zm4.054.632V6.83c0-.208-.01-.418-.033-.633-.015-.222-.033-.44-.056-.655h.866l.111 1.221h-.133c.163-.43.422-.755.777-.977.363-.23.781-.344 1.254-.344.659 0 1.155.178 1.488.533.34.348.51.9.51 1.654v3.485h-.899v-3.43c0-.525-.107-.906-.322-1.143-.207-.244-.532-.366-.976-.366-.518 0-.929.159-1.233.477-.303.318-.455.744-.455 1.277v3.185h-.899Zm11.252.1c-.444 0-.858-.059-1.243-.177a2.685 2.685 0 0 1-.955-.522l.311-.633c.274.215.57.374.888.477.326.104.662.156 1.01.156.444 0 .777-.078.999-.233a.773.773 0 0 0 .344-.666.635.635 0 0 0-.222-.51c-.14-.134-.373-.238-.699-.312l-1.032-.21c-.474-.104-.829-.278-1.066-.522-.237-.252-.355-.57-.355-.955 0-.325.085-.61.255-.855.17-.251.418-.447.744-.588.326-.148.707-.222 1.143-.222.407 0 .781.063 1.121.189.348.118.637.292.866.522l-.322.621a2.119 2.119 0 0 0-.766-.477 2.365 2.365 0 0 0-.877-.167c-.436 0-.765.09-.987.267a.82.82 0 0 0-.322.677c0 .214.066.392.199.533.141.133.356.233.644.3l1.033.21c.503.111.876.285 1.121.522.251.23.377.54.377.932 0 .333-.092.626-.277.877a1.772 1.772 0 0 1-.777.566c-.326.134-.711.2-1.155.2Zm5.575 0c-.548 0-.966-.155-1.255-.466-.288-.318-.433-.796-.433-1.432V6.24h-1.087v-.699h1.087v-1.52l.9-.256v1.776h1.598v.7h-1.598v2.974c0 .444.074.762.222.955.155.185.384.277.688.277.14 0 .266-.01.377-.033.111-.03.211-.063.3-.1v.755c-.104.044-.23.078-.378.1-.14.03-.281.044-.421.044Zm4.025 0c-.496 0-.929-.114-1.299-.344a2.384 2.384 0 0 1-.866-.999c-.2-.43-.3-.943-.3-1.543 0-.607.1-1.125.3-1.554.207-.429.496-.758.866-.988.37-.23.803-.344 1.299-.344.503 0 .936.13 1.298.389.37.251.615.595.733 1.032h-.133l.122-1.32h.866c-.023.214-.045.432-.067.654a9.07 9.07 0 0 0-.022.633v4.284h-.899v-1.31h.122c-.119.437-.363.781-.733 1.033-.37.251-.799.377-1.287.377Zm.177-.732c.533 0 .955-.182 1.266-.544.31-.37.466-.907.466-1.61 0-.71-.156-1.247-.466-1.61-.311-.37-.733-.554-1.266-.554-.525 0-.947.185-1.265.555-.311.362-.466.899-.466 1.61 0 .702.155 1.239.466 1.609.318.362.74.544 1.265.544Zm6.334.732c-.548 0-.966-.155-1.254-.466-.289-.318-.433-.796-.433-1.432V6.24h-1.088v-.699h1.088v-1.52l.899-.256v1.776h1.598v.7h-1.598v2.974c0 .444.074.762.222.955.155.185.385.277.688.277.141 0 .267-.01.378-.033.111-.03.21-.063.299-.1v.755a1.535 1.535 0 0 1-.377.1c-.141.03-.281.044-.422.044Zm3.87 0c-.659 0-1.159-.181-1.499-.544-.333-.362-.499-.917-.499-1.665V5.541h.899v3.441c0 .51.103.888.31 1.132.208.237.53.355.966.355.489 0 .881-.159 1.177-.477.296-.318.444-.744.444-1.276V5.54h.899v5.572h-.877V9.86h.144c-.155.43-.407.762-.755.999-.34.237-.743.355-1.209.355Zm6.295 0c-.444 0-.858-.059-1.243-.177a2.685 2.685 0 0 1-.955-.522l.311-.633c.274.215.57.374.888.477.326.104.662.156 1.01.156.444 0 .777-.078.999-.233a.775.775 0 0 0 .344-.666.635.635 0 0 0-.222-.51c-.14-.134-.374-.238-.699-.312l-1.032-.21c-.474-.104-.829-.278-1.066-.522-.237-.252-.355-.57-.355-.955 0-.325.085-.61.255-.855.17-.251.418-.447.744-.588.325-.148.706-.222 1.143-.222.407 0 .781.063 1.121.189.348.118.637.292.866.522l-.322.621a2.119 2.119 0 0 0-.766-.477 2.365 2.365 0 0 0-.877-.167c-.436 0-.766.09-.988.267a.823.823 0 0 0-.322.677c0 .214.067.392.2.533.141.133.355.233.644.3l1.032.21c.504.111.877.285 1.121.522.252.23.378.54.378.932 0 .333-.093.626-.278.877a1.772 1.772 0 0 1-.777.566c-.325.134-.71.2-1.154.2ZM28.383 77.493v-7.826h.921v7.026h3.952v.8h-4.873Zm8.069.1c-.496 0-.93-.115-1.3-.344a2.385 2.385 0 0 1-.865-1c-.2-.429-.3-.943-.3-1.542 0-.607.1-1.125.3-1.554a2.31 2.31 0 0 1 .866-.988c.37-.23.803-.344 1.299-.344.503 0 .936.13 1.298.388.37.252.614.596.733 1.032h-.133l.122-1.32h.866c-.023.214-.045.432-.067.654a9.196 9.196 0 0 0-.022.633v4.285h-.9v-1.31h.123a1.77 1.77 0 0 1-.733 1.032c-.37.252-.799.378-1.287.378Zm.177-.733c.533 0 .955-.181 1.266-.544.31-.37.466-.906.466-1.61 0-.71-.156-1.246-.466-1.609-.311-.37-.733-.555-1.266-.555-.525 0-.947.185-1.265.555-.311.363-.466.9-.466 1.61 0 .703.155 1.24.466 1.61.318.362.74.543 1.265.543Zm4.358.633v-4.285c0-.207-.01-.418-.033-.633-.015-.222-.033-.44-.056-.654h.866l.111 1.22h-.133c.163-.429.422-.754.777-.976.363-.23.78-.344 1.254-.344.659 0 1.155.177 1.488.532.34.348.51.9.51 1.654v3.486h-.899v-3.43c0-.526-.107-.907-.322-1.144-.207-.244-.532-.366-.976-.366-.518 0-.93.16-1.233.478-.303.318-.455.743-.455 1.276v3.186h-.899Zm8.957 2.475c-.48 0-.925-.06-1.332-.178a3.394 3.394 0 0 1-1.099-.544l.267-.677c.23.163.455.293.677.389.222.096.451.166.688.21.237.053.488.078.755.078.547 0 .962-.144 1.243-.432.281-.289.422-.7.422-1.232V75.95h.11a1.817 1.817 0 0 1-.732 1.043c-.37.252-.803.378-1.298.378-.511 0-.955-.111-1.333-.333a2.337 2.337 0 0 1-.865-.966c-.2-.422-.3-.918-.3-1.487 0-.563.1-1.051.3-1.466.207-.414.495-.732.865-.954.378-.23.822-.344 1.333-.344.503 0 .936.125 1.298.377.37.252.614.6.733 1.043l-.111-.11.1-1.21h.877a9.338 9.338 0 0 0-.09 1.287v4.251c0 .83-.214 1.454-.643 1.876-.422.422-1.043.633-1.865.633Zm-.133-3.33c.54 0 .966-.178 1.276-.533.311-.362.467-.87.467-1.52 0-.652-.156-1.155-.467-1.51-.31-.355-.736-.533-1.276-.533-.533 0-.958.178-1.276.533-.319.355-.478.858-.478 1.51 0 .65.16 1.158.477 1.52.319.355.744.533 1.277.533Zm6.333.955c-.659 0-1.158-.182-1.498-.544-.334-.363-.5-.918-.5-1.665V71.92h.9v3.44c0 .511.103.888.31 1.133.207.237.529.355.966.355.488 0 .88-.16 1.176-.477.296-.319.444-.744.444-1.277v-3.174h.9v5.572h-.878v-1.255h.145c-.156.43-.407.763-.755 1-.34.236-.744.355-1.21.355Zm6.562 0c-.496 0-.929-.115-1.299-.344a2.385 2.385 0 0 1-.866-1c-.2-.429-.3-.943-.3-1.542 0-.607.1-1.125.3-1.554a2.31 2.31 0 0 1 .866-.988c.37-.23.803-.344 1.299-.344.503 0 .936.13 1.298.388.37.252.615.596.733 1.032h-.133l.122-1.32h.866l-.067.654a9.196 9.196 0 0 0-.022.633v4.285h-.9v-1.31h.123a1.77 1.77 0 0 1-.733 1.032c-.37.252-.799.378-1.287.378Zm.177-.733c.533 0 .955-.181 1.266-.544.31-.37.466-.906.466-1.61 0-.71-.155-1.246-.466-1.609-.311-.37-.733-.555-1.266-.555-.525 0-.947.185-1.265.555-.31.363-.466.9-.466 1.61 0 .703.155 1.24.466 1.61.318.362.74.543 1.265.543Zm6.811 3.108c-.48 0-.925-.06-1.332-.178a3.394 3.394 0 0 1-1.099-.544l.267-.677c.23.163.455.293.677.389.222.096.451.166.688.21.237.053.489.078.755.078.548 0 .962-.144 1.243-.432.281-.289.422-.7.422-1.232V75.95h.111a1.817 1.817 0 0 1-.733 1.043c-.37.252-.802.378-1.298.378-.51 0-.955-.111-1.332-.333a2.337 2.337 0 0 1-.866-.966c-.2-.422-.3-.918-.3-1.487 0-.563.1-1.051.3-1.466.207-.414.496-.732.866-.954.377-.23.821-.344 1.332-.344.503 0 .936.125 1.298.377.37.252.615.6.733 1.043l-.111-.11.1-1.21h.877a9.338 9.338 0 0 0-.089 1.287v4.251c0 .83-.215 1.454-.644 1.876-.422.422-1.043.633-1.865.633Zm-.133-3.33c.54 0 .966-.178 1.277-.533.31-.362.466-.87.466-1.52 0-.652-.156-1.155-.466-1.51-.311-.355-.737-.533-1.277-.533-.533 0-.958.178-1.276.533-.319.355-.478.858-.478 1.51 0 .65.16 1.158.478 1.52.318.355.743.533 1.276.533Zm6.844.955c-.873 0-1.562-.252-2.065-.755-.503-.51-.755-1.217-.755-2.12 0-.585.111-1.092.333-1.521.222-.437.533-.773.933-1.01.4-.244.858-.366 1.376-.366.51 0 .94.107 1.288.322.348.214.614.521.799.92.185.393.278.86.278 1.4v.332h-4.318v-.566h3.73l-.19.145c0-.592-.133-1.055-.4-1.388-.266-.333-.661-.5-1.187-.5-.555 0-.988.197-1.299.589-.31.385-.466.906-.466 1.565v.1c0 .696.17 1.225.51 1.587.349.355.833.533 1.455.533.333 0 .644-.048.932-.144.296-.104.578-.27.844-.5l.31.633a2.522 2.522 0 0 1-.932.555 3.63 3.63 0 0 1-1.176.189Z"/>
    <path class="w4" d="M165.52 21.523h27.464V34.5H165.52z"/>
    <path class="w8" d="M172.168 31.012V26.33h.605l1.806 4.07h-.2l1.806-4.07h.598v4.68h-.624v-3.744h.219l-1.687 3.745h-.431l-1.687-3.745h.226v3.745h-.631Zm7.107.06c-.332 0-.62-.07-.864-.206a1.445 1.445 0 0 1-.564-.598 2.025 2.025 0 0 1-.199-.93c0-.358.066-.666.199-.922.133-.262.321-.46.564-.598.244-.142.532-.213.864-.213.332 0 .619.071.863.213.248.137.438.336.571.598.137.256.206.564.206.922 0 .359-.069.669-.206.93a1.43 1.43 0 0 1-.571.598 1.73 1.73 0 0 1-.863.206Zm0-.525c.292 0 .524-.102.697-.306.172-.203.259-.504.259-.902 0-.399-.087-.698-.259-.897-.173-.204-.405-.305-.697-.305a.86.86 0 0 0-.691.305c-.173.2-.259.498-.259.896 0 .399.084.7.252.903.173.204.405.306.698.306Zm3.572.524c-.279 0-.536-.035-.77-.106a1.649 1.649 0 0 1-.584-.299l.205-.458c.164.124.346.217.545.28.199.061.403.092.611.092.243 0 .427-.042.551-.126a.418.418 0 0 0 .186-.359.354.354 0 0 0-.12-.278c-.075-.071-.201-.124-.378-.16l-.638-.126c-.283-.062-.498-.168-.644-.319a.795.795 0 0 1-.219-.577c0-.2.053-.377.16-.532.11-.154.265-.276.464-.365.204-.088.441-.133.711-.133.248 0 .478.036.69.107.213.07.39.172.531.305l-.212.445a1.504 1.504 0 0 0-.465-.265 1.446 1.446 0 0 0-.524-.1c-.248 0-.432.046-.551.14a.44.44 0 0 0-.18.365.4.4 0 0 0 .107.285c.075.07.192.126.351.166l.638.126c.301.062.527.164.677.306.151.141.226.332.226.57a.89.89 0 0 1-.173.545 1.056 1.056 0 0 1-.478.352 1.96 1.96 0 0 1-.717.12Zm3.427 0c-.363 0-.637-.097-.823-.292-.186-.199-.279-.495-.279-.89v-1.706h-.651v-.518h.651v-.883l.671-.18v1.063h.929v.518h-.929v1.647c0 .248.044.425.133.531.088.106.216.16.385.16.084 0 .157-.007.219-.02a1.43 1.43 0 0 0 .179-.06v.544a1.047 1.047 0 0 1-.232.06 1.297 1.297 0 0 1-.253.026Z"/>
    <path class="w4" d="M165.52 106.029h27.464v12.978H165.52z"/>
    <path class="w8" d="M171.309 115.518v-4.681H172v4.09h2.297v.591h-2.988Zm5.118.059c-.54 0-.965-.152-1.274-.458-.31-.305-.465-.728-.465-1.268 0-.35.066-.655.199-.916.137-.261.325-.463.564-.604.244-.147.525-.22.844-.22.314 0 .577.067.79.2.212.132.374.321.484.564.111.239.166.522.166.85v.212h-2.523v-.385h2.065l-.113.087c0-.332-.075-.589-.225-.771-.146-.186-.359-.279-.638-.279-.31 0-.549.109-.717.326-.168.212-.252.507-.252.883v.066c0 .394.095.691.285.89.195.199.47.299.824.299.194 0 .376-.027.544-.08.173-.057.337-.15.492-.279l.219.458a1.613 1.613 0 0 1-.565.319 2.29 2.29 0 0 1-.704.106Zm3.359 0c-.296 0-.555-.068-.776-.205a1.378 1.378 0 0 1-.518-.598 2.21 2.21 0 0 1-.18-.93c0-.363.06-.672.18-.929.124-.257.296-.454.518-.591.221-.142.48-.213.776-.213.293 0 .547.073.764.22.217.146.361.345.432.597h-.073l.066-.757h.651l-.04.412a5.787 5.787 0 0 0-.013.392v2.543h-.671v-.744h.073a1.03 1.03 0 0 1-.438.591 1.339 1.339 0 0 1-.751.212Zm.166-.524a.86.86 0 0 0 .691-.306c.177-.203.266-.504.266-.903 0-.398-.089-.697-.266-.896a.86.86 0 0 0-.691-.305.884.884 0 0 0-.703.305c-.173.199-.259.498-.259.896 0 .399.086.7.259.903.172.204.407.306.703.306Zm3.748.524c-.279 0-.536-.035-.77-.106a1.646 1.646 0 0 1-.585-.299l.206-.458c.164.124.345.217.545.279.199.062.402.093.61.093.244 0 .428-.042.551-.126a.42.42 0 0 0 .186-.359.354.354 0 0 0-.119-.279c-.075-.07-.202-.124-.379-.159l-.637-.126c-.283-.062-.498-.168-.644-.319a.794.794 0 0 1-.219-.577c0-.2.053-.377.159-.532.111-.155.266-.276.465-.365.204-.088.44-.133.71-.133.248 0 .478.036.691.107.212.07.39.172.531.305l-.212.445a1.521 1.521 0 0 0-.465-.266 1.462 1.462 0 0 0-.525-.099c-.248 0-.431.046-.551.139a.442.442 0 0 0-.179.365.4.4 0 0 0 .106.286.791.791 0 0 0 .352.166l.638.126c.301.062.526.164.677.305a.75.75 0 0 1 .226.571c0 .209-.058.39-.173.545a1.063 1.063 0 0 1-.478.352 1.98 1.98 0 0 1-.717.119Zm3.427 0c-.363 0-.637-.097-.823-.292-.186-.199-.279-.496-.279-.89v-1.706h-.651v-.518h.651v-.883l.67-.179v1.062h.93v.518h-.93v1.647c0 .248.045.425.133.531.089.106.217.159.385.159.084 0 .157-.006.219-.02.067-.017.127-.037.18-.059v.544a1.068 1.068 0 0 1-.233.06 1.332 1.332 0 0 1-.252.026Z"/>
    <path class="w9" stroke-dasharray="4 4" stroke-width=".5" d="M187.812 78.418h-15.786l-14.167 16.595-63.549 45.334 48.573 48.977 62.738-24.286 58.287-24.691-64.358-45.334-11.738-16.595Z"/>
  </svg>