<svg xmlns="http://www.w3.org/2000/svg" width="452" height="323" fill="none" viewBox="0 0 452 323">
    <circle class="w1" fill="#E8B91C" stroke="#4A4021" cx="236.88" cy="152.731" r="133.026" />
    <circle class="w2" fill="#F6D872" stroke="#4A4021" cx="237.048" cy="152.904" r="100.791" stroke-dasharray="2.2 2.2" stroke-width=".879"/>
    <circle class="w3" fill="#F9EEC6" stroke="#4A4021" cx="237.057" cy="152.903" r="62.982" stroke-dasharray="1.75 1.75" stroke-width=".876"/>
    <path class="w5" stroke="#997d1e" stroke-dasharray="1.75 1.75" stroke-width=".876" d="M369.899 153.222H103.863M236.439 284.832V18.796M142.726 246.303l187.681-187.68M143.687 58.966 330.68 245.959"/>
    <path class="w8" fill="#A93031" d="M237.157 14.553a1 1 0 0 0-1.414 0l-6.364 6.363a1 1 0 0 0 1.414 1.415l5.657-5.657 5.657 5.657a1 1 0 1 0 1.414-1.415l-6.364-6.364ZM235.743 130a1 1 0 0 0 1.414 0l6.364-6.364a.999.999 0 1 0-1.414-1.414l-5.657 5.657-5.657-5.657a.999.999 0 1 0-1.414 1.414l6.364 6.364Zm.707-114.74h-1v114.033h2V15.26h-1Z"/>
    <path class="w4" fill="#f6f5f2" d="M202.859 25.867h68.066v35.36h-68.066z"/>
    <path class="w8" fill="#A93031" d="M223.819 40.547v-8.46h1.356l3.108 6.996h-.372l3.108-6.996h1.344v8.46h-1.404v-6.276h.432l-2.844 6.276h-.924l-2.844-6.276h.444v6.276h-1.404Zm13.046.12c-.624 0-1.164-.128-1.62-.384a2.7 2.7 0 0 1-1.068-1.092c-.248-.472-.372-1.032-.372-1.68 0-.648.124-1.204.372-1.668a2.7 2.7 0 0 1 1.068-1.092c.456-.256.996-.384 1.62-.384.624 0 1.164.128 1.62.384.464.256.82.62 1.068 1.092.256.464.384 1.02.384 1.668 0 .648-.128 1.208-.384 1.68a2.603 2.603 0 0 1-1.068 1.092c-.456.256-.996.384-1.62.384Zm0-1.152c.472 0 .848-.164 1.128-.492.28-.336.42-.84.42-1.512s-.14-1.172-.42-1.5c-.28-.328-.656-.492-1.128-.492-.472 0-.848.164-1.128.492-.28.328-.42.828-.42 1.5s.14 1.176.42 1.512c.28.328.656.492 1.128.492Zm6.525 1.152c-.52 0-1-.06-1.44-.18a3.387 3.387 0 0 1-1.092-.528l.42-1.008a3.814 3.814 0 0 0 2.124.648c.4 0 .696-.068.888-.204.2-.136.3-.32.3-.552a.526.526 0 0 0-.192-.432c-.12-.112-.316-.196-.588-.252l-1.2-.228c-.512-.112-.904-.304-1.176-.576-.264-.272-.396-.628-.396-1.068 0-.376.1-.708.3-.996.208-.288.5-.512.876-.672.384-.168.832-.252 1.344-.252.448 0 .868.06 1.26.18.4.12.736.3 1.008.54l-.432.972a2.838 2.838 0 0 0-.852-.468 2.824 2.824 0 0 0-.936-.168c-.416 0-.72.076-.912.228a.673.673 0 0 0-.288.564c0 .176.056.324.168.444.12.112.304.196.552.252l1.2.228c.536.104.94.288 1.212.552.28.256.42.608.42 1.056 0 .4-.108.744-.324 1.032a2.023 2.023 0 0 1-.9.66c-.384.152-.832.228-1.344.228Zm6.385 0c-.72 0-1.264-.188-1.632-.564-.368-.376-.552-.94-.552-1.692v-2.796h-1.164v-1.128h1.164v-1.548l1.5-.384v1.932h1.62v1.128h-1.62v2.7c0 .416.08.708.24.876.16.168.38.252.66.252.152 0 .28-.012.384-.036.112-.024.22-.056.324-.096v1.188a1.9 1.9 0 0 1-.456.12c-.16.032-.316.048-.468.048Zm-38.756 14.88v-6.06h1.5v6.06h-1.5Zm-.084-7.2v-1.464h1.668v1.464h-1.668Zm3.213 7.2v-4.548a12.12 12.12 0 0 0-.096-1.512h1.452l.12 1.2h-.144c.168-.416.424-.74.768-.972.352-.232.768-.348 1.248-.348s.876.116 1.188.348c.32.224.544.576.672 1.056h-.192c.168-.432.444-.772.828-1.02a2.325 2.325 0 0 1 1.32-.384c.68 0 1.188.2 1.524.6.336.4.504 1.024.504 1.872v3.708h-1.5v-3.648c0-.48-.08-.824-.24-1.032-.16-.216-.416-.324-.768-.324-.416 0-.744.148-.984.444-.24.288-.36.68-.36 1.176v3.384h-1.5v-3.648c0-.48-.08-.824-.24-1.032-.16-.216-.416-.324-.768-.324-.416 0-.744.148-.984.444-.232.288-.348.68-.348 1.176v3.384h-1.5Zm10.793 2.592v-7.14a12.12 12.12 0 0 0-.096-1.512h1.452l.132 1.272h-.132c.12-.424.372-.76.756-1.008a2.424 2.424 0 0 1 1.356-.384c.536 0 1.004.128 1.404.384.4.248.712.608.936 1.08.224.464.336 1.024.336 1.68 0 .656-.112 1.22-.336 1.692a2.564 2.564 0 0 1-.936 1.092c-.4.248-.868.372-1.404.372a2.4 2.4 0 0 1-1.332-.372 1.784 1.784 0 0 1-.768-.996h.132v3.84h-1.5Zm3.048-3.624c.48 0 .864-.164 1.152-.492.288-.336.432-.84.432-1.512s-.144-1.172-.432-1.5c-.288-.328-.672-.492-1.152-.492-.472 0-.852.164-1.14.492-.288.328-.432.828-.432 1.5s.144 1.176.432 1.512c.288.328.668.492 1.14.492Zm6.733 1.152c-.528 0-.992-.124-1.392-.372-.4-.256-.712-.62-.936-1.092-.224-.472-.336-1.036-.336-1.692 0-.656.112-1.216.336-1.68.224-.472.536-.832.936-1.08.4-.256.864-.384 1.392-.384.512 0 .96.128 1.344.384.392.248.652.584.78 1.008h-.132l.132-1.272h1.44l-.072.756a12.12 12.12 0 0 0-.024.756v4.548h-1.488l-.012-1.248h.144a1.77 1.77 0 0 1-.78.996 2.439 2.439 0 0 1-1.332.372Zm.42-1.152c.472 0 .852-.164 1.14-.492.288-.336.432-.84.432-1.512s-.144-1.172-.432-1.5c-.288-.328-.668-.492-1.14-.492-.472 0-.852.164-1.14.492-.288.328-.432.828-.432 1.5s.14 1.176.42 1.512c.288.328.672.492 1.152.492Zm7.466 1.152c-.624 0-1.172-.128-1.644-.384a2.68 2.68 0 0 1-1.08-1.092c-.256-.48-.384-1.048-.384-1.704 0-.656.128-1.216.384-1.68.264-.464.628-.82 1.092-1.068.464-.248 1.008-.372 1.632-.372.4 0 .788.064 1.164.192.384.12.696.296.936.528l-.456 1.044c-.216-.2-.46-.348-.732-.444a2.118 2.118 0 0 0-.78-.156c-.536 0-.956.168-1.26.504-.296.336-.444.824-.444 1.464s.148 1.132.444 1.476c.304.344.724.516 1.26.516.248 0 .504-.048.768-.144.272-.096.52-.244.744-.444l.456 1.032a2.54 2.54 0 0 1-.948.54c-.376.128-.76.192-1.152.192Zm5.878 0c-.72 0-1.264-.188-1.632-.564-.368-.376-.552-.94-.552-1.692v-2.796h-1.164v-1.128h1.164v-1.548l1.5-.384v1.932h1.62v1.128h-1.62v2.7c0 .416.08.708.24.876.16.168.38.252.66.252.152 0 .28-.012.384-.036.112-.024.22-.056.324-.096v1.188a1.9 1.9 0 0 1-.456.12c-.16.032-.316.048-.468.048Zm4.824 0c-1.016 0-1.812-.28-2.388-.84-.576-.56-.864-1.328-.864-2.304 0-.632.124-1.184.372-1.656a2.75 2.75 0 0 1 1.032-1.104c.448-.264.968-.396 1.56-.396.584 0 1.072.124 1.464.372.392.248.688.596.888 1.044.208.448.312.972.312 1.572v.396h-4.416v-.792h3.348l-.204.168c0-.56-.12-.988-.36-1.284-.232-.296-.572-.444-1.02-.444-.496 0-.88.176-1.152.528-.264.352-.396.844-.396 1.476v.156c0 .656.16 1.148.48 1.476.328.32.788.48 1.38.48.344 0 .664-.044.96-.132.304-.096.592-.248.864-.456l.444 1.008a3.162 3.162 0 0 1-1.032.54c-.4.128-.824.192-1.272.192Zm5.999 0c-.528 0-.996-.124-1.404-.372-.4-.256-.712-.62-.936-1.092-.224-.472-.336-1.036-.336-1.692 0-.656.112-1.216.336-1.68.224-.472.536-.832.936-1.08a2.586 2.586 0 0 1 1.404-.384 2.4 2.4 0 0 1 1.332.372c.392.24.652.568.78.984h-.156v-4.008h1.5v8.832h-1.476v-1.284h.144a1.82 1.82 0 0 1-.78 1.032c-.384.248-.832.372-1.344.372Zm.42-1.152c.472 0 .852-.164 1.14-.492.288-.336.432-.84.432-1.512s-.144-1.172-.432-1.5c-.288-.328-.668-.492-1.14-.492-.472 0-.856.164-1.152.492-.288.328-.432.828-.432 1.5s.144 1.176.432 1.512c.296.328.68.492 1.152.492Z"/>
    <path class="w4" fill="#f6f5f2" fill-opacity=".7" d="M202.859 133.713h68.066v35.359h-68.066z"/>
    <path class="w8" fill="#A93031" d="M222.243 148.392v-8.46h1.548v7.152h3.984v1.308h-5.532Zm9.464.12c-1.016 0-1.812-.28-2.388-.84-.576-.56-.864-1.328-.864-2.304 0-.632.124-1.184.372-1.656a2.75 2.75 0 0 1 1.032-1.104c.448-.264.968-.396 1.56-.396.584 0 1.072.124 1.464.372.392.248.688.596.888 1.044.208.448.312.972.312 1.572v.396h-4.416v-.792h3.348l-.204.168c0-.56-.12-.988-.36-1.284-.232-.296-.572-.444-1.02-.444-.496 0-.88.176-1.152.528-.264.352-.396.844-.396 1.476v.156c0 .656.16 1.148.48 1.476.328.32.788.48 1.38.48.344 0 .664-.044.96-.132.304-.096.592-.248.864-.456l.444 1.008a3.162 3.162 0 0 1-1.032.54c-.4.128-.824.192-1.272.192Zm5.986 0c-.528 0-.992-.124-1.392-.372-.4-.256-.712-.62-.936-1.092-.224-.472-.336-1.036-.336-1.692 0-.656.112-1.216.336-1.68.224-.472.536-.832.936-1.08.4-.256.864-.384 1.392-.384.512 0 .96.128 1.344.384.392.248.652.584.78 1.008h-.132l.132-1.272h1.44l-.072.756a12.12 12.12 0 0 0-.024.756v4.548h-1.488l-.012-1.248h.144a1.77 1.77 0 0 1-.78.996 2.439 2.439 0 0 1-1.332.372Zm.42-1.152c.472 0 .852-.164 1.14-.492.288-.336.432-.84.432-1.512s-.144-1.172-.432-1.5c-.288-.328-.668-.492-1.14-.492-.472 0-.852.164-1.14.492-.288.328-.432.828-.432 1.5s.14 1.176.42 1.512c.288.328.672.492 1.152.492Zm6.842 1.152c-.52 0-1-.06-1.44-.18a3.387 3.387 0 0 1-1.092-.528l.42-1.008a3.814 3.814 0 0 0 2.124.648c.4 0 .696-.068.888-.204.2-.136.3-.32.3-.552a.526.526 0 0 0-.192-.432c-.12-.112-.316-.196-.588-.252l-1.2-.228c-.512-.112-.904-.304-1.176-.576-.264-.272-.396-.628-.396-1.068 0-.376.1-.708.3-.996.208-.288.5-.512.876-.672.384-.168.832-.252 1.344-.252.448 0 .868.06 1.26.18.4.12.736.3 1.008.54l-.432.972a2.838 2.838 0 0 0-.852-.468 2.824 2.824 0 0 0-.936-.168c-.416 0-.72.076-.912.228a.673.673 0 0 0-.288.564c0 .176.056.324.168.444.12.112.304.196.552.252l1.2.228c.536.104.94.288 1.212.552.28.256.42.608.42 1.056 0 .4-.108.744-.324 1.032a2.023 2.023 0 0 1-.9.66c-.384.152-.832.228-1.344.228Zm6.385 0c-.72 0-1.264-.188-1.632-.564-.368-.376-.552-.94-.552-1.692v-2.796h-1.164v-1.128h1.164v-1.548l1.5-.384v1.932h1.62v1.128h-1.62v2.7c0 .416.08.708.24.876.16.168.38.252.66.252.152 0 .28-.012.384-.036.112-.024.22-.056.324-.096v1.188a1.9 1.9 0 0 1-.456.12c-.16.032-.316.048-.468.048Zm-40.321 14.88v-6.06h1.5v6.06h-1.5Zm-.084-7.2v-1.464h1.668v1.464h-1.668Zm3.213 7.2v-4.548a12.12 12.12 0 0 0-.096-1.512h1.452l.12 1.2h-.144c.168-.416.424-.74.768-.972.352-.232.768-.348 1.248-.348s.876.116 1.188.348c.32.224.544.576.672 1.056h-.192c.168-.432.444-.772.828-1.02a2.325 2.325 0 0 1 1.32-.384c.68 0 1.188.2 1.524.6.336.4.504 1.024.504 1.872v3.708h-1.5v-3.648c0-.48-.08-.824-.24-1.032-.16-.216-.416-.324-.768-.324-.416 0-.744.148-.984.444-.24.288-.36.68-.36 1.176v3.384h-1.5v-3.648c0-.48-.08-.824-.24-1.032-.16-.216-.416-.324-.768-.324-.416 0-.744.148-.984.444-.232.288-.348.68-.348 1.176v3.384h-1.5Zm10.793 2.592v-7.14a12.12 12.12 0 0 0-.096-1.512h1.452l.132 1.272h-.132c.12-.424.372-.76.756-1.008a2.424 2.424 0 0 1 1.356-.384c.536 0 1.004.128 1.404.384.4.248.712.608.936 1.08.224.464.336 1.024.336 1.68 0 .656-.112 1.22-.336 1.692a2.564 2.564 0 0 1-.936 1.092c-.4.248-.868.372-1.404.372a2.4 2.4 0 0 1-1.332-.372 1.784 1.784 0 0 1-.768-.996h.132v3.84h-1.5Zm3.048-3.624c.48 0 .864-.164 1.152-.492.288-.336.432-.84.432-1.512s-.144-1.172-.432-1.5c-.288-.328-.672-.492-1.152-.492-.472 0-.852.164-1.14.492-.288.328-.432.828-.432 1.5s.144 1.176.432 1.512c.288.328.668.492 1.14.492Zm6.733 1.152c-.528 0-.992-.124-1.392-.372-.4-.256-.712-.62-.936-1.092-.224-.472-.336-1.036-.336-1.692 0-.656.112-1.216.336-1.68.224-.472.536-.832.936-1.08.4-.256.864-.384 1.392-.384.512 0 .96.128 1.344.384.392.248.652.584.78 1.008h-.132l.132-1.272h1.44l-.072.756a12.12 12.12 0 0 0-.024.756v4.548h-1.488l-.012-1.248h.144a1.77 1.77 0 0 1-.78.996 2.439 2.439 0 0 1-1.332.372Zm.42-1.152c.472 0 .852-.164 1.14-.492.288-.336.432-.84.432-1.512s-.144-1.172-.432-1.5c-.288-.328-.668-.492-1.14-.492-.472 0-.852.164-1.14.492-.288.328-.432.828-.432 1.5s.14 1.176.42 1.512c.288.328.672.492 1.152.492Zm7.466 1.152c-.624 0-1.172-.128-1.644-.384a2.68 2.68 0 0 1-1.08-1.092c-.256-.48-.384-1.048-.384-1.704 0-.656.128-1.216.384-1.68.264-.464.628-.82 1.092-1.068.464-.248 1.008-.372 1.632-.372.4 0 .788.064 1.164.192.384.12.696.296.936.528l-.456 1.044c-.216-.2-.46-.348-.732-.444a2.118 2.118 0 0 0-.78-.156c-.536 0-.956.168-1.26.504-.296.336-.444.824-.444 1.464s.148 1.132.444 1.476c.304.344.724.516 1.26.516.248 0 .504-.048.768-.144.272-.096.52-.244.744-.444l.456 1.032a2.54 2.54 0 0 1-.948.54c-.376.128-.76.192-1.152.192Zm5.878 0c-.72 0-1.264-.188-1.632-.564-.368-.376-.552-.94-.552-1.692v-2.796h-1.164v-1.128h1.164v-1.548l1.5-.384v1.932h1.62v1.128h-1.62v2.7c0 .416.08.708.24.876.16.168.38.252.66.252.152 0 .28-.012.384-.036.112-.024.22-.056.324-.096v1.188a1.9 1.9 0 0 1-.456.12c-.16.032-.316.048-.468.048Zm4.824 0c-1.016 0-1.812-.28-2.388-.84-.576-.56-.864-1.328-.864-2.304 0-.632.124-1.184.372-1.656a2.75 2.75 0 0 1 1.032-1.104c.448-.264.968-.396 1.56-.396.584 0 1.072.124 1.464.372.392.248.688.596.888 1.044.208.448.312.972.312 1.572v.396h-4.416v-.792h3.348l-.204.168c0-.56-.12-.988-.36-1.284-.232-.296-.572-.444-1.02-.444-.496 0-.88.176-1.152.528-.264.352-.396.844-.396 1.476v.156c0 .656.16 1.148.48 1.476.328.32.788.48 1.38.48.344 0 .664-.044.96-.132.304-.096.592-.248.864-.456l.444 1.008a3.162 3.162 0 0 1-1.032.54c-.4.128-.824.192-1.272.192Zm5.999 0c-.528 0-.996-.124-1.404-.372-.4-.256-.712-.62-.936-1.092-.224-.472-.336-1.036-.336-1.692 0-.656.112-1.216.336-1.68.224-.472.536-.832.936-1.08a2.586 2.586 0 0 1 1.404-.384 2.4 2.4 0 0 1 1.332.372c.392.24.652.568.78.984h-.156v-4.008h1.5v8.832h-1.476v-1.284h.144a1.82 1.82 0 0 1-.78 1.032c-.384.248-.832.372-1.344.372Zm.42-1.152c.472 0 .852-.164 1.14-.492.288-.336.432-.84.432-1.512s-.144-1.172-.432-1.5c-.288-.328-.668-.492-1.14-.492-.472 0-.856.164-1.152.492-.288.328-.432.828-.432 1.5s.144 1.176.432 1.512c.296.328.68.492 1.152.492Z"/>
    <path class="w7" fill="#222" d="M389.888 203.12c-.68 0-1.308-.084-1.884-.252a4.81 4.81 0 0 1-1.464-.72l.48-1.212c.272.192.556.356.852.492.296.128.612.228.948.3.336.064.692.096 1.068.096.632 0 1.088-.104 1.368-.312a.97.97 0 0 0 .42-.816c0-.296-.096-.52-.288-.672-.192-.16-.536-.292-1.032-.396l-1.356-.276c-.776-.16-1.356-.428-1.74-.804-.384-.376-.576-.88-.576-1.512 0-.528.14-.988.42-1.38.28-.392.672-.696 1.176-.912.504-.216 1.092-.324 1.764-.324a5.1 5.1 0 0 1 1.668.264c.512.168.94.412 1.284.732l-.48 1.152c-.344-.288-.72-.5-1.128-.636a4.09 4.09 0 0 0-1.368-.216c-.568 0-1.012.112-1.332.336a1.034 1.034 0 0 0-.468.9c0 .296.096.532.288.708.2.176.536.312 1.008.408l1.344.264c.8.16 1.392.424 1.776.792.384.36.576.848.576 1.464 0 .504-.136.948-.408 1.332-.272.376-.656.672-1.152.888-.496.208-1.084.312-1.764.312Zm7.398 0c-.624 0-1.164-.128-1.62-.384a2.7 2.7 0 0 1-1.068-1.092c-.248-.472-.372-1.032-.372-1.68 0-.648.124-1.204.372-1.668a2.7 2.7 0 0 1 1.068-1.092c.456-.256.996-.384 1.62-.384.624 0 1.164.128 1.62.384.464.256.82.62 1.068 1.092.256.464.384 1.02.384 1.668 0 .648-.128 1.208-.384 1.68a2.603 2.603 0 0 1-1.068 1.092c-.456.256-.996.384-1.62.384Zm0-1.152c.472 0 .848-.164 1.128-.492.28-.336.42-.84.42-1.512s-.14-1.172-.42-1.5c-.28-.328-.656-.492-1.128-.492-.472 0-.848.164-1.128.492-.28.328-.42.828-.42 1.5s.14 1.176.42 1.512c.28.328.656.492 1.128.492Zm7.15 1.152c-.624 0-1.172-.128-1.644-.384a2.68 2.68 0 0 1-1.08-1.092c-.256-.48-.384-1.048-.384-1.704 0-.656.128-1.216.384-1.68.264-.464.628-.82 1.092-1.068.464-.248 1.008-.372 1.632-.372.4 0 .788.064 1.164.192.384.12.696.296.936.528l-.456 1.044c-.216-.2-.46-.348-.732-.444a2.118 2.118 0 0 0-.78-.156c-.536 0-.956.168-1.26.504-.296.336-.444.824-.444 1.464s.148 1.132.444 1.476c.304.344.724.516 1.26.516.248 0 .504-.048.768-.144.272-.096.52-.244.744-.444l.456 1.032a2.54 2.54 0 0 1-.948.54c-.376.128-.76.192-1.152.192Zm3.263-.12v-6.06h1.5V203h-1.5Zm-.084-7.2v-1.464h1.668v1.464h-1.668Zm5.553 7.32c-.528 0-.992-.124-1.392-.372-.4-.256-.712-.62-.936-1.092-.224-.472-.336-1.036-.336-1.692 0-.656.112-1.216.336-1.68.224-.472.536-.832.936-1.08.4-.256.864-.384 1.392-.384.512 0 .96.128 1.344.384.392.248.652.584.78 1.008h-.132l.132-1.272h1.44l-.072.756a12.12 12.12 0 0 0-.024.756V203h-1.488l-.012-1.248h.144a1.77 1.77 0 0 1-.78.996 2.439 2.439 0 0 1-1.332.372Zm.42-1.152c.472 0 .852-.164 1.14-.492.288-.336.432-.84.432-1.512s-.144-1.172-.432-1.5c-.288-.328-.668-.492-1.14-.492-.472 0-.852.164-1.14.492-.288.328-.432.828-.432 1.5s.14 1.176.42 1.512c.288.328.672.492 1.152.492Zm4.681 1.032v-8.832h1.5V203h-1.5Zm8.762.12c-.528 0-.992-.124-1.392-.372-.4-.256-.712-.62-.936-1.092-.224-.472-.336-1.036-.336-1.692 0-.656.112-1.216.336-1.68.224-.472.536-.832.936-1.08.4-.256.864-.384 1.392-.384.512 0 .96.128 1.344.384.392.248.652.584.78 1.008h-.132l.132-1.272h1.44l-.072.756a12.12 12.12 0 0 0-.024.756V203h-1.488l-.012-1.248h.144a1.77 1.77 0 0 1-.78.996 2.439 2.439 0 0 1-1.332.372Zm.42-1.152c.472 0 .852-.164 1.14-.492.288-.336.432-.84.432-1.512s-.144-1.172-.432-1.5c-.288-.328-.668-.492-1.14-.492-.472 0-.852.164-1.14.492-.288.328-.432.828-.432 1.5s.14 1.176.42 1.512c.288.328.672.492 1.152.492Zm4.681 1.032v-6.06h1.5V203h-1.5Zm-.084-7.2v-1.464h1.668v1.464h-1.668Zm5.565 7.32c-.528 0-.996-.124-1.404-.372-.4-.256-.712-.62-.936-1.092-.224-.472-.336-1.036-.336-1.692 0-.656.112-1.216.336-1.68.224-.472.536-.832.936-1.08a2.586 2.586 0 0 1 1.404-.384 2.4 2.4 0 0 1 1.332.372c.392.24.652.568.78.984h-.156v-4.008h1.5V203h-1.476v-1.284h.144a1.82 1.82 0 0 1-.78 1.032c-.384.248-.832.372-1.344.372Zm.42-1.152c.472 0 .852-.164 1.14-.492.288-.336.432-.84.432-1.512s-.144-1.172-.432-1.5c-.288-.328-.668-.492-1.14-.492-.472 0-.856.164-1.152.492-.288.328-.432.828-.432 1.5s.144 1.176.432 1.512c.296.328.68.492 1.152.492Zm-51.217 18.624v-7.14a12.12 12.12 0 0 0-.096-1.512h1.452l.132 1.272h-.132c.12-.424.372-.76.756-1.008a2.424 2.424 0 0 1 1.356-.384c.536 0 1.004.128 1.404.384.4.248.712.608.936 1.08.224.464.336 1.024.336 1.68 0 .656-.112 1.22-.336 1.692a2.564 2.564 0 0 1-.936 1.092c-.4.248-.868.372-1.404.372a2.4 2.4 0 0 1-1.332-.372 1.784 1.784 0 0 1-.768-.996h.132v3.84h-1.5Zm3.048-3.624c.48 0 .864-.164 1.152-.492.288-.336.432-.84.432-1.512s-.144-1.172-.432-1.5c-.288-.328-.672-.492-1.152-.492-.472 0-.852.164-1.14.492-.288.328-.432.828-.432 1.5s.144 1.176.432 1.512c.288.328.668.492 1.14.492Zm7.129 1.152c-.624 0-1.164-.128-1.62-.384a2.7 2.7 0 0 1-1.068-1.092c-.248-.472-.372-1.032-.372-1.68 0-.648.124-1.204.372-1.668a2.7 2.7 0 0 1 1.068-1.092c.456-.256.996-.384 1.62-.384.624 0 1.164.128 1.62.384.464.256.82.62 1.068 1.092.256.464.384 1.02.384 1.668 0 .648-.128 1.208-.384 1.68a2.603 2.603 0 0 1-1.068 1.092c-.456.256-.996.384-1.62.384Zm0-1.152c.472 0 .848-.164 1.128-.492.28-.336.42-.84.42-1.512s-.14-1.172-.42-1.5c-.28-.328-.656-.492-1.128-.492-.472 0-.848.164-1.128.492-.28.328-.42.828-.42 1.5s.14 1.176.42 1.512c.28.328.656.492 1.128.492Zm4.366 1.032v-8.832h1.5V218h-1.5Zm3.129 0v-6.06h1.5V218h-1.5Zm-.084-7.2v-1.464h1.668v1.464h-1.668Zm5.997 7.32c-.624 0-1.172-.128-1.644-.384a2.68 2.68 0 0 1-1.08-1.092c-.256-.48-.384-1.048-.384-1.704 0-.656.128-1.216.384-1.68.264-.464.628-.82 1.092-1.068.464-.248 1.008-.372 1.632-.372.4 0 .788.064 1.164.192.384.12.696.296.936.528l-.456 1.044c-.216-.2-.46-.348-.732-.444a2.118 2.118 0 0 0-.78-.156c-.536 0-.956.168-1.26.504-.296.336-.444.824-.444 1.464s.148 1.132.444 1.476c.304.344.724.516 1.26.516.248 0 .504-.048.768-.144.272-.096.52-.244.744-.444l.456 1.032a2.54 2.54 0 0 1-.948.54c-.376.128-.76.192-1.152.192Zm3.263-.12v-6.06h1.5V218h-1.5Zm-.084-7.2v-1.464h1.668v1.464h-1.668Zm6.141 7.32c-1.016 0-1.812-.28-2.388-.84-.576-.56-.864-1.328-.864-2.304 0-.632.124-1.184.372-1.656a2.75 2.75 0 0 1 1.032-1.104c.448-.264.968-.396 1.56-.396.584 0 1.072.124 1.464.372.392.248.688.596.888 1.044.208.448.312.972.312 1.572v.396h-4.416v-.792h3.348l-.204.168c0-.56-.12-.988-.36-1.284-.232-.296-.572-.444-1.02-.444-.496 0-.88.176-1.152.528-.264.352-.396.844-.396 1.476v.156c0 .656.16 1.148.48 1.476.328.32.788.48 1.38.48.344 0 .664-.044.96-.132.304-.096.592-.248.864-.456l.444 1.008a3.162 3.162 0 0 1-1.032.54c-.4.128-.824.192-1.272.192Zm5.806 0c-.52 0-1-.06-1.44-.18a3.387 3.387 0 0 1-1.092-.528l.42-1.008a3.814 3.814 0 0 0 2.124.648c.4 0 .696-.068.888-.204.2-.136.3-.32.3-.552a.526.526 0 0 0-.192-.432c-.12-.112-.316-.196-.588-.252l-1.2-.228c-.512-.112-.904-.304-1.176-.576-.264-.272-.396-.628-.396-1.068 0-.376.1-.708.3-.996.208-.288.5-.512.876-.672.384-.168.832-.252 1.344-.252.448 0 .868.06 1.26.18.4.12.736.3 1.008.54l-.432.972a2.838 2.838 0 0 0-.852-.468 2.824 2.824 0 0 0-.936-.168c-.416 0-.72.076-.912.228a.673.673 0 0 0-.288.564c0 .176.056.324.168.444.12.112.304.196.552.252l1.2.228c.536.104.94.288 1.212.552.28.256.42.608.42 1.056 0 .4-.108.744-.324 1.032a2.023 2.023 0 0 1-.9.66c-.384.152-.832.228-1.344.228ZM297.347 307.12c-.88 0-1.636-.176-2.268-.528a3.645 3.645 0 0 1-1.44-1.512c-.336-.656-.504-1.428-.504-2.316 0-.888.168-1.656.504-2.304a3.569 3.569 0 0 1 1.44-1.5c.632-.36 1.388-.54 2.268-.54.592 0 1.124.084 1.596.252.48.168.892.416 1.236.744l-.504 1.224c-.376-.304-.74-.52-1.092-.648a3.215 3.215 0 0 0-1.188-.204c-.856 0-1.512.26-1.968.78-.448.512-.672 1.244-.672 2.196 0 .952.224 1.688.672 2.208.456.52 1.112.78 1.968.78.448 0 .844-.064 1.188-.192.352-.136.716-.36 1.092-.672l.504 1.224a3.62 3.62 0 0 1-1.236.744 4.543 4.543 0 0 1-1.596.264Zm6.473 0c-.624 0-1.164-.128-1.62-.384a2.7 2.7 0 0 1-1.068-1.092c-.248-.472-.372-1.032-.372-1.68 0-.648.124-1.204.372-1.668a2.7 2.7 0 0 1 1.068-1.092c.456-.256.996-.384 1.62-.384.624 0 1.164.128 1.62.384.464.256.82.62 1.068 1.092.256.464.384 1.02.384 1.668 0 .648-.128 1.208-.384 1.68a2.603 2.603 0 0 1-1.068 1.092c-.456.256-.996.384-1.62.384Zm0-1.152c.472 0 .848-.164 1.128-.492.28-.336.42-.84.42-1.512s-.14-1.172-.42-1.5c-.28-.328-.656-.492-1.128-.492-.472 0-.848.164-1.128.492-.28.328-.42.828-.42 1.5s.14 1.176.42 1.512c.28.328.656.492 1.128.492Zm6.525 1.152c-.52 0-1-.06-1.44-.18a3.387 3.387 0 0 1-1.092-.528l.42-1.008a3.814 3.814 0 0 0 2.124.648c.4 0 .696-.068.888-.204.2-.136.3-.32.3-.552a.526.526 0 0 0-.192-.432c-.12-.112-.316-.196-.588-.252l-1.2-.228c-.512-.112-.904-.304-1.176-.576-.264-.272-.396-.628-.396-1.068 0-.376.1-.708.3-.996.208-.288.5-.512.876-.672.384-.168.832-.252 1.344-.252.448 0 .868.06 1.26.18.4.12.736.3 1.008.54l-.432.972a2.838 2.838 0 0 0-.852-.468 2.824 2.824 0 0 0-.936-.168c-.416 0-.72.076-.912.228a.673.673 0 0 0-.288.564c0 .176.056.324.168.444.12.112.304.196.552.252l1.2.228c.536.104.94.288 1.212.552.28.256.42.608.42 1.056 0 .4-.108.744-.324 1.032a2.023 2.023 0 0 1-.9.66c-.384.152-.832.228-1.344.228Zm6.385 0c-.72 0-1.264-.188-1.632-.564-.368-.376-.552-.94-.552-1.692v-2.796h-1.164v-1.128h1.164v-1.548l1.5-.384v1.932h1.62v1.128h-1.62v2.7c0 .416.08.708.24.876.16.168.38.252.66.252.152 0 .28-.012.384-.036.112-.024.22-.056.324-.096v1.188a1.9 1.9 0 0 1-.456.12c-.16.032-.316.048-.468.048Zm7.984 0c-.624 0-1.164-.128-1.62-.384a2.7 2.7 0 0 1-1.068-1.092c-.248-.472-.372-1.032-.372-1.68 0-.648.124-1.204.372-1.668a2.7 2.7 0 0 1 1.068-1.092c.456-.256.996-.384 1.62-.384.624 0 1.164.128 1.62.384.464.256.82.62 1.068 1.092.256.464.384 1.02.384 1.668 0 .648-.128 1.208-.384 1.68a2.603 2.603 0 0 1-1.068 1.092c-.456.256-.996.384-1.62.384Zm0-1.152c.472 0 .848-.164 1.128-.492.28-.336.42-.84.42-1.512s-.14-1.172-.42-1.5c-.28-.328-.656-.492-1.128-.492-.472 0-.848.164-1.128.492-.28.328-.42.828-.42 1.5s.14 1.176.42 1.512c.28.328.656.492 1.128.492Zm4.715 1.032v-4.932h-1.164v-1.128h1.584l-.42.384v-.924c0-.752.192-1.32.576-1.704.392-.384.964-.576 1.716-.576.176 0 .36.012.552.036.2.024.372.068.516.132v1.176a1.926 1.926 0 0 0-.372-.096 2.553 2.553 0 0 0-.42-.036c-.208 0-.396.04-.564.12a.904.904 0 0 0-.384.372c-.088.16-.132.376-.132.648v.732l-.216-.264h1.812v1.128h-1.584V307h-1.5Zm7.303 0v-8.832h1.5V307h-1.5Zm3.129 0v-6.06h1.5V307h-1.5Zm-.084-7.2v-1.464h1.668v1.464h-1.668Zm4.989 7.2-2.616-6.06h1.596l1.896 4.74h-.372l1.944-4.74h1.5l-2.628 6.06h-1.32Zm4.751 0v-6.06h1.5V307h-1.5Zm-.084-7.2v-1.464h1.668v1.464h-1.668Zm3.213 7.2v-4.548a12.12 12.12 0 0 0-.096-1.512h1.452l.12 1.2h-.144c.192-.424.476-.748.852-.972.376-.232.812-.348 1.308-.348.712 0 1.248.2 1.608.6.36.4.54 1.024.54 1.872V307h-1.5v-3.636c0-.488-.096-.836-.288-1.044-.184-.216-.464-.324-.84-.324-.464 0-.832.144-1.104.432-.272.288-.408.672-.408 1.152V307h-1.5Zm10.039 2.688c-.56 0-1.068-.06-1.524-.18a3.746 3.746 0 0 1-1.2-.552l.324-1.08c.232.152.472.276.72.372.248.096.504.168.768.216.264.048.532.072.804.072.56 0 .976-.14 1.248-.42.28-.272.42-.664.42-1.176v-1.452h.12a1.77 1.77 0 0 1-.78.996 2.4 2.4 0 0 1-1.332.372c-.544 0-1.02-.12-1.428-.36a2.51 2.51 0 0 1-.936-1.056c-.224-.456-.336-.992-.336-1.608 0-.616.112-1.148.336-1.596.224-.456.536-.804.936-1.044.408-.248.884-.372 1.428-.372.512 0 .956.124 1.332.372.384.24.64.568.768.984l-.108-.072.12-1.164h1.452a11.523 11.523 0 0 0-.096 1.512v4.308c0 .952-.26 1.676-.78 2.172-.512.504-1.264.756-2.256.756Zm-.024-3.984c.48 0 .86-.16 1.14-.48.288-.328.432-.792.432-1.392 0-.6-.144-1.06-.432-1.38-.28-.32-.66-.48-1.14-.48-.488 0-.876.16-1.164.48-.288.32-.432.78-.432 1.38 0 .6.144 1.064.432 1.392.288.32.676.48 1.164.48ZM389.888 109.12c-.68 0-1.308-.084-1.884-.252a4.81 4.81 0 0 1-1.464-.72l.48-1.212c.272.192.556.356.852.492.296.128.612.228.948.3.336.064.692.096 1.068.096.632 0 1.088-.104 1.368-.312a.97.97 0 0 0 .42-.816c0-.296-.096-.52-.288-.672-.192-.16-.536-.292-1.032-.396l-1.356-.276c-.776-.16-1.356-.428-1.74-.804-.384-.376-.576-.88-.576-1.512 0-.528.14-.988.42-1.38.28-.392.672-.696 1.176-.912.504-.216 1.092-.324 1.764-.324a5.1 5.1 0 0 1 1.668.264c.512.168.94.412 1.284.732l-.48 1.152c-.344-.288-.72-.5-1.128-.636a4.09 4.09 0 0 0-1.368-.216c-.568 0-1.012.112-1.332.336a1.034 1.034 0 0 0-.468.9c0 .296.096.532.288.708.2.176.536.312 1.008.408l1.344.264c.8.16 1.392.424 1.776.792.384.36.576.848.576 1.464 0 .504-.136.948-.408 1.332-.272.376-.656.672-1.152.888-.496.208-1.084.312-1.764.312Zm7.196 0c-.72 0-1.264-.188-1.632-.564-.368-.376-.552-.94-.552-1.692v-2.796h-1.164v-1.128h1.164v-1.548l1.5-.384v1.932h1.62v1.128h-1.62v2.7c0 .416.08.708.24.876.16.168.38.252.66.252.152 0 .28-.012.384-.036.112-.024.22-.056.324-.096v1.188a1.9 1.9 0 0 1-.456.12c-.16.032-.316.048-.468.048Zm1.955-.12v-6.06h1.5V109h-1.5Zm-.084-7.2v-1.464h1.668v1.464h-1.668Zm6.021 9.888c-.56 0-1.068-.06-1.524-.18a3.746 3.746 0 0 1-1.2-.552l.324-1.08c.232.152.472.276.72.372.248.096.504.168.768.216.264.048.532.072.804.072.56 0 .976-.14 1.248-.42.28-.272.42-.664.42-1.176v-1.452h.12a1.77 1.77 0 0 1-.78.996 2.4 2.4 0 0 1-1.332.372c-.544 0-1.02-.12-1.428-.36a2.51 2.51 0 0 1-.936-1.056c-.224-.456-.336-.992-.336-1.608 0-.616.112-1.148.336-1.596.224-.456.536-.804.936-1.044.408-.248.884-.372 1.428-.372.512 0 .956.124 1.332.372.384.24.64.568.768.984l-.108-.072.12-1.164h1.452a11.523 11.523 0 0 0-.096 1.512v4.308c0 .952-.26 1.676-.78 2.172-.512.504-1.264.756-2.256.756Zm-.024-3.984c.48 0 .86-.16 1.14-.48.288-.328.432-.792.432-1.392 0-.6-.144-1.06-.432-1.38-.28-.32-.66-.48-1.14-.48-.488 0-.876.16-1.164.48-.288.32-.432.78-.432 1.38 0 .6.144 1.064.432 1.392.288.32.676.48 1.164.48Zm4.68 1.296v-4.548a12.12 12.12 0 0 0-.096-1.512h1.452l.12 1.2h-.144c.168-.416.424-.74.768-.972.352-.232.768-.348 1.248-.348s.876.116 1.188.348c.32.224.544.576.672 1.056h-.192c.168-.432.444-.772.828-1.02a2.325 2.325 0 0 1 1.32-.384c.68 0 1.188.2 1.524.6.336.4.504 1.024.504 1.872V109h-1.5v-3.648c0-.48-.08-.824-.24-1.032-.16-.216-.416-.324-.768-.324-.416 0-.744.148-.984.444-.24.288-.36.68-.36 1.176V109h-1.5v-3.648c0-.48-.08-.824-.24-1.032-.16-.216-.416-.324-.768-.324-.416 0-.744.148-.984.444-.232.288-.348.68-.348 1.176V109h-1.5Zm13.133.12c-.528 0-.992-.124-1.392-.372-.4-.256-.712-.62-.936-1.092-.224-.472-.336-1.036-.336-1.692 0-.656.112-1.216.336-1.68.224-.472.536-.832.936-1.08.4-.256.864-.384 1.392-.384.512 0 .96.128 1.344.384.392.248.652.584.78 1.008h-.132l.132-1.272h1.44l-.072.756a12.12 12.12 0 0 0-.024.756V109h-1.488l-.012-1.248h.144a1.77 1.77 0 0 1-.78.996 2.439 2.439 0 0 1-1.332.372Zm.42-1.152c.472 0 .852-.164 1.14-.492.288-.336.432-.84.432-1.512s-.144-1.172-.432-1.5c-.288-.328-.668-.492-1.14-.492-.472 0-.852.164-1.14.492-.288.328-.432.828-.432 1.5s.14 1.176.42 1.512c.288.328.672.492 1.152.492Zm-34.029 16.152c-.528 0-.992-.124-1.392-.372-.4-.256-.712-.62-.936-1.092-.224-.472-.336-1.036-.336-1.692 0-.656.112-1.216.336-1.68.224-.472.536-.832.936-1.08.4-.256.864-.384 1.392-.384.512 0 .96.128 1.344.384.392.248.652.584.78 1.008h-.132l.132-1.272h1.44l-.072.756a12.12 12.12 0 0 0-.024.756V124h-1.488l-.012-1.248h.144a1.77 1.77 0 0 1-.78.996 2.439 2.439 0 0 1-1.332.372Zm.42-1.152c.472 0 .852-.164 1.14-.492.288-.336.432-.84.432-1.512s-.144-1.172-.432-1.5c-.288-.328-.668-.492-1.14-.492-.472 0-.852.164-1.14.492-.288.328-.432.828-.432 1.5s.14 1.176.42 1.512c.288.328.672.492 1.152.492Zm4.681 1.032v-4.548a12.12 12.12 0 0 0-.096-1.512h1.452l.12 1.2h-.144c.192-.424.476-.748.852-.972.376-.232.812-.348 1.308-.348.712 0 1.248.2 1.608.6.36.4.54 1.024.54 1.872V124h-1.5v-3.636c0-.488-.096-.836-.288-1.044-.184-.216-.464-.324-.84-.324-.464 0-.832.144-1.104.432-.272.288-.408.672-.408 1.152V124h-1.5Zm9.583.12c-.528 0-.996-.124-1.404-.372-.4-.256-.712-.62-.936-1.092-.224-.472-.336-1.036-.336-1.692 0-.656.112-1.216.336-1.68.224-.472.536-.832.936-1.08a2.586 2.586 0 0 1 1.404-.384 2.4 2.4 0 0 1 1.332.372c.392.24.652.568.78.984h-.156v-4.008h1.5V124h-1.476v-1.284h.144a1.82 1.82 0 0 1-.78 1.032c-.384.248-.832.372-1.344.372Zm.42-1.152c.472 0 .852-.164 1.14-.492.288-.336.432-.84.432-1.512s-.144-1.172-.432-1.5c-.288-.328-.668-.492-1.14-.492-.472 0-.856.164-1.152.492-.288.328-.432.828-.432 1.5s.144 1.176.432 1.512c.296.328.68.492 1.152.492Zm-18.044 18.696c-.152 0-.316-.012-.492-.036a1.913 1.913 0 0 1-.48-.12v-1.188c.104.032.216.06.336.084.12.024.236.036.348.036.288 0 .512-.088.672-.264.168-.176.252-.472.252-.888v-6.348h1.5v6.432c0 .752-.172 1.32-.516 1.704-.344.392-.884.588-1.62.588Zm.54-9.864v-1.464h1.668v1.464h-1.668Zm5.373 7.32c-.744 0-1.3-.204-1.668-.612-.368-.408-.552-1.032-.552-1.872v-3.696h1.5v3.684c0 .448.092.78.276.996.184.208.464.312.84.312.424 0 .768-.144 1.032-.432.272-.288.408-.668.408-1.14v-3.42h1.5V139h-1.464v-1.236h.168a2.151 2.151 0 0 1-.804 1.008c-.352.232-.764.348-1.236.348Zm7.316 0c-.528 0-.996-.124-1.404-.372-.4-.256-.712-.62-.936-1.092-.224-.472-.336-1.036-.336-1.692 0-.656.112-1.216.336-1.68.224-.472.536-.832.936-1.08a2.586 2.586 0 0 1 1.404-.384 2.4 2.4 0 0 1 1.332.372c.392.24.652.568.78.984h-.156v-4.008h1.5V139h-1.476v-1.284h.144a1.82 1.82 0 0 1-.78 1.032c-.384.248-.832.372-1.344.372Zm.42-1.152c.472 0 .852-.164 1.14-.492.288-.336.432-.84.432-1.512s-.144-1.172-.432-1.5c-.288-.328-.668-.492-1.14-.492-.472 0-.856.164-1.152.492-.288.328-.432.828-.432 1.5s.144 1.176.432 1.512c.296.328.68.492 1.152.492Zm7.478 3.72c-.56 0-1.068-.06-1.524-.18a3.746 3.746 0 0 1-1.2-.552l.324-1.08c.232.152.472.276.72.372.248.096.504.168.768.216.264.048.532.072.804.072.56 0 .976-.14 1.248-.42.28-.272.42-.664.42-1.176v-1.452h.12a1.77 1.77 0 0 1-.78.996 2.4 2.4 0 0 1-1.332.372c-.544 0-1.02-.12-1.428-.36a2.51 2.51 0 0 1-.936-1.056c-.224-.456-.336-.992-.336-1.608 0-.616.112-1.148.336-1.596.224-.456.536-.804.936-1.044.408-.248.884-.372 1.428-.372.512 0 .956.124 1.332.372.384.24.64.568.768.984l-.108-.072.12-1.164h1.452a11.523 11.523 0 0 0-.096 1.512v4.308c0 .952-.26 1.676-.78 2.172-.512.504-1.264.756-2.256.756Zm-.024-3.984c.48 0 .86-.16 1.14-.48.288-.328.432-.792.432-1.392 0-.6-.144-1.06-.432-1.38-.28-.32-.66-.48-1.14-.48-.488 0-.876.16-1.164.48-.288.32-.432.78-.432 1.38 0 .6.144 1.064.432 1.392.288.32.676.48 1.164.48ZM412 139v-4.548a12.12 12.12 0 0 0-.096-1.512h1.452l.12 1.2h-.144c.168-.416.424-.74.768-.972.352-.232.768-.348 1.248-.348s.876.116 1.188.348c.32.224.544.576.672 1.056h-.192c.168-.432.444-.772.828-1.02a2.325 2.325 0 0 1 1.32-.384c.68 0 1.188.2 1.524.6.336.4.504 1.024.504 1.872V139h-1.5v-3.648c0-.48-.08-.824-.24-1.032-.16-.216-.416-.324-.768-.324-.416 0-.744.148-.984.444-.24.288-.36.68-.36 1.176V139h-1.5v-3.648c0-.48-.08-.824-.24-1.032-.16-.216-.416-.324-.768-.324-.416 0-.744.148-.984.444-.232.288-.348.68-.348 1.176V139H412Zm13.721.12c-1.016 0-1.812-.28-2.388-.84-.576-.56-.864-1.328-.864-2.304 0-.632.124-1.184.372-1.656a2.75 2.75 0 0 1 1.032-1.104c.448-.264.968-.396 1.56-.396.584 0 1.072.124 1.464.372.392.248.688.596.888 1.044.208.448.312.972.312 1.572v.396h-4.416v-.792h3.348l-.204.168c0-.56-.12-.988-.36-1.284-.232-.296-.572-.444-1.02-.444-.496 0-.88.176-1.152.528-.264.352-.396.844-.396 1.476v.156c0 .656.16 1.148.48 1.476.328.32.788.48 1.38.48.344 0 .664-.044.96-.132.304-.096.592-.248.864-.456l.444 1.008a3.162 3.162 0 0 1-1.032.54c-.4.128-.824.192-1.272.192Zm3.646-.12v-4.548a12.12 12.12 0 0 0-.096-1.512h1.452l.12 1.2h-.144c.192-.424.476-.748.852-.972.376-.232.812-.348 1.308-.348.712 0 1.248.2 1.608.6.36.4.54 1.024.54 1.872V139h-1.5v-3.636c0-.488-.096-.836-.288-1.044-.184-.216-.464-.324-.84-.324-.464 0-.832.144-1.104.432-.272.288-.408.672-.408 1.152V139h-1.5Zm9.822.12c-.72 0-1.264-.188-1.632-.564-.368-.376-.552-.94-.552-1.692v-2.796h-1.164v-1.128h1.164v-1.548l1.5-.384v1.932h1.62v1.128h-1.62v2.7c0 .416.08.708.24.876.16.168.38.252.66.252.152 0 .28-.012.384-.036.112-.024.22-.056.324-.096v1.188a1.9 1.9 0 0 1-.456.12c-.16.032-.316.048-.468.048ZM93.508 307l3.828-8.46h1.296l3.876 8.46h-1.572l-1.032-2.376.624.42h-5.076l.648-.42L95.068 307h-1.56Zm4.464-6.804-1.692 4.008-.312-.372H100l-.252.372-1.728-4.008h-.048Zm8.077 6.924c-.624 0-1.172-.128-1.644-.384a2.68 2.68 0 0 1-1.08-1.092c-.256-.48-.384-1.048-.384-1.704 0-.656.128-1.216.384-1.68.264-.464.628-.82 1.092-1.068.464-.248 1.008-.372 1.632-.372.4 0 .788.064 1.164.192.384.12.696.296.936.528l-.456 1.044c-.216-.2-.46-.348-.732-.444a2.118 2.118 0 0 0-.78-.156c-.536 0-.956.168-1.26.504-.296.336-.444.824-.444 1.464s.148 1.132.444 1.476c.304.344.724.516 1.26.516.248 0 .504-.048.768-.144.272-.096.52-.244.744-.444l.456 1.032a2.54 2.54 0 0 1-.948.54c-.376.128-.76.192-1.152.192Zm5.93 0c-.624 0-1.172-.128-1.644-.384a2.68 2.68 0 0 1-1.08-1.092c-.256-.48-.384-1.048-.384-1.704 0-.656.128-1.216.384-1.68.264-.464.628-.82 1.092-1.068.464-.248 1.008-.372 1.632-.372.4 0 .788.064 1.164.192.384.12.696.296.936.528l-.456 1.044c-.216-.2-.46-.348-.732-.444a2.118 2.118 0 0 0-.78-.156c-.536 0-.956.168-1.26.504-.296.336-.444.824-.444 1.464s.148 1.132.444 1.476c.304.344.724.516 1.26.516.248 0 .504-.048.768-.144.272-.096.52-.244.744-.444l.456 1.032a2.54 2.54 0 0 1-.948.54c-.376.128-.76.192-1.152.192Zm5.882 0c-.624 0-1.164-.128-1.62-.384a2.7 2.7 0 0 1-1.068-1.092c-.248-.472-.372-1.032-.372-1.68 0-.648.124-1.204.372-1.668a2.7 2.7 0 0 1 1.068-1.092c.456-.256.996-.384 1.62-.384.624 0 1.164.128 1.62.384.464.256.82.62 1.068 1.092.256.464.384 1.02.384 1.668 0 .648-.128 1.208-.384 1.68a2.603 2.603 0 0 1-1.068 1.092c-.456.256-.996.384-1.62.384Zm0-1.152c.472 0 .848-.164 1.128-.492.28-.336.42-.84.42-1.512s-.14-1.172-.42-1.5c-.28-.328-.656-.492-1.128-.492-.472 0-.848.164-1.128.492-.28.328-.42.828-.42 1.5s.14 1.176.42 1.512c.28.328.656.492 1.128.492Zm4.365 1.032v-4.548a12.12 12.12 0 0 0-.096-1.512h1.452l.12 1.2h-.144c.168-.416.424-.74.768-.972.352-.232.768-.348 1.248-.348s.876.116 1.188.348c.32.224.544.576.672 1.056h-.192c.168-.432.444-.772.828-1.02a2.325 2.325 0 0 1 1.32-.384c.68 0 1.188.2 1.524.6.336.4.504 1.024.504 1.872V307h-1.5v-3.648c0-.48-.08-.824-.24-1.032-.16-.216-.416-.324-.768-.324-.416 0-.744.148-.984.444-.24.288-.36.68-.36 1.176V307h-1.5v-3.648c0-.48-.08-.824-.24-1.032-.16-.216-.416-.324-.768-.324-.416 0-.744.148-.984.444-.232.288-.348.68-.348 1.176V307h-1.5Zm10.793 0v-4.548a12.12 12.12 0 0 0-.096-1.512h1.452l.12 1.2h-.144c.168-.416.424-.74.768-.972.352-.232.768-.348 1.248-.348s.876.116 1.188.348c.32.224.544.576.672 1.056h-.192c.168-.432.444-.772.828-1.02a2.325 2.325 0 0 1 1.32-.384c.68 0 1.188.2 1.524.6.336.4.504 1.024.504 1.872V307h-1.5v-3.648c0-.48-.08-.824-.24-1.032-.16-.216-.416-.324-.768-.324-.416 0-.744.148-.984.444-.24.288-.36.68-.36 1.176V307h-1.5v-3.648c0-.48-.08-.824-.24-1.032-.16-.216-.416-.324-.768-.324-.416 0-.744.148-.984.444-.232.288-.348.68-.348 1.176V307h-1.5Zm13.529.12c-.624 0-1.164-.128-1.62-.384a2.7 2.7 0 0 1-1.068-1.092c-.248-.472-.372-1.032-.372-1.68 0-.648.124-1.204.372-1.668a2.7 2.7 0 0 1 1.068-1.092c.456-.256.996-.384 1.62-.384.624 0 1.164.128 1.62.384.464.256.82.62 1.068 1.092.256.464.384 1.02.384 1.668 0 .648-.128 1.208-.384 1.68a2.603 2.603 0 0 1-1.068 1.092c-.456.256-.996.384-1.62.384Zm0-1.152c.472 0 .848-.164 1.128-.492.28-.336.42-.84.42-1.512s-.14-1.172-.42-1.5c-.28-.328-.656-.492-1.128-.492-.472 0-.848.164-1.128.492-.28.328-.42.828-.42 1.5s.14 1.176.42 1.512c.28.328.656.492 1.128.492Zm6.718 1.152c-.528 0-.996-.124-1.404-.372-.4-.256-.712-.62-.936-1.092-.224-.472-.336-1.036-.336-1.692 0-.656.112-1.216.336-1.68.224-.472.536-.832.936-1.08a2.586 2.586 0 0 1 1.404-.384 2.4 2.4 0 0 1 1.332.372c.392.24.652.568.78.984h-.156v-4.008h1.5V307h-1.476v-1.284h.144a1.82 1.82 0 0 1-.78 1.032c-.384.248-.832.372-1.344.372Zm.42-1.152c.472 0 .852-.164 1.14-.492.288-.336.432-.84.432-1.512s-.144-1.172-.432-1.5c-.288-.328-.668-.492-1.14-.492-.472 0-.856.164-1.152.492-.288.328-.432.828-.432 1.5s.144 1.176.432 1.512c.296.328.68.492 1.152.492Zm7.009 1.152c-.528 0-.992-.124-1.392-.372-.4-.256-.712-.62-.936-1.092-.224-.472-.336-1.036-.336-1.692 0-.656.112-1.216.336-1.68.224-.472.536-.832.936-1.08.4-.256.864-.384 1.392-.384.512 0 .96.128 1.344.384.392.248.652.584.78 1.008h-.132l.132-1.272h1.44l-.072.756a12.12 12.12 0 0 0-.024.756V307h-1.488l-.012-1.248h.144a1.77 1.77 0 0 1-.78.996 2.439 2.439 0 0 1-1.332.372Zm.42-1.152c.472 0 .852-.164 1.14-.492.288-.336.432-.84.432-1.512s-.144-1.172-.432-1.5c-.288-.328-.668-.492-1.14-.492-.472 0-.852.164-1.14.492-.288.328-.432.828-.432 1.5s.14 1.176.42 1.512c.288.328.672.492 1.152.492Zm7.273 1.152c-.72 0-1.264-.188-1.632-.564-.368-.376-.552-.94-.552-1.692v-2.796h-1.164v-1.128h1.164v-1.548l1.5-.384v1.932h1.62v1.128h-1.62v2.7c0 .416.08.708.24.876.16.168.38.252.66.252.152 0 .28-.012.384-.036.112-.024.22-.056.324-.096v1.188a1.9 1.9 0 0 1-.456.12c-.16.032-.316.048-.468.048Zm1.955-.12v-6.06h1.5V307h-1.5Zm-.084-7.2v-1.464h1.668v1.464h-1.668Zm5.949 7.32c-.624 0-1.164-.128-1.62-.384a2.7 2.7 0 0 1-1.068-1.092c-.248-.472-.372-1.032-.372-1.68 0-.648.124-1.204.372-1.668a2.7 2.7 0 0 1 1.068-1.092c.456-.256.996-.384 1.62-.384.624 0 1.164.128 1.62.384.464.256.82.62 1.068 1.092.256.464.384 1.02.384 1.668 0 .648-.128 1.208-.384 1.68a2.603 2.603 0 0 1-1.068 1.092c-.456.256-.996.384-1.62.384Zm0-1.152c.472 0 .848-.164 1.128-.492.28-.336.42-.84.42-1.512s-.14-1.172-.42-1.5c-.28-.328-.656-.492-1.128-.492-.472 0-.848.164-1.128.492-.28.328-.42.828-.42 1.5s.14 1.176.42 1.512c.28.328.656.492 1.128.492Zm4.366 1.032v-4.548a12.12 12.12 0 0 0-.096-1.512h1.452l.12 1.2h-.144c.192-.424.476-.748.852-.972.376-.232.812-.348 1.308-.348.712 0 1.248.2 1.608.6.36.4.54 1.024.54 1.872V307h-1.5v-3.636c0-.488-.096-.836-.288-1.044-.184-.216-.464-.324-.84-.324-.464 0-.832.144-1.104.432-.272.288-.408.672-.408 1.152V307h-1.5Zm9.39.12c-.52 0-1-.06-1.44-.18a3.387 3.387 0 0 1-1.092-.528l.42-1.008a3.814 3.814 0 0 0 2.124.648c.4 0 .696-.068.888-.204.2-.136.3-.32.3-.552a.526.526 0 0 0-.192-.432c-.12-.112-.316-.196-.588-.252l-1.2-.228c-.512-.112-.904-.304-1.176-.576-.264-.272-.396-.628-.396-1.068 0-.376.1-.708.3-.996.208-.288.5-.512.876-.672.384-.168.832-.252 1.344-.252.448 0 .868.06 1.26.18.4.12.736.3 1.008.54l-.432.972a2.838 2.838 0 0 0-.852-.468 2.824 2.824 0 0 0-.936-.168c-.416 0-.72.076-.912.228a.673.673 0 0 0-.288.564c0 .176.056.324.168.444.12.112.304.196.552.252l1.2.228c.536.104.94.288 1.212.552.28.256.42.608.42 1.056 0 .4-.108.744-.324 1.032a2.023 2.023 0 0 1-.9.66c-.384.152-.832.228-1.344.228Zm-37.999 15c-.528 0-.992-.124-1.392-.372-.4-.256-.712-.62-.936-1.092-.224-.472-.336-1.036-.336-1.692 0-.656.112-1.216.336-1.68.224-.472.536-.832.936-1.08.4-.256.864-.384 1.392-.384.512 0 .96.128 1.344.384.392.248.652.584.78 1.008h-.132l.132-1.272h1.44l-.072.756a12.12 12.12 0 0 0-.024.756V322h-1.488l-.012-1.248h.144a1.77 1.77 0 0 1-.78.996 2.439 2.439 0 0 1-1.332.372Zm.42-1.152c.472 0 .852-.164 1.14-.492.288-.336.432-.84.432-1.512s-.144-1.172-.432-1.5c-.288-.328-.668-.492-1.14-.492-.472 0-.852.164-1.14.492-.288.328-.432.828-.432 1.5s.14 1.176.42 1.512c.288.328.672.492 1.152.492Zm7.273 1.152c-.72 0-1.264-.188-1.632-.564-.368-.376-.552-.94-.552-1.692v-2.796h-1.164v-1.128h1.164v-1.548l1.5-.384v1.932h1.62v1.128h-1.62v2.7c0 .416.08.708.24.876.16.168.38.252.66.252.152 0 .28-.012.384-.036.112-.024.22-.056.324-.096v1.188a1.9 1.9 0 0 1-.456.12c-.16.032-.316.048-.468.048Zm6.928-.12-2.364-6.06h1.548l1.704 4.716h-.312l1.728-4.716h1.068l1.716 4.716h-.276l1.692-4.716h1.464L172.19 322h-1.32l-1.812-4.824h.636L167.918 322h-1.332Zm11.532.12c-.624 0-1.164-.128-1.62-.384a2.7 2.7 0 0 1-1.068-1.092c-.248-.472-.372-1.032-.372-1.68 0-.648.124-1.204.372-1.668a2.7 2.7 0 0 1 1.068-1.092c.456-.256.996-.384 1.62-.384.624 0 1.164.128 1.62.384.464.256.82.62 1.068 1.092.256.464.384 1.02.384 1.668 0 .648-.128 1.208-.384 1.68a2.603 2.603 0 0 1-1.068 1.092c-.456.256-.996.384-1.62.384Zm0-1.152c.472 0 .848-.164 1.128-.492.28-.336.42-.84.42-1.512s-.14-1.172-.42-1.5c-.28-.328-.656-.492-1.128-.492-.472 0-.848.164-1.128.492-.28.328-.42.828-.42 1.5s.14 1.176.42 1.512c.28.328.656.492 1.128.492Zm4.354 1.032v-4.512c0-.256-.008-.516-.024-.78a7.861 7.861 0 0 0-.06-.768h1.452l.168 1.656h-.24c.08-.4.212-.732.396-.996.192-.264.424-.46.696-.588a2.06 2.06 0 0 1 .888-.192c.144 0 .26.008.348.024.088.008.176.028.264.06l-.012 1.32a1.654 1.654 0 0 0-.396-.12 2.685 2.685 0 0 0-.396-.024c-.344 0-.636.072-.876.216a1.377 1.377 0 0 0-.528.6 2.166 2.166 0 0 0-.168.876V322h-1.512Zm4.723 0v-8.832h1.5v5.352h.024l2.46-2.58h1.812l-3.06 3.204.012-.6 3.264 3.456h-1.86l-2.628-2.712h-.024V322h-1.5ZM19.636 203.12c-1.208 0-2.108-.3-2.7-.9-.584-.608-.876-1.504-.876-2.688v-4.992h1.548v4.98c0 .752.16 1.32.48 1.704.328.384.844.576 1.548.576.672 0 1.176-.192 1.512-.576.344-.384.516-.952.516-1.704v-4.98h1.524v4.992c0 1.184-.3 2.08-.9 2.688-.592.6-1.476.9-2.652.9Zm5.235-.12v-4.548a12.12 12.12 0 0 0-.096-1.512h1.452l.12 1.2h-.144c.192-.424.476-.748.852-.972.376-.232.812-.348 1.308-.348.712 0 1.248.2 1.608.6.36.4.54 1.024.54 1.872V203h-1.5v-3.636c0-.488-.096-.836-.288-1.044-.184-.216-.464-.324-.84-.324-.464 0-.832.144-1.104.432-.272.288-.408.672-.408 1.152V203h-1.5Zm10.158.12c-1.016 0-1.812-.28-2.388-.84-.576-.56-.864-1.328-.864-2.304 0-.632.124-1.184.372-1.656a2.75 2.75 0 0 1 1.032-1.104c.448-.264.968-.396 1.56-.396.584 0 1.072.124 1.464.372.392.248.688.596.888 1.044.208.448.312.972.312 1.572v.396H32.99v-.792h3.348l-.204.168c0-.56-.12-.988-.36-1.284-.232-.296-.572-.444-1.02-.444-.496 0-.88.176-1.152.528-.264.352-.396.844-.396 1.476v.156c0 .656.16 1.148.48 1.476.328.32.788.48 1.38.48.344 0 .664-.044.96-.132.304-.096.592-.248.864-.456l.444 1.008a3.162 3.162 0 0 1-1.032.54c-.4.128-.824.192-1.272.192Zm2.675-.12 2.82-3.468v.684l-2.664-3.276h1.776l1.74 2.244h-.54l1.74-2.244h1.764l-2.64 3.276v-.684L44.508 203H42.72l-1.884-2.412h.54L39.48 203h-1.776Zm7.522 2.592v-7.14a12.12 12.12 0 0 0-.096-1.512h1.452l.132 1.272h-.132c.12-.424.372-.76.756-1.008a2.424 2.424 0 0 1 1.356-.384c.536 0 1.004.128 1.404.384.4.248.712.608.936 1.08.224.464.336 1.024.336 1.68 0 .656-.112 1.22-.336 1.692a2.564 2.564 0 0 1-.936 1.092c-.4.248-.868.372-1.404.372a2.4 2.4 0 0 1-1.332-.372 1.784 1.784 0 0 1-.768-.996h.132v3.84h-1.5Zm3.048-3.624c.48 0 .864-.164 1.152-.492.288-.336.432-.84.432-1.512s-.144-1.172-.432-1.5c-.288-.328-.672-.492-1.152-.492-.472 0-.852.164-1.14.492-.288.328-.432.828-.432 1.5s.144 1.176.432 1.512c.288.328.668.492 1.14.492Zm7.322 1.152c-1.016 0-1.812-.28-2.388-.84-.576-.56-.864-1.328-.864-2.304 0-.632.124-1.184.372-1.656a2.75 2.75 0 0 1 1.032-1.104c.448-.264.968-.396 1.56-.396.584 0 1.072.124 1.464.372.392.248.688.596.888 1.044.208.448.312.972.312 1.572v.396h-4.416v-.792h3.348l-.204.168c0-.56-.12-.988-.36-1.284-.232-.296-.572-.444-1.02-.444-.496 0-.88.176-1.152.528-.264.352-.396.844-.396 1.476v.156c0 .656.16 1.148.48 1.476.328.32.788.48 1.38.48.344 0 .664-.044.96-.132.304-.096.592-.248.864-.456l.444 1.008a3.162 3.162 0 0 1-1.032.54c-.4.128-.824.192-1.272.192Zm6.43 0c-.624 0-1.172-.128-1.644-.384a2.68 2.68 0 0 1-1.08-1.092c-.256-.48-.384-1.048-.384-1.704 0-.656.128-1.216.384-1.68.264-.464.628-.82 1.092-1.068.464-.248 1.008-.372 1.632-.372.4 0 .788.064 1.164.192.384.12.696.296.936.528l-.456 1.044c-.216-.2-.46-.348-.732-.444a2.118 2.118 0 0 0-.78-.156c-.536 0-.956.168-1.26.504-.296.336-.444.824-.444 1.464s.148 1.132.444 1.476c.304.344.724.516 1.26.516.248 0 .504-.048.768-.144.272-.096.52-.244.744-.444l.456 1.032a2.54 2.54 0 0 1-.948.54c-.376.128-.76.192-1.152.192Zm5.878 0c-.72 0-1.264-.188-1.632-.564-.368-.376-.552-.94-.552-1.692v-2.796h-1.164v-1.128h1.164v-1.548l1.5-.384v1.932h1.62v1.128h-1.62v2.7c0 .416.08.708.24.876.16.168.38.252.66.252.152 0 .28-.012.384-.036.112-.024.22-.056.324-.096v1.188a1.9 1.9 0 0 1-.456.12c-.16.032-.316.048-.468.048Zm4.824 0c-1.016 0-1.812-.28-2.388-.84-.576-.56-.864-1.328-.864-2.304 0-.632.124-1.184.372-1.656a2.75 2.75 0 0 1 1.032-1.104c.448-.264.968-.396 1.56-.396.584 0 1.072.124 1.464.372.392.248.688.596.888 1.044.208.448.312.972.312 1.572v.396h-4.416v-.792h3.348l-.204.168c0-.56-.12-.988-.36-1.284-.232-.296-.572-.444-1.02-.444-.496 0-.88.176-1.152.528-.264.352-.396.844-.396 1.476v.156c0 .656.16 1.148.48 1.476.328.32.788.48 1.38.48.344 0 .664-.044.96-.132.304-.096.592-.248.864-.456l.444 1.008a3.162 3.162 0 0 1-1.032.54c-.4.128-.824.192-1.272.192Zm5.999 0c-.528 0-.996-.124-1.404-.372-.4-.256-.712-.62-.936-1.092-.224-.472-.336-1.036-.336-1.692 0-.656.112-1.216.336-1.68.224-.472.536-.832.936-1.08a2.586 2.586 0 0 1 1.404-.384 2.4 2.4 0 0 1 1.332.372c.392.24.652.568.78.984h-.156v-4.008h1.5V203h-1.476v-1.284h.144a1.82 1.82 0 0 1-.78 1.032c-.384.248-.832.372-1.344.372Zm.42-1.152c.472 0 .852-.164 1.14-.492.288-.336.432-.84.432-1.512s-.144-1.172-.432-1.5c-.288-.328-.668-.492-1.14-.492-.472 0-.856.164-1.152.492-.288.328-.432.828-.432 1.5s.144 1.176.432 1.512c.296.328.68.492 1.152.492ZM49.49 218.12c-1.016 0-1.812-.28-2.388-.84-.576-.56-.864-1.328-.864-2.304 0-.632.124-1.184.372-1.656a2.75 2.75 0 0 1 1.032-1.104c.448-.264.968-.396 1.56-.396.584 0 1.072.124 1.464.372.392.248.688.596.888 1.044.208.448.312.972.312 1.572v.396H47.45v-.792h3.348l-.204.168c0-.56-.12-.988-.36-1.284-.232-.296-.572-.444-1.02-.444-.496 0-.88.176-1.152.528-.264.352-.396.844-.396 1.476v.156c0 .656.16 1.148.48 1.476.328.32.788.48 1.38.48.344 0 .664-.044.96-.132.304-.096.592-.248.864-.456l.444 1.008a3.162 3.162 0 0 1-1.032.54c-.4.128-.824.192-1.272.192Zm5.329-.12-2.616-6.06h1.596l1.896 4.74h-.372l1.944-4.74h1.5L56.139 218h-1.32Zm7.562.12c-1.016 0-1.812-.28-2.388-.84-.576-.56-.864-1.328-.864-2.304 0-.632.124-1.184.372-1.656a2.75 2.75 0 0 1 1.032-1.104c.448-.264.968-.396 1.56-.396.584 0 1.072.124 1.464.372.392.248.688.596.888 1.044.208.448.312.972.312 1.572v.396H60.34v-.792h3.348l-.204.168c0-.56-.12-.988-.36-1.284-.232-.296-.572-.444-1.02-.444-.496 0-.88.176-1.152.528-.264.352-.396.844-.396 1.476v.156c0 .656.16 1.148.48 1.476.328.32.788.48 1.38.48.344 0 .664-.044.96-.132.304-.096.592-.248.864-.456l.444 1.008a3.162 3.162 0 0 1-1.032.54c-.4.128-.824.192-1.272.192Zm3.646-.12v-4.548a12.12 12.12 0 0 0-.096-1.512h1.452l.12 1.2h-.144c.192-.424.476-.748.852-.972.376-.232.812-.348 1.308-.348.712 0 1.248.2 1.608.6.36.4.54 1.024.54 1.872V218h-1.5v-3.636c0-.488-.096-.836-.288-1.044-.184-.216-.464-.324-.84-.324-.464 0-.832.144-1.104.432-.272.288-.408.672-.408 1.152V218h-1.5Zm9.822.12c-.72 0-1.264-.188-1.632-.564-.368-.376-.552-.94-.552-1.692v-2.796h-1.164v-1.128h1.164v-1.548l1.5-.384v1.932h1.62v1.128h-1.62v2.7c0 .416.08.708.24.876.16.168.38.252.66.252.152 0 .28-.012.384-.036.112-.024.22-.056.324-.096v1.188a1.9 1.9 0 0 1-.456.12c-.16.032-.316.048-.468.048Zm4.115 0c-.52 0-1-.06-1.44-.18a3.387 3.387 0 0 1-1.092-.528l.42-1.008a3.814 3.814 0 0 0 2.124.648c.4 0 .696-.068.888-.204.2-.136.3-.32.3-.552a.526.526 0 0 0-.192-.432c-.12-.112-.316-.196-.588-.252l-1.2-.228c-.512-.112-.904-.304-1.176-.576-.264-.272-.396-.628-.396-1.068 0-.376.1-.708.3-.996.208-.288.5-.512.876-.672.384-.168.832-.252 1.344-.252.448 0 .868.06 1.26.18.4.12.736.3 1.008.54l-.432.972a2.838 2.838 0 0 0-.852-.468 2.824 2.824 0 0 0-.936-.168c-.416 0-.72.076-.912.228a.673.673 0 0 0-.288.564c0 .176.056.324.168.444.12.112.304.196.552.252l1.2.228c.536.104.94.288 1.212.552.28.256.42.608.42 1.056 0 .4-.108.744-.324 1.032a2.023 2.023 0 0 1-.9.66c-.384.152-.832.228-1.344.228ZM321.288 12 318.3 3.54h1.608l2.304 6.936h-.48l2.484-6.936h1.152l2.304 6.936h-.444l2.412-6.936h1.512L328.14 12h-1.284l-2.232-6.504h.264L322.572 12h-1.284Zm10.981 0V3.168h1.5v3.984h-.168c.184-.432.468-.76.852-.984a2.502 2.502 0 0 1 1.32-.348c.72 0 1.256.204 1.608.612.352.4.528 1.012.528 1.836V12h-1.5V8.34c0-.472-.092-.812-.276-1.02-.176-.216-.46-.324-.852-.324-.456 0-.824.144-1.104.432-.272.28-.408.656-.408 1.128V12h-1.5Zm10.159.12c-1.016 0-1.812-.28-2.388-.84-.576-.56-.864-1.328-.864-2.304 0-.632.124-1.184.372-1.656a2.75 2.75 0 0 1 1.032-1.104c.448-.264.968-.396 1.56-.396.584 0 1.072.124 1.464.372.392.248.688.596.888 1.044.208.448.312.972.312 1.572v.396h-4.416v-.792h3.348l-.204.168c0-.56-.12-.988-.36-1.284-.232-.296-.572-.444-1.02-.444-.496 0-.88.176-1.152.528-.264.352-.396.844-.396 1.476v.156c0 .656.16 1.148.48 1.476.328.32.788.48 1.38.48.344 0 .664-.044.96-.132.304-.096.592-.248.864-.456l.444 1.008a3.162 3.162 0 0 1-1.032.54c-.4.128-.824.192-1.272.192Zm3.634-.12V7.488c0-.256-.008-.516-.024-.78a7.861 7.861 0 0 0-.06-.768h1.452l.168 1.656h-.24c.08-.4.212-.732.396-.996.192-.264.424-.46.696-.588a2.06 2.06 0 0 1 .888-.192c.144 0 .26.008.348.024.088.008.176.028.264.06l-.012 1.32a1.654 1.654 0 0 0-.396-.12 2.685 2.685 0 0 0-.396-.024c-.344 0-.636.072-.876.216a1.377 1.377 0 0 0-.528.6 2.166 2.166 0 0 0-.168.876V12h-1.512Zm7.557.12c-1.016 0-1.812-.28-2.388-.84-.576-.56-.864-1.328-.864-2.304 0-.632.124-1.184.372-1.656a2.75 2.75 0 0 1 1.032-1.104c.448-.264.968-.396 1.56-.396.584 0 1.072.124 1.464.372.392.248.688.596.888 1.044.208.448.312.972.312 1.572v.396h-4.416v-.792h3.348l-.204.168c0-.56-.12-.988-.36-1.284-.232-.296-.572-.444-1.02-.444-.496 0-.88.176-1.152.528-.264.352-.396.844-.396 1.476v.156c0 .656.16 1.148.48 1.476.328.32.788.48 1.38.48.344 0 .664-.044.96-.132.304-.096.592-.248.864-.456l.444 1.008a3.162 3.162 0 0 1-1.032.54c-.4.128-.824.192-1.272.192Zm-34.923 17.604-.348-1.188c.376-.08.692-.172.948-.276.256-.104.468-.24.636-.408.168-.168.308-.384.42-.648l.3-.708-.036.588-2.64-6.144h1.596l1.896 4.728h-.348l1.908-4.728h1.512l-2.76 6.396a4.882 4.882 0 0 1-.6 1.068 2.952 2.952 0 0 1-.696.684 3 3 0 0 1-.816.408c-.296.096-.62.172-.972.228Zm9.254-2.604c-.624 0-1.164-.128-1.62-.384a2.7 2.7 0 0 1-1.068-1.092c-.248-.472-.372-1.032-.372-1.68 0-.648.124-1.204.372-1.668a2.7 2.7 0 0 1 1.068-1.092c.456-.256.996-.384 1.62-.384.624 0 1.164.128 1.62.384.464.256.82.62 1.068 1.092.256.464.384 1.02.384 1.668 0 .648-.128 1.208-.384 1.68a2.603 2.603 0 0 1-1.068 1.092c-.456.256-.996.384-1.62.384Zm0-1.152c.472 0 .848-.164 1.128-.492.28-.336.42-.84.42-1.512s-.14-1.172-.42-1.5c-.28-.328-.656-.492-1.128-.492-.472 0-.848.164-1.128.492-.28.328-.42.828-.42 1.5s.14 1.176.42 1.512c.28.328.656.492 1.128.492Zm6.55 1.152c-.744 0-1.3-.204-1.668-.612-.368-.408-.552-1.032-.552-1.872V20.94h1.5v3.684c0 .448.092.78.276.996.184.208.464.312.84.312.424 0 .768-.144 1.032-.432.272-.288.408-.668.408-1.14v-3.42h1.5V27h-1.464v-1.236h.168a2.151 2.151 0 0 1-.804 1.008c-.352.232-.764.348-1.236.348Zm8.257-.12v-8.832h1.5V27h-1.5Zm3.129 0v-6.06h1.5V27h-1.5Zm-.084-7.2v-1.464h1.668V19.8h-1.668Zm4.989 7.2-2.616-6.06h1.596l1.896 4.74h-.372l1.944-4.74h1.5L352.111 27h-1.32Zm7.562.12c-1.016 0-1.812-.28-2.388-.84-.576-.56-.864-1.328-.864-2.304 0-.632.124-1.184.372-1.656a2.75 2.75 0 0 1 1.032-1.104c.448-.264.968-.396 1.56-.396.584 0 1.072.124 1.464.372.392.248.688.596.888 1.044.208.448.312.972.312 1.572v.396h-4.416v-.792h3.348l-.204.168c0-.56-.12-.988-.36-1.284-.232-.296-.572-.444-1.02-.444-.496 0-.88.176-1.152.528-.264.352-.396.844-.396 1.476v.156c0 .656.16 1.148.48 1.476.328.32.788.48 1.38.48.344 0 .664-.044.96-.132.304-.096.592-.248.864-.456l.444 1.008a3.162 3.162 0 0 1-1.032.54c-.4.128-.824.192-1.272.192ZM76.245 12V3.54h1.548V12h-1.548Zm3.29 0V7.452a12.044 12.044 0 0 0-.096-1.512h1.452l.12 1.2h-.144c.168-.416.424-.74.768-.972.352-.232.768-.348 1.248-.348s.876.116 1.188.348c.32.224.544.576.672 1.056h-.192c.168-.432.444-.772.828-1.02a2.325 2.325 0 0 1 1.32-.384c.68 0 1.188.2 1.524.6.336.4.504 1.024.504 1.872V12h-1.5V8.352c0-.48-.08-.824-.24-1.032-.16-.216-.416-.324-.768-.324-.416 0-.744.148-.984.444-.24.288-.36.68-.36 1.176V12h-1.5V8.352c0-.48-.08-.824-.24-1.032-.16-.216-.416-.324-.768-.324-.416 0-.744.148-.984.444-.232.288-.348.68-.348 1.176V12h-1.5Zm10.793 0V7.452a12.12 12.12 0 0 0-.096-1.512h1.452l.12 1.2h-.144c.168-.416.424-.74.768-.972.352-.232.768-.348 1.248-.348s.876.116 1.188.348c.32.224.544.576.672 1.056h-.192c.168-.432.444-.772.828-1.02a2.325 2.325 0 0 1 1.32-.384c.68 0 1.188.2 1.524.6.336.4.504 1.024.504 1.872V12h-1.5V8.352c0-.48-.08-.824-.24-1.032-.16-.216-.416-.324-.768-.324-.416 0-.744.148-.984.444-.24.288-.36.68-.36 1.176V12h-1.5V8.352c0-.48-.08-.824-.24-1.032-.16-.216-.416-.324-.768-.324-.416 0-.744.148-.984.444-.232.288-.348.68-.348 1.176V12h-1.5Zm10.793 0V5.94h1.5V12h-1.5Zm-.084-7.2V3.336h1.668V4.8h-1.668Zm6.021 9.888c-.56 0-1.068-.06-1.524-.18a3.746 3.746 0 0 1-1.2-.552l.324-1.08c.232.152.472.276.72.372.248.096.504.168.768.216.264.048.532.072.804.072.56 0 .976-.14 1.248-.42.28-.272.42-.664.42-1.176v-1.452h.12a1.77 1.77 0 0 1-.78.996 2.4 2.4 0 0 1-1.332.372c-.544 0-1.02-.12-1.428-.36a2.51 2.51 0 0 1-.936-1.056c-.224-.456-.336-.992-.336-1.608 0-.616.112-1.148.336-1.596.224-.456.536-.804.936-1.044.408-.248.884-.372 1.428-.372.512 0 .956.124 1.332.372.384.24.64.568.768.984l-.108-.072.12-1.164h1.452a11.523 11.523 0 0 0-.096 1.512v4.308c0 .952-.26 1.676-.78 2.172-.512.504-1.264.756-2.256.756Zm-.024-3.984c.48 0 .86-.16 1.14-.48.288-.328.432-.792.432-1.392 0-.6-.144-1.06-.432-1.38-.28-.32-.66-.48-1.14-.48-.488 0-.876.16-1.164.48-.288.32-.432.78-.432 1.38 0 .6.144 1.064.432 1.392.288.32.676.48 1.164.48ZM111.702 12V7.488c0-.256-.008-.516-.024-.78a7.861 7.861 0 0 0-.06-.768h1.452l.168 1.656h-.24c.08-.4.212-.732.396-.996.192-.264.424-.46.696-.588a2.06 2.06 0 0 1 .888-.192c.144 0 .26.008.348.024.088.008.176.028.264.06l-.012 1.32a1.654 1.654 0 0 0-.396-.12 2.685 2.685 0 0 0-.396-.024c-.344 0-.636.072-.876.216a1.377 1.377 0 0 0-.528.6 2.166 2.166 0 0 0-.168.876V12h-1.512Zm7.005.12c-.528 0-.992-.124-1.392-.372-.4-.256-.712-.62-.936-1.092-.224-.472-.336-1.036-.336-1.692 0-.656.112-1.216.336-1.68.224-.472.536-.832.936-1.08.4-.256.864-.384 1.392-.384.512 0 .96.128 1.344.384.392.248.652.584.78 1.008h-.132l.132-1.272h1.44l-.072.756a12.12 12.12 0 0 0-.024.756V12h-1.488l-.012-1.248h.144a1.77 1.77 0 0 1-.78.996 2.439 2.439 0 0 1-1.332.372Zm.42-1.152c.472 0 .852-.164 1.14-.492.288-.336.432-.84.432-1.512s-.144-1.172-.432-1.5c-.288-.328-.668-.492-1.14-.492-.472 0-.852.164-1.14.492-.288.328-.432.828-.432 1.5s.14 1.176.42 1.512c.288.328.672.492 1.152.492Zm7.273 1.152c-.72 0-1.264-.188-1.632-.564-.368-.376-.552-.94-.552-1.692V7.068h-1.164V5.94h1.164V4.392l1.5-.384V5.94h1.62v1.128h-1.62v2.7c0 .416.08.708.24.876.16.168.38.252.66.252.152 0 .28-.012.384-.036.112-.024.22-.056.324-.096v1.188a1.9 1.9 0 0 1-.456.12c-.16.032-.316.048-.468.048Zm1.955-.12V5.94h1.5V12h-1.5Zm-.084-7.2V3.336h1.668V4.8h-1.668Zm5.949 7.32c-.624 0-1.164-.128-1.62-.384a2.7 2.7 0 0 1-1.068-1.092c-.248-.472-.372-1.032-.372-1.68 0-.648.124-1.204.372-1.668a2.7 2.7 0 0 1 1.068-1.092c.456-.256.996-.384 1.62-.384.624 0 1.164.128 1.62.384.464.256.82.62 1.068 1.092.256.464.384 1.02.384 1.668 0 .648-.128 1.208-.384 1.68a2.603 2.603 0 0 1-1.068 1.092c-.456.256-.996.384-1.62.384Zm0-1.152c.472 0 .848-.164 1.128-.492.28-.336.42-.84.42-1.512s-.14-1.172-.42-1.5c-.28-.328-.656-.492-1.128-.492-.472 0-.848.164-1.128.492-.28.328-.42.828-.42 1.5s.14 1.176.42 1.512c.28.328.656.492 1.128.492ZM138.586 12V7.452a12.12 12.12 0 0 0-.096-1.512h1.452l.12 1.2h-.144c.192-.424.476-.748.852-.972.376-.232.812-.348 1.308-.348.712 0 1.248.2 1.608.6.36.4.54 1.024.54 1.872V12h-1.5V8.364c0-.488-.096-.836-.288-1.044-.184-.216-.464-.324-.84-.324-.464 0-.832.144-1.104.432-.272.288-.408.672-.408 1.152V12h-1.5Zm-26.258 15.12c-.52 0-1-.06-1.44-.18a3.387 3.387 0 0 1-1.092-.528l.42-1.008a3.814 3.814 0 0 0 2.124.648c.4 0 .696-.068.888-.204.2-.136.3-.32.3-.552a.526.526 0 0 0-.192-.432c-.12-.112-.316-.196-.588-.252l-1.2-.228c-.512-.112-.904-.304-1.176-.576-.264-.272-.396-.628-.396-1.068 0-.376.1-.708.3-.996.208-.288.5-.512.876-.672.384-.168.832-.252 1.344-.252.448 0 .868.06 1.26.18.4.12.736.3 1.008.54l-.432.972a2.838 2.838 0 0 0-.852-.468 2.824 2.824 0 0 0-.936-.168c-.416 0-.72.076-.912.228a.673.673 0 0 0-.288.564c0 .176.056.324.168.444.12.112.304.196.552.252l1.2.228c.536.104.94.288 1.212.552.28.256.42.608.42 1.056 0 .4-.108.744-.324 1.032a2.023 2.023 0 0 1-.9.66c-.384.152-.832.228-1.344.228Zm6.385 0c-.72 0-1.264-.188-1.632-.564-.368-.376-.552-.94-.552-1.692v-2.796h-1.164V20.94h1.164v-1.548l1.5-.384v1.932h1.62v1.128h-1.62v2.7c0 .416.08.708.24.876.16.168.38.252.66.252.152 0 .28-.012.384-.036.112-.024.22-.056.324-.096v1.188a1.9 1.9 0 0 1-.456.12c-.16.032-.316.048-.468.048Zm4.295 0c-.528 0-.992-.124-1.392-.372-.4-.256-.712-.62-.936-1.092-.224-.472-.336-1.036-.336-1.692 0-.656.112-1.216.336-1.68.224-.472.536-.832.936-1.08.4-.256.864-.384 1.392-.384.512 0 .96.128 1.344.384.392.248.652.584.78 1.008H125l.132-1.272h1.44l-.072.756a12.12 12.12 0 0 0-.024.756V27h-1.488l-.012-1.248h.144a1.77 1.77 0 0 1-.78.996 2.439 2.439 0 0 1-1.332.372Zm.42-1.152c.472 0 .852-.164 1.14-.492.288-.336.432-.84.432-1.512s-.144-1.172-.432-1.5c-.288-.328-.668-.492-1.14-.492-.472 0-.852.164-1.14.492-.288.328-.432.828-.432 1.5s.14 1.176.42 1.512c.288.328.672.492 1.152.492Zm7.273 1.152c-.72 0-1.264-.188-1.632-.564-.368-.376-.552-.94-.552-1.692v-2.796h-1.164V20.94h1.164v-1.548l1.5-.384v1.932h1.62v1.128h-1.62v2.7c0 .416.08.708.24.876.16.168.38.252.66.252.152 0 .28-.012.384-.036.112-.024.22-.056.324-.096v1.188a1.9 1.9 0 0 1-.456.12c-.16.032-.316.048-.468.048Zm4.139 0c-.744 0-1.3-.204-1.668-.612-.368-.408-.552-1.032-.552-1.872V20.94h1.5v3.684c0 .448.092.78.276.996.184.208.464.312.84.312.424 0 .768-.144 1.032-.432.272-.288.408-.668.408-1.14v-3.42h1.5V27h-1.464v-1.236h.168a2.151 2.151 0 0 1-.804 1.008c-.352.232-.764.348-1.236.348Zm7.124 0c-.52 0-1-.06-1.44-.18a3.387 3.387 0 0 1-1.092-.528l.42-1.008a3.814 3.814 0 0 0 2.124.648c.4 0 .696-.068.888-.204.2-.136.3-.32.3-.552a.526.526 0 0 0-.192-.432c-.12-.112-.316-.196-.588-.252l-1.2-.228c-.512-.112-.904-.304-1.176-.576-.264-.272-.396-.628-.396-1.068 0-.376.1-.708.3-.996.208-.288.5-.512.876-.672.384-.168.832-.252 1.344-.252.448 0 .868.06 1.26.18.4.12.736.3 1.008.54l-.432.972a2.838 2.838 0 0 0-.852-.468 2.824 2.824 0 0 0-.936-.168c-.416 0-.72.076-.912.228a.673.673 0 0 0-.288.564c0 .176.056.324.168.444.12.112.304.196.552.252l1.2.228c.536.104.94.288 1.212.552.28.256.42.608.42 1.056 0 .4-.108.744-.324 1.032a2.023 2.023 0 0 1-.9.66c-.384.152-.832.228-1.344.228ZM26.456 109v-8.46h1.547v7.152h3.985V109h-5.532Zm8.934.12c-.528 0-.992-.124-1.392-.372-.4-.256-.712-.62-.936-1.092-.224-.472-.336-1.036-.336-1.692 0-.656.112-1.216.336-1.68.224-.472.536-.832.936-1.08.4-.256.864-.384 1.392-.384.512 0 .96.128 1.344.384.392.248.652.584.78 1.008h-.132l.132-1.272h1.44l-.072.756a12.12 12.12 0 0 0-.024.756V109H37.37l-.012-1.248h.144a1.77 1.77 0 0 1-.78.996 2.439 2.439 0 0 1-1.332.372Zm.42-1.152c.472 0 .852-.164 1.14-.492.288-.336.432-.84.432-1.512s-.144-1.172-.432-1.5c-.288-.328-.668-.492-1.14-.492-.472 0-.852.164-1.14.492-.288.328-.432.828-.432 1.5s.14 1.176.42 1.512c.288.328.672.492 1.152.492ZM40.492 109v-4.548a12.12 12.12 0 0 0-.096-1.512h1.452l.12 1.2h-.144c.192-.424.476-.748.852-.972.376-.232.812-.348 1.308-.348.712 0 1.248.2 1.608.6.36.4.54 1.024.54 1.872V109h-1.5v-3.636c0-.488-.096-.836-.288-1.044-.184-.216-.464-.324-.84-.324-.464 0-.832.144-1.104.432-.272.288-.408.672-.408 1.152V109h-1.5Zm10.038 2.688c-.56 0-1.068-.06-1.524-.18a3.746 3.746 0 0 1-1.2-.552l.324-1.08c.232.152.472.276.72.372.248.096.504.168.768.216.264.048.532.072.804.072.56 0 .976-.14 1.248-.42.28-.272.42-.664.42-1.176v-1.452h.12a1.77 1.77 0 0 1-.78.996 2.4 2.4 0 0 1-1.332.372c-.544 0-1.02-.12-1.428-.36-.4-.248-.712-.6-.936-1.056-.224-.456-.336-.992-.336-1.608 0-.616.112-1.148.336-1.596.224-.456.536-.804.936-1.044.408-.248.884-.372 1.428-.372.512 0 .956.124 1.332.372.384.24.64.568.768.984l-.108-.072.12-1.164h1.452a11.523 11.523 0 0 0-.096 1.512v4.308c0 .952-.26 1.676-.78 2.172-.512.504-1.264.756-2.256.756Zm-.024-3.984c.48 0 .86-.16 1.14-.48.288-.328.432-.792.432-1.392 0-.6-.144-1.06-.432-1.38-.28-.32-.66-.48-1.14-.48-.488 0-.876.16-1.164.48-.288.32-.432.78-.432 1.38 0 .6.144 1.064.432 1.392.288.32.676.48 1.164.48Zm6.865 1.416c-.744 0-1.3-.204-1.668-.612-.368-.408-.552-1.032-.552-1.872v-3.696h1.5v3.684c0 .448.092.78.276.996.184.208.464.312.84.312.424 0 .768-.144 1.032-.432.272-.288.408-.668.408-1.14v-3.42h1.5V109h-1.464v-1.236h.168a2.151 2.151 0 0 1-.804 1.008c-.352.232-.764.348-1.236.348Zm7.304 0c-.528 0-.991-.124-1.392-.372-.4-.256-.712-.62-.936-1.092-.224-.472-.336-1.036-.336-1.692 0-.656.112-1.216.336-1.68.224-.472.536-.832.936-1.08.4-.256.864-.384 1.392-.384.513 0 .96.128 1.344.384.392.248.652.584.78 1.008h-.132l.132-1.272h1.44l-.072.756a12.12 12.12 0 0 0-.023.756V109h-1.489l-.011-1.248h.143a1.77 1.77 0 0 1-.78.996 2.439 2.439 0 0 1-1.332.372Zm.42-1.152c.472 0 .853-.164 1.14-.492.288-.336.433-.84.433-1.512s-.145-1.172-.433-1.5c-.287-.328-.668-.492-1.14-.492-.471 0-.852.164-1.14.492-.288.328-.431.828-.431 1.5s.14 1.176.42 1.512c.287.328.671.492 1.151.492Zm7.49 3.72c-.56 0-1.068-.06-1.524-.18a3.746 3.746 0 0 1-1.2-.552l.324-1.08c.232.152.472.276.72.372.248.096.504.168.768.216.264.048.532.072.804.072.56 0 .976-.14 1.248-.42.28-.272.42-.664.42-1.176v-1.452h.12a1.77 1.77 0 0 1-.78.996 2.4 2.4 0 0 1-1.332.372c-.544 0-1.02-.12-1.428-.36a2.51 2.51 0 0 1-.936-1.056c-.224-.456-.336-.992-.336-1.608 0-.616.112-1.148.336-1.596.224-.456.536-.804.936-1.044.408-.248.884-.372 1.428-.372.512 0 .956.124 1.332.372.384.24.64.568.768.984l-.108-.072.12-1.164h1.452a11.523 11.523 0 0 0-.096 1.512v4.308c0 .952-.26 1.676-.78 2.172-.512.504-1.264.756-2.256.756Zm-.024-3.984c.48 0 .86-.16 1.14-.48.288-.328.432-.792.432-1.392 0-.6-.144-1.06-.432-1.38-.28-.32-.66-.48-1.14-.48-.488 0-.876.16-1.164.48-.288.32-.432.78-.432 1.38 0 .6.144 1.064.432 1.392.288.32.676.48 1.164.48Zm7.609 1.416c-1.016 0-1.812-.28-2.388-.84-.576-.56-.864-1.328-.864-2.304 0-.632.124-1.184.372-1.656a2.75 2.75 0 0 1 1.032-1.104c.448-.264.968-.396 1.56-.396.584 0 1.072.124 1.464.372.392.248.688.596.888 1.044.208.448.312.972.312 1.572v.396H78.13v-.792h3.348l-.204.168c0-.56-.12-.988-.36-1.284-.232-.296-.572-.444-1.02-.444-.496 0-.88.176-1.152.528-.264.352-.396.844-.396 1.476v.156c0 .656.16 1.148.48 1.476.328.32.788.48 1.38.48.344 0 .664-.044.96-.132.304-.096.592-.248.864-.456l.444 1.008a3.162 3.162 0 0 1-1.032.54c-.4.128-.824.192-1.272.192Z"/>
  </svg>