<svg xmlns="http://www.w3.org/2000/svg" width="355" height="242" fill="none" viewBox="0 0 355 242">
    <circle fill="var(--fi-wheel-dark, #E8B91C)" stroke="var(--fi-wheel-slice-outline, #4A4021)" cx="188.112" cy="114.302" r="99.305" stroke-dasharray="0.5 0.5" stroke-width=".5"/>
    <circle fill="var(--fi-wheel-medium, #F6D872)" stroke="var(--fi-wheel-slice-outline, #4A4021)" cx="188.24" cy="114.429" r="75.51" stroke-dasharray="0.5 0.5" stroke-width=".5"/>
    <circle fill="var(--fi-wheel-light, #F9EEC6)" stroke="var(--fi-wheel-slice-outline, #4A4021)" cx="188.24" cy="114.43" r="47.212" stroke-dasharray="0.5 0.5" stroke-width=".5"/>
    <path fill="var(--fi-wheel-arrow, #a93031)" d="M188.616 3.763a.302.302 0 0 0-.427 0l-1.92 1.92a.302.302 0 1 0 .427.428l1.707-1.708 1.707 1.708a.302.302 0 0 0 .427-.427l-1.921-1.92Zm-.427 99.118a.302.302 0 0 0 .427 0l1.921-1.921a.302.302 0 1 0-.427-.427l-1.707 1.707-1.707-1.707a.302.302 0 1 0-.427.427l1.92 1.921Zm.214-98.904h-.302v98.69h.604V3.977h-.302Z"/>
    <path stroke="var(--fi-wheel-slice-outline, #997D1E)" stroke-dasharray="0.6 0.6" stroke-width=".302" d="M287.697 114.287H88.807M188.252 213.732V14.841M117.772 184.455 258.23 43.997M118.243 44.254l139.943 139.943"/>
    <path fill="var(--fi-wheel-content-emphasis, #a93031)" d="M303.493 150.285c-.629 0-1.191-.081-1.687-.244a3.98 3.98 0 0 1-1.299-.7l.333-.732c.259.192.518.355.777.488.267.126.552.222.855.289.303.059.644.089 1.021.089.659 0 1.147-.122 1.465-.367.319-.244.478-.569.478-.976 0-.348-.111-.615-.333-.8-.222-.185-.611-.333-1.166-.444l-1.165-.233c-.718-.148-1.255-.388-1.61-.721-.348-.333-.522-.785-.522-1.354 0-.467.119-.874.356-1.221a2.39 2.39 0 0 1 1.021-.811c.436-.192.943-.288 1.521-.288.555 0 1.061.085 1.52.255.459.163.851.403 1.177.721l-.322.711a3.24 3.24 0 0 0-1.099-.666 3.663 3.663 0 0 0-1.288-.211c-.606 0-1.087.133-1.443.4-.347.259-.521.614-.521 1.065 0 .363.111.648.333.855.222.2.588.351 1.099.455l1.176.233c.755.155 1.31.389 1.665.699.355.311.533.748.533 1.31 0 .429-.118.81-.355 1.143-.23.333-.559.592-.988.777-.429.185-.94.278-1.532.278Zm6.55 0c-.533 0-.999-.115-1.399-.344a2.382 2.382 0 0 1-.91-.999c-.215-.437-.322-.951-.322-1.543 0-.599.107-1.114.322-1.543.214-.429.518-.758.91-.988.4-.237.866-.355 1.399-.355.54 0 1.006.118 1.398.355.4.23.707.559.922.988.222.429.333.944.333 1.543 0 .592-.111 1.106-.333 1.543a2.364 2.364 0 0 1-.922.999c-.392.229-.858.344-1.398.344Zm0-.733c.532 0 .954-.181 1.265-.544.311-.37.466-.906.466-1.609 0-.71-.159-1.247-.477-1.61-.311-.37-.729-.555-1.254-.555-.526 0-.944.185-1.255.555-.31.363-.466.9-.466 1.61 0 .703.156 1.239.466 1.609.311.363.729.544 1.255.544Zm6.396.733c-.547 0-1.024-.118-1.431-.355a2.42 2.42 0 0 1-.933-1.01c-.214-.437-.322-.955-.322-1.554 0-.607.111-1.121.333-1.543a2.29 2.29 0 0 1 .933-.977c.407-.222.88-.333 1.42-.333.356 0 .7.063 1.033.189.34.125.621.303.843.532l-.322.644a2.211 2.211 0 0 0-1.498-.632c-.577 0-1.025.181-1.343.543-.318.363-.477.892-.477 1.588 0 .688.159 1.221.477 1.598.318.378.766.566 1.343.566.244 0 .496-.048.755-.144.266-.096.514-.255.743-.477l.322.632a2.257 2.257 0 0 1-.854.544 2.929 2.929 0 0 1-1.022.189Zm3.154-.1v-5.572h.899v5.572h-.899Zm-.111-6.838v-1.01h1.11v1.01h-1.11Zm4.876 6.938c-.496 0-.928-.115-1.298-.344a2.386 2.386 0 0 1-.866-.999c-.2-.429-.3-.944-.3-1.543 0-.607.1-1.125.3-1.554.207-.429.496-.759.866-.988.37-.229.802-.344 1.298-.344.503 0 .936.129 1.299.388.37.252.614.596.733 1.033h-.134l.122-1.321h.866a180.1 180.1 0 0 0-.066.655 9.05 9.05 0 0 0-.023.632v4.285h-.899v-1.31h.122a1.768 1.768 0 0 1-.732 1.033c-.37.251-.799.377-1.288.377Zm.178-.733c.533 0 .954-.181 1.265-.544.311-.37.466-.906.466-1.609 0-.71-.155-1.247-.466-1.61-.311-.37-.732-.555-1.265-.555-.526 0-.947.185-1.266.555-.31.363-.466.9-.466 1.61 0 .703.156 1.239.466 1.609.319.363.74.544 1.266.544Zm4.358.633v-8.17h.899v8.17h-.899Zm-18.563 13.1c-.495 0-.928-.115-1.298-.344a2.386 2.386 0 0 1-.866-.999c-.2-.429-.3-.944-.3-1.543 0-.607.1-1.125.3-1.554.207-.429.496-.759.866-.988.37-.229.803-.344 1.298-.344.504 0 .937.129 1.299.388.37.252.614.596.733 1.033h-.133l.122-1.321h.865a180.1 180.1 0 0 0-.066.655 9.041 9.041 0 0 0-.022.632v4.285h-.899v-1.31h.122a1.774 1.774 0 0 1-.733 1.033c-.37.251-.799.377-1.288.377Zm.178-.733c.533 0 .955-.181 1.265-.544.311-.37.467-.906.467-1.609 0-.71-.156-1.247-.467-1.61-.31-.37-.732-.555-1.265-.555-.525 0-.947.185-1.265.555-.311.363-.467.9-.467 1.61 0 .703.156 1.239.467 1.609.318.363.74.544 1.265.544Zm4.358.633v-5.572h.899v5.572h-.899Zm-.111-6.838v-1.01h1.11v1.01h-1.11Zm4.865 6.938c-.488 0-.918-.115-1.288-.344a2.384 2.384 0 0 1-.865-.999c-.2-.429-.3-.944-.3-1.543 0-.607.1-1.125.3-1.554.207-.429.495-.759.865-.988.37-.229.8-.344 1.288-.344.503 0 .936.126 1.299.377.37.252.618.592.743 1.022h-.133v-3.897h.899v8.17h-.888v-1.332h.122a1.817 1.817 0 0 1-.732 1.055c-.37.251-.807.377-1.31.377Zm.189-.733c.525 0 .947-.181 1.265-.544.318-.37.477-.906.477-1.609 0-.71-.159-1.247-.477-1.61-.318-.37-.74-.555-1.265-.555-.526 0-.948.185-1.266.555-.311.363-.466.9-.466 1.61 0 .703.155 1.239.466 1.609.318.363.74.544 1.266.544Zm-22.607 16.031V171.9c0-.207-.011-.418-.033-.632a18.838 18.838 0 0 0-.055-.655h.865l.123 1.321h-.134c.119-.437.359-.781.722-1.033.362-.259.795-.388 1.299-.388.503 0 .936.115 1.298.344.37.229.659.559.866.988.207.429.311.947.311 1.554 0 .599-.104 1.114-.311 1.543-.2.429-.485.762-.855.999-.37.229-.806.344-1.309.344-.496 0-.925-.126-1.288-.377a1.788 1.788 0 0 1-.722-1.033h.123v3.708h-.9Zm2.609-3.031c.533 0 .955-.181 1.265-.544.319-.37.478-.906.478-1.609 0-.71-.159-1.247-.478-1.61-.31-.37-.732-.555-1.265-.555-.525 0-.947.185-1.265.555-.311.363-.467.9-.467 1.61 0 .703.156 1.239.467 1.609.318.363.74.544 1.265.544Zm6.334.733c-.533 0-.999-.115-1.399-.344a2.388 2.388 0 0 1-.91-.999c-.215-.437-.322-.951-.322-1.543 0-.599.107-1.114.322-1.543.215-.429.518-.758.91-.988.4-.237.866-.355 1.399-.355.54 0 1.006.118 1.398.355.4.23.707.559.922.988.222.429.333.944.333 1.543 0 .592-.111 1.106-.333 1.543a2.364 2.364 0 0 1-.922.999c-.392.229-.858.344-1.398.344Zm0-.733c.533 0 .954-.181 1.265-.544.311-.37.466-.906.466-1.609 0-.71-.159-1.247-.477-1.61-.311-.37-.729-.555-1.254-.555-.526 0-.944.185-1.255.555-.31.363-.466.9-.466 1.61 0 .703.156 1.239.466 1.609.311.363.729.544 1.255.544Zm4.054.633v-8.17h.9v8.17h-.9Zm2.645 0v-5.572h.899v5.572h-.899Zm-.111-6.838v-1.01h1.11v1.01h-1.11Zm5.098 6.938c-.547 0-1.024-.118-1.431-.355a2.42 2.42 0 0 1-.933-1.01c-.214-.437-.322-.955-.322-1.554 0-.607.111-1.121.333-1.543a2.29 2.29 0 0 1 .933-.977c.407-.222.88-.333 1.42-.333.356 0 .7.063 1.033.189.34.125.621.303.843.532l-.322.644a2.211 2.211 0 0 0-1.498-.632c-.577 0-1.025.181-1.343.543-.318.363-.477.892-.477 1.588 0 .688.159 1.221.477 1.598.318.378.766.566 1.343.566.244 0 .496-.048.755-.144.266-.096.514-.255.743-.477l.322.632a2.257 2.257 0 0 1-.854.544 2.929 2.929 0 0 1-1.022.189Zm3.154-.1v-5.572h.899v5.572h-.899Zm-.111-6.838v-1.01h1.11v1.01h-1.11Zm5.231 6.938c-.873 0-1.561-.252-2.064-.755-.503-.51-.755-1.217-.755-2.12 0-.585.111-1.091.333-1.521.222-.436.533-.773.932-1.01a2.59 2.59 0 0 1 1.377-.366c.51 0 .94.107 1.287.322.348.214.615.522.8.921.185.392.277.859.277 1.399v.333h-4.318v-.566h3.73l-.189.144c0-.592-.133-1.055-.4-1.388-.266-.333-.662-.499-1.187-.499-.555 0-.988.196-1.299.588-.311.385-.466.907-.466 1.565v.1c0 .696.17 1.225.51 1.588.348.355.833.532 1.455.532.333 0 .643-.048.932-.144a2.64 2.64 0 0 0 .844-.499l.31.632a2.517 2.517 0 0 1-.932.555c-.37.126-.762.189-1.177.189Zm5.417 0c-.444 0-.859-.059-1.244-.178a2.667 2.667 0 0 1-.954-.521l.311-.633c.273.215.569.374.888.477.325.104.662.156 1.01.156.444 0 .777-.078.999-.233a.775.775 0 0 0 .344-.666.636.636 0 0 0-.222-.511c-.141-.133-.374-.237-.7-.311l-1.032-.211c-.473-.103-.829-.277-1.065-.521-.237-.252-.356-.57-.356-.955 0-.326.085-.611.256-.855.17-.251.418-.447.743-.588.326-.148.707-.222 1.144-.222.407 0 .78.063 1.121.189.348.118.636.292.866.521l-.322.622a2.113 2.113 0 0 0-.766-.477 2.37 2.37 0 0 0-.877-.167c-.437 0-.766.089-.988.267a.819.819 0 0 0-.322.677c0 .214.067.392.2.532.14.134.355.234.644.3l1.032.211c.503.111.877.285 1.121.522.252.229.377.54.377.932 0 .333-.092.625-.277.877a1.772 1.772 0 0 1-.777.566c-.326.133-.71.2-1.154.2Z"/>
    <path fill="var(--fi-wheel-content, #161616)" d="M232.511 234.187c-.785 0-1.451-.162-1.998-.488a3.241 3.241 0 0 1-1.266-1.388c-.288-.599-.432-1.313-.432-2.142s.144-1.539.432-2.131a3.247 3.247 0 0 1 1.266-1.388c.547-.325 1.213-.488 1.998-.488a4.07 4.07 0 0 1 1.487.255c.437.171.818.418 1.144.744l-.345.733a3.747 3.747 0 0 0-1.054-.677c-.348-.148-.755-.222-1.221-.222-.895 0-1.576.277-2.042.832-.467.555-.7 1.336-.7 2.342 0 1.007.233 1.791.7 2.353.466.555 1.147.833 2.042.833.466 0 .873-.07 1.221-.211a3.881 3.881 0 0 0 1.054-.699l.345.743a3.507 3.507 0 0 1-1.144.744 4.07 4.07 0 0 1-1.487.255Zm5.976 0c-.532 0-.999-.114-1.398-.344a2.382 2.382 0 0 1-.91-.999c-.215-.436-.322-.951-.322-1.543 0-.599.107-1.113.322-1.543.214-.429.518-.758.91-.987.399-.237.866-.356 1.398-.356.541 0 1.007.119 1.399.356.4.229.707.558.921.987.222.43.333.944.333 1.543 0 .592-.111 1.107-.333 1.543a2.356 2.356 0 0 1-.921.999c-.392.23-.858.344-1.399.344Zm0-.732c.533 0 .955-.182 1.266-.544.311-.37.466-.907.466-1.61 0-.71-.159-1.247-.477-1.609-.311-.37-.729-.555-1.255-.555-.525 0-.943.185-1.254.555-.311.362-.466.899-.466 1.609 0 .703.155 1.24.466 1.61.311.362.729.544 1.254.544Zm5.909.732a4.22 4.22 0 0 1-1.243-.177 2.689 2.689 0 0 1-.955-.522l.311-.633c.274.215.57.374.888.478a3.33 3.33 0 0 0 1.01.155c.444 0 .777-.078.999-.233a.775.775 0 0 0 .344-.666.636.636 0 0 0-.222-.511c-.14-.133-.374-.236-.699-.31l-1.032-.211c-.474-.104-.829-.278-1.066-.522-.237-.252-.355-.57-.355-.955 0-.325.085-.61.255-.854.17-.252.418-.448.744-.589.325-.148.706-.222 1.143-.222.407 0 .781.063 1.121.189.348.118.637.292.866.522l-.322.621a2.132 2.132 0 0 0-.766-.477 2.364 2.364 0 0 0-.877-.166c-.436 0-.766.088-.988.266a.823.823 0 0 0-.322.677c0 .215.067.392.2.533.141.133.355.233.644.3l1.032.21c.504.111.877.285 1.121.522.252.23.378.54.378.933 0 .333-.093.625-.278.876a1.774 1.774 0 0 1-.777.567c-.325.133-.71.199-1.154.199Zm5.574 0c-.547 0-.965-.155-1.254-.466-.288-.318-.433-.795-.433-1.432v-3.074h-1.088v-.7h1.088v-1.52l.899-.256v1.776h1.599v.7h-1.599v2.974c0 .444.074.763.222.955.156.185.385.277.689.277.14 0 .266-.011.377-.033a2.29 2.29 0 0 0 .3-.1v.755c-.104.044-.23.078-.378.1a2.01 2.01 0 0 1-.422.044Zm7.086 0c-.533 0-.999-.114-1.398-.344a2.384 2.384 0 0 1-.911-.999c-.214-.436-.322-.951-.322-1.543 0-.599.108-1.113.322-1.543.215-.429.518-.758.911-.987.399-.237.865-.356 1.398-.356.54 0 1.007.119 1.399.356.399.229.706.558.921.987.222.43.333.944.333 1.543 0 .592-.111 1.107-.333 1.543a2.368 2.368 0 0 1-.921.999c-.392.23-.859.344-1.399.344Zm0-.732c.533 0 .955-.182 1.266-.544.31-.37.466-.907.466-1.61 0-.71-.159-1.247-.478-1.609-.31-.37-.728-.555-1.254-.555-.525 0-.943.185-1.254.555-.311.362-.466.899-.466 1.609 0 .703.155 1.24.466 1.61.311.362.729.544 1.254.544Zm4.289.632v-4.872h-1.088v-.7h1.332l-.244.233v-.932c0-.629.159-1.11.478-1.443.318-.333.773-.5 1.365-.5.148 0 .3.015.455.045.163.022.296.055.4.1v.743a1.53 1.53 0 0 0-.333-.088 1.676 1.676 0 0 0-.389-.045 1.13 1.13 0 0 0-.588.145.83.83 0 0 0-.367.41c-.081.185-.122.422-.122.711v.81l-.144-.189h1.698v.7h-1.554v4.872h-.899Zm6.356 0v-8.169h.9v8.169h-.9Zm2.645 0v-5.572h.9v5.572h-.9Zm-.111-6.837v-1.01h1.11v1.01h-1.11Zm4.399 6.837-2.386-5.572h.976l1.998 4.906h-.299l2.02-4.906h.932l-2.386 5.572h-.855Zm4.254 0v-5.572h.899v5.572h-.899Zm-.111-6.837v-1.01h1.11v1.01h-1.11Zm2.756 6.837v-4.284c0-.207-.011-.418-.033-.633-.015-.222-.033-.44-.056-.655h.866l.111 1.221h-.133c.163-.429.422-.755.777-.977a2.3 2.3 0 0 1 1.254-.344c.659 0 1.155.178 1.488.533.34.348.51.899.51 1.654v3.485h-.899v-3.429c0-.526-.107-.907-.322-1.144-.207-.244-.533-.366-.977-.366-.518 0-.928.159-1.232.477-.303.318-.455.744-.455 1.277v3.185h-.899Zm8.957 2.476c-.481 0-.925-.059-1.332-.178a3.395 3.395 0 0 1-1.099-.544l.267-.677c.229.163.455.292.677.389.222.096.451.166.688.211.237.051.488.077.755.077.547 0 .962-.144 1.243-.433.281-.288.422-.699.422-1.232v-1.631h.111a1.821 1.821 0 0 1-.733 1.043c-.37.252-.803.377-1.299.377-.51 0-.954-.111-1.332-.333a2.332 2.332 0 0 1-.865-.965c-.2-.422-.3-.918-.3-1.488 0-.562.1-1.051.3-1.465.207-.414.495-.733.865-.955.378-.229.822-.344 1.332-.344.504 0 .937.126 1.299.378.37.251.614.599.733 1.043l-.111-.111.1-1.21h.877a9.245 9.245 0 0 0-.089 1.288v4.251c0 .829-.215 1.454-.644 1.876-.422.422-1.043.633-1.865.633Zm-.133-3.33c.54 0 .966-.178 1.276-.533.311-.363.467-.87.467-1.521 0-.651-.156-1.154-.467-1.509-.31-.356-.736-.533-1.276-.533-.533 0-.958.177-1.277.533-.318.355-.477.858-.477 1.509 0 .651.159 1.158.477 1.521.319.355.744.533 1.277.533Z" />
    <path fill="var(--fi-wheel-content-emphasis, #a93031)"  d="M292.251 73.325c-.629 0-1.191-.081-1.687-.244a3.985 3.985 0 0 1-1.299-.7l.333-.732c.259.192.518.355.777.488.267.126.552.222.855.289.304.06.644.089 1.021.089.659 0 1.147-.122 1.466-.367a1.17 1.17 0 0 0 .477-.976c0-.348-.111-.615-.333-.8-.222-.185-.611-.333-1.166-.444l-1.165-.233c-.718-.148-1.254-.388-1.61-.721-.347-.333-.521-.785-.521-1.354 0-.467.118-.874.355-1.221a2.386 2.386 0 0 1 1.021-.81c.437-.193.944-.29 1.521-.29.555 0 1.062.086 1.52.256.459.163.851.403 1.177.721l-.322.71a3.246 3.246 0 0 0-1.099-.665 3.666 3.666 0 0 0-1.287-.211c-.607 0-1.088.133-1.443.4-.348.259-.522.614-.522 1.065 0 .363.111.648.333.855.222.2.588.351 1.099.455l1.176.233c.755.156 1.31.389 1.665.7.356.31.533.747.533 1.31 0 .428-.118.81-.355 1.142-.229.334-.559.593-.988.778-.429.184-.94.277-1.532.277Zm6.217 0c-.547 0-.965-.155-1.254-.466-.288-.318-.433-.796-.433-1.432v-3.075h-1.088v-.7h1.088v-1.52l.899-.255v1.776h1.599v.7h-1.599v2.974c0 .444.074.762.222.955.156.185.385.277.689.277.14 0 .266-.011.377-.033.111-.03.211-.063.3-.1v.755c-.104.044-.23.077-.378.1-.14.03-.281.044-.422.044Zm1.905-.1v-5.572h.899v5.572h-.899Zm-.111-6.837v-1.01h1.11v1.01h-1.11Zm5.209 9.312c-.481 0-.925-.059-1.332-.177a3.399 3.399 0 0 1-1.099-.544l.267-.677c.229.163.455.292.677.388.222.097.451.167.688.211.237.052.489.078.755.078.548 0 .962-.144 1.243-.433.281-.289.422-.7.422-1.232v-1.632h.111a1.816 1.816 0 0 1-.733 1.044c-.37.251-.803.377-1.298.377-.511 0-.955-.111-1.332-.333a2.336 2.336 0 0 1-.866-.966c-.2-.422-.3-.917-.3-1.487 0-.563.1-1.05.3-1.465.207-.415.496-.733.866-.955.377-.23.821-.344 1.332-.344.503 0 .936.126 1.298.377.37.252.615.6.733 1.044l-.111-.111.1-1.21h.877a9.218 9.218 0 0 0-.089 1.287v4.252c0 .829-.215 1.454-.644 1.876-.422.422-1.043.632-1.865.632Zm-.133-3.33c.54 0 .966-.177 1.277-.532.31-.363.466-.87.466-1.521 0-.651-.156-1.154-.466-1.51-.311-.355-.737-.532-1.277-.532-.533 0-.958.177-1.276.532-.319.355-.478.859-.478 1.51s.159 1.158.478 1.52c.318.356.743.533 1.276.533Zm4.368.855v-4.284c0-.208-.011-.419-.033-.633-.015-.222-.033-.44-.055-.655h.865l.111 1.22h-.133c.148-.42.381-.747.699-.976.326-.23.718-.344 1.177-.344.466 0 .844.111 1.132.333.296.222.496.566.6 1.032h-.167c.141-.422.389-.755.744-.999a2.138 2.138 0 0 1 1.243-.366c.614 0 1.077.178 1.388.533.31.348.466.899.466 1.654v3.485h-.899v-3.43c0-.525-.093-.906-.278-1.143-.185-.244-.481-.366-.888-.366-.466 0-.836.162-1.11.488-.266.318-.399.747-.399 1.288v3.163h-.9v-3.43c0-.525-.092-.906-.277-1.143-.185-.244-.481-.366-.888-.366-.466 0-.833.162-1.099.488-.266.318-.4.747-.4 1.288v3.163h-.899Zm11.866.1c-.496 0-.929-.115-1.299-.344a2.384 2.384 0 0 1-.866-1c-.2-.428-.3-.943-.3-1.542 0-.607.1-1.125.3-1.554.207-.43.496-.759.866-.988.37-.23.803-.344 1.299-.344.503 0 .936.13 1.298.389.37.251.614.595.733 1.032h-.133l.122-1.321h.866c-.023.215-.045.433-.067.655a9.07 9.07 0 0 0-.022.632v4.285h-.899v-1.31h.122c-.119.437-.363.781-.733 1.033-.37.251-.799.377-1.287.377Zm.177-.733c.533 0 .955-.18 1.266-.543.31-.37.466-.907.466-1.61 0-.71-.156-1.247-.466-1.61-.311-.37-.733-.554-1.266-.554-.525 0-.947.184-1.265.554-.311.363-.466.9-.466 1.61 0 .703.155 1.24.466 1.61.318.362.74.543 1.265.543Zm9.372.733c-.495 0-.928-.115-1.298-.344a2.384 2.384 0 0 1-.866-1c-.2-.428-.3-.943-.3-1.542 0-.607.1-1.125.3-1.554.207-.43.496-.759.866-.988.37-.23.803-.344 1.298-.344.504 0 .937.13 1.299.389.37.251.614.595.733 1.032h-.133l.122-1.321h.865l-.066.655a9.07 9.07 0 0 0-.022.632v4.285h-.899v-1.31h.122c-.119.437-.363.781-.733 1.033-.37.251-.799.377-1.288.377Zm.178-.733c.533 0 .955-.18 1.265-.543.311-.37.467-.907.467-1.61 0-.71-.156-1.247-.467-1.61-.31-.37-.732-.554-1.265-.554-.525 0-.947.184-1.265.554-.311.363-.467.9-.467 1.61 0 .703.156 1.24.467 1.61.318.362.74.543 1.265.543Zm4.358.633v-4.284c0-.208-.011-.419-.033-.633-.015-.222-.034-.44-.056-.655h.866l.111 1.22h-.133c.163-.428.422-.754.777-.976.362-.23.78-.344 1.254-.344.659 0 1.154.178 1.487.533.341.348.511.899.511 1.654v3.485h-.899v-3.43c0-.525-.107-.906-.322-1.143-.207-.244-.533-.366-.977-.366-.518 0-.928.159-1.232.477-.303.318-.455.744-.455 1.276v3.186h-.899Zm8.613.1c-.489 0-.918-.115-1.288-.344a2.39 2.39 0 0 1-.866-1c-.199-.428-.299-.943-.299-1.542 0-.607.1-1.125.299-1.554.208-.43.496-.759.866-.988.37-.23.799-.344 1.288-.344.503 0 .936.126 1.299.377.37.252.617.592.743 1.022h-.133v-3.897h.899v8.17h-.888v-1.332h.122a1.816 1.816 0 0 1-.732 1.055c-.37.251-.807.377-1.31.377Zm.189-.733c.525 0 .947-.18 1.265-.543.318-.37.477-.907.477-1.61 0-.71-.159-1.247-.477-1.61-.318-.37-.74-.554-1.265-.554-.526 0-.948.184-1.266.554-.311.363-.466.9-.466 1.61 0 .703.155 1.24.466 1.61.318.362.74.543 1.266.543Zm-50.265 16.075c-.104 0-.233-.015-.389-.044a2.018 2.018 0 0 1-.388-.09v-.754c.088.03.192.056.31.078.119.03.23.044.333.044.311 0 .541-.1.689-.3.155-.192.233-.51.233-.954v-5.994h.899v6.083c0 .636-.141 1.117-.422 1.443-.274.325-.696.488-1.265.488Zm.688-9.28v-1.01h1.099v1.01h-1.099Zm4.654 6.938c-.659 0-1.158-.181-1.499-.544-.333-.363-.499-.918-.499-1.665v-3.463h.899v3.44c0 .511.104.889.311 1.133.207.237.529.355.965.355.489 0 .881-.159 1.177-.477.296-.318.444-.744.444-1.276v-3.175h.899v5.572h-.877v-1.254h.145c-.156.429-.407.762-.755.999-.341.237-.744.355-1.21.355Zm6.551 0c-.489 0-.918-.115-1.288-.344a2.384 2.384 0 0 1-.866-1c-.2-.428-.3-.943-.3-1.542 0-.607.1-1.125.3-1.554.207-.43.496-.759.866-.988.37-.23.799-.344 1.288-.344.503 0 .936.126 1.298.377.37.252.618.592.744 1.022h-.133v-3.897h.899v8.17h-.888v-1.332h.122a1.818 1.818 0 0 1-.733 1.055c-.37.251-.806.377-1.309.377Zm.188-.733c.526 0 .947-.18 1.266-.543.318-.37.477-.907.477-1.61 0-.71-.159-1.247-.477-1.61-.319-.37-.74-.554-1.266-.554-.525 0-.947.184-1.265.554-.311.363-.466.9-.466 1.61 0 .703.155 1.24.466 1.61.318.362.74.543 1.265.543Zm6.811 3.108c-.481 0-.925-.059-1.332-.177a3.399 3.399 0 0 1-1.099-.544l.267-.677c.229.163.455.292.677.388.222.097.451.167.688.211.237.052.489.078.755.078.548 0 .962-.144 1.243-.433.281-.289.422-.7.422-1.232v-1.632h.111a1.816 1.816 0 0 1-.733 1.044c-.37.251-.803.377-1.298.377-.511 0-.955-.111-1.332-.333a2.336 2.336 0 0 1-.866-.966c-.2-.422-.3-.917-.3-1.487 0-.563.1-1.05.3-1.465.207-.415.496-.733.866-.955.377-.23.821-.344 1.332-.344.503 0 .936.126 1.298.377.37.252.615.6.733 1.044l-.111-.111.1-1.21h.877a9.218 9.218 0 0 0-.089 1.287v4.252c0 .829-.215 1.454-.644 1.876-.422.422-1.043.632-1.865.632Zm-.133-3.33c.54 0 .966-.177 1.277-.532.31-.363.466-.87.466-1.521 0-.651-.156-1.154-.466-1.51-.311-.355-.737-.532-1.277-.532-.533 0-.958.177-1.276.532-.319.355-.478.859-.478 1.51s.159 1.158.478 1.52c.318.356.743.533 1.276.533Zm4.368.855v-4.284c0-.208-.011-.419-.033-.633-.015-.222-.033-.44-.055-.655h.865l.111 1.22h-.133c.148-.42.381-.747.699-.976.326-.23.718-.344 1.177-.344.466 0 .844.111 1.132.333.296.222.496.566.6 1.032h-.167c.141-.422.389-.755.744-.999a2.138 2.138 0 0 1 1.243-.366c.614 0 1.077.178 1.388.533.31.348.466.899.466 1.654v3.485h-.899v-3.43c0-.525-.093-.906-.278-1.143-.185-.244-.481-.366-.888-.366-.466 0-.836.162-1.11.488-.266.318-.399.747-.399 1.288v3.163h-.9v-3.43c0-.525-.092-.906-.277-1.143-.185-.244-.481-.366-.888-.366-.466 0-.833.162-1.099.488-.266.318-.4.747-.4 1.288v3.163h-.899Zm12.221.1c-.873 0-1.562-.252-2.065-.755-.503-.51-.755-1.217-.755-2.12 0-.585.111-1.091.333-1.52.222-.437.533-.774.933-1.01a2.583 2.583 0 0 1 1.376-.367c.511 0 .94.107 1.288.322.348.215.614.522.799.921.185.392.277.859.277 1.399v.333h-4.317v-.566h3.729l-.189.144c0-.592-.133-1.054-.399-1.387-.267-.334-.662-.5-1.188-.5-.555 0-.988.196-1.299.588-.31.385-.466.907-.466 1.565v.1c0 .696.17 1.225.511 1.588.348.355.832.532 1.454.532.333 0 .644-.048.932-.144.296-.103.578-.27.844-.5l.311.633a2.519 2.519 0 0 1-.933.555c-.37.126-.762.189-1.176.189Zm3.562-.1v-4.284c0-.208-.011-.419-.033-.633-.015-.222-.033-.44-.056-.655h.866l.111 1.22h-.133c.163-.428.422-.754.777-.976.363-.23.781-.344 1.254-.344.659 0 1.155.178 1.488.533.34.348.51.899.51 1.654v3.485h-.899v-3.43c0-.525-.107-.906-.322-1.143-.207-.244-.532-.366-.976-.366-.518 0-.929.159-1.233.477-.303.318-.455.744-.455 1.276v3.186h-.899Zm8.48.1c-.548 0-.966-.155-1.254-.466-.289-.318-.433-.796-.433-1.432v-3.075h-1.088v-.7h1.088v-1.52l.899-.255v1.776h1.598v.7h-1.598v2.974c0 .444.074.762.222.955.155.185.385.277.688.277.141 0 .266-.011.377-.033.111-.03.211-.063.3-.1v.755a1.535 1.535 0 0 1-.377.1c-.141.03-.281.044-.422.044ZM88.685 227.977l3.452-7.826h.799l3.507 7.826h-.954l-.977-2.232.41.234H90.14l.444-.234-.955 2.232h-.943Zm3.84-6.771-1.798 4.218-.266-.2h4.129l-.2.2-1.843-4.218h-.022Zm7.287 6.87c-.548 0-1.025-.118-1.432-.355-.4-.237-.71-.573-.932-1.01-.215-.436-.322-.954-.322-1.554 0-.607.11-1.121.333-1.543a2.29 2.29 0 0 1 .932-.977c.407-.222.88-.333 1.421-.333.355 0 .699.063 1.032.189.341.126.622.304.844.533l-.322.644a2.193 2.193 0 0 0-.733-.478 2.062 2.062 0 0 0-.765-.155c-.578 0-1.025.181-1.344.544-.318.363-.477.892-.477 1.587 0 .688.16 1.221.477 1.599.319.377.766.566 1.344.566.244 0 .495-.048.754-.145.267-.096.515-.255.744-.477l.322.633a2.254 2.254 0 0 1-.855.544c-.34.126-.681.188-1.021.188Zm5.387 0c-.547 0-1.024-.118-1.431-.355a2.415 2.415 0 0 1-.933-1.01c-.214-.436-.322-.954-.322-1.554 0-.607.111-1.121.333-1.543a2.29 2.29 0 0 1 .933-.977c.407-.222.88-.333 1.42-.333.356 0 .7.063 1.033.189.34.126.621.304.843.533l-.322.644a2.199 2.199 0 0 0-1.498-.633c-.577 0-1.025.181-1.343.544-.318.363-.477.892-.477 1.587 0 .688.159 1.221.477 1.599.318.377.766.566 1.343.566.244 0 .496-.048.755-.145.266-.096.514-.255.743-.477l.322.633a2.257 2.257 0 0 1-.854.544 2.927 2.927 0 0 1-1.022.188Zm5.332 0c-.532 0-.999-.114-1.398-.344a2.37 2.37 0 0 1-.91-.999c-.215-.436-.322-.951-.322-1.543 0-.599.107-1.113.322-1.542.214-.43.518-.759.91-.988.399-.237.866-.356 1.398-.356.541 0 1.007.119 1.399.356.4.229.707.558.921.988.222.429.333.943.333 1.542 0 .592-.111 1.107-.333 1.543-.214.43-.521.763-.921.999-.392.23-.858.344-1.399.344Zm0-.732c.533 0 .955-.181 1.266-.544.311-.37.466-.907.466-1.61 0-.71-.159-1.246-.477-1.609-.311-.37-.729-.555-1.255-.555-.525 0-.943.185-1.254.555-.311.363-.466.899-.466 1.609 0 .703.155 1.24.466 1.61.311.363.729.544 1.254.544Zm4.055.633v-4.285c0-.207-.011-.418-.033-.633-.015-.222-.034-.44-.056-.655h.866l.111 1.221h-.133c.148-.421.381-.747.699-.976.326-.23.718-.345 1.177-.345.466 0 .843.111 1.132.333.296.222.496.567.599 1.033h-.166c.14-.422.388-.755.744-.999a2.14 2.14 0 0 1 1.243-.367c.614 0 1.076.178 1.387.533.311.348.466.899.466 1.654v3.486h-.899v-3.43c0-.526-.092-.907-.277-1.144-.185-.244-.481-.366-.888-.366-.466 0-.836.163-1.11.488-.267.319-.4.748-.4 1.288v3.164h-.899v-3.43c0-.526-.092-.907-.277-1.144-.185-.244-.481-.366-.888-.366-.467 0-.833.163-1.099.488-.267.319-.4.748-.4 1.288v3.164h-.899Zm9.745 0v-4.285c0-.207-.011-.418-.033-.633-.015-.222-.034-.44-.056-.655h.866l.111 1.221h-.133c.148-.421.381-.747.699-.976.326-.23.718-.345 1.177-.345.466 0 .843.111 1.132.333.296.222.496.567.599 1.033h-.166c.14-.422.388-.755.744-.999a2.14 2.14 0 0 1 1.243-.367c.614 0 1.076.178 1.387.533.311.348.466.899.466 1.654v3.486h-.899v-3.43c0-.526-.092-.907-.277-1.144-.185-.244-.481-.366-.888-.366-.466 0-.836.163-1.11.488-.267.319-.4.748-.4 1.288v3.164h-.899v-3.43c0-.526-.092-.907-.277-1.144-.185-.244-.481-.366-.888-.366-.467 0-.833.163-1.099.488-.267.319-.4.748-.4 1.288v3.164h-.899Zm12.032.099c-.533 0-.999-.114-1.399-.344a2.37 2.37 0 0 1-.91-.999c-.215-.436-.322-.951-.322-1.543 0-.599.107-1.113.322-1.542.214-.43.518-.759.91-.988.4-.237.866-.356 1.399-.356.54 0 1.006.119 1.398.356.4.229.707.558.922.988.222.429.333.943.333 1.542 0 .592-.111 1.107-.333 1.543-.215.43-.522.763-.922.999-.392.23-.858.344-1.398.344Zm0-.732c.532 0 .954-.181 1.265-.544.311-.37.466-.907.466-1.61 0-.71-.159-1.246-.477-1.609-.311-.37-.729-.555-1.254-.555-.526 0-.944.185-1.255.555-.31.363-.466.899-.466 1.609 0 .703.156 1.24.466 1.61.311.363.729.544 1.255.544Zm6.163.732c-.488 0-.917-.114-1.287-.344a2.374 2.374 0 0 1-.866-.999c-.2-.429-.3-.943-.3-1.543 0-.606.1-1.124.3-1.554.207-.429.496-.758.866-.987.37-.23.799-.345 1.287-.345.504 0 .937.126 1.299.378.37.251.618.592.744 1.021h-.133v-3.896h.899v8.17h-.888v-1.332h.122a1.821 1.821 0 0 1-.733 1.054c-.37.252-.806.377-1.31.377Zm.189-.732c.526 0 .947-.181 1.266-.544.318-.37.477-.907.477-1.61 0-.71-.159-1.246-.477-1.609-.319-.37-.74-.555-1.266-.555-.525 0-.947.185-1.265.555-.311.363-.466.899-.466 1.609 0 .703.155 1.24.466 1.61.318.363.74.544 1.265.544Zm6.478.732c-.496 0-.929-.114-1.299-.344a2.372 2.372 0 0 1-.865-.999c-.2-.429-.3-.943-.3-1.543 0-.606.1-1.124.3-1.554.207-.429.495-.758.865-.987.37-.23.803-.345 1.299-.345.503 0 .936.13 1.299.389.37.252.614.596.732 1.032h-.133l.122-1.321h.866l-.066.655a9.1 9.1 0 0 0-.023.633v4.285h-.899v-1.31h.122c-.118.436-.362.78-.732 1.032s-.799.377-1.288.377Zm.178-.732c.533 0 .954-.181 1.265-.544.311-.37.466-.907.466-1.61 0-.71-.155-1.246-.466-1.609-.311-.37-.732-.555-1.265-.555-.526 0-.947.185-1.266.555-.31.363-.466.899-.466 1.609 0 .703.156 1.24.466 1.61.319.363.74.544 1.266.544Zm6.334.732c-.548 0-.966-.155-1.255-.466-.288-.318-.433-.795-.433-1.432v-3.074h-1.087v-.7h1.087v-1.52l.899-.256v1.776h1.599v.7h-1.599v2.974c0 .444.074.763.222.955.156.185.385.278.689.278.14 0 .266-.012.377-.034a2.29 2.29 0 0 0 .3-.1v.755a1.52 1.52 0 0 1-.378.1c-.14.03-.281.044-.421.044Zm1.904-.099v-5.573h.899v5.573h-.899Zm-.111-6.838v-1.01h1.11v1.01h-1.11Zm5.043 6.937c-.533 0-.999-.114-1.399-.344a2.376 2.376 0 0 1-.91-.999c-.214-.436-.322-.951-.322-1.543 0-.599.108-1.113.322-1.542.215-.43.518-.759.91-.988.4-.237.866-.356 1.399-.356.54 0 1.006.119 1.399.356.399.229.706.558.921.988.222.429.333.943.333 1.542 0 .592-.111 1.107-.333 1.543-.215.43-.522.763-.921.999-.393.23-.859.344-1.399.344Zm0-.732c.533 0 .955-.181 1.265-.544.311-.37.467-.907.467-1.61 0-.71-.16-1.246-.478-1.609-.311-.37-.729-.555-1.254-.555s-.944.185-1.254.555c-.311.363-.467.899-.467 1.609 0 .703.156 1.24.467 1.61.31.363.729.544 1.254.544Zm4.055.633v-4.285c0-.207-.011-.418-.034-.633a16.83 16.83 0 0 0-.055-.655h.866l.111 1.221h-.134a1.91 1.91 0 0 1 .777-.976c.363-.23.781-.345 1.255-.345.658 0 1.154.178 1.487.533.341.348.511.899.511 1.654v3.486h-.899v-3.43c0-.526-.108-.907-.322-1.144-.207-.244-.533-.366-.977-.366-.518 0-.929.159-1.232.477-.304.319-.455.744-.455 1.277v3.186h-.899Zm8.357.099a4.22 4.22 0 0 1-1.243-.177 2.689 2.689 0 0 1-.955-.522l.311-.633c.274.215.57.374.888.478.326.103.663.155 1.01.155.444 0 .777-.078.999-.233a.773.773 0 0 0 .344-.666.636.636 0 0 0-.222-.511c-.14-.133-.373-.236-.699-.31l-1.032-.211c-.474-.104-.829-.278-1.066-.522-.237-.252-.355-.57-.355-.955 0-.325.085-.61.255-.854a1.67 1.67 0 0 1 .744-.589c.326-.148.707-.222 1.143-.222.407 0 .781.063 1.121.189.348.119.637.292.866.522l-.322.621a2.132 2.132 0 0 0-.766-.477 2.363 2.363 0 0 0-.876-.166c-.437 0-.766.088-.988.266a.82.82 0 0 0-.322.677c0 .215.066.392.2.533.14.133.355.233.643.3l1.033.211c.503.111.877.284 1.121.521.251.23.377.54.377.933 0 .333-.092.625-.277.877a1.78 1.78 0 0 1-.777.566c-.326.133-.711.199-1.155.199Zm-58.393 13c-.496 0-.929-.114-1.299-.344a2.381 2.381 0 0 1-.866-.999c-.199-.429-.299-.943-.299-1.543 0-.606.1-1.124.299-1.554.208-.429.496-.758.866-.987.37-.23.803-.345 1.299-.345.503 0 .936.13 1.299.389.37.252.614.596.732 1.032h-.133l.122-1.321h.866l-.067.655a9.09 9.09 0 0 0-.022.633v4.285h-.899v-1.31h.122a1.77 1.77 0 0 1-.733 1.032 2.23 2.23 0 0 1-1.287.377Zm.177-.732c.533 0 .955-.181 1.266-.544.311-.37.466-.907.466-1.61 0-.71-.155-1.246-.466-1.609-.311-.37-.733-.555-1.266-.555-.525 0-.947.185-1.265.555-.311.363-.466.899-.466 1.609 0 .703.155 1.24.466 1.61.318.363.74.544 1.265.544Zm6.334.732c-.547 0-.966-.155-1.254-.466-.289-.318-.433-.795-.433-1.432v-3.074h-1.088v-.7h1.088v-1.52l.899-.256v1.776h1.598v.7h-1.598v2.974c0 .444.074.763.222.955.155.185.385.278.688.278.141 0 .267-.012.378-.034.111-.029.211-.063.299-.1v.755a1.5 1.5 0 0 1-.377.1c-.141.03-.281.044-.422.044Zm6.287-.099-2.065-5.573h.955l1.72 4.907h-.288l1.776-4.907h.777l1.742 4.907h-.277l1.731-4.907h.911l-2.076 5.573h-.866l-1.798-4.984h.444l-1.809 4.984h-.877Zm10.37.099c-.532 0-.999-.114-1.398-.344a2.37 2.37 0 0 1-.91-.999c-.215-.436-.322-.951-.322-1.543 0-.599.107-1.113.322-1.542.214-.43.518-.759.91-.988.399-.237.866-.356 1.398-.356.541 0 1.007.119 1.399.356.4.229.707.558.921.988.222.429.333.943.333 1.542 0 .592-.111 1.107-.333 1.543-.214.43-.521.763-.921.999-.392.23-.858.344-1.399.344Zm0-.732c.533 0 .955-.181 1.266-.544.311-.37.466-.907.466-1.61 0-.71-.159-1.246-.477-1.609-.311-.37-.729-.555-1.255-.555-.525 0-.943.185-1.254.555-.311.363-.466.899-.466 1.609 0 .703.155 1.24.466 1.61.311.363.729.544 1.254.544Zm4.033.633v-4.23c0-.222-.007-.447-.022-.677a9.337 9.337 0 0 0-.045-.666h.866l.111 1.355-.155.011c.074-.333.203-.607.388-.822.185-.214.404-.373.655-.477.252-.111.514-.167.788-.167.111 0 .207.004.289.012.089.007.17.025.244.055l-.011.799a1.286 1.286 0 0 0-.311-.066 1.882 1.882 0 0 0-.311-.023c-.325 0-.61.078-.854.234a1.563 1.563 0 0 0-.544.599 1.75 1.75 0 0 0-.178.777v3.286h-.91Zm4.055 0v-8.17h.899v5.073h.022l2.586-2.476h1.132l-3.052 2.909.022-.456 3.319 3.12h-1.166l-2.841-2.62h-.022v2.62h-.899ZM32.042 156.076c-1.059 0-1.847-.27-2.365-.81-.51-.54-.765-1.336-.765-2.386v-4.729h.91v4.684c0 .807.177 1.414.533 1.821.355.407.917.61 1.687.61.725 0 1.276-.203 1.654-.61.377-.407.566-1.014.566-1.821v-4.684h.91v4.729c0 1.05-.266 1.846-.8 2.386-.525.54-1.302.81-2.33.81Zm4.922-.099v-4.285c0-.207-.01-.418-.033-.633-.015-.222-.033-.44-.056-.655h.866l.111 1.221h-.133c.163-.429.422-.754.777-.976.363-.23.78-.345 1.254-.345.659 0 1.155.178 1.488.533.34.348.51.899.51 1.654v3.486h-.899v-3.43c0-.526-.107-.907-.322-1.144-.207-.244-.532-.366-.977-.366-.517 0-.928.159-1.232.477-.303.319-.455.744-.455 1.277v3.186h-.899Zm8.98.099c-.874 0-1.562-.251-2.065-.754-.503-.511-.755-1.218-.755-2.12 0-.585.111-1.092.333-1.521.222-.437.533-.773.932-1.01.4-.244.859-.367 1.377-.367.51 0 .94.108 1.287.322.348.215.615.522.8.922.185.392.277.858.277 1.398v.333h-4.318v-.566h3.73l-.189.144c0-.592-.133-1.054-.4-1.387-.266-.333-.662-.5-1.187-.5-.555 0-.988.197-1.299.589-.31.385-.466.906-.466 1.565v.1c0 .695.17 1.224.51 1.587.348.355.833.533 1.455.533.333 0 .643-.048.932-.144.296-.104.577-.271.844-.5l.31.633a2.517 2.517 0 0 1-.932.555c-.37.126-.762.188-1.177.188Zm2.764-.099 2.497-3.097v.444l-2.364-2.92h1.088l1.787 2.276h-.322l1.776-2.276h1.077l-2.331 2.909v-.411l2.475 3.075h-1.099l-1.91-2.431h.334l-1.932 2.431h-1.076Zm6.695 2.397v-6.682c0-.207-.011-.418-.033-.633-.015-.222-.034-.44-.056-.655h.866l.122 1.321h-.133c.118-.436.359-.78.721-1.032.363-.259.796-.389 1.299-.389.503 0 .936.115 1.299.345.37.229.658.558.865.987.208.43.311.948.311 1.554 0 .6-.103 1.114-.31 1.543-.2.43-.485.763-.855.999-.37.23-.807.344-1.31.344-.496 0-.925-.125-1.288-.377a1.787 1.787 0 0 1-.721-1.032h.122v3.707h-.9Zm2.608-3.03c.533 0 .955-.181 1.266-.544.318-.37.477-.907.477-1.61 0-.71-.16-1.246-.477-1.609-.311-.37-.733-.555-1.266-.555-.525 0-.947.185-1.265.555-.31.363-.466.899-.466 1.609 0 .703.155 1.24.466 1.61.318.363.74.544 1.265.544Zm6.523.732c-.874 0-1.562-.251-2.065-.754-.503-.511-.755-1.218-.755-2.12 0-.585.111-1.092.333-1.521.222-.437.533-.773.933-1.01.4-.244.858-.367 1.376-.367.51 0 .94.108 1.288.322.347.215.614.522.799.922.185.392.277.858.277 1.398v.333h-4.317v-.566h3.73l-.19.144c0-.592-.133-1.054-.4-1.387-.266-.333-.662-.5-1.187-.5-.555 0-.988.197-1.299.589-.31.385-.466.906-.466 1.565v.1c0 .695.17 1.224.51 1.587.349.355.833.533 1.455.533.333 0 .644-.048.932-.144.296-.104.578-.271.844-.5l.31.633a2.517 2.517 0 0 1-.932.555c-.37.126-.762.188-1.176.188Zm5.904 0c-.547 0-1.025-.118-1.432-.355-.4-.237-.71-.573-.932-1.01-.215-.436-.322-.954-.322-1.554 0-.607.111-1.121.333-1.543a2.29 2.29 0 0 1 .933-.977c.406-.222.88-.333 1.42-.333.355 0 .7.063 1.033.189.34.126.621.304.843.533l-.322.644a2.197 2.197 0 0 0-.732-.478 2.063 2.063 0 0 0-.766-.155c-.577 0-1.025.181-1.343.544-.319.363-.478.892-.478 1.587 0 .688.16 1.221.478 1.599.318.377.766.566 1.343.566.244 0 .496-.048.755-.145.266-.096.514-.255.743-.477l.322.633a2.26 2.26 0 0 1-.854.544c-.34.126-.681.188-1.022.188Zm5.13 0c-.548 0-.966-.155-1.254-.466-.29-.318-.433-.795-.433-1.432v-3.074h-1.088v-.7h1.088v-1.52l.899-.256v1.776h1.598v.7H74.78v2.974c0 .444.074.763.222.955.155.185.385.278.688.278.14 0 .266-.012.377-.034.111-.029.211-.063.3-.1v.755a1.51 1.51 0 0 1-.377.1c-.141.03-.282.044-.422.044Zm4.326 0c-.873 0-1.562-.251-2.065-.754-.503-.511-.755-1.218-.755-2.12 0-.585.111-1.092.333-1.521.222-.437.533-.773.933-1.01.4-.244.858-.367 1.376-.367.51 0 .94.108 1.288.322.348.215.614.522.799.922.185.392.278.858.278 1.398v.333h-4.318v-.566h3.73l-.19.144c0-.592-.133-1.054-.4-1.387-.266-.333-.661-.5-1.187-.5-.555 0-.988.197-1.298.589-.311.385-.467.906-.467 1.565v.1c0 .695.17 1.224.51 1.587.349.355.833.533 1.455.533.333 0 .644-.048.932-.144.296-.104.578-.271.844-.5l.31.633a2.517 2.517 0 0 1-.932.555c-.37.126-.762.188-1.176.188Zm5.671 0c-.488 0-.917-.114-1.287-.344a2.375 2.375 0 0 1-.866-.999c-.2-.429-.3-.943-.3-1.543 0-.606.1-1.124.3-1.554.207-.429.496-.758.866-.987.37-.23.799-.345 1.287-.345.504 0 .936.126 1.299.378.37.251.618.592.744 1.021h-.133v-3.896h.899v8.17h-.888v-1.332h.122a1.818 1.818 0 0 1-.733 1.054c-.37.252-.806.377-1.31.377Zm.189-.732c.525 0 .947-.181 1.265-.544.319-.37.478-.907.478-1.61 0-.71-.16-1.246-.478-1.609-.318-.37-.74-.555-1.265-.555-.525 0-.947.185-1.265.555-.311.363-.467.899-.467 1.609 0 .703.156 1.24.467 1.61.318.363.74.544 1.265.544Zm-40.656 13.732c-.873 0-1.562-.251-2.065-.754-.503-.511-.755-1.218-.755-2.12 0-.585.111-1.092.334-1.521.221-.437.532-.773.932-1.01.4-.244.858-.367 1.376-.367.51 0 .94.108 1.288.322.348.215.614.522.8.922.184.392.277.858.277 1.398v.333h-4.318v-.566h3.73l-.19.144c0-.592-.133-1.054-.399-1.387-.266-.333-.662-.5-1.188-.5-.555 0-.988.197-1.298.589-.311.385-.467.906-.467 1.565v.1c0 .695.17 1.224.511 1.587.348.355.833.533 1.454.533.333 0 .644-.048.933-.144.296-.104.577-.271.843-.5l.31.633a2.517 2.517 0 0 1-.931.555c-.37.126-.763.188-1.177.188Zm5.14-.099-2.386-5.573h.976l1.998 4.907h-.3l2.02-4.907h.933l-2.386 5.573h-.855Zm6.654.099c-.874 0-1.562-.251-2.065-.754-.503-.511-.755-1.218-.755-2.12 0-.585.111-1.092.333-1.521.222-.437.533-.773.933-1.01.4-.244.858-.367 1.376-.367.51 0 .94.108 1.288.322.347.215.614.522.799.922.185.392.277.858.277 1.398v.333H54.76v-.566h3.73l-.189.144c0-.592-.133-1.054-.4-1.387-.266-.333-.662-.5-1.187-.5-.555 0-.988.197-1.299.589-.31.385-.466.906-.466 1.565v.1c0 .695.17 1.224.51 1.587.348.355.833.533 1.455.533.333 0 .644-.048.932-.144.296-.104.577-.271.844-.5l.31.633a2.517 2.517 0 0 1-.932.555c-.37.126-.762.188-1.176.188Zm3.562-.099v-4.285c0-.207-.011-.418-.033-.633-.015-.222-.033-.44-.056-.655h.866l.111 1.221h-.133c.163-.429.422-.754.777-.976.363-.23.78-.345 1.254-.345.659 0 1.155.178 1.488.533.34.348.51.899.51 1.654v3.486h-.899v-3.43c0-.526-.107-.907-.322-1.144-.207-.244-.533-.366-.977-.366-.518 0-.928.159-1.232.477-.303.319-.455.744-.455 1.277v3.186h-.899Zm8.48.099c-.548 0-.966-.155-1.254-.466-.29-.318-.433-.795-.433-1.432v-3.074h-1.088v-.7h1.088v-1.52l.899-.256v1.776h1.598v.7h-1.598v2.974c0 .444.074.763.222.955.155.185.385.278.688.278.14 0 .266-.012.377-.034.111-.029.211-.063.3-.1v.755a1.51 1.51 0 0 1-.377.1c-.141.03-.282.044-.422.044Zm3.758 0a4.22 4.22 0 0 1-1.243-.177 2.685 2.685 0 0 1-.954-.522l.31-.633c.274.215.57.374.888.478a3.33 3.33 0 0 0 1.01.155c.444 0 .778-.078 1-.233a.775.775 0 0 0 .344-.666.636.636 0 0 0-.222-.511c-.141-.133-.374-.236-.7-.31l-1.032-.211c-.474-.104-.829-.278-1.066-.522-.236-.252-.355-.57-.355-.955 0-.325.085-.61.255-.854.17-.252.419-.448.744-.589.326-.148.707-.222 1.143-.222.408 0 .781.063 1.122.189.347.119.636.292.865.522l-.322.621a2.135 2.135 0 0 0-.765-.477 2.367 2.367 0 0 0-.877-.166c-.437 0-.766.088-.988.266a.821.821 0 0 0-.322.677c0 .215.067.392.2.533.14.133.355.233.644.3l1.032.211c.503.111.877.284 1.12.521.252.23.378.54.378.933 0 .333-.092.625-.277.877a1.78 1.78 0 0 1-.777.566c-.326.133-.71.199-1.155.199Z" />
    <path fill="var(--fi-wheel-content, #161616)" d="m236.515 11.977-2.73-7.826h.966l2.386 7.049h-.388l2.508-7.049h.733l2.375 7.049h-.355l2.453-7.049h.91l-2.753 7.826h-.821l-2.309-6.783h.233l-2.408 6.783h-.8Zm10.116 0v-8.17h.899v3.83h-.144c.155-.437.414-.766.777-.988a2.37 2.37 0 0 1 1.276-.345c.666 0 1.162.182 1.488.544.325.356.488.896.488 1.621v3.508h-.899V8.524c0-.518-.104-.895-.311-1.132-.2-.237-.525-.355-.977-.355-.518 0-.932.16-1.243.477-.303.319-.455.737-.455 1.255v3.208h-.899Zm8.979.1c-.873 0-1.561-.252-2.064-.755-.504-.51-.755-1.218-.755-2.12 0-.585.111-1.092.333-1.521a2.42 2.42 0 0 1 .932-1.01 2.59 2.59 0 0 1 1.377-.367c.51 0 .939.108 1.287.322.348.215.614.522.799.922.185.392.278.858.278 1.398v.333h-4.318v-.566h3.73l-.189.144c0-.592-.133-1.054-.4-1.387-.266-.333-.662-.5-1.187-.5-.555 0-.988.197-1.299.589-.311.385-.466.906-.466 1.565v.1c0 .695.17 1.224.51 1.587.348.355.833.533 1.454.533.333 0 .644-.048.933-.144.296-.104.577-.27.843-.5l.311.633a2.522 2.522 0 0 1-.932.555 3.63 3.63 0 0 1-1.177.188Zm3.54-.1v-4.23c0-.222-.007-.447-.022-.677a9.315 9.315 0 0 0-.044-.666h.866l.111 1.355-.156.01c.074-.332.204-.606.389-.82a1.72 1.72 0 0 1 .655-.478c.251-.111.514-.167.788-.167.111 0 .207.004.288.012a.847.847 0 0 1 .245.055l-.012.8a1.301 1.301 0 0 0-.31-.067 1.92 1.92 0 0 0-.311-.023c-.326 0-.611.078-.855.234a1.566 1.566 0 0 0-.544.599 1.763 1.763 0 0 0-.177.777v3.286h-.911Zm6.465.1c-.873 0-1.561-.252-2.064-.755-.503-.51-.755-1.218-.755-2.12 0-.585.111-1.092.333-1.521a2.42 2.42 0 0 1 .932-1.01 2.59 2.59 0 0 1 1.377-.367c.51 0 .94.108 1.287.322.348.215.615.522.8.922.185.392.277.858.277 1.398v.333h-4.318v-.566h3.73l-.189.144c0-.592-.133-1.054-.4-1.387-.266-.333-.662-.5-1.187-.5-.555 0-.988.197-1.299.589-.311.385-.466.906-.466 1.565v.1c0 .695.17 1.224.51 1.587.348.355.833.533 1.455.533.333 0 .643-.048.932-.144.296-.104.577-.27.844-.5l.31.633a2.522 2.522 0 0 1-.932.555 3.63 3.63 0 0 1-1.177.188Zm6.235 2.42-.211-.744a4.21 4.21 0 0 0 .866-.289c.237-.104.433-.244.588-.422.156-.177.289-.4.4-.666l.288-.655-.022.378-2.431-5.695h.977l2.009 4.896h-.288l1.987-4.896h.943l-2.575 6.039a4.106 4.106 0 0 1-.489.888c-.177.244-.37.44-.577.588-.2.155-.422.278-.666.366a4.82 4.82 0 0 1-.799.211Zm8.33-2.42c-.533 0-.999-.115-1.399-.345a2.38 2.38 0 0 1-.91-.999c-.215-.436-.322-.95-.322-1.543 0-.599.107-1.113.322-1.542.214-.43.518-.759.91-.988.4-.237.866-.356 1.399-.356.54 0 1.006.119 1.398.356.4.23.707.558.922.988.222.429.333.943.333 1.542 0 .592-.111 1.107-.333 1.543-.215.43-.522.763-.922 1-.392.229-.858.343-1.398.343Zm0-.733c.532 0 .954-.181 1.265-.544.311-.37.466-.907.466-1.61 0-.71-.159-1.246-.477-1.609-.311-.37-.729-.555-1.254-.555-.526 0-.944.185-1.255.555-.31.363-.466.9-.466 1.61 0 .702.156 1.239.466 1.609.311.363.729.544 1.255.544Zm6.019.732c-.659 0-1.158-.18-1.498-.543-.333-.363-.5-.918-.5-1.665V6.404h.899v3.441c0 .511.104.888.311 1.133.207.236.529.355.966.355.488 0 .88-.16 1.176-.478.296-.318.444-.743.444-1.276V6.404h.899v5.573h-.877v-1.255h.145c-.156.43-.407.763-.755 1-.34.236-.744.354-1.21.354Zm7.336-.1V3.808h.899v8.17h-.899Zm2.645 0V6.405h.899v5.573h-.899Zm-.111-6.837v-1.01h1.11v1.01h-1.11Zm4.399 6.838-2.387-5.573h.977l1.998 4.907h-.3l2.02-4.907h.933l-2.387 5.573h-.854Zm6.653.1c-.873 0-1.561-.252-2.065-.755-.503-.51-.754-1.218-.754-2.12 0-.585.111-1.092.333-1.521.222-.437.532-.773.932-1.01.4-.244.858-.367 1.376-.367.511 0 .94.108 1.288.322.348.215.614.522.799.922.185.392.278.858.278 1.398v.333h-4.318v-.566h3.729l-.188.144c0-.592-.133-1.054-.4-1.387-.266-.333-.662-.5-1.188-.5-.555 0-.987.197-1.298.589-.311.385-.466.906-.466 1.565v.1c0 .695.17 1.224.51 1.587.348.355.833.533 1.454.533.333 0 .644-.048.933-.144.296-.104.577-.27.843-.5l.311.633a2.522 2.522 0 0 1-.932.555c-.37.126-.763.188-1.177.188ZM53.895 11.977V4.15h.922v7.826h-.922Zm2.773 0V7.692c0-.207-.011-.418-.033-.633-.015-.222-.034-.44-.056-.655h.866l.111 1.221h-.133c.148-.421.38-.747.7-.976.325-.23.717-.345 1.176-.345.466 0 .843.111 1.132.333.296.222.496.567.6 1.033h-.167a1.91 1.91 0 0 1 .744-1 2.14 2.14 0 0 1 1.243-.366c.614 0 1.076.178 1.387.533.311.348.466.9.466 1.654v3.486h-.899v-3.43c0-.526-.092-.907-.277-1.144-.185-.244-.481-.366-.888-.366-.466 0-.836.163-1.11.488-.267.319-.4.748-.4 1.288v3.164h-.899v-3.43c0-.526-.092-.907-.277-1.144-.185-.244-.481-.366-.888-.366-.467 0-.833.163-1.1.488-.266.319-.399.748-.399 1.288v3.164h-.899Zm9.745 0V7.692c0-.207-.011-.418-.033-.633-.015-.222-.034-.44-.056-.655h.866l.111 1.221h-.133c.148-.421.38-.747.7-.976.325-.23.717-.345 1.176-.345.466 0 .843.111 1.132.333.296.222.496.567.6 1.033h-.167a1.91 1.91 0 0 1 .744-1 2.14 2.14 0 0 1 1.243-.366c.614 0 1.076.178 1.387.533.311.348.466.9.466 1.654v3.486h-.899v-3.43c0-.526-.092-.907-.277-1.144-.185-.244-.481-.366-.888-.366-.466 0-.836.163-1.11.488-.267.319-.4.748-.4 1.288v3.164h-.899v-3.43c0-.526-.092-.907-.277-1.144-.185-.244-.481-.366-.888-.366-.467 0-.833.163-1.1.488-.266.319-.399.748-.399 1.288v3.164h-.899Zm9.745 0V6.404h.9v5.573h-.9Zm-.111-6.838v-1.01h1.11v1.01h-1.11Zm5.209 9.313c-.481 0-.925-.06-1.332-.178a3.394 3.394 0 0 1-1.099-.544l.266-.677c.23.163.456.293.678.389.222.096.451.166.688.21.237.053.488.078.755.078.547 0 .962-.144 1.243-.433.281-.288.422-.699.422-1.232v-1.631h.11a1.817 1.817 0 0 1-.732 1.043c-.37.252-.803.377-1.299.377-.51 0-.954-.11-1.332-.332a2.337 2.337 0 0 1-.865-.966c-.2-.422-.3-.918-.3-1.488 0-.562.1-1.05.3-1.465.207-.414.495-.732.865-.954.378-.23.822-.345 1.332-.345.504 0 .936.126 1.299.378.37.251.614.6.733 1.043l-.111-.11.1-1.21h.876a9.338 9.338 0 0 0-.088 1.287v4.251c0 .83-.215 1.454-.644 1.876-.422.422-1.044.633-1.865.633Zm-.133-3.33c.54 0 .965-.178 1.276-.533.311-.363.466-.87.466-1.52 0-.652-.155-1.155-.466-1.51-.31-.355-.736-.533-1.276-.533-.533 0-.959.178-1.277.533-.318.355-.477.858-.477 1.51 0 .65.16 1.157.477 1.52.319.355.744.533 1.277.533Zm4.346.855v-4.23c0-.222-.007-.447-.022-.677a9.429 9.429 0 0 0-.045-.666h.866l.111 1.355-.155.01c.074-.332.203-.606.388-.82.185-.215.404-.374.655-.478.252-.111.514-.167.788-.167.111 0 .207.004.289.012.089.007.17.025.244.055l-.011.8a1.305 1.305 0 0 0-.31-.067 1.912 1.912 0 0 0-.312-.023c-.325 0-.61.078-.854.234a1.566 1.566 0 0 0-.544.599 1.758 1.758 0 0 0-.178.777v3.286h-.91Zm6.12.1c-.495 0-.928-.115-1.298-.345a2.385 2.385 0 0 1-.866-.999c-.2-.429-.3-.943-.3-1.543 0-.606.1-1.124.3-1.554a2.31 2.31 0 0 1 .866-.987c.37-.23.803-.345 1.299-.345.503 0 .936.13 1.298.389.37.252.614.596.733 1.032h-.133l.122-1.32h.865l-.066.654a9.196 9.196 0 0 0-.022.633v4.285h-.9v-1.31h.123a1.77 1.77 0 0 1-.733 1.032c-.37.252-.8.377-1.287.377Zm.178-.733c.533 0 .955-.181 1.266-.544.31-.37.466-.907.466-1.61 0-.71-.156-1.246-.466-1.609-.311-.37-.733-.555-1.266-.555-.525 0-.947.185-1.265.555-.311.363-.466.9-.466 1.61 0 .702.155 1.239.466 1.609.318.363.74.544 1.265.544Zm6.334.732c-.548 0-.966-.155-1.254-.466-.29-.318-.433-.795-.433-1.432V7.104h-1.088v-.7h1.088v-1.52l.899-.256v1.776h1.598v.7h-1.598v2.974c0 .445.074.763.222.955.155.185.385.278.688.278.14 0 .266-.011.377-.034.111-.03.211-.063.3-.1v.755c-.104.045-.23.078-.377.1-.141.03-.282.044-.422.044Zm1.905-.1V6.405h.899v5.573h-.899Zm-.111-6.837v-1.01h1.11v1.01h-1.11Zm5.042 6.937c-.533 0-.999-.114-1.398-.344a2.382 2.382 0 0 1-.911-.999c-.214-.436-.321-.95-.321-1.543 0-.599.107-1.113.321-1.542a2.31 2.31 0 0 1 .911-.988c.399-.237.865-.356 1.398-.356.54 0 1.007.119 1.399.356.399.23.707.558.921.988.222.429.333.943.333 1.542 0 .592-.111 1.107-.333 1.543a2.36 2.36 0 0 1-.921 1c-.392.229-.859.343-1.399.343Zm0-.732c.533 0 .955-.181 1.266-.544.31-.37.466-.907.466-1.61 0-.71-.159-1.246-.477-1.609-.311-.37-.729-.555-1.255-.555-.525 0-.943.185-1.254.555-.311.363-.466.9-.466 1.61 0 .702.155 1.239.466 1.609.311.363.729.544 1.254.544Zm4.055.633V7.692c0-.207-.011-.418-.033-.633-.015-.222-.034-.44-.056-.655h.866l.111 1.221h-.133c.163-.429.422-.754.777-.976.362-.23.78-.345 1.254-.345.659 0 1.154.178 1.487.533.341.348.511.9.511 1.654v3.486h-.899v-3.43c0-.526-.107-.907-.322-1.144-.207-.244-.533-.366-.977-.366-.518 0-.928.16-1.232.477-.303.319-.455.744-.455 1.277v3.186h-.899Zm11.252.1c-.444 0-.859-.06-1.243-.178a2.685 2.685 0 0 1-.955-.522l.311-.633c.274.215.57.374.888.478.325.103.662.155 1.01.155.444 0 .777-.078.999-.233a.775.775 0 0 0 .344-.666.636.636 0 0 0-.222-.51c-.141-.134-.374-.237-.699-.311l-1.033-.211c-.473-.104-.828-.278-1.065-.522-.237-.252-.355-.57-.355-.955 0-.325.085-.61.255-.854.17-.252.418-.448.744-.589.325-.148.706-.222 1.143-.222.407 0 .781.063 1.121.19.348.118.636.291.866.52l-.322.622a2.119 2.119 0 0 0-.766-.477 2.369 2.369 0 0 0-.877-.166c-.437 0-.766.088-.988.266a.823.823 0 0 0-.322.677c0 .215.067.392.2.533.141.133.355.233.644.3l1.032.21c.503.112.877.285 1.121.522.252.23.378.54.378.933 0 .333-.093.625-.278.877a1.772 1.772 0 0 1-.777.566c-.325.133-.71.2-1.154.2Zm5.574 0c-.547 0-.965-.156-1.254-.467-.289-.318-.433-.795-.433-1.432V7.104h-1.088v-.7h1.088v-1.52l.899-.256v1.776h1.599v.7h-1.599v2.974c0 .445.074.763.222.955.156.185.385.278.688.278.141 0 .267-.011.378-.034.111-.03.211-.063.3-.1v.755c-.104.045-.23.078-.378.1-.14.03-.281.044-.422.044Zm4.025 0c-.496 0-.928-.115-1.298-.345a2.384 2.384 0 0 1-.866-.999c-.2-.429-.3-.943-.3-1.543 0-.606.1-1.124.3-1.554.207-.429.496-.758.866-.987.37-.23.802-.345 1.298-.345.503 0 .936.13 1.299.389.37.252.614.596.733 1.032h-.134l.122-1.32h.866l-.066.654a9.078 9.078 0 0 0-.023.633v4.285h-.899v-1.31h.122c-.118.436-.362.78-.732 1.032s-.799.377-1.288.377Zm.178-.733c.533 0 .954-.181 1.265-.544.311-.37.466-.907.466-1.61 0-.71-.155-1.246-.466-1.609-.311-.37-.732-.555-1.265-.555-.526 0-.947.185-1.266.555-.31.363-.466.9-.466 1.61 0 .702.156 1.239.466 1.609.319.363.74.544 1.266.544Zm6.334.732c-.548 0-.966-.155-1.255-.466-.288-.318-.433-.795-.433-1.432V7.104h-1.087v-.7h1.087v-1.52l.9-.256v1.776h1.598v.7h-1.598v2.974c0 .445.074.763.222.955.155.185.384.278.688.278.14 0 .266-.011.377-.034.111-.03.211-.063.3-.1v.755c-.104.045-.23.078-.378.1-.14.03-.281.044-.421.044Zm3.869 0c-.658 0-1.158-.18-1.498-.543-.333-.363-.5-.918-.5-1.665V6.404h.899v3.441c0 .511.104.888.311 1.133.207.236.529.355.966.355.488 0 .88-.16 1.176-.478.296-.318.444-.743.444-1.276V6.404h.899v5.573h-.876v-1.255h.144c-.156.43-.407.763-.755 1-.34.236-.744.354-1.21.354Zm6.296 0c-.444 0-.859-.059-1.244-.177a2.68 2.68 0 0 1-.954-.522l.311-.633c.273.215.569.374.888.478.325.103.662.155 1.01.155.444 0 .777-.078.999-.233a.775.775 0 0 0 .344-.666.636.636 0 0 0-.222-.51c-.141-.134-.374-.237-.7-.311l-1.032-.211c-.473-.104-.829-.278-1.065-.522-.237-.252-.356-.57-.356-.955 0-.325.085-.61.256-.854.17-.252.418-.448.743-.589.326-.148.707-.222 1.144-.222.407 0 .78.063 1.121.19.348.118.636.291.866.52l-.322.622a2.127 2.127 0 0 0-.766-.477 2.369 2.369 0 0 0-.877-.166c-.437 0-.766.088-.988.266a.82.82 0 0 0-.322.677c0 .215.067.392.2.533.14.133.355.233.644.3l1.032.21c.503.112.877.285 1.121.522.252.23.377.54.377.933 0 .333-.092.625-.277.877a1.772 1.772 0 0 1-.777.566c-.326.133-.71.2-1.154.2ZM37.382 78.356v-7.825h.922v7.026h3.951v.799h-4.873Zm8.07.1c-.496 0-.93-.115-1.3-.344a2.385 2.385 0 0 1-.865-1c-.2-.428-.3-.943-.3-1.542 0-.607.1-1.125.3-1.554a2.31 2.31 0 0 1 .866-.988c.37-.23.803-.344 1.298-.344.504 0 .936.13 1.299.388.37.252.614.596.733 1.033h-.134l.123-1.321h.865l-.066.655a9.196 9.196 0 0 0-.023.632v4.285h-.899v-1.31h.123a1.77 1.77 0 0 1-.733 1.032c-.37.252-.8.378-1.288.378Zm.177-.733c.533 0 .955-.181 1.265-.544.311-.37.467-.906.467-1.61 0-.71-.156-1.246-.467-1.609-.31-.37-.732-.555-1.265-.555-.526 0-.947.185-1.265.555-.311.363-.467.9-.467 1.61 0 .703.156 1.24.467 1.61.318.362.74.543 1.265.543Zm4.358.633v-4.285c0-.207-.011-.418-.034-.632-.014-.222-.033-.44-.055-.655h.866l.11 1.22h-.132c.162-.428.421-.754.777-.976.362-.23.78-.344 1.254-.344.658 0 1.154.178 1.487.533.34.347.51.899.51 1.654v3.485h-.898v-3.43c0-.525-.108-.906-.322-1.143-.207-.244-.533-.367-.977-.367-.518 0-.929.16-1.232.478-.303.318-.455.743-.455 1.276v3.186h-.9Zm8.957 2.475c-.481 0-.925-.059-1.332-.177a3.394 3.394 0 0 1-1.1-.544l.267-.677c.23.162.455.292.677.388.222.096.452.167.689.211.236.052.488.078.754.078.548 0 .962-.144 1.244-.433.28-.289.421-.7.421-1.232v-1.632h.111a1.817 1.817 0 0 1-.732 1.043c-.37.252-.803.378-1.299.378-.51 0-.954-.111-1.332-.333a2.337 2.337 0 0 1-.866-.966c-.2-.422-.3-.917-.3-1.487 0-.563.1-1.051.3-1.465.208-.415.496-.733.866-.955.378-.23.822-.344 1.332-.344.503 0 .936.126 1.299.377.37.252.614.6.732 1.044l-.11-.111.1-1.21h.876a9.338 9.338 0 0 0-.089 1.287v4.252c0 .829-.214 1.454-.643 1.876-.422.421-1.044.632-1.865.632Zm-.133-3.33c.54 0 .965-.177 1.276-.532.31-.363.466-.87.466-1.521 0-.651-.155-1.155-.466-1.51-.31-.355-.736-.533-1.276-.533-.533 0-.959.178-1.277.533-.318.355-.477.859-.477 1.51s.159 1.158.477 1.52c.318.356.744.533 1.277.533Zm6.333.955c-.659 0-1.159-.181-1.499-.544-.333-.363-.5-.918-.5-1.665v-3.463h.9v3.44c0 .511.103.889.31 1.133.208.237.53.355.966.355.489 0 .88-.159 1.177-.477.296-.318.444-.744.444-1.277v-3.174h.899v5.572h-.877v-1.254h.144c-.155.429-.407.762-.755.999-.34.237-.743.355-1.21.355Zm6.561 0c-.495 0-.928-.115-1.298-.344a2.385 2.385 0 0 1-.866-1c-.2-.428-.3-.943-.3-1.542 0-.607.1-1.125.3-1.554a2.31 2.31 0 0 1 .866-.988c.37-.23.803-.344 1.298-.344.504 0 .936.13 1.3.388.37.252.613.596.732 1.033h-.133l.122-1.321h.865l-.066.655a9.196 9.196 0 0 0-.022.632v4.285h-.9v-1.31h.123a1.77 1.77 0 0 1-.733 1.032c-.37.252-.8.378-1.288.378Zm.178-.733c.533 0 .955-.181 1.265-.544.311-.37.467-.906.467-1.61 0-.71-.156-1.246-.467-1.609-.31-.37-.732-.555-1.265-.555-.525 0-.947.185-1.265.555-.311.363-.467.9-.467 1.61 0 .703.156 1.24.467 1.61.318.362.74.543 1.265.543Zm6.811 3.108c-.481 0-.925-.059-1.332-.177a3.394 3.394 0 0 1-1.099-.544l.266-.677c.23.162.456.292.678.388.222.096.451.167.688.211.237.052.488.078.755.078.547 0 .962-.144 1.243-.433.281-.289.422-.7.422-1.232v-1.632h.11a1.817 1.817 0 0 1-.732 1.043c-.37.252-.803.378-1.299.378-.51 0-.954-.111-1.332-.333a2.337 2.337 0 0 1-.865-.966c-.2-.422-.3-.917-.3-1.487 0-.563.1-1.051.3-1.465.207-.415.495-.733.865-.955.378-.23.822-.344 1.332-.344.503 0 .936.126 1.299.377.37.252.614.6.733 1.044l-.111-.111.1-1.21h.876a9.338 9.338 0 0 0-.088 1.287v4.252c0 .829-.215 1.454-.644 1.876-.422.421-1.044.632-1.865.632Zm-.133-3.33c.54 0 .965-.177 1.276-.532.311-.363.466-.87.466-1.521 0-.651-.155-1.155-.466-1.51-.31-.355-.736-.533-1.276-.533-.533 0-.959.178-1.277.533-.318.355-.477.859-.477 1.51s.16 1.158.477 1.52c.319.356.744.533 1.277.533Zm6.843.955c-.873 0-1.561-.252-2.064-.755-.503-.51-.755-1.217-.755-2.12 0-.585.111-1.091.333-1.52.222-.437.533-.774.932-1.01.4-.245.859-.367 1.377-.367.51 0 .94.107 1.287.322.348.214.615.522.8.921.185.392.277.858.277 1.399v.333h-4.318v-.566h3.73l-.189.144c0-.592-.133-1.055-.4-1.388-.266-.333-.662-.5-1.187-.5-.555 0-.988.197-1.299.59-.31.384-.466.906-.466 1.564v.1c0 .696.17 1.225.51 1.588.348.355.833.532 1.455.532.333 0 .643-.048.932-.144.296-.104.577-.27.844-.5l.31.633a2.522 2.522 0 0 1-.932.555 3.63 3.63 0 0 1-1.177.189Z"/>
    <path fill="var(--fi-wheel-label-background, #F6F5F2)" d="M174.52 22.386h27.464v12.978H174.52z"/>
    <path fill="var(--fi-wheel-content-emphasis, #a93031)" d="M181.168 31.875v-4.681h.604l1.806 4.07h-.199l1.806-4.07h.598v4.681h-.624V28.13h.219l-1.687 3.745h-.431l-1.687-3.745h.226v3.745h-.631Zm7.106.06a1.73 1.73 0 0 1-.863-.206 1.445 1.445 0 0 1-.564-.598 2.025 2.025 0 0 1-.199-.93c0-.358.066-.665.199-.922.133-.261.321-.46.564-.598.244-.141.531-.212.863-.212.332 0 .62.07.864.212.247.137.438.337.571.598.137.257.205.564.205.923 0 .358-.068.668-.205.93a1.436 1.436 0 0 1-.571.597 1.735 1.735 0 0 1-.864.206Zm0-.525c.293 0 .525-.102.698-.305.172-.204.259-.505.259-.903 0-.399-.087-.697-.259-.897-.173-.203-.405-.305-.698-.305a.86.86 0 0 0-.69.305c-.173.2-.259.498-.259.897 0 .398.084.7.252.903.173.203.405.305.697.305Zm3.573.525c-.279 0-.536-.036-.77-.107-.235-.07-.43-.17-.585-.298l.206-.458c.164.123.346.216.545.279.199.061.403.092.611.092.243 0 .427-.042.551-.126a.419.419 0 0 0 .186-.358.355.355 0 0 0-.12-.28c-.075-.07-.201-.123-.378-.159l-.638-.126c-.283-.062-.498-.168-.644-.318a.795.795 0 0 1-.219-.578c0-.2.053-.376.159-.531.111-.155.266-.277.465-.365.204-.089.441-.133.711-.133.248 0 .478.035.69.106.213.07.39.173.531.306l-.212.444a1.506 1.506 0 0 0-.465-.265 1.451 1.451 0 0 0-.524-.1c-.248 0-.432.047-.552.14a.442.442 0 0 0-.179.365c0 .115.036.21.106.285.076.071.193.126.352.166l.638.126c.301.062.527.164.677.306.151.142.226.332.226.57 0 .209-.058.39-.173.545a1.055 1.055 0 0 1-.478.352c-.204.08-.443.12-.717.12Zm3.427 0c-.363 0-.637-.098-.823-.292-.186-.2-.279-.496-.279-.89v-1.706h-.651v-.518h.651v-.884l.671-.179v1.063h.929v.518h-.929v1.646c0 .248.044.425.132.531.089.107.217.16.385.16.085 0 .158-.007.22-.02.066-.018.126-.038.179-.06v.544a1.051 1.051 0 0 1-.233.06 1.279 1.279 0 0 1-.252.027Z"/>
    <path fill="var(--fi-wheel-label-background, #F6F5F2)" d="M174.52 106.892h27.464v12.978H174.52z"/>
    <path fill="var(--fi-wheel-content-emphasis, #a93031)" d="M180.309 116.381V111.7h.69v4.09h2.298v.591h-2.988Zm5.118.06c-.54 0-.965-.153-1.275-.459-.309-.305-.464-.728-.464-1.268 0-.349.066-.655.199-.916.137-.261.325-.463.564-.604.244-.146.525-.219.844-.219.314 0 .577.066.79.199.212.133.374.321.484.564.111.239.166.523.166.85v.213h-2.523v-.386h2.065l-.113.087c0-.332-.075-.589-.225-.77-.147-.186-.359-.279-.638-.279-.31 0-.549.108-.717.325-.168.213-.252.507-.252.883v.067c0 .394.095.69.285.889.195.199.469.299.824.299.194 0 .376-.026.544-.08.173-.057.336-.15.491-.278l.219.458a1.622 1.622 0 0 1-.564.318 2.29 2.29 0 0 1-.704.107Zm3.359 0a1.45 1.45 0 0 1-.777-.206 1.376 1.376 0 0 1-.517-.598 2.209 2.209 0 0 1-.18-.929c0-.363.06-.673.18-.93a1.38 1.38 0 0 1 .517-.591 1.41 1.41 0 0 1 .777-.212c.292 0 .547.073.764.219.217.146.361.345.431.597h-.073l.067-.757h.651l-.04.412a5.795 5.795 0 0 0-.014.392v2.543h-.67v-.744h.073a1.03 1.03 0 0 1-.438.591 1.34 1.34 0 0 1-.751.213Zm.166-.525a.862.862 0 0 0 .691-.305c.177-.204.265-.505.265-.903 0-.399-.088-.698-.265-.897a.862.862 0 0 0-.691-.305.887.887 0 0 0-.703.305c-.173.199-.259.498-.259.897 0 .398.086.699.259.903.172.203.407.305.703.305Zm3.748.525c-.279 0-.536-.036-.771-.107a1.649 1.649 0 0 1-.584-.298l.206-.459c.164.124.345.217.544.279.2.062.403.093.611.093.244 0 .427-.042.551-.126a.417.417 0 0 0 .186-.358.356.356 0 0 0-.119-.279c-.075-.071-.202-.124-.379-.16l-.637-.126c-.283-.062-.498-.168-.644-.319a.794.794 0 0 1-.219-.577c0-.199.053-.376.159-.531.111-.155.266-.277.465-.366.203-.088.44-.132.71-.132.248 0 .478.035.691.106.212.071.389.173.531.305l-.212.445a1.53 1.53 0 0 0-.465-.265 1.443 1.443 0 0 0-.525-.1c-.248 0-.431.046-.551.139a.443.443 0 0 0-.179.366c0 .115.035.21.106.285a.791.791 0 0 0 .352.166l.637.126c.301.062.527.164.678.306.15.141.225.332.225.571a.887.887 0 0 1-.172.544 1.063 1.063 0 0 1-.478.352c-.204.08-.443.12-.717.12Zm3.427 0c-.363 0-.638-.098-.823-.293-.186-.199-.279-.495-.279-.889v-1.707h-.651v-.518h.651v-.883l.67-.179v1.062h.93v.518h-.93v1.647c0 .248.045.425.133.531.089.106.217.16.385.16.084 0 .157-.007.219-.02.067-.018.126-.038.18-.06v.544a1.014 1.014 0 0 1-.233.06 1.258 1.258 0 0 1-.252.027Z"/>
    <path stroke="var(--fi-wheel-dashed-line, #161616)" stroke-dasharray="4 4" stroke-width=".5" d="M198.424 88.968h-16.862l-15.712 15.646-58.633 42.911 47.137 44.477 60.166-20.225 52.501-21.752 4.982-70.597-73.579 9.54Z"/>
  </svg>
  